%TF.GenerationSoftware,KiCad,Pcbnew,(6.0.2)*%
%TF.CreationDate,2022-02-20T23:39:01-05:00*%
%TF.ProjectId,Numpad,4e756d70-6164-42e6-9b69-6361645f7063,rev?*%
%TF.SameCoordinates,Original*%
%TF.FileFunction,Soldermask,Top*%
%TF.FilePolarity,Negative*%
%FSLAX46Y46*%
G04 Gerber Fmt 4.6, Leading zero omitted, Abs format (unit mm)*
G04 Created by KiCad (PCBNEW (6.0.2)) date 2022-02-20 23:39:01*
%MOMM*%
%LPD*%
G01*
G04 APERTURE LIST*
%ADD10C,1.750000*%
%ADD11C,3.987800*%
%ADD12C,3.048000*%
%ADD13C,4.400000*%
%ADD14R,1.700000X1.700000*%
%ADD15O,1.700000X1.700000*%
%ADD16C,1.600000*%
%ADD17O,1.600000X1.600000*%
%ADD18R,1.500000X1.500000*%
%ADD19O,1.500000X1.500000*%
%ADD20C,1.700000*%
G04 APERTURE END LIST*
D10*
%TO.C,MX1*%
X28257500Y-33337500D03*
X38417500Y-33337500D03*
D11*
X33337500Y-33337500D03*
%TD*%
D10*
%TO.C,MX2*%
X57467499Y-33337499D03*
D11*
X52387499Y-33337499D03*
D10*
X47307499Y-33337499D03*
%TD*%
%TO.C,MX7*%
X76517499Y-57149999D03*
X66357499Y-57149999D03*
D11*
X71437499Y-57149999D03*
%TD*%
%TO.C,MX4*%
X90487499Y-33337499D03*
D10*
X85407499Y-33337499D03*
X95567499Y-33337499D03*
%TD*%
D11*
%TO.C,MX10*%
X52387499Y-76199999D03*
D10*
X57467499Y-76199999D03*
X47307499Y-76199999D03*
%TD*%
%TO.C,MX18*%
X76517499Y-114299999D03*
X66357499Y-114299999D03*
D11*
X71437499Y-114299999D03*
%TD*%
D10*
%TO.C,MX3*%
X66357499Y-33337499D03*
X76517499Y-33337499D03*
D11*
X71437499Y-33337499D03*
%TD*%
D10*
%TO.C,MX8*%
X85407499Y-57149999D03*
D11*
X90487499Y-57149999D03*
D10*
X95567499Y-57149999D03*
%TD*%
D11*
%TO.C,MX6*%
X52387499Y-57149999D03*
D10*
X57467499Y-57149999D03*
X47307499Y-57149999D03*
%TD*%
D11*
%TO.C,MX19*%
X42862499Y-133349999D03*
D12*
X54800499Y-140334999D03*
D10*
X37782499Y-133349999D03*
D11*
X30924499Y-125094999D03*
D12*
X30924499Y-140334999D03*
D11*
X54800499Y-125094999D03*
D10*
X47942499Y-133349999D03*
%TD*%
%TO.C,MX20*%
X66357499Y-133349999D03*
D11*
X71437499Y-133349999D03*
D10*
X76517499Y-133349999D03*
%TD*%
D11*
%TO.C,MX21*%
X82232499Y-135762999D03*
D12*
X97472499Y-135762999D03*
X97472499Y-111886999D03*
D11*
X90487499Y-123824999D03*
X82232499Y-111886999D03*
D10*
X95567499Y-123824999D03*
X85407499Y-123824999D03*
%TD*%
D11*
%TO.C,MX11*%
X71437499Y-76199999D03*
D10*
X76517499Y-76199999D03*
X66357499Y-76199999D03*
%TD*%
%TO.C,MX5*%
X28257499Y-57149999D03*
D11*
X33337499Y-57149999D03*
D10*
X38417499Y-57149999D03*
%TD*%
%TO.C,MX12*%
X38417499Y-95249999D03*
D11*
X33337499Y-95249999D03*
D10*
X28257499Y-95249999D03*
%TD*%
D11*
%TO.C,MX17*%
X52387499Y-114299999D03*
D10*
X57467499Y-114299999D03*
X47307499Y-114299999D03*
%TD*%
%TO.C,MX13*%
X57467499Y-95249999D03*
D11*
X52387499Y-95249999D03*
D10*
X47307499Y-95249999D03*
%TD*%
%TO.C,MX14*%
X66357499Y-95249999D03*
X76517499Y-95249999D03*
D11*
X71437499Y-95249999D03*
%TD*%
D10*
%TO.C,MX15*%
X95567499Y-85724999D03*
D11*
X82232499Y-73786999D03*
D12*
X97472499Y-97662999D03*
X97472499Y-73786999D03*
D11*
X90487499Y-85724999D03*
D10*
X85407499Y-85724999D03*
D11*
X82232499Y-97662999D03*
%TD*%
D10*
%TO.C,MX16*%
X38417499Y-114299999D03*
D11*
X33337499Y-114299999D03*
D10*
X28257499Y-114299999D03*
%TD*%
%TO.C,MX9*%
X28257499Y-76199999D03*
X38417499Y-76199999D03*
D11*
X33337499Y-76199999D03*
%TD*%
D13*
%TO.C,H1*%
X26987499Y-45243749D03*
%TD*%
D14*
%TO.C,J1*%
X82137249Y-38893749D03*
D15*
X82137249Y-41433749D03*
X82137249Y-43973749D03*
X82137249Y-46513749D03*
X82137249Y-49053749D03*
X82137249Y-51593749D03*
%TD*%
D16*
%TO.C,R1*%
X47148749Y-66674999D03*
D17*
X36988749Y-66674999D03*
%TD*%
D18*
%TO.C,D16*%
X41274999Y-119702500D03*
D19*
X41274999Y-112082500D03*
%TD*%
D18*
%TO.C,D13*%
X60324999Y-101446249D03*
D19*
X60324999Y-93826249D03*
%TD*%
D18*
%TO.C,D8*%
X98424999Y-63346249D03*
D19*
X98424999Y-55726249D03*
%TD*%
D13*
%TO.C,H4*%
X90487500Y-139700000D03*
%TD*%
D18*
%TO.C,D18*%
X78803499Y-120496249D03*
D19*
X78803499Y-112876249D03*
%TD*%
D18*
%TO.C,D17*%
X60324999Y-120496249D03*
D19*
X60324999Y-112876249D03*
%TD*%
D18*
%TO.C,D10*%
X60324999Y-82396249D03*
D19*
X60324999Y-74776249D03*
%TD*%
D18*
%TO.C,D5*%
X41274999Y-63346249D03*
D19*
X41274999Y-55726249D03*
%TD*%
D18*
%TO.C,D2*%
X60324999Y-39533749D03*
D19*
X60324999Y-31913749D03*
%TD*%
D18*
%TO.C,D3*%
X79216249Y-39533749D03*
D19*
X79216249Y-31913749D03*
%TD*%
D18*
%TO.C,D11*%
X79374999Y-82396249D03*
D19*
X79374999Y-74776249D03*
%TD*%
D18*
%TO.C,D15*%
X98424999Y-91921249D03*
D19*
X98424999Y-84301249D03*
%TD*%
D18*
%TO.C,D4*%
X98424999Y-39533749D03*
D19*
X98424999Y-31913749D03*
%TD*%
D18*
%TO.C,D19*%
X50799999Y-139546249D03*
D19*
X50799999Y-131926249D03*
%TD*%
D18*
%TO.C,D21*%
X98424999Y-130021249D03*
D19*
X98424999Y-122401249D03*
%TD*%
D18*
%TO.C,D6*%
X60324999Y-63346249D03*
D19*
X60324999Y-55726249D03*
%TD*%
D18*
%TO.C,D20*%
X78676499Y-139546249D03*
D19*
X78676499Y-131926249D03*
%TD*%
D13*
%TO.C,H3*%
X42862500Y-123825000D03*
%TD*%
D20*
%TO.C,J2*%
X44037249Y-38893749D03*
D15*
X44037249Y-41433749D03*
X44037249Y-43973749D03*
X44037249Y-46513749D03*
X44037249Y-49053749D03*
X44037249Y-51593749D03*
%TD*%
D18*
%TO.C,D12*%
X41274999Y-101446249D03*
D19*
X41274999Y-93826249D03*
%TD*%
D18*
%TO.C,D1*%
X41116249Y-39501999D03*
D19*
X41116249Y-31881999D03*
%TD*%
D13*
%TO.C,H2*%
X96837499Y-45243749D03*
%TD*%
D18*
%TO.C,D9*%
X41274999Y-82396249D03*
D19*
X41274999Y-74776249D03*
%TD*%
D18*
%TO.C,D14*%
X78676499Y-101446249D03*
D19*
X78676499Y-93826249D03*
%TD*%
D18*
%TO.C,D7*%
X79374999Y-63346249D03*
D19*
X79374999Y-55726249D03*
%TD*%
M02*
