%TF.GenerationSoftware,KiCad,Pcbnew,(6.0.1)*%
%TF.CreationDate,2022-04-10T22:49:35-04:00*%
%TF.ProjectId,Numpad,4e756d70-6164-42e6-9b69-6361645f7063,rev?*%
%TF.SameCoordinates,Original*%
%TF.FileFunction,Legend,Bot*%
%TF.FilePolarity,Positive*%
%FSLAX46Y46*%
G04 Gerber Fmt 4.6, Leading zero omitted, Abs format (unit mm)*
G04 Created by KiCad (PCBNEW (6.0.1)) date 2022-04-10 22:49:35*
%MOMM*%
%LPD*%
G01*
G04 APERTURE LIST*
%ADD10C,0.150000*%
%ADD11C,0.120000*%
G04 APERTURE END LIST*
D10*
X77198975Y-42804879D02*
X77198975Y-41804879D01*
X76960879Y-41804879D01*
X76818022Y-41852499D01*
X76722784Y-41947737D01*
X76675165Y-42042975D01*
X76627546Y-42233451D01*
X76627546Y-42376308D01*
X76675165Y-42566784D01*
X76722784Y-42662022D01*
X76818022Y-42757260D01*
X76960879Y-42804879D01*
X77198975Y-42804879D01*
X75818022Y-42757260D02*
X75913260Y-42804879D01*
X76103737Y-42804879D01*
X76198975Y-42757260D01*
X76246594Y-42662022D01*
X76246594Y-42281070D01*
X76198975Y-42185832D01*
X76103737Y-42138213D01*
X75913260Y-42138213D01*
X75818022Y-42185832D01*
X75770403Y-42281070D01*
X75770403Y-42376308D01*
X76246594Y-42471546D01*
X75389451Y-42757260D02*
X75294213Y-42804879D01*
X75103737Y-42804879D01*
X75008499Y-42757260D01*
X74960879Y-42662022D01*
X74960879Y-42614403D01*
X75008499Y-42519165D01*
X75103737Y-42471546D01*
X75246594Y-42471546D01*
X75341832Y-42423927D01*
X75389451Y-42328689D01*
X75389451Y-42281070D01*
X75341832Y-42185832D01*
X75246594Y-42138213D01*
X75103737Y-42138213D01*
X75008499Y-42185832D01*
X74532308Y-42804879D02*
X74532308Y-42138213D01*
X74532308Y-41804879D02*
X74579927Y-41852499D01*
X74532308Y-41900118D01*
X74484689Y-41852499D01*
X74532308Y-41804879D01*
X74532308Y-41900118D01*
X73627546Y-42138213D02*
X73627546Y-42947737D01*
X73675165Y-43042975D01*
X73722784Y-43090594D01*
X73818022Y-43138213D01*
X73960879Y-43138213D01*
X74056118Y-43090594D01*
X73627546Y-42757260D02*
X73722784Y-42804879D01*
X73913260Y-42804879D01*
X74008499Y-42757260D01*
X74056118Y-42709641D01*
X74103737Y-42614403D01*
X74103737Y-42328689D01*
X74056118Y-42233451D01*
X74008499Y-42185832D01*
X73913260Y-42138213D01*
X73722784Y-42138213D01*
X73627546Y-42185832D01*
X73151356Y-42138213D02*
X73151356Y-42804879D01*
X73151356Y-42233451D02*
X73103737Y-42185832D01*
X73008499Y-42138213D01*
X72865641Y-42138213D01*
X72770403Y-42185832D01*
X72722784Y-42281070D01*
X72722784Y-42804879D01*
X71865641Y-42757260D02*
X71960879Y-42804879D01*
X72151356Y-42804879D01*
X72246594Y-42757260D01*
X72294213Y-42662022D01*
X72294213Y-42281070D01*
X72246594Y-42185832D01*
X72151356Y-42138213D01*
X71960879Y-42138213D01*
X71865641Y-42185832D01*
X71818022Y-42281070D01*
X71818022Y-42376308D01*
X72294213Y-42471546D01*
X70960879Y-42804879D02*
X70960879Y-41804879D01*
X70960879Y-42757260D02*
X71056118Y-42804879D01*
X71246594Y-42804879D01*
X71341832Y-42757260D01*
X71389451Y-42709641D01*
X71437070Y-42614403D01*
X71437070Y-42328689D01*
X71389451Y-42233451D01*
X71341832Y-42185832D01*
X71246594Y-42138213D01*
X71056118Y-42138213D01*
X70960879Y-42185832D01*
X69722784Y-42804879D02*
X69722784Y-41804879D01*
X69722784Y-42185832D02*
X69627546Y-42138213D01*
X69437070Y-42138213D01*
X69341832Y-42185832D01*
X69294213Y-42233451D01*
X69246594Y-42328689D01*
X69246594Y-42614403D01*
X69294213Y-42709641D01*
X69341832Y-42757260D01*
X69437070Y-42804879D01*
X69627546Y-42804879D01*
X69722784Y-42757260D01*
X68913260Y-42138213D02*
X68675165Y-42804879D01*
X68437070Y-42138213D02*
X68675165Y-42804879D01*
X68770403Y-43042975D01*
X68818022Y-43090594D01*
X68913260Y-43138213D01*
X67294213Y-42804879D02*
X67294213Y-41804879D01*
X66960879Y-42519165D01*
X66627546Y-41804879D01*
X66627546Y-42804879D01*
X66151356Y-42804879D02*
X66151356Y-42138213D01*
X66151356Y-41804879D02*
X66198975Y-41852499D01*
X66151356Y-41900118D01*
X66103737Y-41852499D01*
X66151356Y-41804879D01*
X66151356Y-41900118D01*
X65246594Y-42757260D02*
X65341832Y-42804879D01*
X65532308Y-42804879D01*
X65627546Y-42757260D01*
X65675165Y-42709641D01*
X65722784Y-42614403D01*
X65722784Y-42328689D01*
X65675165Y-42233451D01*
X65627546Y-42185832D01*
X65532308Y-42138213D01*
X65341832Y-42138213D01*
X65246594Y-42185832D01*
X64818022Y-42804879D02*
X64818022Y-41804879D01*
X64389451Y-42804879D02*
X64389451Y-42281070D01*
X64437070Y-42185832D01*
X64532308Y-42138213D01*
X64675165Y-42138213D01*
X64770403Y-42185832D01*
X64818022Y-42233451D01*
X63484689Y-42804879D02*
X63484689Y-42281070D01*
X63532308Y-42185832D01*
X63627546Y-42138213D01*
X63818022Y-42138213D01*
X63913260Y-42185832D01*
X63484689Y-42757260D02*
X63579927Y-42804879D01*
X63818022Y-42804879D01*
X63913260Y-42757260D01*
X63960879Y-42662022D01*
X63960879Y-42566784D01*
X63913260Y-42471546D01*
X63818022Y-42423927D01*
X63579927Y-42423927D01*
X63484689Y-42376308D01*
X62627546Y-42757260D02*
X62722784Y-42804879D01*
X62913260Y-42804879D01*
X63008499Y-42757260D01*
X63056118Y-42662022D01*
X63056118Y-42281070D01*
X63008499Y-42185832D01*
X62913260Y-42138213D01*
X62722784Y-42138213D01*
X62627546Y-42185832D01*
X62579927Y-42281070D01*
X62579927Y-42376308D01*
X63056118Y-42471546D01*
X62008499Y-42804879D02*
X62103737Y-42757260D01*
X62151356Y-42662022D01*
X62151356Y-41804879D01*
X60389451Y-42804879D02*
X60865641Y-42804879D01*
X60865641Y-41804879D01*
X59675165Y-42757260D02*
X59770403Y-42804879D01*
X59960879Y-42804879D01*
X60056118Y-42757260D01*
X60103737Y-42662022D01*
X60103737Y-42281070D01*
X60056118Y-42185832D01*
X59960879Y-42138213D01*
X59770403Y-42138213D01*
X59675165Y-42185832D01*
X59627546Y-42281070D01*
X59627546Y-42376308D01*
X60103737Y-42471546D01*
X58818022Y-42757260D02*
X58913260Y-42804879D01*
X59103737Y-42804879D01*
X59198975Y-42757260D01*
X59246594Y-42662022D01*
X59246594Y-42281070D01*
X59198975Y-42185832D01*
X59103737Y-42138213D01*
X58913260Y-42138213D01*
X58818022Y-42185832D01*
X58770403Y-42281070D01*
X58770403Y-42376308D01*
X59246594Y-42471546D01*
X72937070Y-43891070D02*
X73270403Y-43891070D01*
X73270403Y-44414879D02*
X73270403Y-43414879D01*
X72794213Y-43414879D01*
X72032308Y-44367260D02*
X72127546Y-44414879D01*
X72318022Y-44414879D01*
X72413260Y-44367260D01*
X72460879Y-44272022D01*
X72460879Y-43891070D01*
X72413260Y-43795832D01*
X72318022Y-43748213D01*
X72127546Y-43748213D01*
X72032308Y-43795832D01*
X71984689Y-43891070D01*
X71984689Y-43986308D01*
X72460879Y-44081546D01*
X71556118Y-44414879D02*
X71556118Y-43414879D01*
X71556118Y-43795832D02*
X71460879Y-43748213D01*
X71270403Y-43748213D01*
X71175165Y-43795832D01*
X71127546Y-43843451D01*
X71079927Y-43938689D01*
X71079927Y-44224403D01*
X71127546Y-44319641D01*
X71175165Y-44367260D01*
X71270403Y-44414879D01*
X71460879Y-44414879D01*
X71556118Y-44367260D01*
X70651356Y-44414879D02*
X70651356Y-43748213D01*
X70651356Y-43938689D02*
X70603737Y-43843451D01*
X70556118Y-43795832D01*
X70460879Y-43748213D01*
X70365641Y-43748213D01*
X69603737Y-43748213D02*
X69603737Y-44414879D01*
X70032308Y-43748213D02*
X70032308Y-44272022D01*
X69984689Y-44367260D01*
X69889451Y-44414879D01*
X69746594Y-44414879D01*
X69651356Y-44367260D01*
X69603737Y-44319641D01*
X68698975Y-44414879D02*
X68698975Y-43891070D01*
X68746594Y-43795832D01*
X68841832Y-43748213D01*
X69032308Y-43748213D01*
X69127546Y-43795832D01*
X68698975Y-44367260D02*
X68794213Y-44414879D01*
X69032308Y-44414879D01*
X69127546Y-44367260D01*
X69175165Y-44272022D01*
X69175165Y-44176784D01*
X69127546Y-44081546D01*
X69032308Y-44033927D01*
X68794213Y-44033927D01*
X68698975Y-43986308D01*
X68222784Y-44414879D02*
X68222784Y-43748213D01*
X68222784Y-43938689D02*
X68175165Y-43843451D01*
X68127546Y-43795832D01*
X68032308Y-43748213D01*
X67937070Y-43748213D01*
X67698975Y-43748213D02*
X67460879Y-44414879D01*
X67222784Y-43748213D02*
X67460879Y-44414879D01*
X67556118Y-44652975D01*
X67603737Y-44700594D01*
X67698975Y-44748213D01*
X66127546Y-43510118D02*
X66079927Y-43462499D01*
X65984689Y-43414879D01*
X65746594Y-43414879D01*
X65651356Y-43462499D01*
X65603737Y-43510118D01*
X65556118Y-43605356D01*
X65556118Y-43700594D01*
X65603737Y-43843451D01*
X66175165Y-44414879D01*
X65556118Y-44414879D01*
X64937070Y-43414879D02*
X64841832Y-43414879D01*
X64746594Y-43462499D01*
X64698975Y-43510118D01*
X64651356Y-43605356D01*
X64603737Y-43795832D01*
X64603737Y-44033927D01*
X64651356Y-44224403D01*
X64698975Y-44319641D01*
X64746594Y-44367260D01*
X64841832Y-44414879D01*
X64937070Y-44414879D01*
X65032308Y-44367260D01*
X65079927Y-44319641D01*
X65127546Y-44224403D01*
X65175165Y-44033927D01*
X65175165Y-43795832D01*
X65127546Y-43605356D01*
X65079927Y-43510118D01*
X65032308Y-43462499D01*
X64937070Y-43414879D01*
X64222784Y-43510118D02*
X64175165Y-43462499D01*
X64079927Y-43414879D01*
X63841832Y-43414879D01*
X63746594Y-43462499D01*
X63698975Y-43510118D01*
X63651356Y-43605356D01*
X63651356Y-43700594D01*
X63698975Y-43843451D01*
X64270403Y-44414879D01*
X63651356Y-44414879D01*
X63270403Y-43510118D02*
X63222784Y-43462499D01*
X63127546Y-43414879D01*
X62889451Y-43414879D01*
X62794213Y-43462499D01*
X62746594Y-43510118D01*
X62698975Y-43605356D01*
X62698975Y-43700594D01*
X62746594Y-43843451D01*
X63318022Y-44414879D01*
X62698975Y-44414879D01*
X71151356Y-46024879D02*
X71484689Y-45548689D01*
X71722784Y-46024879D02*
X71722784Y-45024879D01*
X71341832Y-45024879D01*
X71246594Y-45072499D01*
X71198975Y-45120118D01*
X71151356Y-45215356D01*
X71151356Y-45358213D01*
X71198975Y-45453451D01*
X71246594Y-45501070D01*
X71341832Y-45548689D01*
X71722784Y-45548689D01*
X70341832Y-45977260D02*
X70437070Y-46024879D01*
X70627546Y-46024879D01*
X70722784Y-45977260D01*
X70770403Y-45882022D01*
X70770403Y-45501070D01*
X70722784Y-45405832D01*
X70627546Y-45358213D01*
X70437070Y-45358213D01*
X70341832Y-45405832D01*
X70294213Y-45501070D01*
X70294213Y-45596308D01*
X70770403Y-45691546D01*
X69960879Y-45358213D02*
X69722784Y-46024879D01*
X69484689Y-45358213D01*
X69103737Y-46024879D02*
X69103737Y-45358213D01*
X69103737Y-45024879D02*
X69151356Y-45072499D01*
X69103737Y-45120118D01*
X69056118Y-45072499D01*
X69103737Y-45024879D01*
X69103737Y-45120118D01*
X68675165Y-45977260D02*
X68579927Y-46024879D01*
X68389451Y-46024879D01*
X68294213Y-45977260D01*
X68246594Y-45882022D01*
X68246594Y-45834403D01*
X68294213Y-45739165D01*
X68389451Y-45691546D01*
X68532308Y-45691546D01*
X68627546Y-45643927D01*
X68675165Y-45548689D01*
X68675165Y-45501070D01*
X68627546Y-45405832D01*
X68532308Y-45358213D01*
X68389451Y-45358213D01*
X68294213Y-45405832D01*
X67818022Y-46024879D02*
X67818022Y-45358213D01*
X67818022Y-45024879D02*
X67865641Y-45072499D01*
X67818022Y-45120118D01*
X67770403Y-45072499D01*
X67818022Y-45024879D01*
X67818022Y-45120118D01*
X67198975Y-46024879D02*
X67294213Y-45977260D01*
X67341832Y-45929641D01*
X67389451Y-45834403D01*
X67389451Y-45548689D01*
X67341832Y-45453451D01*
X67294213Y-45405832D01*
X67198975Y-45358213D01*
X67056118Y-45358213D01*
X66960879Y-45405832D01*
X66913260Y-45453451D01*
X66865641Y-45548689D01*
X66865641Y-45834403D01*
X66913260Y-45929641D01*
X66960879Y-45977260D01*
X67056118Y-46024879D01*
X67198975Y-46024879D01*
X66437070Y-45358213D02*
X66437070Y-46024879D01*
X66437070Y-45453451D02*
X66389451Y-45405832D01*
X66294213Y-45358213D01*
X66151356Y-45358213D01*
X66056118Y-45405832D01*
X66008499Y-45501070D01*
X66008499Y-46024879D01*
X64246594Y-46024879D02*
X64818022Y-46024879D01*
X64532308Y-46024879D02*
X64532308Y-45024879D01*
X64627546Y-45167737D01*
X64722784Y-45262975D01*
X64818022Y-45310594D01*
X72627546Y-46634879D02*
X72627546Y-47349165D01*
X72675165Y-47492022D01*
X72770403Y-47587260D01*
X72913260Y-47634879D01*
X73008499Y-47634879D01*
X71675165Y-47634879D02*
X72151356Y-47634879D01*
X72151356Y-46634879D01*
X70770403Y-47539641D02*
X70818022Y-47587260D01*
X70960879Y-47634879D01*
X71056118Y-47634879D01*
X71198975Y-47587260D01*
X71294213Y-47492022D01*
X71341832Y-47396784D01*
X71389451Y-47206308D01*
X71389451Y-47063451D01*
X71341832Y-46872975D01*
X71294213Y-46777737D01*
X71198975Y-46682499D01*
X71056118Y-46634879D01*
X70960879Y-46634879D01*
X70818022Y-46682499D01*
X70770403Y-46730118D01*
X70056118Y-46634879D02*
X70056118Y-47349165D01*
X70103737Y-47492022D01*
X70198975Y-47587260D01*
X70341832Y-47634879D01*
X70437070Y-47634879D01*
X69103737Y-47634879D02*
X69579927Y-47634879D01*
X69579927Y-46634879D01*
X68198975Y-47539641D02*
X68246594Y-47587260D01*
X68389451Y-47634879D01*
X68484689Y-47634879D01*
X68627546Y-47587260D01*
X68722784Y-47492022D01*
X68770403Y-47396784D01*
X68818022Y-47206308D01*
X68818022Y-47063451D01*
X68770403Y-46872975D01*
X68722784Y-46777737D01*
X68627546Y-46682499D01*
X68484689Y-46634879D01*
X68389451Y-46634879D01*
X68246594Y-46682499D01*
X68198975Y-46730118D01*
X67484689Y-46634879D02*
X67484689Y-47349165D01*
X67532308Y-47492022D01*
X67627546Y-47587260D01*
X67770403Y-47634879D01*
X67865641Y-47634879D01*
X66532308Y-47634879D02*
X67008499Y-47634879D01*
X67008499Y-46634879D01*
X65627546Y-47539641D02*
X65675165Y-47587260D01*
X65818022Y-47634879D01*
X65913260Y-47634879D01*
X66056118Y-47587260D01*
X66151356Y-47492022D01*
X66198975Y-47396784D01*
X66246594Y-47206308D01*
X66246594Y-47063451D01*
X66198975Y-46872975D01*
X66151356Y-46777737D01*
X66056118Y-46682499D01*
X65913260Y-46634879D01*
X65818022Y-46634879D01*
X65675165Y-46682499D01*
X65627546Y-46730118D01*
X64913260Y-46634879D02*
X64913260Y-47349165D01*
X64960879Y-47492022D01*
X65056118Y-47587260D01*
X65198975Y-47634879D01*
X65294213Y-47634879D01*
X63960879Y-47634879D02*
X64437070Y-47634879D01*
X64437070Y-46634879D01*
X63056118Y-47539641D02*
X63103737Y-47587260D01*
X63246594Y-47634879D01*
X63341832Y-47634879D01*
X63484689Y-47587260D01*
X63579927Y-47492022D01*
X63627546Y-47396784D01*
X63675165Y-47206308D01*
X63675165Y-47063451D01*
X63627546Y-46872975D01*
X63579927Y-46777737D01*
X63484689Y-46682499D01*
X63341832Y-46634879D01*
X63246594Y-46634879D01*
X63103737Y-46682499D01*
X63056118Y-46730118D01*
%TO.C,H1*%
X27749403Y-42496129D02*
X27749403Y-41496129D01*
X27749403Y-41972320D02*
X27177975Y-41972320D01*
X27177975Y-42496129D02*
X27177975Y-41496129D01*
X26177975Y-42496129D02*
X26749403Y-42496129D01*
X26463689Y-42496129D02*
X26463689Y-41496129D01*
X26558927Y-41638987D01*
X26654165Y-41734225D01*
X26749403Y-41781844D01*
%TO.C,J1*%
X82470582Y-34841380D02*
X82470582Y-35555666D01*
X82518201Y-35698523D01*
X82613439Y-35793761D01*
X82756296Y-35841380D01*
X82851534Y-35841380D01*
X81470582Y-35841380D02*
X82042010Y-35841380D01*
X81756296Y-35841380D02*
X81756296Y-34841380D01*
X81851534Y-34984238D01*
X81946772Y-35079476D01*
X82042010Y-35127095D01*
%TO.C,R1*%
X43505415Y-64968379D02*
X43838749Y-64492189D01*
X44076844Y-64968379D02*
X44076844Y-63968379D01*
X43695891Y-63968379D01*
X43600653Y-64015999D01*
X43553034Y-64063618D01*
X43505415Y-64158856D01*
X43505415Y-64301713D01*
X43553034Y-64396951D01*
X43600653Y-64444570D01*
X43695891Y-64492189D01*
X44076844Y-64492189D01*
X42553034Y-64968379D02*
X43124463Y-64968379D01*
X42838749Y-64968379D02*
X42838749Y-63968379D01*
X42933987Y-64111237D01*
X43029225Y-64206475D01*
X43124463Y-64254094D01*
%TO.C,D16*%
X43647379Y-115471963D02*
X42647379Y-115471963D01*
X42647379Y-115710058D01*
X42694999Y-115852915D01*
X42790237Y-115948153D01*
X42885475Y-115995772D01*
X43075951Y-116043391D01*
X43218808Y-116043391D01*
X43409284Y-115995772D01*
X43504522Y-115948153D01*
X43599760Y-115852915D01*
X43647379Y-115710058D01*
X43647379Y-115471963D01*
X43647379Y-116995772D02*
X43647379Y-116424344D01*
X43647379Y-116710058D02*
X42647379Y-116710058D01*
X42790237Y-116614820D01*
X42885475Y-116519582D01*
X42933094Y-116424344D01*
X42647379Y-117852915D02*
X42647379Y-117662439D01*
X42694999Y-117567201D01*
X42742618Y-117519582D01*
X42885475Y-117424344D01*
X43075951Y-117376725D01*
X43456903Y-117376725D01*
X43552141Y-117424344D01*
X43599760Y-117471963D01*
X43647379Y-117567201D01*
X43647379Y-117757677D01*
X43599760Y-117852915D01*
X43552141Y-117900534D01*
X43456903Y-117948153D01*
X43218808Y-117948153D01*
X43123570Y-117900534D01*
X43075951Y-117852915D01*
X43028332Y-117757677D01*
X43028332Y-117567201D01*
X43075951Y-117471963D01*
X43123570Y-117424344D01*
X43218808Y-117376725D01*
X40139880Y-120234344D02*
X39139880Y-120234344D01*
X40139880Y-120805772D02*
X39568452Y-120377201D01*
X39139880Y-120805772D02*
X39711309Y-120234344D01*
%TO.C,D13*%
X62697379Y-95628214D02*
X61697379Y-95628214D01*
X61697379Y-95866309D01*
X61744999Y-96009166D01*
X61840237Y-96104404D01*
X61935475Y-96152023D01*
X62125951Y-96199642D01*
X62268808Y-96199642D01*
X62459284Y-96152023D01*
X62554522Y-96104404D01*
X62649760Y-96009166D01*
X62697379Y-95866309D01*
X62697379Y-95628214D01*
X62697379Y-97152023D02*
X62697379Y-96580595D01*
X62697379Y-96866309D02*
X61697379Y-96866309D01*
X61840237Y-96771071D01*
X61935475Y-96675833D01*
X61983094Y-96580595D01*
X61697379Y-97485357D02*
X61697379Y-98104404D01*
X62078332Y-97771071D01*
X62078332Y-97913928D01*
X62125951Y-98009166D01*
X62173570Y-98056785D01*
X62268808Y-98104404D01*
X62506903Y-98104404D01*
X62602141Y-98056785D01*
X62649760Y-98009166D01*
X62697379Y-97913928D01*
X62697379Y-97628214D01*
X62649760Y-97532976D01*
X62602141Y-97485357D01*
X62527379Y-100390595D02*
X61527379Y-100390595D01*
X62527379Y-100962023D02*
X61955951Y-100533452D01*
X61527379Y-100962023D02*
X62098808Y-100390595D01*
%TO.C,D8*%
X100797379Y-58798153D02*
X99797379Y-58798153D01*
X99797379Y-59036249D01*
X99844999Y-59179106D01*
X99940237Y-59274344D01*
X100035475Y-59321963D01*
X100225951Y-59369582D01*
X100368808Y-59369582D01*
X100559284Y-59321963D01*
X100654522Y-59274344D01*
X100749760Y-59179106D01*
X100797379Y-59036249D01*
X100797379Y-58798153D01*
X100225951Y-59941010D02*
X100178332Y-59845772D01*
X100130713Y-59798153D01*
X100035475Y-59750534D01*
X99987856Y-59750534D01*
X99892618Y-59798153D01*
X99844999Y-59845772D01*
X99797379Y-59941010D01*
X99797379Y-60131487D01*
X99844999Y-60226725D01*
X99892618Y-60274344D01*
X99987856Y-60321963D01*
X100035475Y-60321963D01*
X100130713Y-60274344D01*
X100178332Y-60226725D01*
X100225951Y-60131487D01*
X100225951Y-59941010D01*
X100273570Y-59845772D01*
X100321189Y-59798153D01*
X100416427Y-59750534D01*
X100606903Y-59750534D01*
X100702141Y-59798153D01*
X100749760Y-59845772D01*
X100797379Y-59941010D01*
X100797379Y-60131487D01*
X100749760Y-60226725D01*
X100702141Y-60274344D01*
X100606903Y-60321963D01*
X100416427Y-60321963D01*
X100321189Y-60274344D01*
X100273570Y-60226725D01*
X100225951Y-60131487D01*
X100627379Y-63084344D02*
X99627379Y-63084344D01*
X100627379Y-63655772D02*
X100055951Y-63227201D01*
X99627379Y-63655772D02*
X100198808Y-63084344D01*
%TO.C,H4*%
X81724404Y-102027380D02*
X81724404Y-101027380D01*
X81724404Y-101503571D02*
X81152976Y-101503571D01*
X81152976Y-102027380D02*
X81152976Y-101027380D01*
X80248214Y-101360714D02*
X80248214Y-102027380D01*
X80486309Y-100979761D02*
X80724404Y-101694047D01*
X80105357Y-101694047D01*
%TO.C,D18*%
X81175879Y-115471963D02*
X80175879Y-115471963D01*
X80175879Y-115710058D01*
X80223499Y-115852915D01*
X80318737Y-115948153D01*
X80413975Y-115995772D01*
X80604451Y-116043391D01*
X80747308Y-116043391D01*
X80937784Y-115995772D01*
X81033022Y-115948153D01*
X81128260Y-115852915D01*
X81175879Y-115710058D01*
X81175879Y-115471963D01*
X81175879Y-116995772D02*
X81175879Y-116424344D01*
X81175879Y-116710058D02*
X80175879Y-116710058D01*
X80318737Y-116614820D01*
X80413975Y-116519582D01*
X80461594Y-116424344D01*
X80604451Y-117567201D02*
X80556832Y-117471963D01*
X80509213Y-117424344D01*
X80413975Y-117376725D01*
X80366356Y-117376725D01*
X80271118Y-117424344D01*
X80223499Y-117471963D01*
X80175879Y-117567201D01*
X80175879Y-117757677D01*
X80223499Y-117852915D01*
X80271118Y-117900534D01*
X80366356Y-117948153D01*
X80413975Y-117948153D01*
X80509213Y-117900534D01*
X80556832Y-117852915D01*
X80604451Y-117757677D01*
X80604451Y-117567201D01*
X80652070Y-117471963D01*
X80699689Y-117424344D01*
X80794927Y-117376725D01*
X80985403Y-117376725D01*
X81080641Y-117424344D01*
X81128260Y-117471963D01*
X81175879Y-117567201D01*
X81175879Y-117757677D01*
X81128260Y-117852915D01*
X81080641Y-117900534D01*
X80985403Y-117948153D01*
X80794927Y-117948153D01*
X80699689Y-117900534D01*
X80652070Y-117852915D01*
X80604451Y-117757677D01*
X81005879Y-120234344D02*
X80005879Y-120234344D01*
X81005879Y-120805772D02*
X80434451Y-120377201D01*
X80005879Y-120805772D02*
X80577308Y-120234344D01*
%TO.C,D17*%
X62697379Y-115471963D02*
X61697379Y-115471963D01*
X61697379Y-115710058D01*
X61744999Y-115852915D01*
X61840237Y-115948153D01*
X61935475Y-115995772D01*
X62125951Y-116043391D01*
X62268808Y-116043391D01*
X62459284Y-115995772D01*
X62554522Y-115948153D01*
X62649760Y-115852915D01*
X62697379Y-115710058D01*
X62697379Y-115471963D01*
X62697379Y-116995772D02*
X62697379Y-116424344D01*
X62697379Y-116710058D02*
X61697379Y-116710058D01*
X61840237Y-116614820D01*
X61935475Y-116519582D01*
X61983094Y-116424344D01*
X61697379Y-117329106D02*
X61697379Y-117995772D01*
X62697379Y-117567201D01*
X62527379Y-120234344D02*
X61527379Y-120234344D01*
X62527379Y-120805772D02*
X61955951Y-120377201D01*
X61527379Y-120805772D02*
X62098808Y-120234344D01*
%TO.C,D10*%
X62697379Y-77371963D02*
X61697379Y-77371963D01*
X61697379Y-77610058D01*
X61744999Y-77752915D01*
X61840237Y-77848153D01*
X61935475Y-77895772D01*
X62125951Y-77943391D01*
X62268808Y-77943391D01*
X62459284Y-77895772D01*
X62554522Y-77848153D01*
X62649760Y-77752915D01*
X62697379Y-77610058D01*
X62697379Y-77371963D01*
X62697379Y-78895772D02*
X62697379Y-78324344D01*
X62697379Y-78610058D02*
X61697379Y-78610058D01*
X61840237Y-78514820D01*
X61935475Y-78419582D01*
X61983094Y-78324344D01*
X61697379Y-79514820D02*
X61697379Y-79610058D01*
X61744999Y-79705296D01*
X61792618Y-79752915D01*
X61887856Y-79800534D01*
X62078332Y-79848153D01*
X62316427Y-79848153D01*
X62506903Y-79800534D01*
X62602141Y-79752915D01*
X62649760Y-79705296D01*
X62697379Y-79610058D01*
X62697379Y-79514820D01*
X62649760Y-79419582D01*
X62602141Y-79371963D01*
X62506903Y-79324344D01*
X62316427Y-79276725D01*
X62078332Y-79276725D01*
X61887856Y-79324344D01*
X61792618Y-79371963D01*
X61744999Y-79419582D01*
X61697379Y-79514820D01*
X62527379Y-82134344D02*
X61527379Y-82134344D01*
X62527379Y-82705772D02*
X61955951Y-82277201D01*
X61527379Y-82705772D02*
X62098808Y-82134344D01*
%TO.C,D5*%
X43647379Y-58798153D02*
X42647379Y-58798153D01*
X42647379Y-59036249D01*
X42694999Y-59179106D01*
X42790237Y-59274344D01*
X42885475Y-59321963D01*
X43075951Y-59369582D01*
X43218808Y-59369582D01*
X43409284Y-59321963D01*
X43504522Y-59274344D01*
X43599760Y-59179106D01*
X43647379Y-59036249D01*
X43647379Y-58798153D01*
X42647379Y-60274344D02*
X42647379Y-59798153D01*
X43123570Y-59750534D01*
X43075951Y-59798153D01*
X43028332Y-59893391D01*
X43028332Y-60131487D01*
X43075951Y-60226725D01*
X43123570Y-60274344D01*
X43218808Y-60321963D01*
X43456903Y-60321963D01*
X43552141Y-60274344D01*
X43599760Y-60226725D01*
X43647379Y-60131487D01*
X43647379Y-59893391D01*
X43599760Y-59798153D01*
X43552141Y-59750534D01*
X43477379Y-63084344D02*
X42477379Y-63084344D01*
X43477379Y-63655772D02*
X42905951Y-63227201D01*
X42477379Y-63655772D02*
X43048808Y-63084344D01*
%TO.C,D2*%
X62697379Y-34985653D02*
X61697379Y-34985653D01*
X61697379Y-35223749D01*
X61744999Y-35366606D01*
X61840237Y-35461844D01*
X61935475Y-35509463D01*
X62125951Y-35557082D01*
X62268808Y-35557082D01*
X62459284Y-35509463D01*
X62554522Y-35461844D01*
X62649760Y-35366606D01*
X62697379Y-35223749D01*
X62697379Y-34985653D01*
X61792618Y-35938034D02*
X61744999Y-35985653D01*
X61697379Y-36080891D01*
X61697379Y-36318987D01*
X61744999Y-36414225D01*
X61792618Y-36461844D01*
X61887856Y-36509463D01*
X61983094Y-36509463D01*
X62125951Y-36461844D01*
X62697379Y-35890415D01*
X62697379Y-36509463D01*
X59126380Y-39271844D02*
X58126380Y-39271844D01*
X59126380Y-39843272D02*
X58554952Y-39414701D01*
X58126380Y-39843272D02*
X58697809Y-39271844D01*
%TO.C,D3*%
X77922380Y-34985653D02*
X76922380Y-34985653D01*
X76922380Y-35223749D01*
X76970000Y-35366606D01*
X77065238Y-35461844D01*
X77160476Y-35509463D01*
X77350952Y-35557082D01*
X77493809Y-35557082D01*
X77684285Y-35509463D01*
X77779523Y-35461844D01*
X77874761Y-35366606D01*
X77922380Y-35223749D01*
X77922380Y-34985653D01*
X76922380Y-35890415D02*
X76922380Y-36509463D01*
X77303333Y-36176129D01*
X77303333Y-36318987D01*
X77350952Y-36414225D01*
X77398571Y-36461844D01*
X77493809Y-36509463D01*
X77731904Y-36509463D01*
X77827142Y-36461844D01*
X77874761Y-36414225D01*
X77922380Y-36318987D01*
X77922380Y-36033272D01*
X77874761Y-35938034D01*
X77827142Y-35890415D01*
X78049380Y-39235095D02*
X77049380Y-39235095D01*
X78049380Y-39806523D02*
X77477952Y-39377952D01*
X77049380Y-39806523D02*
X77620809Y-39235095D01*
%TO.C,D11*%
X81747379Y-77371963D02*
X80747379Y-77371963D01*
X80747379Y-77610058D01*
X80794999Y-77752915D01*
X80890237Y-77848153D01*
X80985475Y-77895772D01*
X81175951Y-77943391D01*
X81318808Y-77943391D01*
X81509284Y-77895772D01*
X81604522Y-77848153D01*
X81699760Y-77752915D01*
X81747379Y-77610058D01*
X81747379Y-77371963D01*
X81747379Y-78895772D02*
X81747379Y-78324344D01*
X81747379Y-78610058D02*
X80747379Y-78610058D01*
X80890237Y-78514820D01*
X80985475Y-78419582D01*
X81033094Y-78324344D01*
X81747379Y-79848153D02*
X81747379Y-79276725D01*
X81747379Y-79562439D02*
X80747379Y-79562439D01*
X80890237Y-79467201D01*
X80985475Y-79371963D01*
X81033094Y-79276725D01*
X81577379Y-82134344D02*
X80577379Y-82134344D01*
X81577379Y-82705772D02*
X81005951Y-82277201D01*
X80577379Y-82705772D02*
X81148808Y-82134344D01*
%TO.C,D15*%
X100797379Y-86896963D02*
X99797379Y-86896963D01*
X99797379Y-87135058D01*
X99844999Y-87277915D01*
X99940237Y-87373153D01*
X100035475Y-87420772D01*
X100225951Y-87468391D01*
X100368808Y-87468391D01*
X100559284Y-87420772D01*
X100654522Y-87373153D01*
X100749760Y-87277915D01*
X100797379Y-87135058D01*
X100797379Y-86896963D01*
X100797379Y-88420772D02*
X100797379Y-87849344D01*
X100797379Y-88135058D02*
X99797379Y-88135058D01*
X99940237Y-88039820D01*
X100035475Y-87944582D01*
X100083094Y-87849344D01*
X99797379Y-89325534D02*
X99797379Y-88849344D01*
X100273570Y-88801725D01*
X100225951Y-88849344D01*
X100178332Y-88944582D01*
X100178332Y-89182677D01*
X100225951Y-89277915D01*
X100273570Y-89325534D01*
X100368808Y-89373153D01*
X100606903Y-89373153D01*
X100702141Y-89325534D01*
X100749760Y-89277915D01*
X100797379Y-89182677D01*
X100797379Y-88944582D01*
X100749760Y-88849344D01*
X100702141Y-88801725D01*
X100627379Y-91659344D02*
X99627379Y-91659344D01*
X100627379Y-92230772D02*
X100055951Y-91802201D01*
X99627379Y-92230772D02*
X100198808Y-91659344D01*
%TO.C,D4*%
X100797379Y-34985653D02*
X99797379Y-34985653D01*
X99797379Y-35223749D01*
X99844999Y-35366606D01*
X99940237Y-35461844D01*
X100035475Y-35509463D01*
X100225951Y-35557082D01*
X100368808Y-35557082D01*
X100559284Y-35509463D01*
X100654522Y-35461844D01*
X100749760Y-35366606D01*
X100797379Y-35223749D01*
X100797379Y-34985653D01*
X100130713Y-36414225D02*
X100797379Y-36414225D01*
X99749760Y-36176129D02*
X100464046Y-35938034D01*
X100464046Y-36557082D01*
X97226380Y-39271844D02*
X96226380Y-39271844D01*
X97226380Y-39843272D02*
X96654952Y-39414701D01*
X96226380Y-39843272D02*
X96797809Y-39271844D01*
%TO.C,D19*%
X52791380Y-134521964D02*
X51791380Y-134521964D01*
X51791380Y-134760059D01*
X51839000Y-134902916D01*
X51934238Y-134998154D01*
X52029476Y-135045773D01*
X52219952Y-135093392D01*
X52362809Y-135093392D01*
X52553285Y-135045773D01*
X52648523Y-134998154D01*
X52743761Y-134902916D01*
X52791380Y-134760059D01*
X52791380Y-134521964D01*
X52791380Y-136045773D02*
X52791380Y-135474345D01*
X52791380Y-135760059D02*
X51791380Y-135760059D01*
X51934238Y-135664821D01*
X52029476Y-135569583D01*
X52077095Y-135474345D01*
X52791380Y-136521964D02*
X52791380Y-136712440D01*
X52743761Y-136807678D01*
X52696142Y-136855297D01*
X52553285Y-136950535D01*
X52362809Y-136998154D01*
X51981857Y-136998154D01*
X51886619Y-136950535D01*
X51839000Y-136902916D01*
X51791380Y-136807678D01*
X51791380Y-136617202D01*
X51839000Y-136521964D01*
X51886619Y-136474345D01*
X51981857Y-136426726D01*
X52219952Y-136426726D01*
X52315190Y-136474345D01*
X52362809Y-136521964D01*
X52410428Y-136617202D01*
X52410428Y-136807678D01*
X52362809Y-136902916D01*
X52315190Y-136950535D01*
X52219952Y-136998154D01*
X52621380Y-139284345D02*
X51621380Y-139284345D01*
X52621380Y-139855773D02*
X52049952Y-139427202D01*
X51621380Y-139855773D02*
X52192809Y-139284345D01*
%TO.C,D21*%
X100797379Y-124996963D02*
X99797379Y-124996963D01*
X99797379Y-125235058D01*
X99844999Y-125377915D01*
X99940237Y-125473153D01*
X100035475Y-125520772D01*
X100225951Y-125568391D01*
X100368808Y-125568391D01*
X100559284Y-125520772D01*
X100654522Y-125473153D01*
X100749760Y-125377915D01*
X100797379Y-125235058D01*
X100797379Y-124996963D01*
X99892618Y-125949344D02*
X99844999Y-125996963D01*
X99797379Y-126092201D01*
X99797379Y-126330296D01*
X99844999Y-126425534D01*
X99892618Y-126473153D01*
X99987856Y-126520772D01*
X100083094Y-126520772D01*
X100225951Y-126473153D01*
X100797379Y-125901725D01*
X100797379Y-126520772D01*
X100797379Y-127473153D02*
X100797379Y-126901725D01*
X100797379Y-127187439D02*
X99797379Y-127187439D01*
X99940237Y-127092201D01*
X100035475Y-126996963D01*
X100083094Y-126901725D01*
X100627379Y-129759344D02*
X99627379Y-129759344D01*
X100627379Y-130330772D02*
X100055951Y-129902201D01*
X99627379Y-130330772D02*
X100198808Y-129759344D01*
%TO.C,D6*%
X62697379Y-58798153D02*
X61697379Y-58798153D01*
X61697379Y-59036249D01*
X61744999Y-59179106D01*
X61840237Y-59274344D01*
X61935475Y-59321963D01*
X62125951Y-59369582D01*
X62268808Y-59369582D01*
X62459284Y-59321963D01*
X62554522Y-59274344D01*
X62649760Y-59179106D01*
X62697379Y-59036249D01*
X62697379Y-58798153D01*
X61697379Y-60226725D02*
X61697379Y-60036249D01*
X61744999Y-59941010D01*
X61792618Y-59893391D01*
X61935475Y-59798153D01*
X62125951Y-59750534D01*
X62506903Y-59750534D01*
X62602141Y-59798153D01*
X62649760Y-59845772D01*
X62697379Y-59941010D01*
X62697379Y-60131487D01*
X62649760Y-60226725D01*
X62602141Y-60274344D01*
X62506903Y-60321963D01*
X62268808Y-60321963D01*
X62173570Y-60274344D01*
X62125951Y-60226725D01*
X62078332Y-60131487D01*
X62078332Y-59941010D01*
X62125951Y-59845772D01*
X62173570Y-59798153D01*
X62268808Y-59750534D01*
X62527379Y-63084344D02*
X61527379Y-63084344D01*
X62527379Y-63655772D02*
X61955951Y-63227201D01*
X61527379Y-63655772D02*
X62098808Y-63084344D01*
%TO.C,D20*%
X77446129Y-135310713D02*
X76446129Y-135310713D01*
X76446129Y-135548808D01*
X76493749Y-135691665D01*
X76588987Y-135786903D01*
X76684225Y-135834522D01*
X76874701Y-135882141D01*
X77017558Y-135882141D01*
X77208034Y-135834522D01*
X77303272Y-135786903D01*
X77398510Y-135691665D01*
X77446129Y-135548808D01*
X77446129Y-135310713D01*
X76541368Y-136263094D02*
X76493749Y-136310713D01*
X76446129Y-136405951D01*
X76446129Y-136644046D01*
X76493749Y-136739284D01*
X76541368Y-136786903D01*
X76636606Y-136834522D01*
X76731844Y-136834522D01*
X76874701Y-136786903D01*
X77446129Y-136215475D01*
X77446129Y-136834522D01*
X76446129Y-137453570D02*
X76446129Y-137548808D01*
X76493749Y-137644046D01*
X76541368Y-137691665D01*
X76636606Y-137739284D01*
X76827082Y-137786903D01*
X77065177Y-137786903D01*
X77255653Y-137739284D01*
X77350891Y-137691665D01*
X77398510Y-137644046D01*
X77446129Y-137548808D01*
X77446129Y-137453570D01*
X77398510Y-137358332D01*
X77350891Y-137310713D01*
X77255653Y-137263094D01*
X77065177Y-137215475D01*
X76827082Y-137215475D01*
X76636606Y-137263094D01*
X76541368Y-137310713D01*
X76493749Y-137358332D01*
X76446129Y-137453570D01*
X80878879Y-139284344D02*
X79878879Y-139284344D01*
X80878879Y-139855772D02*
X80307451Y-139427201D01*
X79878879Y-139855772D02*
X80450308Y-139284344D01*
%TO.C,H3*%
X44418154Y-102027380D02*
X44418154Y-101027380D01*
X44418154Y-101503571D02*
X43846726Y-101503571D01*
X43846726Y-102027380D02*
X43846726Y-101027380D01*
X43465773Y-101027380D02*
X42846726Y-101027380D01*
X43180059Y-101408333D01*
X43037202Y-101408333D01*
X42941964Y-101455952D01*
X42894345Y-101503571D01*
X42846726Y-101598809D01*
X42846726Y-101836904D01*
X42894345Y-101932142D01*
X42941964Y-101979761D01*
X43037202Y-102027380D01*
X43322916Y-102027380D01*
X43418154Y-101979761D01*
X43465773Y-101932142D01*
%TO.C,J2*%
X44402333Y-34841380D02*
X44402333Y-35555666D01*
X44449952Y-35698523D01*
X44545190Y-35793761D01*
X44688047Y-35841380D01*
X44783285Y-35841380D01*
X43973761Y-34936619D02*
X43926142Y-34889000D01*
X43830904Y-34841380D01*
X43592809Y-34841380D01*
X43497571Y-34889000D01*
X43449952Y-34936619D01*
X43402333Y-35031857D01*
X43402333Y-35127095D01*
X43449952Y-35269952D01*
X44021380Y-35841380D01*
X43402333Y-35841380D01*
%TO.C,D12*%
X43647380Y-95628214D02*
X42647380Y-95628214D01*
X42647380Y-95866309D01*
X42695000Y-96009166D01*
X42790238Y-96104404D01*
X42885476Y-96152023D01*
X43075952Y-96199642D01*
X43218809Y-96199642D01*
X43409285Y-96152023D01*
X43504523Y-96104404D01*
X43599761Y-96009166D01*
X43647380Y-95866309D01*
X43647380Y-95628214D01*
X43647380Y-97152023D02*
X43647380Y-96580595D01*
X43647380Y-96866309D02*
X42647380Y-96866309D01*
X42790238Y-96771071D01*
X42885476Y-96675833D01*
X42933095Y-96580595D01*
X42742619Y-97532976D02*
X42695000Y-97580595D01*
X42647380Y-97675833D01*
X42647380Y-97913928D01*
X42695000Y-98009166D01*
X42742619Y-98056785D01*
X42837857Y-98104404D01*
X42933095Y-98104404D01*
X43075952Y-98056785D01*
X43647380Y-97485357D01*
X43647380Y-98104404D01*
X40076380Y-100390595D02*
X39076380Y-100390595D01*
X40076380Y-100962023D02*
X39504952Y-100533452D01*
X39076380Y-100962023D02*
X39647809Y-100390595D01*
%TO.C,D1*%
X39822380Y-34821904D02*
X38822380Y-34821904D01*
X38822380Y-35060000D01*
X38870000Y-35202857D01*
X38965238Y-35298095D01*
X39060476Y-35345714D01*
X39250952Y-35393333D01*
X39393809Y-35393333D01*
X39584285Y-35345714D01*
X39679523Y-35298095D01*
X39774761Y-35202857D01*
X39822380Y-35060000D01*
X39822380Y-34821904D01*
X39822380Y-36345714D02*
X39822380Y-35774285D01*
X39822380Y-36060000D02*
X38822380Y-36060000D01*
X38965238Y-35964761D01*
X39060476Y-35869523D01*
X39108095Y-35774285D01*
X39822380Y-39235095D02*
X38822380Y-39235095D01*
X39822380Y-39806523D02*
X39250952Y-39377952D01*
X38822380Y-39806523D02*
X39393809Y-39235095D01*
%TO.C,H2*%
X97599403Y-42496129D02*
X97599403Y-41496129D01*
X97599403Y-41972320D02*
X97027975Y-41972320D01*
X97027975Y-42496129D02*
X97027975Y-41496129D01*
X96599403Y-41591368D02*
X96551784Y-41543749D01*
X96456546Y-41496129D01*
X96218451Y-41496129D01*
X96123213Y-41543749D01*
X96075594Y-41591368D01*
X96027975Y-41686606D01*
X96027975Y-41781844D01*
X96075594Y-41924701D01*
X96647022Y-42496129D01*
X96027975Y-42496129D01*
%TO.C,D9*%
X43647379Y-77848153D02*
X42647379Y-77848153D01*
X42647379Y-78086249D01*
X42694999Y-78229106D01*
X42790237Y-78324344D01*
X42885475Y-78371963D01*
X43075951Y-78419582D01*
X43218808Y-78419582D01*
X43409284Y-78371963D01*
X43504522Y-78324344D01*
X43599760Y-78229106D01*
X43647379Y-78086249D01*
X43647379Y-77848153D01*
X43647379Y-78895772D02*
X43647379Y-79086249D01*
X43599760Y-79181487D01*
X43552141Y-79229106D01*
X43409284Y-79324344D01*
X43218808Y-79371963D01*
X42837856Y-79371963D01*
X42742618Y-79324344D01*
X42694999Y-79276725D01*
X42647379Y-79181487D01*
X42647379Y-78991010D01*
X42694999Y-78895772D01*
X42742618Y-78848153D01*
X42837856Y-78800534D01*
X43075951Y-78800534D01*
X43171189Y-78848153D01*
X43218808Y-78895772D01*
X43266427Y-78991010D01*
X43266427Y-79181487D01*
X43218808Y-79276725D01*
X43171189Y-79324344D01*
X43075951Y-79371963D01*
X43477379Y-82134344D02*
X42477379Y-82134344D01*
X43477379Y-82705772D02*
X42905951Y-82277201D01*
X42477379Y-82705772D02*
X43048808Y-82134344D01*
%TO.C,D14*%
X77509630Y-96416964D02*
X76509630Y-96416964D01*
X76509630Y-96655059D01*
X76557250Y-96797916D01*
X76652488Y-96893154D01*
X76747726Y-96940773D01*
X76938202Y-96988392D01*
X77081059Y-96988392D01*
X77271535Y-96940773D01*
X77366773Y-96893154D01*
X77462011Y-96797916D01*
X77509630Y-96655059D01*
X77509630Y-96416964D01*
X77509630Y-97940773D02*
X77509630Y-97369345D01*
X77509630Y-97655059D02*
X76509630Y-97655059D01*
X76652488Y-97559821D01*
X76747726Y-97464583D01*
X76795345Y-97369345D01*
X76842964Y-98797916D02*
X77509630Y-98797916D01*
X76462011Y-98559821D02*
X77176297Y-98321726D01*
X77176297Y-98940773D01*
X80942380Y-100390595D02*
X79942380Y-100390595D01*
X80942380Y-100962023D02*
X80370952Y-100533452D01*
X79942380Y-100962023D02*
X80513809Y-100390595D01*
%TO.C,D7*%
X81747379Y-58798153D02*
X80747379Y-58798153D01*
X80747379Y-59036249D01*
X80794999Y-59179106D01*
X80890237Y-59274344D01*
X80985475Y-59321963D01*
X81175951Y-59369582D01*
X81318808Y-59369582D01*
X81509284Y-59321963D01*
X81604522Y-59274344D01*
X81699760Y-59179106D01*
X81747379Y-59036249D01*
X81747379Y-58798153D01*
X80747379Y-59702915D02*
X80747379Y-60369582D01*
X81747379Y-59941010D01*
X81577379Y-63084344D02*
X80577379Y-63084344D01*
X81577379Y-63655772D02*
X81005951Y-63227201D01*
X80577379Y-63655772D02*
X81148808Y-63084344D01*
D11*
%TO.C,J1*%
X83467249Y-37719000D02*
X83467249Y-36389000D01*
X80807249Y-38989000D02*
X80807249Y-51749000D01*
X83467249Y-36389000D02*
X82137249Y-36389000D01*
X83467249Y-38989000D02*
X83467249Y-51749000D01*
X83467249Y-38989000D02*
X80807249Y-38989000D01*
X83467249Y-51749000D02*
X80807249Y-51749000D01*
%TO.C,R1*%
X45338749Y-65304999D02*
X45338749Y-68044999D01*
X38028749Y-66674999D02*
X38798749Y-66674999D01*
X38798749Y-65304999D02*
X45338749Y-65304999D01*
X45338749Y-68044999D02*
X38798749Y-68044999D01*
X46108749Y-66674999D02*
X45338749Y-66674999D01*
X38798749Y-68044999D02*
X38798749Y-65304999D01*
%TO.C,D16*%
X40354999Y-118326249D02*
X40354999Y-115046249D01*
X41274999Y-113866249D02*
X41274999Y-115046249D01*
X42194999Y-117870249D02*
X40354999Y-117870249D01*
X42194999Y-117630249D02*
X40354999Y-117630249D01*
X42194999Y-115046249D02*
X42194999Y-118326249D01*
X42194999Y-117750249D02*
X40354999Y-117750249D01*
X41274999Y-119506249D02*
X41274999Y-118326249D01*
X40354999Y-115046249D02*
X42194999Y-115046249D01*
X42194999Y-118326249D02*
X40354999Y-118326249D01*
%TO.C,D13*%
X60324999Y-99662500D02*
X60324999Y-98482500D01*
X59404999Y-98482500D02*
X59404999Y-95202500D01*
X61244999Y-98482500D02*
X59404999Y-98482500D01*
X61244999Y-97786500D02*
X59404999Y-97786500D01*
X61244999Y-95202500D02*
X61244999Y-98482500D01*
X59404999Y-95202500D02*
X61244999Y-95202500D01*
X61244999Y-97906500D02*
X59404999Y-97906500D01*
X60324999Y-94022500D02*
X60324999Y-95202500D01*
X61244999Y-98026500D02*
X59404999Y-98026500D01*
%TO.C,D8*%
X99344999Y-60480249D02*
X97504999Y-60480249D01*
X99344999Y-61176249D02*
X97504999Y-61176249D01*
X99344999Y-57896249D02*
X99344999Y-61176249D01*
X97504999Y-57896249D02*
X99344999Y-57896249D01*
X99344999Y-60600249D02*
X97504999Y-60600249D01*
X98424999Y-62356249D02*
X98424999Y-61176249D01*
X98424999Y-56716249D02*
X98424999Y-57896249D01*
X99344999Y-60720249D02*
X97504999Y-60720249D01*
X97504999Y-61176249D02*
X97504999Y-57896249D01*
%TO.C,D18*%
X79723499Y-118326249D02*
X77883499Y-118326249D01*
X79723499Y-117750249D02*
X77883499Y-117750249D01*
X79723499Y-117630249D02*
X77883499Y-117630249D01*
X79723499Y-115046249D02*
X79723499Y-118326249D01*
X78803499Y-119506249D02*
X78803499Y-118326249D01*
X78803499Y-113866249D02*
X78803499Y-115046249D01*
X79723499Y-117870249D02*
X77883499Y-117870249D01*
X77883499Y-118326249D02*
X77883499Y-115046249D01*
X77883499Y-115046249D02*
X79723499Y-115046249D01*
%TO.C,D17*%
X60324999Y-119506249D02*
X60324999Y-118326249D01*
X60324999Y-113866249D02*
X60324999Y-115046249D01*
X59404999Y-115046249D02*
X61244999Y-115046249D01*
X59404999Y-118326249D02*
X59404999Y-115046249D01*
X61244999Y-117870249D02*
X59404999Y-117870249D01*
X61244999Y-115046249D02*
X61244999Y-118326249D01*
X61244999Y-117750249D02*
X59404999Y-117750249D01*
X61244999Y-118326249D02*
X59404999Y-118326249D01*
X61244999Y-117630249D02*
X59404999Y-117630249D01*
%TO.C,D10*%
X61244999Y-80226249D02*
X59404999Y-80226249D01*
X60324999Y-81406249D02*
X60324999Y-80226249D01*
X61244999Y-79770249D02*
X59404999Y-79770249D01*
X59404999Y-76946249D02*
X61244999Y-76946249D01*
X59404999Y-80226249D02*
X59404999Y-76946249D01*
X61244999Y-79530249D02*
X59404999Y-79530249D01*
X61244999Y-76946249D02*
X61244999Y-80226249D01*
X61244999Y-79650249D02*
X59404999Y-79650249D01*
X60324999Y-75766249D02*
X60324999Y-76946249D01*
%TO.C,D5*%
X40354999Y-57896249D02*
X42194999Y-57896249D01*
X42194999Y-60480249D02*
X40354999Y-60480249D01*
X41274999Y-56716249D02*
X41274999Y-57896249D01*
X42194999Y-60720249D02*
X40354999Y-60720249D01*
X40354999Y-61176249D02*
X40354999Y-57896249D01*
X41274999Y-62356249D02*
X41274999Y-61176249D01*
X42194999Y-60600249D02*
X40354999Y-60600249D01*
X42194999Y-57896249D02*
X42194999Y-61176249D01*
X42194999Y-61176249D02*
X40354999Y-61176249D01*
%TO.C,D2*%
X60324999Y-32903749D02*
X60324999Y-34083749D01*
X61244999Y-36787749D02*
X59404999Y-36787749D01*
X59404999Y-34083749D02*
X61244999Y-34083749D01*
X61244999Y-37363749D02*
X59404999Y-37363749D01*
X61244999Y-36667749D02*
X59404999Y-36667749D01*
X61244999Y-36907749D02*
X59404999Y-36907749D01*
X61244999Y-34083749D02*
X61244999Y-37363749D01*
X59404999Y-37363749D02*
X59404999Y-34083749D01*
X60324999Y-38543749D02*
X60324999Y-37363749D01*
%TO.C,D3*%
X80136249Y-37363749D02*
X78296249Y-37363749D01*
X80136249Y-36667749D02*
X78296249Y-36667749D01*
X80136249Y-36787749D02*
X78296249Y-36787749D01*
X80136249Y-34083749D02*
X80136249Y-37363749D01*
X79216249Y-38543749D02*
X79216249Y-37363749D01*
X78296249Y-34083749D02*
X80136249Y-34083749D01*
X79216249Y-32903749D02*
X79216249Y-34083749D01*
X78296249Y-37363749D02*
X78296249Y-34083749D01*
X80136249Y-36907749D02*
X78296249Y-36907749D01*
%TO.C,D11*%
X78454999Y-80226249D02*
X78454999Y-76946249D01*
X80294999Y-79650249D02*
X78454999Y-79650249D01*
X80294999Y-80226249D02*
X78454999Y-80226249D01*
X80294999Y-79530249D02*
X78454999Y-79530249D01*
X79374999Y-81406249D02*
X79374999Y-80226249D01*
X80294999Y-76946249D02*
X80294999Y-80226249D01*
X78454999Y-76946249D02*
X80294999Y-76946249D01*
X80294999Y-79770249D02*
X78454999Y-79770249D01*
X79374999Y-75766249D02*
X79374999Y-76946249D01*
%TO.C,D15*%
X97504999Y-89751249D02*
X97504999Y-86471249D01*
X98424999Y-85291249D02*
X98424999Y-86471249D01*
X97504999Y-86471249D02*
X99344999Y-86471249D01*
X99344999Y-86471249D02*
X99344999Y-89751249D01*
X98424999Y-90931249D02*
X98424999Y-89751249D01*
X99344999Y-89175249D02*
X97504999Y-89175249D01*
X99344999Y-89055249D02*
X97504999Y-89055249D01*
X99344999Y-89295249D02*
X97504999Y-89295249D01*
X99344999Y-89751249D02*
X97504999Y-89751249D01*
%TO.C,D4*%
X98424999Y-32903749D02*
X98424999Y-34083749D01*
X99344999Y-37363749D02*
X97504999Y-37363749D01*
X99344999Y-36667749D02*
X97504999Y-36667749D01*
X99344999Y-36787749D02*
X97504999Y-36787749D01*
X99344999Y-36907749D02*
X97504999Y-36907749D01*
X97504999Y-34083749D02*
X99344999Y-34083749D01*
X97504999Y-37363749D02*
X97504999Y-34083749D01*
X98424999Y-38543749D02*
X98424999Y-37363749D01*
X99344999Y-34083749D02*
X99344999Y-37363749D01*
%TO.C,D19*%
X50419000Y-138556250D02*
X50419000Y-137376250D01*
X49499000Y-137376250D02*
X49499000Y-134096250D01*
X51339000Y-137376250D02*
X49499000Y-137376250D01*
X51339000Y-136680250D02*
X49499000Y-136680250D01*
X49499000Y-134096250D02*
X51339000Y-134096250D01*
X51339000Y-134096250D02*
X51339000Y-137376250D01*
X50419000Y-132916250D02*
X50419000Y-134096250D01*
X51339000Y-136800250D02*
X49499000Y-136800250D01*
X51339000Y-136920250D02*
X49499000Y-136920250D01*
%TO.C,D21*%
X99344999Y-127851249D02*
X97504999Y-127851249D01*
X99344999Y-127395249D02*
X97504999Y-127395249D01*
X97504999Y-127851249D02*
X97504999Y-124571249D01*
X99344999Y-124571249D02*
X99344999Y-127851249D01*
X97504999Y-124571249D02*
X99344999Y-124571249D01*
X99344999Y-127275249D02*
X97504999Y-127275249D01*
X98424999Y-123391249D02*
X98424999Y-124571249D01*
X98424999Y-129031249D02*
X98424999Y-127851249D01*
X99344999Y-127155249D02*
X97504999Y-127155249D01*
%TO.C,D6*%
X61244999Y-60480249D02*
X59404999Y-60480249D01*
X61244999Y-60600249D02*
X59404999Y-60600249D01*
X61244999Y-60720249D02*
X59404999Y-60720249D01*
X60324999Y-56716249D02*
X60324999Y-57896249D01*
X60324999Y-62356249D02*
X60324999Y-61176249D01*
X59404999Y-61176249D02*
X59404999Y-57896249D01*
X59404999Y-57896249D02*
X61244999Y-57896249D01*
X61244999Y-57896249D02*
X61244999Y-61176249D01*
X61244999Y-61176249D02*
X59404999Y-61176249D01*
%TO.C,D20*%
X78676499Y-132916249D02*
X78676499Y-134096249D01*
X78676499Y-138556249D02*
X78676499Y-137376249D01*
X77756499Y-134096249D02*
X79596499Y-134096249D01*
X79596499Y-136920249D02*
X77756499Y-136920249D01*
X79596499Y-136680249D02*
X77756499Y-136680249D01*
X79596499Y-136800249D02*
X77756499Y-136800249D01*
X77756499Y-137376249D02*
X77756499Y-134096249D01*
X79596499Y-137376249D02*
X77756499Y-137376249D01*
X79596499Y-134096249D02*
X79596499Y-137376249D01*
%TO.C,J2*%
X42739000Y-36389000D02*
X42739000Y-51749000D01*
X45399000Y-51749000D02*
X42739000Y-51749000D01*
X45399000Y-36389000D02*
X45399000Y-51749000D01*
X45399000Y-36389000D02*
X42739000Y-36389000D01*
%TO.C,D12*%
X40355000Y-95202500D02*
X42195000Y-95202500D01*
X42195000Y-98482500D02*
X40355000Y-98482500D01*
X42195000Y-98026500D02*
X40355000Y-98026500D01*
X42195000Y-97786500D02*
X40355000Y-97786500D01*
X42195000Y-97906500D02*
X40355000Y-97906500D01*
X42195000Y-95202500D02*
X42195000Y-98482500D01*
X41275000Y-94022500D02*
X41275000Y-95202500D01*
X41275000Y-99662500D02*
X41275000Y-98482500D01*
X40355000Y-98482500D02*
X40355000Y-95202500D01*
%TO.C,D1*%
X41116249Y-38511999D02*
X41116249Y-37331999D01*
X40196249Y-37331999D02*
X40196249Y-34051999D01*
X42036249Y-34051999D02*
X42036249Y-37331999D01*
X40196249Y-34051999D02*
X42036249Y-34051999D01*
X42036249Y-36635999D02*
X40196249Y-36635999D01*
X42036249Y-37331999D02*
X40196249Y-37331999D01*
X42036249Y-36875999D02*
X40196249Y-36875999D01*
X41116249Y-32871999D02*
X41116249Y-34051999D01*
X42036249Y-36755999D02*
X40196249Y-36755999D01*
%TO.C,D9*%
X41274999Y-81406249D02*
X41274999Y-80226249D01*
X42194999Y-79650249D02*
X40354999Y-79650249D01*
X42194999Y-80226249D02*
X40354999Y-80226249D01*
X42194999Y-79530249D02*
X40354999Y-79530249D01*
X40354999Y-80226249D02*
X40354999Y-76946249D01*
X42194999Y-79770249D02*
X40354999Y-79770249D01*
X41274999Y-75766249D02*
X41274999Y-76946249D01*
X40354999Y-76946249D02*
X42194999Y-76946249D01*
X42194999Y-76946249D02*
X42194999Y-80226249D01*
%TO.C,D14*%
X79660000Y-98482500D02*
X77820000Y-98482500D01*
X79660000Y-98026500D02*
X77820000Y-98026500D01*
X77820000Y-95202500D02*
X79660000Y-95202500D01*
X78740000Y-99662500D02*
X78740000Y-98482500D01*
X79660000Y-97786500D02*
X77820000Y-97786500D01*
X79660000Y-97906500D02*
X77820000Y-97906500D01*
X78740000Y-94022500D02*
X78740000Y-95202500D01*
X79660000Y-95202500D02*
X79660000Y-98482500D01*
X77820000Y-98482500D02*
X77820000Y-95202500D01*
%TO.C,D7*%
X80294999Y-61176249D02*
X78454999Y-61176249D01*
X79374999Y-62356249D02*
X79374999Y-61176249D01*
X78454999Y-61176249D02*
X78454999Y-57896249D01*
X80294999Y-60720249D02*
X78454999Y-60720249D01*
X79374999Y-56716249D02*
X79374999Y-57896249D01*
X80294999Y-60600249D02*
X78454999Y-60600249D01*
X80294999Y-60480249D02*
X78454999Y-60480249D01*
X80294999Y-57896249D02*
X80294999Y-61176249D01*
X78454999Y-57896249D02*
X80294999Y-57896249D01*
%TD*%
M02*
