%TF.GenerationSoftware,KiCad,Pcbnew,(6.0.1)*%
%TF.CreationDate,2022-02-18T01:38:53-05:00*%
%TF.ProjectId,Numpad,4e756d70-6164-42e6-9b69-6361645f7063,rev?*%
%TF.SameCoordinates,Original*%
%TF.FileFunction,Legend,Bot*%
%TF.FilePolarity,Positive*%
%FSLAX46Y46*%
G04 Gerber Fmt 4.6, Leading zero omitted, Abs format (unit mm)*
G04 Created by KiCad (PCBNEW (6.0.1)) date 2022-02-18 01:38:53*
%MOMM*%
%LPD*%
G01*
G04 APERTURE LIST*
%ADD10C,0.150000*%
%ADD11C,0.120000*%
G04 APERTURE END LIST*
D10*
X230424476Y-58362380D02*
X230424476Y-57362380D01*
X230186380Y-57362380D01*
X230043523Y-57410000D01*
X229948285Y-57505238D01*
X229900666Y-57600476D01*
X229853047Y-57790952D01*
X229853047Y-57933809D01*
X229900666Y-58124285D01*
X229948285Y-58219523D01*
X230043523Y-58314761D01*
X230186380Y-58362380D01*
X230424476Y-58362380D01*
X229043523Y-58314761D02*
X229138761Y-58362380D01*
X229329238Y-58362380D01*
X229424476Y-58314761D01*
X229472095Y-58219523D01*
X229472095Y-57838571D01*
X229424476Y-57743333D01*
X229329238Y-57695714D01*
X229138761Y-57695714D01*
X229043523Y-57743333D01*
X228995904Y-57838571D01*
X228995904Y-57933809D01*
X229472095Y-58029047D01*
X228614952Y-58314761D02*
X228519714Y-58362380D01*
X228329238Y-58362380D01*
X228234000Y-58314761D01*
X228186380Y-58219523D01*
X228186380Y-58171904D01*
X228234000Y-58076666D01*
X228329238Y-58029047D01*
X228472095Y-58029047D01*
X228567333Y-57981428D01*
X228614952Y-57886190D01*
X228614952Y-57838571D01*
X228567333Y-57743333D01*
X228472095Y-57695714D01*
X228329238Y-57695714D01*
X228234000Y-57743333D01*
X227757809Y-58362380D02*
X227757809Y-57695714D01*
X227757809Y-57362380D02*
X227805428Y-57410000D01*
X227757809Y-57457619D01*
X227710190Y-57410000D01*
X227757809Y-57362380D01*
X227757809Y-57457619D01*
X226853047Y-57695714D02*
X226853047Y-58505238D01*
X226900666Y-58600476D01*
X226948285Y-58648095D01*
X227043523Y-58695714D01*
X227186380Y-58695714D01*
X227281619Y-58648095D01*
X226853047Y-58314761D02*
X226948285Y-58362380D01*
X227138761Y-58362380D01*
X227234000Y-58314761D01*
X227281619Y-58267142D01*
X227329238Y-58171904D01*
X227329238Y-57886190D01*
X227281619Y-57790952D01*
X227234000Y-57743333D01*
X227138761Y-57695714D01*
X226948285Y-57695714D01*
X226853047Y-57743333D01*
X226376857Y-57695714D02*
X226376857Y-58362380D01*
X226376857Y-57790952D02*
X226329238Y-57743333D01*
X226234000Y-57695714D01*
X226091142Y-57695714D01*
X225995904Y-57743333D01*
X225948285Y-57838571D01*
X225948285Y-58362380D01*
X225091142Y-58314761D02*
X225186380Y-58362380D01*
X225376857Y-58362380D01*
X225472095Y-58314761D01*
X225519714Y-58219523D01*
X225519714Y-57838571D01*
X225472095Y-57743333D01*
X225376857Y-57695714D01*
X225186380Y-57695714D01*
X225091142Y-57743333D01*
X225043523Y-57838571D01*
X225043523Y-57933809D01*
X225519714Y-58029047D01*
X224186380Y-58362380D02*
X224186380Y-57362380D01*
X224186380Y-58314761D02*
X224281619Y-58362380D01*
X224472095Y-58362380D01*
X224567333Y-58314761D01*
X224614952Y-58267142D01*
X224662571Y-58171904D01*
X224662571Y-57886190D01*
X224614952Y-57790952D01*
X224567333Y-57743333D01*
X224472095Y-57695714D01*
X224281619Y-57695714D01*
X224186380Y-57743333D01*
X222948285Y-58362380D02*
X222948285Y-57362380D01*
X222948285Y-57743333D02*
X222853047Y-57695714D01*
X222662571Y-57695714D01*
X222567333Y-57743333D01*
X222519714Y-57790952D01*
X222472095Y-57886190D01*
X222472095Y-58171904D01*
X222519714Y-58267142D01*
X222567333Y-58314761D01*
X222662571Y-58362380D01*
X222853047Y-58362380D01*
X222948285Y-58314761D01*
X222138761Y-57695714D02*
X221900666Y-58362380D01*
X221662571Y-57695714D02*
X221900666Y-58362380D01*
X221995904Y-58600476D01*
X222043523Y-58648095D01*
X222138761Y-58695714D01*
X220519714Y-58362380D02*
X220519714Y-57362380D01*
X220186380Y-58076666D01*
X219853047Y-57362380D01*
X219853047Y-58362380D01*
X219376857Y-58362380D02*
X219376857Y-57695714D01*
X219376857Y-57362380D02*
X219424476Y-57410000D01*
X219376857Y-57457619D01*
X219329238Y-57410000D01*
X219376857Y-57362380D01*
X219376857Y-57457619D01*
X218472095Y-58314761D02*
X218567333Y-58362380D01*
X218757809Y-58362380D01*
X218853047Y-58314761D01*
X218900666Y-58267142D01*
X218948285Y-58171904D01*
X218948285Y-57886190D01*
X218900666Y-57790952D01*
X218853047Y-57743333D01*
X218757809Y-57695714D01*
X218567333Y-57695714D01*
X218472095Y-57743333D01*
X218043523Y-58362380D02*
X218043523Y-57362380D01*
X217614952Y-58362380D02*
X217614952Y-57838571D01*
X217662571Y-57743333D01*
X217757809Y-57695714D01*
X217900666Y-57695714D01*
X217995904Y-57743333D01*
X218043523Y-57790952D01*
X216710190Y-58362380D02*
X216710190Y-57838571D01*
X216757809Y-57743333D01*
X216853047Y-57695714D01*
X217043523Y-57695714D01*
X217138761Y-57743333D01*
X216710190Y-58314761D02*
X216805428Y-58362380D01*
X217043523Y-58362380D01*
X217138761Y-58314761D01*
X217186380Y-58219523D01*
X217186380Y-58124285D01*
X217138761Y-58029047D01*
X217043523Y-57981428D01*
X216805428Y-57981428D01*
X216710190Y-57933809D01*
X215853047Y-58314761D02*
X215948285Y-58362380D01*
X216138761Y-58362380D01*
X216234000Y-58314761D01*
X216281619Y-58219523D01*
X216281619Y-57838571D01*
X216234000Y-57743333D01*
X216138761Y-57695714D01*
X215948285Y-57695714D01*
X215853047Y-57743333D01*
X215805428Y-57838571D01*
X215805428Y-57933809D01*
X216281619Y-58029047D01*
X215234000Y-58362380D02*
X215329238Y-58314761D01*
X215376857Y-58219523D01*
X215376857Y-57362380D01*
X213614952Y-58362380D02*
X214091142Y-58362380D01*
X214091142Y-57362380D01*
X212900666Y-58314761D02*
X212995904Y-58362380D01*
X213186380Y-58362380D01*
X213281619Y-58314761D01*
X213329238Y-58219523D01*
X213329238Y-57838571D01*
X213281619Y-57743333D01*
X213186380Y-57695714D01*
X212995904Y-57695714D01*
X212900666Y-57743333D01*
X212853047Y-57838571D01*
X212853047Y-57933809D01*
X213329238Y-58029047D01*
X212043523Y-58314761D02*
X212138761Y-58362380D01*
X212329238Y-58362380D01*
X212424476Y-58314761D01*
X212472095Y-58219523D01*
X212472095Y-57838571D01*
X212424476Y-57743333D01*
X212329238Y-57695714D01*
X212138761Y-57695714D01*
X212043523Y-57743333D01*
X211995904Y-57838571D01*
X211995904Y-57933809D01*
X212472095Y-58029047D01*
X226162571Y-59448571D02*
X226495904Y-59448571D01*
X226495904Y-59972380D02*
X226495904Y-58972380D01*
X226019714Y-58972380D01*
X225257809Y-59924761D02*
X225353047Y-59972380D01*
X225543523Y-59972380D01*
X225638761Y-59924761D01*
X225686380Y-59829523D01*
X225686380Y-59448571D01*
X225638761Y-59353333D01*
X225543523Y-59305714D01*
X225353047Y-59305714D01*
X225257809Y-59353333D01*
X225210190Y-59448571D01*
X225210190Y-59543809D01*
X225686380Y-59639047D01*
X224781619Y-59972380D02*
X224781619Y-58972380D01*
X224781619Y-59353333D02*
X224686380Y-59305714D01*
X224495904Y-59305714D01*
X224400666Y-59353333D01*
X224353047Y-59400952D01*
X224305428Y-59496190D01*
X224305428Y-59781904D01*
X224353047Y-59877142D01*
X224400666Y-59924761D01*
X224495904Y-59972380D01*
X224686380Y-59972380D01*
X224781619Y-59924761D01*
X223876857Y-59972380D02*
X223876857Y-59305714D01*
X223876857Y-59496190D02*
X223829238Y-59400952D01*
X223781619Y-59353333D01*
X223686380Y-59305714D01*
X223591142Y-59305714D01*
X222829238Y-59305714D02*
X222829238Y-59972380D01*
X223257809Y-59305714D02*
X223257809Y-59829523D01*
X223210190Y-59924761D01*
X223114952Y-59972380D01*
X222972095Y-59972380D01*
X222876857Y-59924761D01*
X222829238Y-59877142D01*
X221924476Y-59972380D02*
X221924476Y-59448571D01*
X221972095Y-59353333D01*
X222067333Y-59305714D01*
X222257809Y-59305714D01*
X222353047Y-59353333D01*
X221924476Y-59924761D02*
X222019714Y-59972380D01*
X222257809Y-59972380D01*
X222353047Y-59924761D01*
X222400666Y-59829523D01*
X222400666Y-59734285D01*
X222353047Y-59639047D01*
X222257809Y-59591428D01*
X222019714Y-59591428D01*
X221924476Y-59543809D01*
X221448285Y-59972380D02*
X221448285Y-59305714D01*
X221448285Y-59496190D02*
X221400666Y-59400952D01*
X221353047Y-59353333D01*
X221257809Y-59305714D01*
X221162571Y-59305714D01*
X220924476Y-59305714D02*
X220686380Y-59972380D01*
X220448285Y-59305714D02*
X220686380Y-59972380D01*
X220781619Y-60210476D01*
X220829238Y-60258095D01*
X220924476Y-60305714D01*
X219353047Y-59067619D02*
X219305428Y-59020000D01*
X219210190Y-58972380D01*
X218972095Y-58972380D01*
X218876857Y-59020000D01*
X218829238Y-59067619D01*
X218781619Y-59162857D01*
X218781619Y-59258095D01*
X218829238Y-59400952D01*
X219400666Y-59972380D01*
X218781619Y-59972380D01*
X218162571Y-58972380D02*
X218067333Y-58972380D01*
X217972095Y-59020000D01*
X217924476Y-59067619D01*
X217876857Y-59162857D01*
X217829238Y-59353333D01*
X217829238Y-59591428D01*
X217876857Y-59781904D01*
X217924476Y-59877142D01*
X217972095Y-59924761D01*
X218067333Y-59972380D01*
X218162571Y-59972380D01*
X218257809Y-59924761D01*
X218305428Y-59877142D01*
X218353047Y-59781904D01*
X218400666Y-59591428D01*
X218400666Y-59353333D01*
X218353047Y-59162857D01*
X218305428Y-59067619D01*
X218257809Y-59020000D01*
X218162571Y-58972380D01*
X217448285Y-59067619D02*
X217400666Y-59020000D01*
X217305428Y-58972380D01*
X217067333Y-58972380D01*
X216972095Y-59020000D01*
X216924476Y-59067619D01*
X216876857Y-59162857D01*
X216876857Y-59258095D01*
X216924476Y-59400952D01*
X217495904Y-59972380D01*
X216876857Y-59972380D01*
X216495904Y-59067619D02*
X216448285Y-59020000D01*
X216353047Y-58972380D01*
X216114952Y-58972380D01*
X216019714Y-59020000D01*
X215972095Y-59067619D01*
X215924476Y-59162857D01*
X215924476Y-59258095D01*
X215972095Y-59400952D01*
X216543523Y-59972380D01*
X215924476Y-59972380D01*
X225353047Y-61582380D02*
X225686380Y-61106190D01*
X225924476Y-61582380D02*
X225924476Y-60582380D01*
X225543523Y-60582380D01*
X225448285Y-60630000D01*
X225400666Y-60677619D01*
X225353047Y-60772857D01*
X225353047Y-60915714D01*
X225400666Y-61010952D01*
X225448285Y-61058571D01*
X225543523Y-61106190D01*
X225924476Y-61106190D01*
X224543523Y-61534761D02*
X224638761Y-61582380D01*
X224829238Y-61582380D01*
X224924476Y-61534761D01*
X224972095Y-61439523D01*
X224972095Y-61058571D01*
X224924476Y-60963333D01*
X224829238Y-60915714D01*
X224638761Y-60915714D01*
X224543523Y-60963333D01*
X224495904Y-61058571D01*
X224495904Y-61153809D01*
X224972095Y-61249047D01*
X224162571Y-60915714D02*
X223924476Y-61582380D01*
X223686380Y-60915714D01*
X223305428Y-61487142D02*
X223257809Y-61534761D01*
X223305428Y-61582380D01*
X223353047Y-61534761D01*
X223305428Y-61487142D01*
X223305428Y-61582380D01*
X221543523Y-61582380D02*
X222114952Y-61582380D01*
X221829238Y-61582380D02*
X221829238Y-60582380D01*
X221924476Y-60725238D01*
X222019714Y-60820476D01*
X222114952Y-60868095D01*
X220067333Y-61963333D02*
X220114952Y-61915714D01*
X220210190Y-61772857D01*
X220257809Y-61677619D01*
X220305428Y-61534761D01*
X220353047Y-61296666D01*
X220353047Y-61106190D01*
X220305428Y-60868095D01*
X220257809Y-60725238D01*
X220210190Y-60630000D01*
X220114952Y-60487142D01*
X220067333Y-60439523D01*
X219162571Y-61582380D02*
X219734000Y-61582380D01*
X219448285Y-61582380D02*
X219448285Y-60582380D01*
X219543523Y-60725238D01*
X219638761Y-60820476D01*
X219734000Y-60868095D01*
X218019714Y-60534761D02*
X218876857Y-61820476D01*
X217210190Y-60582380D02*
X217686380Y-60582380D01*
X217734000Y-61058571D01*
X217686380Y-61010952D01*
X217591142Y-60963333D01*
X217353047Y-60963333D01*
X217257809Y-61010952D01*
X217210190Y-61058571D01*
X217162571Y-61153809D01*
X217162571Y-61391904D01*
X217210190Y-61487142D01*
X217257809Y-61534761D01*
X217353047Y-61582380D01*
X217591142Y-61582380D01*
X217686380Y-61534761D01*
X217734000Y-61487142D01*
X216829238Y-61963333D02*
X216781619Y-61915714D01*
X216686380Y-61772857D01*
X216638761Y-61677619D01*
X216591142Y-61534761D01*
X216543523Y-61296666D01*
X216543523Y-61106190D01*
X216591142Y-60868095D01*
X216638761Y-60725238D01*
X216686380Y-60630000D01*
X216781619Y-60487142D01*
X216829238Y-60439523D01*
X225853047Y-62192380D02*
X225853047Y-62906666D01*
X225900666Y-63049523D01*
X225995904Y-63144761D01*
X226138761Y-63192380D01*
X226234000Y-63192380D01*
X224900666Y-63192380D02*
X225376857Y-63192380D01*
X225376857Y-62192380D01*
X223995904Y-63097142D02*
X224043523Y-63144761D01*
X224186380Y-63192380D01*
X224281619Y-63192380D01*
X224424476Y-63144761D01*
X224519714Y-63049523D01*
X224567333Y-62954285D01*
X224614952Y-62763809D01*
X224614952Y-62620952D01*
X224567333Y-62430476D01*
X224519714Y-62335238D01*
X224424476Y-62240000D01*
X224281619Y-62192380D01*
X224186380Y-62192380D01*
X224043523Y-62240000D01*
X223995904Y-62287619D01*
X223281619Y-62192380D02*
X223281619Y-62906666D01*
X223329238Y-63049523D01*
X223424476Y-63144761D01*
X223567333Y-63192380D01*
X223662571Y-63192380D01*
X222329238Y-63192380D02*
X222805428Y-63192380D01*
X222805428Y-62192380D01*
X221424476Y-63097142D02*
X221472095Y-63144761D01*
X221614952Y-63192380D01*
X221710190Y-63192380D01*
X221853047Y-63144761D01*
X221948285Y-63049523D01*
X221995904Y-62954285D01*
X222043523Y-62763809D01*
X222043523Y-62620952D01*
X221995904Y-62430476D01*
X221948285Y-62335238D01*
X221853047Y-62240000D01*
X221710190Y-62192380D01*
X221614952Y-62192380D01*
X221472095Y-62240000D01*
X221424476Y-62287619D01*
X220710190Y-62192380D02*
X220710190Y-62906666D01*
X220757809Y-63049523D01*
X220853047Y-63144761D01*
X220995904Y-63192380D01*
X221091142Y-63192380D01*
X219757809Y-63192380D02*
X220234000Y-63192380D01*
X220234000Y-62192380D01*
X218853047Y-63097142D02*
X218900666Y-63144761D01*
X219043523Y-63192380D01*
X219138761Y-63192380D01*
X219281619Y-63144761D01*
X219376857Y-63049523D01*
X219424476Y-62954285D01*
X219472095Y-62763809D01*
X219472095Y-62620952D01*
X219424476Y-62430476D01*
X219376857Y-62335238D01*
X219281619Y-62240000D01*
X219138761Y-62192380D01*
X219043523Y-62192380D01*
X218900666Y-62240000D01*
X218853047Y-62287619D01*
X218138761Y-62192380D02*
X218138761Y-62906666D01*
X218186380Y-63049523D01*
X218281619Y-63144761D01*
X218424476Y-63192380D01*
X218519714Y-63192380D01*
X217186380Y-63192380D02*
X217662571Y-63192380D01*
X217662571Y-62192380D01*
X216281619Y-63097142D02*
X216329238Y-63144761D01*
X216472095Y-63192380D01*
X216567333Y-63192380D01*
X216710190Y-63144761D01*
X216805428Y-63049523D01*
X216853047Y-62954285D01*
X216900666Y-62763809D01*
X216900666Y-62620952D01*
X216853047Y-62430476D01*
X216805428Y-62335238D01*
X216710190Y-62240000D01*
X216567333Y-62192380D01*
X216472095Y-62192380D01*
X216329238Y-62240000D01*
X216281619Y-62287619D01*
%TO.C,J1*%
X235664333Y-51891130D02*
X235664333Y-52605416D01*
X235711952Y-52748273D01*
X235807190Y-52843511D01*
X235950047Y-52891130D01*
X236045285Y-52891130D01*
X234664333Y-52891130D02*
X235235761Y-52891130D01*
X234950047Y-52891130D02*
X234950047Y-51891130D01*
X235045285Y-52033988D01*
X235140523Y-52129226D01*
X235235761Y-52176845D01*
%TO.C,R1*%
X196699166Y-80843380D02*
X197032500Y-80367190D01*
X197270595Y-80843380D02*
X197270595Y-79843380D01*
X196889642Y-79843380D01*
X196794404Y-79891000D01*
X196746785Y-79938619D01*
X196699166Y-80033857D01*
X196699166Y-80176714D01*
X196746785Y-80271952D01*
X196794404Y-80319571D01*
X196889642Y-80367190D01*
X197270595Y-80367190D01*
X195746785Y-80843380D02*
X196318214Y-80843380D01*
X196032500Y-80843380D02*
X196032500Y-79843380D01*
X196127738Y-79986238D01*
X196222976Y-80081476D01*
X196318214Y-80129095D01*
%TO.C,D16*%
X196841130Y-131346964D02*
X195841130Y-131346964D01*
X195841130Y-131585059D01*
X195888750Y-131727916D01*
X195983988Y-131823154D01*
X196079226Y-131870773D01*
X196269702Y-131918392D01*
X196412559Y-131918392D01*
X196603035Y-131870773D01*
X196698273Y-131823154D01*
X196793511Y-131727916D01*
X196841130Y-131585059D01*
X196841130Y-131346964D01*
X196841130Y-132870773D02*
X196841130Y-132299345D01*
X196841130Y-132585059D02*
X195841130Y-132585059D01*
X195983988Y-132489821D01*
X196079226Y-132394583D01*
X196126845Y-132299345D01*
X195841130Y-133727916D02*
X195841130Y-133537440D01*
X195888750Y-133442202D01*
X195936369Y-133394583D01*
X196079226Y-133299345D01*
X196269702Y-133251726D01*
X196650654Y-133251726D01*
X196745892Y-133299345D01*
X196793511Y-133346964D01*
X196841130Y-133442202D01*
X196841130Y-133632678D01*
X196793511Y-133727916D01*
X196745892Y-133775535D01*
X196650654Y-133823154D01*
X196412559Y-133823154D01*
X196317321Y-133775535D01*
X196269702Y-133727916D01*
X196222083Y-133632678D01*
X196222083Y-133442202D01*
X196269702Y-133346964D01*
X196317321Y-133299345D01*
X196412559Y-133251726D01*
X196671130Y-136109345D02*
X195671130Y-136109345D01*
X196671130Y-136680773D02*
X196099702Y-136252202D01*
X195671130Y-136680773D02*
X196242559Y-136109345D01*
%TO.C,D13*%
X215891130Y-112296964D02*
X214891130Y-112296964D01*
X214891130Y-112535059D01*
X214938750Y-112677916D01*
X215033988Y-112773154D01*
X215129226Y-112820773D01*
X215319702Y-112868392D01*
X215462559Y-112868392D01*
X215653035Y-112820773D01*
X215748273Y-112773154D01*
X215843511Y-112677916D01*
X215891130Y-112535059D01*
X215891130Y-112296964D01*
X215891130Y-113820773D02*
X215891130Y-113249345D01*
X215891130Y-113535059D02*
X214891130Y-113535059D01*
X215033988Y-113439821D01*
X215129226Y-113344583D01*
X215176845Y-113249345D01*
X214891130Y-114154107D02*
X214891130Y-114773154D01*
X215272083Y-114439821D01*
X215272083Y-114582678D01*
X215319702Y-114677916D01*
X215367321Y-114725535D01*
X215462559Y-114773154D01*
X215700654Y-114773154D01*
X215795892Y-114725535D01*
X215843511Y-114677916D01*
X215891130Y-114582678D01*
X215891130Y-114296964D01*
X215843511Y-114201726D01*
X215795892Y-114154107D01*
X215721130Y-117059345D02*
X214721130Y-117059345D01*
X215721130Y-117630773D02*
X215149702Y-117202202D01*
X214721130Y-117630773D02*
X215292559Y-117059345D01*
%TO.C,D8*%
X253991130Y-74673154D02*
X252991130Y-74673154D01*
X252991130Y-74911250D01*
X253038750Y-75054107D01*
X253133988Y-75149345D01*
X253229226Y-75196964D01*
X253419702Y-75244583D01*
X253562559Y-75244583D01*
X253753035Y-75196964D01*
X253848273Y-75149345D01*
X253943511Y-75054107D01*
X253991130Y-74911250D01*
X253991130Y-74673154D01*
X253419702Y-75816011D02*
X253372083Y-75720773D01*
X253324464Y-75673154D01*
X253229226Y-75625535D01*
X253181607Y-75625535D01*
X253086369Y-75673154D01*
X253038750Y-75720773D01*
X252991130Y-75816011D01*
X252991130Y-76006488D01*
X253038750Y-76101726D01*
X253086369Y-76149345D01*
X253181607Y-76196964D01*
X253229226Y-76196964D01*
X253324464Y-76149345D01*
X253372083Y-76101726D01*
X253419702Y-76006488D01*
X253419702Y-75816011D01*
X253467321Y-75720773D01*
X253514940Y-75673154D01*
X253610178Y-75625535D01*
X253800654Y-75625535D01*
X253895892Y-75673154D01*
X253943511Y-75720773D01*
X253991130Y-75816011D01*
X253991130Y-76006488D01*
X253943511Y-76101726D01*
X253895892Y-76149345D01*
X253800654Y-76196964D01*
X253610178Y-76196964D01*
X253514940Y-76149345D01*
X253467321Y-76101726D01*
X253419702Y-76006488D01*
X253821130Y-78959345D02*
X252821130Y-78959345D01*
X253821130Y-79530773D02*
X253249702Y-79102202D01*
X252821130Y-79530773D02*
X253392559Y-78959345D01*
%TO.C,D18*%
X234941130Y-131346964D02*
X233941130Y-131346964D01*
X233941130Y-131585059D01*
X233988750Y-131727916D01*
X234083988Y-131823154D01*
X234179226Y-131870773D01*
X234369702Y-131918392D01*
X234512559Y-131918392D01*
X234703035Y-131870773D01*
X234798273Y-131823154D01*
X234893511Y-131727916D01*
X234941130Y-131585059D01*
X234941130Y-131346964D01*
X234941130Y-132870773D02*
X234941130Y-132299345D01*
X234941130Y-132585059D02*
X233941130Y-132585059D01*
X234083988Y-132489821D01*
X234179226Y-132394583D01*
X234226845Y-132299345D01*
X234369702Y-133442202D02*
X234322083Y-133346964D01*
X234274464Y-133299345D01*
X234179226Y-133251726D01*
X234131607Y-133251726D01*
X234036369Y-133299345D01*
X233988750Y-133346964D01*
X233941130Y-133442202D01*
X233941130Y-133632678D01*
X233988750Y-133727916D01*
X234036369Y-133775535D01*
X234131607Y-133823154D01*
X234179226Y-133823154D01*
X234274464Y-133775535D01*
X234322083Y-133727916D01*
X234369702Y-133632678D01*
X234369702Y-133442202D01*
X234417321Y-133346964D01*
X234464940Y-133299345D01*
X234560178Y-133251726D01*
X234750654Y-133251726D01*
X234845892Y-133299345D01*
X234893511Y-133346964D01*
X234941130Y-133442202D01*
X234941130Y-133632678D01*
X234893511Y-133727916D01*
X234845892Y-133775535D01*
X234750654Y-133823154D01*
X234560178Y-133823154D01*
X234464940Y-133775535D01*
X234417321Y-133727916D01*
X234369702Y-133632678D01*
X234771130Y-136109345D02*
X233771130Y-136109345D01*
X234771130Y-136680773D02*
X234199702Y-136252202D01*
X233771130Y-136680773D02*
X234342559Y-136109345D01*
%TO.C,D17*%
X215891130Y-131346964D02*
X214891130Y-131346964D01*
X214891130Y-131585059D01*
X214938750Y-131727916D01*
X215033988Y-131823154D01*
X215129226Y-131870773D01*
X215319702Y-131918392D01*
X215462559Y-131918392D01*
X215653035Y-131870773D01*
X215748273Y-131823154D01*
X215843511Y-131727916D01*
X215891130Y-131585059D01*
X215891130Y-131346964D01*
X215891130Y-132870773D02*
X215891130Y-132299345D01*
X215891130Y-132585059D02*
X214891130Y-132585059D01*
X215033988Y-132489821D01*
X215129226Y-132394583D01*
X215176845Y-132299345D01*
X214891130Y-133204107D02*
X214891130Y-133870773D01*
X215891130Y-133442202D01*
X215721130Y-136109345D02*
X214721130Y-136109345D01*
X215721130Y-136680773D02*
X215149702Y-136252202D01*
X214721130Y-136680773D02*
X215292559Y-136109345D01*
%TO.C,D10*%
X215891130Y-93246964D02*
X214891130Y-93246964D01*
X214891130Y-93485059D01*
X214938750Y-93627916D01*
X215033988Y-93723154D01*
X215129226Y-93770773D01*
X215319702Y-93818392D01*
X215462559Y-93818392D01*
X215653035Y-93770773D01*
X215748273Y-93723154D01*
X215843511Y-93627916D01*
X215891130Y-93485059D01*
X215891130Y-93246964D01*
X215891130Y-94770773D02*
X215891130Y-94199345D01*
X215891130Y-94485059D02*
X214891130Y-94485059D01*
X215033988Y-94389821D01*
X215129226Y-94294583D01*
X215176845Y-94199345D01*
X214891130Y-95389821D02*
X214891130Y-95485059D01*
X214938750Y-95580297D01*
X214986369Y-95627916D01*
X215081607Y-95675535D01*
X215272083Y-95723154D01*
X215510178Y-95723154D01*
X215700654Y-95675535D01*
X215795892Y-95627916D01*
X215843511Y-95580297D01*
X215891130Y-95485059D01*
X215891130Y-95389821D01*
X215843511Y-95294583D01*
X215795892Y-95246964D01*
X215700654Y-95199345D01*
X215510178Y-95151726D01*
X215272083Y-95151726D01*
X215081607Y-95199345D01*
X214986369Y-95246964D01*
X214938750Y-95294583D01*
X214891130Y-95389821D01*
X215721130Y-98009345D02*
X214721130Y-98009345D01*
X215721130Y-98580773D02*
X215149702Y-98152202D01*
X214721130Y-98580773D02*
X215292559Y-98009345D01*
%TO.C,D5*%
X196841130Y-74673154D02*
X195841130Y-74673154D01*
X195841130Y-74911250D01*
X195888750Y-75054107D01*
X195983988Y-75149345D01*
X196079226Y-75196964D01*
X196269702Y-75244583D01*
X196412559Y-75244583D01*
X196603035Y-75196964D01*
X196698273Y-75149345D01*
X196793511Y-75054107D01*
X196841130Y-74911250D01*
X196841130Y-74673154D01*
X195841130Y-76149345D02*
X195841130Y-75673154D01*
X196317321Y-75625535D01*
X196269702Y-75673154D01*
X196222083Y-75768392D01*
X196222083Y-76006488D01*
X196269702Y-76101726D01*
X196317321Y-76149345D01*
X196412559Y-76196964D01*
X196650654Y-76196964D01*
X196745892Y-76149345D01*
X196793511Y-76101726D01*
X196841130Y-76006488D01*
X196841130Y-75768392D01*
X196793511Y-75673154D01*
X196745892Y-75625535D01*
X196671130Y-78959345D02*
X195671130Y-78959345D01*
X196671130Y-79530773D02*
X196099702Y-79102202D01*
X195671130Y-79530773D02*
X196242559Y-78959345D01*
%TO.C,D2*%
X215891130Y-50860654D02*
X214891130Y-50860654D01*
X214891130Y-51098750D01*
X214938750Y-51241607D01*
X215033988Y-51336845D01*
X215129226Y-51384464D01*
X215319702Y-51432083D01*
X215462559Y-51432083D01*
X215653035Y-51384464D01*
X215748273Y-51336845D01*
X215843511Y-51241607D01*
X215891130Y-51098750D01*
X215891130Y-50860654D01*
X214986369Y-51813035D02*
X214938750Y-51860654D01*
X214891130Y-51955892D01*
X214891130Y-52193988D01*
X214938750Y-52289226D01*
X214986369Y-52336845D01*
X215081607Y-52384464D01*
X215176845Y-52384464D01*
X215319702Y-52336845D01*
X215891130Y-51765416D01*
X215891130Y-52384464D01*
X215721130Y-55146845D02*
X214721130Y-55146845D01*
X215721130Y-55718273D02*
X215149702Y-55289702D01*
X214721130Y-55718273D02*
X215292559Y-55146845D01*
%TO.C,D3*%
X234782380Y-50860654D02*
X233782380Y-50860654D01*
X233782380Y-51098750D01*
X233830000Y-51241607D01*
X233925238Y-51336845D01*
X234020476Y-51384464D01*
X234210952Y-51432083D01*
X234353809Y-51432083D01*
X234544285Y-51384464D01*
X234639523Y-51336845D01*
X234734761Y-51241607D01*
X234782380Y-51098750D01*
X234782380Y-50860654D01*
X233782380Y-51765416D02*
X233782380Y-52384464D01*
X234163333Y-52051130D01*
X234163333Y-52193988D01*
X234210952Y-52289226D01*
X234258571Y-52336845D01*
X234353809Y-52384464D01*
X234591904Y-52384464D01*
X234687142Y-52336845D01*
X234734761Y-52289226D01*
X234782380Y-52193988D01*
X234782380Y-51908273D01*
X234734761Y-51813035D01*
X234687142Y-51765416D01*
X232862380Y-56761095D02*
X231862380Y-56761095D01*
X232862380Y-57332523D02*
X232290952Y-56903952D01*
X231862380Y-57332523D02*
X232433809Y-56761095D01*
%TO.C,D11*%
X234941130Y-93246964D02*
X233941130Y-93246964D01*
X233941130Y-93485059D01*
X233988750Y-93627916D01*
X234083988Y-93723154D01*
X234179226Y-93770773D01*
X234369702Y-93818392D01*
X234512559Y-93818392D01*
X234703035Y-93770773D01*
X234798273Y-93723154D01*
X234893511Y-93627916D01*
X234941130Y-93485059D01*
X234941130Y-93246964D01*
X234941130Y-94770773D02*
X234941130Y-94199345D01*
X234941130Y-94485059D02*
X233941130Y-94485059D01*
X234083988Y-94389821D01*
X234179226Y-94294583D01*
X234226845Y-94199345D01*
X234941130Y-95723154D02*
X234941130Y-95151726D01*
X234941130Y-95437440D02*
X233941130Y-95437440D01*
X234083988Y-95342202D01*
X234179226Y-95246964D01*
X234226845Y-95151726D01*
X234771130Y-98009345D02*
X233771130Y-98009345D01*
X234771130Y-98580773D02*
X234199702Y-98152202D01*
X233771130Y-98580773D02*
X234342559Y-98009345D01*
%TO.C,D15*%
X253991130Y-102771964D02*
X252991130Y-102771964D01*
X252991130Y-103010059D01*
X253038750Y-103152916D01*
X253133988Y-103248154D01*
X253229226Y-103295773D01*
X253419702Y-103343392D01*
X253562559Y-103343392D01*
X253753035Y-103295773D01*
X253848273Y-103248154D01*
X253943511Y-103152916D01*
X253991130Y-103010059D01*
X253991130Y-102771964D01*
X253991130Y-104295773D02*
X253991130Y-103724345D01*
X253991130Y-104010059D02*
X252991130Y-104010059D01*
X253133988Y-103914821D01*
X253229226Y-103819583D01*
X253276845Y-103724345D01*
X252991130Y-105200535D02*
X252991130Y-104724345D01*
X253467321Y-104676726D01*
X253419702Y-104724345D01*
X253372083Y-104819583D01*
X253372083Y-105057678D01*
X253419702Y-105152916D01*
X253467321Y-105200535D01*
X253562559Y-105248154D01*
X253800654Y-105248154D01*
X253895892Y-105200535D01*
X253943511Y-105152916D01*
X253991130Y-105057678D01*
X253991130Y-104819583D01*
X253943511Y-104724345D01*
X253895892Y-104676726D01*
X253821130Y-107534345D02*
X252821130Y-107534345D01*
X253821130Y-108105773D02*
X253249702Y-107677202D01*
X252821130Y-108105773D02*
X253392559Y-107534345D01*
%TO.C,D4*%
X253991130Y-50860654D02*
X252991130Y-50860654D01*
X252991130Y-51098750D01*
X253038750Y-51241607D01*
X253133988Y-51336845D01*
X253229226Y-51384464D01*
X253419702Y-51432083D01*
X253562559Y-51432083D01*
X253753035Y-51384464D01*
X253848273Y-51336845D01*
X253943511Y-51241607D01*
X253991130Y-51098750D01*
X253991130Y-50860654D01*
X253324464Y-52289226D02*
X253991130Y-52289226D01*
X252943511Y-52051130D02*
X253657797Y-51813035D01*
X253657797Y-52432083D01*
X253821130Y-55146845D02*
X252821130Y-55146845D01*
X253821130Y-55718273D02*
X253249702Y-55289702D01*
X252821130Y-55718273D02*
X253392559Y-55146845D01*
%TO.C,D19*%
X206366130Y-150396964D02*
X205366130Y-150396964D01*
X205366130Y-150635059D01*
X205413750Y-150777916D01*
X205508988Y-150873154D01*
X205604226Y-150920773D01*
X205794702Y-150968392D01*
X205937559Y-150968392D01*
X206128035Y-150920773D01*
X206223273Y-150873154D01*
X206318511Y-150777916D01*
X206366130Y-150635059D01*
X206366130Y-150396964D01*
X206366130Y-151920773D02*
X206366130Y-151349345D01*
X206366130Y-151635059D02*
X205366130Y-151635059D01*
X205508988Y-151539821D01*
X205604226Y-151444583D01*
X205651845Y-151349345D01*
X206366130Y-152396964D02*
X206366130Y-152587440D01*
X206318511Y-152682678D01*
X206270892Y-152730297D01*
X206128035Y-152825535D01*
X205937559Y-152873154D01*
X205556607Y-152873154D01*
X205461369Y-152825535D01*
X205413750Y-152777916D01*
X205366130Y-152682678D01*
X205366130Y-152492202D01*
X205413750Y-152396964D01*
X205461369Y-152349345D01*
X205556607Y-152301726D01*
X205794702Y-152301726D01*
X205889940Y-152349345D01*
X205937559Y-152396964D01*
X205985178Y-152492202D01*
X205985178Y-152682678D01*
X205937559Y-152777916D01*
X205889940Y-152825535D01*
X205794702Y-152873154D01*
X206196130Y-155159345D02*
X205196130Y-155159345D01*
X206196130Y-155730773D02*
X205624702Y-155302202D01*
X205196130Y-155730773D02*
X205767559Y-155159345D01*
%TO.C,D21*%
X253991130Y-140871964D02*
X252991130Y-140871964D01*
X252991130Y-141110059D01*
X253038750Y-141252916D01*
X253133988Y-141348154D01*
X253229226Y-141395773D01*
X253419702Y-141443392D01*
X253562559Y-141443392D01*
X253753035Y-141395773D01*
X253848273Y-141348154D01*
X253943511Y-141252916D01*
X253991130Y-141110059D01*
X253991130Y-140871964D01*
X253086369Y-141824345D02*
X253038750Y-141871964D01*
X252991130Y-141967202D01*
X252991130Y-142205297D01*
X253038750Y-142300535D01*
X253086369Y-142348154D01*
X253181607Y-142395773D01*
X253276845Y-142395773D01*
X253419702Y-142348154D01*
X253991130Y-141776726D01*
X253991130Y-142395773D01*
X253991130Y-143348154D02*
X253991130Y-142776726D01*
X253991130Y-143062440D02*
X252991130Y-143062440D01*
X253133988Y-142967202D01*
X253229226Y-142871964D01*
X253276845Y-142776726D01*
X253821130Y-145634345D02*
X252821130Y-145634345D01*
X253821130Y-146205773D02*
X253249702Y-145777202D01*
X252821130Y-146205773D02*
X253392559Y-145634345D01*
%TO.C,D6*%
X215891130Y-74673154D02*
X214891130Y-74673154D01*
X214891130Y-74911250D01*
X214938750Y-75054107D01*
X215033988Y-75149345D01*
X215129226Y-75196964D01*
X215319702Y-75244583D01*
X215462559Y-75244583D01*
X215653035Y-75196964D01*
X215748273Y-75149345D01*
X215843511Y-75054107D01*
X215891130Y-74911250D01*
X215891130Y-74673154D01*
X214891130Y-76101726D02*
X214891130Y-75911250D01*
X214938750Y-75816011D01*
X214986369Y-75768392D01*
X215129226Y-75673154D01*
X215319702Y-75625535D01*
X215700654Y-75625535D01*
X215795892Y-75673154D01*
X215843511Y-75720773D01*
X215891130Y-75816011D01*
X215891130Y-76006488D01*
X215843511Y-76101726D01*
X215795892Y-76149345D01*
X215700654Y-76196964D01*
X215462559Y-76196964D01*
X215367321Y-76149345D01*
X215319702Y-76101726D01*
X215272083Y-76006488D01*
X215272083Y-75816011D01*
X215319702Y-75720773D01*
X215367321Y-75673154D01*
X215462559Y-75625535D01*
X215721130Y-78959345D02*
X214721130Y-78959345D01*
X215721130Y-79530773D02*
X215149702Y-79102202D01*
X214721130Y-79530773D02*
X215292559Y-78959345D01*
%TO.C,D20*%
X234941130Y-150396964D02*
X233941130Y-150396964D01*
X233941130Y-150635059D01*
X233988750Y-150777916D01*
X234083988Y-150873154D01*
X234179226Y-150920773D01*
X234369702Y-150968392D01*
X234512559Y-150968392D01*
X234703035Y-150920773D01*
X234798273Y-150873154D01*
X234893511Y-150777916D01*
X234941130Y-150635059D01*
X234941130Y-150396964D01*
X234036369Y-151349345D02*
X233988750Y-151396964D01*
X233941130Y-151492202D01*
X233941130Y-151730297D01*
X233988750Y-151825535D01*
X234036369Y-151873154D01*
X234131607Y-151920773D01*
X234226845Y-151920773D01*
X234369702Y-151873154D01*
X234941130Y-151301726D01*
X234941130Y-151920773D01*
X233941130Y-152539821D02*
X233941130Y-152635059D01*
X233988750Y-152730297D01*
X234036369Y-152777916D01*
X234131607Y-152825535D01*
X234322083Y-152873154D01*
X234560178Y-152873154D01*
X234750654Y-152825535D01*
X234845892Y-152777916D01*
X234893511Y-152730297D01*
X234941130Y-152635059D01*
X234941130Y-152539821D01*
X234893511Y-152444583D01*
X234845892Y-152396964D01*
X234750654Y-152349345D01*
X234560178Y-152301726D01*
X234322083Y-152301726D01*
X234131607Y-152349345D01*
X234036369Y-152396964D01*
X233988750Y-152444583D01*
X233941130Y-152539821D01*
X234771130Y-155159345D02*
X233771130Y-155159345D01*
X234771130Y-155730773D02*
X234199702Y-155302202D01*
X233771130Y-155730773D02*
X234342559Y-155159345D01*
%TO.C,J2*%
X197564333Y-51891130D02*
X197564333Y-52605416D01*
X197611952Y-52748273D01*
X197707190Y-52843511D01*
X197850047Y-52891130D01*
X197945285Y-52891130D01*
X197135761Y-51986369D02*
X197088142Y-51938750D01*
X196992904Y-51891130D01*
X196754809Y-51891130D01*
X196659571Y-51938750D01*
X196611952Y-51986369D01*
X196564333Y-52081607D01*
X196564333Y-52176845D01*
X196611952Y-52319702D01*
X197183380Y-52891130D01*
X196564333Y-52891130D01*
%TO.C,D12*%
X196841130Y-112296964D02*
X195841130Y-112296964D01*
X195841130Y-112535059D01*
X195888750Y-112677916D01*
X195983988Y-112773154D01*
X196079226Y-112820773D01*
X196269702Y-112868392D01*
X196412559Y-112868392D01*
X196603035Y-112820773D01*
X196698273Y-112773154D01*
X196793511Y-112677916D01*
X196841130Y-112535059D01*
X196841130Y-112296964D01*
X196841130Y-113820773D02*
X196841130Y-113249345D01*
X196841130Y-113535059D02*
X195841130Y-113535059D01*
X195983988Y-113439821D01*
X196079226Y-113344583D01*
X196126845Y-113249345D01*
X195936369Y-114201726D02*
X195888750Y-114249345D01*
X195841130Y-114344583D01*
X195841130Y-114582678D01*
X195888750Y-114677916D01*
X195936369Y-114725535D01*
X196031607Y-114773154D01*
X196126845Y-114773154D01*
X196269702Y-114725535D01*
X196841130Y-114154107D01*
X196841130Y-114773154D01*
X196671130Y-117059345D02*
X195671130Y-117059345D01*
X196671130Y-117630773D02*
X196099702Y-117202202D01*
X195671130Y-117630773D02*
X196242559Y-117059345D01*
%TO.C,D1*%
X196682380Y-50157154D02*
X195682380Y-50157154D01*
X195682380Y-50395250D01*
X195730000Y-50538107D01*
X195825238Y-50633345D01*
X195920476Y-50680964D01*
X196110952Y-50728583D01*
X196253809Y-50728583D01*
X196444285Y-50680964D01*
X196539523Y-50633345D01*
X196634761Y-50538107D01*
X196682380Y-50395250D01*
X196682380Y-50157154D01*
X196682380Y-51680964D02*
X196682380Y-51109535D01*
X196682380Y-51395250D02*
X195682380Y-51395250D01*
X195825238Y-51300011D01*
X195920476Y-51204773D01*
X195968095Y-51109535D01*
X194730630Y-56729345D02*
X193730630Y-56729345D01*
X194730630Y-57300773D02*
X194159202Y-56872202D01*
X193730630Y-57300773D02*
X194302059Y-56729345D01*
%TO.C,D9*%
X196841130Y-93723154D02*
X195841130Y-93723154D01*
X195841130Y-93961250D01*
X195888750Y-94104107D01*
X195983988Y-94199345D01*
X196079226Y-94246964D01*
X196269702Y-94294583D01*
X196412559Y-94294583D01*
X196603035Y-94246964D01*
X196698273Y-94199345D01*
X196793511Y-94104107D01*
X196841130Y-93961250D01*
X196841130Y-93723154D01*
X196841130Y-94770773D02*
X196841130Y-94961250D01*
X196793511Y-95056488D01*
X196745892Y-95104107D01*
X196603035Y-95199345D01*
X196412559Y-95246964D01*
X196031607Y-95246964D01*
X195936369Y-95199345D01*
X195888750Y-95151726D01*
X195841130Y-95056488D01*
X195841130Y-94866011D01*
X195888750Y-94770773D01*
X195936369Y-94723154D01*
X196031607Y-94675535D01*
X196269702Y-94675535D01*
X196364940Y-94723154D01*
X196412559Y-94770773D01*
X196460178Y-94866011D01*
X196460178Y-95056488D01*
X196412559Y-95151726D01*
X196364940Y-95199345D01*
X196269702Y-95246964D01*
X196671130Y-98009345D02*
X195671130Y-98009345D01*
X196671130Y-98580773D02*
X196099702Y-98152202D01*
X195671130Y-98580773D02*
X196242559Y-98009345D01*
%TO.C,D14*%
X234941130Y-112296964D02*
X233941130Y-112296964D01*
X233941130Y-112535059D01*
X233988750Y-112677916D01*
X234083988Y-112773154D01*
X234179226Y-112820773D01*
X234369702Y-112868392D01*
X234512559Y-112868392D01*
X234703035Y-112820773D01*
X234798273Y-112773154D01*
X234893511Y-112677916D01*
X234941130Y-112535059D01*
X234941130Y-112296964D01*
X234941130Y-113820773D02*
X234941130Y-113249345D01*
X234941130Y-113535059D02*
X233941130Y-113535059D01*
X234083988Y-113439821D01*
X234179226Y-113344583D01*
X234226845Y-113249345D01*
X234274464Y-114677916D02*
X234941130Y-114677916D01*
X233893511Y-114439821D02*
X234607797Y-114201726D01*
X234607797Y-114820773D01*
X234771130Y-117059345D02*
X233771130Y-117059345D01*
X234771130Y-117630773D02*
X234199702Y-117202202D01*
X233771130Y-117630773D02*
X234342559Y-117059345D01*
%TO.C,D7*%
X234941130Y-74673154D02*
X233941130Y-74673154D01*
X233941130Y-74911250D01*
X233988750Y-75054107D01*
X234083988Y-75149345D01*
X234179226Y-75196964D01*
X234369702Y-75244583D01*
X234512559Y-75244583D01*
X234703035Y-75196964D01*
X234798273Y-75149345D01*
X234893511Y-75054107D01*
X234941130Y-74911250D01*
X234941130Y-74673154D01*
X233941130Y-75577916D02*
X233941130Y-76244583D01*
X234941130Y-75816011D01*
X234771130Y-78959345D02*
X233771130Y-78959345D01*
X234771130Y-79530773D02*
X234199702Y-79102202D01*
X233771130Y-79530773D02*
X234342559Y-78959345D01*
D11*
%TO.C,J1*%
X236661000Y-54768750D02*
X236661000Y-53438750D01*
X234001000Y-56038750D02*
X234001000Y-68798750D01*
X236661000Y-53438750D02*
X235331000Y-53438750D01*
X236661000Y-56038750D02*
X236661000Y-68798750D01*
X236661000Y-56038750D02*
X234001000Y-56038750D01*
X236661000Y-68798750D02*
X234001000Y-68798750D01*
%TO.C,R1*%
X198532500Y-81180000D02*
X198532500Y-83920000D01*
X191222500Y-82550000D02*
X191992500Y-82550000D01*
X191992500Y-81180000D02*
X198532500Y-81180000D01*
X198532500Y-83920000D02*
X191992500Y-83920000D01*
X199302500Y-82550000D02*
X198532500Y-82550000D01*
X191992500Y-83920000D02*
X191992500Y-81180000D01*
%TO.C,D16*%
X193548750Y-134201250D02*
X193548750Y-130921250D01*
X194468750Y-129741250D02*
X194468750Y-130921250D01*
X195388750Y-133745250D02*
X193548750Y-133745250D01*
X195388750Y-133505250D02*
X193548750Y-133505250D01*
X195388750Y-130921250D02*
X195388750Y-134201250D01*
X195388750Y-133625250D02*
X193548750Y-133625250D01*
X194468750Y-135381250D02*
X194468750Y-134201250D01*
X193548750Y-130921250D02*
X195388750Y-130921250D01*
X195388750Y-134201250D02*
X193548750Y-134201250D01*
%TO.C,D13*%
X213518750Y-116331250D02*
X213518750Y-115151250D01*
X212598750Y-115151250D02*
X212598750Y-111871250D01*
X214438750Y-115151250D02*
X212598750Y-115151250D01*
X214438750Y-114455250D02*
X212598750Y-114455250D01*
X214438750Y-111871250D02*
X214438750Y-115151250D01*
X212598750Y-111871250D02*
X214438750Y-111871250D01*
X214438750Y-114575250D02*
X212598750Y-114575250D01*
X213518750Y-110691250D02*
X213518750Y-111871250D01*
X214438750Y-114695250D02*
X212598750Y-114695250D01*
%TO.C,D8*%
X252538750Y-76355250D02*
X250698750Y-76355250D01*
X252538750Y-77051250D02*
X250698750Y-77051250D01*
X252538750Y-73771250D02*
X252538750Y-77051250D01*
X250698750Y-73771250D02*
X252538750Y-73771250D01*
X252538750Y-76475250D02*
X250698750Y-76475250D01*
X251618750Y-78231250D02*
X251618750Y-77051250D01*
X251618750Y-72591250D02*
X251618750Y-73771250D01*
X252538750Y-76595250D02*
X250698750Y-76595250D01*
X250698750Y-77051250D02*
X250698750Y-73771250D01*
%TO.C,D18*%
X233488750Y-134201250D02*
X231648750Y-134201250D01*
X233488750Y-133625250D02*
X231648750Y-133625250D01*
X233488750Y-133505250D02*
X231648750Y-133505250D01*
X233488750Y-130921250D02*
X233488750Y-134201250D01*
X232568750Y-135381250D02*
X232568750Y-134201250D01*
X232568750Y-129741250D02*
X232568750Y-130921250D01*
X233488750Y-133745250D02*
X231648750Y-133745250D01*
X231648750Y-134201250D02*
X231648750Y-130921250D01*
X231648750Y-130921250D02*
X233488750Y-130921250D01*
%TO.C,D17*%
X213518750Y-135381250D02*
X213518750Y-134201250D01*
X213518750Y-129741250D02*
X213518750Y-130921250D01*
X212598750Y-130921250D02*
X214438750Y-130921250D01*
X212598750Y-134201250D02*
X212598750Y-130921250D01*
X214438750Y-133745250D02*
X212598750Y-133745250D01*
X214438750Y-130921250D02*
X214438750Y-134201250D01*
X214438750Y-133625250D02*
X212598750Y-133625250D01*
X214438750Y-134201250D02*
X212598750Y-134201250D01*
X214438750Y-133505250D02*
X212598750Y-133505250D01*
%TO.C,D10*%
X214438750Y-96101250D02*
X212598750Y-96101250D01*
X213518750Y-97281250D02*
X213518750Y-96101250D01*
X214438750Y-95645250D02*
X212598750Y-95645250D01*
X212598750Y-92821250D02*
X214438750Y-92821250D01*
X212598750Y-96101250D02*
X212598750Y-92821250D01*
X214438750Y-95405250D02*
X212598750Y-95405250D01*
X214438750Y-92821250D02*
X214438750Y-96101250D01*
X214438750Y-95525250D02*
X212598750Y-95525250D01*
X213518750Y-91641250D02*
X213518750Y-92821250D01*
%TO.C,D5*%
X193548750Y-73771250D02*
X195388750Y-73771250D01*
X195388750Y-76355250D02*
X193548750Y-76355250D01*
X194468750Y-72591250D02*
X194468750Y-73771250D01*
X195388750Y-76595250D02*
X193548750Y-76595250D01*
X193548750Y-77051250D02*
X193548750Y-73771250D01*
X194468750Y-78231250D02*
X194468750Y-77051250D01*
X195388750Y-76475250D02*
X193548750Y-76475250D01*
X195388750Y-73771250D02*
X195388750Y-77051250D01*
X195388750Y-77051250D02*
X193548750Y-77051250D01*
%TO.C,D2*%
X213518750Y-48778750D02*
X213518750Y-49958750D01*
X214438750Y-52662750D02*
X212598750Y-52662750D01*
X212598750Y-49958750D02*
X214438750Y-49958750D01*
X214438750Y-53238750D02*
X212598750Y-53238750D01*
X214438750Y-52542750D02*
X212598750Y-52542750D01*
X214438750Y-52782750D02*
X212598750Y-52782750D01*
X214438750Y-49958750D02*
X214438750Y-53238750D01*
X212598750Y-53238750D02*
X212598750Y-49958750D01*
X213518750Y-54418750D02*
X213518750Y-53238750D01*
%TO.C,D3*%
X233330000Y-53238750D02*
X231490000Y-53238750D01*
X233330000Y-52542750D02*
X231490000Y-52542750D01*
X233330000Y-52662750D02*
X231490000Y-52662750D01*
X233330000Y-49958750D02*
X233330000Y-53238750D01*
X232410000Y-54418750D02*
X232410000Y-53238750D01*
X231490000Y-49958750D02*
X233330000Y-49958750D01*
X232410000Y-48778750D02*
X232410000Y-49958750D01*
X231490000Y-53238750D02*
X231490000Y-49958750D01*
X233330000Y-52782750D02*
X231490000Y-52782750D01*
%TO.C,D11*%
X231648750Y-96101250D02*
X231648750Y-92821250D01*
X233488750Y-95525250D02*
X231648750Y-95525250D01*
X233488750Y-96101250D02*
X231648750Y-96101250D01*
X233488750Y-95405250D02*
X231648750Y-95405250D01*
X232568750Y-97281250D02*
X232568750Y-96101250D01*
X233488750Y-92821250D02*
X233488750Y-96101250D01*
X231648750Y-92821250D02*
X233488750Y-92821250D01*
X233488750Y-95645250D02*
X231648750Y-95645250D01*
X232568750Y-91641250D02*
X232568750Y-92821250D01*
%TO.C,D15*%
X250698750Y-105626250D02*
X250698750Y-102346250D01*
X251618750Y-101166250D02*
X251618750Y-102346250D01*
X250698750Y-102346250D02*
X252538750Y-102346250D01*
X252538750Y-102346250D02*
X252538750Y-105626250D01*
X251618750Y-106806250D02*
X251618750Y-105626250D01*
X252538750Y-105050250D02*
X250698750Y-105050250D01*
X252538750Y-104930250D02*
X250698750Y-104930250D01*
X252538750Y-105170250D02*
X250698750Y-105170250D01*
X252538750Y-105626250D02*
X250698750Y-105626250D01*
%TO.C,D4*%
X251618750Y-48778750D02*
X251618750Y-49958750D01*
X252538750Y-53238750D02*
X250698750Y-53238750D01*
X252538750Y-52542750D02*
X250698750Y-52542750D01*
X252538750Y-52662750D02*
X250698750Y-52662750D01*
X252538750Y-52782750D02*
X250698750Y-52782750D01*
X250698750Y-49958750D02*
X252538750Y-49958750D01*
X250698750Y-53238750D02*
X250698750Y-49958750D01*
X251618750Y-54418750D02*
X251618750Y-53238750D01*
X252538750Y-49958750D02*
X252538750Y-53238750D01*
%TO.C,D19*%
X203993750Y-154431250D02*
X203993750Y-153251250D01*
X203073750Y-153251250D02*
X203073750Y-149971250D01*
X204913750Y-153251250D02*
X203073750Y-153251250D01*
X204913750Y-152555250D02*
X203073750Y-152555250D01*
X203073750Y-149971250D02*
X204913750Y-149971250D01*
X204913750Y-149971250D02*
X204913750Y-153251250D01*
X203993750Y-148791250D02*
X203993750Y-149971250D01*
X204913750Y-152675250D02*
X203073750Y-152675250D01*
X204913750Y-152795250D02*
X203073750Y-152795250D01*
%TO.C,D21*%
X252538750Y-143726250D02*
X250698750Y-143726250D01*
X252538750Y-143270250D02*
X250698750Y-143270250D01*
X250698750Y-143726250D02*
X250698750Y-140446250D01*
X252538750Y-140446250D02*
X252538750Y-143726250D01*
X250698750Y-140446250D02*
X252538750Y-140446250D01*
X252538750Y-143150250D02*
X250698750Y-143150250D01*
X251618750Y-139266250D02*
X251618750Y-140446250D01*
X251618750Y-144906250D02*
X251618750Y-143726250D01*
X252538750Y-143030250D02*
X250698750Y-143030250D01*
%TO.C,D6*%
X214438750Y-76355250D02*
X212598750Y-76355250D01*
X214438750Y-76475250D02*
X212598750Y-76475250D01*
X214438750Y-76595250D02*
X212598750Y-76595250D01*
X213518750Y-72591250D02*
X213518750Y-73771250D01*
X213518750Y-78231250D02*
X213518750Y-77051250D01*
X212598750Y-77051250D02*
X212598750Y-73771250D01*
X212598750Y-73771250D02*
X214438750Y-73771250D01*
X214438750Y-73771250D02*
X214438750Y-77051250D01*
X214438750Y-77051250D02*
X212598750Y-77051250D01*
%TO.C,D20*%
X232568750Y-148791250D02*
X232568750Y-149971250D01*
X232568750Y-154431250D02*
X232568750Y-153251250D01*
X231648750Y-149971250D02*
X233488750Y-149971250D01*
X233488750Y-152795250D02*
X231648750Y-152795250D01*
X233488750Y-152555250D02*
X231648750Y-152555250D01*
X233488750Y-152675250D02*
X231648750Y-152675250D01*
X231648750Y-153251250D02*
X231648750Y-149971250D01*
X233488750Y-153251250D02*
X231648750Y-153251250D01*
X233488750Y-149971250D02*
X233488750Y-153251250D01*
%TO.C,J2*%
X195901000Y-53438750D02*
X195901000Y-68798750D01*
X198561000Y-68798750D02*
X195901000Y-68798750D01*
X198561000Y-53438750D02*
X198561000Y-68798750D01*
X198561000Y-53438750D02*
X195901000Y-53438750D01*
%TO.C,D12*%
X193548750Y-111871250D02*
X195388750Y-111871250D01*
X195388750Y-115151250D02*
X193548750Y-115151250D01*
X195388750Y-114695250D02*
X193548750Y-114695250D01*
X195388750Y-114455250D02*
X193548750Y-114455250D01*
X195388750Y-114575250D02*
X193548750Y-114575250D01*
X195388750Y-111871250D02*
X195388750Y-115151250D01*
X194468750Y-110691250D02*
X194468750Y-111871250D01*
X194468750Y-116331250D02*
X194468750Y-115151250D01*
X193548750Y-115151250D02*
X193548750Y-111871250D01*
%TO.C,D1*%
X194310000Y-54387000D02*
X194310000Y-53207000D01*
X193390000Y-53207000D02*
X193390000Y-49927000D01*
X195230000Y-49927000D02*
X195230000Y-53207000D01*
X193390000Y-49927000D02*
X195230000Y-49927000D01*
X195230000Y-52511000D02*
X193390000Y-52511000D01*
X195230000Y-53207000D02*
X193390000Y-53207000D01*
X195230000Y-52751000D02*
X193390000Y-52751000D01*
X194310000Y-48747000D02*
X194310000Y-49927000D01*
X195230000Y-52631000D02*
X193390000Y-52631000D01*
%TO.C,D9*%
X194468750Y-97281250D02*
X194468750Y-96101250D01*
X195388750Y-95525250D02*
X193548750Y-95525250D01*
X195388750Y-96101250D02*
X193548750Y-96101250D01*
X195388750Y-95405250D02*
X193548750Y-95405250D01*
X193548750Y-96101250D02*
X193548750Y-92821250D01*
X195388750Y-95645250D02*
X193548750Y-95645250D01*
X194468750Y-91641250D02*
X194468750Y-92821250D01*
X193548750Y-92821250D02*
X195388750Y-92821250D01*
X195388750Y-92821250D02*
X195388750Y-96101250D01*
%TO.C,D14*%
X233488750Y-115151250D02*
X231648750Y-115151250D01*
X233488750Y-114695250D02*
X231648750Y-114695250D01*
X231648750Y-111871250D02*
X233488750Y-111871250D01*
X232568750Y-116331250D02*
X232568750Y-115151250D01*
X233488750Y-114455250D02*
X231648750Y-114455250D01*
X233488750Y-114575250D02*
X231648750Y-114575250D01*
X232568750Y-110691250D02*
X232568750Y-111871250D01*
X233488750Y-111871250D02*
X233488750Y-115151250D01*
X231648750Y-115151250D02*
X231648750Y-111871250D01*
%TO.C,D7*%
X233488750Y-77051250D02*
X231648750Y-77051250D01*
X232568750Y-78231250D02*
X232568750Y-77051250D01*
X231648750Y-77051250D02*
X231648750Y-73771250D01*
X233488750Y-76595250D02*
X231648750Y-76595250D01*
X232568750Y-72591250D02*
X232568750Y-73771250D01*
X233488750Y-76475250D02*
X231648750Y-76475250D01*
X233488750Y-76355250D02*
X231648750Y-76355250D01*
X233488750Y-73771250D02*
X233488750Y-77051250D01*
X231648750Y-73771250D02*
X233488750Y-73771250D01*
%TD*%
M02*
