M48
; DRILL file {KiCad (6.0.1)} date Sun Apr 10 22:49:35 2022
; FORMAT={-:-/ absolute / inch / decimal}
; #@! TF.CreationDate,2022-04-10T22:49:35-04:00
; #@! TF.GenerationSoftware,Kicad,Pcbnew,(6.0.1)
; #@! TF.FileFunction,Plated,1,2,PTH
FMAT,2
INCH
; #@! TA.AperFunction,Plated,PTH,ViaDrill
T1C0.0157
; #@! TA.AperFunction,Plated,PTH,ComponentDrill
T2C0.0157
; #@! TA.AperFunction,Plated,PTH,ComponentDrill
T3C0.0295
; #@! TA.AperFunction,Plated,PTH,ComponentDrill
T4C0.0315
; #@! TA.AperFunction,Plated,PTH,ComponentDrill
T5C0.0394
; #@! TA.AperFunction,Plated,PTH,ComponentDrill
T6C0.0409
; #@! TA.AperFunction,Plated,PTH,ComponentDrill
T7C0.0866
; #@! TA.AperFunction,Plated,PTH,ComponentDrill
T8C0.1181
%
G90
G05
T1
X1.0256Y-5.0969
X1.0256Y-5.3725
X1.0336Y-1.425
X1.3012Y-1.495
X1.3012Y-2.6166
X1.3012Y-3.1678
X1.3012Y-3.4434
X1.3012Y-5.3725
X1.5768Y-3.4434
X1.5768Y-4.8214
X1.5768Y-5.3725
X1.845Y-1.685
X1.8524Y-3.1678
X1.8524Y-3.4434
X1.8524Y-4.2702
X1.8524Y-4.8214
X1.8524Y-5.3725
X1.8587Y-2.385
X2.128Y-1.495
X2.128Y-2.6166
X2.128Y-3.1678
X2.128Y-5.0969
X2.4035Y-1.7899
X2.4035Y-2.33
X2.4035Y-2.6166
X2.4035Y-3.1678
X2.4035Y-3.4434
X2.4035Y-4.5458
X2.4035Y-4.8214
X2.4035Y-5.0969
X2.4035Y-5.3725
X2.63Y-1.425
X2.6791Y-2.33
X2.6791Y-2.6166
X2.6791Y-3.1678
X2.6791Y-3.4434
X2.6791Y-4.2702
X2.6791Y-4.8214
X2.6791Y-5.3725
X2.9547Y-1.2387
X2.9547Y-1.495
X2.9547Y-2.33
X2.9547Y-2.6166
X2.9547Y-3.1678
X2.9547Y-4.8214
X2.9547Y-5.3725
X3.2303Y-2.33
X3.2303Y-2.6166
X3.2303Y-3.1678
X3.2303Y-3.4434
X3.2303Y-3.719
X3.2303Y-4.2702
X3.2303Y-4.5458
X3.2303Y-5.0969
X3.5059Y-1.495
X3.5059Y-1.7899
X3.5059Y-2.6166
X3.5059Y-2.8922
X3.5059Y-3.1678
X3.5059Y-3.719
X3.5059Y-4.2702
X3.5059Y-4.5458
X3.5059Y-5.0969
X3.7815Y-1.495
X3.7815Y-2.33
X3.7815Y-2.6166
X3.7815Y-3.9946
X3.7815Y-4.2702
X3.7815Y-4.5458
T2
X0.9625Y-2.12
X0.9625Y-2.18
X0.9625Y-2.87
X0.9625Y-2.93
X0.9625Y-3.62
X0.9625Y-3.68
X0.9625Y-4.37
X0.9625Y-4.43
X0.9625Y-1.1825
X0.9625Y-1.2425
X1.3375Y-5.12
X1.3375Y-5.18
X1.6125Y-2.02
X1.6125Y-2.08
X1.6125Y-2.77
X1.6125Y-2.83
X1.6125Y-3.52
X1.6125Y-3.58
X1.6125Y-4.27
X1.6125Y-4.33
X1.6125Y-1.0825
X1.6125Y-1.1425
X1.7125Y-1.1825
X1.7125Y-1.2425
X1.7125Y-2.12
X1.7125Y-2.18
X1.7125Y-2.87
X1.7125Y-2.93
X1.7125Y-3.62
X1.7125Y-3.68
X1.7125Y-4.37
X1.7125Y-4.43
X1.9875Y-5.02
X1.9875Y-5.08
X2.3625Y-1.0825
X2.3625Y-1.1425
X2.3625Y-2.02
X2.3625Y-2.08
X2.3625Y-2.77
X2.3625Y-2.83
X2.3625Y-3.52
X2.3625Y-3.58
X2.3625Y-4.27
X2.3625Y-4.33
X2.4625Y-1.1825
X2.4625Y-1.2425
X2.4625Y-2.12
X2.4625Y-2.18
X2.4625Y-2.87
X2.4625Y-2.93
X2.4625Y-3.62
X2.4625Y-3.68
X2.4625Y-4.37
X2.4625Y-4.43
X2.4625Y-5.12
X2.4625Y-5.18
X3.1125Y-1.0825
X3.1125Y-1.1425
X3.1125Y-2.02
X3.1125Y-2.08
X3.1125Y-2.77
X3.1125Y-2.83
X3.1125Y-3.52
X3.1125Y-3.58
X3.1125Y-4.27
X3.1125Y-4.33
X3.1125Y-5.02
X3.1125Y-5.08
X3.2125Y-1.1825
X3.2125Y-1.2425
X3.2125Y-2.12
X3.2125Y-2.18
X3.2125Y-3.245
X3.2125Y-3.305
X3.2125Y-4.745
X3.2125Y-4.805
X3.8625Y-1.0825
X3.8625Y-1.1425
X3.8625Y-2.02
X3.8625Y-2.08
X3.8625Y-3.145
X3.8625Y-3.205
X3.8625Y-4.645
X3.8625Y-4.705
T3
X1.6187Y-1.2552
X1.6187Y-1.5552
X1.625Y-2.1939
X1.625Y-2.4939
X1.625Y-2.9439
X1.625Y-3.2439
X1.625Y-4.4439
X1.625Y-4.7439
X1.625Y-3.6627
X1.625Y-3.9627
X1.985Y-5.1939
X1.985Y-5.4939
X2.375Y-1.2564
X2.375Y-1.5564
X2.375Y-2.1939
X2.375Y-2.4939
X2.375Y-2.9439
X2.375Y-3.2439
X2.375Y-3.6627
X2.375Y-3.9627
X2.375Y-4.4439
X2.375Y-4.7439
X3.0975Y-5.1939
X3.0975Y-5.4939
X3.1Y-3.6627
X3.1Y-3.9627
X3.1025Y-4.4439
X3.1025Y-4.7439
X3.1187Y-1.2564
X3.1187Y-1.5564
X3.125Y-2.1939
X3.125Y-2.4939
X3.125Y-2.9439
X3.125Y-3.2439
X3.875Y-1.2564
X3.875Y-1.5564
X3.875Y-2.1939
X3.875Y-2.4939
X3.875Y-3.3189
X3.875Y-3.6189
X3.875Y-4.8189
X3.875Y-5.1189
T4
X1.4562Y-2.625
X1.8562Y-2.625
T5
X1.735Y-1.485
X1.735Y-1.585
X1.735Y-1.685
X1.735Y-1.785
X1.735Y-1.885
X1.735Y-1.985
X3.2337Y-1.485
X3.2337Y-1.585
X3.2337Y-1.685
X3.2337Y-1.785
X3.2337Y-1.885
X3.2337Y-1.985
T6
X1.2625Y-2.45
X1.3625Y-2.45
T7
X1.0625Y-1.7812
X1.6875Y-4.125
X3.1875Y-4.125
X3.8125Y-1.7812
T8
X1.1625Y-2.15
X1.1625Y-2.9
X1.1625Y-3.65
X1.1625Y-4.4
X1.1625Y-1.2125
X1.4125Y-2.05
X1.4125Y-2.8
X1.4125Y-3.55
X1.4125Y-4.3
X1.4125Y-1.1125
X1.5375Y-5.15
X1.7875Y-5.05
X1.9125Y-1.2125
X1.9125Y-2.15
X1.9125Y-2.9
X1.9125Y-3.65
X1.9125Y-4.4
X2.1625Y-1.1125
X2.1625Y-2.05
X2.1625Y-2.8
X2.1625Y-3.55
X2.1625Y-4.3
X2.6625Y-1.2125
X2.6625Y-2.15
X2.6625Y-2.9
X2.6625Y-3.65
X2.6625Y-4.4
X2.6625Y-5.15
X2.9125Y-1.1125
X2.9125Y-2.05
X2.9125Y-2.8
X2.9125Y-3.55
X2.9125Y-4.3
X2.9125Y-5.05
X3.4125Y-1.2125
X3.4125Y-2.15
X3.4125Y-3.275
X3.4125Y-4.775
X3.6625Y-1.1125
X3.6625Y-2.05
X3.6625Y-3.175
X3.6625Y-4.675
T0
M30
