M48
; DRILL file {KiCad (6.0.2)} date Sun Feb 20 21:00:00 2022
; FORMAT={-:-/ absolute / inch / decimal}
; #@! TF.CreationDate,2022-02-20T21:00:00-05:00
; #@! TF.GenerationSoftware,Kicad,Pcbnew,(6.0.2)
; #@! TF.FileFunction,Plated,1,2,PTH
FMAT,2
INCH
; #@! TA.AperFunction,Plated,PTH,ViaDrill
T1C0.0157
; #@! TA.AperFunction,Plated,PTH,ComponentDrill
T2C0.0157
; #@! TA.AperFunction,Plated,PTH,ComponentDrill
T3C0.0295
; #@! TA.AperFunction,Plated,PTH,ComponentDrill
T4C0.0315
; #@! TA.AperFunction,Plated,PTH,ComponentDrill
T5C0.0394
; #@! TA.AperFunction,Plated,PTH,ComponentDrill
T6C0.0409
; #@! TA.AperFunction,Plated,PTH,ComponentDrill
T7C0.0866
; #@! TA.AperFunction,Plated,PTH,ComponentDrill
T8C0.1181
%
G90
G05
T1
X7.0568Y-1.5881
X7.0568Y-5.7219
X7.0568Y-6.2731
X7.0648Y-2.0698
X7.3324Y-1.5881
X7.3324Y-2.1393
X7.3324Y-3.2416
X7.3324Y-3.7928
X7.3324Y-4.0684
X7.3324Y-5.9975
X7.608Y-1.5881
X7.608Y-4.0684
X7.608Y-5.4464
X7.608Y-5.9975
X7.608Y-6.2731
X7.86Y-2.445
X7.8836Y-1.5881
X7.8836Y-3.7928
X7.8836Y-4.0684
X7.8836Y-4.8952
X7.8836Y-5.4464
X7.8836Y-5.9975
X7.8836Y-6.2731
X7.89Y-2.995
X8.1592Y-1.5881
X8.1592Y-2.1393
X8.1592Y-3.2416
X8.1592Y-3.7928
X8.1592Y-5.4464
X8.1592Y-5.7219
X8.1592Y-5.9975
X8.4348Y-1.5881
X8.4348Y-2.4149
X8.4348Y-3.2416
X8.4348Y-3.7928
X8.4348Y-4.0684
X8.4348Y-5.1708
X8.4348Y-5.4464
X8.4348Y-5.7219
X8.4348Y-5.9975
X8.4348Y-6.2731
X8.685Y-2.07
X8.7104Y-1.5881
X8.7104Y-3.2416
X8.7104Y-3.7928
X8.7104Y-4.0684
X8.7104Y-4.8952
X8.7104Y-5.4464
X8.7104Y-5.9975
X8.7104Y-6.2731
X8.986Y-1.5881
X8.986Y-1.8637
X8.986Y-2.1393
X8.986Y-2.4149
X8.986Y-3.2416
X8.986Y-3.7928
X8.986Y-5.4464
X8.986Y-5.9975
X8.986Y-6.2731
X9.2616Y-1.5881
X9.2616Y-2.966
X9.2616Y-3.2416
X9.2616Y-3.7928
X9.2616Y-4.0684
X9.2616Y-4.344
X9.2616Y-4.8952
X9.2616Y-5.1708
X9.2616Y-5.7219
X9.2616Y-6.2731
X9.5372Y-1.5881
X9.5372Y-2.1393
X9.5372Y-2.4149
X9.5372Y-3.2416
X9.5372Y-3.5172
X9.5372Y-3.7928
X9.5372Y-4.344
X9.5372Y-4.8952
X9.5372Y-5.1708
X9.5372Y-5.9975
X9.8127Y-1.5881
X9.8127Y-2.1393
X9.8127Y-2.966
X9.8127Y-3.2416
X9.8127Y-4.6196
X9.8127Y-4.8952
X9.8127Y-5.1708
X9.8127Y-6.2731
T2
X6.9937Y-1.8075
X6.9937Y-1.8675
X6.9937Y-2.745
X6.9937Y-2.805
X6.9937Y-3.495
X6.9937Y-3.555
X6.9937Y-4.245
X6.9937Y-4.305
X6.9937Y-4.995
X6.9937Y-5.055
X7.3687Y-5.745
X7.3687Y-5.805
X7.6437Y-1.7075
X7.6437Y-1.7675
X7.6437Y-2.645
X7.6437Y-2.705
X7.6437Y-3.395
X7.6437Y-3.455
X7.6437Y-4.145
X7.6437Y-4.205
X7.6437Y-4.895
X7.6437Y-4.955
X7.7437Y-1.8075
X7.7437Y-1.8675
X7.7437Y-2.745
X7.7437Y-2.805
X7.7437Y-3.495
X7.7437Y-3.555
X7.7437Y-4.245
X7.7437Y-4.305
X7.7437Y-4.995
X7.7437Y-5.055
X8.0187Y-5.645
X8.0187Y-5.705
X8.3937Y-1.7075
X8.3937Y-1.7675
X8.3937Y-2.645
X8.3937Y-2.705
X8.3937Y-3.395
X8.3937Y-3.455
X8.3937Y-4.145
X8.3937Y-4.205
X8.3937Y-4.895
X8.3937Y-4.955
X8.4938Y-1.8075
X8.4938Y-1.8675
X8.4938Y-2.745
X8.4938Y-2.805
X8.4938Y-3.495
X8.4938Y-3.555
X8.4938Y-4.245
X8.4938Y-4.305
X8.4938Y-4.995
X8.4938Y-5.055
X8.4938Y-5.745
X8.4938Y-5.805
X9.1437Y-1.7075
X9.1437Y-1.7675
X9.1437Y-2.645
X9.1437Y-2.705
X9.1437Y-3.395
X9.1437Y-3.455
X9.1437Y-4.145
X9.1437Y-4.205
X9.1437Y-4.895
X9.1437Y-4.955
X9.1437Y-5.645
X9.1437Y-5.705
X9.2438Y-1.8075
X9.2438Y-1.8675
X9.2438Y-2.745
X9.2438Y-2.805
X9.2438Y-3.87
X9.2438Y-3.93
X9.2438Y-5.37
X9.2438Y-5.43
X9.8937Y-1.7075
X9.8937Y-1.7675
X9.8937Y-2.645
X9.8937Y-2.705
X9.8937Y-3.77
X9.8937Y-3.83
X9.8937Y-5.27
X9.8937Y-5.33
T3
X7.65Y-1.8802
X7.65Y-2.1802
X7.6562Y-2.8189
X7.6562Y-3.1189
X7.6562Y-3.5689
X7.6562Y-3.8689
X7.6562Y-4.3189
X7.6562Y-4.6189
X7.6562Y-5.0689
X7.6562Y-5.3689
X8.0312Y-5.8189
X8.0312Y-6.1189
X8.4062Y-1.8814
X8.4062Y-2.1814
X8.4062Y-2.8189
X8.4062Y-3.1189
X8.4062Y-3.5689
X8.4062Y-3.8689
X8.4062Y-4.3189
X8.4062Y-4.6189
X8.4062Y-5.0689
X8.4062Y-5.3689
X9.15Y-1.8814
X9.15Y-2.1814
X9.1562Y-2.8189
X9.1562Y-3.1189
X9.1562Y-3.5689
X9.1562Y-3.8689
X9.1562Y-4.3189
X9.1562Y-4.6189
X9.1562Y-5.0689
X9.1562Y-5.3689
X9.1562Y-5.8189
X9.1562Y-6.1189
X9.9062Y-1.8814
X9.9062Y-2.1814
X9.9062Y-2.8189
X9.9062Y-3.1189
X9.9062Y-3.9439
X9.9062Y-4.2439
X9.9062Y-5.4439
X9.9062Y-5.7439
T4
X7.4875Y-3.25
X7.8875Y-3.25
T5
X7.765Y-2.1562
X7.765Y-2.2563
X7.765Y-2.3562
X7.765Y-2.4562
X7.765Y-2.5562
X7.765Y-2.6562
X9.265Y-2.1562
X9.265Y-2.2563
X9.265Y-2.3562
X9.265Y-2.4562
X9.265Y-2.5562
X9.265Y-2.6562
T6
X7.2938Y-3.075
X7.3937Y-3.075
T7
X7.0938Y-2.4062
X7.0938Y-5.9688
X9.625Y-6.1562
X9.8438Y-2.4062
T8
X7.1937Y-1.8375
X7.1937Y-2.775
X7.1937Y-3.525
X7.1937Y-4.275
X7.1937Y-5.025
X7.4437Y-1.7375
X7.4437Y-2.675
X7.4437Y-3.425
X7.4437Y-4.175
X7.4437Y-4.925
X7.5687Y-5.775
X7.8187Y-5.675
X7.9437Y-1.8375
X7.9437Y-2.775
X7.9437Y-3.525
X7.9437Y-4.275
X7.9437Y-5.025
X8.1937Y-1.7375
X8.1937Y-2.675
X8.1937Y-3.425
X8.1937Y-4.175
X8.1937Y-4.925
X8.6937Y-1.8375
X8.6937Y-2.775
X8.6937Y-3.525
X8.6937Y-4.275
X8.6937Y-5.025
X8.6937Y-5.775
X8.9437Y-1.7375
X8.9437Y-2.675
X8.9437Y-3.425
X8.9437Y-4.175
X8.9437Y-4.925
X8.9437Y-5.675
X9.4437Y-1.8375
X9.4437Y-2.775
X9.4437Y-3.9
X9.4437Y-5.4
X9.6937Y-1.7375
X9.6937Y-2.675
X9.6937Y-3.8
X9.6937Y-5.3
T0
M30
