%TF.GenerationSoftware,KiCad,Pcbnew,(6.0.2)*%
%TF.CreationDate,2022-02-21T02:36:04-05:00*%
%TF.ProjectId,Numpad,4e756d70-6164-42e6-9b69-6361645f7063,rev?*%
%TF.SameCoordinates,Original*%
%TF.FileFunction,Soldermask,Bot*%
%TF.FilePolarity,Negative*%
%FSLAX46Y46*%
G04 Gerber Fmt 4.6, Leading zero omitted, Abs format (unit mm)*
G04 Created by KiCad (PCBNEW (6.0.2)) date 2022-02-21 02:36:04*
%MOMM*%
%LPD*%
G01*
G04 APERTURE LIST*
%ADD10C,0.264583*%
%ADD11C,0.750000*%
%ADD12R,2.550000X2.500000*%
%ADD13C,1.750000*%
%ADD14C,3.987800*%
%ADD15C,3.048000*%
%ADD16C,1.905000*%
%ADD17R,1.905000X1.905000*%
%ADD18C,4.400000*%
%ADD19R,1.700000X1.700000*%
%ADD20O,1.700000X1.700000*%
%ADD21C,1.600000*%
%ADD22O,1.600000X1.600000*%
%ADD23R,1.500000X1.500000*%
%ADD24O,1.500000X1.500000*%
%ADD25C,1.700000*%
G04 APERTURE END LIST*
D10*
X53548096Y-46384014D02*
X53548096Y-46510750D01*
X53548096Y-46510750D02*
X53553917Y-46550966D01*
X53553917Y-46550966D02*
X53553917Y-46625844D01*
X53553917Y-46625844D02*
X53559473Y-46660505D01*
X53559473Y-46660505D02*
X53559473Y-46695165D01*
X53559473Y-46695165D02*
X53565294Y-46729826D01*
X53565294Y-46729826D02*
X53571115Y-46758401D01*
X53571115Y-46758401D02*
X53571115Y-46793061D01*
X53571115Y-46793061D02*
X53576406Y-46822165D01*
X53576406Y-46822165D02*
X53581963Y-46851004D01*
X53581963Y-46851004D02*
X53587784Y-46879843D01*
X53587784Y-46879843D02*
X53593604Y-46908683D01*
X53593604Y-46908683D02*
X53599425Y-46931701D01*
X53599425Y-46931701D02*
X53605246Y-46960541D01*
X53605246Y-46960541D02*
X53611067Y-46983559D01*
X53611067Y-46983559D02*
X53616623Y-47006578D01*
X53616623Y-47006578D02*
X53622444Y-47029597D01*
X53622444Y-47029597D02*
X53628265Y-47052616D01*
X53628265Y-47052616D02*
X53634086Y-47075634D01*
X53634086Y-47075634D02*
X53645463Y-47093097D01*
X53645463Y-47093097D02*
X53651284Y-47116116D01*
X53651284Y-47116116D02*
X53662926Y-47150511D01*
X53662926Y-47150511D02*
X53680124Y-47185172D01*
X53680124Y-47185172D02*
X53697321Y-47214011D01*
X53697321Y-47214011D02*
X53708698Y-47242587D01*
X53708698Y-47242587D02*
X53725896Y-47271426D01*
X53725896Y-47271426D02*
X53743358Y-47294445D01*
X53743358Y-47294445D02*
X53761615Y-47311644D01*
X53761615Y-47311644D02*
X53772992Y-47329106D01*
X53772992Y-47329106D02*
X53790454Y-47346304D01*
X53790454Y-47346304D02*
X53801832Y-47363502D01*
X53801832Y-47363502D02*
X53819294Y-47375144D01*
X53819294Y-47375144D02*
X53830671Y-47380965D01*
X53830671Y-47380965D02*
X53842313Y-47392342D01*
X53842313Y-47392342D02*
X53853690Y-47398163D01*
X53853690Y-47398163D02*
X53865331Y-47403983D01*
X53865331Y-47403983D02*
X53876709Y-47409804D01*
X53876709Y-47409804D02*
X53882265Y-47409804D01*
X53882265Y-47409804D02*
X53888086Y-47415624D01*
X53888086Y-47415624D02*
X53899727Y-47415624D01*
X53899727Y-47415624D02*
X53904396Y-47415114D01*
X53904396Y-47415114D02*
X53909009Y-47414361D01*
X53909009Y-47414361D02*
X53913557Y-47413371D01*
X53913557Y-47413371D02*
X53918031Y-47412147D01*
X53918031Y-47412147D02*
X53922424Y-47410695D01*
X53922424Y-47410695D02*
X53926727Y-47409020D01*
X53926727Y-47409020D02*
X53930931Y-47407125D01*
X53930931Y-47407125D02*
X53935029Y-47405016D01*
X53935029Y-47405016D02*
X53939012Y-47402696D01*
X53939012Y-47402696D02*
X53942871Y-47400171D01*
X53942871Y-47400171D02*
X53946598Y-47397445D01*
X53946598Y-47397445D02*
X53950185Y-47394523D01*
X53950185Y-47394523D02*
X53953623Y-47391410D01*
X53953623Y-47391410D02*
X53956905Y-47388109D01*
X53956905Y-47388109D02*
X53960020Y-47384625D01*
X53960020Y-47384625D02*
X53962963Y-47380964D01*
X53962963Y-47380964D02*
X53978437Y-47356562D01*
X53978437Y-47356562D02*
X53995598Y-47332004D01*
X53995598Y-47332004D02*
X54034425Y-47282611D01*
X54034425Y-47282611D02*
X54078337Y-47233166D01*
X54078337Y-47233166D02*
X54126227Y-47184048D01*
X54126227Y-47184048D02*
X54176988Y-47135637D01*
X54176988Y-47135637D02*
X54229514Y-47088312D01*
X54229514Y-47088312D02*
X54335430Y-46998443D01*
X54335430Y-46998443D02*
X54519729Y-46848457D01*
X54519729Y-46848457D02*
X54553610Y-46819375D01*
X54553610Y-46819375D02*
X54580401Y-46794418D01*
X54580401Y-46794418D02*
X54598994Y-46773966D01*
X54598994Y-46773966D02*
X54604870Y-46765548D01*
X54604870Y-46765548D02*
X54608282Y-46758399D01*
X54608282Y-46758399D02*
X54608215Y-46757878D01*
X54608215Y-46757878D02*
X54608016Y-46757356D01*
X54608016Y-46757356D02*
X54607688Y-46756835D01*
X54607688Y-46756835D02*
X54607234Y-46756315D01*
X54607234Y-46756315D02*
X54606657Y-46755799D01*
X54606657Y-46755799D02*
X54605960Y-46755286D01*
X54605960Y-46755286D02*
X54605146Y-46754779D01*
X54605146Y-46754779D02*
X54604218Y-46754278D01*
X54604218Y-46754278D02*
X54603178Y-46753784D01*
X54603178Y-46753784D02*
X54602030Y-46753299D01*
X54602030Y-46753299D02*
X54599422Y-46752358D01*
X54599422Y-46752358D02*
X54596415Y-46751464D01*
X54596415Y-46751464D02*
X54593035Y-46750627D01*
X54593035Y-46750627D02*
X54589304Y-46749855D01*
X54589304Y-46749855D02*
X54585247Y-46749157D01*
X54585247Y-46749157D02*
X54580886Y-46748542D01*
X54580886Y-46748542D02*
X54576246Y-46748019D01*
X54576246Y-46748019D02*
X54571351Y-46747596D01*
X54571351Y-46747596D02*
X54566223Y-46747283D01*
X54566223Y-46747283D02*
X54560886Y-46747089D01*
X54560886Y-46747089D02*
X54555365Y-46747022D01*
X54555365Y-46747022D02*
X54526182Y-46747736D01*
X54526182Y-46747736D02*
X54496924Y-46749751D01*
X54496924Y-46749751D02*
X54467514Y-46752882D01*
X54467514Y-46752882D02*
X54437878Y-46756944D01*
X54437878Y-46756944D02*
X54377622Y-46767114D01*
X54377622Y-46767114D02*
X54315553Y-46778772D01*
X54315553Y-46778772D02*
X54251066Y-46790431D01*
X54251066Y-46790431D02*
X54217726Y-46795795D01*
X54217726Y-46795795D02*
X54183555Y-46800600D01*
X54183555Y-46800600D02*
X54148477Y-46804662D01*
X54148477Y-46804662D02*
X54112417Y-46807794D01*
X54112417Y-46807794D02*
X54075298Y-46809809D01*
X54075298Y-46809809D02*
X54037046Y-46810522D01*
X54037046Y-46810522D02*
X54018417Y-46810249D01*
X54018417Y-46810249D02*
X54009986Y-46809908D01*
X54009986Y-46809908D02*
X54002117Y-46809431D01*
X54002117Y-46809431D02*
X53994793Y-46808817D01*
X53994793Y-46808817D02*
X53987994Y-46808067D01*
X53987994Y-46808067D02*
X53981700Y-46807180D01*
X53981700Y-46807180D02*
X53975894Y-46806157D01*
X53975894Y-46806157D02*
X53970557Y-46804997D01*
X53970557Y-46804997D02*
X53965668Y-46803701D01*
X53965668Y-46803701D02*
X53961210Y-46802269D01*
X53961210Y-46802269D02*
X53957163Y-46800700D01*
X53957163Y-46800700D02*
X53953508Y-46798994D01*
X53953508Y-46798994D02*
X53950226Y-46797152D01*
X53950226Y-46797152D02*
X53947299Y-46795174D01*
X53947299Y-46795174D02*
X53944707Y-46793060D01*
X53944707Y-46793060D02*
X53943894Y-46790233D01*
X53943894Y-46790233D02*
X53942992Y-46787439D01*
X53942992Y-46787439D02*
X53942003Y-46784680D01*
X53942003Y-46784680D02*
X53940928Y-46781957D01*
X53940928Y-46781957D02*
X53939767Y-46779273D01*
X53939767Y-46779273D02*
X53938522Y-46776629D01*
X53938522Y-46776629D02*
X53937194Y-46774028D01*
X53937194Y-46774028D02*
X53935784Y-46771471D01*
X53935784Y-46771471D02*
X53934293Y-46768960D01*
X53934293Y-46768960D02*
X53932723Y-46766497D01*
X53932723Y-46766497D02*
X53931074Y-46764085D01*
X53931074Y-46764085D02*
X53929347Y-46761724D01*
X53929347Y-46761724D02*
X53927544Y-46759418D01*
X53927544Y-46759418D02*
X53925666Y-46757168D01*
X53925666Y-46757168D02*
X53923713Y-46754976D01*
X53923713Y-46754976D02*
X53921688Y-46752843D01*
X53921688Y-46752843D02*
X53903117Y-46685948D01*
X53903117Y-46685948D02*
X53887156Y-46618462D01*
X53887156Y-46618462D02*
X53873817Y-46550462D01*
X53873817Y-46550462D02*
X53863110Y-46482023D01*
X53863110Y-46482023D02*
X53855046Y-46413223D01*
X53855046Y-46413223D02*
X53849634Y-46344138D01*
X53849634Y-46344138D02*
X53846885Y-46274845D01*
X53846885Y-46274845D02*
X53846811Y-46205420D01*
X53846811Y-46205420D02*
X53848307Y-46137369D01*
X53848307Y-46137369D02*
X53851061Y-46069375D01*
X53851061Y-46069375D02*
X53855071Y-46001454D01*
X53855071Y-46001454D02*
X53860335Y-45933624D01*
X53860335Y-45933624D02*
X53866852Y-45865902D01*
X53866852Y-45865902D02*
X53874620Y-45798307D01*
X53874620Y-45798307D02*
X53883638Y-45730855D01*
X53883638Y-45730855D02*
X53893905Y-45663563D01*
X53893905Y-45663563D02*
X53934388Y-45663554D01*
X53934388Y-45663554D02*
X54167406Y-45686035D01*
X54167406Y-45686035D02*
X54399995Y-45712198D01*
X54399995Y-45712198D02*
X54632112Y-45742036D01*
X54632112Y-45742036D02*
X54863713Y-45775543D01*
X54863713Y-45775543D02*
X55094754Y-45812712D01*
X55094754Y-45812712D02*
X55325192Y-45853537D01*
X55325192Y-45853537D02*
X55554984Y-45898011D01*
X55554984Y-45898011D02*
X55784086Y-45946126D01*
X55784086Y-45946126D02*
X55802898Y-45945694D01*
X55802898Y-45945694D02*
X55821516Y-45944424D01*
X55821516Y-45944424D02*
X55839911Y-45942357D01*
X55839911Y-45942357D02*
X55858059Y-45939535D01*
X55858059Y-45939535D02*
X55893504Y-45931789D01*
X55893504Y-45931789D02*
X55927641Y-45921517D01*
X55927641Y-45921517D02*
X55960258Y-45909049D01*
X55960258Y-45909049D02*
X55991146Y-45894713D01*
X55991146Y-45894713D02*
X56020092Y-45878840D01*
X56020092Y-45878840D02*
X56046886Y-45861760D01*
X56046886Y-45861760D02*
X56071318Y-45843802D01*
X56071318Y-45843802D02*
X56093176Y-45825296D01*
X56093176Y-45825296D02*
X56112250Y-45806573D01*
X56112250Y-45806573D02*
X56128329Y-45787962D01*
X56128329Y-45787962D02*
X56141202Y-45769792D01*
X56141202Y-45769792D02*
X56150657Y-45752394D01*
X56150657Y-45752394D02*
X56154038Y-45744088D01*
X56154038Y-45744088D02*
X56156485Y-45736098D01*
X56156485Y-45736098D02*
X56157973Y-45728466D01*
X56157973Y-45728466D02*
X56158475Y-45721233D01*
X56158475Y-45721233D02*
X56158407Y-45718580D01*
X56158407Y-45718580D02*
X56158204Y-45716027D01*
X56158204Y-45716027D02*
X56157863Y-45713573D01*
X56157863Y-45713573D02*
X56157385Y-45711213D01*
X56157385Y-45711213D02*
X56156767Y-45708948D01*
X56156767Y-45708948D02*
X56156009Y-45706774D01*
X56156009Y-45706774D02*
X56155110Y-45704689D01*
X56155110Y-45704689D02*
X56154068Y-45702691D01*
X56154068Y-45702691D02*
X56152883Y-45700779D01*
X56152883Y-45700779D02*
X56151554Y-45698948D01*
X56151554Y-45698948D02*
X56150079Y-45697199D01*
X56150079Y-45697199D02*
X56148457Y-45695528D01*
X56148457Y-45695528D02*
X56146688Y-45693932D01*
X56146688Y-45693932D02*
X56144770Y-45692411D01*
X56144770Y-45692411D02*
X56142702Y-45690962D01*
X56142702Y-45690962D02*
X56140483Y-45689582D01*
X56140483Y-45689582D02*
X56138113Y-45688270D01*
X56138113Y-45688270D02*
X56135589Y-45687023D01*
X56135589Y-45687023D02*
X56132912Y-45685839D01*
X56132912Y-45685839D02*
X56130079Y-45684716D01*
X56130079Y-45684716D02*
X56127090Y-45683651D01*
X56127090Y-45683651D02*
X56123944Y-45682644D01*
X56123944Y-45682644D02*
X56120639Y-45681690D01*
X56120639Y-45681690D02*
X56117175Y-45680789D01*
X56117175Y-45680789D02*
X56113551Y-45679938D01*
X56113551Y-45679938D02*
X56109765Y-45679134D01*
X56109765Y-45679134D02*
X56101704Y-45677662D01*
X56101704Y-45677662D02*
X56092985Y-45676355D01*
X56092985Y-45676355D02*
X56083598Y-45675196D01*
X56083598Y-45675196D02*
X54969669Y-45563343D01*
X54969669Y-45563343D02*
X53934123Y-45467762D01*
X53934123Y-45467762D02*
X53941801Y-45449946D01*
X53941801Y-45449946D02*
X53949924Y-45433215D01*
X53949924Y-45433215D02*
X53958450Y-45417506D01*
X53958450Y-45417506D02*
X53967338Y-45402756D01*
X53967338Y-45402756D02*
X53976545Y-45388901D01*
X53976545Y-45388901D02*
X53986030Y-45375879D01*
X53986030Y-45375879D02*
X53995752Y-45363625D01*
X53995752Y-45363625D02*
X54005668Y-45352077D01*
X54005668Y-45352077D02*
X54025917Y-45330844D01*
X54025917Y-45330844D02*
X54046442Y-45311674D01*
X54046442Y-45311674D02*
X54066910Y-45294059D01*
X54066910Y-45294059D02*
X54086986Y-45277494D01*
X54086986Y-45277494D02*
X54106337Y-45261471D01*
X54106337Y-45261471D02*
X54124628Y-45245484D01*
X54124628Y-45245484D02*
X54141526Y-45229026D01*
X54141526Y-45229026D02*
X54149348Y-45220463D01*
X54149348Y-45220463D02*
X54156696Y-45211592D01*
X54156696Y-45211592D02*
X54163528Y-45202350D01*
X54163528Y-45202350D02*
X54169803Y-45192674D01*
X54169803Y-45192674D02*
X54175480Y-45182500D01*
X54175480Y-45182500D02*
X54180515Y-45171765D01*
X54180515Y-45171765D02*
X54184868Y-45160406D01*
X54184868Y-45160406D02*
X54188497Y-45148360D01*
X54188497Y-45148360D02*
X54191360Y-45135563D01*
X54191360Y-45135563D02*
X54193415Y-45121952D01*
X54193415Y-45121952D02*
X54193274Y-45108385D01*
X54193274Y-45108385D02*
X54192834Y-45095770D01*
X54192834Y-45095770D02*
X54192068Y-45084115D01*
X54192068Y-45084115D02*
X54190951Y-45073430D01*
X54190951Y-45073430D02*
X54189455Y-45063722D01*
X54189455Y-45063722D02*
X54187555Y-45055002D01*
X54187555Y-45055002D02*
X54185223Y-45047278D01*
X54185223Y-45047278D02*
X54182435Y-45040559D01*
X54182435Y-45040559D02*
X54180861Y-45037579D01*
X54180861Y-45037579D02*
X54179162Y-45034854D01*
X54179162Y-45034854D02*
X54177337Y-45032385D01*
X54177337Y-45032385D02*
X54175380Y-45030172D01*
X54175380Y-45030172D02*
X54173289Y-45028217D01*
X54173289Y-45028217D02*
X54171061Y-45026521D01*
X54171061Y-45026521D02*
X54168692Y-45025086D01*
X54168692Y-45025086D02*
X54166179Y-45023911D01*
X54166179Y-45023911D02*
X54163519Y-45022999D01*
X54163519Y-45022999D02*
X54160709Y-45022351D01*
X54160709Y-45022351D02*
X54157744Y-45021967D01*
X54157744Y-45021967D02*
X54154622Y-45021849D01*
X54154622Y-45021849D02*
X54151340Y-45021998D01*
X54151340Y-45021998D02*
X54147894Y-45022414D01*
X54147894Y-45022414D02*
X54144282Y-45023100D01*
X54144282Y-45023100D02*
X54140498Y-45024056D01*
X54140498Y-45024056D02*
X54119072Y-45031181D01*
X54119072Y-45031181D02*
X54097825Y-45038765D01*
X54097825Y-45038765D02*
X54076762Y-45046804D01*
X54076762Y-45046804D02*
X54055891Y-45055294D01*
X54055891Y-45055294D02*
X54035219Y-45064231D01*
X54035219Y-45064231D02*
X54014754Y-45073612D01*
X54014754Y-45073612D02*
X53994502Y-45083433D01*
X53994502Y-45083433D02*
X53974470Y-45093691D01*
X53974470Y-45093691D02*
X53954666Y-45104380D01*
X53954666Y-45104380D02*
X53935096Y-45115499D01*
X53935096Y-45115499D02*
X53915768Y-45127043D01*
X53915768Y-45127043D02*
X53896688Y-45139008D01*
X53896688Y-45139008D02*
X53877865Y-45151391D01*
X53877865Y-45151391D02*
X53859304Y-45164188D01*
X53859304Y-45164188D02*
X53841012Y-45177395D01*
X53841012Y-45177395D02*
X53822998Y-45191008D01*
X53822998Y-45191008D02*
X53444115Y-44684067D01*
X53444115Y-44684067D02*
X53441163Y-44674495D01*
X53441163Y-44674495D02*
X53438767Y-44665589D01*
X53438767Y-44665589D02*
X53436944Y-44657292D01*
X53436944Y-44657292D02*
X53435710Y-44649551D01*
X53435710Y-44649551D02*
X53435083Y-44642310D01*
X53435083Y-44642310D02*
X53435002Y-44638861D01*
X53435002Y-44638861D02*
X53435078Y-44635516D01*
X53435078Y-44635516D02*
X53435315Y-44632269D01*
X53435315Y-44632269D02*
X53435713Y-44629113D01*
X53435713Y-44629113D02*
X53436276Y-44626041D01*
X53436276Y-44626041D02*
X53437004Y-44623047D01*
X53437004Y-44623047D02*
X53437901Y-44620123D01*
X53437901Y-44620123D02*
X53438968Y-44617263D01*
X53438968Y-44617263D02*
X53440207Y-44614460D01*
X53440207Y-44614460D02*
X53441621Y-44611707D01*
X53441621Y-44611707D02*
X53443212Y-44608997D01*
X53443212Y-44608997D02*
X53444981Y-44606323D01*
X53444981Y-44606323D02*
X53446931Y-44603679D01*
X53446931Y-44603679D02*
X53449063Y-44601058D01*
X53449063Y-44601058D02*
X53453885Y-44595856D01*
X53453885Y-44595856D02*
X53459463Y-44590663D01*
X53459463Y-44590663D02*
X53465814Y-44585424D01*
X53465814Y-44585424D02*
X53472954Y-44580085D01*
X53472954Y-44580085D02*
X53475364Y-44579192D01*
X53475364Y-44579192D02*
X53477795Y-44578370D01*
X53477795Y-44578370D02*
X53480245Y-44577620D01*
X53480245Y-44577620D02*
X53482714Y-44576943D01*
X53482714Y-44576943D02*
X53485199Y-44576337D01*
X53485199Y-44576337D02*
X53487699Y-44575805D01*
X53487699Y-44575805D02*
X53490213Y-44575346D01*
X53490213Y-44575346D02*
X53492738Y-44574959D01*
X53492738Y-44574959D02*
X53495274Y-44574646D01*
X53495274Y-44574646D02*
X53497818Y-44574407D01*
X53497818Y-44574407D02*
X53500369Y-44574242D01*
X53500369Y-44574242D02*
X53502925Y-44574150D01*
X53502925Y-44574150D02*
X53505485Y-44574133D01*
X53505485Y-44574133D02*
X53508047Y-44574190D01*
X53508047Y-44574190D02*
X53510610Y-44574322D01*
X53510610Y-44574322D02*
X53513171Y-44574529D01*
X53513171Y-44574529D02*
X53564475Y-44577827D01*
X53564475Y-44577827D02*
X53624445Y-44587149D01*
X53624445Y-44587149D02*
X53691621Y-44601632D01*
X53691621Y-44601632D02*
X53764542Y-44620418D01*
X53764542Y-44620418D02*
X53921779Y-44667454D01*
X53921779Y-44667454D02*
X54084473Y-44721373D01*
X54084473Y-44721373D02*
X54379500Y-44822328D01*
X54379500Y-44822328D02*
X54488467Y-44855597D01*
X54488467Y-44855597D02*
X54528202Y-44864918D01*
X54528202Y-44864918D02*
X54556159Y-44868217D01*
X54556159Y-44868217D02*
X54565770Y-44868728D01*
X54565770Y-44868728D02*
X54575362Y-44868818D01*
X54575362Y-44868818D02*
X54584921Y-44868493D01*
X54584921Y-44868493D02*
X54594436Y-44867754D01*
X54594436Y-44867754D02*
X54603892Y-44866606D01*
X54603892Y-44866606D02*
X54613277Y-44865052D01*
X54613277Y-44865052D02*
X54622578Y-44863097D01*
X54622578Y-44863097D02*
X54631781Y-44860742D01*
X54631781Y-44860742D02*
X54640875Y-44857993D01*
X54640875Y-44857993D02*
X54649845Y-44854853D01*
X54649845Y-44854853D02*
X54658680Y-44851326D01*
X54658680Y-44851326D02*
X54667365Y-44847414D01*
X54667365Y-44847414D02*
X54675888Y-44843122D01*
X54675888Y-44843122D02*
X54684237Y-44838453D01*
X54684237Y-44838453D02*
X54692397Y-44833411D01*
X54692397Y-44833411D02*
X54700357Y-44828000D01*
X54700357Y-44828000D02*
X54710848Y-44821903D01*
X54710848Y-44821903D02*
X54721122Y-44815487D01*
X54721122Y-44815487D02*
X54731173Y-44808758D01*
X54731173Y-44808758D02*
X54740992Y-44801724D01*
X54740992Y-44801724D02*
X54750575Y-44794389D01*
X54750575Y-44794389D02*
X54759915Y-44786761D01*
X54759915Y-44786761D02*
X54769004Y-44778845D01*
X54769004Y-44778845D02*
X54777836Y-44770648D01*
X54777836Y-44770648D02*
X54786406Y-44762177D01*
X54786406Y-44762177D02*
X54794705Y-44753437D01*
X54794705Y-44753437D02*
X54802728Y-44744434D01*
X54802728Y-44744434D02*
X54810469Y-44735176D01*
X54810469Y-44735176D02*
X54817919Y-44725668D01*
X54817919Y-44725668D02*
X54825074Y-44715916D01*
X54825074Y-44715916D02*
X54831926Y-44705928D01*
X54831926Y-44705928D02*
X54838469Y-44695708D01*
X54838469Y-44695708D02*
X54842839Y-44684842D01*
X54842839Y-44684842D02*
X54846049Y-44674891D01*
X54846049Y-44674891D02*
X54848135Y-44665816D01*
X54848135Y-44665816D02*
X54849130Y-44657582D01*
X54849130Y-44657582D02*
X54849069Y-44650150D01*
X54849069Y-44650150D02*
X54847986Y-44643483D01*
X54847986Y-44643483D02*
X54845916Y-44637544D01*
X54845916Y-44637544D02*
X54842892Y-44632295D01*
X54842892Y-44632295D02*
X54838951Y-44627699D01*
X54838951Y-44627699D02*
X54834125Y-44623719D01*
X54834125Y-44623719D02*
X54828449Y-44620318D01*
X54828449Y-44620318D02*
X54821958Y-44617457D01*
X54821958Y-44617457D02*
X54814686Y-44615100D01*
X54814686Y-44615100D02*
X54806668Y-44613210D01*
X54806668Y-44613210D02*
X54797937Y-44611748D01*
X54797937Y-44611748D02*
X54788529Y-44610678D01*
X54788529Y-44610678D02*
X54778477Y-44609962D01*
X54778477Y-44609962D02*
X54767816Y-44609563D01*
X54767816Y-44609563D02*
X54744805Y-44609566D01*
X54744805Y-44609566D02*
X54719771Y-44610389D01*
X54719771Y-44610389D02*
X54692990Y-44611732D01*
X54692990Y-44611732D02*
X54635282Y-44614784D01*
X54635282Y-44614784D02*
X54604908Y-44615896D01*
X54604908Y-44615896D02*
X54573886Y-44616333D01*
X54573886Y-44616333D02*
X54500653Y-44613032D01*
X54500653Y-44613032D02*
X54420244Y-44603702D01*
X54420244Y-44603702D02*
X54334128Y-44589206D01*
X54334128Y-44589206D02*
X54243772Y-44570403D01*
X54243772Y-44570403D02*
X54056220Y-44523325D01*
X54056220Y-44523325D02*
X53869333Y-44469357D01*
X53869333Y-44469357D02*
X53544553Y-44368311D01*
X53544553Y-44368311D02*
X53430156Y-44335012D01*
X53430156Y-44335012D02*
X53390095Y-44325682D01*
X53390095Y-44325682D02*
X53363417Y-44322381D01*
X53363417Y-44322381D02*
X53351488Y-44323029D01*
X53351488Y-44323029D02*
X53338438Y-44324928D01*
X53338438Y-44324928D02*
X53309363Y-44332213D01*
X53309363Y-44332213D02*
X53276971Y-44343706D01*
X53276971Y-44343706D02*
X53242039Y-44358873D01*
X53242039Y-44358873D02*
X53205347Y-44377182D01*
X53205347Y-44377182D02*
X53167671Y-44398102D01*
X53167671Y-44398102D02*
X53129791Y-44421100D01*
X53129791Y-44421100D02*
X53092484Y-44445644D01*
X53092484Y-44445644D02*
X53056529Y-44471202D01*
X53056529Y-44471202D02*
X53022704Y-44497241D01*
X53022704Y-44497241D02*
X52991788Y-44523230D01*
X52991788Y-44523230D02*
X52964558Y-44548637D01*
X52964558Y-44548637D02*
X52941793Y-44572929D01*
X52941793Y-44572929D02*
X52924271Y-44595574D01*
X52924271Y-44595574D02*
X52917719Y-44606113D01*
X52917719Y-44606113D02*
X52912770Y-44616041D01*
X52912770Y-44616041D02*
X52909521Y-44625290D01*
X52909521Y-44625290D02*
X52908069Y-44633796D01*
X52908069Y-44633796D02*
X52906046Y-44638716D01*
X52906046Y-44638716D02*
X52904291Y-44643556D01*
X52904291Y-44643556D02*
X52902804Y-44648314D01*
X52902804Y-44648314D02*
X52901584Y-44652990D01*
X52901584Y-44652990D02*
X52900630Y-44657584D01*
X52900630Y-44657584D02*
X52899940Y-44662095D01*
X52899940Y-44662095D02*
X52899514Y-44666522D01*
X52899514Y-44666522D02*
X52899350Y-44670866D01*
X52899350Y-44670866D02*
X52899448Y-44675126D01*
X52899448Y-44675126D02*
X52899807Y-44679302D01*
X52899807Y-44679302D02*
X52900425Y-44683392D01*
X52900425Y-44683392D02*
X52901302Y-44687397D01*
X52901302Y-44687397D02*
X52902436Y-44691316D01*
X52902436Y-44691316D02*
X52903827Y-44695149D01*
X52903827Y-44695149D02*
X52905474Y-44698895D01*
X52905474Y-44698895D02*
X52907375Y-44702554D01*
X52907375Y-44702554D02*
X52909529Y-44706126D01*
X52909529Y-44706126D02*
X52911936Y-44709609D01*
X52911936Y-44709609D02*
X52914594Y-44713004D01*
X52914594Y-44713004D02*
X52917503Y-44716310D01*
X52917503Y-44716310D02*
X52920661Y-44719527D01*
X52920661Y-44719527D02*
X52924067Y-44722654D01*
X52924067Y-44722654D02*
X52927721Y-44725690D01*
X52927721Y-44725690D02*
X52931621Y-44728636D01*
X52931621Y-44728636D02*
X52935767Y-44731491D01*
X52935767Y-44731491D02*
X52940157Y-44734255D01*
X52940157Y-44734255D02*
X52944790Y-44736926D01*
X52944790Y-44736926D02*
X52949665Y-44739505D01*
X52949665Y-44739505D02*
X52954782Y-44741992D01*
X52954782Y-44741992D02*
X52960139Y-44744385D01*
X52960139Y-44744385D02*
X52971569Y-44748889D01*
X52971569Y-44748889D02*
X53024782Y-44771414D01*
X53024782Y-44771414D02*
X53077421Y-44795122D01*
X53077421Y-44795122D02*
X53129467Y-44820000D01*
X53129467Y-44820000D02*
X53180902Y-44846036D01*
X53180902Y-44846036D02*
X53231707Y-44873219D01*
X53231707Y-44873219D02*
X53281864Y-44901536D01*
X53281864Y-44901536D02*
X53331353Y-44930976D01*
X53331353Y-44930976D02*
X53380155Y-44961526D01*
X53380155Y-44961526D02*
X53428253Y-44993174D01*
X53428253Y-44993174D02*
X53475627Y-45025909D01*
X53475627Y-45025909D02*
X53522259Y-45059718D01*
X53522259Y-45059718D02*
X53568129Y-45094589D01*
X53568129Y-45094589D02*
X53613219Y-45130510D01*
X53613219Y-45130510D02*
X53657511Y-45167469D01*
X53657511Y-45167469D02*
X53700985Y-45205454D01*
X53700985Y-45205454D02*
X53743623Y-45244454D01*
X53743623Y-45244454D02*
X53737802Y-45244454D01*
X53737802Y-45244454D02*
X53726529Y-45253388D01*
X53726529Y-45253388D02*
X53715740Y-45262812D01*
X53715740Y-45262812D02*
X53705446Y-45272705D01*
X53705446Y-45272705D02*
X53695661Y-45283048D01*
X53695661Y-45283048D02*
X53686398Y-45293818D01*
X53686398Y-45293818D02*
X53677667Y-45304997D01*
X53677667Y-45304997D02*
X53669483Y-45316563D01*
X53669483Y-45316563D02*
X53661856Y-45328495D01*
X53661856Y-45328495D02*
X53654801Y-45340774D01*
X53654801Y-45340774D02*
X53648329Y-45353378D01*
X53648329Y-45353378D02*
X53642453Y-45366287D01*
X53642453Y-45366287D02*
X53637185Y-45379481D01*
X53637185Y-45379481D02*
X53632537Y-45392938D01*
X53632537Y-45392938D02*
X53628523Y-45406640D01*
X53628523Y-45406640D02*
X53625154Y-45420563D01*
X53625154Y-45420563D02*
X53622444Y-45434690D01*
X53622444Y-45434690D02*
X52668758Y-45298772D01*
X52668758Y-45298772D02*
X52185591Y-45224445D01*
X52185591Y-45224445D02*
X51962977Y-45187040D01*
X51962977Y-45187040D02*
X51939512Y-45187737D01*
X51939512Y-45187737D02*
X51915651Y-45189784D01*
X51915651Y-45189784D02*
X51891467Y-45193112D01*
X51891467Y-45193112D02*
X51867038Y-45197656D01*
X51867038Y-45197656D02*
X51817737Y-45210117D01*
X51817737Y-45210117D02*
X51768347Y-45226628D01*
X51768347Y-45226628D02*
X51719468Y-45246648D01*
X51719468Y-45246648D02*
X51671698Y-45269639D01*
X51671698Y-45269639D02*
X51625635Y-45295061D01*
X51625635Y-45295061D02*
X51581878Y-45322374D01*
X51581878Y-45322374D02*
X51541027Y-45351039D01*
X51541027Y-45351039D02*
X51503680Y-45380516D01*
X51503680Y-45380516D02*
X51470436Y-45410266D01*
X51470436Y-45410266D02*
X51441893Y-45439750D01*
X51441893Y-45439750D02*
X51418651Y-45468427D01*
X51418651Y-45468427D02*
X51401308Y-45495759D01*
X51401308Y-45495759D02*
X51395036Y-45508751D01*
X51395036Y-45508751D02*
X51390463Y-45521205D01*
X51390463Y-45521205D02*
X51387664Y-45533053D01*
X51387664Y-45533053D02*
X51386715Y-45544227D01*
X51386715Y-45544227D02*
X51386916Y-45550551D01*
X51386916Y-45550551D02*
X51387514Y-45556579D01*
X51387514Y-45556579D02*
X51388503Y-45562317D01*
X51388503Y-45562317D02*
X51389873Y-45567771D01*
X51389873Y-45567771D02*
X51391619Y-45572949D01*
X51391619Y-45572949D02*
X51393733Y-45577855D01*
X51393733Y-45577855D02*
X51396207Y-45582496D01*
X51396207Y-45582496D02*
X51399035Y-45586879D01*
X51399035Y-45586879D02*
X51402208Y-45591009D01*
X51402208Y-45591009D02*
X51405719Y-45594894D01*
X51405719Y-45594894D02*
X51409561Y-45598538D01*
X51409561Y-45598538D02*
X51413727Y-45601949D01*
X51413727Y-45601949D02*
X51418209Y-45605133D01*
X51418209Y-45605133D02*
X51423001Y-45608096D01*
X51423001Y-45608096D02*
X51428093Y-45610843D01*
X51428093Y-45610843D02*
X51433480Y-45613383D01*
X51433480Y-45613383D02*
X51439154Y-45615720D01*
X51439154Y-45615720D02*
X51445107Y-45617860D01*
X51445107Y-45617860D02*
X51451332Y-45619811D01*
X51451332Y-45619811D02*
X51457822Y-45621579D01*
X51457822Y-45621579D02*
X51464569Y-45623169D01*
X51464569Y-45623169D02*
X51471566Y-45624588D01*
X51471566Y-45624588D02*
X51478806Y-45625843D01*
X51478806Y-45625843D02*
X51486281Y-45626938D01*
X51486281Y-45626938D02*
X51501907Y-45628679D01*
X51501907Y-45628679D02*
X51518387Y-45629861D01*
X51518387Y-45629861D02*
X51535659Y-45630533D01*
X51535659Y-45630533D02*
X51553667Y-45630746D01*
X51553667Y-45630746D02*
X51747140Y-45625562D01*
X51747140Y-45625562D02*
X52076715Y-45619832D01*
X52076715Y-45619832D02*
X52677353Y-45613283D01*
X52677353Y-45613283D02*
X52922522Y-45614553D01*
X52922522Y-45614553D02*
X53156381Y-45619071D01*
X53156381Y-45619071D02*
X53268882Y-45622882D01*
X53268882Y-45622882D02*
X53378333Y-45627906D01*
X53378333Y-45627906D02*
X53484658Y-45634275D01*
X53484658Y-45634275D02*
X53587784Y-45642123D01*
X53587784Y-45642123D02*
X53586056Y-45680439D01*
X53586056Y-45680439D02*
X53581500Y-45738014D01*
X53581500Y-45738014D02*
X53567675Y-45903631D01*
X53567675Y-45903631D02*
X53560292Y-46008021D01*
X53560292Y-46008021D02*
X53553851Y-46124363D01*
X53553851Y-46124363D02*
X53549295Y-46250833D01*
X53549295Y-46250833D02*
X53548019Y-46317294D01*
X53548019Y-46317294D02*
X53547567Y-46385602D01*
X53547567Y-46385602D02*
X53548096Y-46384014D01*
X53548096Y-46384014D02*
X53548096Y-46384014D01*
G36*
X53390095Y-44325682D02*
G01*
X53430156Y-44335012D01*
X53544553Y-44368311D01*
X53869333Y-44469357D01*
X54056220Y-44523325D01*
X54243772Y-44570403D01*
X54334128Y-44589206D01*
X54420244Y-44603702D01*
X54500653Y-44613032D01*
X54573886Y-44616333D01*
X54604908Y-44615896D01*
X54635282Y-44614784D01*
X54692990Y-44611732D01*
X54719771Y-44610389D01*
X54744805Y-44609566D01*
X54767816Y-44609563D01*
X54778477Y-44609962D01*
X54788529Y-44610678D01*
X54797937Y-44611748D01*
X54806668Y-44613210D01*
X54814686Y-44615100D01*
X54821958Y-44617457D01*
X54828449Y-44620318D01*
X54834125Y-44623719D01*
X54838951Y-44627699D01*
X54842892Y-44632295D01*
X54845916Y-44637544D01*
X54847986Y-44643483D01*
X54849069Y-44650150D01*
X54849130Y-44657582D01*
X54848135Y-44665816D01*
X54846049Y-44674891D01*
X54842839Y-44684842D01*
X54838469Y-44695708D01*
X54831926Y-44705928D01*
X54825074Y-44715916D01*
X54817919Y-44725668D01*
X54810469Y-44735176D01*
X54802728Y-44744434D01*
X54794705Y-44753437D01*
X54786406Y-44762177D01*
X54777836Y-44770648D01*
X54769004Y-44778845D01*
X54759915Y-44786761D01*
X54750575Y-44794389D01*
X54740992Y-44801724D01*
X54731173Y-44808758D01*
X54721122Y-44815487D01*
X54710848Y-44821903D01*
X54700357Y-44828000D01*
X54692397Y-44833411D01*
X54684237Y-44838453D01*
X54675888Y-44843122D01*
X54667365Y-44847414D01*
X54658680Y-44851326D01*
X54649845Y-44854853D01*
X54640875Y-44857993D01*
X54631781Y-44860742D01*
X54622578Y-44863097D01*
X54613277Y-44865052D01*
X54603892Y-44866606D01*
X54594436Y-44867754D01*
X54584921Y-44868493D01*
X54575362Y-44868818D01*
X54565770Y-44868728D01*
X54556159Y-44868217D01*
X54528202Y-44864918D01*
X54488467Y-44855597D01*
X54379500Y-44822328D01*
X54084473Y-44721373D01*
X53921779Y-44667454D01*
X53764542Y-44620418D01*
X53691621Y-44601632D01*
X53624445Y-44587149D01*
X53564475Y-44577827D01*
X53513171Y-44574529D01*
X53510610Y-44574322D01*
X53508047Y-44574190D01*
X53505485Y-44574133D01*
X53502925Y-44574150D01*
X53500369Y-44574242D01*
X53497818Y-44574407D01*
X53495274Y-44574646D01*
X53492738Y-44574959D01*
X53490213Y-44575346D01*
X53487699Y-44575805D01*
X53485199Y-44576337D01*
X53482714Y-44576943D01*
X53480245Y-44577620D01*
X53477795Y-44578370D01*
X53475364Y-44579192D01*
X53472954Y-44580085D01*
X53465814Y-44585424D01*
X53459463Y-44590663D01*
X53453885Y-44595856D01*
X53449063Y-44601058D01*
X53446931Y-44603679D01*
X53444981Y-44606323D01*
X53443212Y-44608997D01*
X53441621Y-44611707D01*
X53440207Y-44614460D01*
X53438968Y-44617263D01*
X53437901Y-44620123D01*
X53437004Y-44623047D01*
X53436276Y-44626041D01*
X53435713Y-44629113D01*
X53435315Y-44632269D01*
X53435078Y-44635516D01*
X53435002Y-44638861D01*
X53435083Y-44642310D01*
X53435710Y-44649551D01*
X53436944Y-44657292D01*
X53438767Y-44665589D01*
X53441163Y-44674495D01*
X53444115Y-44684067D01*
X53822998Y-45191008D01*
X53841012Y-45177395D01*
X53859304Y-45164188D01*
X53877865Y-45151391D01*
X53896688Y-45139008D01*
X53915768Y-45127043D01*
X53935096Y-45115499D01*
X53954666Y-45104380D01*
X53974470Y-45093691D01*
X53994502Y-45083433D01*
X54014754Y-45073612D01*
X54035219Y-45064231D01*
X54055891Y-45055294D01*
X54076762Y-45046804D01*
X54097825Y-45038765D01*
X54119072Y-45031181D01*
X54140498Y-45024056D01*
X54144282Y-45023100D01*
X54147894Y-45022414D01*
X54151340Y-45021998D01*
X54154622Y-45021849D01*
X54157744Y-45021967D01*
X54160709Y-45022351D01*
X54163519Y-45022999D01*
X54166179Y-45023911D01*
X54168692Y-45025086D01*
X54171061Y-45026521D01*
X54173289Y-45028217D01*
X54175380Y-45030172D01*
X54177337Y-45032385D01*
X54179162Y-45034854D01*
X54180861Y-45037579D01*
X54182435Y-45040559D01*
X54185223Y-45047278D01*
X54187555Y-45055002D01*
X54189455Y-45063722D01*
X54190951Y-45073430D01*
X54192068Y-45084115D01*
X54192834Y-45095770D01*
X54193274Y-45108385D01*
X54193415Y-45121952D01*
X54191360Y-45135563D01*
X54188497Y-45148360D01*
X54184868Y-45160406D01*
X54180515Y-45171765D01*
X54175480Y-45182500D01*
X54169803Y-45192674D01*
X54163528Y-45202350D01*
X54156696Y-45211592D01*
X54149348Y-45220463D01*
X54141526Y-45229026D01*
X54124628Y-45245484D01*
X54106337Y-45261471D01*
X54086986Y-45277494D01*
X54066910Y-45294059D01*
X54046442Y-45311674D01*
X54025917Y-45330844D01*
X54005668Y-45352077D01*
X53995752Y-45363625D01*
X53986030Y-45375879D01*
X53976545Y-45388901D01*
X53967338Y-45402756D01*
X53958450Y-45417506D01*
X53949924Y-45433215D01*
X53941801Y-45449946D01*
X53934123Y-45467762D01*
X54969669Y-45563343D01*
X56083598Y-45675196D01*
X56092985Y-45676355D01*
X56101704Y-45677662D01*
X56109765Y-45679134D01*
X56113551Y-45679938D01*
X56117175Y-45680789D01*
X56120639Y-45681690D01*
X56123944Y-45682644D01*
X56127090Y-45683651D01*
X56130079Y-45684716D01*
X56132912Y-45685839D01*
X56135589Y-45687023D01*
X56138113Y-45688270D01*
X56140483Y-45689582D01*
X56142702Y-45690962D01*
X56144770Y-45692411D01*
X56146688Y-45693932D01*
X56148457Y-45695528D01*
X56150079Y-45697199D01*
X56151554Y-45698948D01*
X56152883Y-45700779D01*
X56154068Y-45702691D01*
X56155110Y-45704689D01*
X56156009Y-45706774D01*
X56156767Y-45708948D01*
X56157385Y-45711213D01*
X56157863Y-45713573D01*
X56158204Y-45716027D01*
X56158407Y-45718580D01*
X56158475Y-45721233D01*
X56157973Y-45728466D01*
X56156485Y-45736098D01*
X56154038Y-45744088D01*
X56150657Y-45752394D01*
X56141202Y-45769792D01*
X56128329Y-45787962D01*
X56112250Y-45806573D01*
X56093176Y-45825296D01*
X56071318Y-45843802D01*
X56046886Y-45861760D01*
X56020092Y-45878840D01*
X55991146Y-45894713D01*
X55960258Y-45909049D01*
X55927641Y-45921517D01*
X55893504Y-45931789D01*
X55858059Y-45939535D01*
X55839911Y-45942357D01*
X55821516Y-45944424D01*
X55802898Y-45945694D01*
X55784086Y-45946126D01*
X55554984Y-45898011D01*
X55325192Y-45853537D01*
X55094754Y-45812712D01*
X54863713Y-45775543D01*
X54632112Y-45742036D01*
X54399995Y-45712198D01*
X54167406Y-45686035D01*
X53934388Y-45663554D01*
X53893905Y-45663563D01*
X53883638Y-45730855D01*
X53874620Y-45798307D01*
X53866852Y-45865902D01*
X53860335Y-45933624D01*
X53855071Y-46001454D01*
X53851061Y-46069375D01*
X53848307Y-46137369D01*
X53846811Y-46205420D01*
X53846885Y-46274845D01*
X53849634Y-46344138D01*
X53855046Y-46413223D01*
X53863110Y-46482023D01*
X53873817Y-46550462D01*
X53887156Y-46618462D01*
X53903117Y-46685948D01*
X53921688Y-46752843D01*
X53923713Y-46754976D01*
X53925666Y-46757168D01*
X53927544Y-46759418D01*
X53929347Y-46761724D01*
X53931074Y-46764085D01*
X53932723Y-46766497D01*
X53934293Y-46768960D01*
X53935784Y-46771471D01*
X53937194Y-46774028D01*
X53938522Y-46776629D01*
X53939767Y-46779273D01*
X53940928Y-46781957D01*
X53942003Y-46784680D01*
X53942992Y-46787439D01*
X53943894Y-46790233D01*
X53944707Y-46793060D01*
X53947299Y-46795174D01*
X53950226Y-46797152D01*
X53953508Y-46798994D01*
X53957163Y-46800700D01*
X53961210Y-46802269D01*
X53965668Y-46803701D01*
X53970557Y-46804997D01*
X53975894Y-46806157D01*
X53981700Y-46807180D01*
X53987994Y-46808067D01*
X53994793Y-46808817D01*
X54002117Y-46809431D01*
X54009986Y-46809908D01*
X54018417Y-46810249D01*
X54037046Y-46810522D01*
X54075298Y-46809809D01*
X54112417Y-46807794D01*
X54148477Y-46804662D01*
X54183555Y-46800600D01*
X54217726Y-46795795D01*
X54251066Y-46790431D01*
X54315553Y-46778772D01*
X54377622Y-46767114D01*
X54437878Y-46756944D01*
X54467514Y-46752882D01*
X54496924Y-46749751D01*
X54526182Y-46747736D01*
X54555365Y-46747022D01*
X54560886Y-46747089D01*
X54566223Y-46747283D01*
X54571351Y-46747596D01*
X54576246Y-46748019D01*
X54580886Y-46748542D01*
X54585247Y-46749157D01*
X54589304Y-46749855D01*
X54593035Y-46750627D01*
X54596415Y-46751464D01*
X54599422Y-46752358D01*
X54602030Y-46753299D01*
X54603178Y-46753784D01*
X54604218Y-46754278D01*
X54605146Y-46754779D01*
X54605960Y-46755286D01*
X54606657Y-46755799D01*
X54607234Y-46756315D01*
X54607688Y-46756835D01*
X54608016Y-46757356D01*
X54608215Y-46757878D01*
X54608282Y-46758399D01*
X54604870Y-46765548D01*
X54598994Y-46773966D01*
X54580401Y-46794418D01*
X54553610Y-46819375D01*
X54519729Y-46848457D01*
X54335430Y-46998443D01*
X54229514Y-47088312D01*
X54176988Y-47135637D01*
X54126227Y-47184048D01*
X54078337Y-47233166D01*
X54034425Y-47282611D01*
X53995598Y-47332004D01*
X53978437Y-47356562D01*
X53962963Y-47380964D01*
X53960020Y-47384625D01*
X53956905Y-47388109D01*
X53953623Y-47391410D01*
X53950185Y-47394523D01*
X53946598Y-47397445D01*
X53942871Y-47400171D01*
X53939012Y-47402696D01*
X53935029Y-47405016D01*
X53930931Y-47407125D01*
X53926727Y-47409020D01*
X53922424Y-47410695D01*
X53918031Y-47412147D01*
X53913557Y-47413371D01*
X53909009Y-47414361D01*
X53904396Y-47415114D01*
X53899727Y-47415624D01*
X53888086Y-47415624D01*
X53882265Y-47409804D01*
X53876709Y-47409804D01*
X53865331Y-47403983D01*
X53853690Y-47398163D01*
X53842313Y-47392342D01*
X53830671Y-47380965D01*
X53819294Y-47375144D01*
X53801832Y-47363502D01*
X53790454Y-47346304D01*
X53772992Y-47329106D01*
X53761615Y-47311644D01*
X53743358Y-47294445D01*
X53725896Y-47271426D01*
X53708698Y-47242587D01*
X53697321Y-47214011D01*
X53680124Y-47185172D01*
X53662926Y-47150511D01*
X53651284Y-47116116D01*
X53645463Y-47093097D01*
X53634086Y-47075634D01*
X53628265Y-47052616D01*
X53616623Y-47006578D01*
X53611067Y-46983559D01*
X53605246Y-46960541D01*
X53599425Y-46931701D01*
X53593604Y-46908683D01*
X53587784Y-46879843D01*
X53581963Y-46851004D01*
X53576406Y-46822165D01*
X53571115Y-46793061D01*
X53571115Y-46758401D01*
X53565294Y-46729826D01*
X53559473Y-46695165D01*
X53559473Y-46660505D01*
X53553917Y-46625844D01*
X53553917Y-46550966D01*
X53548096Y-46510750D01*
X53548096Y-46384014D01*
X53547567Y-46385602D01*
X53548019Y-46317294D01*
X53549295Y-46250833D01*
X53553851Y-46124363D01*
X53560292Y-46008021D01*
X53567675Y-45903631D01*
X53581500Y-45738014D01*
X53586056Y-45680439D01*
X53587784Y-45642123D01*
X53484658Y-45634275D01*
X53378333Y-45627906D01*
X53268882Y-45622882D01*
X53156381Y-45619071D01*
X52922522Y-45614553D01*
X52677353Y-45613283D01*
X52076715Y-45619832D01*
X51747140Y-45625562D01*
X51553667Y-45630746D01*
X51535659Y-45630533D01*
X51518387Y-45629861D01*
X51501907Y-45628679D01*
X51486281Y-45626938D01*
X51478806Y-45625843D01*
X51471566Y-45624588D01*
X51464569Y-45623169D01*
X51457822Y-45621579D01*
X51451332Y-45619811D01*
X51445107Y-45617860D01*
X51439154Y-45615720D01*
X51433480Y-45613383D01*
X51428093Y-45610843D01*
X51423001Y-45608096D01*
X51418209Y-45605133D01*
X51413727Y-45601949D01*
X51409561Y-45598538D01*
X51405719Y-45594894D01*
X51402208Y-45591009D01*
X51399035Y-45586879D01*
X51396207Y-45582496D01*
X51393733Y-45577855D01*
X51391619Y-45572949D01*
X51389873Y-45567771D01*
X51388503Y-45562317D01*
X51387514Y-45556579D01*
X51386916Y-45550551D01*
X51386715Y-45544227D01*
X51387664Y-45533053D01*
X51390463Y-45521205D01*
X51395036Y-45508751D01*
X51401308Y-45495759D01*
X51418651Y-45468427D01*
X51441893Y-45439750D01*
X51470436Y-45410266D01*
X51503680Y-45380516D01*
X51541027Y-45351039D01*
X51581878Y-45322374D01*
X51625635Y-45295061D01*
X51671698Y-45269639D01*
X51719468Y-45246648D01*
X51768347Y-45226628D01*
X51817737Y-45210117D01*
X51867038Y-45197656D01*
X51891467Y-45193112D01*
X51915651Y-45189784D01*
X51939512Y-45187737D01*
X51962977Y-45187040D01*
X52185591Y-45224445D01*
X52668758Y-45298772D01*
X53622444Y-45434690D01*
X53625154Y-45420563D01*
X53628523Y-45406640D01*
X53632537Y-45392938D01*
X53637185Y-45379481D01*
X53642453Y-45366287D01*
X53648329Y-45353378D01*
X53654801Y-45340774D01*
X53661856Y-45328495D01*
X53669483Y-45316563D01*
X53677667Y-45304997D01*
X53686398Y-45293818D01*
X53695661Y-45283048D01*
X53705446Y-45272705D01*
X53715740Y-45262812D01*
X53726529Y-45253388D01*
X53737802Y-45244454D01*
X53743623Y-45244454D01*
X53700985Y-45205454D01*
X53657511Y-45167469D01*
X53613219Y-45130510D01*
X53568129Y-45094589D01*
X53522259Y-45059718D01*
X53475627Y-45025909D01*
X53428253Y-44993174D01*
X53380155Y-44961526D01*
X53331353Y-44930976D01*
X53281864Y-44901536D01*
X53231707Y-44873219D01*
X53180902Y-44846036D01*
X53129467Y-44820000D01*
X53077421Y-44795122D01*
X53024782Y-44771414D01*
X52971569Y-44748889D01*
X52960139Y-44744385D01*
X52954782Y-44741992D01*
X52949665Y-44739505D01*
X52944790Y-44736926D01*
X52940157Y-44734255D01*
X52935767Y-44731491D01*
X52931621Y-44728636D01*
X52927721Y-44725690D01*
X52924067Y-44722654D01*
X52920661Y-44719527D01*
X52917503Y-44716310D01*
X52914594Y-44713004D01*
X52911936Y-44709609D01*
X52909529Y-44706126D01*
X52907375Y-44702554D01*
X52905474Y-44698895D01*
X52903827Y-44695149D01*
X52902436Y-44691316D01*
X52901302Y-44687397D01*
X52900425Y-44683392D01*
X52899807Y-44679302D01*
X52899448Y-44675126D01*
X52899350Y-44670866D01*
X52899514Y-44666522D01*
X52899940Y-44662095D01*
X52900630Y-44657584D01*
X52901584Y-44652990D01*
X52902804Y-44648314D01*
X52904291Y-44643556D01*
X52906046Y-44638716D01*
X52908069Y-44633796D01*
X52909521Y-44625290D01*
X52912770Y-44616041D01*
X52917719Y-44606113D01*
X52924271Y-44595574D01*
X52941793Y-44572929D01*
X52964558Y-44548637D01*
X52991788Y-44523230D01*
X53022704Y-44497241D01*
X53056529Y-44471202D01*
X53092484Y-44445644D01*
X53129791Y-44421100D01*
X53167671Y-44398102D01*
X53205347Y-44377182D01*
X53242039Y-44358873D01*
X53276971Y-44343706D01*
X53309363Y-44332213D01*
X53338438Y-44324928D01*
X53351488Y-44323029D01*
X53363417Y-44322381D01*
X53390095Y-44325682D01*
G37*
X53390095Y-44325682D02*
X53430156Y-44335012D01*
X53544553Y-44368311D01*
X53869333Y-44469357D01*
X54056220Y-44523325D01*
X54243772Y-44570403D01*
X54334128Y-44589206D01*
X54420244Y-44603702D01*
X54500653Y-44613032D01*
X54573886Y-44616333D01*
X54604908Y-44615896D01*
X54635282Y-44614784D01*
X54692990Y-44611732D01*
X54719771Y-44610389D01*
X54744805Y-44609566D01*
X54767816Y-44609563D01*
X54778477Y-44609962D01*
X54788529Y-44610678D01*
X54797937Y-44611748D01*
X54806668Y-44613210D01*
X54814686Y-44615100D01*
X54821958Y-44617457D01*
X54828449Y-44620318D01*
X54834125Y-44623719D01*
X54838951Y-44627699D01*
X54842892Y-44632295D01*
X54845916Y-44637544D01*
X54847986Y-44643483D01*
X54849069Y-44650150D01*
X54849130Y-44657582D01*
X54848135Y-44665816D01*
X54846049Y-44674891D01*
X54842839Y-44684842D01*
X54838469Y-44695708D01*
X54831926Y-44705928D01*
X54825074Y-44715916D01*
X54817919Y-44725668D01*
X54810469Y-44735176D01*
X54802728Y-44744434D01*
X54794705Y-44753437D01*
X54786406Y-44762177D01*
X54777836Y-44770648D01*
X54769004Y-44778845D01*
X54759915Y-44786761D01*
X54750575Y-44794389D01*
X54740992Y-44801724D01*
X54731173Y-44808758D01*
X54721122Y-44815487D01*
X54710848Y-44821903D01*
X54700357Y-44828000D01*
X54692397Y-44833411D01*
X54684237Y-44838453D01*
X54675888Y-44843122D01*
X54667365Y-44847414D01*
X54658680Y-44851326D01*
X54649845Y-44854853D01*
X54640875Y-44857993D01*
X54631781Y-44860742D01*
X54622578Y-44863097D01*
X54613277Y-44865052D01*
X54603892Y-44866606D01*
X54594436Y-44867754D01*
X54584921Y-44868493D01*
X54575362Y-44868818D01*
X54565770Y-44868728D01*
X54556159Y-44868217D01*
X54528202Y-44864918D01*
X54488467Y-44855597D01*
X54379500Y-44822328D01*
X54084473Y-44721373D01*
X53921779Y-44667454D01*
X53764542Y-44620418D01*
X53691621Y-44601632D01*
X53624445Y-44587149D01*
X53564475Y-44577827D01*
X53513171Y-44574529D01*
X53510610Y-44574322D01*
X53508047Y-44574190D01*
X53505485Y-44574133D01*
X53502925Y-44574150D01*
X53500369Y-44574242D01*
X53497818Y-44574407D01*
X53495274Y-44574646D01*
X53492738Y-44574959D01*
X53490213Y-44575346D01*
X53487699Y-44575805D01*
X53485199Y-44576337D01*
X53482714Y-44576943D01*
X53480245Y-44577620D01*
X53477795Y-44578370D01*
X53475364Y-44579192D01*
X53472954Y-44580085D01*
X53465814Y-44585424D01*
X53459463Y-44590663D01*
X53453885Y-44595856D01*
X53449063Y-44601058D01*
X53446931Y-44603679D01*
X53444981Y-44606323D01*
X53443212Y-44608997D01*
X53441621Y-44611707D01*
X53440207Y-44614460D01*
X53438968Y-44617263D01*
X53437901Y-44620123D01*
X53437004Y-44623047D01*
X53436276Y-44626041D01*
X53435713Y-44629113D01*
X53435315Y-44632269D01*
X53435078Y-44635516D01*
X53435002Y-44638861D01*
X53435083Y-44642310D01*
X53435710Y-44649551D01*
X53436944Y-44657292D01*
X53438767Y-44665589D01*
X53441163Y-44674495D01*
X53444115Y-44684067D01*
X53822998Y-45191008D01*
X53841012Y-45177395D01*
X53859304Y-45164188D01*
X53877865Y-45151391D01*
X53896688Y-45139008D01*
X53915768Y-45127043D01*
X53935096Y-45115499D01*
X53954666Y-45104380D01*
X53974470Y-45093691D01*
X53994502Y-45083433D01*
X54014754Y-45073612D01*
X54035219Y-45064231D01*
X54055891Y-45055294D01*
X54076762Y-45046804D01*
X54097825Y-45038765D01*
X54119072Y-45031181D01*
X54140498Y-45024056D01*
X54144282Y-45023100D01*
X54147894Y-45022414D01*
X54151340Y-45021998D01*
X54154622Y-45021849D01*
X54157744Y-45021967D01*
X54160709Y-45022351D01*
X54163519Y-45022999D01*
X54166179Y-45023911D01*
X54168692Y-45025086D01*
X54171061Y-45026521D01*
X54173289Y-45028217D01*
X54175380Y-45030172D01*
X54177337Y-45032385D01*
X54179162Y-45034854D01*
X54180861Y-45037579D01*
X54182435Y-45040559D01*
X54185223Y-45047278D01*
X54187555Y-45055002D01*
X54189455Y-45063722D01*
X54190951Y-45073430D01*
X54192068Y-45084115D01*
X54192834Y-45095770D01*
X54193274Y-45108385D01*
X54193415Y-45121952D01*
X54191360Y-45135563D01*
X54188497Y-45148360D01*
X54184868Y-45160406D01*
X54180515Y-45171765D01*
X54175480Y-45182500D01*
X54169803Y-45192674D01*
X54163528Y-45202350D01*
X54156696Y-45211592D01*
X54149348Y-45220463D01*
X54141526Y-45229026D01*
X54124628Y-45245484D01*
X54106337Y-45261471D01*
X54086986Y-45277494D01*
X54066910Y-45294059D01*
X54046442Y-45311674D01*
X54025917Y-45330844D01*
X54005668Y-45352077D01*
X53995752Y-45363625D01*
X53986030Y-45375879D01*
X53976545Y-45388901D01*
X53967338Y-45402756D01*
X53958450Y-45417506D01*
X53949924Y-45433215D01*
X53941801Y-45449946D01*
X53934123Y-45467762D01*
X54969669Y-45563343D01*
X56083598Y-45675196D01*
X56092985Y-45676355D01*
X56101704Y-45677662D01*
X56109765Y-45679134D01*
X56113551Y-45679938D01*
X56117175Y-45680789D01*
X56120639Y-45681690D01*
X56123944Y-45682644D01*
X56127090Y-45683651D01*
X56130079Y-45684716D01*
X56132912Y-45685839D01*
X56135589Y-45687023D01*
X56138113Y-45688270D01*
X56140483Y-45689582D01*
X56142702Y-45690962D01*
X56144770Y-45692411D01*
X56146688Y-45693932D01*
X56148457Y-45695528D01*
X56150079Y-45697199D01*
X56151554Y-45698948D01*
X56152883Y-45700779D01*
X56154068Y-45702691D01*
X56155110Y-45704689D01*
X56156009Y-45706774D01*
X56156767Y-45708948D01*
X56157385Y-45711213D01*
X56157863Y-45713573D01*
X56158204Y-45716027D01*
X56158407Y-45718580D01*
X56158475Y-45721233D01*
X56157973Y-45728466D01*
X56156485Y-45736098D01*
X56154038Y-45744088D01*
X56150657Y-45752394D01*
X56141202Y-45769792D01*
X56128329Y-45787962D01*
X56112250Y-45806573D01*
X56093176Y-45825296D01*
X56071318Y-45843802D01*
X56046886Y-45861760D01*
X56020092Y-45878840D01*
X55991146Y-45894713D01*
X55960258Y-45909049D01*
X55927641Y-45921517D01*
X55893504Y-45931789D01*
X55858059Y-45939535D01*
X55839911Y-45942357D01*
X55821516Y-45944424D01*
X55802898Y-45945694D01*
X55784086Y-45946126D01*
X55554984Y-45898011D01*
X55325192Y-45853537D01*
X55094754Y-45812712D01*
X54863713Y-45775543D01*
X54632112Y-45742036D01*
X54399995Y-45712198D01*
X54167406Y-45686035D01*
X53934388Y-45663554D01*
X53893905Y-45663563D01*
X53883638Y-45730855D01*
X53874620Y-45798307D01*
X53866852Y-45865902D01*
X53860335Y-45933624D01*
X53855071Y-46001454D01*
X53851061Y-46069375D01*
X53848307Y-46137369D01*
X53846811Y-46205420D01*
X53846885Y-46274845D01*
X53849634Y-46344138D01*
X53855046Y-46413223D01*
X53863110Y-46482023D01*
X53873817Y-46550462D01*
X53887156Y-46618462D01*
X53903117Y-46685948D01*
X53921688Y-46752843D01*
X53923713Y-46754976D01*
X53925666Y-46757168D01*
X53927544Y-46759418D01*
X53929347Y-46761724D01*
X53931074Y-46764085D01*
X53932723Y-46766497D01*
X53934293Y-46768960D01*
X53935784Y-46771471D01*
X53937194Y-46774028D01*
X53938522Y-46776629D01*
X53939767Y-46779273D01*
X53940928Y-46781957D01*
X53942003Y-46784680D01*
X53942992Y-46787439D01*
X53943894Y-46790233D01*
X53944707Y-46793060D01*
X53947299Y-46795174D01*
X53950226Y-46797152D01*
X53953508Y-46798994D01*
X53957163Y-46800700D01*
X53961210Y-46802269D01*
X53965668Y-46803701D01*
X53970557Y-46804997D01*
X53975894Y-46806157D01*
X53981700Y-46807180D01*
X53987994Y-46808067D01*
X53994793Y-46808817D01*
X54002117Y-46809431D01*
X54009986Y-46809908D01*
X54018417Y-46810249D01*
X54037046Y-46810522D01*
X54075298Y-46809809D01*
X54112417Y-46807794D01*
X54148477Y-46804662D01*
X54183555Y-46800600D01*
X54217726Y-46795795D01*
X54251066Y-46790431D01*
X54315553Y-46778772D01*
X54377622Y-46767114D01*
X54437878Y-46756944D01*
X54467514Y-46752882D01*
X54496924Y-46749751D01*
X54526182Y-46747736D01*
X54555365Y-46747022D01*
X54560886Y-46747089D01*
X54566223Y-46747283D01*
X54571351Y-46747596D01*
X54576246Y-46748019D01*
X54580886Y-46748542D01*
X54585247Y-46749157D01*
X54589304Y-46749855D01*
X54593035Y-46750627D01*
X54596415Y-46751464D01*
X54599422Y-46752358D01*
X54602030Y-46753299D01*
X54603178Y-46753784D01*
X54604218Y-46754278D01*
X54605146Y-46754779D01*
X54605960Y-46755286D01*
X54606657Y-46755799D01*
X54607234Y-46756315D01*
X54607688Y-46756835D01*
X54608016Y-46757356D01*
X54608215Y-46757878D01*
X54608282Y-46758399D01*
X54604870Y-46765548D01*
X54598994Y-46773966D01*
X54580401Y-46794418D01*
X54553610Y-46819375D01*
X54519729Y-46848457D01*
X54335430Y-46998443D01*
X54229514Y-47088312D01*
X54176988Y-47135637D01*
X54126227Y-47184048D01*
X54078337Y-47233166D01*
X54034425Y-47282611D01*
X53995598Y-47332004D01*
X53978437Y-47356562D01*
X53962963Y-47380964D01*
X53960020Y-47384625D01*
X53956905Y-47388109D01*
X53953623Y-47391410D01*
X53950185Y-47394523D01*
X53946598Y-47397445D01*
X53942871Y-47400171D01*
X53939012Y-47402696D01*
X53935029Y-47405016D01*
X53930931Y-47407125D01*
X53926727Y-47409020D01*
X53922424Y-47410695D01*
X53918031Y-47412147D01*
X53913557Y-47413371D01*
X53909009Y-47414361D01*
X53904396Y-47415114D01*
X53899727Y-47415624D01*
X53888086Y-47415624D01*
X53882265Y-47409804D01*
X53876709Y-47409804D01*
X53865331Y-47403983D01*
X53853690Y-47398163D01*
X53842313Y-47392342D01*
X53830671Y-47380965D01*
X53819294Y-47375144D01*
X53801832Y-47363502D01*
X53790454Y-47346304D01*
X53772992Y-47329106D01*
X53761615Y-47311644D01*
X53743358Y-47294445D01*
X53725896Y-47271426D01*
X53708698Y-47242587D01*
X53697321Y-47214011D01*
X53680124Y-47185172D01*
X53662926Y-47150511D01*
X53651284Y-47116116D01*
X53645463Y-47093097D01*
X53634086Y-47075634D01*
X53628265Y-47052616D01*
X53616623Y-47006578D01*
X53611067Y-46983559D01*
X53605246Y-46960541D01*
X53599425Y-46931701D01*
X53593604Y-46908683D01*
X53587784Y-46879843D01*
X53581963Y-46851004D01*
X53576406Y-46822165D01*
X53571115Y-46793061D01*
X53571115Y-46758401D01*
X53565294Y-46729826D01*
X53559473Y-46695165D01*
X53559473Y-46660505D01*
X53553917Y-46625844D01*
X53553917Y-46550966D01*
X53548096Y-46510750D01*
X53548096Y-46384014D01*
X53547567Y-46385602D01*
X53548019Y-46317294D01*
X53549295Y-46250833D01*
X53553851Y-46124363D01*
X53560292Y-46008021D01*
X53567675Y-45903631D01*
X53581500Y-45738014D01*
X53586056Y-45680439D01*
X53587784Y-45642123D01*
X53484658Y-45634275D01*
X53378333Y-45627906D01*
X53268882Y-45622882D01*
X53156381Y-45619071D01*
X52922522Y-45614553D01*
X52677353Y-45613283D01*
X52076715Y-45619832D01*
X51747140Y-45625562D01*
X51553667Y-45630746D01*
X51535659Y-45630533D01*
X51518387Y-45629861D01*
X51501907Y-45628679D01*
X51486281Y-45626938D01*
X51478806Y-45625843D01*
X51471566Y-45624588D01*
X51464569Y-45623169D01*
X51457822Y-45621579D01*
X51451332Y-45619811D01*
X51445107Y-45617860D01*
X51439154Y-45615720D01*
X51433480Y-45613383D01*
X51428093Y-45610843D01*
X51423001Y-45608096D01*
X51418209Y-45605133D01*
X51413727Y-45601949D01*
X51409561Y-45598538D01*
X51405719Y-45594894D01*
X51402208Y-45591009D01*
X51399035Y-45586879D01*
X51396207Y-45582496D01*
X51393733Y-45577855D01*
X51391619Y-45572949D01*
X51389873Y-45567771D01*
X51388503Y-45562317D01*
X51387514Y-45556579D01*
X51386916Y-45550551D01*
X51386715Y-45544227D01*
X51387664Y-45533053D01*
X51390463Y-45521205D01*
X51395036Y-45508751D01*
X51401308Y-45495759D01*
X51418651Y-45468427D01*
X51441893Y-45439750D01*
X51470436Y-45410266D01*
X51503680Y-45380516D01*
X51541027Y-45351039D01*
X51581878Y-45322374D01*
X51625635Y-45295061D01*
X51671698Y-45269639D01*
X51719468Y-45246648D01*
X51768347Y-45226628D01*
X51817737Y-45210117D01*
X51867038Y-45197656D01*
X51891467Y-45193112D01*
X51915651Y-45189784D01*
X51939512Y-45187737D01*
X51962977Y-45187040D01*
X52185591Y-45224445D01*
X52668758Y-45298772D01*
X53622444Y-45434690D01*
X53625154Y-45420563D01*
X53628523Y-45406640D01*
X53632537Y-45392938D01*
X53637185Y-45379481D01*
X53642453Y-45366287D01*
X53648329Y-45353378D01*
X53654801Y-45340774D01*
X53661856Y-45328495D01*
X53669483Y-45316563D01*
X53677667Y-45304997D01*
X53686398Y-45293818D01*
X53695661Y-45283048D01*
X53705446Y-45272705D01*
X53715740Y-45262812D01*
X53726529Y-45253388D01*
X53737802Y-45244454D01*
X53743623Y-45244454D01*
X53700985Y-45205454D01*
X53657511Y-45167469D01*
X53613219Y-45130510D01*
X53568129Y-45094589D01*
X53522259Y-45059718D01*
X53475627Y-45025909D01*
X53428253Y-44993174D01*
X53380155Y-44961526D01*
X53331353Y-44930976D01*
X53281864Y-44901536D01*
X53231707Y-44873219D01*
X53180902Y-44846036D01*
X53129467Y-44820000D01*
X53077421Y-44795122D01*
X53024782Y-44771414D01*
X52971569Y-44748889D01*
X52960139Y-44744385D01*
X52954782Y-44741992D01*
X52949665Y-44739505D01*
X52944790Y-44736926D01*
X52940157Y-44734255D01*
X52935767Y-44731491D01*
X52931621Y-44728636D01*
X52927721Y-44725690D01*
X52924067Y-44722654D01*
X52920661Y-44719527D01*
X52917503Y-44716310D01*
X52914594Y-44713004D01*
X52911936Y-44709609D01*
X52909529Y-44706126D01*
X52907375Y-44702554D01*
X52905474Y-44698895D01*
X52903827Y-44695149D01*
X52902436Y-44691316D01*
X52901302Y-44687397D01*
X52900425Y-44683392D01*
X52899807Y-44679302D01*
X52899448Y-44675126D01*
X52899350Y-44670866D01*
X52899514Y-44666522D01*
X52899940Y-44662095D01*
X52900630Y-44657584D01*
X52901584Y-44652990D01*
X52902804Y-44648314D01*
X52904291Y-44643556D01*
X52906046Y-44638716D01*
X52908069Y-44633796D01*
X52909521Y-44625290D01*
X52912770Y-44616041D01*
X52917719Y-44606113D01*
X52924271Y-44595574D01*
X52941793Y-44572929D01*
X52964558Y-44548637D01*
X52991788Y-44523230D01*
X53022704Y-44497241D01*
X53056529Y-44471202D01*
X53092484Y-44445644D01*
X53129791Y-44421100D01*
X53167671Y-44398102D01*
X53205347Y-44377182D01*
X53242039Y-44358873D01*
X53276971Y-44343706D01*
X53309363Y-44332213D01*
X53338438Y-44324928D01*
X53351488Y-44323029D01*
X53363417Y-44322381D01*
X53390095Y-44325682D01*
D11*
X57333081Y-44715465D02*
G75*
G03*
X57333081Y-44715465I-3549758J0D01*
G01*
D10*
X55225025Y-43076194D02*
X55225025Y-43065081D01*
X55225025Y-43065081D02*
X55219204Y-43065081D01*
X55219204Y-43065081D02*
X55213383Y-43059260D01*
X55213383Y-43059260D02*
X55207563Y-43053704D01*
X55207563Y-43053704D02*
X55190365Y-43047354D01*
X55190365Y-43047354D02*
X55173167Y-43041533D01*
X55173167Y-43041533D02*
X55155704Y-43035712D01*
X55155704Y-43035712D02*
X55126865Y-43029892D01*
X55126865Y-43029892D02*
X55103846Y-43024335D01*
X55103846Y-43024335D02*
X55069450Y-43018515D01*
X55069450Y-43018515D02*
X55040611Y-43012165D01*
X55040611Y-43012165D02*
X55000129Y-43012165D01*
X55000129Y-43012165D02*
X54965733Y-43006344D01*
X54965733Y-43006344D02*
X54925781Y-43001052D01*
X54925781Y-43001052D02*
X54879744Y-42995496D01*
X54879744Y-42995496D02*
X54839263Y-42995496D01*
X54839263Y-42995496D02*
X54793490Y-42989675D01*
X54793490Y-42989675D02*
X54740573Y-42983854D01*
X54740573Y-42983854D02*
X54694536Y-42983854D01*
X54694536Y-42983854D02*
X54641619Y-42978033D01*
X54641619Y-42978033D02*
X54588702Y-42972212D01*
X54588702Y-42972212D02*
X54484986Y-42966656D01*
X54484986Y-42966656D02*
X54381269Y-42960835D01*
X54381269Y-42960835D02*
X54271731Y-42949194D01*
X54271731Y-42949194D02*
X54162194Y-42937817D01*
X54162194Y-42937817D02*
X54060859Y-42932790D01*
X54060859Y-42932790D02*
X54007942Y-42926969D01*
X54007942Y-42926969D02*
X53961905Y-42921148D01*
X53961905Y-42921148D02*
X53959461Y-42879905D01*
X53959461Y-42879905D02*
X53958346Y-42838679D01*
X53958346Y-42838679D02*
X53958555Y-42797503D01*
X53958555Y-42797503D02*
X53960082Y-42756407D01*
X53960082Y-42756407D02*
X53962921Y-42715423D01*
X53962921Y-42715423D02*
X53967066Y-42674581D01*
X53967066Y-42674581D02*
X53972512Y-42633913D01*
X53972512Y-42633913D02*
X53979253Y-42593450D01*
X53979253Y-42593450D02*
X53987283Y-42553222D01*
X53987283Y-42553222D02*
X53996597Y-42513262D01*
X53996597Y-42513262D02*
X54007189Y-42473600D01*
X54007189Y-42473600D02*
X54019052Y-42434268D01*
X54019052Y-42434268D02*
X54032182Y-42395296D01*
X54032182Y-42395296D02*
X54046573Y-42356716D01*
X54046573Y-42356716D02*
X54062219Y-42318559D01*
X54062219Y-42318559D02*
X54079115Y-42280856D01*
X54079115Y-42280856D02*
X54081981Y-42270375D01*
X54081981Y-42270375D02*
X54084038Y-42260545D01*
X54084038Y-42260545D02*
X54084767Y-42255866D01*
X54084767Y-42255866D02*
X54085296Y-42251340D01*
X54085296Y-42251340D02*
X54085627Y-42246964D01*
X54085627Y-42246964D02*
X54085762Y-42242736D01*
X54085762Y-42242736D02*
X54085702Y-42238651D01*
X54085702Y-42238651D02*
X54085448Y-42234706D01*
X54085448Y-42234706D02*
X54085000Y-42230899D01*
X54085000Y-42230899D02*
X54084361Y-42227227D01*
X54084361Y-42227227D02*
X54083531Y-42223686D01*
X54083531Y-42223686D02*
X54082511Y-42220272D01*
X54082511Y-42220272D02*
X54081304Y-42216984D01*
X54081304Y-42216984D02*
X54079908Y-42213817D01*
X54079908Y-42213817D02*
X54078327Y-42210769D01*
X54078327Y-42210769D02*
X54076561Y-42207837D01*
X54076561Y-42207837D02*
X54074612Y-42205017D01*
X54074612Y-42205017D02*
X54072479Y-42202306D01*
X54072479Y-42202306D02*
X54070166Y-42199700D01*
X54070166Y-42199700D02*
X54067672Y-42197198D01*
X54067672Y-42197198D02*
X54064999Y-42194796D01*
X54064999Y-42194796D02*
X54062148Y-42192490D01*
X54062148Y-42192490D02*
X54059121Y-42190277D01*
X54059121Y-42190277D02*
X54055918Y-42188155D01*
X54055918Y-42188155D02*
X54048989Y-42184168D01*
X54048989Y-42184168D02*
X54041373Y-42180505D01*
X54041373Y-42180505D02*
X54033077Y-42177140D01*
X54033077Y-42177140D02*
X54029282Y-42175476D01*
X54029282Y-42175476D02*
X54025443Y-42173936D01*
X54025443Y-42173936D02*
X54021563Y-42172517D01*
X54021563Y-42172517D02*
X54017646Y-42171223D01*
X54017646Y-42171223D02*
X54013694Y-42170052D01*
X54013694Y-42170052D02*
X54009711Y-42169005D01*
X54009711Y-42169005D02*
X54005698Y-42168083D01*
X54005698Y-42168083D02*
X54001660Y-42167287D01*
X54001660Y-42167287D02*
X53997599Y-42166617D01*
X53997599Y-42166617D02*
X53993519Y-42166073D01*
X53993519Y-42166073D02*
X53989421Y-42165656D01*
X53989421Y-42165656D02*
X53985310Y-42165367D01*
X53985310Y-42165367D02*
X53981187Y-42165207D01*
X53981187Y-42165207D02*
X53977057Y-42165174D01*
X53977057Y-42165174D02*
X53972921Y-42165271D01*
X53972921Y-42165271D02*
X53968783Y-42165498D01*
X53968783Y-42165498D02*
X53961905Y-42165378D01*
X53961905Y-42165378D02*
X53955045Y-42165524D01*
X53955045Y-42165524D02*
X53948210Y-42165933D01*
X53948210Y-42165933D02*
X53941410Y-42166605D01*
X53941410Y-42166605D02*
X53934650Y-42167536D01*
X53934650Y-42167536D02*
X53927937Y-42168725D01*
X53927937Y-42168725D02*
X53921281Y-42170169D01*
X53921281Y-42170169D02*
X53914686Y-42171867D01*
X53914686Y-42171867D02*
X53908162Y-42173817D01*
X53908162Y-42173817D02*
X53901715Y-42176016D01*
X53901715Y-42176016D02*
X53895353Y-42178463D01*
X53895353Y-42178463D02*
X53889083Y-42181155D01*
X53889083Y-42181155D02*
X53882912Y-42184090D01*
X53882912Y-42184090D02*
X53876847Y-42187267D01*
X53876847Y-42187267D02*
X53870896Y-42190684D01*
X53870896Y-42190684D02*
X53865067Y-42194338D01*
X53865067Y-42194338D02*
X53845905Y-42201555D01*
X53845905Y-42201555D02*
X53826915Y-42209170D01*
X53826915Y-42209170D02*
X53808104Y-42217181D01*
X53808104Y-42217181D02*
X53789477Y-42225584D01*
X53789477Y-42225584D02*
X53771040Y-42234375D01*
X53771040Y-42234375D02*
X53752799Y-42243551D01*
X53752799Y-42243551D02*
X53734761Y-42253109D01*
X53734761Y-42253109D02*
X53716930Y-42263044D01*
X53716930Y-42263044D02*
X53699314Y-42273354D01*
X53699314Y-42273354D02*
X53681917Y-42284036D01*
X53681917Y-42284036D02*
X53664746Y-42295086D01*
X53664746Y-42295086D02*
X53647808Y-42306500D01*
X53647808Y-42306500D02*
X53631107Y-42318275D01*
X53631107Y-42318275D02*
X53614650Y-42330408D01*
X53614650Y-42330408D02*
X53598443Y-42342895D01*
X53598443Y-42342895D02*
X53582491Y-42355733D01*
X53582491Y-42355733D02*
X53574264Y-42364364D01*
X53574264Y-42364364D02*
X53566852Y-42372986D01*
X53566852Y-42372986D02*
X53560263Y-42381591D01*
X53560263Y-42381591D02*
X53554508Y-42390171D01*
X53554508Y-42390171D02*
X53549594Y-42398716D01*
X53549594Y-42398716D02*
X53547456Y-42402973D01*
X53547456Y-42402973D02*
X53545531Y-42407219D01*
X53545531Y-42407219D02*
X53543821Y-42411451D01*
X53543821Y-42411451D02*
X53542328Y-42415670D01*
X53542328Y-42415670D02*
X53541051Y-42419874D01*
X53541051Y-42419874D02*
X53539993Y-42424062D01*
X53539993Y-42424062D02*
X53539154Y-42428233D01*
X53539154Y-42428233D02*
X53538536Y-42432386D01*
X53538536Y-42432386D02*
X53538139Y-42436519D01*
X53538139Y-42436519D02*
X53537965Y-42440633D01*
X53537965Y-42440633D02*
X53538014Y-42444725D01*
X53538014Y-42444725D02*
X53538289Y-42448794D01*
X53538289Y-42448794D02*
X53538790Y-42452840D01*
X53538790Y-42452840D02*
X53539518Y-42456862D01*
X53539518Y-42456862D02*
X53540474Y-42460858D01*
X53540474Y-42460858D02*
X53541659Y-42464828D01*
X53541659Y-42464828D02*
X53543075Y-42468769D01*
X53543075Y-42468769D02*
X53544723Y-42472682D01*
X53544723Y-42472682D02*
X53546603Y-42476565D01*
X53546603Y-42476565D02*
X53548718Y-42480418D01*
X53548718Y-42480418D02*
X53551067Y-42484238D01*
X53551067Y-42484238D02*
X53553652Y-42488025D01*
X53553652Y-42488025D02*
X53574417Y-42533424D01*
X53574417Y-42533424D02*
X53593401Y-42579536D01*
X53593401Y-42579536D02*
X53610588Y-42626309D01*
X53610588Y-42626309D02*
X53625962Y-42673689D01*
X53625962Y-42673689D02*
X53639507Y-42721624D01*
X53639507Y-42721624D02*
X53651208Y-42770061D01*
X53651208Y-42770061D02*
X53661048Y-42818948D01*
X53661048Y-42818948D02*
X53669011Y-42868231D01*
X53669011Y-42868231D02*
X53666955Y-42867374D01*
X53666955Y-42867374D02*
X53664877Y-42866581D01*
X53664877Y-42866581D02*
X53662779Y-42865854D01*
X53662779Y-42865854D02*
X53660662Y-42865191D01*
X53660662Y-42865191D02*
X53658528Y-42864594D01*
X53658528Y-42864594D02*
X53656378Y-42864062D01*
X53656378Y-42864062D02*
X53654214Y-42863596D01*
X53654214Y-42863596D02*
X53652037Y-42863197D01*
X53652037Y-42863197D02*
X53649849Y-42862863D01*
X53649849Y-42862863D02*
X53647652Y-42862597D01*
X53647652Y-42862597D02*
X53645446Y-42862397D01*
X53645446Y-42862397D02*
X53643234Y-42862264D01*
X53643234Y-42862264D02*
X53641017Y-42862199D01*
X53641017Y-42862199D02*
X53638796Y-42862202D01*
X53638796Y-42862202D02*
X53636574Y-42862272D01*
X53636574Y-42862272D02*
X53634350Y-42862410D01*
X53634350Y-42862410D02*
X53121588Y-42758694D01*
X53121588Y-42758694D02*
X53082591Y-42748826D01*
X53082591Y-42748826D02*
X53043344Y-42740126D01*
X53043344Y-42740126D02*
X53003873Y-42732597D01*
X53003873Y-42732597D02*
X52964205Y-42726243D01*
X52964205Y-42726243D02*
X52924367Y-42721068D01*
X52924367Y-42721068D02*
X52884383Y-42717076D01*
X52884383Y-42717076D02*
X52844282Y-42714271D01*
X52844282Y-42714271D02*
X52804088Y-42712656D01*
X52804088Y-42712656D02*
X52759598Y-42714038D01*
X52759598Y-42714038D02*
X52717017Y-42718032D01*
X52717017Y-42718032D02*
X52676498Y-42724408D01*
X52676498Y-42724408D02*
X52638194Y-42732938D01*
X52638194Y-42732938D02*
X52602259Y-42743394D01*
X52602259Y-42743394D02*
X52568846Y-42755547D01*
X52568846Y-42755547D02*
X52538109Y-42769167D01*
X52538109Y-42769167D02*
X52510202Y-42784028D01*
X52510202Y-42784028D02*
X52485277Y-42799899D01*
X52485277Y-42799899D02*
X52463488Y-42816552D01*
X52463488Y-42816552D02*
X52444990Y-42833758D01*
X52444990Y-42833758D02*
X52429934Y-42851290D01*
X52429934Y-42851290D02*
X52418475Y-42868917D01*
X52418475Y-42868917D02*
X52414142Y-42877696D01*
X52414142Y-42877696D02*
X52410766Y-42886412D01*
X52410766Y-42886412D02*
X52408366Y-42895038D01*
X52408366Y-42895038D02*
X52406961Y-42903546D01*
X52406961Y-42903546D02*
X52406570Y-42911906D01*
X52406570Y-42911906D02*
X52407213Y-42920090D01*
X52407213Y-42920090D02*
X52413714Y-42929648D01*
X52413714Y-42929648D02*
X52420233Y-42938478D01*
X52420233Y-42938478D02*
X52426784Y-42946575D01*
X52426784Y-42946575D02*
X52433386Y-42953936D01*
X52433386Y-42953936D02*
X52440054Y-42960557D01*
X52440054Y-42960557D02*
X52443418Y-42963589D01*
X52443418Y-42963589D02*
X52446806Y-42966436D01*
X52446806Y-42966436D02*
X52450218Y-42969095D01*
X52450218Y-42969095D02*
X52453657Y-42971568D01*
X52453657Y-42971568D02*
X52457126Y-42973853D01*
X52457126Y-42973853D02*
X52460626Y-42975950D01*
X52460626Y-42975950D02*
X52464159Y-42977859D01*
X52464159Y-42977859D02*
X52467727Y-42979578D01*
X52467727Y-42979578D02*
X52471333Y-42981109D01*
X52471333Y-42981109D02*
X52474979Y-42982450D01*
X52474979Y-42982450D02*
X52478666Y-42983601D01*
X52478666Y-42983601D02*
X52482397Y-42984561D01*
X52482397Y-42984561D02*
X52486174Y-42985331D01*
X52486174Y-42985331D02*
X52489998Y-42985909D01*
X52489998Y-42985909D02*
X52493873Y-42986295D01*
X52493873Y-42986295D02*
X52497800Y-42986489D01*
X52497800Y-42986489D02*
X52501781Y-42986490D01*
X52501781Y-42986490D02*
X52505818Y-42986298D01*
X52505818Y-42986298D02*
X52509914Y-42985912D01*
X52509914Y-42985912D02*
X52514070Y-42985333D01*
X52514070Y-42985333D02*
X52518288Y-42984559D01*
X52518288Y-42984559D02*
X52522571Y-42983590D01*
X52522571Y-42983590D02*
X52898259Y-43012884D01*
X52898259Y-43012884D02*
X53219847Y-43041136D01*
X53219847Y-43041136D02*
X53485229Y-43069389D01*
X53485229Y-43069389D02*
X53596183Y-43083841D01*
X53596183Y-43083841D02*
X53692294Y-43098683D01*
X53692294Y-43098683D02*
X53692806Y-43099791D01*
X53692806Y-43099791D02*
X53693253Y-43100929D01*
X53693253Y-43100929D02*
X53693638Y-43102095D01*
X53693638Y-43102095D02*
X53693965Y-43103288D01*
X53693965Y-43103288D02*
X53694455Y-43105745D01*
X53694455Y-43105745D02*
X53694750Y-43108283D01*
X53694750Y-43108283D02*
X53694873Y-43110886D01*
X53694873Y-43110886D02*
X53694852Y-43113538D01*
X53694852Y-43113538D02*
X53694711Y-43116223D01*
X53694711Y-43116223D02*
X53694477Y-43118924D01*
X53694477Y-43118924D02*
X53693829Y-43124310D01*
X53693829Y-43124310D02*
X53693113Y-43129565D01*
X53693113Y-43129565D02*
X53692533Y-43134560D01*
X53692533Y-43134560D02*
X53692358Y-43136919D01*
X53692358Y-43136919D02*
X53692294Y-43139165D01*
X53692294Y-43139165D02*
X53555244Y-43249233D01*
X53555244Y-43249233D02*
X53415647Y-43355927D01*
X53415647Y-43355927D02*
X53273567Y-43459205D01*
X53273567Y-43459205D02*
X53129067Y-43559024D01*
X53129067Y-43559024D02*
X52982210Y-43655341D01*
X52982210Y-43655341D02*
X52833059Y-43748115D01*
X52833059Y-43748115D02*
X52681677Y-43837302D01*
X52681677Y-43837302D02*
X52528127Y-43922860D01*
X52528127Y-43922860D02*
X51375602Y-44319736D01*
X51375602Y-44319736D02*
X51367174Y-44322964D01*
X51367174Y-44322964D02*
X51359167Y-44326207D01*
X51359167Y-44326207D02*
X51351596Y-44329472D01*
X51351596Y-44329472D02*
X51344480Y-44332766D01*
X51344480Y-44332766D02*
X51337836Y-44336098D01*
X51337836Y-44336098D02*
X51331679Y-44339474D01*
X51331679Y-44339474D02*
X51326028Y-44342903D01*
X51326028Y-44342903D02*
X51320899Y-44346392D01*
X51320899Y-44346392D02*
X51316310Y-44349950D01*
X51316310Y-44349950D02*
X51312278Y-44353584D01*
X51312278Y-44353584D02*
X51308819Y-44357301D01*
X51308819Y-44357301D02*
X51305950Y-44361110D01*
X51305950Y-44361110D02*
X51303690Y-44365018D01*
X51303690Y-44365018D02*
X51302792Y-44367011D01*
X51302792Y-44367011D02*
X51302054Y-44369033D01*
X51302054Y-44369033D02*
X51301475Y-44371083D01*
X51301475Y-44371083D02*
X51301060Y-44373162D01*
X51301060Y-44373162D02*
X51300809Y-44375273D01*
X51300809Y-44375273D02*
X51300725Y-44377415D01*
X51300725Y-44377415D02*
X51359150Y-44397414D01*
X51359150Y-44397414D02*
X51417973Y-44416012D01*
X51417973Y-44416012D02*
X51477169Y-44433206D01*
X51477169Y-44433206D02*
X51536711Y-44448993D01*
X51536711Y-44448993D02*
X51596576Y-44463367D01*
X51596576Y-44463367D02*
X51656737Y-44476325D01*
X51656737Y-44476325D02*
X51717169Y-44487863D01*
X51717169Y-44487863D02*
X51777847Y-44497978D01*
X51777847Y-44497978D02*
X51838746Y-44506664D01*
X51838746Y-44506664D02*
X51899841Y-44513920D01*
X51899841Y-44513920D02*
X51961105Y-44519739D01*
X51961105Y-44519739D02*
X52022515Y-44524120D01*
X52022515Y-44524120D02*
X52084045Y-44527057D01*
X52084045Y-44527057D02*
X52145669Y-44528547D01*
X52145669Y-44528547D02*
X52207362Y-44528585D01*
X52207362Y-44528585D02*
X52269100Y-44527169D01*
X52269100Y-44527169D02*
X52289324Y-44522334D01*
X52289324Y-44522334D02*
X52311106Y-44515371D01*
X52311106Y-44515371D02*
X52359359Y-44495060D01*
X52359359Y-44495060D02*
X52413892Y-44466235D01*
X52413892Y-44466235D02*
X52474739Y-44428897D01*
X52474739Y-44428897D02*
X52541933Y-44383046D01*
X52541933Y-44383046D02*
X52615507Y-44328683D01*
X52615507Y-44328683D02*
X52695494Y-44265808D01*
X52695494Y-44265808D02*
X52781928Y-44194422D01*
X52781928Y-44194422D02*
X52874843Y-44114525D01*
X52874843Y-44114525D02*
X52974271Y-44026117D01*
X52974271Y-44026117D02*
X53080246Y-43929198D01*
X53080246Y-43929198D02*
X53192801Y-43823770D01*
X53192801Y-43823770D02*
X53311970Y-43709832D01*
X53311970Y-43709832D02*
X53437786Y-43587385D01*
X53437786Y-43587385D02*
X53709491Y-43316965D01*
X53709491Y-43316965D02*
X53711413Y-43352102D01*
X53711413Y-43352102D02*
X53712857Y-43392627D01*
X53712857Y-43392627D02*
X53714585Y-43489870D01*
X53714585Y-43489870D02*
X53715221Y-43608742D01*
X53715221Y-43608742D02*
X53715312Y-43749294D01*
X53715312Y-43749294D02*
X53712536Y-43782648D01*
X53712536Y-43782648D02*
X53710721Y-43816019D01*
X53710721Y-43816019D02*
X53709862Y-43849388D01*
X53709862Y-43849388D02*
X53709959Y-43882733D01*
X53709959Y-43882733D02*
X53711008Y-43916035D01*
X53711008Y-43916035D02*
X53713007Y-43949274D01*
X53713007Y-43949274D02*
X53715953Y-43982429D01*
X53715953Y-43982429D02*
X53719843Y-44015479D01*
X53719843Y-44015479D02*
X53724674Y-44048405D01*
X53724674Y-44048405D02*
X53730445Y-44081186D01*
X53730445Y-44081186D02*
X53737151Y-44113803D01*
X53737151Y-44113803D02*
X53744791Y-44146234D01*
X53744791Y-44146234D02*
X53753362Y-44178459D01*
X53753362Y-44178459D02*
X53762861Y-44210458D01*
X53762861Y-44210458D02*
X53773286Y-44242212D01*
X53773286Y-44242212D02*
X53784633Y-44273698D01*
X53784633Y-44273698D02*
X53789571Y-44276267D01*
X53789571Y-44276267D02*
X53794463Y-44278565D01*
X53794463Y-44278565D02*
X53799309Y-44280594D01*
X53799309Y-44280594D02*
X53804111Y-44282355D01*
X53804111Y-44282355D02*
X53808869Y-44283850D01*
X53808869Y-44283850D02*
X53813583Y-44285079D01*
X53813583Y-44285079D02*
X53818253Y-44286044D01*
X53818253Y-44286044D02*
X53822882Y-44286745D01*
X53822882Y-44286745D02*
X53827469Y-44287185D01*
X53827469Y-44287185D02*
X53832014Y-44287364D01*
X53832014Y-44287364D02*
X53836519Y-44287283D01*
X53836519Y-44287283D02*
X53840983Y-44286944D01*
X53840983Y-44286944D02*
X53845408Y-44286347D01*
X53845408Y-44286347D02*
X53849794Y-44285494D01*
X53849794Y-44285494D02*
X53854142Y-44284386D01*
X53854142Y-44284386D02*
X53858452Y-44283025D01*
X53858452Y-44283025D02*
X53862725Y-44281410D01*
X53862725Y-44281410D02*
X53866961Y-44279544D01*
X53866961Y-44279544D02*
X53871161Y-44277428D01*
X53871161Y-44277428D02*
X53875325Y-44275062D01*
X53875325Y-44275062D02*
X53879455Y-44272449D01*
X53879455Y-44272449D02*
X53883550Y-44269588D01*
X53883550Y-44269588D02*
X53887612Y-44266482D01*
X53887612Y-44266482D02*
X53891641Y-44263131D01*
X53891641Y-44263131D02*
X53895637Y-44259537D01*
X53895637Y-44259537D02*
X53899601Y-44255701D01*
X53899601Y-44255701D02*
X53907435Y-44247306D01*
X53907435Y-44247306D02*
X53915149Y-44237956D01*
X53915149Y-44237956D02*
X53922746Y-44227661D01*
X53922746Y-44227661D02*
X53937512Y-44193856D01*
X53937512Y-44193856D02*
X53950918Y-44159535D01*
X53950918Y-44159535D02*
X53962951Y-44124739D01*
X53962951Y-44124739D02*
X53973600Y-44089510D01*
X53973600Y-44089510D02*
X53982853Y-44053888D01*
X53982853Y-44053888D02*
X53990698Y-44017916D01*
X53990698Y-44017916D02*
X53997125Y-43981635D01*
X53997125Y-43981635D02*
X54002121Y-43945086D01*
X54002121Y-43945086D02*
X53992367Y-43877807D01*
X53992367Y-43877807D02*
X53983960Y-43810368D01*
X53983960Y-43810368D02*
X53976903Y-43742788D01*
X53976903Y-43742788D02*
X53971196Y-43675088D01*
X53971196Y-43675088D02*
X53966841Y-43607287D01*
X53966841Y-43607287D02*
X53963840Y-43539406D01*
X53963840Y-43539406D02*
X53962194Y-43471465D01*
X53962194Y-43471465D02*
X53961904Y-43403485D01*
X53961904Y-43403485D02*
X53973240Y-43417253D01*
X53973240Y-43417253D02*
X53989983Y-43436888D01*
X53989983Y-43436888D02*
X54012134Y-43462327D01*
X54012134Y-43462327D02*
X54039692Y-43493508D01*
X54039692Y-43493508D02*
X54072657Y-43530370D01*
X54072657Y-43530370D02*
X54111030Y-43572850D01*
X54111030Y-43572850D02*
X54154810Y-43620886D01*
X54154810Y-43620886D02*
X54203998Y-43674417D01*
X54203998Y-43674417D02*
X54221012Y-43689467D01*
X54221012Y-43689467D02*
X54237616Y-43704526D01*
X54237616Y-43704526D02*
X54253948Y-43719703D01*
X54253948Y-43719703D02*
X54270144Y-43735106D01*
X54270144Y-43735106D02*
X54286339Y-43750844D01*
X54286339Y-43750844D02*
X54302671Y-43767025D01*
X54302671Y-43767025D02*
X54336289Y-43801152D01*
X54336289Y-43801152D02*
X54463436Y-43923157D01*
X54463436Y-43923157D02*
X54590900Y-44036000D01*
X54590900Y-44036000D02*
X54717681Y-44139735D01*
X54717681Y-44139735D02*
X54842776Y-44234416D01*
X54842776Y-44234416D02*
X54965183Y-44320095D01*
X54965183Y-44320095D02*
X55083900Y-44396827D01*
X55083900Y-44396827D02*
X55197923Y-44464665D01*
X55197923Y-44464665D02*
X55306252Y-44523663D01*
X55306252Y-44523663D02*
X55407884Y-44573873D01*
X55407884Y-44573873D02*
X55501815Y-44615350D01*
X55501815Y-44615350D02*
X55587045Y-44648147D01*
X55587045Y-44648147D02*
X55662571Y-44672317D01*
X55662571Y-44672317D02*
X55727391Y-44687914D01*
X55727391Y-44687914D02*
X55780502Y-44694992D01*
X55780502Y-44694992D02*
X55820902Y-44693603D01*
X55820902Y-44693603D02*
X55836023Y-44689751D01*
X55836023Y-44689751D02*
X55847590Y-44683802D01*
X55847590Y-44683802D02*
X55850168Y-44682717D01*
X55850168Y-44682717D02*
X55852547Y-44681595D01*
X55852547Y-44681595D02*
X55854726Y-44680433D01*
X55854726Y-44680433D02*
X55856704Y-44679229D01*
X55856704Y-44679229D02*
X55858481Y-44677982D01*
X55858481Y-44677982D02*
X55860058Y-44676689D01*
X55860058Y-44676689D02*
X55861434Y-44675349D01*
X55861434Y-44675349D02*
X55862609Y-44673959D01*
X55862609Y-44673959D02*
X55863583Y-44672517D01*
X55863583Y-44672517D02*
X55864355Y-44671022D01*
X55864355Y-44671022D02*
X55864926Y-44669471D01*
X55864926Y-44669471D02*
X55865296Y-44667863D01*
X55865296Y-44667863D02*
X55865463Y-44666196D01*
X55865463Y-44666196D02*
X55865429Y-44664467D01*
X55865429Y-44664467D02*
X55865193Y-44662674D01*
X55865193Y-44662674D02*
X55864754Y-44660816D01*
X55864754Y-44660816D02*
X55864114Y-44658891D01*
X55864114Y-44658891D02*
X55863271Y-44656896D01*
X55863271Y-44656896D02*
X55862225Y-44654830D01*
X55862225Y-44654830D02*
X55860976Y-44652690D01*
X55860976Y-44652690D02*
X55859525Y-44650475D01*
X55859525Y-44650475D02*
X55857871Y-44648183D01*
X55857871Y-44648183D02*
X55856013Y-44645811D01*
X55856013Y-44645811D02*
X55853952Y-44643358D01*
X55853952Y-44643358D02*
X55851688Y-44640821D01*
X55851688Y-44640821D02*
X55849220Y-44638200D01*
X55849220Y-44638200D02*
X55846548Y-44635491D01*
X55846548Y-44635491D02*
X55843672Y-44632692D01*
X55843672Y-44632692D02*
X55840592Y-44629803D01*
X55840592Y-44629803D02*
X55837308Y-44626820D01*
X55837308Y-44626820D02*
X55833820Y-44623742D01*
X55833820Y-44623742D02*
X55830127Y-44620566D01*
X55830127Y-44620566D02*
X55707746Y-44553905D01*
X55707746Y-44553905D02*
X55587541Y-44483808D01*
X55587541Y-44483808D02*
X55469580Y-44410333D01*
X55469580Y-44410333D02*
X55353927Y-44333538D01*
X55353927Y-44333538D02*
X55240650Y-44253481D01*
X55240650Y-44253481D02*
X55129816Y-44170219D01*
X55129816Y-44170219D02*
X55021490Y-44083810D01*
X55021490Y-44083810D02*
X54915738Y-43994313D01*
X54915738Y-43994313D02*
X54812629Y-43901785D01*
X54812629Y-43901785D02*
X54712227Y-43806285D01*
X54712227Y-43806285D02*
X54614599Y-43707869D01*
X54614599Y-43707869D02*
X54519811Y-43606596D01*
X54519811Y-43606596D02*
X54427931Y-43502524D01*
X54427931Y-43502524D02*
X54339024Y-43395710D01*
X54339024Y-43395710D02*
X54253157Y-43286213D01*
X54253157Y-43286213D02*
X54170397Y-43174090D01*
X54170397Y-43174090D02*
X54465803Y-43212256D01*
X54465803Y-43212256D02*
X54535252Y-43221627D01*
X54535252Y-43221627D02*
X54603188Y-43231612D01*
X54603188Y-43231612D02*
X54669735Y-43242552D01*
X54669735Y-43242552D02*
X54735017Y-43254788D01*
X54735017Y-43254788D02*
X54749347Y-43257020D01*
X54749347Y-43257020D02*
X54763708Y-43259021D01*
X54763708Y-43259021D02*
X54778098Y-43260791D01*
X54778098Y-43260791D02*
X54792513Y-43262330D01*
X54792513Y-43262330D02*
X54806951Y-43263636D01*
X54806951Y-43263636D02*
X54821409Y-43264711D01*
X54821409Y-43264711D02*
X54835885Y-43265554D01*
X54835885Y-43265554D02*
X54850375Y-43266165D01*
X54850375Y-43266165D02*
X54878377Y-43266762D01*
X54878377Y-43266762D02*
X54906134Y-43265506D01*
X54906134Y-43265506D02*
X54933568Y-43262438D01*
X54933568Y-43262438D02*
X54960599Y-43257598D01*
X54960599Y-43257598D02*
X54987148Y-43251027D01*
X54987148Y-43251027D02*
X55013137Y-43242763D01*
X55013137Y-43242763D02*
X55038485Y-43232848D01*
X55038485Y-43232848D02*
X55063114Y-43221322D01*
X55063114Y-43221322D02*
X55086945Y-43208225D01*
X55086945Y-43208225D02*
X55109898Y-43193596D01*
X55109898Y-43193596D02*
X55131894Y-43177477D01*
X55131894Y-43177477D02*
X55152855Y-43159908D01*
X55152855Y-43159908D02*
X55172702Y-43140928D01*
X55172702Y-43140928D02*
X55191354Y-43120578D01*
X55191354Y-43120578D02*
X55208733Y-43098899D01*
X55208733Y-43098899D02*
X55224761Y-43075929D01*
X55224761Y-43075929D02*
X55225025Y-43076194D01*
X55225025Y-43076194D02*
X55225025Y-43076194D01*
G36*
X53981187Y-42165207D02*
G01*
X53985310Y-42165367D01*
X53989421Y-42165656D01*
X53993519Y-42166073D01*
X53997599Y-42166617D01*
X54001660Y-42167287D01*
X54005698Y-42168083D01*
X54009711Y-42169005D01*
X54013694Y-42170052D01*
X54017646Y-42171223D01*
X54021563Y-42172517D01*
X54025443Y-42173936D01*
X54029282Y-42175476D01*
X54033077Y-42177140D01*
X54041373Y-42180505D01*
X54048989Y-42184168D01*
X54055918Y-42188155D01*
X54059121Y-42190277D01*
X54062148Y-42192490D01*
X54064999Y-42194796D01*
X54067672Y-42197198D01*
X54070166Y-42199700D01*
X54072479Y-42202306D01*
X54074612Y-42205017D01*
X54076561Y-42207837D01*
X54078327Y-42210769D01*
X54079908Y-42213817D01*
X54081304Y-42216984D01*
X54082511Y-42220272D01*
X54083531Y-42223686D01*
X54084361Y-42227227D01*
X54085000Y-42230899D01*
X54085448Y-42234706D01*
X54085702Y-42238651D01*
X54085762Y-42242736D01*
X54085627Y-42246964D01*
X54085296Y-42251340D01*
X54084767Y-42255866D01*
X54084038Y-42260545D01*
X54081981Y-42270375D01*
X54079115Y-42280856D01*
X54062219Y-42318559D01*
X54046573Y-42356716D01*
X54032182Y-42395296D01*
X54019052Y-42434268D01*
X54007189Y-42473600D01*
X53996597Y-42513262D01*
X53987283Y-42553222D01*
X53979253Y-42593450D01*
X53972512Y-42633913D01*
X53967066Y-42674581D01*
X53962921Y-42715423D01*
X53960082Y-42756407D01*
X53958555Y-42797503D01*
X53958346Y-42838679D01*
X53959461Y-42879905D01*
X53961905Y-42921148D01*
X54007942Y-42926969D01*
X54060859Y-42932790D01*
X54162194Y-42937817D01*
X54271731Y-42949194D01*
X54381269Y-42960835D01*
X54484986Y-42966656D01*
X54588702Y-42972212D01*
X54694536Y-42983854D01*
X54740573Y-42983854D01*
X54793490Y-42989675D01*
X54839263Y-42995496D01*
X54879744Y-42995496D01*
X54925781Y-43001052D01*
X54965733Y-43006344D01*
X55000129Y-43012165D01*
X55040611Y-43012165D01*
X55069450Y-43018515D01*
X55103846Y-43024335D01*
X55126865Y-43029892D01*
X55155704Y-43035712D01*
X55173167Y-43041533D01*
X55190365Y-43047354D01*
X55207563Y-43053704D01*
X55213383Y-43059260D01*
X55219204Y-43065081D01*
X55225025Y-43065081D01*
X55225025Y-43076194D01*
X55224761Y-43075929D01*
X55208733Y-43098899D01*
X55191354Y-43120578D01*
X55172702Y-43140928D01*
X55152855Y-43159908D01*
X55131894Y-43177477D01*
X55109898Y-43193596D01*
X55086945Y-43208225D01*
X55063114Y-43221322D01*
X55038485Y-43232848D01*
X55013137Y-43242763D01*
X54987148Y-43251027D01*
X54960599Y-43257598D01*
X54933568Y-43262438D01*
X54906134Y-43265506D01*
X54878377Y-43266762D01*
X54850375Y-43266165D01*
X54835885Y-43265554D01*
X54821409Y-43264711D01*
X54806951Y-43263636D01*
X54792513Y-43262330D01*
X54778098Y-43260791D01*
X54763708Y-43259021D01*
X54749347Y-43257020D01*
X54735017Y-43254788D01*
X54669735Y-43242552D01*
X54603188Y-43231612D01*
X54535252Y-43221627D01*
X54465803Y-43212256D01*
X54170397Y-43174090D01*
X54253157Y-43286213D01*
X54339024Y-43395710D01*
X54427931Y-43502524D01*
X54519811Y-43606596D01*
X54614599Y-43707869D01*
X54712227Y-43806285D01*
X54812629Y-43901785D01*
X54915738Y-43994313D01*
X55021490Y-44083810D01*
X55129816Y-44170219D01*
X55240650Y-44253481D01*
X55353927Y-44333538D01*
X55469580Y-44410333D01*
X55587541Y-44483808D01*
X55707746Y-44553905D01*
X55830127Y-44620566D01*
X55833820Y-44623742D01*
X55837308Y-44626820D01*
X55840592Y-44629803D01*
X55843672Y-44632692D01*
X55846548Y-44635491D01*
X55849220Y-44638200D01*
X55851688Y-44640821D01*
X55853952Y-44643358D01*
X55856013Y-44645811D01*
X55857871Y-44648183D01*
X55859525Y-44650475D01*
X55860976Y-44652690D01*
X55862225Y-44654830D01*
X55863271Y-44656896D01*
X55864114Y-44658891D01*
X55864754Y-44660816D01*
X55865193Y-44662674D01*
X55865429Y-44664467D01*
X55865463Y-44666196D01*
X55865296Y-44667863D01*
X55864926Y-44669471D01*
X55864355Y-44671022D01*
X55863583Y-44672517D01*
X55862609Y-44673959D01*
X55861434Y-44675349D01*
X55860058Y-44676689D01*
X55858481Y-44677982D01*
X55856704Y-44679229D01*
X55854726Y-44680433D01*
X55852547Y-44681595D01*
X55850168Y-44682717D01*
X55847590Y-44683802D01*
X55836023Y-44689751D01*
X55820902Y-44693603D01*
X55780502Y-44694992D01*
X55727391Y-44687914D01*
X55662571Y-44672317D01*
X55587045Y-44648147D01*
X55501815Y-44615350D01*
X55407884Y-44573873D01*
X55306252Y-44523663D01*
X55197923Y-44464665D01*
X55083900Y-44396827D01*
X54965183Y-44320095D01*
X54842776Y-44234416D01*
X54717681Y-44139735D01*
X54590900Y-44036000D01*
X54463436Y-43923157D01*
X54336289Y-43801152D01*
X54302671Y-43767025D01*
X54286339Y-43750844D01*
X54270144Y-43735106D01*
X54253948Y-43719703D01*
X54237616Y-43704526D01*
X54221012Y-43689467D01*
X54203998Y-43674417D01*
X54154810Y-43620886D01*
X54111030Y-43572850D01*
X54072657Y-43530370D01*
X54039692Y-43493508D01*
X54012134Y-43462327D01*
X53989983Y-43436888D01*
X53973240Y-43417253D01*
X53961904Y-43403485D01*
X53962194Y-43471465D01*
X53963840Y-43539406D01*
X53966841Y-43607287D01*
X53971196Y-43675088D01*
X53976903Y-43742788D01*
X53983960Y-43810368D01*
X53992367Y-43877807D01*
X54002121Y-43945086D01*
X53997125Y-43981635D01*
X53990698Y-44017916D01*
X53982853Y-44053888D01*
X53973600Y-44089510D01*
X53962951Y-44124739D01*
X53950918Y-44159535D01*
X53937512Y-44193856D01*
X53922746Y-44227661D01*
X53915149Y-44237956D01*
X53907435Y-44247306D01*
X53899601Y-44255701D01*
X53895637Y-44259537D01*
X53891641Y-44263131D01*
X53887612Y-44266482D01*
X53883550Y-44269588D01*
X53879455Y-44272449D01*
X53875325Y-44275062D01*
X53871161Y-44277428D01*
X53866961Y-44279544D01*
X53862725Y-44281410D01*
X53858452Y-44283025D01*
X53854142Y-44284386D01*
X53849794Y-44285494D01*
X53845408Y-44286347D01*
X53840983Y-44286944D01*
X53836519Y-44287283D01*
X53832014Y-44287364D01*
X53827469Y-44287185D01*
X53822882Y-44286745D01*
X53818253Y-44286044D01*
X53813583Y-44285079D01*
X53808869Y-44283850D01*
X53804111Y-44282355D01*
X53799309Y-44280594D01*
X53794463Y-44278565D01*
X53789571Y-44276267D01*
X53784633Y-44273698D01*
X53773286Y-44242212D01*
X53762861Y-44210458D01*
X53753362Y-44178459D01*
X53744791Y-44146234D01*
X53737151Y-44113803D01*
X53730445Y-44081186D01*
X53724674Y-44048405D01*
X53719843Y-44015479D01*
X53715953Y-43982429D01*
X53713007Y-43949274D01*
X53711008Y-43916035D01*
X53709959Y-43882733D01*
X53709862Y-43849388D01*
X53710721Y-43816019D01*
X53712536Y-43782648D01*
X53715312Y-43749294D01*
X53715221Y-43608742D01*
X53714585Y-43489870D01*
X53712857Y-43392627D01*
X53711413Y-43352102D01*
X53709491Y-43316965D01*
X53437786Y-43587385D01*
X53311970Y-43709832D01*
X53192801Y-43823770D01*
X53080246Y-43929198D01*
X52974271Y-44026117D01*
X52874843Y-44114525D01*
X52781928Y-44194422D01*
X52695494Y-44265808D01*
X52615507Y-44328683D01*
X52541933Y-44383046D01*
X52474739Y-44428897D01*
X52413892Y-44466235D01*
X52359359Y-44495060D01*
X52311106Y-44515371D01*
X52289324Y-44522334D01*
X52269100Y-44527169D01*
X52207362Y-44528585D01*
X52145669Y-44528547D01*
X52084045Y-44527057D01*
X52022515Y-44524120D01*
X51961105Y-44519739D01*
X51899841Y-44513920D01*
X51838746Y-44506664D01*
X51777847Y-44497978D01*
X51717169Y-44487863D01*
X51656737Y-44476325D01*
X51596576Y-44463367D01*
X51536711Y-44448993D01*
X51477169Y-44433206D01*
X51417973Y-44416012D01*
X51359150Y-44397414D01*
X51300725Y-44377415D01*
X51300809Y-44375273D01*
X51301060Y-44373162D01*
X51301475Y-44371083D01*
X51302054Y-44369033D01*
X51302792Y-44367011D01*
X51303690Y-44365018D01*
X51305950Y-44361110D01*
X51308819Y-44357301D01*
X51312278Y-44353584D01*
X51316310Y-44349950D01*
X51320899Y-44346392D01*
X51326028Y-44342903D01*
X51331679Y-44339474D01*
X51337836Y-44336098D01*
X51344480Y-44332766D01*
X51351596Y-44329472D01*
X51359167Y-44326207D01*
X51367174Y-44322964D01*
X51375602Y-44319736D01*
X52528127Y-43922860D01*
X52681677Y-43837302D01*
X52833059Y-43748115D01*
X52982210Y-43655341D01*
X53129067Y-43559024D01*
X53273567Y-43459205D01*
X53415647Y-43355927D01*
X53555244Y-43249233D01*
X53692294Y-43139165D01*
X53692358Y-43136919D01*
X53692533Y-43134560D01*
X53693113Y-43129565D01*
X53693829Y-43124310D01*
X53694477Y-43118924D01*
X53694711Y-43116223D01*
X53694852Y-43113538D01*
X53694873Y-43110886D01*
X53694750Y-43108283D01*
X53694455Y-43105745D01*
X53693965Y-43103288D01*
X53693638Y-43102095D01*
X53693253Y-43100929D01*
X53692806Y-43099791D01*
X53692294Y-43098683D01*
X53596183Y-43083841D01*
X53485229Y-43069389D01*
X53219847Y-43041136D01*
X52898259Y-43012884D01*
X52522571Y-42983590D01*
X52518288Y-42984559D01*
X52514070Y-42985333D01*
X52509914Y-42985912D01*
X52505818Y-42986298D01*
X52501781Y-42986490D01*
X52497800Y-42986489D01*
X52493873Y-42986295D01*
X52489998Y-42985909D01*
X52486174Y-42985331D01*
X52482397Y-42984561D01*
X52478666Y-42983601D01*
X52474979Y-42982450D01*
X52471333Y-42981109D01*
X52467727Y-42979578D01*
X52464159Y-42977859D01*
X52460626Y-42975950D01*
X52457126Y-42973853D01*
X52453657Y-42971568D01*
X52450218Y-42969095D01*
X52446806Y-42966436D01*
X52443418Y-42963589D01*
X52440054Y-42960557D01*
X52433386Y-42953936D01*
X52426784Y-42946575D01*
X52420233Y-42938478D01*
X52413714Y-42929648D01*
X52407213Y-42920090D01*
X52406570Y-42911906D01*
X52406961Y-42903546D01*
X52408366Y-42895038D01*
X52410766Y-42886412D01*
X52414142Y-42877696D01*
X52418475Y-42868917D01*
X52429934Y-42851290D01*
X52444990Y-42833758D01*
X52463488Y-42816552D01*
X52485277Y-42799899D01*
X52510202Y-42784028D01*
X52538109Y-42769167D01*
X52568846Y-42755547D01*
X52602259Y-42743394D01*
X52638194Y-42732938D01*
X52676498Y-42724408D01*
X52717017Y-42718032D01*
X52759598Y-42714038D01*
X52804088Y-42712656D01*
X52844282Y-42714271D01*
X52884383Y-42717076D01*
X52924367Y-42721068D01*
X52964205Y-42726243D01*
X53003873Y-42732597D01*
X53043344Y-42740126D01*
X53082591Y-42748826D01*
X53121588Y-42758694D01*
X53634350Y-42862410D01*
X53636574Y-42862272D01*
X53638796Y-42862202D01*
X53641017Y-42862199D01*
X53643234Y-42862264D01*
X53645446Y-42862397D01*
X53647652Y-42862597D01*
X53649849Y-42862863D01*
X53652037Y-42863197D01*
X53654214Y-42863596D01*
X53656378Y-42864062D01*
X53658528Y-42864594D01*
X53660662Y-42865191D01*
X53662779Y-42865854D01*
X53664877Y-42866581D01*
X53666955Y-42867374D01*
X53669011Y-42868231D01*
X53661048Y-42818948D01*
X53651208Y-42770061D01*
X53639507Y-42721624D01*
X53625962Y-42673689D01*
X53610588Y-42626309D01*
X53593401Y-42579536D01*
X53574417Y-42533424D01*
X53553652Y-42488025D01*
X53551067Y-42484238D01*
X53548718Y-42480418D01*
X53546603Y-42476565D01*
X53544723Y-42472682D01*
X53543075Y-42468769D01*
X53541659Y-42464828D01*
X53540474Y-42460858D01*
X53539518Y-42456862D01*
X53538790Y-42452840D01*
X53538289Y-42448794D01*
X53538014Y-42444725D01*
X53537965Y-42440633D01*
X53538139Y-42436519D01*
X53538536Y-42432386D01*
X53539154Y-42428233D01*
X53539993Y-42424062D01*
X53541051Y-42419874D01*
X53542328Y-42415670D01*
X53543821Y-42411451D01*
X53545531Y-42407219D01*
X53547456Y-42402973D01*
X53549594Y-42398716D01*
X53554508Y-42390171D01*
X53560263Y-42381591D01*
X53566852Y-42372986D01*
X53574264Y-42364364D01*
X53582491Y-42355733D01*
X53598443Y-42342895D01*
X53614650Y-42330408D01*
X53631107Y-42318275D01*
X53647808Y-42306500D01*
X53664746Y-42295086D01*
X53681917Y-42284036D01*
X53699314Y-42273354D01*
X53716930Y-42263044D01*
X53734761Y-42253109D01*
X53752799Y-42243551D01*
X53771040Y-42234375D01*
X53789477Y-42225584D01*
X53808104Y-42217181D01*
X53826915Y-42209170D01*
X53845905Y-42201555D01*
X53865067Y-42194338D01*
X53870896Y-42190684D01*
X53876847Y-42187267D01*
X53882912Y-42184090D01*
X53889083Y-42181155D01*
X53895353Y-42178463D01*
X53901715Y-42176016D01*
X53908162Y-42173817D01*
X53914686Y-42171867D01*
X53921281Y-42170169D01*
X53927937Y-42168725D01*
X53934650Y-42167536D01*
X53941410Y-42166605D01*
X53948210Y-42165933D01*
X53955045Y-42165524D01*
X53961905Y-42165378D01*
X53968783Y-42165498D01*
X53972921Y-42165271D01*
X53977057Y-42165174D01*
X53981187Y-42165207D01*
G37*
X53981187Y-42165207D02*
X53985310Y-42165367D01*
X53989421Y-42165656D01*
X53993519Y-42166073D01*
X53997599Y-42166617D01*
X54001660Y-42167287D01*
X54005698Y-42168083D01*
X54009711Y-42169005D01*
X54013694Y-42170052D01*
X54017646Y-42171223D01*
X54021563Y-42172517D01*
X54025443Y-42173936D01*
X54029282Y-42175476D01*
X54033077Y-42177140D01*
X54041373Y-42180505D01*
X54048989Y-42184168D01*
X54055918Y-42188155D01*
X54059121Y-42190277D01*
X54062148Y-42192490D01*
X54064999Y-42194796D01*
X54067672Y-42197198D01*
X54070166Y-42199700D01*
X54072479Y-42202306D01*
X54074612Y-42205017D01*
X54076561Y-42207837D01*
X54078327Y-42210769D01*
X54079908Y-42213817D01*
X54081304Y-42216984D01*
X54082511Y-42220272D01*
X54083531Y-42223686D01*
X54084361Y-42227227D01*
X54085000Y-42230899D01*
X54085448Y-42234706D01*
X54085702Y-42238651D01*
X54085762Y-42242736D01*
X54085627Y-42246964D01*
X54085296Y-42251340D01*
X54084767Y-42255866D01*
X54084038Y-42260545D01*
X54081981Y-42270375D01*
X54079115Y-42280856D01*
X54062219Y-42318559D01*
X54046573Y-42356716D01*
X54032182Y-42395296D01*
X54019052Y-42434268D01*
X54007189Y-42473600D01*
X53996597Y-42513262D01*
X53987283Y-42553222D01*
X53979253Y-42593450D01*
X53972512Y-42633913D01*
X53967066Y-42674581D01*
X53962921Y-42715423D01*
X53960082Y-42756407D01*
X53958555Y-42797503D01*
X53958346Y-42838679D01*
X53959461Y-42879905D01*
X53961905Y-42921148D01*
X54007942Y-42926969D01*
X54060859Y-42932790D01*
X54162194Y-42937817D01*
X54271731Y-42949194D01*
X54381269Y-42960835D01*
X54484986Y-42966656D01*
X54588702Y-42972212D01*
X54694536Y-42983854D01*
X54740573Y-42983854D01*
X54793490Y-42989675D01*
X54839263Y-42995496D01*
X54879744Y-42995496D01*
X54925781Y-43001052D01*
X54965733Y-43006344D01*
X55000129Y-43012165D01*
X55040611Y-43012165D01*
X55069450Y-43018515D01*
X55103846Y-43024335D01*
X55126865Y-43029892D01*
X55155704Y-43035712D01*
X55173167Y-43041533D01*
X55190365Y-43047354D01*
X55207563Y-43053704D01*
X55213383Y-43059260D01*
X55219204Y-43065081D01*
X55225025Y-43065081D01*
X55225025Y-43076194D01*
X55224761Y-43075929D01*
X55208733Y-43098899D01*
X55191354Y-43120578D01*
X55172702Y-43140928D01*
X55152855Y-43159908D01*
X55131894Y-43177477D01*
X55109898Y-43193596D01*
X55086945Y-43208225D01*
X55063114Y-43221322D01*
X55038485Y-43232848D01*
X55013137Y-43242763D01*
X54987148Y-43251027D01*
X54960599Y-43257598D01*
X54933568Y-43262438D01*
X54906134Y-43265506D01*
X54878377Y-43266762D01*
X54850375Y-43266165D01*
X54835885Y-43265554D01*
X54821409Y-43264711D01*
X54806951Y-43263636D01*
X54792513Y-43262330D01*
X54778098Y-43260791D01*
X54763708Y-43259021D01*
X54749347Y-43257020D01*
X54735017Y-43254788D01*
X54669735Y-43242552D01*
X54603188Y-43231612D01*
X54535252Y-43221627D01*
X54465803Y-43212256D01*
X54170397Y-43174090D01*
X54253157Y-43286213D01*
X54339024Y-43395710D01*
X54427931Y-43502524D01*
X54519811Y-43606596D01*
X54614599Y-43707869D01*
X54712227Y-43806285D01*
X54812629Y-43901785D01*
X54915738Y-43994313D01*
X55021490Y-44083810D01*
X55129816Y-44170219D01*
X55240650Y-44253481D01*
X55353927Y-44333538D01*
X55469580Y-44410333D01*
X55587541Y-44483808D01*
X55707746Y-44553905D01*
X55830127Y-44620566D01*
X55833820Y-44623742D01*
X55837308Y-44626820D01*
X55840592Y-44629803D01*
X55843672Y-44632692D01*
X55846548Y-44635491D01*
X55849220Y-44638200D01*
X55851688Y-44640821D01*
X55853952Y-44643358D01*
X55856013Y-44645811D01*
X55857871Y-44648183D01*
X55859525Y-44650475D01*
X55860976Y-44652690D01*
X55862225Y-44654830D01*
X55863271Y-44656896D01*
X55864114Y-44658891D01*
X55864754Y-44660816D01*
X55865193Y-44662674D01*
X55865429Y-44664467D01*
X55865463Y-44666196D01*
X55865296Y-44667863D01*
X55864926Y-44669471D01*
X55864355Y-44671022D01*
X55863583Y-44672517D01*
X55862609Y-44673959D01*
X55861434Y-44675349D01*
X55860058Y-44676689D01*
X55858481Y-44677982D01*
X55856704Y-44679229D01*
X55854726Y-44680433D01*
X55852547Y-44681595D01*
X55850168Y-44682717D01*
X55847590Y-44683802D01*
X55836023Y-44689751D01*
X55820902Y-44693603D01*
X55780502Y-44694992D01*
X55727391Y-44687914D01*
X55662571Y-44672317D01*
X55587045Y-44648147D01*
X55501815Y-44615350D01*
X55407884Y-44573873D01*
X55306252Y-44523663D01*
X55197923Y-44464665D01*
X55083900Y-44396827D01*
X54965183Y-44320095D01*
X54842776Y-44234416D01*
X54717681Y-44139735D01*
X54590900Y-44036000D01*
X54463436Y-43923157D01*
X54336289Y-43801152D01*
X54302671Y-43767025D01*
X54286339Y-43750844D01*
X54270144Y-43735106D01*
X54253948Y-43719703D01*
X54237616Y-43704526D01*
X54221012Y-43689467D01*
X54203998Y-43674417D01*
X54154810Y-43620886D01*
X54111030Y-43572850D01*
X54072657Y-43530370D01*
X54039692Y-43493508D01*
X54012134Y-43462327D01*
X53989983Y-43436888D01*
X53973240Y-43417253D01*
X53961904Y-43403485D01*
X53962194Y-43471465D01*
X53963840Y-43539406D01*
X53966841Y-43607287D01*
X53971196Y-43675088D01*
X53976903Y-43742788D01*
X53983960Y-43810368D01*
X53992367Y-43877807D01*
X54002121Y-43945086D01*
X53997125Y-43981635D01*
X53990698Y-44017916D01*
X53982853Y-44053888D01*
X53973600Y-44089510D01*
X53962951Y-44124739D01*
X53950918Y-44159535D01*
X53937512Y-44193856D01*
X53922746Y-44227661D01*
X53915149Y-44237956D01*
X53907435Y-44247306D01*
X53899601Y-44255701D01*
X53895637Y-44259537D01*
X53891641Y-44263131D01*
X53887612Y-44266482D01*
X53883550Y-44269588D01*
X53879455Y-44272449D01*
X53875325Y-44275062D01*
X53871161Y-44277428D01*
X53866961Y-44279544D01*
X53862725Y-44281410D01*
X53858452Y-44283025D01*
X53854142Y-44284386D01*
X53849794Y-44285494D01*
X53845408Y-44286347D01*
X53840983Y-44286944D01*
X53836519Y-44287283D01*
X53832014Y-44287364D01*
X53827469Y-44287185D01*
X53822882Y-44286745D01*
X53818253Y-44286044D01*
X53813583Y-44285079D01*
X53808869Y-44283850D01*
X53804111Y-44282355D01*
X53799309Y-44280594D01*
X53794463Y-44278565D01*
X53789571Y-44276267D01*
X53784633Y-44273698D01*
X53773286Y-44242212D01*
X53762861Y-44210458D01*
X53753362Y-44178459D01*
X53744791Y-44146234D01*
X53737151Y-44113803D01*
X53730445Y-44081186D01*
X53724674Y-44048405D01*
X53719843Y-44015479D01*
X53715953Y-43982429D01*
X53713007Y-43949274D01*
X53711008Y-43916035D01*
X53709959Y-43882733D01*
X53709862Y-43849388D01*
X53710721Y-43816019D01*
X53712536Y-43782648D01*
X53715312Y-43749294D01*
X53715221Y-43608742D01*
X53714585Y-43489870D01*
X53712857Y-43392627D01*
X53711413Y-43352102D01*
X53709491Y-43316965D01*
X53437786Y-43587385D01*
X53311970Y-43709832D01*
X53192801Y-43823770D01*
X53080246Y-43929198D01*
X52974271Y-44026117D01*
X52874843Y-44114525D01*
X52781928Y-44194422D01*
X52695494Y-44265808D01*
X52615507Y-44328683D01*
X52541933Y-44383046D01*
X52474739Y-44428897D01*
X52413892Y-44466235D01*
X52359359Y-44495060D01*
X52311106Y-44515371D01*
X52289324Y-44522334D01*
X52269100Y-44527169D01*
X52207362Y-44528585D01*
X52145669Y-44528547D01*
X52084045Y-44527057D01*
X52022515Y-44524120D01*
X51961105Y-44519739D01*
X51899841Y-44513920D01*
X51838746Y-44506664D01*
X51777847Y-44497978D01*
X51717169Y-44487863D01*
X51656737Y-44476325D01*
X51596576Y-44463367D01*
X51536711Y-44448993D01*
X51477169Y-44433206D01*
X51417973Y-44416012D01*
X51359150Y-44397414D01*
X51300725Y-44377415D01*
X51300809Y-44375273D01*
X51301060Y-44373162D01*
X51301475Y-44371083D01*
X51302054Y-44369033D01*
X51302792Y-44367011D01*
X51303690Y-44365018D01*
X51305950Y-44361110D01*
X51308819Y-44357301D01*
X51312278Y-44353584D01*
X51316310Y-44349950D01*
X51320899Y-44346392D01*
X51326028Y-44342903D01*
X51331679Y-44339474D01*
X51337836Y-44336098D01*
X51344480Y-44332766D01*
X51351596Y-44329472D01*
X51359167Y-44326207D01*
X51367174Y-44322964D01*
X51375602Y-44319736D01*
X52528127Y-43922860D01*
X52681677Y-43837302D01*
X52833059Y-43748115D01*
X52982210Y-43655341D01*
X53129067Y-43559024D01*
X53273567Y-43459205D01*
X53415647Y-43355927D01*
X53555244Y-43249233D01*
X53692294Y-43139165D01*
X53692358Y-43136919D01*
X53692533Y-43134560D01*
X53693113Y-43129565D01*
X53693829Y-43124310D01*
X53694477Y-43118924D01*
X53694711Y-43116223D01*
X53694852Y-43113538D01*
X53694873Y-43110886D01*
X53694750Y-43108283D01*
X53694455Y-43105745D01*
X53693965Y-43103288D01*
X53693638Y-43102095D01*
X53693253Y-43100929D01*
X53692806Y-43099791D01*
X53692294Y-43098683D01*
X53596183Y-43083841D01*
X53485229Y-43069389D01*
X53219847Y-43041136D01*
X52898259Y-43012884D01*
X52522571Y-42983590D01*
X52518288Y-42984559D01*
X52514070Y-42985333D01*
X52509914Y-42985912D01*
X52505818Y-42986298D01*
X52501781Y-42986490D01*
X52497800Y-42986489D01*
X52493873Y-42986295D01*
X52489998Y-42985909D01*
X52486174Y-42985331D01*
X52482397Y-42984561D01*
X52478666Y-42983601D01*
X52474979Y-42982450D01*
X52471333Y-42981109D01*
X52467727Y-42979578D01*
X52464159Y-42977859D01*
X52460626Y-42975950D01*
X52457126Y-42973853D01*
X52453657Y-42971568D01*
X52450218Y-42969095D01*
X52446806Y-42966436D01*
X52443418Y-42963589D01*
X52440054Y-42960557D01*
X52433386Y-42953936D01*
X52426784Y-42946575D01*
X52420233Y-42938478D01*
X52413714Y-42929648D01*
X52407213Y-42920090D01*
X52406570Y-42911906D01*
X52406961Y-42903546D01*
X52408366Y-42895038D01*
X52410766Y-42886412D01*
X52414142Y-42877696D01*
X52418475Y-42868917D01*
X52429934Y-42851290D01*
X52444990Y-42833758D01*
X52463488Y-42816552D01*
X52485277Y-42799899D01*
X52510202Y-42784028D01*
X52538109Y-42769167D01*
X52568846Y-42755547D01*
X52602259Y-42743394D01*
X52638194Y-42732938D01*
X52676498Y-42724408D01*
X52717017Y-42718032D01*
X52759598Y-42714038D01*
X52804088Y-42712656D01*
X52844282Y-42714271D01*
X52884383Y-42717076D01*
X52924367Y-42721068D01*
X52964205Y-42726243D01*
X53003873Y-42732597D01*
X53043344Y-42740126D01*
X53082591Y-42748826D01*
X53121588Y-42758694D01*
X53634350Y-42862410D01*
X53636574Y-42862272D01*
X53638796Y-42862202D01*
X53641017Y-42862199D01*
X53643234Y-42862264D01*
X53645446Y-42862397D01*
X53647652Y-42862597D01*
X53649849Y-42862863D01*
X53652037Y-42863197D01*
X53654214Y-42863596D01*
X53656378Y-42864062D01*
X53658528Y-42864594D01*
X53660662Y-42865191D01*
X53662779Y-42865854D01*
X53664877Y-42866581D01*
X53666955Y-42867374D01*
X53669011Y-42868231D01*
X53661048Y-42818948D01*
X53651208Y-42770061D01*
X53639507Y-42721624D01*
X53625962Y-42673689D01*
X53610588Y-42626309D01*
X53593401Y-42579536D01*
X53574417Y-42533424D01*
X53553652Y-42488025D01*
X53551067Y-42484238D01*
X53548718Y-42480418D01*
X53546603Y-42476565D01*
X53544723Y-42472682D01*
X53543075Y-42468769D01*
X53541659Y-42464828D01*
X53540474Y-42460858D01*
X53539518Y-42456862D01*
X53538790Y-42452840D01*
X53538289Y-42448794D01*
X53538014Y-42444725D01*
X53537965Y-42440633D01*
X53538139Y-42436519D01*
X53538536Y-42432386D01*
X53539154Y-42428233D01*
X53539993Y-42424062D01*
X53541051Y-42419874D01*
X53542328Y-42415670D01*
X53543821Y-42411451D01*
X53545531Y-42407219D01*
X53547456Y-42402973D01*
X53549594Y-42398716D01*
X53554508Y-42390171D01*
X53560263Y-42381591D01*
X53566852Y-42372986D01*
X53574264Y-42364364D01*
X53582491Y-42355733D01*
X53598443Y-42342895D01*
X53614650Y-42330408D01*
X53631107Y-42318275D01*
X53647808Y-42306500D01*
X53664746Y-42295086D01*
X53681917Y-42284036D01*
X53699314Y-42273354D01*
X53716930Y-42263044D01*
X53734761Y-42253109D01*
X53752799Y-42243551D01*
X53771040Y-42234375D01*
X53789477Y-42225584D01*
X53808104Y-42217181D01*
X53826915Y-42209170D01*
X53845905Y-42201555D01*
X53865067Y-42194338D01*
X53870896Y-42190684D01*
X53876847Y-42187267D01*
X53882912Y-42184090D01*
X53889083Y-42181155D01*
X53895353Y-42178463D01*
X53901715Y-42176016D01*
X53908162Y-42173817D01*
X53914686Y-42171867D01*
X53921281Y-42170169D01*
X53927937Y-42168725D01*
X53934650Y-42167536D01*
X53941410Y-42166605D01*
X53948210Y-42165933D01*
X53955045Y-42165524D01*
X53961905Y-42165378D01*
X53968783Y-42165498D01*
X53972921Y-42165271D01*
X53977057Y-42165174D01*
X53981187Y-42165207D01*
D12*
%TO.C,MX14*%
X77252499Y-90169999D03*
D13*
X66357499Y-95249999D03*
X76517499Y-95249999D03*
D14*
X71437499Y-95249999D03*
D12*
X64352499Y-92709999D03*
%TD*%
D13*
%TO.C,MX1*%
X28257500Y-33337500D03*
D12*
X26252500Y-30797500D03*
D13*
X38417500Y-33337500D03*
D12*
X39152500Y-28257500D03*
D14*
X33337500Y-33337500D03*
%TD*%
D13*
%TO.C,MX2*%
X57467499Y-33337499D03*
D14*
X52387499Y-33337499D03*
D12*
X58202499Y-28257499D03*
X45302499Y-30797499D03*
D13*
X47307499Y-33337499D03*
%TD*%
%TO.C,MX7*%
X76517499Y-57149999D03*
D12*
X64352499Y-54609999D03*
X77252499Y-52069999D03*
D13*
X66357499Y-57149999D03*
D14*
X71437499Y-57149999D03*
%TD*%
%TO.C,MX4*%
X90487499Y-33337499D03*
D12*
X83402499Y-30797499D03*
D13*
X85407499Y-33337499D03*
X95567499Y-33337499D03*
D12*
X96302499Y-28257499D03*
%TD*%
D14*
%TO.C,MX10*%
X52387499Y-76199999D03*
D12*
X45302499Y-73659999D03*
X58202499Y-71119999D03*
D13*
X57467499Y-76199999D03*
X47307499Y-76199999D03*
%TD*%
D12*
%TO.C,MX18*%
X64352499Y-111759999D03*
X77252499Y-109219999D03*
D13*
X76517499Y-114299999D03*
X66357499Y-114299999D03*
D14*
X71437499Y-114299999D03*
%TD*%
D13*
%TO.C,MX3*%
X66357499Y-33337499D03*
X76517499Y-33337499D03*
D12*
X77252499Y-28257499D03*
X64352499Y-30797499D03*
D14*
X71437499Y-33337499D03*
%TD*%
D13*
%TO.C,MX8*%
X85407499Y-57149999D03*
D12*
X96302499Y-52069999D03*
D14*
X90487499Y-57149999D03*
D12*
X83402499Y-54609999D03*
D13*
X95567499Y-57149999D03*
%TD*%
D12*
%TO.C,MX6*%
X58202499Y-52069999D03*
X45302499Y-54609999D03*
D14*
X52387499Y-57149999D03*
D13*
X57467499Y-57149999D03*
X47307499Y-57149999D03*
%TD*%
D14*
%TO.C,MX19*%
X42862499Y-133349999D03*
D15*
X54800499Y-140334999D03*
D13*
X37782499Y-133349999D03*
D14*
X30924499Y-125094999D03*
D15*
X30924499Y-140334999D03*
D12*
X35777499Y-130809999D03*
D14*
X54800499Y-125094999D03*
D12*
X48677499Y-128269999D03*
D13*
X47942499Y-133349999D03*
%TD*%
%TO.C,MX20*%
X66357499Y-133349999D03*
D14*
X71437499Y-133349999D03*
D13*
X76517499Y-133349999D03*
D12*
X77252499Y-128269999D03*
X64352499Y-130809999D03*
%TD*%
D14*
%TO.C,MX21*%
X82232499Y-135762999D03*
D12*
X96302499Y-118744999D03*
D15*
X97472499Y-135762999D03*
X97472499Y-111886999D03*
D14*
X90487499Y-123824999D03*
D12*
X83402499Y-121284999D03*
D14*
X82232499Y-111886999D03*
D13*
X95567499Y-123824999D03*
X85407499Y-123824999D03*
%TD*%
D12*
%TO.C,MX11*%
X64352499Y-73659999D03*
D14*
X71437499Y-76199999D03*
D13*
X76517499Y-76199999D03*
X66357499Y-76199999D03*
D12*
X77252499Y-71119999D03*
%TD*%
%TO.C,MX5*%
X39152499Y-52069999D03*
D13*
X28257499Y-57149999D03*
D14*
X33337499Y-57149999D03*
D12*
X26252499Y-54609999D03*
D13*
X38417499Y-57149999D03*
D16*
X32067499Y-62229999D03*
D17*
X34607499Y-62229999D03*
%TD*%
D12*
%TO.C,MX12*%
X26252499Y-92709999D03*
D13*
X38417499Y-95249999D03*
D14*
X33337499Y-95249999D03*
D13*
X28257499Y-95249999D03*
D12*
X39152499Y-90169999D03*
%TD*%
%TO.C,MX17*%
X58202499Y-109219999D03*
X45302499Y-111759999D03*
D14*
X52387499Y-114299999D03*
D13*
X57467499Y-114299999D03*
X47307499Y-114299999D03*
%TD*%
%TO.C,MX13*%
X57467499Y-95249999D03*
D14*
X52387499Y-95249999D03*
D12*
X45302499Y-92709999D03*
D13*
X47307499Y-95249999D03*
D12*
X58202499Y-90169999D03*
%TD*%
D13*
%TO.C,MX15*%
X95567499Y-85724999D03*
D14*
X82232499Y-73786999D03*
D12*
X83402499Y-83184999D03*
D15*
X97472499Y-97662999D03*
D12*
X96302499Y-80644999D03*
D15*
X97472499Y-73786999D03*
D14*
X90487499Y-85724999D03*
D13*
X85407499Y-85724999D03*
D14*
X82232499Y-97662999D03*
%TD*%
D13*
%TO.C,MX16*%
X38417499Y-114299999D03*
D12*
X26252499Y-111759999D03*
D14*
X33337499Y-114299999D03*
D13*
X28257499Y-114299999D03*
D12*
X39152499Y-109219999D03*
%TD*%
D13*
%TO.C,MX9*%
X28257499Y-76199999D03*
X38417499Y-76199999D03*
D14*
X33337499Y-76199999D03*
D12*
X26252499Y-73659999D03*
X39152499Y-71119999D03*
%TD*%
D18*
%TO.C,H1*%
X26987499Y-45243749D03*
%TD*%
D19*
%TO.C,J1*%
X82137249Y-37719000D03*
D20*
X82137249Y-40259000D03*
X82137249Y-42799000D03*
X82137249Y-45339000D03*
X82137249Y-47879000D03*
X82137249Y-50419000D03*
%TD*%
D21*
%TO.C,R1*%
X47148749Y-66674999D03*
D22*
X36988749Y-66674999D03*
%TD*%
D23*
%TO.C,D16*%
X41274999Y-120496249D03*
D24*
X41274999Y-112876249D03*
%TD*%
D23*
%TO.C,D13*%
X60324999Y-100652500D03*
D24*
X60324999Y-93032500D03*
%TD*%
D23*
%TO.C,D8*%
X98424999Y-63346249D03*
D24*
X98424999Y-55726249D03*
%TD*%
D18*
%TO.C,H4*%
X80962500Y-104775000D03*
%TD*%
D23*
%TO.C,D18*%
X78803499Y-120496249D03*
D24*
X78803499Y-112876249D03*
%TD*%
D23*
%TO.C,D17*%
X60324999Y-120496249D03*
D24*
X60324999Y-112876249D03*
%TD*%
D23*
%TO.C,D10*%
X60324999Y-82396249D03*
D24*
X60324999Y-74776249D03*
%TD*%
D23*
%TO.C,D5*%
X41274999Y-63346249D03*
D24*
X41274999Y-55726249D03*
%TD*%
D23*
%TO.C,D2*%
X60324999Y-39533749D03*
D24*
X60324999Y-31913749D03*
%TD*%
D23*
%TO.C,D3*%
X79216249Y-39533749D03*
D24*
X79216249Y-31913749D03*
%TD*%
D23*
%TO.C,D11*%
X79374999Y-82396249D03*
D24*
X79374999Y-74776249D03*
%TD*%
D23*
%TO.C,D15*%
X98424999Y-91921249D03*
D24*
X98424999Y-84301249D03*
%TD*%
D23*
%TO.C,D4*%
X98424999Y-39533749D03*
D24*
X98424999Y-31913749D03*
%TD*%
D23*
%TO.C,D19*%
X50799999Y-139546249D03*
D24*
X50799999Y-131926249D03*
%TD*%
D23*
%TO.C,D21*%
X98424999Y-130021249D03*
D24*
X98424999Y-122401249D03*
%TD*%
D23*
%TO.C,D6*%
X60324999Y-63346249D03*
D24*
X60324999Y-55726249D03*
%TD*%
D23*
%TO.C,D20*%
X78676499Y-139546249D03*
D24*
X78676499Y-131926249D03*
%TD*%
D18*
%TO.C,H3*%
X42862500Y-104775000D03*
%TD*%
D25*
%TO.C,J2*%
X44069000Y-37719000D03*
D20*
X44069000Y-40259000D03*
X44069000Y-42799000D03*
X44069000Y-45339000D03*
X44069000Y-47879000D03*
X44069000Y-50419000D03*
%TD*%
D23*
%TO.C,D12*%
X41275000Y-100652500D03*
D24*
X41275000Y-93032500D03*
%TD*%
D23*
%TO.C,D1*%
X41116249Y-39501999D03*
D24*
X41116249Y-31881999D03*
%TD*%
D18*
%TO.C,H2*%
X96837499Y-45243749D03*
%TD*%
D23*
%TO.C,D9*%
X41274999Y-82396249D03*
D24*
X41274999Y-74776249D03*
%TD*%
D23*
%TO.C,D14*%
X78740000Y-100652500D03*
D24*
X78740000Y-93032500D03*
%TD*%
D23*
%TO.C,D7*%
X79374999Y-63346249D03*
D24*
X79374999Y-55726249D03*
%TD*%
M02*
