M48
; DRILL file {KiCad (6.0.2)} date Sun Feb 20 23:39:01 2022
; FORMAT={-:-/ absolute / inch / decimal}
; #@! TF.CreationDate,2022-02-20T23:39:01-05:00
; #@! TF.GenerationSoftware,Kicad,Pcbnew,(6.0.2)
; #@! TF.FileFunction,NonPlated,1,2,NPTH
FMAT,2
INCH
; #@! TA.AperFunction,NonPlated,NPTH,ComponentDrill
T1C0.0689
; #@! TA.AperFunction,NonPlated,NPTH,ComponentDrill
T2C0.1200
; #@! TA.AperFunction,NonPlated,NPTH,ComponentDrill
T3C0.1570
%
G90
G05
T1
X1.1125Y-2.25
X1.1125Y-3.0
X1.1125Y-3.75
X1.1125Y-4.5
X1.1125Y-1.3125
X1.4875Y-5.25
X1.5125Y-2.25
X1.5125Y-3.0
X1.5125Y-3.75
X1.5125Y-4.5
X1.5125Y-1.3125
X1.8625Y-1.3125
X1.8625Y-2.25
X1.8625Y-3.0
X1.8625Y-3.75
X1.8625Y-4.5
X1.8875Y-5.25
X2.2625Y-1.3125
X2.2625Y-2.25
X2.2625Y-3.0
X2.2625Y-3.75
X2.2625Y-4.5
X2.6125Y-1.3125
X2.6125Y-2.25
X2.6125Y-3.0
X2.6125Y-3.75
X2.6125Y-4.5
X2.6125Y-5.25
X3.0125Y-1.3125
X3.0125Y-2.25
X3.0125Y-3.0
X3.0125Y-3.75
X3.0125Y-4.5
X3.0125Y-5.25
X3.3625Y-1.3125
X3.3625Y-2.25
X3.3625Y-3.375
X3.3625Y-4.875
X3.7625Y-1.3125
X3.7625Y-2.25
X3.7625Y-3.375
X3.7625Y-4.875
T2
X1.2175Y-5.525
X2.1575Y-5.525
X3.8375Y-2.905
X3.8375Y-3.845
X3.8375Y-4.405
X3.8375Y-5.345
T3
X1.2175Y-4.925
X1.3125Y-2.25
X1.3125Y-3.0
X1.3125Y-3.75
X1.3125Y-4.5
X1.3125Y-1.3125
X1.6875Y-5.25
X2.0625Y-1.3125
X2.0625Y-2.25
X2.0625Y-3.0
X2.0625Y-3.75
X2.0625Y-4.5
X2.1575Y-4.925
X2.8125Y-1.3125
X2.8125Y-2.25
X2.8125Y-3.0
X2.8125Y-3.75
X2.8125Y-4.5
X2.8125Y-5.25
X3.2375Y-2.905
X3.2375Y-3.845
X3.2375Y-4.405
X3.2375Y-5.345
X3.5625Y-1.3125
X3.5625Y-2.25
X3.5625Y-3.375
X3.5625Y-4.875
T0
M30
