M48
; DRILL file {KiCad (6.0.1)} date Fri Feb 18 01:38:53 2022
; FORMAT={-:-/ absolute / inch / decimal}
; #@! TF.CreationDate,2022-02-18T01:38:53-05:00
; #@! TF.GenerationSoftware,Kicad,Pcbnew,(6.0.1)
; #@! TF.FileFunction,NonPlated,1,2,NPTH
FMAT,2
INCH
; #@! TA.AperFunction,NonPlated,NPTH,ComponentDrill
T1C0.0689
; #@! TA.AperFunction,NonPlated,NPTH,ComponentDrill
T2C0.1200
; #@! TA.AperFunction,NonPlated,NPTH,ComponentDrill
T3C0.1570
%
G90
G05
T1
X7.1437Y-1.9375
X7.1437Y-2.875
X7.1437Y-3.625
X7.1437Y-4.375
X7.1437Y-5.125
X7.5187Y-5.875
X7.5438Y-1.9375
X7.5438Y-2.875
X7.5438Y-3.625
X7.5438Y-4.375
X7.5438Y-5.125
X7.8937Y-1.9375
X7.8937Y-2.875
X7.8937Y-3.625
X7.8937Y-4.375
X7.8937Y-5.125
X7.9188Y-5.875
X8.2937Y-1.9375
X8.2937Y-2.875
X8.2937Y-3.625
X8.2937Y-4.375
X8.2937Y-5.125
X8.6437Y-1.9375
X8.6437Y-2.875
X8.6437Y-3.625
X8.6437Y-4.375
X8.6437Y-5.125
X8.6437Y-5.875
X9.0437Y-1.9375
X9.0437Y-2.875
X9.0437Y-3.625
X9.0437Y-4.375
X9.0437Y-5.125
X9.0437Y-5.875
X9.3937Y-1.9375
X9.3937Y-2.875
X9.3937Y-4.0
X9.3937Y-5.5
X9.7937Y-1.9375
X9.7937Y-2.875
X9.7937Y-4.0
X9.7937Y-5.5
T2
X7.2488Y-5.6
X8.1888Y-5.6
X9.3187Y-3.53
X9.3187Y-4.47
X9.3187Y-5.03
X9.3187Y-5.97
T3
X7.2488Y-6.2
X7.3438Y-1.9375
X7.3438Y-2.875
X7.3438Y-3.625
X7.3438Y-4.375
X7.3438Y-5.125
X7.7188Y-5.875
X8.0938Y-1.9375
X8.0938Y-2.875
X8.0938Y-3.625
X8.0938Y-4.375
X8.0938Y-5.125
X8.1888Y-6.2
X8.8438Y-1.9375
X8.8438Y-2.875
X8.8438Y-3.625
X8.8438Y-4.375
X8.8438Y-5.125
X8.8438Y-5.875
X9.5938Y-1.9375
X9.5938Y-2.875
X9.5938Y-4.0
X9.5938Y-5.5
X9.9187Y-3.53
X9.9187Y-4.47
X9.9187Y-5.03
X9.9187Y-5.97
T0
M30
