%TF.GenerationSoftware,KiCad,Pcbnew,(6.0.1)*%
%TF.CreationDate,2022-02-19T02:25:24-05:00*%
%TF.ProjectId,TKL,544b4c2e-6b69-4636-9164-5f7063625858,rev?*%
%TF.SameCoordinates,Original*%
%TF.FileFunction,Paste,Bot*%
%TF.FilePolarity,Positive*%
%FSLAX46Y46*%
G04 Gerber Fmt 4.6, Leading zero omitted, Abs format (unit mm)*
G04 Created by KiCad (PCBNEW (6.0.1)) date 2022-02-19 02:25:24*
%MOMM*%
%LPD*%
G01*
G04 APERTURE LIST*
%ADD10R,2.550000X2.500000*%
G04 APERTURE END LIST*
D10*
%TO.C,MX80*%
X168333750Y-199072500D03*
X181233750Y-196532500D03*
%TD*%
%TO.C,MX33*%
X39746250Y-141922500D03*
X52646250Y-139382500D03*
%TD*%
%TO.C,MX59*%
X252671250Y-158432500D03*
X239771250Y-160972500D03*
%TD*%
%TO.C,MX81*%
X249296250Y-199072500D03*
X262196250Y-196532500D03*
%TD*%
%TO.C,MX68*%
X134996250Y-180022500D03*
X147896250Y-177482500D03*
%TD*%
%TO.C,MX31*%
X338396250Y-120332500D03*
X325496250Y-122872500D03*
%TD*%
%TO.C,MX71*%
X192146250Y-180022500D03*
X205046250Y-177482500D03*
%TD*%
%TO.C,MX11*%
X263583750Y-99060000D03*
X276483750Y-96520000D03*
%TD*%
%TO.C,MX76*%
X376496250Y-139382500D03*
X363596250Y-141922500D03*
%TD*%
%TO.C,MX6*%
X171708750Y-96520000D03*
X158808750Y-99060000D03*
%TD*%
%TO.C,MX61*%
X302677500Y-158432500D03*
X289777500Y-160972500D03*
%TD*%
%TO.C,MX37*%
X133608750Y-139382500D03*
X120708750Y-141922500D03*
%TD*%
%TO.C,MX66*%
X96896250Y-180022500D03*
X109796250Y-177482500D03*
%TD*%
%TO.C,MX72*%
X211196250Y-180022500D03*
X224096250Y-177482500D03*
%TD*%
%TO.C,MX79*%
X87371250Y-199072500D03*
X100271250Y-196532500D03*
%TD*%
%TO.C,MX26*%
X206433750Y-122872500D03*
X219333750Y-120332500D03*
%TD*%
%TO.C,MX22*%
X130233750Y-122872500D03*
X143133750Y-120332500D03*
%TD*%
%TO.C,MX64*%
X59790000Y-177482500D03*
X46890000Y-180022500D03*
%TD*%
%TO.C,MX28*%
X244533750Y-122872500D03*
X257433750Y-120332500D03*
%TD*%
%TO.C,MX27*%
X225483750Y-122872500D03*
X238383750Y-120332500D03*
%TD*%
%TO.C,MX29*%
X276483750Y-120332500D03*
X263583750Y-122872500D03*
%TD*%
%TO.C,MX65*%
X90746250Y-177482500D03*
X77846250Y-180022500D03*
%TD*%
%TO.C,MX54*%
X157421250Y-158432500D03*
X144521250Y-160972500D03*
%TD*%
%TO.C,MX42*%
X228858750Y-139382500D03*
X215958750Y-141922500D03*
%TD*%
%TO.C,MX16*%
X363596250Y-99060000D03*
X376496250Y-96520000D03*
%TD*%
%TO.C,MX5*%
X143133750Y-96520000D03*
X130233750Y-99060000D03*
%TD*%
%TO.C,MX24*%
X168333750Y-122872500D03*
X181233750Y-120332500D03*
%TD*%
%TO.C,MX56*%
X182621250Y-160972500D03*
X195521250Y-158432500D03*
%TD*%
%TO.C,MX12*%
X282633750Y-99060000D03*
X295533750Y-96520000D03*
%TD*%
%TO.C,MX30*%
X305058750Y-120332500D03*
X292158750Y-122872500D03*
%TD*%
%TO.C,MX55*%
X163571250Y-160972500D03*
X176471250Y-158432500D03*
%TD*%
%TO.C,MX73*%
X243146250Y-177482500D03*
X230246250Y-180022500D03*
%TD*%
%TO.C,MX48*%
X344546250Y-141922500D03*
X357446250Y-139382500D03*
%TD*%
%TO.C,MX14*%
X325496250Y-99060000D03*
X338396250Y-96520000D03*
%TD*%
%TO.C,MX34*%
X63558750Y-141922500D03*
X76458750Y-139382500D03*
%TD*%
%TO.C,MX20*%
X92133750Y-122872500D03*
X105033750Y-120332500D03*
%TD*%
%TO.C,MX43*%
X247908750Y-139382500D03*
X235008750Y-141922500D03*
%TD*%
%TO.C,MX67*%
X115946250Y-180022500D03*
X128846250Y-177482500D03*
%TD*%
%TO.C,MX70*%
X173096250Y-180022500D03*
X185996250Y-177482500D03*
%TD*%
%TO.C,MX9*%
X228858750Y-96520000D03*
X215958750Y-99060000D03*
%TD*%
%TO.C,MX45*%
X286008750Y-139382500D03*
X273108750Y-141922500D03*
%TD*%
%TO.C,MX32*%
X376496250Y-120332500D03*
X363596250Y-122872500D03*
%TD*%
%TO.C,MX39*%
X171708750Y-139382500D03*
X158808750Y-141922500D03*
%TD*%
%TO.C,MX3*%
X92133750Y-99060000D03*
X105033750Y-96520000D03*
%TD*%
%TO.C,MX41*%
X209808750Y-139382500D03*
X196908750Y-141922500D03*
%TD*%
%TO.C,MX50*%
X81221250Y-158432500D03*
X68321250Y-160972500D03*
%TD*%
%TO.C,MX2*%
X73083750Y-99060000D03*
X85983750Y-96520000D03*
%TD*%
%TO.C,MX46*%
X309821250Y-139382500D03*
X296921250Y-141922500D03*
%TD*%
%TO.C,MX77*%
X52646250Y-196532500D03*
X39746250Y-199072500D03*
%TD*%
%TO.C,MX19*%
X73083750Y-122872500D03*
X85983750Y-120332500D03*
%TD*%
%TO.C,MX78*%
X76458750Y-196532500D03*
X63558750Y-199072500D03*
%TD*%
%TO.C,MX15*%
X357446250Y-96520000D03*
X344546250Y-99060000D03*
%TD*%
%TO.C,MX44*%
X266958750Y-139382500D03*
X254058750Y-141922500D03*
%TD*%
%TO.C,MX75*%
X285015000Y-180022500D03*
X297915000Y-177482500D03*
%TD*%
%TO.C,MX85*%
X344546250Y-199072500D03*
X357446250Y-196532500D03*
%TD*%
%TO.C,MX7*%
X177858750Y-99060000D03*
X190758750Y-96520000D03*
%TD*%
%TO.C,MX60*%
X258821250Y-160972500D03*
X271721250Y-158432500D03*
%TD*%
%TO.C,MX40*%
X177858750Y-141922500D03*
X190758750Y-139382500D03*
%TD*%
%TO.C,MX84*%
X338396250Y-196532500D03*
X325496250Y-199072500D03*
%TD*%
%TO.C,MX21*%
X124083750Y-120332500D03*
X111183750Y-122872500D03*
%TD*%
%TO.C,MX49*%
X37365000Y-160972500D03*
X50265000Y-158432500D03*
%TD*%
%TO.C,MX4*%
X111183750Y-99060000D03*
X124083750Y-96520000D03*
%TD*%
%TO.C,MX1*%
X34983750Y-99060000D03*
X47883750Y-96520000D03*
%TD*%
%TO.C,MX23*%
X162183750Y-120332500D03*
X149283750Y-122872500D03*
%TD*%
%TO.C,MX13*%
X314583750Y-96520000D03*
X301683750Y-99060000D03*
%TD*%
%TO.C,MX38*%
X152658750Y-139382500D03*
X139758750Y-141922500D03*
%TD*%
%TO.C,MX63*%
X357446250Y-120332500D03*
X344546250Y-122872500D03*
%TD*%
%TO.C,MX83*%
X309821250Y-196532500D03*
X296921250Y-199072500D03*
%TD*%
%TO.C,MX8*%
X209808750Y-96520000D03*
X196908750Y-99060000D03*
%TD*%
%TO.C,MX47*%
X338396250Y-139382500D03*
X325496250Y-141922500D03*
%TD*%
%TO.C,MX57*%
X214571250Y-158432500D03*
X201671250Y-160972500D03*
%TD*%
%TO.C,MX82*%
X273108750Y-199072500D03*
X286008750Y-196532500D03*
%TD*%
%TO.C,MX10*%
X244533750Y-99060000D03*
X257433750Y-96520000D03*
%TD*%
%TO.C,MX62*%
X344546250Y-180022500D03*
X357446250Y-177482500D03*
%TD*%
%TO.C,MX36*%
X101658750Y-141922500D03*
X114558750Y-139382500D03*
%TD*%
%TO.C,MX52*%
X119321250Y-158432500D03*
X106421250Y-160972500D03*
%TD*%
%TO.C,MX25*%
X187383750Y-122872500D03*
X200283750Y-120332500D03*
%TD*%
%TO.C,MX35*%
X82608750Y-141922500D03*
X95508750Y-139382500D03*
%TD*%
%TO.C,MX17*%
X47883750Y-120332500D03*
X34983750Y-122872500D03*
%TD*%
%TO.C,MX69*%
X154046250Y-180022500D03*
X166946250Y-177482500D03*
%TD*%
%TO.C,MX86*%
X376496250Y-196532500D03*
X363596250Y-199072500D03*
%TD*%
%TO.C,MX74*%
X262196250Y-177482500D03*
X249296250Y-180022500D03*
%TD*%
%TO.C,MX18*%
X54033750Y-122872500D03*
X66933750Y-120332500D03*
%TD*%
%TO.C,MX58*%
X233621250Y-158432500D03*
X220721250Y-160972500D03*
%TD*%
%TO.C,MX51*%
X87371250Y-160972500D03*
X100271250Y-158432500D03*
%TD*%
%TO.C,MX53*%
X125471250Y-160972500D03*
X138371250Y-158432500D03*
%TD*%
M02*
