%TF.GenerationSoftware,KiCad,Pcbnew,(6.0.1)*%
%TF.CreationDate,2022-02-19T02:25:24-05:00*%
%TF.ProjectId,TKL,544b4c2e-6b69-4636-9164-5f7063625858,rev?*%
%TF.SameCoordinates,Original*%
%TF.FileFunction,Soldermask,Bot*%
%TF.FilePolarity,Negative*%
%FSLAX46Y46*%
G04 Gerber Fmt 4.6, Leading zero omitted, Abs format (unit mm)*
G04 Created by KiCad (PCBNEW (6.0.1)) date 2022-02-19 02:25:24*
%MOMM*%
%LPD*%
G01*
G04 APERTURE LIST*
%ADD10C,0.264583*%
%ADD11C,0.750000*%
%ADD12C,3.987800*%
%ADD13C,1.750000*%
%ADD14C,3.048000*%
%ADD15R,2.550000X2.500000*%
%ADD16R,1.600000X1.600000*%
%ADD17C,1.600000*%
%ADD18R,1.905000X1.905000*%
%ADD19C,1.905000*%
%ADD20O,1.600000X1.600000*%
G04 APERTURE END LIST*
D10*
X368793536Y-167668745D02*
X368793536Y-167795481D01*
X368793536Y-167795481D02*
X368799357Y-167835697D01*
X368799357Y-167835697D02*
X368799357Y-167910575D01*
X368799357Y-167910575D02*
X368804913Y-167945236D01*
X368804913Y-167945236D02*
X368804913Y-167979896D01*
X368804913Y-167979896D02*
X368810734Y-168014557D01*
X368810734Y-168014557D02*
X368816555Y-168043132D01*
X368816555Y-168043132D02*
X368816555Y-168077792D01*
X368816555Y-168077792D02*
X368821846Y-168106896D01*
X368821846Y-168106896D02*
X368827403Y-168135735D01*
X368827403Y-168135735D02*
X368833224Y-168164574D01*
X368833224Y-168164574D02*
X368839044Y-168193414D01*
X368839044Y-168193414D02*
X368844865Y-168216432D01*
X368844865Y-168216432D02*
X368850686Y-168245272D01*
X368850686Y-168245272D02*
X368856507Y-168268290D01*
X368856507Y-168268290D02*
X368862063Y-168291309D01*
X368862063Y-168291309D02*
X368867884Y-168314328D01*
X368867884Y-168314328D02*
X368873705Y-168337347D01*
X368873705Y-168337347D02*
X368879526Y-168360365D01*
X368879526Y-168360365D02*
X368890903Y-168377828D01*
X368890903Y-168377828D02*
X368896724Y-168400847D01*
X368896724Y-168400847D02*
X368908366Y-168435242D01*
X368908366Y-168435242D02*
X368925564Y-168469903D01*
X368925564Y-168469903D02*
X368942761Y-168498742D01*
X368942761Y-168498742D02*
X368954138Y-168527318D01*
X368954138Y-168527318D02*
X368971336Y-168556157D01*
X368971336Y-168556157D02*
X368988798Y-168579176D01*
X368988798Y-168579176D02*
X369007055Y-168596375D01*
X369007055Y-168596375D02*
X369018432Y-168613837D01*
X369018432Y-168613837D02*
X369035894Y-168631035D01*
X369035894Y-168631035D02*
X369047272Y-168648233D01*
X369047272Y-168648233D02*
X369064734Y-168659875D01*
X369064734Y-168659875D02*
X369076111Y-168665696D01*
X369076111Y-168665696D02*
X369087753Y-168677073D01*
X369087753Y-168677073D02*
X369099130Y-168682894D01*
X369099130Y-168682894D02*
X369110771Y-168688714D01*
X369110771Y-168688714D02*
X369122149Y-168694535D01*
X369122149Y-168694535D02*
X369127705Y-168694535D01*
X369127705Y-168694535D02*
X369133526Y-168700355D01*
X369133526Y-168700355D02*
X369145167Y-168700355D01*
X369145167Y-168700355D02*
X369149836Y-168699845D01*
X369149836Y-168699845D02*
X369154449Y-168699092D01*
X369154449Y-168699092D02*
X369158997Y-168698102D01*
X369158997Y-168698102D02*
X369163471Y-168696878D01*
X369163471Y-168696878D02*
X369167864Y-168695426D01*
X369167864Y-168695426D02*
X369172167Y-168693751D01*
X369172167Y-168693751D02*
X369176371Y-168691856D01*
X369176371Y-168691856D02*
X369180469Y-168689747D01*
X369180469Y-168689747D02*
X369184452Y-168687427D01*
X369184452Y-168687427D02*
X369188311Y-168684902D01*
X369188311Y-168684902D02*
X369192038Y-168682176D01*
X369192038Y-168682176D02*
X369195625Y-168679254D01*
X369195625Y-168679254D02*
X369199063Y-168676141D01*
X369199063Y-168676141D02*
X369202345Y-168672840D01*
X369202345Y-168672840D02*
X369205460Y-168669356D01*
X369205460Y-168669356D02*
X369208403Y-168665695D01*
X369208403Y-168665695D02*
X369223877Y-168641293D01*
X369223877Y-168641293D02*
X369241038Y-168616735D01*
X369241038Y-168616735D02*
X369279865Y-168567342D01*
X369279865Y-168567342D02*
X369323777Y-168517897D01*
X369323777Y-168517897D02*
X369371667Y-168468779D01*
X369371667Y-168468779D02*
X369422428Y-168420368D01*
X369422428Y-168420368D02*
X369474954Y-168373043D01*
X369474954Y-168373043D02*
X369580870Y-168283174D01*
X369580870Y-168283174D02*
X369765169Y-168133188D01*
X369765169Y-168133188D02*
X369799050Y-168104106D01*
X369799050Y-168104106D02*
X369825841Y-168079149D01*
X369825841Y-168079149D02*
X369844434Y-168058697D01*
X369844434Y-168058697D02*
X369850310Y-168050279D01*
X369850310Y-168050279D02*
X369853722Y-168043130D01*
X369853722Y-168043130D02*
X369853655Y-168042609D01*
X369853655Y-168042609D02*
X369853456Y-168042087D01*
X369853456Y-168042087D02*
X369853128Y-168041566D01*
X369853128Y-168041566D02*
X369852674Y-168041046D01*
X369852674Y-168041046D02*
X369852097Y-168040530D01*
X369852097Y-168040530D02*
X369851400Y-168040017D01*
X369851400Y-168040017D02*
X369850586Y-168039510D01*
X369850586Y-168039510D02*
X369849658Y-168039009D01*
X369849658Y-168039009D02*
X369848618Y-168038515D01*
X369848618Y-168038515D02*
X369847470Y-168038030D01*
X369847470Y-168038030D02*
X369844862Y-168037089D01*
X369844862Y-168037089D02*
X369841855Y-168036195D01*
X369841855Y-168036195D02*
X369838475Y-168035358D01*
X369838475Y-168035358D02*
X369834744Y-168034586D01*
X369834744Y-168034586D02*
X369830687Y-168033888D01*
X369830687Y-168033888D02*
X369826326Y-168033273D01*
X369826326Y-168033273D02*
X369821686Y-168032750D01*
X369821686Y-168032750D02*
X369816791Y-168032327D01*
X369816791Y-168032327D02*
X369811663Y-168032014D01*
X369811663Y-168032014D02*
X369806326Y-168031820D01*
X369806326Y-168031820D02*
X369800805Y-168031753D01*
X369800805Y-168031753D02*
X369771622Y-168032467D01*
X369771622Y-168032467D02*
X369742364Y-168034482D01*
X369742364Y-168034482D02*
X369712954Y-168037613D01*
X369712954Y-168037613D02*
X369683318Y-168041675D01*
X369683318Y-168041675D02*
X369623062Y-168051845D01*
X369623062Y-168051845D02*
X369560993Y-168063503D01*
X369560993Y-168063503D02*
X369496506Y-168075162D01*
X369496506Y-168075162D02*
X369463166Y-168080526D01*
X369463166Y-168080526D02*
X369428995Y-168085331D01*
X369428995Y-168085331D02*
X369393917Y-168089393D01*
X369393917Y-168089393D02*
X369357857Y-168092525D01*
X369357857Y-168092525D02*
X369320738Y-168094540D01*
X369320738Y-168094540D02*
X369282486Y-168095253D01*
X369282486Y-168095253D02*
X369263857Y-168094980D01*
X369263857Y-168094980D02*
X369255426Y-168094639D01*
X369255426Y-168094639D02*
X369247557Y-168094162D01*
X369247557Y-168094162D02*
X369240233Y-168093548D01*
X369240233Y-168093548D02*
X369233434Y-168092798D01*
X369233434Y-168092798D02*
X369227140Y-168091911D01*
X369227140Y-168091911D02*
X369221334Y-168090888D01*
X369221334Y-168090888D02*
X369215997Y-168089728D01*
X369215997Y-168089728D02*
X369211108Y-168088432D01*
X369211108Y-168088432D02*
X369206650Y-168087000D01*
X369206650Y-168087000D02*
X369202603Y-168085431D01*
X369202603Y-168085431D02*
X369198948Y-168083725D01*
X369198948Y-168083725D02*
X369195666Y-168081883D01*
X369195666Y-168081883D02*
X369192739Y-168079905D01*
X369192739Y-168079905D02*
X369190147Y-168077791D01*
X369190147Y-168077791D02*
X369189334Y-168074964D01*
X369189334Y-168074964D02*
X369188432Y-168072170D01*
X369188432Y-168072170D02*
X369187443Y-168069411D01*
X369187443Y-168069411D02*
X369186368Y-168066688D01*
X369186368Y-168066688D02*
X369185207Y-168064004D01*
X369185207Y-168064004D02*
X369183962Y-168061360D01*
X369183962Y-168061360D02*
X369182634Y-168058759D01*
X369182634Y-168058759D02*
X369181224Y-168056202D01*
X369181224Y-168056202D02*
X369179733Y-168053691D01*
X369179733Y-168053691D02*
X369178163Y-168051228D01*
X369178163Y-168051228D02*
X369176514Y-168048816D01*
X369176514Y-168048816D02*
X369174787Y-168046455D01*
X369174787Y-168046455D02*
X369172984Y-168044149D01*
X369172984Y-168044149D02*
X369171106Y-168041899D01*
X369171106Y-168041899D02*
X369169153Y-168039707D01*
X369169153Y-168039707D02*
X369167128Y-168037574D01*
X369167128Y-168037574D02*
X369148557Y-167970679D01*
X369148557Y-167970679D02*
X369132596Y-167903193D01*
X369132596Y-167903193D02*
X369119257Y-167835193D01*
X369119257Y-167835193D02*
X369108550Y-167766754D01*
X369108550Y-167766754D02*
X369100486Y-167697954D01*
X369100486Y-167697954D02*
X369095074Y-167628869D01*
X369095074Y-167628869D02*
X369092325Y-167559576D01*
X369092325Y-167559576D02*
X369092251Y-167490151D01*
X369092251Y-167490151D02*
X369093747Y-167422100D01*
X369093747Y-167422100D02*
X369096501Y-167354106D01*
X369096501Y-167354106D02*
X369100511Y-167286185D01*
X369100511Y-167286185D02*
X369105775Y-167218355D01*
X369105775Y-167218355D02*
X369112292Y-167150633D01*
X369112292Y-167150633D02*
X369120060Y-167083038D01*
X369120060Y-167083038D02*
X369129078Y-167015586D01*
X369129078Y-167015586D02*
X369139345Y-166948294D01*
X369139345Y-166948294D02*
X369179828Y-166948285D01*
X369179828Y-166948285D02*
X369412846Y-166970766D01*
X369412846Y-166970766D02*
X369645435Y-166996929D01*
X369645435Y-166996929D02*
X369877552Y-167026767D01*
X369877552Y-167026767D02*
X370109153Y-167060274D01*
X370109153Y-167060274D02*
X370340194Y-167097443D01*
X370340194Y-167097443D02*
X370570632Y-167138268D01*
X370570632Y-167138268D02*
X370800424Y-167182742D01*
X370800424Y-167182742D02*
X371029526Y-167230857D01*
X371029526Y-167230857D02*
X371048338Y-167230425D01*
X371048338Y-167230425D02*
X371066956Y-167229155D01*
X371066956Y-167229155D02*
X371085351Y-167227088D01*
X371085351Y-167227088D02*
X371103499Y-167224266D01*
X371103499Y-167224266D02*
X371138944Y-167216520D01*
X371138944Y-167216520D02*
X371173081Y-167206248D01*
X371173081Y-167206248D02*
X371205698Y-167193780D01*
X371205698Y-167193780D02*
X371236586Y-167179444D01*
X371236586Y-167179444D02*
X371265532Y-167163571D01*
X371265532Y-167163571D02*
X371292326Y-167146491D01*
X371292326Y-167146491D02*
X371316758Y-167128533D01*
X371316758Y-167128533D02*
X371338616Y-167110027D01*
X371338616Y-167110027D02*
X371357690Y-167091304D01*
X371357690Y-167091304D02*
X371373769Y-167072693D01*
X371373769Y-167072693D02*
X371386642Y-167054523D01*
X371386642Y-167054523D02*
X371396097Y-167037125D01*
X371396097Y-167037125D02*
X371399478Y-167028819D01*
X371399478Y-167028819D02*
X371401925Y-167020829D01*
X371401925Y-167020829D02*
X371403413Y-167013197D01*
X371403413Y-167013197D02*
X371403915Y-167005964D01*
X371403915Y-167005964D02*
X371403847Y-167003311D01*
X371403847Y-167003311D02*
X371403644Y-167000758D01*
X371403644Y-167000758D02*
X371403303Y-166998304D01*
X371403303Y-166998304D02*
X371402825Y-166995944D01*
X371402825Y-166995944D02*
X371402207Y-166993679D01*
X371402207Y-166993679D02*
X371401449Y-166991505D01*
X371401449Y-166991505D02*
X371400550Y-166989420D01*
X371400550Y-166989420D02*
X371399508Y-166987422D01*
X371399508Y-166987422D02*
X371398323Y-166985510D01*
X371398323Y-166985510D02*
X371396994Y-166983679D01*
X371396994Y-166983679D02*
X371395519Y-166981930D01*
X371395519Y-166981930D02*
X371393897Y-166980259D01*
X371393897Y-166980259D02*
X371392128Y-166978663D01*
X371392128Y-166978663D02*
X371390210Y-166977142D01*
X371390210Y-166977142D02*
X371388142Y-166975693D01*
X371388142Y-166975693D02*
X371385923Y-166974313D01*
X371385923Y-166974313D02*
X371383553Y-166973001D01*
X371383553Y-166973001D02*
X371381029Y-166971754D01*
X371381029Y-166971754D02*
X371378352Y-166970570D01*
X371378352Y-166970570D02*
X371375519Y-166969447D01*
X371375519Y-166969447D02*
X371372530Y-166968382D01*
X371372530Y-166968382D02*
X371369384Y-166967375D01*
X371369384Y-166967375D02*
X371366079Y-166966421D01*
X371366079Y-166966421D02*
X371362615Y-166965520D01*
X371362615Y-166965520D02*
X371358991Y-166964669D01*
X371358991Y-166964669D02*
X371355205Y-166963865D01*
X371355205Y-166963865D02*
X371347144Y-166962393D01*
X371347144Y-166962393D02*
X371338425Y-166961086D01*
X371338425Y-166961086D02*
X371329038Y-166959927D01*
X371329038Y-166959927D02*
X370215109Y-166848074D01*
X370215109Y-166848074D02*
X369179563Y-166752493D01*
X369179563Y-166752493D02*
X369187241Y-166734677D01*
X369187241Y-166734677D02*
X369195364Y-166717946D01*
X369195364Y-166717946D02*
X369203890Y-166702237D01*
X369203890Y-166702237D02*
X369212778Y-166687487D01*
X369212778Y-166687487D02*
X369221985Y-166673632D01*
X369221985Y-166673632D02*
X369231470Y-166660610D01*
X369231470Y-166660610D02*
X369241192Y-166648356D01*
X369241192Y-166648356D02*
X369251108Y-166636808D01*
X369251108Y-166636808D02*
X369271357Y-166615575D01*
X369271357Y-166615575D02*
X369291882Y-166596405D01*
X369291882Y-166596405D02*
X369312350Y-166578790D01*
X369312350Y-166578790D02*
X369332426Y-166562225D01*
X369332426Y-166562225D02*
X369351777Y-166546202D01*
X369351777Y-166546202D02*
X369370068Y-166530215D01*
X369370068Y-166530215D02*
X369386966Y-166513757D01*
X369386966Y-166513757D02*
X369394788Y-166505194D01*
X369394788Y-166505194D02*
X369402136Y-166496323D01*
X369402136Y-166496323D02*
X369408968Y-166487081D01*
X369408968Y-166487081D02*
X369415243Y-166477405D01*
X369415243Y-166477405D02*
X369420920Y-166467231D01*
X369420920Y-166467231D02*
X369425955Y-166456496D01*
X369425955Y-166456496D02*
X369430308Y-166445137D01*
X369430308Y-166445137D02*
X369433937Y-166433091D01*
X369433937Y-166433091D02*
X369436800Y-166420294D01*
X369436800Y-166420294D02*
X369438855Y-166406683D01*
X369438855Y-166406683D02*
X369438714Y-166393116D01*
X369438714Y-166393116D02*
X369438274Y-166380501D01*
X369438274Y-166380501D02*
X369437508Y-166368846D01*
X369437508Y-166368846D02*
X369436391Y-166358161D01*
X369436391Y-166358161D02*
X369434895Y-166348453D01*
X369434895Y-166348453D02*
X369432995Y-166339733D01*
X369432995Y-166339733D02*
X369430663Y-166332009D01*
X369430663Y-166332009D02*
X369427875Y-166325290D01*
X369427875Y-166325290D02*
X369426301Y-166322310D01*
X369426301Y-166322310D02*
X369424602Y-166319585D01*
X369424602Y-166319585D02*
X369422777Y-166317116D01*
X369422777Y-166317116D02*
X369420820Y-166314903D01*
X369420820Y-166314903D02*
X369418729Y-166312948D01*
X369418729Y-166312948D02*
X369416501Y-166311252D01*
X369416501Y-166311252D02*
X369414132Y-166309817D01*
X369414132Y-166309817D02*
X369411619Y-166308642D01*
X369411619Y-166308642D02*
X369408959Y-166307730D01*
X369408959Y-166307730D02*
X369406149Y-166307082D01*
X369406149Y-166307082D02*
X369403184Y-166306698D01*
X369403184Y-166306698D02*
X369400062Y-166306580D01*
X369400062Y-166306580D02*
X369396780Y-166306729D01*
X369396780Y-166306729D02*
X369393334Y-166307145D01*
X369393334Y-166307145D02*
X369389722Y-166307831D01*
X369389722Y-166307831D02*
X369385938Y-166308787D01*
X369385938Y-166308787D02*
X369364512Y-166315912D01*
X369364512Y-166315912D02*
X369343265Y-166323496D01*
X369343265Y-166323496D02*
X369322202Y-166331535D01*
X369322202Y-166331535D02*
X369301331Y-166340025D01*
X369301331Y-166340025D02*
X369280659Y-166348962D01*
X369280659Y-166348962D02*
X369260194Y-166358343D01*
X369260194Y-166358343D02*
X369239942Y-166368164D01*
X369239942Y-166368164D02*
X369219910Y-166378422D01*
X369219910Y-166378422D02*
X369200106Y-166389111D01*
X369200106Y-166389111D02*
X369180536Y-166400230D01*
X369180536Y-166400230D02*
X369161208Y-166411774D01*
X369161208Y-166411774D02*
X369142128Y-166423739D01*
X369142128Y-166423739D02*
X369123305Y-166436122D01*
X369123305Y-166436122D02*
X369104744Y-166448919D01*
X369104744Y-166448919D02*
X369086452Y-166462126D01*
X369086452Y-166462126D02*
X369068438Y-166475739D01*
X369068438Y-166475739D02*
X368689555Y-165968798D01*
X368689555Y-165968798D02*
X368686603Y-165959226D01*
X368686603Y-165959226D02*
X368684207Y-165950320D01*
X368684207Y-165950320D02*
X368682384Y-165942023D01*
X368682384Y-165942023D02*
X368681150Y-165934282D01*
X368681150Y-165934282D02*
X368680523Y-165927041D01*
X368680523Y-165927041D02*
X368680442Y-165923592D01*
X368680442Y-165923592D02*
X368680518Y-165920247D01*
X368680518Y-165920247D02*
X368680755Y-165917000D01*
X368680755Y-165917000D02*
X368681153Y-165913844D01*
X368681153Y-165913844D02*
X368681716Y-165910772D01*
X368681716Y-165910772D02*
X368682444Y-165907778D01*
X368682444Y-165907778D02*
X368683341Y-165904854D01*
X368683341Y-165904854D02*
X368684408Y-165901994D01*
X368684408Y-165901994D02*
X368685647Y-165899191D01*
X368685647Y-165899191D02*
X368687061Y-165896438D01*
X368687061Y-165896438D02*
X368688652Y-165893728D01*
X368688652Y-165893728D02*
X368690421Y-165891054D01*
X368690421Y-165891054D02*
X368692371Y-165888410D01*
X368692371Y-165888410D02*
X368694503Y-165885789D01*
X368694503Y-165885789D02*
X368699325Y-165880587D01*
X368699325Y-165880587D02*
X368704903Y-165875394D01*
X368704903Y-165875394D02*
X368711254Y-165870155D01*
X368711254Y-165870155D02*
X368718394Y-165864816D01*
X368718394Y-165864816D02*
X368720804Y-165863923D01*
X368720804Y-165863923D02*
X368723235Y-165863101D01*
X368723235Y-165863101D02*
X368725685Y-165862351D01*
X368725685Y-165862351D02*
X368728154Y-165861674D01*
X368728154Y-165861674D02*
X368730639Y-165861068D01*
X368730639Y-165861068D02*
X368733139Y-165860536D01*
X368733139Y-165860536D02*
X368735653Y-165860077D01*
X368735653Y-165860077D02*
X368738178Y-165859690D01*
X368738178Y-165859690D02*
X368740714Y-165859377D01*
X368740714Y-165859377D02*
X368743258Y-165859138D01*
X368743258Y-165859138D02*
X368745809Y-165858973D01*
X368745809Y-165858973D02*
X368748365Y-165858881D01*
X368748365Y-165858881D02*
X368750925Y-165858864D01*
X368750925Y-165858864D02*
X368753487Y-165858921D01*
X368753487Y-165858921D02*
X368756050Y-165859053D01*
X368756050Y-165859053D02*
X368758611Y-165859260D01*
X368758611Y-165859260D02*
X368809915Y-165862558D01*
X368809915Y-165862558D02*
X368869885Y-165871880D01*
X368869885Y-165871880D02*
X368937061Y-165886363D01*
X368937061Y-165886363D02*
X369009982Y-165905149D01*
X369009982Y-165905149D02*
X369167219Y-165952185D01*
X369167219Y-165952185D02*
X369329913Y-166006104D01*
X369329913Y-166006104D02*
X369624940Y-166107059D01*
X369624940Y-166107059D02*
X369733907Y-166140328D01*
X369733907Y-166140328D02*
X369773642Y-166149649D01*
X369773642Y-166149649D02*
X369801599Y-166152948D01*
X369801599Y-166152948D02*
X369811210Y-166153459D01*
X369811210Y-166153459D02*
X369820802Y-166153549D01*
X369820802Y-166153549D02*
X369830361Y-166153224D01*
X369830361Y-166153224D02*
X369839876Y-166152485D01*
X369839876Y-166152485D02*
X369849332Y-166151337D01*
X369849332Y-166151337D02*
X369858717Y-166149783D01*
X369858717Y-166149783D02*
X369868018Y-166147828D01*
X369868018Y-166147828D02*
X369877221Y-166145473D01*
X369877221Y-166145473D02*
X369886315Y-166142724D01*
X369886315Y-166142724D02*
X369895285Y-166139584D01*
X369895285Y-166139584D02*
X369904120Y-166136057D01*
X369904120Y-166136057D02*
X369912805Y-166132145D01*
X369912805Y-166132145D02*
X369921328Y-166127853D01*
X369921328Y-166127853D02*
X369929677Y-166123184D01*
X369929677Y-166123184D02*
X369937837Y-166118142D01*
X369937837Y-166118142D02*
X369945797Y-166112731D01*
X369945797Y-166112731D02*
X369956288Y-166106634D01*
X369956288Y-166106634D02*
X369966562Y-166100218D01*
X369966562Y-166100218D02*
X369976613Y-166093489D01*
X369976613Y-166093489D02*
X369986432Y-166086455D01*
X369986432Y-166086455D02*
X369996015Y-166079120D01*
X369996015Y-166079120D02*
X370005355Y-166071492D01*
X370005355Y-166071492D02*
X370014444Y-166063576D01*
X370014444Y-166063576D02*
X370023276Y-166055379D01*
X370023276Y-166055379D02*
X370031846Y-166046908D01*
X370031846Y-166046908D02*
X370040145Y-166038168D01*
X370040145Y-166038168D02*
X370048168Y-166029165D01*
X370048168Y-166029165D02*
X370055909Y-166019907D01*
X370055909Y-166019907D02*
X370063359Y-166010399D01*
X370063359Y-166010399D02*
X370070514Y-166000647D01*
X370070514Y-166000647D02*
X370077366Y-165990659D01*
X370077366Y-165990659D02*
X370083909Y-165980439D01*
X370083909Y-165980439D02*
X370088279Y-165969573D01*
X370088279Y-165969573D02*
X370091489Y-165959622D01*
X370091489Y-165959622D02*
X370093575Y-165950547D01*
X370093575Y-165950547D02*
X370094570Y-165942313D01*
X370094570Y-165942313D02*
X370094509Y-165934881D01*
X370094509Y-165934881D02*
X370093426Y-165928214D01*
X370093426Y-165928214D02*
X370091356Y-165922275D01*
X370091356Y-165922275D02*
X370088332Y-165917026D01*
X370088332Y-165917026D02*
X370084391Y-165912430D01*
X370084391Y-165912430D02*
X370079565Y-165908450D01*
X370079565Y-165908450D02*
X370073889Y-165905049D01*
X370073889Y-165905049D02*
X370067398Y-165902188D01*
X370067398Y-165902188D02*
X370060126Y-165899831D01*
X370060126Y-165899831D02*
X370052108Y-165897941D01*
X370052108Y-165897941D02*
X370043377Y-165896479D01*
X370043377Y-165896479D02*
X370033969Y-165895409D01*
X370033969Y-165895409D02*
X370023917Y-165894693D01*
X370023917Y-165894693D02*
X370013256Y-165894294D01*
X370013256Y-165894294D02*
X369990245Y-165894297D01*
X369990245Y-165894297D02*
X369965211Y-165895120D01*
X369965211Y-165895120D02*
X369938430Y-165896463D01*
X369938430Y-165896463D02*
X369880722Y-165899515D01*
X369880722Y-165899515D02*
X369850348Y-165900627D01*
X369850348Y-165900627D02*
X369819326Y-165901064D01*
X369819326Y-165901064D02*
X369746093Y-165897763D01*
X369746093Y-165897763D02*
X369665684Y-165888433D01*
X369665684Y-165888433D02*
X369579568Y-165873937D01*
X369579568Y-165873937D02*
X369489212Y-165855134D01*
X369489212Y-165855134D02*
X369301660Y-165808056D01*
X369301660Y-165808056D02*
X369114773Y-165754088D01*
X369114773Y-165754088D02*
X368789993Y-165653042D01*
X368789993Y-165653042D02*
X368675596Y-165619743D01*
X368675596Y-165619743D02*
X368635535Y-165610413D01*
X368635535Y-165610413D02*
X368608857Y-165607112D01*
X368608857Y-165607112D02*
X368596928Y-165607760D01*
X368596928Y-165607760D02*
X368583878Y-165609659D01*
X368583878Y-165609659D02*
X368554803Y-165616944D01*
X368554803Y-165616944D02*
X368522411Y-165628437D01*
X368522411Y-165628437D02*
X368487479Y-165643604D01*
X368487479Y-165643604D02*
X368450787Y-165661913D01*
X368450787Y-165661913D02*
X368413111Y-165682833D01*
X368413111Y-165682833D02*
X368375231Y-165705831D01*
X368375231Y-165705831D02*
X368337924Y-165730375D01*
X368337924Y-165730375D02*
X368301969Y-165755933D01*
X368301969Y-165755933D02*
X368268144Y-165781972D01*
X368268144Y-165781972D02*
X368237228Y-165807961D01*
X368237228Y-165807961D02*
X368209998Y-165833368D01*
X368209998Y-165833368D02*
X368187233Y-165857660D01*
X368187233Y-165857660D02*
X368169711Y-165880305D01*
X368169711Y-165880305D02*
X368163159Y-165890844D01*
X368163159Y-165890844D02*
X368158210Y-165900772D01*
X368158210Y-165900772D02*
X368154961Y-165910021D01*
X368154961Y-165910021D02*
X368153509Y-165918527D01*
X368153509Y-165918527D02*
X368151486Y-165923447D01*
X368151486Y-165923447D02*
X368149731Y-165928287D01*
X368149731Y-165928287D02*
X368148244Y-165933045D01*
X368148244Y-165933045D02*
X368147024Y-165937721D01*
X368147024Y-165937721D02*
X368146070Y-165942315D01*
X368146070Y-165942315D02*
X368145380Y-165946826D01*
X368145380Y-165946826D02*
X368144954Y-165951253D01*
X368144954Y-165951253D02*
X368144790Y-165955597D01*
X368144790Y-165955597D02*
X368144888Y-165959857D01*
X368144888Y-165959857D02*
X368145247Y-165964033D01*
X368145247Y-165964033D02*
X368145865Y-165968123D01*
X368145865Y-165968123D02*
X368146742Y-165972128D01*
X368146742Y-165972128D02*
X368147876Y-165976047D01*
X368147876Y-165976047D02*
X368149267Y-165979880D01*
X368149267Y-165979880D02*
X368150914Y-165983626D01*
X368150914Y-165983626D02*
X368152815Y-165987285D01*
X368152815Y-165987285D02*
X368154969Y-165990857D01*
X368154969Y-165990857D02*
X368157376Y-165994340D01*
X368157376Y-165994340D02*
X368160034Y-165997735D01*
X368160034Y-165997735D02*
X368162943Y-166001041D01*
X368162943Y-166001041D02*
X368166101Y-166004258D01*
X368166101Y-166004258D02*
X368169507Y-166007385D01*
X368169507Y-166007385D02*
X368173161Y-166010421D01*
X368173161Y-166010421D02*
X368177061Y-166013367D01*
X368177061Y-166013367D02*
X368181207Y-166016222D01*
X368181207Y-166016222D02*
X368185597Y-166018986D01*
X368185597Y-166018986D02*
X368190230Y-166021657D01*
X368190230Y-166021657D02*
X368195105Y-166024236D01*
X368195105Y-166024236D02*
X368200222Y-166026723D01*
X368200222Y-166026723D02*
X368205579Y-166029116D01*
X368205579Y-166029116D02*
X368217009Y-166033620D01*
X368217009Y-166033620D02*
X368270222Y-166056145D01*
X368270222Y-166056145D02*
X368322861Y-166079853D01*
X368322861Y-166079853D02*
X368374907Y-166104731D01*
X368374907Y-166104731D02*
X368426342Y-166130767D01*
X368426342Y-166130767D02*
X368477147Y-166157950D01*
X368477147Y-166157950D02*
X368527304Y-166186267D01*
X368527304Y-166186267D02*
X368576793Y-166215707D01*
X368576793Y-166215707D02*
X368625595Y-166246257D01*
X368625595Y-166246257D02*
X368673693Y-166277905D01*
X368673693Y-166277905D02*
X368721067Y-166310640D01*
X368721067Y-166310640D02*
X368767699Y-166344449D01*
X368767699Y-166344449D02*
X368813569Y-166379320D01*
X368813569Y-166379320D02*
X368858659Y-166415241D01*
X368858659Y-166415241D02*
X368902951Y-166452200D01*
X368902951Y-166452200D02*
X368946425Y-166490185D01*
X368946425Y-166490185D02*
X368989063Y-166529185D01*
X368989063Y-166529185D02*
X368983242Y-166529185D01*
X368983242Y-166529185D02*
X368971969Y-166538119D01*
X368971969Y-166538119D02*
X368961180Y-166547543D01*
X368961180Y-166547543D02*
X368950886Y-166557436D01*
X368950886Y-166557436D02*
X368941101Y-166567779D01*
X368941101Y-166567779D02*
X368931838Y-166578549D01*
X368931838Y-166578549D02*
X368923107Y-166589728D01*
X368923107Y-166589728D02*
X368914923Y-166601294D01*
X368914923Y-166601294D02*
X368907296Y-166613226D01*
X368907296Y-166613226D02*
X368900241Y-166625505D01*
X368900241Y-166625505D02*
X368893769Y-166638109D01*
X368893769Y-166638109D02*
X368887893Y-166651018D01*
X368887893Y-166651018D02*
X368882625Y-166664212D01*
X368882625Y-166664212D02*
X368877977Y-166677669D01*
X368877977Y-166677669D02*
X368873963Y-166691371D01*
X368873963Y-166691371D02*
X368870594Y-166705294D01*
X368870594Y-166705294D02*
X368867884Y-166719421D01*
X368867884Y-166719421D02*
X367914198Y-166583503D01*
X367914198Y-166583503D02*
X367431031Y-166509176D01*
X367431031Y-166509176D02*
X367208417Y-166471771D01*
X367208417Y-166471771D02*
X367184952Y-166472468D01*
X367184952Y-166472468D02*
X367161091Y-166474515D01*
X367161091Y-166474515D02*
X367136907Y-166477843D01*
X367136907Y-166477843D02*
X367112478Y-166482387D01*
X367112478Y-166482387D02*
X367063177Y-166494848D01*
X367063177Y-166494848D02*
X367013787Y-166511359D01*
X367013787Y-166511359D02*
X366964908Y-166531379D01*
X366964908Y-166531379D02*
X366917138Y-166554370D01*
X366917138Y-166554370D02*
X366871075Y-166579792D01*
X366871075Y-166579792D02*
X366827318Y-166607105D01*
X366827318Y-166607105D02*
X366786467Y-166635770D01*
X366786467Y-166635770D02*
X366749120Y-166665247D01*
X366749120Y-166665247D02*
X366715876Y-166694997D01*
X366715876Y-166694997D02*
X366687333Y-166724481D01*
X366687333Y-166724481D02*
X366664091Y-166753158D01*
X366664091Y-166753158D02*
X366646748Y-166780490D01*
X366646748Y-166780490D02*
X366640476Y-166793482D01*
X366640476Y-166793482D02*
X366635903Y-166805936D01*
X366635903Y-166805936D02*
X366633104Y-166817784D01*
X366633104Y-166817784D02*
X366632155Y-166828958D01*
X366632155Y-166828958D02*
X366632356Y-166835282D01*
X366632356Y-166835282D02*
X366632954Y-166841310D01*
X366632954Y-166841310D02*
X366633943Y-166847048D01*
X366633943Y-166847048D02*
X366635313Y-166852502D01*
X366635313Y-166852502D02*
X366637059Y-166857680D01*
X366637059Y-166857680D02*
X366639173Y-166862586D01*
X366639173Y-166862586D02*
X366641647Y-166867227D01*
X366641647Y-166867227D02*
X366644475Y-166871610D01*
X366644475Y-166871610D02*
X366647648Y-166875740D01*
X366647648Y-166875740D02*
X366651159Y-166879625D01*
X366651159Y-166879625D02*
X366655001Y-166883269D01*
X366655001Y-166883269D02*
X366659167Y-166886680D01*
X366659167Y-166886680D02*
X366663649Y-166889864D01*
X366663649Y-166889864D02*
X366668441Y-166892827D01*
X366668441Y-166892827D02*
X366673533Y-166895574D01*
X366673533Y-166895574D02*
X366678920Y-166898114D01*
X366678920Y-166898114D02*
X366684594Y-166900451D01*
X366684594Y-166900451D02*
X366690547Y-166902591D01*
X366690547Y-166902591D02*
X366696772Y-166904542D01*
X366696772Y-166904542D02*
X366703262Y-166906310D01*
X366703262Y-166906310D02*
X366710009Y-166907900D01*
X366710009Y-166907900D02*
X366717006Y-166909319D01*
X366717006Y-166909319D02*
X366724246Y-166910574D01*
X366724246Y-166910574D02*
X366731721Y-166911669D01*
X366731721Y-166911669D02*
X366747347Y-166913410D01*
X366747347Y-166913410D02*
X366763827Y-166914592D01*
X366763827Y-166914592D02*
X366781099Y-166915264D01*
X366781099Y-166915264D02*
X366799107Y-166915477D01*
X366799107Y-166915477D02*
X366992580Y-166910293D01*
X366992580Y-166910293D02*
X367322155Y-166904563D01*
X367322155Y-166904563D02*
X367922793Y-166898014D01*
X367922793Y-166898014D02*
X368167962Y-166899284D01*
X368167962Y-166899284D02*
X368401821Y-166903802D01*
X368401821Y-166903802D02*
X368514322Y-166907613D01*
X368514322Y-166907613D02*
X368623773Y-166912637D01*
X368623773Y-166912637D02*
X368730098Y-166919006D01*
X368730098Y-166919006D02*
X368833224Y-166926854D01*
X368833224Y-166926854D02*
X368831496Y-166965170D01*
X368831496Y-166965170D02*
X368826940Y-167022745D01*
X368826940Y-167022745D02*
X368813115Y-167188362D01*
X368813115Y-167188362D02*
X368805732Y-167292752D01*
X368805732Y-167292752D02*
X368799291Y-167409094D01*
X368799291Y-167409094D02*
X368794735Y-167535564D01*
X368794735Y-167535564D02*
X368793459Y-167602025D01*
X368793459Y-167602025D02*
X368793007Y-167670333D01*
X368793007Y-167670333D02*
X368793536Y-167668745D01*
X368793536Y-167668745D02*
X368793536Y-167668745D01*
G36*
X368635535Y-165610413D02*
G01*
X368675596Y-165619743D01*
X368789993Y-165653042D01*
X369114773Y-165754088D01*
X369301660Y-165808056D01*
X369489212Y-165855134D01*
X369579568Y-165873937D01*
X369665684Y-165888433D01*
X369746093Y-165897763D01*
X369819326Y-165901064D01*
X369850348Y-165900627D01*
X369880722Y-165899515D01*
X369938430Y-165896463D01*
X369965211Y-165895120D01*
X369990245Y-165894297D01*
X370013256Y-165894294D01*
X370023917Y-165894693D01*
X370033969Y-165895409D01*
X370043377Y-165896479D01*
X370052108Y-165897941D01*
X370060126Y-165899831D01*
X370067398Y-165902188D01*
X370073889Y-165905049D01*
X370079565Y-165908450D01*
X370084391Y-165912430D01*
X370088332Y-165917026D01*
X370091356Y-165922275D01*
X370093426Y-165928214D01*
X370094509Y-165934881D01*
X370094570Y-165942313D01*
X370093575Y-165950547D01*
X370091489Y-165959622D01*
X370088279Y-165969573D01*
X370083909Y-165980439D01*
X370077366Y-165990659D01*
X370070514Y-166000647D01*
X370063359Y-166010399D01*
X370055909Y-166019907D01*
X370048168Y-166029165D01*
X370040145Y-166038168D01*
X370031846Y-166046908D01*
X370023276Y-166055379D01*
X370014444Y-166063576D01*
X370005355Y-166071492D01*
X369996015Y-166079120D01*
X369986432Y-166086455D01*
X369976613Y-166093489D01*
X369966562Y-166100218D01*
X369956288Y-166106634D01*
X369945797Y-166112731D01*
X369937837Y-166118142D01*
X369929677Y-166123184D01*
X369921328Y-166127853D01*
X369912805Y-166132145D01*
X369904120Y-166136057D01*
X369895285Y-166139584D01*
X369886315Y-166142724D01*
X369877221Y-166145473D01*
X369868018Y-166147828D01*
X369858717Y-166149783D01*
X369849332Y-166151337D01*
X369839876Y-166152485D01*
X369830361Y-166153224D01*
X369820802Y-166153549D01*
X369811210Y-166153459D01*
X369801599Y-166152948D01*
X369773642Y-166149649D01*
X369733907Y-166140328D01*
X369624940Y-166107059D01*
X369329913Y-166006104D01*
X369167219Y-165952185D01*
X369009982Y-165905149D01*
X368937061Y-165886363D01*
X368869885Y-165871880D01*
X368809915Y-165862558D01*
X368758611Y-165859260D01*
X368756050Y-165859053D01*
X368753487Y-165858921D01*
X368750925Y-165858864D01*
X368748365Y-165858881D01*
X368745809Y-165858973D01*
X368743258Y-165859138D01*
X368740714Y-165859377D01*
X368738178Y-165859690D01*
X368735653Y-165860077D01*
X368733139Y-165860536D01*
X368730639Y-165861068D01*
X368728154Y-165861674D01*
X368725685Y-165862351D01*
X368723235Y-165863101D01*
X368720804Y-165863923D01*
X368718394Y-165864816D01*
X368711254Y-165870155D01*
X368704903Y-165875394D01*
X368699325Y-165880587D01*
X368694503Y-165885789D01*
X368692371Y-165888410D01*
X368690421Y-165891054D01*
X368688652Y-165893728D01*
X368687061Y-165896438D01*
X368685647Y-165899191D01*
X368684408Y-165901994D01*
X368683341Y-165904854D01*
X368682444Y-165907778D01*
X368681716Y-165910772D01*
X368681153Y-165913844D01*
X368680755Y-165917000D01*
X368680518Y-165920247D01*
X368680442Y-165923592D01*
X368680523Y-165927041D01*
X368681150Y-165934282D01*
X368682384Y-165942023D01*
X368684207Y-165950320D01*
X368686603Y-165959226D01*
X368689555Y-165968798D01*
X369068438Y-166475739D01*
X369086452Y-166462126D01*
X369104744Y-166448919D01*
X369123305Y-166436122D01*
X369142128Y-166423739D01*
X369161208Y-166411774D01*
X369180536Y-166400230D01*
X369200106Y-166389111D01*
X369219910Y-166378422D01*
X369239942Y-166368164D01*
X369260194Y-166358343D01*
X369280659Y-166348962D01*
X369301331Y-166340025D01*
X369322202Y-166331535D01*
X369343265Y-166323496D01*
X369364512Y-166315912D01*
X369385938Y-166308787D01*
X369389722Y-166307831D01*
X369393334Y-166307145D01*
X369396780Y-166306729D01*
X369400062Y-166306580D01*
X369403184Y-166306698D01*
X369406149Y-166307082D01*
X369408959Y-166307730D01*
X369411619Y-166308642D01*
X369414132Y-166309817D01*
X369416501Y-166311252D01*
X369418729Y-166312948D01*
X369420820Y-166314903D01*
X369422777Y-166317116D01*
X369424602Y-166319585D01*
X369426301Y-166322310D01*
X369427875Y-166325290D01*
X369430663Y-166332009D01*
X369432995Y-166339733D01*
X369434895Y-166348453D01*
X369436391Y-166358161D01*
X369437508Y-166368846D01*
X369438274Y-166380501D01*
X369438714Y-166393116D01*
X369438855Y-166406683D01*
X369436800Y-166420294D01*
X369433937Y-166433091D01*
X369430308Y-166445137D01*
X369425955Y-166456496D01*
X369420920Y-166467231D01*
X369415243Y-166477405D01*
X369408968Y-166487081D01*
X369402136Y-166496323D01*
X369394788Y-166505194D01*
X369386966Y-166513757D01*
X369370068Y-166530215D01*
X369351777Y-166546202D01*
X369332426Y-166562225D01*
X369312350Y-166578790D01*
X369291882Y-166596405D01*
X369271357Y-166615575D01*
X369251108Y-166636808D01*
X369241192Y-166648356D01*
X369231470Y-166660610D01*
X369221985Y-166673632D01*
X369212778Y-166687487D01*
X369203890Y-166702237D01*
X369195364Y-166717946D01*
X369187241Y-166734677D01*
X369179563Y-166752493D01*
X370215109Y-166848074D01*
X371329038Y-166959927D01*
X371338425Y-166961086D01*
X371347144Y-166962393D01*
X371355205Y-166963865D01*
X371358991Y-166964669D01*
X371362615Y-166965520D01*
X371366079Y-166966421D01*
X371369384Y-166967375D01*
X371372530Y-166968382D01*
X371375519Y-166969447D01*
X371378352Y-166970570D01*
X371381029Y-166971754D01*
X371383553Y-166973001D01*
X371385923Y-166974313D01*
X371388142Y-166975693D01*
X371390210Y-166977142D01*
X371392128Y-166978663D01*
X371393897Y-166980259D01*
X371395519Y-166981930D01*
X371396994Y-166983679D01*
X371398323Y-166985510D01*
X371399508Y-166987422D01*
X371400550Y-166989420D01*
X371401449Y-166991505D01*
X371402207Y-166993679D01*
X371402825Y-166995944D01*
X371403303Y-166998304D01*
X371403644Y-167000758D01*
X371403847Y-167003311D01*
X371403915Y-167005964D01*
X371403413Y-167013197D01*
X371401925Y-167020829D01*
X371399478Y-167028819D01*
X371396097Y-167037125D01*
X371386642Y-167054523D01*
X371373769Y-167072693D01*
X371357690Y-167091304D01*
X371338616Y-167110027D01*
X371316758Y-167128533D01*
X371292326Y-167146491D01*
X371265532Y-167163571D01*
X371236586Y-167179444D01*
X371205698Y-167193780D01*
X371173081Y-167206248D01*
X371138944Y-167216520D01*
X371103499Y-167224266D01*
X371085351Y-167227088D01*
X371066956Y-167229155D01*
X371048338Y-167230425D01*
X371029526Y-167230857D01*
X370800424Y-167182742D01*
X370570632Y-167138268D01*
X370340194Y-167097443D01*
X370109153Y-167060274D01*
X369877552Y-167026767D01*
X369645435Y-166996929D01*
X369412846Y-166970766D01*
X369179828Y-166948285D01*
X369139345Y-166948294D01*
X369129078Y-167015586D01*
X369120060Y-167083038D01*
X369112292Y-167150633D01*
X369105775Y-167218355D01*
X369100511Y-167286185D01*
X369096501Y-167354106D01*
X369093747Y-167422100D01*
X369092251Y-167490151D01*
X369092325Y-167559576D01*
X369095074Y-167628869D01*
X369100486Y-167697954D01*
X369108550Y-167766754D01*
X369119257Y-167835193D01*
X369132596Y-167903193D01*
X369148557Y-167970679D01*
X369167128Y-168037574D01*
X369169153Y-168039707D01*
X369171106Y-168041899D01*
X369172984Y-168044149D01*
X369174787Y-168046455D01*
X369176514Y-168048816D01*
X369178163Y-168051228D01*
X369179733Y-168053691D01*
X369181224Y-168056202D01*
X369182634Y-168058759D01*
X369183962Y-168061360D01*
X369185207Y-168064004D01*
X369186368Y-168066688D01*
X369187443Y-168069411D01*
X369188432Y-168072170D01*
X369189334Y-168074964D01*
X369190147Y-168077791D01*
X369192739Y-168079905D01*
X369195666Y-168081883D01*
X369198948Y-168083725D01*
X369202603Y-168085431D01*
X369206650Y-168087000D01*
X369211108Y-168088432D01*
X369215997Y-168089728D01*
X369221334Y-168090888D01*
X369227140Y-168091911D01*
X369233434Y-168092798D01*
X369240233Y-168093548D01*
X369247557Y-168094162D01*
X369255426Y-168094639D01*
X369263857Y-168094980D01*
X369282486Y-168095253D01*
X369320738Y-168094540D01*
X369357857Y-168092525D01*
X369393917Y-168089393D01*
X369428995Y-168085331D01*
X369463166Y-168080526D01*
X369496506Y-168075162D01*
X369560993Y-168063503D01*
X369623062Y-168051845D01*
X369683318Y-168041675D01*
X369712954Y-168037613D01*
X369742364Y-168034482D01*
X369771622Y-168032467D01*
X369800805Y-168031753D01*
X369806326Y-168031820D01*
X369811663Y-168032014D01*
X369816791Y-168032327D01*
X369821686Y-168032750D01*
X369826326Y-168033273D01*
X369830687Y-168033888D01*
X369834744Y-168034586D01*
X369838475Y-168035358D01*
X369841855Y-168036195D01*
X369844862Y-168037089D01*
X369847470Y-168038030D01*
X369848618Y-168038515D01*
X369849658Y-168039009D01*
X369850586Y-168039510D01*
X369851400Y-168040017D01*
X369852097Y-168040530D01*
X369852674Y-168041046D01*
X369853128Y-168041566D01*
X369853456Y-168042087D01*
X369853655Y-168042609D01*
X369853722Y-168043130D01*
X369850310Y-168050279D01*
X369844434Y-168058697D01*
X369825841Y-168079149D01*
X369799050Y-168104106D01*
X369765169Y-168133188D01*
X369580870Y-168283174D01*
X369474954Y-168373043D01*
X369422428Y-168420368D01*
X369371667Y-168468779D01*
X369323777Y-168517897D01*
X369279865Y-168567342D01*
X369241038Y-168616735D01*
X369223877Y-168641293D01*
X369208403Y-168665695D01*
X369205460Y-168669356D01*
X369202345Y-168672840D01*
X369199063Y-168676141D01*
X369195625Y-168679254D01*
X369192038Y-168682176D01*
X369188311Y-168684902D01*
X369184452Y-168687427D01*
X369180469Y-168689747D01*
X369176371Y-168691856D01*
X369172167Y-168693751D01*
X369167864Y-168695426D01*
X369163471Y-168696878D01*
X369158997Y-168698102D01*
X369154449Y-168699092D01*
X369149836Y-168699845D01*
X369145167Y-168700355D01*
X369133526Y-168700355D01*
X369127705Y-168694535D01*
X369122149Y-168694535D01*
X369110771Y-168688714D01*
X369099130Y-168682894D01*
X369087753Y-168677073D01*
X369076111Y-168665696D01*
X369064734Y-168659875D01*
X369047272Y-168648233D01*
X369035894Y-168631035D01*
X369018432Y-168613837D01*
X369007055Y-168596375D01*
X368988798Y-168579176D01*
X368971336Y-168556157D01*
X368954138Y-168527318D01*
X368942761Y-168498742D01*
X368925564Y-168469903D01*
X368908366Y-168435242D01*
X368896724Y-168400847D01*
X368890903Y-168377828D01*
X368879526Y-168360365D01*
X368873705Y-168337347D01*
X368862063Y-168291309D01*
X368856507Y-168268290D01*
X368850686Y-168245272D01*
X368844865Y-168216432D01*
X368839044Y-168193414D01*
X368833224Y-168164574D01*
X368827403Y-168135735D01*
X368821846Y-168106896D01*
X368816555Y-168077792D01*
X368816555Y-168043132D01*
X368810734Y-168014557D01*
X368804913Y-167979896D01*
X368804913Y-167945236D01*
X368799357Y-167910575D01*
X368799357Y-167835697D01*
X368793536Y-167795481D01*
X368793536Y-167668745D01*
X368793007Y-167670333D01*
X368793459Y-167602025D01*
X368794735Y-167535564D01*
X368799291Y-167409094D01*
X368805732Y-167292752D01*
X368813115Y-167188362D01*
X368826940Y-167022745D01*
X368831496Y-166965170D01*
X368833224Y-166926854D01*
X368730098Y-166919006D01*
X368623773Y-166912637D01*
X368514322Y-166907613D01*
X368401821Y-166903802D01*
X368167962Y-166899284D01*
X367922793Y-166898014D01*
X367322155Y-166904563D01*
X366992580Y-166910293D01*
X366799107Y-166915477D01*
X366781099Y-166915264D01*
X366763827Y-166914592D01*
X366747347Y-166913410D01*
X366731721Y-166911669D01*
X366724246Y-166910574D01*
X366717006Y-166909319D01*
X366710009Y-166907900D01*
X366703262Y-166906310D01*
X366696772Y-166904542D01*
X366690547Y-166902591D01*
X366684594Y-166900451D01*
X366678920Y-166898114D01*
X366673533Y-166895574D01*
X366668441Y-166892827D01*
X366663649Y-166889864D01*
X366659167Y-166886680D01*
X366655001Y-166883269D01*
X366651159Y-166879625D01*
X366647648Y-166875740D01*
X366644475Y-166871610D01*
X366641647Y-166867227D01*
X366639173Y-166862586D01*
X366637059Y-166857680D01*
X366635313Y-166852502D01*
X366633943Y-166847048D01*
X366632954Y-166841310D01*
X366632356Y-166835282D01*
X366632155Y-166828958D01*
X366633104Y-166817784D01*
X366635903Y-166805936D01*
X366640476Y-166793482D01*
X366646748Y-166780490D01*
X366664091Y-166753158D01*
X366687333Y-166724481D01*
X366715876Y-166694997D01*
X366749120Y-166665247D01*
X366786467Y-166635770D01*
X366827318Y-166607105D01*
X366871075Y-166579792D01*
X366917138Y-166554370D01*
X366964908Y-166531379D01*
X367013787Y-166511359D01*
X367063177Y-166494848D01*
X367112478Y-166482387D01*
X367136907Y-166477843D01*
X367161091Y-166474515D01*
X367184952Y-166472468D01*
X367208417Y-166471771D01*
X367431031Y-166509176D01*
X367914198Y-166583503D01*
X368867884Y-166719421D01*
X368870594Y-166705294D01*
X368873963Y-166691371D01*
X368877977Y-166677669D01*
X368882625Y-166664212D01*
X368887893Y-166651018D01*
X368893769Y-166638109D01*
X368900241Y-166625505D01*
X368907296Y-166613226D01*
X368914923Y-166601294D01*
X368923107Y-166589728D01*
X368931838Y-166578549D01*
X368941101Y-166567779D01*
X368950886Y-166557436D01*
X368961180Y-166547543D01*
X368971969Y-166538119D01*
X368983242Y-166529185D01*
X368989063Y-166529185D01*
X368946425Y-166490185D01*
X368902951Y-166452200D01*
X368858659Y-166415241D01*
X368813569Y-166379320D01*
X368767699Y-166344449D01*
X368721067Y-166310640D01*
X368673693Y-166277905D01*
X368625595Y-166246257D01*
X368576793Y-166215707D01*
X368527304Y-166186267D01*
X368477147Y-166157950D01*
X368426342Y-166130767D01*
X368374907Y-166104731D01*
X368322861Y-166079853D01*
X368270222Y-166056145D01*
X368217009Y-166033620D01*
X368205579Y-166029116D01*
X368200222Y-166026723D01*
X368195105Y-166024236D01*
X368190230Y-166021657D01*
X368185597Y-166018986D01*
X368181207Y-166016222D01*
X368177061Y-166013367D01*
X368173161Y-166010421D01*
X368169507Y-166007385D01*
X368166101Y-166004258D01*
X368162943Y-166001041D01*
X368160034Y-165997735D01*
X368157376Y-165994340D01*
X368154969Y-165990857D01*
X368152815Y-165987285D01*
X368150914Y-165983626D01*
X368149267Y-165979880D01*
X368147876Y-165976047D01*
X368146742Y-165972128D01*
X368145865Y-165968123D01*
X368145247Y-165964033D01*
X368144888Y-165959857D01*
X368144790Y-165955597D01*
X368144954Y-165951253D01*
X368145380Y-165946826D01*
X368146070Y-165942315D01*
X368147024Y-165937721D01*
X368148244Y-165933045D01*
X368149731Y-165928287D01*
X368151486Y-165923447D01*
X368153509Y-165918527D01*
X368154961Y-165910021D01*
X368158210Y-165900772D01*
X368163159Y-165890844D01*
X368169711Y-165880305D01*
X368187233Y-165857660D01*
X368209998Y-165833368D01*
X368237228Y-165807961D01*
X368268144Y-165781972D01*
X368301969Y-165755933D01*
X368337924Y-165730375D01*
X368375231Y-165705831D01*
X368413111Y-165682833D01*
X368450787Y-165661913D01*
X368487479Y-165643604D01*
X368522411Y-165628437D01*
X368554803Y-165616944D01*
X368583878Y-165609659D01*
X368596928Y-165607760D01*
X368608857Y-165607112D01*
X368635535Y-165610413D01*
G37*
X368635535Y-165610413D02*
X368675596Y-165619743D01*
X368789993Y-165653042D01*
X369114773Y-165754088D01*
X369301660Y-165808056D01*
X369489212Y-165855134D01*
X369579568Y-165873937D01*
X369665684Y-165888433D01*
X369746093Y-165897763D01*
X369819326Y-165901064D01*
X369850348Y-165900627D01*
X369880722Y-165899515D01*
X369938430Y-165896463D01*
X369965211Y-165895120D01*
X369990245Y-165894297D01*
X370013256Y-165894294D01*
X370023917Y-165894693D01*
X370033969Y-165895409D01*
X370043377Y-165896479D01*
X370052108Y-165897941D01*
X370060126Y-165899831D01*
X370067398Y-165902188D01*
X370073889Y-165905049D01*
X370079565Y-165908450D01*
X370084391Y-165912430D01*
X370088332Y-165917026D01*
X370091356Y-165922275D01*
X370093426Y-165928214D01*
X370094509Y-165934881D01*
X370094570Y-165942313D01*
X370093575Y-165950547D01*
X370091489Y-165959622D01*
X370088279Y-165969573D01*
X370083909Y-165980439D01*
X370077366Y-165990659D01*
X370070514Y-166000647D01*
X370063359Y-166010399D01*
X370055909Y-166019907D01*
X370048168Y-166029165D01*
X370040145Y-166038168D01*
X370031846Y-166046908D01*
X370023276Y-166055379D01*
X370014444Y-166063576D01*
X370005355Y-166071492D01*
X369996015Y-166079120D01*
X369986432Y-166086455D01*
X369976613Y-166093489D01*
X369966562Y-166100218D01*
X369956288Y-166106634D01*
X369945797Y-166112731D01*
X369937837Y-166118142D01*
X369929677Y-166123184D01*
X369921328Y-166127853D01*
X369912805Y-166132145D01*
X369904120Y-166136057D01*
X369895285Y-166139584D01*
X369886315Y-166142724D01*
X369877221Y-166145473D01*
X369868018Y-166147828D01*
X369858717Y-166149783D01*
X369849332Y-166151337D01*
X369839876Y-166152485D01*
X369830361Y-166153224D01*
X369820802Y-166153549D01*
X369811210Y-166153459D01*
X369801599Y-166152948D01*
X369773642Y-166149649D01*
X369733907Y-166140328D01*
X369624940Y-166107059D01*
X369329913Y-166006104D01*
X369167219Y-165952185D01*
X369009982Y-165905149D01*
X368937061Y-165886363D01*
X368869885Y-165871880D01*
X368809915Y-165862558D01*
X368758611Y-165859260D01*
X368756050Y-165859053D01*
X368753487Y-165858921D01*
X368750925Y-165858864D01*
X368748365Y-165858881D01*
X368745809Y-165858973D01*
X368743258Y-165859138D01*
X368740714Y-165859377D01*
X368738178Y-165859690D01*
X368735653Y-165860077D01*
X368733139Y-165860536D01*
X368730639Y-165861068D01*
X368728154Y-165861674D01*
X368725685Y-165862351D01*
X368723235Y-165863101D01*
X368720804Y-165863923D01*
X368718394Y-165864816D01*
X368711254Y-165870155D01*
X368704903Y-165875394D01*
X368699325Y-165880587D01*
X368694503Y-165885789D01*
X368692371Y-165888410D01*
X368690421Y-165891054D01*
X368688652Y-165893728D01*
X368687061Y-165896438D01*
X368685647Y-165899191D01*
X368684408Y-165901994D01*
X368683341Y-165904854D01*
X368682444Y-165907778D01*
X368681716Y-165910772D01*
X368681153Y-165913844D01*
X368680755Y-165917000D01*
X368680518Y-165920247D01*
X368680442Y-165923592D01*
X368680523Y-165927041D01*
X368681150Y-165934282D01*
X368682384Y-165942023D01*
X368684207Y-165950320D01*
X368686603Y-165959226D01*
X368689555Y-165968798D01*
X369068438Y-166475739D01*
X369086452Y-166462126D01*
X369104744Y-166448919D01*
X369123305Y-166436122D01*
X369142128Y-166423739D01*
X369161208Y-166411774D01*
X369180536Y-166400230D01*
X369200106Y-166389111D01*
X369219910Y-166378422D01*
X369239942Y-166368164D01*
X369260194Y-166358343D01*
X369280659Y-166348962D01*
X369301331Y-166340025D01*
X369322202Y-166331535D01*
X369343265Y-166323496D01*
X369364512Y-166315912D01*
X369385938Y-166308787D01*
X369389722Y-166307831D01*
X369393334Y-166307145D01*
X369396780Y-166306729D01*
X369400062Y-166306580D01*
X369403184Y-166306698D01*
X369406149Y-166307082D01*
X369408959Y-166307730D01*
X369411619Y-166308642D01*
X369414132Y-166309817D01*
X369416501Y-166311252D01*
X369418729Y-166312948D01*
X369420820Y-166314903D01*
X369422777Y-166317116D01*
X369424602Y-166319585D01*
X369426301Y-166322310D01*
X369427875Y-166325290D01*
X369430663Y-166332009D01*
X369432995Y-166339733D01*
X369434895Y-166348453D01*
X369436391Y-166358161D01*
X369437508Y-166368846D01*
X369438274Y-166380501D01*
X369438714Y-166393116D01*
X369438855Y-166406683D01*
X369436800Y-166420294D01*
X369433937Y-166433091D01*
X369430308Y-166445137D01*
X369425955Y-166456496D01*
X369420920Y-166467231D01*
X369415243Y-166477405D01*
X369408968Y-166487081D01*
X369402136Y-166496323D01*
X369394788Y-166505194D01*
X369386966Y-166513757D01*
X369370068Y-166530215D01*
X369351777Y-166546202D01*
X369332426Y-166562225D01*
X369312350Y-166578790D01*
X369291882Y-166596405D01*
X369271357Y-166615575D01*
X369251108Y-166636808D01*
X369241192Y-166648356D01*
X369231470Y-166660610D01*
X369221985Y-166673632D01*
X369212778Y-166687487D01*
X369203890Y-166702237D01*
X369195364Y-166717946D01*
X369187241Y-166734677D01*
X369179563Y-166752493D01*
X370215109Y-166848074D01*
X371329038Y-166959927D01*
X371338425Y-166961086D01*
X371347144Y-166962393D01*
X371355205Y-166963865D01*
X371358991Y-166964669D01*
X371362615Y-166965520D01*
X371366079Y-166966421D01*
X371369384Y-166967375D01*
X371372530Y-166968382D01*
X371375519Y-166969447D01*
X371378352Y-166970570D01*
X371381029Y-166971754D01*
X371383553Y-166973001D01*
X371385923Y-166974313D01*
X371388142Y-166975693D01*
X371390210Y-166977142D01*
X371392128Y-166978663D01*
X371393897Y-166980259D01*
X371395519Y-166981930D01*
X371396994Y-166983679D01*
X371398323Y-166985510D01*
X371399508Y-166987422D01*
X371400550Y-166989420D01*
X371401449Y-166991505D01*
X371402207Y-166993679D01*
X371402825Y-166995944D01*
X371403303Y-166998304D01*
X371403644Y-167000758D01*
X371403847Y-167003311D01*
X371403915Y-167005964D01*
X371403413Y-167013197D01*
X371401925Y-167020829D01*
X371399478Y-167028819D01*
X371396097Y-167037125D01*
X371386642Y-167054523D01*
X371373769Y-167072693D01*
X371357690Y-167091304D01*
X371338616Y-167110027D01*
X371316758Y-167128533D01*
X371292326Y-167146491D01*
X371265532Y-167163571D01*
X371236586Y-167179444D01*
X371205698Y-167193780D01*
X371173081Y-167206248D01*
X371138944Y-167216520D01*
X371103499Y-167224266D01*
X371085351Y-167227088D01*
X371066956Y-167229155D01*
X371048338Y-167230425D01*
X371029526Y-167230857D01*
X370800424Y-167182742D01*
X370570632Y-167138268D01*
X370340194Y-167097443D01*
X370109153Y-167060274D01*
X369877552Y-167026767D01*
X369645435Y-166996929D01*
X369412846Y-166970766D01*
X369179828Y-166948285D01*
X369139345Y-166948294D01*
X369129078Y-167015586D01*
X369120060Y-167083038D01*
X369112292Y-167150633D01*
X369105775Y-167218355D01*
X369100511Y-167286185D01*
X369096501Y-167354106D01*
X369093747Y-167422100D01*
X369092251Y-167490151D01*
X369092325Y-167559576D01*
X369095074Y-167628869D01*
X369100486Y-167697954D01*
X369108550Y-167766754D01*
X369119257Y-167835193D01*
X369132596Y-167903193D01*
X369148557Y-167970679D01*
X369167128Y-168037574D01*
X369169153Y-168039707D01*
X369171106Y-168041899D01*
X369172984Y-168044149D01*
X369174787Y-168046455D01*
X369176514Y-168048816D01*
X369178163Y-168051228D01*
X369179733Y-168053691D01*
X369181224Y-168056202D01*
X369182634Y-168058759D01*
X369183962Y-168061360D01*
X369185207Y-168064004D01*
X369186368Y-168066688D01*
X369187443Y-168069411D01*
X369188432Y-168072170D01*
X369189334Y-168074964D01*
X369190147Y-168077791D01*
X369192739Y-168079905D01*
X369195666Y-168081883D01*
X369198948Y-168083725D01*
X369202603Y-168085431D01*
X369206650Y-168087000D01*
X369211108Y-168088432D01*
X369215997Y-168089728D01*
X369221334Y-168090888D01*
X369227140Y-168091911D01*
X369233434Y-168092798D01*
X369240233Y-168093548D01*
X369247557Y-168094162D01*
X369255426Y-168094639D01*
X369263857Y-168094980D01*
X369282486Y-168095253D01*
X369320738Y-168094540D01*
X369357857Y-168092525D01*
X369393917Y-168089393D01*
X369428995Y-168085331D01*
X369463166Y-168080526D01*
X369496506Y-168075162D01*
X369560993Y-168063503D01*
X369623062Y-168051845D01*
X369683318Y-168041675D01*
X369712954Y-168037613D01*
X369742364Y-168034482D01*
X369771622Y-168032467D01*
X369800805Y-168031753D01*
X369806326Y-168031820D01*
X369811663Y-168032014D01*
X369816791Y-168032327D01*
X369821686Y-168032750D01*
X369826326Y-168033273D01*
X369830687Y-168033888D01*
X369834744Y-168034586D01*
X369838475Y-168035358D01*
X369841855Y-168036195D01*
X369844862Y-168037089D01*
X369847470Y-168038030D01*
X369848618Y-168038515D01*
X369849658Y-168039009D01*
X369850586Y-168039510D01*
X369851400Y-168040017D01*
X369852097Y-168040530D01*
X369852674Y-168041046D01*
X369853128Y-168041566D01*
X369853456Y-168042087D01*
X369853655Y-168042609D01*
X369853722Y-168043130D01*
X369850310Y-168050279D01*
X369844434Y-168058697D01*
X369825841Y-168079149D01*
X369799050Y-168104106D01*
X369765169Y-168133188D01*
X369580870Y-168283174D01*
X369474954Y-168373043D01*
X369422428Y-168420368D01*
X369371667Y-168468779D01*
X369323777Y-168517897D01*
X369279865Y-168567342D01*
X369241038Y-168616735D01*
X369223877Y-168641293D01*
X369208403Y-168665695D01*
X369205460Y-168669356D01*
X369202345Y-168672840D01*
X369199063Y-168676141D01*
X369195625Y-168679254D01*
X369192038Y-168682176D01*
X369188311Y-168684902D01*
X369184452Y-168687427D01*
X369180469Y-168689747D01*
X369176371Y-168691856D01*
X369172167Y-168693751D01*
X369167864Y-168695426D01*
X369163471Y-168696878D01*
X369158997Y-168698102D01*
X369154449Y-168699092D01*
X369149836Y-168699845D01*
X369145167Y-168700355D01*
X369133526Y-168700355D01*
X369127705Y-168694535D01*
X369122149Y-168694535D01*
X369110771Y-168688714D01*
X369099130Y-168682894D01*
X369087753Y-168677073D01*
X369076111Y-168665696D01*
X369064734Y-168659875D01*
X369047272Y-168648233D01*
X369035894Y-168631035D01*
X369018432Y-168613837D01*
X369007055Y-168596375D01*
X368988798Y-168579176D01*
X368971336Y-168556157D01*
X368954138Y-168527318D01*
X368942761Y-168498742D01*
X368925564Y-168469903D01*
X368908366Y-168435242D01*
X368896724Y-168400847D01*
X368890903Y-168377828D01*
X368879526Y-168360365D01*
X368873705Y-168337347D01*
X368862063Y-168291309D01*
X368856507Y-168268290D01*
X368850686Y-168245272D01*
X368844865Y-168216432D01*
X368839044Y-168193414D01*
X368833224Y-168164574D01*
X368827403Y-168135735D01*
X368821846Y-168106896D01*
X368816555Y-168077792D01*
X368816555Y-168043132D01*
X368810734Y-168014557D01*
X368804913Y-167979896D01*
X368804913Y-167945236D01*
X368799357Y-167910575D01*
X368799357Y-167835697D01*
X368793536Y-167795481D01*
X368793536Y-167668745D01*
X368793007Y-167670333D01*
X368793459Y-167602025D01*
X368794735Y-167535564D01*
X368799291Y-167409094D01*
X368805732Y-167292752D01*
X368813115Y-167188362D01*
X368826940Y-167022745D01*
X368831496Y-166965170D01*
X368833224Y-166926854D01*
X368730098Y-166919006D01*
X368623773Y-166912637D01*
X368514322Y-166907613D01*
X368401821Y-166903802D01*
X368167962Y-166899284D01*
X367922793Y-166898014D01*
X367322155Y-166904563D01*
X366992580Y-166910293D01*
X366799107Y-166915477D01*
X366781099Y-166915264D01*
X366763827Y-166914592D01*
X366747347Y-166913410D01*
X366731721Y-166911669D01*
X366724246Y-166910574D01*
X366717006Y-166909319D01*
X366710009Y-166907900D01*
X366703262Y-166906310D01*
X366696772Y-166904542D01*
X366690547Y-166902591D01*
X366684594Y-166900451D01*
X366678920Y-166898114D01*
X366673533Y-166895574D01*
X366668441Y-166892827D01*
X366663649Y-166889864D01*
X366659167Y-166886680D01*
X366655001Y-166883269D01*
X366651159Y-166879625D01*
X366647648Y-166875740D01*
X366644475Y-166871610D01*
X366641647Y-166867227D01*
X366639173Y-166862586D01*
X366637059Y-166857680D01*
X366635313Y-166852502D01*
X366633943Y-166847048D01*
X366632954Y-166841310D01*
X366632356Y-166835282D01*
X366632155Y-166828958D01*
X366633104Y-166817784D01*
X366635903Y-166805936D01*
X366640476Y-166793482D01*
X366646748Y-166780490D01*
X366664091Y-166753158D01*
X366687333Y-166724481D01*
X366715876Y-166694997D01*
X366749120Y-166665247D01*
X366786467Y-166635770D01*
X366827318Y-166607105D01*
X366871075Y-166579792D01*
X366917138Y-166554370D01*
X366964908Y-166531379D01*
X367013787Y-166511359D01*
X367063177Y-166494848D01*
X367112478Y-166482387D01*
X367136907Y-166477843D01*
X367161091Y-166474515D01*
X367184952Y-166472468D01*
X367208417Y-166471771D01*
X367431031Y-166509176D01*
X367914198Y-166583503D01*
X368867884Y-166719421D01*
X368870594Y-166705294D01*
X368873963Y-166691371D01*
X368877977Y-166677669D01*
X368882625Y-166664212D01*
X368887893Y-166651018D01*
X368893769Y-166638109D01*
X368900241Y-166625505D01*
X368907296Y-166613226D01*
X368914923Y-166601294D01*
X368923107Y-166589728D01*
X368931838Y-166578549D01*
X368941101Y-166567779D01*
X368950886Y-166557436D01*
X368961180Y-166547543D01*
X368971969Y-166538119D01*
X368983242Y-166529185D01*
X368989063Y-166529185D01*
X368946425Y-166490185D01*
X368902951Y-166452200D01*
X368858659Y-166415241D01*
X368813569Y-166379320D01*
X368767699Y-166344449D01*
X368721067Y-166310640D01*
X368673693Y-166277905D01*
X368625595Y-166246257D01*
X368576793Y-166215707D01*
X368527304Y-166186267D01*
X368477147Y-166157950D01*
X368426342Y-166130767D01*
X368374907Y-166104731D01*
X368322861Y-166079853D01*
X368270222Y-166056145D01*
X368217009Y-166033620D01*
X368205579Y-166029116D01*
X368200222Y-166026723D01*
X368195105Y-166024236D01*
X368190230Y-166021657D01*
X368185597Y-166018986D01*
X368181207Y-166016222D01*
X368177061Y-166013367D01*
X368173161Y-166010421D01*
X368169507Y-166007385D01*
X368166101Y-166004258D01*
X368162943Y-166001041D01*
X368160034Y-165997735D01*
X368157376Y-165994340D01*
X368154969Y-165990857D01*
X368152815Y-165987285D01*
X368150914Y-165983626D01*
X368149267Y-165979880D01*
X368147876Y-165976047D01*
X368146742Y-165972128D01*
X368145865Y-165968123D01*
X368145247Y-165964033D01*
X368144888Y-165959857D01*
X368144790Y-165955597D01*
X368144954Y-165951253D01*
X368145380Y-165946826D01*
X368146070Y-165942315D01*
X368147024Y-165937721D01*
X368148244Y-165933045D01*
X368149731Y-165928287D01*
X368151486Y-165923447D01*
X368153509Y-165918527D01*
X368154961Y-165910021D01*
X368158210Y-165900772D01*
X368163159Y-165890844D01*
X368169711Y-165880305D01*
X368187233Y-165857660D01*
X368209998Y-165833368D01*
X368237228Y-165807961D01*
X368268144Y-165781972D01*
X368301969Y-165755933D01*
X368337924Y-165730375D01*
X368375231Y-165705831D01*
X368413111Y-165682833D01*
X368450787Y-165661913D01*
X368487479Y-165643604D01*
X368522411Y-165628437D01*
X368554803Y-165616944D01*
X368583878Y-165609659D01*
X368596928Y-165607760D01*
X368608857Y-165607112D01*
X368635535Y-165610413D01*
D11*
X372578521Y-166000196D02*
G75*
G03*
X372578521Y-166000196I-3549758J0D01*
G01*
D10*
X370470465Y-164360925D02*
X370470465Y-164349812D01*
X370470465Y-164349812D02*
X370464644Y-164349812D01*
X370464644Y-164349812D02*
X370458823Y-164343991D01*
X370458823Y-164343991D02*
X370453003Y-164338435D01*
X370453003Y-164338435D02*
X370435805Y-164332085D01*
X370435805Y-164332085D02*
X370418607Y-164326264D01*
X370418607Y-164326264D02*
X370401144Y-164320443D01*
X370401144Y-164320443D02*
X370372305Y-164314623D01*
X370372305Y-164314623D02*
X370349286Y-164309066D01*
X370349286Y-164309066D02*
X370314890Y-164303246D01*
X370314890Y-164303246D02*
X370286051Y-164296896D01*
X370286051Y-164296896D02*
X370245569Y-164296896D01*
X370245569Y-164296896D02*
X370211173Y-164291075D01*
X370211173Y-164291075D02*
X370171221Y-164285783D01*
X370171221Y-164285783D02*
X370125184Y-164280227D01*
X370125184Y-164280227D02*
X370084703Y-164280227D01*
X370084703Y-164280227D02*
X370038930Y-164274406D01*
X370038930Y-164274406D02*
X369986013Y-164268585D01*
X369986013Y-164268585D02*
X369939976Y-164268585D01*
X369939976Y-164268585D02*
X369887059Y-164262764D01*
X369887059Y-164262764D02*
X369834142Y-164256943D01*
X369834142Y-164256943D02*
X369730426Y-164251387D01*
X369730426Y-164251387D02*
X369626709Y-164245566D01*
X369626709Y-164245566D02*
X369517171Y-164233925D01*
X369517171Y-164233925D02*
X369407634Y-164222548D01*
X369407634Y-164222548D02*
X369306299Y-164217521D01*
X369306299Y-164217521D02*
X369253382Y-164211700D01*
X369253382Y-164211700D02*
X369207345Y-164205879D01*
X369207345Y-164205879D02*
X369204901Y-164164636D01*
X369204901Y-164164636D02*
X369203786Y-164123410D01*
X369203786Y-164123410D02*
X369203995Y-164082234D01*
X369203995Y-164082234D02*
X369205522Y-164041138D01*
X369205522Y-164041138D02*
X369208361Y-164000154D01*
X369208361Y-164000154D02*
X369212506Y-163959312D01*
X369212506Y-163959312D02*
X369217952Y-163918644D01*
X369217952Y-163918644D02*
X369224693Y-163878181D01*
X369224693Y-163878181D02*
X369232723Y-163837953D01*
X369232723Y-163837953D02*
X369242037Y-163797993D01*
X369242037Y-163797993D02*
X369252629Y-163758331D01*
X369252629Y-163758331D02*
X369264492Y-163718999D01*
X369264492Y-163718999D02*
X369277622Y-163680027D01*
X369277622Y-163680027D02*
X369292013Y-163641447D01*
X369292013Y-163641447D02*
X369307659Y-163603290D01*
X369307659Y-163603290D02*
X369324555Y-163565587D01*
X369324555Y-163565587D02*
X369327421Y-163555106D01*
X369327421Y-163555106D02*
X369329478Y-163545276D01*
X369329478Y-163545276D02*
X369330207Y-163540597D01*
X369330207Y-163540597D02*
X369330736Y-163536071D01*
X369330736Y-163536071D02*
X369331067Y-163531695D01*
X369331067Y-163531695D02*
X369331202Y-163527467D01*
X369331202Y-163527467D02*
X369331142Y-163523382D01*
X369331142Y-163523382D02*
X369330888Y-163519437D01*
X369330888Y-163519437D02*
X369330440Y-163515630D01*
X369330440Y-163515630D02*
X369329801Y-163511958D01*
X369329801Y-163511958D02*
X369328971Y-163508417D01*
X369328971Y-163508417D02*
X369327951Y-163505003D01*
X369327951Y-163505003D02*
X369326744Y-163501715D01*
X369326744Y-163501715D02*
X369325348Y-163498548D01*
X369325348Y-163498548D02*
X369323767Y-163495500D01*
X369323767Y-163495500D02*
X369322001Y-163492568D01*
X369322001Y-163492568D02*
X369320052Y-163489748D01*
X369320052Y-163489748D02*
X369317919Y-163487037D01*
X369317919Y-163487037D02*
X369315606Y-163484431D01*
X369315606Y-163484431D02*
X369313112Y-163481929D01*
X369313112Y-163481929D02*
X369310439Y-163479527D01*
X369310439Y-163479527D02*
X369307588Y-163477221D01*
X369307588Y-163477221D02*
X369304561Y-163475008D01*
X369304561Y-163475008D02*
X369301358Y-163472886D01*
X369301358Y-163472886D02*
X369294429Y-163468899D01*
X369294429Y-163468899D02*
X369286813Y-163465236D01*
X369286813Y-163465236D02*
X369278517Y-163461871D01*
X369278517Y-163461871D02*
X369274722Y-163460207D01*
X369274722Y-163460207D02*
X369270883Y-163458667D01*
X369270883Y-163458667D02*
X369267003Y-163457248D01*
X369267003Y-163457248D02*
X369263086Y-163455954D01*
X369263086Y-163455954D02*
X369259134Y-163454783D01*
X369259134Y-163454783D02*
X369255151Y-163453736D01*
X369255151Y-163453736D02*
X369251138Y-163452814D01*
X369251138Y-163452814D02*
X369247100Y-163452018D01*
X369247100Y-163452018D02*
X369243039Y-163451348D01*
X369243039Y-163451348D02*
X369238959Y-163450804D01*
X369238959Y-163450804D02*
X369234861Y-163450387D01*
X369234861Y-163450387D02*
X369230750Y-163450098D01*
X369230750Y-163450098D02*
X369226627Y-163449938D01*
X369226627Y-163449938D02*
X369222497Y-163449905D01*
X369222497Y-163449905D02*
X369218361Y-163450002D01*
X369218361Y-163450002D02*
X369214223Y-163450229D01*
X369214223Y-163450229D02*
X369207345Y-163450109D01*
X369207345Y-163450109D02*
X369200485Y-163450255D01*
X369200485Y-163450255D02*
X369193650Y-163450664D01*
X369193650Y-163450664D02*
X369186850Y-163451336D01*
X369186850Y-163451336D02*
X369180090Y-163452267D01*
X369180090Y-163452267D02*
X369173377Y-163453456D01*
X369173377Y-163453456D02*
X369166721Y-163454900D01*
X369166721Y-163454900D02*
X369160126Y-163456598D01*
X369160126Y-163456598D02*
X369153602Y-163458548D01*
X369153602Y-163458548D02*
X369147155Y-163460747D01*
X369147155Y-163460747D02*
X369140793Y-163463194D01*
X369140793Y-163463194D02*
X369134523Y-163465886D01*
X369134523Y-163465886D02*
X369128352Y-163468821D01*
X369128352Y-163468821D02*
X369122287Y-163471998D01*
X369122287Y-163471998D02*
X369116336Y-163475415D01*
X369116336Y-163475415D02*
X369110507Y-163479069D01*
X369110507Y-163479069D02*
X369091345Y-163486286D01*
X369091345Y-163486286D02*
X369072355Y-163493901D01*
X369072355Y-163493901D02*
X369053544Y-163501912D01*
X369053544Y-163501912D02*
X369034917Y-163510315D01*
X369034917Y-163510315D02*
X369016480Y-163519106D01*
X369016480Y-163519106D02*
X368998239Y-163528282D01*
X368998239Y-163528282D02*
X368980201Y-163537840D01*
X368980201Y-163537840D02*
X368962370Y-163547775D01*
X368962370Y-163547775D02*
X368944754Y-163558085D01*
X368944754Y-163558085D02*
X368927357Y-163568767D01*
X368927357Y-163568767D02*
X368910186Y-163579817D01*
X368910186Y-163579817D02*
X368893248Y-163591231D01*
X368893248Y-163591231D02*
X368876547Y-163603006D01*
X368876547Y-163603006D02*
X368860090Y-163615139D01*
X368860090Y-163615139D02*
X368843883Y-163627626D01*
X368843883Y-163627626D02*
X368827931Y-163640464D01*
X368827931Y-163640464D02*
X368819704Y-163649095D01*
X368819704Y-163649095D02*
X368812292Y-163657717D01*
X368812292Y-163657717D02*
X368805703Y-163666322D01*
X368805703Y-163666322D02*
X368799948Y-163674902D01*
X368799948Y-163674902D02*
X368795034Y-163683447D01*
X368795034Y-163683447D02*
X368792896Y-163687704D01*
X368792896Y-163687704D02*
X368790971Y-163691950D01*
X368790971Y-163691950D02*
X368789261Y-163696182D01*
X368789261Y-163696182D02*
X368787768Y-163700401D01*
X368787768Y-163700401D02*
X368786491Y-163704605D01*
X368786491Y-163704605D02*
X368785433Y-163708793D01*
X368785433Y-163708793D02*
X368784594Y-163712964D01*
X368784594Y-163712964D02*
X368783976Y-163717117D01*
X368783976Y-163717117D02*
X368783579Y-163721250D01*
X368783579Y-163721250D02*
X368783405Y-163725364D01*
X368783405Y-163725364D02*
X368783454Y-163729456D01*
X368783454Y-163729456D02*
X368783729Y-163733525D01*
X368783729Y-163733525D02*
X368784230Y-163737571D01*
X368784230Y-163737571D02*
X368784958Y-163741593D01*
X368784958Y-163741593D02*
X368785914Y-163745589D01*
X368785914Y-163745589D02*
X368787099Y-163749559D01*
X368787099Y-163749559D02*
X368788515Y-163753500D01*
X368788515Y-163753500D02*
X368790163Y-163757413D01*
X368790163Y-163757413D02*
X368792043Y-163761296D01*
X368792043Y-163761296D02*
X368794158Y-163765149D01*
X368794158Y-163765149D02*
X368796507Y-163768969D01*
X368796507Y-163768969D02*
X368799092Y-163772756D01*
X368799092Y-163772756D02*
X368819857Y-163818155D01*
X368819857Y-163818155D02*
X368838841Y-163864267D01*
X368838841Y-163864267D02*
X368856028Y-163911040D01*
X368856028Y-163911040D02*
X368871402Y-163958420D01*
X368871402Y-163958420D02*
X368884947Y-164006355D01*
X368884947Y-164006355D02*
X368896648Y-164054792D01*
X368896648Y-164054792D02*
X368906488Y-164103679D01*
X368906488Y-164103679D02*
X368914451Y-164152962D01*
X368914451Y-164152962D02*
X368912395Y-164152105D01*
X368912395Y-164152105D02*
X368910317Y-164151312D01*
X368910317Y-164151312D02*
X368908219Y-164150585D01*
X368908219Y-164150585D02*
X368906102Y-164149922D01*
X368906102Y-164149922D02*
X368903968Y-164149325D01*
X368903968Y-164149325D02*
X368901818Y-164148793D01*
X368901818Y-164148793D02*
X368899654Y-164148327D01*
X368899654Y-164148327D02*
X368897477Y-164147928D01*
X368897477Y-164147928D02*
X368895289Y-164147594D01*
X368895289Y-164147594D02*
X368893092Y-164147328D01*
X368893092Y-164147328D02*
X368890886Y-164147128D01*
X368890886Y-164147128D02*
X368888674Y-164146995D01*
X368888674Y-164146995D02*
X368886457Y-164146930D01*
X368886457Y-164146930D02*
X368884236Y-164146933D01*
X368884236Y-164146933D02*
X368882014Y-164147003D01*
X368882014Y-164147003D02*
X368879790Y-164147141D01*
X368879790Y-164147141D02*
X368367028Y-164043425D01*
X368367028Y-164043425D02*
X368328031Y-164033557D01*
X368328031Y-164033557D02*
X368288784Y-164024857D01*
X368288784Y-164024857D02*
X368249313Y-164017328D01*
X368249313Y-164017328D02*
X368209645Y-164010974D01*
X368209645Y-164010974D02*
X368169807Y-164005799D01*
X368169807Y-164005799D02*
X368129823Y-164001807D01*
X368129823Y-164001807D02*
X368089722Y-163999002D01*
X368089722Y-163999002D02*
X368049528Y-163997387D01*
X368049528Y-163997387D02*
X368005038Y-163998769D01*
X368005038Y-163998769D02*
X367962457Y-164002763D01*
X367962457Y-164002763D02*
X367921938Y-164009139D01*
X367921938Y-164009139D02*
X367883634Y-164017669D01*
X367883634Y-164017669D02*
X367847699Y-164028125D01*
X367847699Y-164028125D02*
X367814286Y-164040278D01*
X367814286Y-164040278D02*
X367783549Y-164053898D01*
X367783549Y-164053898D02*
X367755642Y-164068759D01*
X367755642Y-164068759D02*
X367730717Y-164084630D01*
X367730717Y-164084630D02*
X367708928Y-164101283D01*
X367708928Y-164101283D02*
X367690430Y-164118489D01*
X367690430Y-164118489D02*
X367675374Y-164136021D01*
X367675374Y-164136021D02*
X367663915Y-164153648D01*
X367663915Y-164153648D02*
X367659582Y-164162427D01*
X367659582Y-164162427D02*
X367656206Y-164171143D01*
X367656206Y-164171143D02*
X367653806Y-164179769D01*
X367653806Y-164179769D02*
X367652401Y-164188277D01*
X367652401Y-164188277D02*
X367652010Y-164196637D01*
X367652010Y-164196637D02*
X367652653Y-164204821D01*
X367652653Y-164204821D02*
X367659154Y-164214379D01*
X367659154Y-164214379D02*
X367665673Y-164223209D01*
X367665673Y-164223209D02*
X367672224Y-164231306D01*
X367672224Y-164231306D02*
X367678826Y-164238667D01*
X367678826Y-164238667D02*
X367685494Y-164245288D01*
X367685494Y-164245288D02*
X367688858Y-164248320D01*
X367688858Y-164248320D02*
X367692246Y-164251167D01*
X367692246Y-164251167D02*
X367695658Y-164253826D01*
X367695658Y-164253826D02*
X367699097Y-164256299D01*
X367699097Y-164256299D02*
X367702566Y-164258584D01*
X367702566Y-164258584D02*
X367706066Y-164260681D01*
X367706066Y-164260681D02*
X367709599Y-164262590D01*
X367709599Y-164262590D02*
X367713167Y-164264309D01*
X367713167Y-164264309D02*
X367716773Y-164265840D01*
X367716773Y-164265840D02*
X367720419Y-164267181D01*
X367720419Y-164267181D02*
X367724106Y-164268332D01*
X367724106Y-164268332D02*
X367727837Y-164269292D01*
X367727837Y-164269292D02*
X367731614Y-164270062D01*
X367731614Y-164270062D02*
X367735438Y-164270640D01*
X367735438Y-164270640D02*
X367739313Y-164271026D01*
X367739313Y-164271026D02*
X367743240Y-164271220D01*
X367743240Y-164271220D02*
X367747221Y-164271221D01*
X367747221Y-164271221D02*
X367751258Y-164271029D01*
X367751258Y-164271029D02*
X367755354Y-164270643D01*
X367755354Y-164270643D02*
X367759510Y-164270064D01*
X367759510Y-164270064D02*
X367763728Y-164269290D01*
X367763728Y-164269290D02*
X367768011Y-164268321D01*
X367768011Y-164268321D02*
X368143699Y-164297615D01*
X368143699Y-164297615D02*
X368465287Y-164325867D01*
X368465287Y-164325867D02*
X368730669Y-164354120D01*
X368730669Y-164354120D02*
X368841623Y-164368572D01*
X368841623Y-164368572D02*
X368937734Y-164383414D01*
X368937734Y-164383414D02*
X368938246Y-164384522D01*
X368938246Y-164384522D02*
X368938693Y-164385660D01*
X368938693Y-164385660D02*
X368939078Y-164386826D01*
X368939078Y-164386826D02*
X368939405Y-164388019D01*
X368939405Y-164388019D02*
X368939895Y-164390476D01*
X368939895Y-164390476D02*
X368940190Y-164393014D01*
X368940190Y-164393014D02*
X368940313Y-164395617D01*
X368940313Y-164395617D02*
X368940292Y-164398269D01*
X368940292Y-164398269D02*
X368940151Y-164400954D01*
X368940151Y-164400954D02*
X368939917Y-164403655D01*
X368939917Y-164403655D02*
X368939269Y-164409041D01*
X368939269Y-164409041D02*
X368938553Y-164414296D01*
X368938553Y-164414296D02*
X368937973Y-164419291D01*
X368937973Y-164419291D02*
X368937798Y-164421650D01*
X368937798Y-164421650D02*
X368937734Y-164423896D01*
X368937734Y-164423896D02*
X368800684Y-164533964D01*
X368800684Y-164533964D02*
X368661087Y-164640658D01*
X368661087Y-164640658D02*
X368519007Y-164743936D01*
X368519007Y-164743936D02*
X368374507Y-164843755D01*
X368374507Y-164843755D02*
X368227650Y-164940072D01*
X368227650Y-164940072D02*
X368078499Y-165032846D01*
X368078499Y-165032846D02*
X367927117Y-165122033D01*
X367927117Y-165122033D02*
X367773567Y-165207591D01*
X367773567Y-165207591D02*
X366621042Y-165604467D01*
X366621042Y-165604467D02*
X366612614Y-165607695D01*
X366612614Y-165607695D02*
X366604607Y-165610938D01*
X366604607Y-165610938D02*
X366597036Y-165614203D01*
X366597036Y-165614203D02*
X366589920Y-165617497D01*
X366589920Y-165617497D02*
X366583276Y-165620829D01*
X366583276Y-165620829D02*
X366577119Y-165624205D01*
X366577119Y-165624205D02*
X366571468Y-165627634D01*
X366571468Y-165627634D02*
X366566339Y-165631123D01*
X366566339Y-165631123D02*
X366561750Y-165634681D01*
X366561750Y-165634681D02*
X366557718Y-165638315D01*
X366557718Y-165638315D02*
X366554259Y-165642032D01*
X366554259Y-165642032D02*
X366551390Y-165645841D01*
X366551390Y-165645841D02*
X366549130Y-165649749D01*
X366549130Y-165649749D02*
X366548232Y-165651742D01*
X366548232Y-165651742D02*
X366547494Y-165653764D01*
X366547494Y-165653764D02*
X366546915Y-165655814D01*
X366546915Y-165655814D02*
X366546500Y-165657893D01*
X366546500Y-165657893D02*
X366546249Y-165660004D01*
X366546249Y-165660004D02*
X366546165Y-165662146D01*
X366546165Y-165662146D02*
X366604590Y-165682145D01*
X366604590Y-165682145D02*
X366663413Y-165700743D01*
X366663413Y-165700743D02*
X366722609Y-165717937D01*
X366722609Y-165717937D02*
X366782151Y-165733724D01*
X366782151Y-165733724D02*
X366842016Y-165748098D01*
X366842016Y-165748098D02*
X366902177Y-165761056D01*
X366902177Y-165761056D02*
X366962609Y-165772594D01*
X366962609Y-165772594D02*
X367023287Y-165782709D01*
X367023287Y-165782709D02*
X367084186Y-165791395D01*
X367084186Y-165791395D02*
X367145281Y-165798651D01*
X367145281Y-165798651D02*
X367206545Y-165804470D01*
X367206545Y-165804470D02*
X367267955Y-165808851D01*
X367267955Y-165808851D02*
X367329485Y-165811788D01*
X367329485Y-165811788D02*
X367391109Y-165813278D01*
X367391109Y-165813278D02*
X367452802Y-165813316D01*
X367452802Y-165813316D02*
X367514540Y-165811900D01*
X367514540Y-165811900D02*
X367534764Y-165807065D01*
X367534764Y-165807065D02*
X367556546Y-165800102D01*
X367556546Y-165800102D02*
X367604799Y-165779791D01*
X367604799Y-165779791D02*
X367659332Y-165750966D01*
X367659332Y-165750966D02*
X367720179Y-165713628D01*
X367720179Y-165713628D02*
X367787373Y-165667777D01*
X367787373Y-165667777D02*
X367860947Y-165613414D01*
X367860947Y-165613414D02*
X367940934Y-165550539D01*
X367940934Y-165550539D02*
X368027368Y-165479153D01*
X368027368Y-165479153D02*
X368120283Y-165399256D01*
X368120283Y-165399256D02*
X368219711Y-165310848D01*
X368219711Y-165310848D02*
X368325686Y-165213929D01*
X368325686Y-165213929D02*
X368438241Y-165108501D01*
X368438241Y-165108501D02*
X368557410Y-164994563D01*
X368557410Y-164994563D02*
X368683226Y-164872116D01*
X368683226Y-164872116D02*
X368954931Y-164601696D01*
X368954931Y-164601696D02*
X368956853Y-164636833D01*
X368956853Y-164636833D02*
X368958297Y-164677358D01*
X368958297Y-164677358D02*
X368960025Y-164774601D01*
X368960025Y-164774601D02*
X368960661Y-164893473D01*
X368960661Y-164893473D02*
X368960752Y-165034025D01*
X368960752Y-165034025D02*
X368957976Y-165067379D01*
X368957976Y-165067379D02*
X368956161Y-165100750D01*
X368956161Y-165100750D02*
X368955302Y-165134119D01*
X368955302Y-165134119D02*
X368955399Y-165167464D01*
X368955399Y-165167464D02*
X368956448Y-165200766D01*
X368956448Y-165200766D02*
X368958447Y-165234005D01*
X368958447Y-165234005D02*
X368961393Y-165267160D01*
X368961393Y-165267160D02*
X368965283Y-165300210D01*
X368965283Y-165300210D02*
X368970114Y-165333136D01*
X368970114Y-165333136D02*
X368975885Y-165365917D01*
X368975885Y-165365917D02*
X368982591Y-165398534D01*
X368982591Y-165398534D02*
X368990231Y-165430965D01*
X368990231Y-165430965D02*
X368998802Y-165463190D01*
X368998802Y-165463190D02*
X369008301Y-165495189D01*
X369008301Y-165495189D02*
X369018726Y-165526943D01*
X369018726Y-165526943D02*
X369030073Y-165558429D01*
X369030073Y-165558429D02*
X369035011Y-165560998D01*
X369035011Y-165560998D02*
X369039903Y-165563296D01*
X369039903Y-165563296D02*
X369044749Y-165565325D01*
X369044749Y-165565325D02*
X369049551Y-165567086D01*
X369049551Y-165567086D02*
X369054309Y-165568581D01*
X369054309Y-165568581D02*
X369059023Y-165569810D01*
X369059023Y-165569810D02*
X369063693Y-165570775D01*
X369063693Y-165570775D02*
X369068322Y-165571476D01*
X369068322Y-165571476D02*
X369072909Y-165571916D01*
X369072909Y-165571916D02*
X369077454Y-165572095D01*
X369077454Y-165572095D02*
X369081959Y-165572014D01*
X369081959Y-165572014D02*
X369086423Y-165571675D01*
X369086423Y-165571675D02*
X369090848Y-165571078D01*
X369090848Y-165571078D02*
X369095234Y-165570225D01*
X369095234Y-165570225D02*
X369099582Y-165569117D01*
X369099582Y-165569117D02*
X369103892Y-165567756D01*
X369103892Y-165567756D02*
X369108165Y-165566141D01*
X369108165Y-165566141D02*
X369112401Y-165564275D01*
X369112401Y-165564275D02*
X369116601Y-165562159D01*
X369116601Y-165562159D02*
X369120765Y-165559793D01*
X369120765Y-165559793D02*
X369124895Y-165557180D01*
X369124895Y-165557180D02*
X369128990Y-165554319D01*
X369128990Y-165554319D02*
X369133052Y-165551213D01*
X369133052Y-165551213D02*
X369137081Y-165547862D01*
X369137081Y-165547862D02*
X369141077Y-165544268D01*
X369141077Y-165544268D02*
X369145041Y-165540432D01*
X369145041Y-165540432D02*
X369152875Y-165532037D01*
X369152875Y-165532037D02*
X369160589Y-165522687D01*
X369160589Y-165522687D02*
X369168186Y-165512392D01*
X369168186Y-165512392D02*
X369182952Y-165478587D01*
X369182952Y-165478587D02*
X369196358Y-165444266D01*
X369196358Y-165444266D02*
X369208391Y-165409470D01*
X369208391Y-165409470D02*
X369219040Y-165374241D01*
X369219040Y-165374241D02*
X369228293Y-165338619D01*
X369228293Y-165338619D02*
X369236138Y-165302647D01*
X369236138Y-165302647D02*
X369242565Y-165266366D01*
X369242565Y-165266366D02*
X369247561Y-165229817D01*
X369247561Y-165229817D02*
X369237807Y-165162538D01*
X369237807Y-165162538D02*
X369229400Y-165095099D01*
X369229400Y-165095099D02*
X369222343Y-165027519D01*
X369222343Y-165027519D02*
X369216636Y-164959819D01*
X369216636Y-164959819D02*
X369212281Y-164892018D01*
X369212281Y-164892018D02*
X369209280Y-164824137D01*
X369209280Y-164824137D02*
X369207634Y-164756196D01*
X369207634Y-164756196D02*
X369207344Y-164688216D01*
X369207344Y-164688216D02*
X369218680Y-164701984D01*
X369218680Y-164701984D02*
X369235423Y-164721619D01*
X369235423Y-164721619D02*
X369257574Y-164747058D01*
X369257574Y-164747058D02*
X369285132Y-164778239D01*
X369285132Y-164778239D02*
X369318097Y-164815101D01*
X369318097Y-164815101D02*
X369356470Y-164857581D01*
X369356470Y-164857581D02*
X369400250Y-164905617D01*
X369400250Y-164905617D02*
X369449438Y-164959148D01*
X369449438Y-164959148D02*
X369466452Y-164974198D01*
X369466452Y-164974198D02*
X369483056Y-164989257D01*
X369483056Y-164989257D02*
X369499388Y-165004434D01*
X369499388Y-165004434D02*
X369515584Y-165019837D01*
X369515584Y-165019837D02*
X369531779Y-165035575D01*
X369531779Y-165035575D02*
X369548111Y-165051756D01*
X369548111Y-165051756D02*
X369581729Y-165085883D01*
X369581729Y-165085883D02*
X369708876Y-165207888D01*
X369708876Y-165207888D02*
X369836340Y-165320731D01*
X369836340Y-165320731D02*
X369963121Y-165424466D01*
X369963121Y-165424466D02*
X370088216Y-165519147D01*
X370088216Y-165519147D02*
X370210623Y-165604826D01*
X370210623Y-165604826D02*
X370329340Y-165681558D01*
X370329340Y-165681558D02*
X370443363Y-165749396D01*
X370443363Y-165749396D02*
X370551692Y-165808394D01*
X370551692Y-165808394D02*
X370653324Y-165858604D01*
X370653324Y-165858604D02*
X370747255Y-165900081D01*
X370747255Y-165900081D02*
X370832485Y-165932878D01*
X370832485Y-165932878D02*
X370908011Y-165957048D01*
X370908011Y-165957048D02*
X370972831Y-165972645D01*
X370972831Y-165972645D02*
X371025942Y-165979723D01*
X371025942Y-165979723D02*
X371066342Y-165978334D01*
X371066342Y-165978334D02*
X371081463Y-165974482D01*
X371081463Y-165974482D02*
X371093030Y-165968533D01*
X371093030Y-165968533D02*
X371095608Y-165967448D01*
X371095608Y-165967448D02*
X371097987Y-165966326D01*
X371097987Y-165966326D02*
X371100166Y-165965164D01*
X371100166Y-165965164D02*
X371102144Y-165963960D01*
X371102144Y-165963960D02*
X371103921Y-165962713D01*
X371103921Y-165962713D02*
X371105498Y-165961420D01*
X371105498Y-165961420D02*
X371106874Y-165960080D01*
X371106874Y-165960080D02*
X371108049Y-165958690D01*
X371108049Y-165958690D02*
X371109023Y-165957248D01*
X371109023Y-165957248D02*
X371109795Y-165955753D01*
X371109795Y-165955753D02*
X371110366Y-165954202D01*
X371110366Y-165954202D02*
X371110736Y-165952594D01*
X371110736Y-165952594D02*
X371110903Y-165950927D01*
X371110903Y-165950927D02*
X371110869Y-165949198D01*
X371110869Y-165949198D02*
X371110633Y-165947405D01*
X371110633Y-165947405D02*
X371110194Y-165945547D01*
X371110194Y-165945547D02*
X371109554Y-165943622D01*
X371109554Y-165943622D02*
X371108711Y-165941627D01*
X371108711Y-165941627D02*
X371107665Y-165939561D01*
X371107665Y-165939561D02*
X371106416Y-165937421D01*
X371106416Y-165937421D02*
X371104965Y-165935206D01*
X371104965Y-165935206D02*
X371103311Y-165932914D01*
X371103311Y-165932914D02*
X371101453Y-165930542D01*
X371101453Y-165930542D02*
X371099392Y-165928089D01*
X371099392Y-165928089D02*
X371097128Y-165925552D01*
X371097128Y-165925552D02*
X371094660Y-165922931D01*
X371094660Y-165922931D02*
X371091988Y-165920222D01*
X371091988Y-165920222D02*
X371089112Y-165917423D01*
X371089112Y-165917423D02*
X371086032Y-165914534D01*
X371086032Y-165914534D02*
X371082748Y-165911551D01*
X371082748Y-165911551D02*
X371079260Y-165908473D01*
X371079260Y-165908473D02*
X371075567Y-165905297D01*
X371075567Y-165905297D02*
X370953186Y-165838636D01*
X370953186Y-165838636D02*
X370832981Y-165768539D01*
X370832981Y-165768539D02*
X370715020Y-165695064D01*
X370715020Y-165695064D02*
X370599367Y-165618269D01*
X370599367Y-165618269D02*
X370486090Y-165538212D01*
X370486090Y-165538212D02*
X370375256Y-165454950D01*
X370375256Y-165454950D02*
X370266930Y-165368541D01*
X370266930Y-165368541D02*
X370161178Y-165279044D01*
X370161178Y-165279044D02*
X370058069Y-165186516D01*
X370058069Y-165186516D02*
X369957667Y-165091016D01*
X369957667Y-165091016D02*
X369860039Y-164992600D01*
X369860039Y-164992600D02*
X369765251Y-164891327D01*
X369765251Y-164891327D02*
X369673371Y-164787255D01*
X369673371Y-164787255D02*
X369584464Y-164680441D01*
X369584464Y-164680441D02*
X369498597Y-164570944D01*
X369498597Y-164570944D02*
X369415837Y-164458821D01*
X369415837Y-164458821D02*
X369711243Y-164496987D01*
X369711243Y-164496987D02*
X369780692Y-164506358D01*
X369780692Y-164506358D02*
X369848628Y-164516343D01*
X369848628Y-164516343D02*
X369915175Y-164527283D01*
X369915175Y-164527283D02*
X369980457Y-164539519D01*
X369980457Y-164539519D02*
X369994787Y-164541751D01*
X369994787Y-164541751D02*
X370009148Y-164543752D01*
X370009148Y-164543752D02*
X370023538Y-164545522D01*
X370023538Y-164545522D02*
X370037953Y-164547061D01*
X370037953Y-164547061D02*
X370052391Y-164548367D01*
X370052391Y-164548367D02*
X370066849Y-164549442D01*
X370066849Y-164549442D02*
X370081325Y-164550285D01*
X370081325Y-164550285D02*
X370095815Y-164550896D01*
X370095815Y-164550896D02*
X370123817Y-164551493D01*
X370123817Y-164551493D02*
X370151574Y-164550237D01*
X370151574Y-164550237D02*
X370179008Y-164547169D01*
X370179008Y-164547169D02*
X370206039Y-164542329D01*
X370206039Y-164542329D02*
X370232588Y-164535758D01*
X370232588Y-164535758D02*
X370258577Y-164527494D01*
X370258577Y-164527494D02*
X370283925Y-164517579D01*
X370283925Y-164517579D02*
X370308554Y-164506053D01*
X370308554Y-164506053D02*
X370332385Y-164492956D01*
X370332385Y-164492956D02*
X370355338Y-164478327D01*
X370355338Y-164478327D02*
X370377334Y-164462208D01*
X370377334Y-164462208D02*
X370398295Y-164444639D01*
X370398295Y-164444639D02*
X370418142Y-164425659D01*
X370418142Y-164425659D02*
X370436794Y-164405309D01*
X370436794Y-164405309D02*
X370454173Y-164383630D01*
X370454173Y-164383630D02*
X370470201Y-164360660D01*
X370470201Y-164360660D02*
X370470465Y-164360925D01*
X370470465Y-164360925D02*
X370470465Y-164360925D01*
G36*
X369226627Y-163449938D02*
G01*
X369230750Y-163450098D01*
X369234861Y-163450387D01*
X369238959Y-163450804D01*
X369243039Y-163451348D01*
X369247100Y-163452018D01*
X369251138Y-163452814D01*
X369255151Y-163453736D01*
X369259134Y-163454783D01*
X369263086Y-163455954D01*
X369267003Y-163457248D01*
X369270883Y-163458667D01*
X369274722Y-163460207D01*
X369278517Y-163461871D01*
X369286813Y-163465236D01*
X369294429Y-163468899D01*
X369301358Y-163472886D01*
X369304561Y-163475008D01*
X369307588Y-163477221D01*
X369310439Y-163479527D01*
X369313112Y-163481929D01*
X369315606Y-163484431D01*
X369317919Y-163487037D01*
X369320052Y-163489748D01*
X369322001Y-163492568D01*
X369323767Y-163495500D01*
X369325348Y-163498548D01*
X369326744Y-163501715D01*
X369327951Y-163505003D01*
X369328971Y-163508417D01*
X369329801Y-163511958D01*
X369330440Y-163515630D01*
X369330888Y-163519437D01*
X369331142Y-163523382D01*
X369331202Y-163527467D01*
X369331067Y-163531695D01*
X369330736Y-163536071D01*
X369330207Y-163540597D01*
X369329478Y-163545276D01*
X369327421Y-163555106D01*
X369324555Y-163565587D01*
X369307659Y-163603290D01*
X369292013Y-163641447D01*
X369277622Y-163680027D01*
X369264492Y-163718999D01*
X369252629Y-163758331D01*
X369242037Y-163797993D01*
X369232723Y-163837953D01*
X369224693Y-163878181D01*
X369217952Y-163918644D01*
X369212506Y-163959312D01*
X369208361Y-164000154D01*
X369205522Y-164041138D01*
X369203995Y-164082234D01*
X369203786Y-164123410D01*
X369204901Y-164164636D01*
X369207345Y-164205879D01*
X369253382Y-164211700D01*
X369306299Y-164217521D01*
X369407634Y-164222548D01*
X369517171Y-164233925D01*
X369626709Y-164245566D01*
X369730426Y-164251387D01*
X369834142Y-164256943D01*
X369939976Y-164268585D01*
X369986013Y-164268585D01*
X370038930Y-164274406D01*
X370084703Y-164280227D01*
X370125184Y-164280227D01*
X370171221Y-164285783D01*
X370211173Y-164291075D01*
X370245569Y-164296896D01*
X370286051Y-164296896D01*
X370314890Y-164303246D01*
X370349286Y-164309066D01*
X370372305Y-164314623D01*
X370401144Y-164320443D01*
X370418607Y-164326264D01*
X370435805Y-164332085D01*
X370453003Y-164338435D01*
X370458823Y-164343991D01*
X370464644Y-164349812D01*
X370470465Y-164349812D01*
X370470465Y-164360925D01*
X370470201Y-164360660D01*
X370454173Y-164383630D01*
X370436794Y-164405309D01*
X370418142Y-164425659D01*
X370398295Y-164444639D01*
X370377334Y-164462208D01*
X370355338Y-164478327D01*
X370332385Y-164492956D01*
X370308554Y-164506053D01*
X370283925Y-164517579D01*
X370258577Y-164527494D01*
X370232588Y-164535758D01*
X370206039Y-164542329D01*
X370179008Y-164547169D01*
X370151574Y-164550237D01*
X370123817Y-164551493D01*
X370095815Y-164550896D01*
X370081325Y-164550285D01*
X370066849Y-164549442D01*
X370052391Y-164548367D01*
X370037953Y-164547061D01*
X370023538Y-164545522D01*
X370009148Y-164543752D01*
X369994787Y-164541751D01*
X369980457Y-164539519D01*
X369915175Y-164527283D01*
X369848628Y-164516343D01*
X369780692Y-164506358D01*
X369711243Y-164496987D01*
X369415837Y-164458821D01*
X369498597Y-164570944D01*
X369584464Y-164680441D01*
X369673371Y-164787255D01*
X369765251Y-164891327D01*
X369860039Y-164992600D01*
X369957667Y-165091016D01*
X370058069Y-165186516D01*
X370161178Y-165279044D01*
X370266930Y-165368541D01*
X370375256Y-165454950D01*
X370486090Y-165538212D01*
X370599367Y-165618269D01*
X370715020Y-165695064D01*
X370832981Y-165768539D01*
X370953186Y-165838636D01*
X371075567Y-165905297D01*
X371079260Y-165908473D01*
X371082748Y-165911551D01*
X371086032Y-165914534D01*
X371089112Y-165917423D01*
X371091988Y-165920222D01*
X371094660Y-165922931D01*
X371097128Y-165925552D01*
X371099392Y-165928089D01*
X371101453Y-165930542D01*
X371103311Y-165932914D01*
X371104965Y-165935206D01*
X371106416Y-165937421D01*
X371107665Y-165939561D01*
X371108711Y-165941627D01*
X371109554Y-165943622D01*
X371110194Y-165945547D01*
X371110633Y-165947405D01*
X371110869Y-165949198D01*
X371110903Y-165950927D01*
X371110736Y-165952594D01*
X371110366Y-165954202D01*
X371109795Y-165955753D01*
X371109023Y-165957248D01*
X371108049Y-165958690D01*
X371106874Y-165960080D01*
X371105498Y-165961420D01*
X371103921Y-165962713D01*
X371102144Y-165963960D01*
X371100166Y-165965164D01*
X371097987Y-165966326D01*
X371095608Y-165967448D01*
X371093030Y-165968533D01*
X371081463Y-165974482D01*
X371066342Y-165978334D01*
X371025942Y-165979723D01*
X370972831Y-165972645D01*
X370908011Y-165957048D01*
X370832485Y-165932878D01*
X370747255Y-165900081D01*
X370653324Y-165858604D01*
X370551692Y-165808394D01*
X370443363Y-165749396D01*
X370329340Y-165681558D01*
X370210623Y-165604826D01*
X370088216Y-165519147D01*
X369963121Y-165424466D01*
X369836340Y-165320731D01*
X369708876Y-165207888D01*
X369581729Y-165085883D01*
X369548111Y-165051756D01*
X369531779Y-165035575D01*
X369515584Y-165019837D01*
X369499388Y-165004434D01*
X369483056Y-164989257D01*
X369466452Y-164974198D01*
X369449438Y-164959148D01*
X369400250Y-164905617D01*
X369356470Y-164857581D01*
X369318097Y-164815101D01*
X369285132Y-164778239D01*
X369257574Y-164747058D01*
X369235423Y-164721619D01*
X369218680Y-164701984D01*
X369207344Y-164688216D01*
X369207634Y-164756196D01*
X369209280Y-164824137D01*
X369212281Y-164892018D01*
X369216636Y-164959819D01*
X369222343Y-165027519D01*
X369229400Y-165095099D01*
X369237807Y-165162538D01*
X369247561Y-165229817D01*
X369242565Y-165266366D01*
X369236138Y-165302647D01*
X369228293Y-165338619D01*
X369219040Y-165374241D01*
X369208391Y-165409470D01*
X369196358Y-165444266D01*
X369182952Y-165478587D01*
X369168186Y-165512392D01*
X369160589Y-165522687D01*
X369152875Y-165532037D01*
X369145041Y-165540432D01*
X369141077Y-165544268D01*
X369137081Y-165547862D01*
X369133052Y-165551213D01*
X369128990Y-165554319D01*
X369124895Y-165557180D01*
X369120765Y-165559793D01*
X369116601Y-165562159D01*
X369112401Y-165564275D01*
X369108165Y-165566141D01*
X369103892Y-165567756D01*
X369099582Y-165569117D01*
X369095234Y-165570225D01*
X369090848Y-165571078D01*
X369086423Y-165571675D01*
X369081959Y-165572014D01*
X369077454Y-165572095D01*
X369072909Y-165571916D01*
X369068322Y-165571476D01*
X369063693Y-165570775D01*
X369059023Y-165569810D01*
X369054309Y-165568581D01*
X369049551Y-165567086D01*
X369044749Y-165565325D01*
X369039903Y-165563296D01*
X369035011Y-165560998D01*
X369030073Y-165558429D01*
X369018726Y-165526943D01*
X369008301Y-165495189D01*
X368998802Y-165463190D01*
X368990231Y-165430965D01*
X368982591Y-165398534D01*
X368975885Y-165365917D01*
X368970114Y-165333136D01*
X368965283Y-165300210D01*
X368961393Y-165267160D01*
X368958447Y-165234005D01*
X368956448Y-165200766D01*
X368955399Y-165167464D01*
X368955302Y-165134119D01*
X368956161Y-165100750D01*
X368957976Y-165067379D01*
X368960752Y-165034025D01*
X368960661Y-164893473D01*
X368960025Y-164774601D01*
X368958297Y-164677358D01*
X368956853Y-164636833D01*
X368954931Y-164601696D01*
X368683226Y-164872116D01*
X368557410Y-164994563D01*
X368438241Y-165108501D01*
X368325686Y-165213929D01*
X368219711Y-165310848D01*
X368120283Y-165399256D01*
X368027368Y-165479153D01*
X367940934Y-165550539D01*
X367860947Y-165613414D01*
X367787373Y-165667777D01*
X367720179Y-165713628D01*
X367659332Y-165750966D01*
X367604799Y-165779791D01*
X367556546Y-165800102D01*
X367534764Y-165807065D01*
X367514540Y-165811900D01*
X367452802Y-165813316D01*
X367391109Y-165813278D01*
X367329485Y-165811788D01*
X367267955Y-165808851D01*
X367206545Y-165804470D01*
X367145281Y-165798651D01*
X367084186Y-165791395D01*
X367023287Y-165782709D01*
X366962609Y-165772594D01*
X366902177Y-165761056D01*
X366842016Y-165748098D01*
X366782151Y-165733724D01*
X366722609Y-165717937D01*
X366663413Y-165700743D01*
X366604590Y-165682145D01*
X366546165Y-165662146D01*
X366546249Y-165660004D01*
X366546500Y-165657893D01*
X366546915Y-165655814D01*
X366547494Y-165653764D01*
X366548232Y-165651742D01*
X366549130Y-165649749D01*
X366551390Y-165645841D01*
X366554259Y-165642032D01*
X366557718Y-165638315D01*
X366561750Y-165634681D01*
X366566339Y-165631123D01*
X366571468Y-165627634D01*
X366577119Y-165624205D01*
X366583276Y-165620829D01*
X366589920Y-165617497D01*
X366597036Y-165614203D01*
X366604607Y-165610938D01*
X366612614Y-165607695D01*
X366621042Y-165604467D01*
X367773567Y-165207591D01*
X367927117Y-165122033D01*
X368078499Y-165032846D01*
X368227650Y-164940072D01*
X368374507Y-164843755D01*
X368519007Y-164743936D01*
X368661087Y-164640658D01*
X368800684Y-164533964D01*
X368937734Y-164423896D01*
X368937798Y-164421650D01*
X368937973Y-164419291D01*
X368938553Y-164414296D01*
X368939269Y-164409041D01*
X368939917Y-164403655D01*
X368940151Y-164400954D01*
X368940292Y-164398269D01*
X368940313Y-164395617D01*
X368940190Y-164393014D01*
X368939895Y-164390476D01*
X368939405Y-164388019D01*
X368939078Y-164386826D01*
X368938693Y-164385660D01*
X368938246Y-164384522D01*
X368937734Y-164383414D01*
X368841623Y-164368572D01*
X368730669Y-164354120D01*
X368465287Y-164325867D01*
X368143699Y-164297615D01*
X367768011Y-164268321D01*
X367763728Y-164269290D01*
X367759510Y-164270064D01*
X367755354Y-164270643D01*
X367751258Y-164271029D01*
X367747221Y-164271221D01*
X367743240Y-164271220D01*
X367739313Y-164271026D01*
X367735438Y-164270640D01*
X367731614Y-164270062D01*
X367727837Y-164269292D01*
X367724106Y-164268332D01*
X367720419Y-164267181D01*
X367716773Y-164265840D01*
X367713167Y-164264309D01*
X367709599Y-164262590D01*
X367706066Y-164260681D01*
X367702566Y-164258584D01*
X367699097Y-164256299D01*
X367695658Y-164253826D01*
X367692246Y-164251167D01*
X367688858Y-164248320D01*
X367685494Y-164245288D01*
X367678826Y-164238667D01*
X367672224Y-164231306D01*
X367665673Y-164223209D01*
X367659154Y-164214379D01*
X367652653Y-164204821D01*
X367652010Y-164196637D01*
X367652401Y-164188277D01*
X367653806Y-164179769D01*
X367656206Y-164171143D01*
X367659582Y-164162427D01*
X367663915Y-164153648D01*
X367675374Y-164136021D01*
X367690430Y-164118489D01*
X367708928Y-164101283D01*
X367730717Y-164084630D01*
X367755642Y-164068759D01*
X367783549Y-164053898D01*
X367814286Y-164040278D01*
X367847699Y-164028125D01*
X367883634Y-164017669D01*
X367921938Y-164009139D01*
X367962457Y-164002763D01*
X368005038Y-163998769D01*
X368049528Y-163997387D01*
X368089722Y-163999002D01*
X368129823Y-164001807D01*
X368169807Y-164005799D01*
X368209645Y-164010974D01*
X368249313Y-164017328D01*
X368288784Y-164024857D01*
X368328031Y-164033557D01*
X368367028Y-164043425D01*
X368879790Y-164147141D01*
X368882014Y-164147003D01*
X368884236Y-164146933D01*
X368886457Y-164146930D01*
X368888674Y-164146995D01*
X368890886Y-164147128D01*
X368893092Y-164147328D01*
X368895289Y-164147594D01*
X368897477Y-164147928D01*
X368899654Y-164148327D01*
X368901818Y-164148793D01*
X368903968Y-164149325D01*
X368906102Y-164149922D01*
X368908219Y-164150585D01*
X368910317Y-164151312D01*
X368912395Y-164152105D01*
X368914451Y-164152962D01*
X368906488Y-164103679D01*
X368896648Y-164054792D01*
X368884947Y-164006355D01*
X368871402Y-163958420D01*
X368856028Y-163911040D01*
X368838841Y-163864267D01*
X368819857Y-163818155D01*
X368799092Y-163772756D01*
X368796507Y-163768969D01*
X368794158Y-163765149D01*
X368792043Y-163761296D01*
X368790163Y-163757413D01*
X368788515Y-163753500D01*
X368787099Y-163749559D01*
X368785914Y-163745589D01*
X368784958Y-163741593D01*
X368784230Y-163737571D01*
X368783729Y-163733525D01*
X368783454Y-163729456D01*
X368783405Y-163725364D01*
X368783579Y-163721250D01*
X368783976Y-163717117D01*
X368784594Y-163712964D01*
X368785433Y-163708793D01*
X368786491Y-163704605D01*
X368787768Y-163700401D01*
X368789261Y-163696182D01*
X368790971Y-163691950D01*
X368792896Y-163687704D01*
X368795034Y-163683447D01*
X368799948Y-163674902D01*
X368805703Y-163666322D01*
X368812292Y-163657717D01*
X368819704Y-163649095D01*
X368827931Y-163640464D01*
X368843883Y-163627626D01*
X368860090Y-163615139D01*
X368876547Y-163603006D01*
X368893248Y-163591231D01*
X368910186Y-163579817D01*
X368927357Y-163568767D01*
X368944754Y-163558085D01*
X368962370Y-163547775D01*
X368980201Y-163537840D01*
X368998239Y-163528282D01*
X369016480Y-163519106D01*
X369034917Y-163510315D01*
X369053544Y-163501912D01*
X369072355Y-163493901D01*
X369091345Y-163486286D01*
X369110507Y-163479069D01*
X369116336Y-163475415D01*
X369122287Y-163471998D01*
X369128352Y-163468821D01*
X369134523Y-163465886D01*
X369140793Y-163463194D01*
X369147155Y-163460747D01*
X369153602Y-163458548D01*
X369160126Y-163456598D01*
X369166721Y-163454900D01*
X369173377Y-163453456D01*
X369180090Y-163452267D01*
X369186850Y-163451336D01*
X369193650Y-163450664D01*
X369200485Y-163450255D01*
X369207345Y-163450109D01*
X369214223Y-163450229D01*
X369218361Y-163450002D01*
X369222497Y-163449905D01*
X369226627Y-163449938D01*
G37*
X369226627Y-163449938D02*
X369230750Y-163450098D01*
X369234861Y-163450387D01*
X369238959Y-163450804D01*
X369243039Y-163451348D01*
X369247100Y-163452018D01*
X369251138Y-163452814D01*
X369255151Y-163453736D01*
X369259134Y-163454783D01*
X369263086Y-163455954D01*
X369267003Y-163457248D01*
X369270883Y-163458667D01*
X369274722Y-163460207D01*
X369278517Y-163461871D01*
X369286813Y-163465236D01*
X369294429Y-163468899D01*
X369301358Y-163472886D01*
X369304561Y-163475008D01*
X369307588Y-163477221D01*
X369310439Y-163479527D01*
X369313112Y-163481929D01*
X369315606Y-163484431D01*
X369317919Y-163487037D01*
X369320052Y-163489748D01*
X369322001Y-163492568D01*
X369323767Y-163495500D01*
X369325348Y-163498548D01*
X369326744Y-163501715D01*
X369327951Y-163505003D01*
X369328971Y-163508417D01*
X369329801Y-163511958D01*
X369330440Y-163515630D01*
X369330888Y-163519437D01*
X369331142Y-163523382D01*
X369331202Y-163527467D01*
X369331067Y-163531695D01*
X369330736Y-163536071D01*
X369330207Y-163540597D01*
X369329478Y-163545276D01*
X369327421Y-163555106D01*
X369324555Y-163565587D01*
X369307659Y-163603290D01*
X369292013Y-163641447D01*
X369277622Y-163680027D01*
X369264492Y-163718999D01*
X369252629Y-163758331D01*
X369242037Y-163797993D01*
X369232723Y-163837953D01*
X369224693Y-163878181D01*
X369217952Y-163918644D01*
X369212506Y-163959312D01*
X369208361Y-164000154D01*
X369205522Y-164041138D01*
X369203995Y-164082234D01*
X369203786Y-164123410D01*
X369204901Y-164164636D01*
X369207345Y-164205879D01*
X369253382Y-164211700D01*
X369306299Y-164217521D01*
X369407634Y-164222548D01*
X369517171Y-164233925D01*
X369626709Y-164245566D01*
X369730426Y-164251387D01*
X369834142Y-164256943D01*
X369939976Y-164268585D01*
X369986013Y-164268585D01*
X370038930Y-164274406D01*
X370084703Y-164280227D01*
X370125184Y-164280227D01*
X370171221Y-164285783D01*
X370211173Y-164291075D01*
X370245569Y-164296896D01*
X370286051Y-164296896D01*
X370314890Y-164303246D01*
X370349286Y-164309066D01*
X370372305Y-164314623D01*
X370401144Y-164320443D01*
X370418607Y-164326264D01*
X370435805Y-164332085D01*
X370453003Y-164338435D01*
X370458823Y-164343991D01*
X370464644Y-164349812D01*
X370470465Y-164349812D01*
X370470465Y-164360925D01*
X370470201Y-164360660D01*
X370454173Y-164383630D01*
X370436794Y-164405309D01*
X370418142Y-164425659D01*
X370398295Y-164444639D01*
X370377334Y-164462208D01*
X370355338Y-164478327D01*
X370332385Y-164492956D01*
X370308554Y-164506053D01*
X370283925Y-164517579D01*
X370258577Y-164527494D01*
X370232588Y-164535758D01*
X370206039Y-164542329D01*
X370179008Y-164547169D01*
X370151574Y-164550237D01*
X370123817Y-164551493D01*
X370095815Y-164550896D01*
X370081325Y-164550285D01*
X370066849Y-164549442D01*
X370052391Y-164548367D01*
X370037953Y-164547061D01*
X370023538Y-164545522D01*
X370009148Y-164543752D01*
X369994787Y-164541751D01*
X369980457Y-164539519D01*
X369915175Y-164527283D01*
X369848628Y-164516343D01*
X369780692Y-164506358D01*
X369711243Y-164496987D01*
X369415837Y-164458821D01*
X369498597Y-164570944D01*
X369584464Y-164680441D01*
X369673371Y-164787255D01*
X369765251Y-164891327D01*
X369860039Y-164992600D01*
X369957667Y-165091016D01*
X370058069Y-165186516D01*
X370161178Y-165279044D01*
X370266930Y-165368541D01*
X370375256Y-165454950D01*
X370486090Y-165538212D01*
X370599367Y-165618269D01*
X370715020Y-165695064D01*
X370832981Y-165768539D01*
X370953186Y-165838636D01*
X371075567Y-165905297D01*
X371079260Y-165908473D01*
X371082748Y-165911551D01*
X371086032Y-165914534D01*
X371089112Y-165917423D01*
X371091988Y-165920222D01*
X371094660Y-165922931D01*
X371097128Y-165925552D01*
X371099392Y-165928089D01*
X371101453Y-165930542D01*
X371103311Y-165932914D01*
X371104965Y-165935206D01*
X371106416Y-165937421D01*
X371107665Y-165939561D01*
X371108711Y-165941627D01*
X371109554Y-165943622D01*
X371110194Y-165945547D01*
X371110633Y-165947405D01*
X371110869Y-165949198D01*
X371110903Y-165950927D01*
X371110736Y-165952594D01*
X371110366Y-165954202D01*
X371109795Y-165955753D01*
X371109023Y-165957248D01*
X371108049Y-165958690D01*
X371106874Y-165960080D01*
X371105498Y-165961420D01*
X371103921Y-165962713D01*
X371102144Y-165963960D01*
X371100166Y-165965164D01*
X371097987Y-165966326D01*
X371095608Y-165967448D01*
X371093030Y-165968533D01*
X371081463Y-165974482D01*
X371066342Y-165978334D01*
X371025942Y-165979723D01*
X370972831Y-165972645D01*
X370908011Y-165957048D01*
X370832485Y-165932878D01*
X370747255Y-165900081D01*
X370653324Y-165858604D01*
X370551692Y-165808394D01*
X370443363Y-165749396D01*
X370329340Y-165681558D01*
X370210623Y-165604826D01*
X370088216Y-165519147D01*
X369963121Y-165424466D01*
X369836340Y-165320731D01*
X369708876Y-165207888D01*
X369581729Y-165085883D01*
X369548111Y-165051756D01*
X369531779Y-165035575D01*
X369515584Y-165019837D01*
X369499388Y-165004434D01*
X369483056Y-164989257D01*
X369466452Y-164974198D01*
X369449438Y-164959148D01*
X369400250Y-164905617D01*
X369356470Y-164857581D01*
X369318097Y-164815101D01*
X369285132Y-164778239D01*
X369257574Y-164747058D01*
X369235423Y-164721619D01*
X369218680Y-164701984D01*
X369207344Y-164688216D01*
X369207634Y-164756196D01*
X369209280Y-164824137D01*
X369212281Y-164892018D01*
X369216636Y-164959819D01*
X369222343Y-165027519D01*
X369229400Y-165095099D01*
X369237807Y-165162538D01*
X369247561Y-165229817D01*
X369242565Y-165266366D01*
X369236138Y-165302647D01*
X369228293Y-165338619D01*
X369219040Y-165374241D01*
X369208391Y-165409470D01*
X369196358Y-165444266D01*
X369182952Y-165478587D01*
X369168186Y-165512392D01*
X369160589Y-165522687D01*
X369152875Y-165532037D01*
X369145041Y-165540432D01*
X369141077Y-165544268D01*
X369137081Y-165547862D01*
X369133052Y-165551213D01*
X369128990Y-165554319D01*
X369124895Y-165557180D01*
X369120765Y-165559793D01*
X369116601Y-165562159D01*
X369112401Y-165564275D01*
X369108165Y-165566141D01*
X369103892Y-165567756D01*
X369099582Y-165569117D01*
X369095234Y-165570225D01*
X369090848Y-165571078D01*
X369086423Y-165571675D01*
X369081959Y-165572014D01*
X369077454Y-165572095D01*
X369072909Y-165571916D01*
X369068322Y-165571476D01*
X369063693Y-165570775D01*
X369059023Y-165569810D01*
X369054309Y-165568581D01*
X369049551Y-165567086D01*
X369044749Y-165565325D01*
X369039903Y-165563296D01*
X369035011Y-165560998D01*
X369030073Y-165558429D01*
X369018726Y-165526943D01*
X369008301Y-165495189D01*
X368998802Y-165463190D01*
X368990231Y-165430965D01*
X368982591Y-165398534D01*
X368975885Y-165365917D01*
X368970114Y-165333136D01*
X368965283Y-165300210D01*
X368961393Y-165267160D01*
X368958447Y-165234005D01*
X368956448Y-165200766D01*
X368955399Y-165167464D01*
X368955302Y-165134119D01*
X368956161Y-165100750D01*
X368957976Y-165067379D01*
X368960752Y-165034025D01*
X368960661Y-164893473D01*
X368960025Y-164774601D01*
X368958297Y-164677358D01*
X368956853Y-164636833D01*
X368954931Y-164601696D01*
X368683226Y-164872116D01*
X368557410Y-164994563D01*
X368438241Y-165108501D01*
X368325686Y-165213929D01*
X368219711Y-165310848D01*
X368120283Y-165399256D01*
X368027368Y-165479153D01*
X367940934Y-165550539D01*
X367860947Y-165613414D01*
X367787373Y-165667777D01*
X367720179Y-165713628D01*
X367659332Y-165750966D01*
X367604799Y-165779791D01*
X367556546Y-165800102D01*
X367534764Y-165807065D01*
X367514540Y-165811900D01*
X367452802Y-165813316D01*
X367391109Y-165813278D01*
X367329485Y-165811788D01*
X367267955Y-165808851D01*
X367206545Y-165804470D01*
X367145281Y-165798651D01*
X367084186Y-165791395D01*
X367023287Y-165782709D01*
X366962609Y-165772594D01*
X366902177Y-165761056D01*
X366842016Y-165748098D01*
X366782151Y-165733724D01*
X366722609Y-165717937D01*
X366663413Y-165700743D01*
X366604590Y-165682145D01*
X366546165Y-165662146D01*
X366546249Y-165660004D01*
X366546500Y-165657893D01*
X366546915Y-165655814D01*
X366547494Y-165653764D01*
X366548232Y-165651742D01*
X366549130Y-165649749D01*
X366551390Y-165645841D01*
X366554259Y-165642032D01*
X366557718Y-165638315D01*
X366561750Y-165634681D01*
X366566339Y-165631123D01*
X366571468Y-165627634D01*
X366577119Y-165624205D01*
X366583276Y-165620829D01*
X366589920Y-165617497D01*
X366597036Y-165614203D01*
X366604607Y-165610938D01*
X366612614Y-165607695D01*
X366621042Y-165604467D01*
X367773567Y-165207591D01*
X367927117Y-165122033D01*
X368078499Y-165032846D01*
X368227650Y-164940072D01*
X368374507Y-164843755D01*
X368519007Y-164743936D01*
X368661087Y-164640658D01*
X368800684Y-164533964D01*
X368937734Y-164423896D01*
X368937798Y-164421650D01*
X368937973Y-164419291D01*
X368938553Y-164414296D01*
X368939269Y-164409041D01*
X368939917Y-164403655D01*
X368940151Y-164400954D01*
X368940292Y-164398269D01*
X368940313Y-164395617D01*
X368940190Y-164393014D01*
X368939895Y-164390476D01*
X368939405Y-164388019D01*
X368939078Y-164386826D01*
X368938693Y-164385660D01*
X368938246Y-164384522D01*
X368937734Y-164383414D01*
X368841623Y-164368572D01*
X368730669Y-164354120D01*
X368465287Y-164325867D01*
X368143699Y-164297615D01*
X367768011Y-164268321D01*
X367763728Y-164269290D01*
X367759510Y-164270064D01*
X367755354Y-164270643D01*
X367751258Y-164271029D01*
X367747221Y-164271221D01*
X367743240Y-164271220D01*
X367739313Y-164271026D01*
X367735438Y-164270640D01*
X367731614Y-164270062D01*
X367727837Y-164269292D01*
X367724106Y-164268332D01*
X367720419Y-164267181D01*
X367716773Y-164265840D01*
X367713167Y-164264309D01*
X367709599Y-164262590D01*
X367706066Y-164260681D01*
X367702566Y-164258584D01*
X367699097Y-164256299D01*
X367695658Y-164253826D01*
X367692246Y-164251167D01*
X367688858Y-164248320D01*
X367685494Y-164245288D01*
X367678826Y-164238667D01*
X367672224Y-164231306D01*
X367665673Y-164223209D01*
X367659154Y-164214379D01*
X367652653Y-164204821D01*
X367652010Y-164196637D01*
X367652401Y-164188277D01*
X367653806Y-164179769D01*
X367656206Y-164171143D01*
X367659582Y-164162427D01*
X367663915Y-164153648D01*
X367675374Y-164136021D01*
X367690430Y-164118489D01*
X367708928Y-164101283D01*
X367730717Y-164084630D01*
X367755642Y-164068759D01*
X367783549Y-164053898D01*
X367814286Y-164040278D01*
X367847699Y-164028125D01*
X367883634Y-164017669D01*
X367921938Y-164009139D01*
X367962457Y-164002763D01*
X368005038Y-163998769D01*
X368049528Y-163997387D01*
X368089722Y-163999002D01*
X368129823Y-164001807D01*
X368169807Y-164005799D01*
X368209645Y-164010974D01*
X368249313Y-164017328D01*
X368288784Y-164024857D01*
X368328031Y-164033557D01*
X368367028Y-164043425D01*
X368879790Y-164147141D01*
X368882014Y-164147003D01*
X368884236Y-164146933D01*
X368886457Y-164146930D01*
X368888674Y-164146995D01*
X368890886Y-164147128D01*
X368893092Y-164147328D01*
X368895289Y-164147594D01*
X368897477Y-164147928D01*
X368899654Y-164148327D01*
X368901818Y-164148793D01*
X368903968Y-164149325D01*
X368906102Y-164149922D01*
X368908219Y-164150585D01*
X368910317Y-164151312D01*
X368912395Y-164152105D01*
X368914451Y-164152962D01*
X368906488Y-164103679D01*
X368896648Y-164054792D01*
X368884947Y-164006355D01*
X368871402Y-163958420D01*
X368856028Y-163911040D01*
X368838841Y-163864267D01*
X368819857Y-163818155D01*
X368799092Y-163772756D01*
X368796507Y-163768969D01*
X368794158Y-163765149D01*
X368792043Y-163761296D01*
X368790163Y-163757413D01*
X368788515Y-163753500D01*
X368787099Y-163749559D01*
X368785914Y-163745589D01*
X368784958Y-163741593D01*
X368784230Y-163737571D01*
X368783729Y-163733525D01*
X368783454Y-163729456D01*
X368783405Y-163725364D01*
X368783579Y-163721250D01*
X368783976Y-163717117D01*
X368784594Y-163712964D01*
X368785433Y-163708793D01*
X368786491Y-163704605D01*
X368787768Y-163700401D01*
X368789261Y-163696182D01*
X368790971Y-163691950D01*
X368792896Y-163687704D01*
X368795034Y-163683447D01*
X368799948Y-163674902D01*
X368805703Y-163666322D01*
X368812292Y-163657717D01*
X368819704Y-163649095D01*
X368827931Y-163640464D01*
X368843883Y-163627626D01*
X368860090Y-163615139D01*
X368876547Y-163603006D01*
X368893248Y-163591231D01*
X368910186Y-163579817D01*
X368927357Y-163568767D01*
X368944754Y-163558085D01*
X368962370Y-163547775D01*
X368980201Y-163537840D01*
X368998239Y-163528282D01*
X369016480Y-163519106D01*
X369034917Y-163510315D01*
X369053544Y-163501912D01*
X369072355Y-163493901D01*
X369091345Y-163486286D01*
X369110507Y-163479069D01*
X369116336Y-163475415D01*
X369122287Y-163471998D01*
X369128352Y-163468821D01*
X369134523Y-163465886D01*
X369140793Y-163463194D01*
X369147155Y-163460747D01*
X369153602Y-163458548D01*
X369160126Y-163456598D01*
X369166721Y-163454900D01*
X369173377Y-163453456D01*
X369180090Y-163452267D01*
X369186850Y-163451336D01*
X369193650Y-163450664D01*
X369200485Y-163450255D01*
X369207345Y-163450109D01*
X369214223Y-163450229D01*
X369218361Y-163450002D01*
X369222497Y-163449905D01*
X369226627Y-163449938D01*
D12*
%TO.C,MX80*%
X175418750Y-201612500D03*
D13*
X180498750Y-201612500D03*
D12*
X232568750Y-193357500D03*
D13*
X170338750Y-201612500D03*
D12*
X118268750Y-193357500D03*
D14*
X118268750Y-208597500D03*
D15*
X168333750Y-199072500D03*
D14*
X232568750Y-208597500D03*
D15*
X181233750Y-196532500D03*
%TD*%
D12*
%TO.C,MX33*%
X46831250Y-144462500D03*
D15*
X39746250Y-141922500D03*
D13*
X51911250Y-144462500D03*
X41751250Y-144462500D03*
D15*
X52646250Y-139382500D03*
%TD*%
%TO.C,MX59*%
X252671250Y-158432500D03*
D13*
X241776250Y-163512500D03*
D15*
X239771250Y-160972500D03*
D12*
X246856250Y-163512500D03*
D13*
X251936250Y-163512500D03*
%TD*%
D15*
%TO.C,MX81*%
X249296250Y-199072500D03*
X262196250Y-196532500D03*
D13*
X261461250Y-201612500D03*
D12*
X256381250Y-201612500D03*
D13*
X251301250Y-201612500D03*
%TD*%
D12*
%TO.C,MX68*%
X142081250Y-182562500D03*
D15*
X134996250Y-180022500D03*
D13*
X137001250Y-182562500D03*
D15*
X147896250Y-177482500D03*
D13*
X147161250Y-182562500D03*
%TD*%
%TO.C,MX31*%
X327501250Y-125412500D03*
D15*
X338396250Y-120332500D03*
X325496250Y-122872500D03*
D12*
X332581250Y-125412500D03*
D13*
X337661250Y-125412500D03*
%TD*%
D15*
%TO.C,MX71*%
X192146250Y-180022500D03*
X205046250Y-177482500D03*
D13*
X204311250Y-182562500D03*
D12*
X199231250Y-182562500D03*
D13*
X194151250Y-182562500D03*
%TD*%
D12*
%TO.C,MX11*%
X270668750Y-101600000D03*
D15*
X263583750Y-99060000D03*
X276483750Y-96520000D03*
D13*
X265588750Y-101600000D03*
X275748750Y-101600000D03*
%TD*%
%TO.C,MX76*%
X375761250Y-144462500D03*
D15*
X376496250Y-139382500D03*
D12*
X370681250Y-144462500D03*
D13*
X365601250Y-144462500D03*
D15*
X363596250Y-141922500D03*
%TD*%
%TO.C,MX6*%
X171708750Y-96520000D03*
D13*
X170973750Y-101600000D03*
D12*
X165893750Y-101600000D03*
D13*
X160813750Y-101600000D03*
D15*
X158808750Y-99060000D03*
%TD*%
D12*
%TO.C,MX61*%
X284924500Y-171767500D03*
D15*
X302677500Y-158432500D03*
D12*
X308800500Y-171767500D03*
X296862500Y-163512500D03*
D13*
X301942500Y-163512500D03*
D14*
X284924500Y-156527500D03*
D13*
X291782500Y-163512500D03*
D15*
X289777500Y-160972500D03*
D14*
X308800500Y-156527500D03*
%TD*%
D13*
%TO.C,MX37*%
X132873750Y-144462500D03*
D12*
X127793750Y-144462500D03*
D13*
X122713750Y-144462500D03*
D15*
X133608750Y-139382500D03*
X120708750Y-141922500D03*
%TD*%
%TO.C,MX66*%
X96896250Y-180022500D03*
D12*
X103981250Y-182562500D03*
D15*
X109796250Y-177482500D03*
D13*
X109061250Y-182562500D03*
X98901250Y-182562500D03*
%TD*%
%TO.C,MX72*%
X223361250Y-182562500D03*
D12*
X218281250Y-182562500D03*
D15*
X211196250Y-180022500D03*
D13*
X213201250Y-182562500D03*
D15*
X224096250Y-177482500D03*
%TD*%
%TO.C,MX79*%
X87371250Y-199072500D03*
D13*
X99536250Y-201612500D03*
D15*
X100271250Y-196532500D03*
D13*
X89376250Y-201612500D03*
D12*
X94456250Y-201612500D03*
%TD*%
D15*
%TO.C,MX26*%
X206433750Y-122872500D03*
X219333750Y-120332500D03*
D13*
X218598750Y-125412500D03*
X208438750Y-125412500D03*
D12*
X213518750Y-125412500D03*
%TD*%
D13*
%TO.C,MX22*%
X132238750Y-125412500D03*
D15*
X130233750Y-122872500D03*
D13*
X142398750Y-125412500D03*
D15*
X143133750Y-120332500D03*
D12*
X137318750Y-125412500D03*
%TD*%
%TO.C,MX64*%
X42037000Y-190817500D03*
D15*
X59790000Y-177482500D03*
D13*
X59055000Y-182562500D03*
D14*
X65913000Y-175577500D03*
D12*
X53975000Y-182562500D03*
D14*
X42037000Y-175577500D03*
D13*
X48895000Y-182562500D03*
D15*
X46890000Y-180022500D03*
D12*
X65913000Y-190817500D03*
%TD*%
D15*
%TO.C,MX28*%
X244533750Y-122872500D03*
D12*
X251618750Y-125412500D03*
D13*
X246538750Y-125412500D03*
X256698750Y-125412500D03*
D15*
X257433750Y-120332500D03*
%TD*%
D13*
%TO.C,MX27*%
X227488750Y-125412500D03*
D15*
X225483750Y-122872500D03*
X238383750Y-120332500D03*
D13*
X237648750Y-125412500D03*
D12*
X232568750Y-125412500D03*
%TD*%
D15*
%TO.C,MX29*%
X276483750Y-120332500D03*
X263583750Y-122872500D03*
D12*
X270668750Y-125412500D03*
D13*
X265588750Y-125412500D03*
X275748750Y-125412500D03*
%TD*%
%TO.C,MX65*%
X90011250Y-182562500D03*
D15*
X90746250Y-177482500D03*
D13*
X79851250Y-182562500D03*
D15*
X77846250Y-180022500D03*
D12*
X84931250Y-182562500D03*
%TD*%
D13*
%TO.C,MX54*%
X146526250Y-163512500D03*
D15*
X157421250Y-158432500D03*
X144521250Y-160972500D03*
D12*
X151606250Y-163512500D03*
D13*
X156686250Y-163512500D03*
%TD*%
D15*
%TO.C,MX42*%
X228858750Y-139382500D03*
D13*
X217963750Y-144462500D03*
D12*
X223043750Y-144462500D03*
D15*
X215958750Y-141922500D03*
D13*
X228123750Y-144462500D03*
%TD*%
%TO.C,MX16*%
X365601250Y-101600000D03*
D15*
X363596250Y-99060000D03*
D13*
X375761250Y-101600000D03*
D15*
X376496250Y-96520000D03*
D12*
X370681250Y-101600000D03*
%TD*%
D15*
%TO.C,MX5*%
X143133750Y-96520000D03*
D13*
X132238750Y-101600000D03*
X142398750Y-101600000D03*
D12*
X137318750Y-101600000D03*
D15*
X130233750Y-99060000D03*
%TD*%
D13*
%TO.C,MX24*%
X170338750Y-125412500D03*
D12*
X175418750Y-125412500D03*
D15*
X168333750Y-122872500D03*
X181233750Y-120332500D03*
D13*
X180498750Y-125412500D03*
%TD*%
%TO.C,MX56*%
X184626250Y-163512500D03*
D12*
X189706250Y-163512500D03*
D13*
X194786250Y-163512500D03*
D15*
X182621250Y-160972500D03*
X195521250Y-158432500D03*
%TD*%
%TO.C,MX12*%
X282633750Y-99060000D03*
D13*
X284638750Y-101600000D03*
D12*
X289718750Y-101600000D03*
D13*
X294798750Y-101600000D03*
D15*
X295533750Y-96520000D03*
%TD*%
D13*
%TO.C,MX30*%
X304323750Y-125412500D03*
D14*
X287305750Y-118427500D03*
D15*
X305058750Y-120332500D03*
X292158750Y-122872500D03*
D12*
X311181750Y-133667500D03*
D13*
X294163750Y-125412500D03*
D12*
X299243750Y-125412500D03*
D14*
X311181750Y-118427500D03*
D12*
X287305750Y-133667500D03*
%TD*%
%TO.C,MX55*%
X170656250Y-163512500D03*
D15*
X163571250Y-160972500D03*
D13*
X165576250Y-163512500D03*
D15*
X176471250Y-158432500D03*
D13*
X175736250Y-163512500D03*
%TD*%
%TO.C,MX73*%
X232251250Y-182562500D03*
D12*
X237331250Y-182562500D03*
D15*
X243146250Y-177482500D03*
X230246250Y-180022500D03*
D13*
X242411250Y-182562500D03*
%TD*%
%TO.C,MX48*%
X356711250Y-144462500D03*
D15*
X344546250Y-141922500D03*
D12*
X351631250Y-144462500D03*
D15*
X357446250Y-139382500D03*
D13*
X346551250Y-144462500D03*
%TD*%
%TO.C,MX14*%
X337661250Y-101600000D03*
D15*
X325496250Y-99060000D03*
X338396250Y-96520000D03*
D13*
X327501250Y-101600000D03*
D12*
X332581250Y-101600000D03*
%TD*%
%TO.C,MX34*%
X70643750Y-144462500D03*
D13*
X65563750Y-144462500D03*
X75723750Y-144462500D03*
D15*
X63558750Y-141922500D03*
X76458750Y-139382500D03*
%TD*%
%TO.C,MX20*%
X92133750Y-122872500D03*
X105033750Y-120332500D03*
D12*
X99218750Y-125412500D03*
D13*
X104298750Y-125412500D03*
X94138750Y-125412500D03*
%TD*%
D15*
%TO.C,MX43*%
X247908750Y-139382500D03*
D12*
X242093750Y-144462500D03*
D13*
X247173750Y-144462500D03*
D15*
X235008750Y-141922500D03*
D13*
X237013750Y-144462500D03*
%TD*%
D15*
%TO.C,MX67*%
X115946250Y-180022500D03*
X128846250Y-177482500D03*
D12*
X123031250Y-182562500D03*
D13*
X128111250Y-182562500D03*
X117951250Y-182562500D03*
%TD*%
D15*
%TO.C,MX70*%
X173096250Y-180022500D03*
D13*
X185261250Y-182562500D03*
X175101250Y-182562500D03*
D15*
X185996250Y-177482500D03*
D12*
X180181250Y-182562500D03*
%TD*%
D15*
%TO.C,MX9*%
X228858750Y-96520000D03*
D12*
X223043750Y-101600000D03*
D13*
X217963750Y-101600000D03*
D15*
X215958750Y-99060000D03*
D13*
X228123750Y-101600000D03*
%TD*%
D15*
%TO.C,MX45*%
X286008750Y-139382500D03*
D13*
X275113750Y-144462500D03*
X285273750Y-144462500D03*
D15*
X273108750Y-141922500D03*
D12*
X280193750Y-144462500D03*
%TD*%
D13*
%TO.C,MX32*%
X375761250Y-125412500D03*
D12*
X370681250Y-125412500D03*
D13*
X365601250Y-125412500D03*
D15*
X376496250Y-120332500D03*
X363596250Y-122872500D03*
%TD*%
D13*
%TO.C,MX39*%
X160813750Y-144462500D03*
D15*
X171708750Y-139382500D03*
X158808750Y-141922500D03*
D13*
X170973750Y-144462500D03*
D12*
X165893750Y-144462500D03*
%TD*%
D15*
%TO.C,MX3*%
X92133750Y-99060000D03*
D13*
X94138750Y-101600000D03*
D15*
X105033750Y-96520000D03*
D12*
X99218750Y-101600000D03*
D13*
X104298750Y-101600000D03*
%TD*%
D15*
%TO.C,MX41*%
X209808750Y-139382500D03*
X196908750Y-141922500D03*
D12*
X203993750Y-144462500D03*
D13*
X209073750Y-144462500D03*
X198913750Y-144462500D03*
%TD*%
D12*
%TO.C,MX50*%
X75406250Y-163512500D03*
D13*
X70326250Y-163512500D03*
X80486250Y-163512500D03*
D15*
X81221250Y-158432500D03*
X68321250Y-160972500D03*
%TD*%
%TO.C,MX2*%
X73083750Y-99060000D03*
D13*
X75088750Y-101600000D03*
D15*
X85983750Y-96520000D03*
D13*
X85248750Y-101600000D03*
D12*
X80168750Y-101600000D03*
%TD*%
D13*
%TO.C,MX46*%
X298926250Y-144462500D03*
D12*
X304006250Y-144462500D03*
D15*
X309821250Y-139382500D03*
X296921250Y-141922500D03*
D13*
X309086250Y-144462500D03*
%TD*%
D16*
%TO.C,U1*%
X316960250Y-158115000D03*
D17*
X316960250Y-160655000D03*
X316960250Y-163195000D03*
X316960250Y-165735000D03*
X316960250Y-168275000D03*
X316960250Y-170815000D03*
X316960250Y-173355000D03*
X316960250Y-175895000D03*
X316960250Y-178435000D03*
X316960250Y-180975000D03*
X316960250Y-183515000D03*
X316960250Y-186055000D03*
X316960250Y-188595000D03*
X316960250Y-191135000D03*
X332200250Y-191135000D03*
X332200250Y-188595000D03*
X332200250Y-186055000D03*
X332200250Y-183515000D03*
X332200250Y-180975000D03*
X332200250Y-178435000D03*
X332200250Y-175895000D03*
X332200250Y-173355000D03*
X332200250Y-170815000D03*
X332200250Y-168275000D03*
X332200250Y-165735000D03*
X332200250Y-163195000D03*
X332200250Y-160655000D03*
X332200250Y-158115000D03*
%TD*%
D13*
%TO.C,MX77*%
X41751250Y-201612500D03*
D15*
X52646250Y-196532500D03*
D13*
X51911250Y-201612500D03*
D12*
X46831250Y-201612500D03*
D15*
X39746250Y-199072500D03*
%TD*%
D12*
%TO.C,MX19*%
X80168750Y-125412500D03*
D15*
X73083750Y-122872500D03*
D13*
X75088750Y-125412500D03*
D15*
X85983750Y-120332500D03*
D13*
X85248750Y-125412500D03*
%TD*%
%TO.C,MX78*%
X65563750Y-201612500D03*
D12*
X70643750Y-201612500D03*
D15*
X76458750Y-196532500D03*
D13*
X75723750Y-201612500D03*
D15*
X63558750Y-199072500D03*
%TD*%
D18*
%TO.C,MX15*%
X352901250Y-106680000D03*
D19*
X350361250Y-106680000D03*
D13*
X346551250Y-101600000D03*
D12*
X351631250Y-101600000D03*
D13*
X356711250Y-101600000D03*
D15*
X357446250Y-96520000D03*
X344546250Y-99060000D03*
%TD*%
%TO.C,MX44*%
X266958750Y-139382500D03*
D13*
X266223750Y-144462500D03*
D12*
X261143750Y-144462500D03*
D15*
X254058750Y-141922500D03*
D13*
X256063750Y-144462500D03*
%TD*%
D12*
%TO.C,MX75*%
X292100000Y-182562500D03*
D13*
X287020000Y-182562500D03*
D12*
X304038000Y-190817500D03*
D13*
X297180000Y-182562500D03*
D15*
X285015000Y-180022500D03*
X297915000Y-177482500D03*
D14*
X304038000Y-175577500D03*
X280162000Y-175577500D03*
D12*
X280162000Y-190817500D03*
%TD*%
D15*
%TO.C,MX85*%
X344546250Y-199072500D03*
D13*
X356711250Y-201612500D03*
X346551250Y-201612500D03*
D15*
X357446250Y-196532500D03*
D12*
X351631250Y-201612500D03*
%TD*%
D13*
%TO.C,MX7*%
X179863750Y-101600000D03*
D12*
X184943750Y-101600000D03*
D13*
X190023750Y-101600000D03*
D15*
X177858750Y-99060000D03*
X190758750Y-96520000D03*
%TD*%
D12*
%TO.C,MX60*%
X265906250Y-163512500D03*
D15*
X258821250Y-160972500D03*
D13*
X270986250Y-163512500D03*
D15*
X271721250Y-158432500D03*
D13*
X260826250Y-163512500D03*
%TD*%
D12*
%TO.C,MX40*%
X184943750Y-144462500D03*
D15*
X177858750Y-141922500D03*
X190758750Y-139382500D03*
D13*
X190023750Y-144462500D03*
X179863750Y-144462500D03*
%TD*%
%TO.C,MX84*%
X327501250Y-201612500D03*
D12*
X332581250Y-201612500D03*
D15*
X338396250Y-196532500D03*
D13*
X337661250Y-201612500D03*
D15*
X325496250Y-199072500D03*
%TD*%
%TO.C,MX21*%
X124083750Y-120332500D03*
X111183750Y-122872500D03*
D13*
X113188750Y-125412500D03*
X123348750Y-125412500D03*
D12*
X118268750Y-125412500D03*
%TD*%
D18*
%TO.C,MX49*%
X45720000Y-168592500D03*
D19*
X43180000Y-168592500D03*
D15*
X37365000Y-160972500D03*
D13*
X39370000Y-163512500D03*
D12*
X44450000Y-163512500D03*
D15*
X50265000Y-158432500D03*
D13*
X49530000Y-163512500D03*
%TD*%
%TO.C,MX4*%
X123348750Y-101600000D03*
D15*
X111183750Y-99060000D03*
D12*
X118268750Y-101600000D03*
D13*
X113188750Y-101600000D03*
D15*
X124083750Y-96520000D03*
%TD*%
D13*
%TO.C,MX1*%
X36988750Y-101600000D03*
D15*
X34983750Y-99060000D03*
D13*
X47148750Y-101600000D03*
D12*
X42068750Y-101600000D03*
D15*
X47883750Y-96520000D03*
%TD*%
%TO.C,MX23*%
X162183750Y-120332500D03*
X149283750Y-122872500D03*
D13*
X151288750Y-125412500D03*
X161448750Y-125412500D03*
D12*
X156368750Y-125412500D03*
%TD*%
D13*
%TO.C,MX13*%
X303688750Y-101600000D03*
X313848750Y-101600000D03*
D15*
X314583750Y-96520000D03*
X301683750Y-99060000D03*
D12*
X308768750Y-101600000D03*
%TD*%
D13*
%TO.C,MX38*%
X151923750Y-144462500D03*
X141763750Y-144462500D03*
D15*
X152658750Y-139382500D03*
D12*
X146843750Y-144462500D03*
D15*
X139758750Y-141922500D03*
%TD*%
%TO.C,MX63*%
X357446250Y-120332500D03*
X344546250Y-122872500D03*
D13*
X356711250Y-125412500D03*
D12*
X351631250Y-125412500D03*
D13*
X346551250Y-125412500D03*
%TD*%
D15*
%TO.C,MX83*%
X309821250Y-196532500D03*
X296921250Y-199072500D03*
D12*
X304006250Y-201612500D03*
D13*
X298926250Y-201612500D03*
X309086250Y-201612500D03*
%TD*%
D15*
%TO.C,MX8*%
X209808750Y-96520000D03*
D13*
X198913750Y-101600000D03*
X209073750Y-101600000D03*
D15*
X196908750Y-99060000D03*
D12*
X203993750Y-101600000D03*
%TD*%
D13*
%TO.C,MX47*%
X327501250Y-144462500D03*
D12*
X332581250Y-144462500D03*
D15*
X338396250Y-139382500D03*
X325496250Y-141922500D03*
D13*
X337661250Y-144462500D03*
%TD*%
D15*
%TO.C,MX57*%
X214571250Y-158432500D03*
D13*
X203676250Y-163512500D03*
D15*
X201671250Y-160972500D03*
D13*
X213836250Y-163512500D03*
D12*
X208756250Y-163512500D03*
%TD*%
D15*
%TO.C,MX82*%
X273108750Y-199072500D03*
D13*
X285273750Y-201612500D03*
D15*
X286008750Y-196532500D03*
D12*
X280193750Y-201612500D03*
D13*
X275113750Y-201612500D03*
%TD*%
%TO.C,MX10*%
X256698750Y-101600000D03*
D12*
X251618750Y-101600000D03*
D13*
X246538750Y-101600000D03*
D15*
X244533750Y-99060000D03*
X257433750Y-96520000D03*
%TD*%
D13*
%TO.C,MX62*%
X346551250Y-182562500D03*
D15*
X344546250Y-180022500D03*
D12*
X351631250Y-182562500D03*
D15*
X357446250Y-177482500D03*
D13*
X356711250Y-182562500D03*
%TD*%
%TO.C,MX36*%
X103663750Y-144462500D03*
D12*
X108743750Y-144462500D03*
D15*
X101658750Y-141922500D03*
X114558750Y-139382500D03*
D13*
X113823750Y-144462500D03*
%TD*%
D15*
%TO.C,MX52*%
X119321250Y-158432500D03*
D12*
X113506250Y-163512500D03*
D13*
X108426250Y-163512500D03*
X118586250Y-163512500D03*
D15*
X106421250Y-160972500D03*
%TD*%
D13*
%TO.C,MX25*%
X189388750Y-125412500D03*
D15*
X187383750Y-122872500D03*
D13*
X199548750Y-125412500D03*
D12*
X194468750Y-125412500D03*
D15*
X200283750Y-120332500D03*
%TD*%
D13*
%TO.C,MX35*%
X94773750Y-144462500D03*
X84613750Y-144462500D03*
D12*
X89693750Y-144462500D03*
D15*
X82608750Y-141922500D03*
X95508750Y-139382500D03*
%TD*%
%TO.C,MX17*%
X47883750Y-120332500D03*
X34983750Y-122872500D03*
D12*
X42068750Y-125412500D03*
D13*
X36988750Y-125412500D03*
X47148750Y-125412500D03*
%TD*%
D12*
%TO.C,MX69*%
X161131250Y-182562500D03*
D15*
X154046250Y-180022500D03*
X166946250Y-177482500D03*
D13*
X156051250Y-182562500D03*
X166211250Y-182562500D03*
%TD*%
%TO.C,MX86*%
X365601250Y-201612500D03*
X375761250Y-201612500D03*
D15*
X376496250Y-196532500D03*
X363596250Y-199072500D03*
D12*
X370681250Y-201612500D03*
%TD*%
D15*
%TO.C,MX74*%
X262196250Y-177482500D03*
D13*
X251301250Y-182562500D03*
D12*
X256381250Y-182562500D03*
D15*
X249296250Y-180022500D03*
D13*
X261461250Y-182562500D03*
%TD*%
D15*
%TO.C,MX18*%
X54033750Y-122872500D03*
D13*
X66198750Y-125412500D03*
D12*
X61118750Y-125412500D03*
D15*
X66933750Y-120332500D03*
D13*
X56038750Y-125412500D03*
%TD*%
D15*
%TO.C,MX58*%
X233621250Y-158432500D03*
D13*
X232886250Y-163512500D03*
D12*
X227806250Y-163512500D03*
D13*
X222726250Y-163512500D03*
D15*
X220721250Y-160972500D03*
%TD*%
D13*
%TO.C,MX51*%
X99536250Y-163512500D03*
X89376250Y-163512500D03*
D12*
X94456250Y-163512500D03*
D15*
X87371250Y-160972500D03*
X100271250Y-158432500D03*
%TD*%
%TO.C,MX53*%
X125471250Y-160972500D03*
X138371250Y-158432500D03*
D13*
X127476250Y-163512500D03*
D12*
X132556250Y-163512500D03*
D13*
X137636250Y-163512500D03*
%TD*%
D16*
%TO.C,D39*%
X173831250Y-150812500D03*
D20*
X173831250Y-143192500D03*
%TD*%
D16*
%TO.C,D36*%
X116681250Y-150812500D03*
D20*
X116681250Y-143192500D03*
%TD*%
D16*
%TO.C,D24*%
X183356250Y-131603750D03*
D20*
X183356250Y-123983750D03*
%TD*%
D16*
%TO.C,D73*%
X245268750Y-188912500D03*
D20*
X245268750Y-181292500D03*
%TD*%
D16*
%TO.C,D41*%
X211931250Y-150812500D03*
D20*
X211931250Y-143192500D03*
%TD*%
D16*
%TO.C,D7*%
X192881250Y-107950000D03*
D20*
X192881250Y-100330000D03*
%TD*%
D16*
%TO.C,D28*%
X259556250Y-131603750D03*
D20*
X259556250Y-123983750D03*
%TD*%
D16*
%TO.C,D57*%
X216693750Y-169862500D03*
D20*
X216693750Y-162242500D03*
%TD*%
D16*
%TO.C,D21*%
X126206250Y-131603750D03*
D20*
X126206250Y-123983750D03*
%TD*%
D16*
%TO.C,D75*%
X300037500Y-188912500D03*
D20*
X300037500Y-181292500D03*
%TD*%
D16*
%TO.C,D72*%
X226218750Y-188912500D03*
D20*
X226218750Y-181292500D03*
%TD*%
D16*
%TO.C,D37*%
X135731250Y-150812500D03*
D20*
X135731250Y-143192500D03*
%TD*%
D16*
%TO.C,D60*%
X273843750Y-169862500D03*
D20*
X273843750Y-162242500D03*
%TD*%
D16*
%TO.C,D27*%
X240506250Y-131603750D03*
D20*
X240506250Y-123983750D03*
%TD*%
D16*
%TO.C,D77*%
X54768750Y-207962500D03*
D20*
X54768750Y-200342500D03*
%TD*%
D16*
%TO.C,D5*%
X145256250Y-107950000D03*
D20*
X145256250Y-100330000D03*
%TD*%
D16*
%TO.C,D46*%
X311943750Y-150812500D03*
D20*
X311943750Y-143192500D03*
%TD*%
D16*
%TO.C,D86*%
X378618750Y-207962500D03*
D20*
X378618750Y-200342500D03*
%TD*%
D16*
%TO.C,D64*%
X61912500Y-188912500D03*
D20*
X61912500Y-181292500D03*
%TD*%
D16*
%TO.C,D44*%
X269081250Y-150812500D03*
D20*
X269081250Y-143192500D03*
%TD*%
D16*
%TO.C,D59*%
X254793750Y-169862500D03*
D20*
X254793750Y-162242500D03*
%TD*%
D16*
%TO.C,D1*%
X50006250Y-107950000D03*
D20*
X50006250Y-100330000D03*
%TD*%
D16*
%TO.C,D30*%
X307181250Y-131603750D03*
D20*
X307181250Y-123983750D03*
%TD*%
D16*
%TO.C,D61*%
X304800000Y-169862500D03*
D20*
X304800000Y-162242500D03*
%TD*%
D16*
%TO.C,D19*%
X88106250Y-131603750D03*
D20*
X88106250Y-123983750D03*
%TD*%
D16*
%TO.C,D25*%
X202406250Y-131603750D03*
D20*
X202406250Y-123983750D03*
%TD*%
D16*
%TO.C,D3*%
X107156250Y-107950000D03*
D20*
X107156250Y-100330000D03*
%TD*%
D16*
%TO.C,D49*%
X52387500Y-169862500D03*
D20*
X52387500Y-162242500D03*
%TD*%
D16*
%TO.C,D81*%
X264318750Y-207803750D03*
D20*
X264318750Y-200183750D03*
%TD*%
D16*
%TO.C,D14*%
X340518750Y-107950000D03*
D20*
X340518750Y-100330000D03*
%TD*%
D16*
%TO.C,D63*%
X359568750Y-131603750D03*
D20*
X359568750Y-123983750D03*
%TD*%
D16*
%TO.C,D78*%
X78581250Y-207803750D03*
D20*
X78581250Y-200183750D03*
%TD*%
D16*
%TO.C,D9*%
X230981250Y-107950000D03*
D20*
X230981250Y-100330000D03*
%TD*%
D16*
%TO.C,D79*%
X102393750Y-207803750D03*
D20*
X102393750Y-200183750D03*
%TD*%
D16*
%TO.C,D12*%
X296862500Y-107950000D03*
D20*
X296862500Y-100330000D03*
%TD*%
D16*
%TO.C,D43*%
X250031250Y-150812500D03*
D20*
X250031250Y-143192500D03*
%TD*%
D16*
%TO.C,D82*%
X288131250Y-207803750D03*
D20*
X288131250Y-200183750D03*
%TD*%
D16*
%TO.C,D48*%
X359568750Y-150812500D03*
D20*
X359568750Y-143192500D03*
%TD*%
D16*
%TO.C,D53*%
X140493750Y-169862500D03*
D20*
X140493750Y-162242500D03*
%TD*%
D16*
%TO.C,D40*%
X192881250Y-150812500D03*
D20*
X192881250Y-143192500D03*
%TD*%
D16*
%TO.C,D31*%
X340518750Y-131603750D03*
D20*
X340518750Y-123983750D03*
%TD*%
D16*
%TO.C,D35*%
X97631250Y-150812500D03*
D20*
X97631250Y-143192500D03*
%TD*%
D16*
%TO.C,D45*%
X288131250Y-150812500D03*
D20*
X288131250Y-143192500D03*
%TD*%
D16*
%TO.C,D68*%
X150018750Y-188912500D03*
D20*
X150018750Y-181292500D03*
%TD*%
D16*
%TO.C,D29*%
X278606250Y-131603750D03*
D20*
X278606250Y-123983750D03*
%TD*%
D16*
%TO.C,D54*%
X159543750Y-169862500D03*
D20*
X159543750Y-162242500D03*
%TD*%
D16*
%TO.C,D65*%
X92868750Y-188912500D03*
D20*
X92868750Y-181292500D03*
%TD*%
D16*
%TO.C,D33*%
X54768750Y-150812500D03*
D20*
X54768750Y-143192500D03*
%TD*%
D16*
%TO.C,D51*%
X102393750Y-169862500D03*
D20*
X102393750Y-162242500D03*
%TD*%
D16*
%TO.C,D70*%
X188118750Y-188912500D03*
D20*
X188118750Y-181292500D03*
%TD*%
D16*
%TO.C,D11*%
X278606250Y-107950000D03*
D20*
X278606250Y-100330000D03*
%TD*%
D16*
%TO.C,D6*%
X173831250Y-107950000D03*
D20*
X173831250Y-100330000D03*
%TD*%
D16*
%TO.C,D69*%
X169068750Y-188912500D03*
D20*
X169068750Y-181292500D03*
%TD*%
D16*
%TO.C,D52*%
X121443750Y-169862500D03*
D20*
X121443750Y-162242500D03*
%TD*%
D16*
%TO.C,D67*%
X130968750Y-188912500D03*
D20*
X130968750Y-181292500D03*
%TD*%
D16*
%TO.C,D32*%
X378618750Y-131603750D03*
D20*
X378618750Y-123983750D03*
%TD*%
D16*
%TO.C,D18*%
X69056250Y-131603750D03*
D20*
X69056250Y-123983750D03*
%TD*%
D16*
%TO.C,D34*%
X78581250Y-150812500D03*
D20*
X78581250Y-143192500D03*
%TD*%
D16*
%TO.C,D47*%
X340518750Y-150812500D03*
D20*
X340518750Y-143192500D03*
%TD*%
D16*
%TO.C,D62*%
X359568750Y-188912500D03*
D20*
X359568750Y-181292500D03*
%TD*%
D16*
%TO.C,D16*%
X378618750Y-107950000D03*
D20*
X378618750Y-100330000D03*
%TD*%
D16*
%TO.C,D85*%
X359568750Y-207962500D03*
D20*
X359568750Y-200342500D03*
%TD*%
D16*
%TO.C,D15*%
X359568750Y-107950000D03*
D20*
X359568750Y-100330000D03*
%TD*%
D16*
%TO.C,D20*%
X107156250Y-131603750D03*
D20*
X107156250Y-123983750D03*
%TD*%
D16*
%TO.C,D83*%
X311943750Y-207803750D03*
D20*
X311943750Y-200183750D03*
%TD*%
D16*
%TO.C,D10*%
X259556250Y-107950000D03*
D20*
X259556250Y-100330000D03*
%TD*%
D16*
%TO.C,D76*%
X378618750Y-150812500D03*
D20*
X378618750Y-143192500D03*
%TD*%
D16*
%TO.C,D50*%
X83343750Y-169862500D03*
D20*
X83343750Y-162242500D03*
%TD*%
D17*
%TO.C,R1*%
X350361250Y-111315500D03*
D20*
X342741250Y-111315500D03*
%TD*%
D16*
%TO.C,D58*%
X235743750Y-169862500D03*
D20*
X235743750Y-162242500D03*
%TD*%
D16*
%TO.C,D13*%
X316706250Y-107950000D03*
D20*
X316706250Y-100330000D03*
%TD*%
D16*
%TO.C,D80*%
X183356250Y-207803750D03*
D20*
X183356250Y-200183750D03*
%TD*%
D16*
%TO.C,D4*%
X126206250Y-107950000D03*
D20*
X126206250Y-100330000D03*
%TD*%
D16*
%TO.C,D8*%
X211931250Y-107950000D03*
D20*
X211931250Y-100330000D03*
%TD*%
D16*
%TO.C,D55*%
X178593750Y-169862500D03*
D20*
X178593750Y-162242500D03*
%TD*%
D16*
%TO.C,D38*%
X154781250Y-150812500D03*
D20*
X154781250Y-143192500D03*
%TD*%
D16*
%TO.C,D56*%
X197643750Y-169862500D03*
D20*
X197643750Y-162242500D03*
%TD*%
D16*
%TO.C,D42*%
X230981250Y-150812500D03*
D20*
X230981250Y-143192500D03*
%TD*%
D16*
%TO.C,D2*%
X88106250Y-107950000D03*
D20*
X88106250Y-100330000D03*
%TD*%
D16*
%TO.C,D74*%
X264318750Y-188912500D03*
D20*
X264318750Y-181292500D03*
%TD*%
D16*
%TO.C,D84*%
X340518750Y-207962500D03*
D20*
X340518750Y-200342500D03*
%TD*%
D17*
%TO.C,R2*%
X55403750Y-173037500D03*
D20*
X47783750Y-173037500D03*
%TD*%
D16*
%TO.C,D66*%
X111918750Y-188912500D03*
D20*
X111918750Y-181292500D03*
%TD*%
D16*
%TO.C,D17*%
X50006250Y-131603750D03*
D20*
X50006250Y-123983750D03*
%TD*%
D16*
%TO.C,D22*%
X145256250Y-131603750D03*
D20*
X145256250Y-123983750D03*
%TD*%
D16*
%TO.C,D26*%
X221456250Y-131603750D03*
D20*
X221456250Y-123983750D03*
%TD*%
D16*
%TO.C,D71*%
X207168750Y-188912500D03*
D20*
X207168750Y-181292500D03*
%TD*%
D16*
%TO.C,D23*%
X164306250Y-131603750D03*
D20*
X164306250Y-123983750D03*
%TD*%
M02*
