%TF.GenerationSoftware,KiCad,Pcbnew,(6.0.2)*%
%TF.CreationDate,2022-02-20T23:43:42-05:00*%
%TF.ProjectId,TKL,544b4c2e-6b69-4636-9164-5f7063625858,rev?*%
%TF.SameCoordinates,Original*%
%TF.FileFunction,Soldermask,Bot*%
%TF.FilePolarity,Negative*%
%FSLAX46Y46*%
G04 Gerber Fmt 4.6, Leading zero omitted, Abs format (unit mm)*
G04 Created by KiCad (PCBNEW (6.0.2)) date 2022-02-20 23:43:42*
%MOMM*%
%LPD*%
G01*
G04 APERTURE LIST*
%ADD10C,0.264583*%
%ADD11C,0.750000*%
%ADD12R,2.550000X2.500000*%
%ADD13C,1.750000*%
%ADD14C,3.987800*%
%ADD15C,3.048000*%
%ADD16R,1.600000X1.600000*%
%ADD17C,1.600000*%
%ADD18C,1.905000*%
%ADD19R,1.905000X1.905000*%
%ADD20O,1.600000X1.600000*%
G04 APERTURE END LIST*
D10*
X367999787Y-154968746D02*
X367999787Y-155095482D01*
X367999787Y-155095482D02*
X368005608Y-155135698D01*
X368005608Y-155135698D02*
X368005608Y-155210576D01*
X368005608Y-155210576D02*
X368011164Y-155245237D01*
X368011164Y-155245237D02*
X368011164Y-155279897D01*
X368011164Y-155279897D02*
X368016985Y-155314558D01*
X368016985Y-155314558D02*
X368022806Y-155343133D01*
X368022806Y-155343133D02*
X368022806Y-155377793D01*
X368022806Y-155377793D02*
X368028097Y-155406897D01*
X368028097Y-155406897D02*
X368033654Y-155435736D01*
X368033654Y-155435736D02*
X368039475Y-155464575D01*
X368039475Y-155464575D02*
X368045295Y-155493415D01*
X368045295Y-155493415D02*
X368051116Y-155516433D01*
X368051116Y-155516433D02*
X368056937Y-155545273D01*
X368056937Y-155545273D02*
X368062758Y-155568291D01*
X368062758Y-155568291D02*
X368068314Y-155591310D01*
X368068314Y-155591310D02*
X368074135Y-155614329D01*
X368074135Y-155614329D02*
X368079956Y-155637348D01*
X368079956Y-155637348D02*
X368085777Y-155660366D01*
X368085777Y-155660366D02*
X368097154Y-155677829D01*
X368097154Y-155677829D02*
X368102975Y-155700848D01*
X368102975Y-155700848D02*
X368114617Y-155735243D01*
X368114617Y-155735243D02*
X368131815Y-155769904D01*
X368131815Y-155769904D02*
X368149012Y-155798743D01*
X368149012Y-155798743D02*
X368160389Y-155827319D01*
X368160389Y-155827319D02*
X368177587Y-155856158D01*
X368177587Y-155856158D02*
X368195049Y-155879177D01*
X368195049Y-155879177D02*
X368213306Y-155896376D01*
X368213306Y-155896376D02*
X368224683Y-155913838D01*
X368224683Y-155913838D02*
X368242145Y-155931036D01*
X368242145Y-155931036D02*
X368253523Y-155948234D01*
X368253523Y-155948234D02*
X368270985Y-155959876D01*
X368270985Y-155959876D02*
X368282362Y-155965697D01*
X368282362Y-155965697D02*
X368294004Y-155977074D01*
X368294004Y-155977074D02*
X368305381Y-155982895D01*
X368305381Y-155982895D02*
X368317022Y-155988715D01*
X368317022Y-155988715D02*
X368328400Y-155994536D01*
X368328400Y-155994536D02*
X368333956Y-155994536D01*
X368333956Y-155994536D02*
X368339777Y-156000356D01*
X368339777Y-156000356D02*
X368351418Y-156000356D01*
X368351418Y-156000356D02*
X368356087Y-155999846D01*
X368356087Y-155999846D02*
X368360700Y-155999093D01*
X368360700Y-155999093D02*
X368365248Y-155998103D01*
X368365248Y-155998103D02*
X368369722Y-155996879D01*
X368369722Y-155996879D02*
X368374115Y-155995427D01*
X368374115Y-155995427D02*
X368378418Y-155993752D01*
X368378418Y-155993752D02*
X368382622Y-155991857D01*
X368382622Y-155991857D02*
X368386720Y-155989748D01*
X368386720Y-155989748D02*
X368390703Y-155987428D01*
X368390703Y-155987428D02*
X368394562Y-155984903D01*
X368394562Y-155984903D02*
X368398289Y-155982177D01*
X368398289Y-155982177D02*
X368401876Y-155979255D01*
X368401876Y-155979255D02*
X368405314Y-155976142D01*
X368405314Y-155976142D02*
X368408596Y-155972841D01*
X368408596Y-155972841D02*
X368411711Y-155969357D01*
X368411711Y-155969357D02*
X368414654Y-155965696D01*
X368414654Y-155965696D02*
X368430128Y-155941294D01*
X368430128Y-155941294D02*
X368447289Y-155916736D01*
X368447289Y-155916736D02*
X368486116Y-155867343D01*
X368486116Y-155867343D02*
X368530028Y-155817898D01*
X368530028Y-155817898D02*
X368577918Y-155768780D01*
X368577918Y-155768780D02*
X368628679Y-155720369D01*
X368628679Y-155720369D02*
X368681205Y-155673044D01*
X368681205Y-155673044D02*
X368787121Y-155583175D01*
X368787121Y-155583175D02*
X368971420Y-155433189D01*
X368971420Y-155433189D02*
X369005301Y-155404107D01*
X369005301Y-155404107D02*
X369032092Y-155379150D01*
X369032092Y-155379150D02*
X369050685Y-155358698D01*
X369050685Y-155358698D02*
X369056561Y-155350280D01*
X369056561Y-155350280D02*
X369059973Y-155343131D01*
X369059973Y-155343131D02*
X369059906Y-155342610D01*
X369059906Y-155342610D02*
X369059707Y-155342088D01*
X369059707Y-155342088D02*
X369059379Y-155341567D01*
X369059379Y-155341567D02*
X369058925Y-155341047D01*
X369058925Y-155341047D02*
X369058348Y-155340531D01*
X369058348Y-155340531D02*
X369057651Y-155340018D01*
X369057651Y-155340018D02*
X369056837Y-155339511D01*
X369056837Y-155339511D02*
X369055909Y-155339010D01*
X369055909Y-155339010D02*
X369054869Y-155338516D01*
X369054869Y-155338516D02*
X369053721Y-155338031D01*
X369053721Y-155338031D02*
X369051113Y-155337090D01*
X369051113Y-155337090D02*
X369048106Y-155336196D01*
X369048106Y-155336196D02*
X369044726Y-155335359D01*
X369044726Y-155335359D02*
X369040995Y-155334587D01*
X369040995Y-155334587D02*
X369036938Y-155333889D01*
X369036938Y-155333889D02*
X369032577Y-155333274D01*
X369032577Y-155333274D02*
X369027937Y-155332751D01*
X369027937Y-155332751D02*
X369023042Y-155332328D01*
X369023042Y-155332328D02*
X369017914Y-155332015D01*
X369017914Y-155332015D02*
X369012577Y-155331821D01*
X369012577Y-155331821D02*
X369007056Y-155331754D01*
X369007056Y-155331754D02*
X368977873Y-155332468D01*
X368977873Y-155332468D02*
X368948615Y-155334483D01*
X368948615Y-155334483D02*
X368919205Y-155337614D01*
X368919205Y-155337614D02*
X368889569Y-155341676D01*
X368889569Y-155341676D02*
X368829313Y-155351846D01*
X368829313Y-155351846D02*
X368767244Y-155363504D01*
X368767244Y-155363504D02*
X368702757Y-155375163D01*
X368702757Y-155375163D02*
X368669417Y-155380527D01*
X368669417Y-155380527D02*
X368635246Y-155385332D01*
X368635246Y-155385332D02*
X368600168Y-155389394D01*
X368600168Y-155389394D02*
X368564108Y-155392526D01*
X368564108Y-155392526D02*
X368526989Y-155394541D01*
X368526989Y-155394541D02*
X368488737Y-155395254D01*
X368488737Y-155395254D02*
X368470108Y-155394981D01*
X368470108Y-155394981D02*
X368461677Y-155394640D01*
X368461677Y-155394640D02*
X368453808Y-155394163D01*
X368453808Y-155394163D02*
X368446484Y-155393549D01*
X368446484Y-155393549D02*
X368439685Y-155392799D01*
X368439685Y-155392799D02*
X368433391Y-155391912D01*
X368433391Y-155391912D02*
X368427585Y-155390889D01*
X368427585Y-155390889D02*
X368422248Y-155389729D01*
X368422248Y-155389729D02*
X368417359Y-155388433D01*
X368417359Y-155388433D02*
X368412901Y-155387001D01*
X368412901Y-155387001D02*
X368408854Y-155385432D01*
X368408854Y-155385432D02*
X368405199Y-155383726D01*
X368405199Y-155383726D02*
X368401917Y-155381884D01*
X368401917Y-155381884D02*
X368398990Y-155379906D01*
X368398990Y-155379906D02*
X368396398Y-155377792D01*
X368396398Y-155377792D02*
X368395585Y-155374965D01*
X368395585Y-155374965D02*
X368394683Y-155372171D01*
X368394683Y-155372171D02*
X368393694Y-155369412D01*
X368393694Y-155369412D02*
X368392619Y-155366689D01*
X368392619Y-155366689D02*
X368391458Y-155364005D01*
X368391458Y-155364005D02*
X368390213Y-155361361D01*
X368390213Y-155361361D02*
X368388885Y-155358760D01*
X368388885Y-155358760D02*
X368387475Y-155356203D01*
X368387475Y-155356203D02*
X368385984Y-155353692D01*
X368385984Y-155353692D02*
X368384414Y-155351229D01*
X368384414Y-155351229D02*
X368382765Y-155348817D01*
X368382765Y-155348817D02*
X368381038Y-155346456D01*
X368381038Y-155346456D02*
X368379235Y-155344150D01*
X368379235Y-155344150D02*
X368377357Y-155341900D01*
X368377357Y-155341900D02*
X368375404Y-155339708D01*
X368375404Y-155339708D02*
X368373379Y-155337575D01*
X368373379Y-155337575D02*
X368354808Y-155270680D01*
X368354808Y-155270680D02*
X368338847Y-155203194D01*
X368338847Y-155203194D02*
X368325508Y-155135194D01*
X368325508Y-155135194D02*
X368314801Y-155066755D01*
X368314801Y-155066755D02*
X368306737Y-154997955D01*
X368306737Y-154997955D02*
X368301325Y-154928870D01*
X368301325Y-154928870D02*
X368298576Y-154859577D01*
X368298576Y-154859577D02*
X368298502Y-154790152D01*
X368298502Y-154790152D02*
X368299998Y-154722101D01*
X368299998Y-154722101D02*
X368302752Y-154654107D01*
X368302752Y-154654107D02*
X368306762Y-154586186D01*
X368306762Y-154586186D02*
X368312026Y-154518356D01*
X368312026Y-154518356D02*
X368318543Y-154450634D01*
X368318543Y-154450634D02*
X368326311Y-154383039D01*
X368326311Y-154383039D02*
X368335329Y-154315587D01*
X368335329Y-154315587D02*
X368345596Y-154248295D01*
X368345596Y-154248295D02*
X368386079Y-154248286D01*
X368386079Y-154248286D02*
X368619097Y-154270767D01*
X368619097Y-154270767D02*
X368851686Y-154296930D01*
X368851686Y-154296930D02*
X369083803Y-154326768D01*
X369083803Y-154326768D02*
X369315404Y-154360275D01*
X369315404Y-154360275D02*
X369546445Y-154397444D01*
X369546445Y-154397444D02*
X369776883Y-154438269D01*
X369776883Y-154438269D02*
X370006675Y-154482743D01*
X370006675Y-154482743D02*
X370235777Y-154530858D01*
X370235777Y-154530858D02*
X370254589Y-154530426D01*
X370254589Y-154530426D02*
X370273207Y-154529156D01*
X370273207Y-154529156D02*
X370291602Y-154527089D01*
X370291602Y-154527089D02*
X370309750Y-154524267D01*
X370309750Y-154524267D02*
X370345195Y-154516521D01*
X370345195Y-154516521D02*
X370379332Y-154506249D01*
X370379332Y-154506249D02*
X370411949Y-154493781D01*
X370411949Y-154493781D02*
X370442837Y-154479445D01*
X370442837Y-154479445D02*
X370471783Y-154463572D01*
X370471783Y-154463572D02*
X370498577Y-154446492D01*
X370498577Y-154446492D02*
X370523009Y-154428534D01*
X370523009Y-154428534D02*
X370544867Y-154410028D01*
X370544867Y-154410028D02*
X370563941Y-154391305D01*
X370563941Y-154391305D02*
X370580020Y-154372694D01*
X370580020Y-154372694D02*
X370592893Y-154354524D01*
X370592893Y-154354524D02*
X370602348Y-154337126D01*
X370602348Y-154337126D02*
X370605729Y-154328820D01*
X370605729Y-154328820D02*
X370608176Y-154320830D01*
X370608176Y-154320830D02*
X370609664Y-154313198D01*
X370609664Y-154313198D02*
X370610166Y-154305965D01*
X370610166Y-154305965D02*
X370610098Y-154303312D01*
X370610098Y-154303312D02*
X370609895Y-154300759D01*
X370609895Y-154300759D02*
X370609554Y-154298305D01*
X370609554Y-154298305D02*
X370609076Y-154295945D01*
X370609076Y-154295945D02*
X370608458Y-154293680D01*
X370608458Y-154293680D02*
X370607700Y-154291506D01*
X370607700Y-154291506D02*
X370606801Y-154289421D01*
X370606801Y-154289421D02*
X370605759Y-154287423D01*
X370605759Y-154287423D02*
X370604574Y-154285511D01*
X370604574Y-154285511D02*
X370603245Y-154283680D01*
X370603245Y-154283680D02*
X370601770Y-154281931D01*
X370601770Y-154281931D02*
X370600148Y-154280260D01*
X370600148Y-154280260D02*
X370598379Y-154278664D01*
X370598379Y-154278664D02*
X370596461Y-154277143D01*
X370596461Y-154277143D02*
X370594393Y-154275694D01*
X370594393Y-154275694D02*
X370592174Y-154274314D01*
X370592174Y-154274314D02*
X370589804Y-154273002D01*
X370589804Y-154273002D02*
X370587280Y-154271755D01*
X370587280Y-154271755D02*
X370584603Y-154270571D01*
X370584603Y-154270571D02*
X370581770Y-154269448D01*
X370581770Y-154269448D02*
X370578781Y-154268383D01*
X370578781Y-154268383D02*
X370575635Y-154267376D01*
X370575635Y-154267376D02*
X370572330Y-154266422D01*
X370572330Y-154266422D02*
X370568866Y-154265521D01*
X370568866Y-154265521D02*
X370565242Y-154264670D01*
X370565242Y-154264670D02*
X370561456Y-154263866D01*
X370561456Y-154263866D02*
X370553395Y-154262394D01*
X370553395Y-154262394D02*
X370544676Y-154261087D01*
X370544676Y-154261087D02*
X370535289Y-154259928D01*
X370535289Y-154259928D02*
X369421360Y-154148075D01*
X369421360Y-154148075D02*
X368385814Y-154052494D01*
X368385814Y-154052494D02*
X368393492Y-154034678D01*
X368393492Y-154034678D02*
X368401615Y-154017947D01*
X368401615Y-154017947D02*
X368410141Y-154002238D01*
X368410141Y-154002238D02*
X368419029Y-153987488D01*
X368419029Y-153987488D02*
X368428236Y-153973633D01*
X368428236Y-153973633D02*
X368437721Y-153960611D01*
X368437721Y-153960611D02*
X368447443Y-153948357D01*
X368447443Y-153948357D02*
X368457359Y-153936809D01*
X368457359Y-153936809D02*
X368477608Y-153915576D01*
X368477608Y-153915576D02*
X368498133Y-153896406D01*
X368498133Y-153896406D02*
X368518601Y-153878791D01*
X368518601Y-153878791D02*
X368538677Y-153862226D01*
X368538677Y-153862226D02*
X368558028Y-153846203D01*
X368558028Y-153846203D02*
X368576319Y-153830216D01*
X368576319Y-153830216D02*
X368593217Y-153813758D01*
X368593217Y-153813758D02*
X368601039Y-153805195D01*
X368601039Y-153805195D02*
X368608387Y-153796324D01*
X368608387Y-153796324D02*
X368615219Y-153787082D01*
X368615219Y-153787082D02*
X368621494Y-153777406D01*
X368621494Y-153777406D02*
X368627171Y-153767232D01*
X368627171Y-153767232D02*
X368632206Y-153756497D01*
X368632206Y-153756497D02*
X368636559Y-153745138D01*
X368636559Y-153745138D02*
X368640188Y-153733092D01*
X368640188Y-153733092D02*
X368643051Y-153720295D01*
X368643051Y-153720295D02*
X368645106Y-153706684D01*
X368645106Y-153706684D02*
X368644965Y-153693117D01*
X368644965Y-153693117D02*
X368644525Y-153680502D01*
X368644525Y-153680502D02*
X368643759Y-153668847D01*
X368643759Y-153668847D02*
X368642642Y-153658162D01*
X368642642Y-153658162D02*
X368641146Y-153648454D01*
X368641146Y-153648454D02*
X368639246Y-153639734D01*
X368639246Y-153639734D02*
X368636914Y-153632010D01*
X368636914Y-153632010D02*
X368634126Y-153625291D01*
X368634126Y-153625291D02*
X368632552Y-153622311D01*
X368632552Y-153622311D02*
X368630853Y-153619586D01*
X368630853Y-153619586D02*
X368629028Y-153617117D01*
X368629028Y-153617117D02*
X368627071Y-153614904D01*
X368627071Y-153614904D02*
X368624980Y-153612949D01*
X368624980Y-153612949D02*
X368622752Y-153611253D01*
X368622752Y-153611253D02*
X368620383Y-153609818D01*
X368620383Y-153609818D02*
X368617870Y-153608643D01*
X368617870Y-153608643D02*
X368615210Y-153607731D01*
X368615210Y-153607731D02*
X368612400Y-153607083D01*
X368612400Y-153607083D02*
X368609435Y-153606699D01*
X368609435Y-153606699D02*
X368606313Y-153606581D01*
X368606313Y-153606581D02*
X368603031Y-153606730D01*
X368603031Y-153606730D02*
X368599585Y-153607146D01*
X368599585Y-153607146D02*
X368595973Y-153607832D01*
X368595973Y-153607832D02*
X368592189Y-153608788D01*
X368592189Y-153608788D02*
X368570763Y-153615913D01*
X368570763Y-153615913D02*
X368549516Y-153623497D01*
X368549516Y-153623497D02*
X368528453Y-153631536D01*
X368528453Y-153631536D02*
X368507582Y-153640026D01*
X368507582Y-153640026D02*
X368486910Y-153648963D01*
X368486910Y-153648963D02*
X368466445Y-153658344D01*
X368466445Y-153658344D02*
X368446193Y-153668165D01*
X368446193Y-153668165D02*
X368426161Y-153678423D01*
X368426161Y-153678423D02*
X368406357Y-153689112D01*
X368406357Y-153689112D02*
X368386787Y-153700231D01*
X368386787Y-153700231D02*
X368367459Y-153711775D01*
X368367459Y-153711775D02*
X368348379Y-153723740D01*
X368348379Y-153723740D02*
X368329556Y-153736123D01*
X368329556Y-153736123D02*
X368310995Y-153748920D01*
X368310995Y-153748920D02*
X368292703Y-153762127D01*
X368292703Y-153762127D02*
X368274689Y-153775740D01*
X368274689Y-153775740D02*
X367895806Y-153268799D01*
X367895806Y-153268799D02*
X367892854Y-153259227D01*
X367892854Y-153259227D02*
X367890458Y-153250321D01*
X367890458Y-153250321D02*
X367888635Y-153242024D01*
X367888635Y-153242024D02*
X367887401Y-153234283D01*
X367887401Y-153234283D02*
X367886774Y-153227042D01*
X367886774Y-153227042D02*
X367886693Y-153223593D01*
X367886693Y-153223593D02*
X367886769Y-153220248D01*
X367886769Y-153220248D02*
X367887006Y-153217001D01*
X367887006Y-153217001D02*
X367887404Y-153213845D01*
X367887404Y-153213845D02*
X367887967Y-153210773D01*
X367887967Y-153210773D02*
X367888695Y-153207779D01*
X367888695Y-153207779D02*
X367889592Y-153204855D01*
X367889592Y-153204855D02*
X367890659Y-153201995D01*
X367890659Y-153201995D02*
X367891898Y-153199192D01*
X367891898Y-153199192D02*
X367893312Y-153196439D01*
X367893312Y-153196439D02*
X367894903Y-153193729D01*
X367894903Y-153193729D02*
X367896672Y-153191055D01*
X367896672Y-153191055D02*
X367898622Y-153188411D01*
X367898622Y-153188411D02*
X367900754Y-153185790D01*
X367900754Y-153185790D02*
X367905576Y-153180588D01*
X367905576Y-153180588D02*
X367911154Y-153175395D01*
X367911154Y-153175395D02*
X367917505Y-153170156D01*
X367917505Y-153170156D02*
X367924645Y-153164817D01*
X367924645Y-153164817D02*
X367927055Y-153163924D01*
X367927055Y-153163924D02*
X367929486Y-153163102D01*
X367929486Y-153163102D02*
X367931936Y-153162352D01*
X367931936Y-153162352D02*
X367934405Y-153161675D01*
X367934405Y-153161675D02*
X367936890Y-153161069D01*
X367936890Y-153161069D02*
X367939390Y-153160537D01*
X367939390Y-153160537D02*
X367941904Y-153160078D01*
X367941904Y-153160078D02*
X367944429Y-153159691D01*
X367944429Y-153159691D02*
X367946965Y-153159378D01*
X367946965Y-153159378D02*
X367949509Y-153159139D01*
X367949509Y-153159139D02*
X367952060Y-153158974D01*
X367952060Y-153158974D02*
X367954616Y-153158882D01*
X367954616Y-153158882D02*
X367957176Y-153158865D01*
X367957176Y-153158865D02*
X367959738Y-153158922D01*
X367959738Y-153158922D02*
X367962301Y-153159054D01*
X367962301Y-153159054D02*
X367964862Y-153159261D01*
X367964862Y-153159261D02*
X368016166Y-153162559D01*
X368016166Y-153162559D02*
X368076136Y-153171881D01*
X368076136Y-153171881D02*
X368143312Y-153186364D01*
X368143312Y-153186364D02*
X368216233Y-153205150D01*
X368216233Y-153205150D02*
X368373470Y-153252186D01*
X368373470Y-153252186D02*
X368536164Y-153306105D01*
X368536164Y-153306105D02*
X368831191Y-153407060D01*
X368831191Y-153407060D02*
X368940158Y-153440329D01*
X368940158Y-153440329D02*
X368979893Y-153449650D01*
X368979893Y-153449650D02*
X369007850Y-153452949D01*
X369007850Y-153452949D02*
X369017461Y-153453460D01*
X369017461Y-153453460D02*
X369027053Y-153453550D01*
X369027053Y-153453550D02*
X369036612Y-153453225D01*
X369036612Y-153453225D02*
X369046127Y-153452486D01*
X369046127Y-153452486D02*
X369055583Y-153451338D01*
X369055583Y-153451338D02*
X369064968Y-153449784D01*
X369064968Y-153449784D02*
X369074269Y-153447829D01*
X369074269Y-153447829D02*
X369083472Y-153445474D01*
X369083472Y-153445474D02*
X369092566Y-153442725D01*
X369092566Y-153442725D02*
X369101536Y-153439585D01*
X369101536Y-153439585D02*
X369110371Y-153436058D01*
X369110371Y-153436058D02*
X369119056Y-153432146D01*
X369119056Y-153432146D02*
X369127579Y-153427854D01*
X369127579Y-153427854D02*
X369135928Y-153423185D01*
X369135928Y-153423185D02*
X369144088Y-153418143D01*
X369144088Y-153418143D02*
X369152048Y-153412732D01*
X369152048Y-153412732D02*
X369162539Y-153406635D01*
X369162539Y-153406635D02*
X369172813Y-153400219D01*
X369172813Y-153400219D02*
X369182864Y-153393490D01*
X369182864Y-153393490D02*
X369192683Y-153386456D01*
X369192683Y-153386456D02*
X369202266Y-153379121D01*
X369202266Y-153379121D02*
X369211606Y-153371493D01*
X369211606Y-153371493D02*
X369220695Y-153363577D01*
X369220695Y-153363577D02*
X369229527Y-153355380D01*
X369229527Y-153355380D02*
X369238097Y-153346909D01*
X369238097Y-153346909D02*
X369246396Y-153338169D01*
X369246396Y-153338169D02*
X369254419Y-153329166D01*
X369254419Y-153329166D02*
X369262160Y-153319908D01*
X369262160Y-153319908D02*
X369269610Y-153310400D01*
X369269610Y-153310400D02*
X369276765Y-153300648D01*
X369276765Y-153300648D02*
X369283617Y-153290660D01*
X369283617Y-153290660D02*
X369290160Y-153280440D01*
X369290160Y-153280440D02*
X369294530Y-153269574D01*
X369294530Y-153269574D02*
X369297740Y-153259623D01*
X369297740Y-153259623D02*
X369299826Y-153250548D01*
X369299826Y-153250548D02*
X369300821Y-153242314D01*
X369300821Y-153242314D02*
X369300760Y-153234882D01*
X369300760Y-153234882D02*
X369299677Y-153228215D01*
X369299677Y-153228215D02*
X369297607Y-153222276D01*
X369297607Y-153222276D02*
X369294583Y-153217027D01*
X369294583Y-153217027D02*
X369290642Y-153212431D01*
X369290642Y-153212431D02*
X369285816Y-153208451D01*
X369285816Y-153208451D02*
X369280140Y-153205050D01*
X369280140Y-153205050D02*
X369273649Y-153202189D01*
X369273649Y-153202189D02*
X369266377Y-153199832D01*
X369266377Y-153199832D02*
X369258359Y-153197942D01*
X369258359Y-153197942D02*
X369249628Y-153196480D01*
X369249628Y-153196480D02*
X369240220Y-153195410D01*
X369240220Y-153195410D02*
X369230168Y-153194694D01*
X369230168Y-153194694D02*
X369219507Y-153194295D01*
X369219507Y-153194295D02*
X369196496Y-153194298D01*
X369196496Y-153194298D02*
X369171462Y-153195121D01*
X369171462Y-153195121D02*
X369144681Y-153196464D01*
X369144681Y-153196464D02*
X369086973Y-153199516D01*
X369086973Y-153199516D02*
X369056599Y-153200628D01*
X369056599Y-153200628D02*
X369025577Y-153201065D01*
X369025577Y-153201065D02*
X368952344Y-153197764D01*
X368952344Y-153197764D02*
X368871935Y-153188434D01*
X368871935Y-153188434D02*
X368785819Y-153173938D01*
X368785819Y-153173938D02*
X368695463Y-153155135D01*
X368695463Y-153155135D02*
X368507911Y-153108057D01*
X368507911Y-153108057D02*
X368321024Y-153054089D01*
X368321024Y-153054089D02*
X367996244Y-152953043D01*
X367996244Y-152953043D02*
X367881847Y-152919744D01*
X367881847Y-152919744D02*
X367841786Y-152910414D01*
X367841786Y-152910414D02*
X367815108Y-152907113D01*
X367815108Y-152907113D02*
X367803179Y-152907761D01*
X367803179Y-152907761D02*
X367790129Y-152909660D01*
X367790129Y-152909660D02*
X367761054Y-152916945D01*
X367761054Y-152916945D02*
X367728662Y-152928438D01*
X367728662Y-152928438D02*
X367693730Y-152943605D01*
X367693730Y-152943605D02*
X367657038Y-152961914D01*
X367657038Y-152961914D02*
X367619362Y-152982834D01*
X367619362Y-152982834D02*
X367581482Y-153005832D01*
X367581482Y-153005832D02*
X367544175Y-153030376D01*
X367544175Y-153030376D02*
X367508220Y-153055934D01*
X367508220Y-153055934D02*
X367474395Y-153081973D01*
X367474395Y-153081973D02*
X367443479Y-153107962D01*
X367443479Y-153107962D02*
X367416249Y-153133369D01*
X367416249Y-153133369D02*
X367393484Y-153157661D01*
X367393484Y-153157661D02*
X367375962Y-153180306D01*
X367375962Y-153180306D02*
X367369410Y-153190845D01*
X367369410Y-153190845D02*
X367364461Y-153200773D01*
X367364461Y-153200773D02*
X367361212Y-153210022D01*
X367361212Y-153210022D02*
X367359760Y-153218528D01*
X367359760Y-153218528D02*
X367357737Y-153223448D01*
X367357737Y-153223448D02*
X367355982Y-153228288D01*
X367355982Y-153228288D02*
X367354495Y-153233046D01*
X367354495Y-153233046D02*
X367353275Y-153237722D01*
X367353275Y-153237722D02*
X367352321Y-153242316D01*
X367352321Y-153242316D02*
X367351631Y-153246827D01*
X367351631Y-153246827D02*
X367351205Y-153251254D01*
X367351205Y-153251254D02*
X367351041Y-153255598D01*
X367351041Y-153255598D02*
X367351139Y-153259858D01*
X367351139Y-153259858D02*
X367351498Y-153264034D01*
X367351498Y-153264034D02*
X367352116Y-153268124D01*
X367352116Y-153268124D02*
X367352993Y-153272129D01*
X367352993Y-153272129D02*
X367354127Y-153276048D01*
X367354127Y-153276048D02*
X367355518Y-153279881D01*
X367355518Y-153279881D02*
X367357165Y-153283627D01*
X367357165Y-153283627D02*
X367359066Y-153287286D01*
X367359066Y-153287286D02*
X367361220Y-153290858D01*
X367361220Y-153290858D02*
X367363627Y-153294341D01*
X367363627Y-153294341D02*
X367366285Y-153297736D01*
X367366285Y-153297736D02*
X367369194Y-153301042D01*
X367369194Y-153301042D02*
X367372352Y-153304259D01*
X367372352Y-153304259D02*
X367375758Y-153307386D01*
X367375758Y-153307386D02*
X367379412Y-153310422D01*
X367379412Y-153310422D02*
X367383312Y-153313368D01*
X367383312Y-153313368D02*
X367387458Y-153316223D01*
X367387458Y-153316223D02*
X367391848Y-153318987D01*
X367391848Y-153318987D02*
X367396481Y-153321658D01*
X367396481Y-153321658D02*
X367401356Y-153324237D01*
X367401356Y-153324237D02*
X367406473Y-153326724D01*
X367406473Y-153326724D02*
X367411830Y-153329117D01*
X367411830Y-153329117D02*
X367423260Y-153333621D01*
X367423260Y-153333621D02*
X367476473Y-153356146D01*
X367476473Y-153356146D02*
X367529112Y-153379854D01*
X367529112Y-153379854D02*
X367581158Y-153404732D01*
X367581158Y-153404732D02*
X367632593Y-153430768D01*
X367632593Y-153430768D02*
X367683398Y-153457951D01*
X367683398Y-153457951D02*
X367733555Y-153486268D01*
X367733555Y-153486268D02*
X367783044Y-153515708D01*
X367783044Y-153515708D02*
X367831846Y-153546258D01*
X367831846Y-153546258D02*
X367879944Y-153577906D01*
X367879944Y-153577906D02*
X367927318Y-153610641D01*
X367927318Y-153610641D02*
X367973950Y-153644450D01*
X367973950Y-153644450D02*
X368019820Y-153679321D01*
X368019820Y-153679321D02*
X368064910Y-153715242D01*
X368064910Y-153715242D02*
X368109202Y-153752201D01*
X368109202Y-153752201D02*
X368152676Y-153790186D01*
X368152676Y-153790186D02*
X368195314Y-153829186D01*
X368195314Y-153829186D02*
X368189493Y-153829186D01*
X368189493Y-153829186D02*
X368178220Y-153838120D01*
X368178220Y-153838120D02*
X368167431Y-153847544D01*
X368167431Y-153847544D02*
X368157137Y-153857437D01*
X368157137Y-153857437D02*
X368147352Y-153867780D01*
X368147352Y-153867780D02*
X368138089Y-153878550D01*
X368138089Y-153878550D02*
X368129358Y-153889729D01*
X368129358Y-153889729D02*
X368121174Y-153901295D01*
X368121174Y-153901295D02*
X368113547Y-153913227D01*
X368113547Y-153913227D02*
X368106492Y-153925506D01*
X368106492Y-153925506D02*
X368100020Y-153938110D01*
X368100020Y-153938110D02*
X368094144Y-153951019D01*
X368094144Y-153951019D02*
X368088876Y-153964213D01*
X368088876Y-153964213D02*
X368084228Y-153977670D01*
X368084228Y-153977670D02*
X368080214Y-153991372D01*
X368080214Y-153991372D02*
X368076845Y-154005295D01*
X368076845Y-154005295D02*
X368074135Y-154019422D01*
X368074135Y-154019422D02*
X367120449Y-153883504D01*
X367120449Y-153883504D02*
X366637282Y-153809177D01*
X366637282Y-153809177D02*
X366414668Y-153771772D01*
X366414668Y-153771772D02*
X366391203Y-153772469D01*
X366391203Y-153772469D02*
X366367342Y-153774516D01*
X366367342Y-153774516D02*
X366343158Y-153777844D01*
X366343158Y-153777844D02*
X366318729Y-153782388D01*
X366318729Y-153782388D02*
X366269428Y-153794849D01*
X366269428Y-153794849D02*
X366220038Y-153811360D01*
X366220038Y-153811360D02*
X366171159Y-153831380D01*
X366171159Y-153831380D02*
X366123389Y-153854371D01*
X366123389Y-153854371D02*
X366077326Y-153879793D01*
X366077326Y-153879793D02*
X366033569Y-153907106D01*
X366033569Y-153907106D02*
X365992718Y-153935771D01*
X365992718Y-153935771D02*
X365955371Y-153965248D01*
X365955371Y-153965248D02*
X365922127Y-153994998D01*
X365922127Y-153994998D02*
X365893584Y-154024482D01*
X365893584Y-154024482D02*
X365870342Y-154053159D01*
X365870342Y-154053159D02*
X365852999Y-154080491D01*
X365852999Y-154080491D02*
X365846727Y-154093483D01*
X365846727Y-154093483D02*
X365842154Y-154105937D01*
X365842154Y-154105937D02*
X365839355Y-154117785D01*
X365839355Y-154117785D02*
X365838406Y-154128959D01*
X365838406Y-154128959D02*
X365838607Y-154135283D01*
X365838607Y-154135283D02*
X365839205Y-154141311D01*
X365839205Y-154141311D02*
X365840194Y-154147049D01*
X365840194Y-154147049D02*
X365841564Y-154152503D01*
X365841564Y-154152503D02*
X365843310Y-154157681D01*
X365843310Y-154157681D02*
X365845424Y-154162587D01*
X365845424Y-154162587D02*
X365847898Y-154167228D01*
X365847898Y-154167228D02*
X365850726Y-154171611D01*
X365850726Y-154171611D02*
X365853899Y-154175741D01*
X365853899Y-154175741D02*
X365857410Y-154179626D01*
X365857410Y-154179626D02*
X365861252Y-154183270D01*
X365861252Y-154183270D02*
X365865418Y-154186681D01*
X365865418Y-154186681D02*
X365869900Y-154189865D01*
X365869900Y-154189865D02*
X365874692Y-154192828D01*
X365874692Y-154192828D02*
X365879784Y-154195575D01*
X365879784Y-154195575D02*
X365885171Y-154198115D01*
X365885171Y-154198115D02*
X365890845Y-154200452D01*
X365890845Y-154200452D02*
X365896798Y-154202592D01*
X365896798Y-154202592D02*
X365903023Y-154204543D01*
X365903023Y-154204543D02*
X365909513Y-154206311D01*
X365909513Y-154206311D02*
X365916260Y-154207901D01*
X365916260Y-154207901D02*
X365923257Y-154209320D01*
X365923257Y-154209320D02*
X365930497Y-154210575D01*
X365930497Y-154210575D02*
X365937972Y-154211670D01*
X365937972Y-154211670D02*
X365953598Y-154213411D01*
X365953598Y-154213411D02*
X365970078Y-154214593D01*
X365970078Y-154214593D02*
X365987350Y-154215265D01*
X365987350Y-154215265D02*
X366005358Y-154215478D01*
X366005358Y-154215478D02*
X366198831Y-154210294D01*
X366198831Y-154210294D02*
X366528406Y-154204564D01*
X366528406Y-154204564D02*
X367129044Y-154198015D01*
X367129044Y-154198015D02*
X367374213Y-154199285D01*
X367374213Y-154199285D02*
X367608072Y-154203803D01*
X367608072Y-154203803D02*
X367720573Y-154207614D01*
X367720573Y-154207614D02*
X367830024Y-154212638D01*
X367830024Y-154212638D02*
X367936349Y-154219007D01*
X367936349Y-154219007D02*
X368039475Y-154226855D01*
X368039475Y-154226855D02*
X368037747Y-154265171D01*
X368037747Y-154265171D02*
X368033191Y-154322746D01*
X368033191Y-154322746D02*
X368019366Y-154488363D01*
X368019366Y-154488363D02*
X368011983Y-154592753D01*
X368011983Y-154592753D02*
X368005542Y-154709095D01*
X368005542Y-154709095D02*
X368000986Y-154835565D01*
X368000986Y-154835565D02*
X367999710Y-154902026D01*
X367999710Y-154902026D02*
X367999258Y-154970334D01*
X367999258Y-154970334D02*
X367999787Y-154968746D01*
X367999787Y-154968746D02*
X367999787Y-154968746D01*
G36*
X367841786Y-152910414D02*
G01*
X367881847Y-152919744D01*
X367996244Y-152953043D01*
X368321024Y-153054089D01*
X368507911Y-153108057D01*
X368695463Y-153155135D01*
X368785819Y-153173938D01*
X368871935Y-153188434D01*
X368952344Y-153197764D01*
X369025577Y-153201065D01*
X369056599Y-153200628D01*
X369086973Y-153199516D01*
X369144681Y-153196464D01*
X369171462Y-153195121D01*
X369196496Y-153194298D01*
X369219507Y-153194295D01*
X369230168Y-153194694D01*
X369240220Y-153195410D01*
X369249628Y-153196480D01*
X369258359Y-153197942D01*
X369266377Y-153199832D01*
X369273649Y-153202189D01*
X369280140Y-153205050D01*
X369285816Y-153208451D01*
X369290642Y-153212431D01*
X369294583Y-153217027D01*
X369297607Y-153222276D01*
X369299677Y-153228215D01*
X369300760Y-153234882D01*
X369300821Y-153242314D01*
X369299826Y-153250548D01*
X369297740Y-153259623D01*
X369294530Y-153269574D01*
X369290160Y-153280440D01*
X369283617Y-153290660D01*
X369276765Y-153300648D01*
X369269610Y-153310400D01*
X369262160Y-153319908D01*
X369254419Y-153329166D01*
X369246396Y-153338169D01*
X369238097Y-153346909D01*
X369229527Y-153355380D01*
X369220695Y-153363577D01*
X369211606Y-153371493D01*
X369202266Y-153379121D01*
X369192683Y-153386456D01*
X369182864Y-153393490D01*
X369172813Y-153400219D01*
X369162539Y-153406635D01*
X369152048Y-153412732D01*
X369144088Y-153418143D01*
X369135928Y-153423185D01*
X369127579Y-153427854D01*
X369119056Y-153432146D01*
X369110371Y-153436058D01*
X369101536Y-153439585D01*
X369092566Y-153442725D01*
X369083472Y-153445474D01*
X369074269Y-153447829D01*
X369064968Y-153449784D01*
X369055583Y-153451338D01*
X369046127Y-153452486D01*
X369036612Y-153453225D01*
X369027053Y-153453550D01*
X369017461Y-153453460D01*
X369007850Y-153452949D01*
X368979893Y-153449650D01*
X368940158Y-153440329D01*
X368831191Y-153407060D01*
X368536164Y-153306105D01*
X368373470Y-153252186D01*
X368216233Y-153205150D01*
X368143312Y-153186364D01*
X368076136Y-153171881D01*
X368016166Y-153162559D01*
X367964862Y-153159261D01*
X367962301Y-153159054D01*
X367959738Y-153158922D01*
X367957176Y-153158865D01*
X367954616Y-153158882D01*
X367952060Y-153158974D01*
X367949509Y-153159139D01*
X367946965Y-153159378D01*
X367944429Y-153159691D01*
X367941904Y-153160078D01*
X367939390Y-153160537D01*
X367936890Y-153161069D01*
X367934405Y-153161675D01*
X367931936Y-153162352D01*
X367929486Y-153163102D01*
X367927055Y-153163924D01*
X367924645Y-153164817D01*
X367917505Y-153170156D01*
X367911154Y-153175395D01*
X367905576Y-153180588D01*
X367900754Y-153185790D01*
X367898622Y-153188411D01*
X367896672Y-153191055D01*
X367894903Y-153193729D01*
X367893312Y-153196439D01*
X367891898Y-153199192D01*
X367890659Y-153201995D01*
X367889592Y-153204855D01*
X367888695Y-153207779D01*
X367887967Y-153210773D01*
X367887404Y-153213845D01*
X367887006Y-153217001D01*
X367886769Y-153220248D01*
X367886693Y-153223593D01*
X367886774Y-153227042D01*
X367887401Y-153234283D01*
X367888635Y-153242024D01*
X367890458Y-153250321D01*
X367892854Y-153259227D01*
X367895806Y-153268799D01*
X368274689Y-153775740D01*
X368292703Y-153762127D01*
X368310995Y-153748920D01*
X368329556Y-153736123D01*
X368348379Y-153723740D01*
X368367459Y-153711775D01*
X368386787Y-153700231D01*
X368406357Y-153689112D01*
X368426161Y-153678423D01*
X368446193Y-153668165D01*
X368466445Y-153658344D01*
X368486910Y-153648963D01*
X368507582Y-153640026D01*
X368528453Y-153631536D01*
X368549516Y-153623497D01*
X368570763Y-153615913D01*
X368592189Y-153608788D01*
X368595973Y-153607832D01*
X368599585Y-153607146D01*
X368603031Y-153606730D01*
X368606313Y-153606581D01*
X368609435Y-153606699D01*
X368612400Y-153607083D01*
X368615210Y-153607731D01*
X368617870Y-153608643D01*
X368620383Y-153609818D01*
X368622752Y-153611253D01*
X368624980Y-153612949D01*
X368627071Y-153614904D01*
X368629028Y-153617117D01*
X368630853Y-153619586D01*
X368632552Y-153622311D01*
X368634126Y-153625291D01*
X368636914Y-153632010D01*
X368639246Y-153639734D01*
X368641146Y-153648454D01*
X368642642Y-153658162D01*
X368643759Y-153668847D01*
X368644525Y-153680502D01*
X368644965Y-153693117D01*
X368645106Y-153706684D01*
X368643051Y-153720295D01*
X368640188Y-153733092D01*
X368636559Y-153745138D01*
X368632206Y-153756497D01*
X368627171Y-153767232D01*
X368621494Y-153777406D01*
X368615219Y-153787082D01*
X368608387Y-153796324D01*
X368601039Y-153805195D01*
X368593217Y-153813758D01*
X368576319Y-153830216D01*
X368558028Y-153846203D01*
X368538677Y-153862226D01*
X368518601Y-153878791D01*
X368498133Y-153896406D01*
X368477608Y-153915576D01*
X368457359Y-153936809D01*
X368447443Y-153948357D01*
X368437721Y-153960611D01*
X368428236Y-153973633D01*
X368419029Y-153987488D01*
X368410141Y-154002238D01*
X368401615Y-154017947D01*
X368393492Y-154034678D01*
X368385814Y-154052494D01*
X369421360Y-154148075D01*
X370535289Y-154259928D01*
X370544676Y-154261087D01*
X370553395Y-154262394D01*
X370561456Y-154263866D01*
X370565242Y-154264670D01*
X370568866Y-154265521D01*
X370572330Y-154266422D01*
X370575635Y-154267376D01*
X370578781Y-154268383D01*
X370581770Y-154269448D01*
X370584603Y-154270571D01*
X370587280Y-154271755D01*
X370589804Y-154273002D01*
X370592174Y-154274314D01*
X370594393Y-154275694D01*
X370596461Y-154277143D01*
X370598379Y-154278664D01*
X370600148Y-154280260D01*
X370601770Y-154281931D01*
X370603245Y-154283680D01*
X370604574Y-154285511D01*
X370605759Y-154287423D01*
X370606801Y-154289421D01*
X370607700Y-154291506D01*
X370608458Y-154293680D01*
X370609076Y-154295945D01*
X370609554Y-154298305D01*
X370609895Y-154300759D01*
X370610098Y-154303312D01*
X370610166Y-154305965D01*
X370609664Y-154313198D01*
X370608176Y-154320830D01*
X370605729Y-154328820D01*
X370602348Y-154337126D01*
X370592893Y-154354524D01*
X370580020Y-154372694D01*
X370563941Y-154391305D01*
X370544867Y-154410028D01*
X370523009Y-154428534D01*
X370498577Y-154446492D01*
X370471783Y-154463572D01*
X370442837Y-154479445D01*
X370411949Y-154493781D01*
X370379332Y-154506249D01*
X370345195Y-154516521D01*
X370309750Y-154524267D01*
X370291602Y-154527089D01*
X370273207Y-154529156D01*
X370254589Y-154530426D01*
X370235777Y-154530858D01*
X370006675Y-154482743D01*
X369776883Y-154438269D01*
X369546445Y-154397444D01*
X369315404Y-154360275D01*
X369083803Y-154326768D01*
X368851686Y-154296930D01*
X368619097Y-154270767D01*
X368386079Y-154248286D01*
X368345596Y-154248295D01*
X368335329Y-154315587D01*
X368326311Y-154383039D01*
X368318543Y-154450634D01*
X368312026Y-154518356D01*
X368306762Y-154586186D01*
X368302752Y-154654107D01*
X368299998Y-154722101D01*
X368298502Y-154790152D01*
X368298576Y-154859577D01*
X368301325Y-154928870D01*
X368306737Y-154997955D01*
X368314801Y-155066755D01*
X368325508Y-155135194D01*
X368338847Y-155203194D01*
X368354808Y-155270680D01*
X368373379Y-155337575D01*
X368375404Y-155339708D01*
X368377357Y-155341900D01*
X368379235Y-155344150D01*
X368381038Y-155346456D01*
X368382765Y-155348817D01*
X368384414Y-155351229D01*
X368385984Y-155353692D01*
X368387475Y-155356203D01*
X368388885Y-155358760D01*
X368390213Y-155361361D01*
X368391458Y-155364005D01*
X368392619Y-155366689D01*
X368393694Y-155369412D01*
X368394683Y-155372171D01*
X368395585Y-155374965D01*
X368396398Y-155377792D01*
X368398990Y-155379906D01*
X368401917Y-155381884D01*
X368405199Y-155383726D01*
X368408854Y-155385432D01*
X368412901Y-155387001D01*
X368417359Y-155388433D01*
X368422248Y-155389729D01*
X368427585Y-155390889D01*
X368433391Y-155391912D01*
X368439685Y-155392799D01*
X368446484Y-155393549D01*
X368453808Y-155394163D01*
X368461677Y-155394640D01*
X368470108Y-155394981D01*
X368488737Y-155395254D01*
X368526989Y-155394541D01*
X368564108Y-155392526D01*
X368600168Y-155389394D01*
X368635246Y-155385332D01*
X368669417Y-155380527D01*
X368702757Y-155375163D01*
X368767244Y-155363504D01*
X368829313Y-155351846D01*
X368889569Y-155341676D01*
X368919205Y-155337614D01*
X368948615Y-155334483D01*
X368977873Y-155332468D01*
X369007056Y-155331754D01*
X369012577Y-155331821D01*
X369017914Y-155332015D01*
X369023042Y-155332328D01*
X369027937Y-155332751D01*
X369032577Y-155333274D01*
X369036938Y-155333889D01*
X369040995Y-155334587D01*
X369044726Y-155335359D01*
X369048106Y-155336196D01*
X369051113Y-155337090D01*
X369053721Y-155338031D01*
X369054869Y-155338516D01*
X369055909Y-155339010D01*
X369056837Y-155339511D01*
X369057651Y-155340018D01*
X369058348Y-155340531D01*
X369058925Y-155341047D01*
X369059379Y-155341567D01*
X369059707Y-155342088D01*
X369059906Y-155342610D01*
X369059973Y-155343131D01*
X369056561Y-155350280D01*
X369050685Y-155358698D01*
X369032092Y-155379150D01*
X369005301Y-155404107D01*
X368971420Y-155433189D01*
X368787121Y-155583175D01*
X368681205Y-155673044D01*
X368628679Y-155720369D01*
X368577918Y-155768780D01*
X368530028Y-155817898D01*
X368486116Y-155867343D01*
X368447289Y-155916736D01*
X368430128Y-155941294D01*
X368414654Y-155965696D01*
X368411711Y-155969357D01*
X368408596Y-155972841D01*
X368405314Y-155976142D01*
X368401876Y-155979255D01*
X368398289Y-155982177D01*
X368394562Y-155984903D01*
X368390703Y-155987428D01*
X368386720Y-155989748D01*
X368382622Y-155991857D01*
X368378418Y-155993752D01*
X368374115Y-155995427D01*
X368369722Y-155996879D01*
X368365248Y-155998103D01*
X368360700Y-155999093D01*
X368356087Y-155999846D01*
X368351418Y-156000356D01*
X368339777Y-156000356D01*
X368333956Y-155994536D01*
X368328400Y-155994536D01*
X368317022Y-155988715D01*
X368305381Y-155982895D01*
X368294004Y-155977074D01*
X368282362Y-155965697D01*
X368270985Y-155959876D01*
X368253523Y-155948234D01*
X368242145Y-155931036D01*
X368224683Y-155913838D01*
X368213306Y-155896376D01*
X368195049Y-155879177D01*
X368177587Y-155856158D01*
X368160389Y-155827319D01*
X368149012Y-155798743D01*
X368131815Y-155769904D01*
X368114617Y-155735243D01*
X368102975Y-155700848D01*
X368097154Y-155677829D01*
X368085777Y-155660366D01*
X368079956Y-155637348D01*
X368068314Y-155591310D01*
X368062758Y-155568291D01*
X368056937Y-155545273D01*
X368051116Y-155516433D01*
X368045295Y-155493415D01*
X368039475Y-155464575D01*
X368033654Y-155435736D01*
X368028097Y-155406897D01*
X368022806Y-155377793D01*
X368022806Y-155343133D01*
X368016985Y-155314558D01*
X368011164Y-155279897D01*
X368011164Y-155245237D01*
X368005608Y-155210576D01*
X368005608Y-155135698D01*
X367999787Y-155095482D01*
X367999787Y-154968746D01*
X367999258Y-154970334D01*
X367999710Y-154902026D01*
X368000986Y-154835565D01*
X368005542Y-154709095D01*
X368011983Y-154592753D01*
X368019366Y-154488363D01*
X368033191Y-154322746D01*
X368037747Y-154265171D01*
X368039475Y-154226855D01*
X367936349Y-154219007D01*
X367830024Y-154212638D01*
X367720573Y-154207614D01*
X367608072Y-154203803D01*
X367374213Y-154199285D01*
X367129044Y-154198015D01*
X366528406Y-154204564D01*
X366198831Y-154210294D01*
X366005358Y-154215478D01*
X365987350Y-154215265D01*
X365970078Y-154214593D01*
X365953598Y-154213411D01*
X365937972Y-154211670D01*
X365930497Y-154210575D01*
X365923257Y-154209320D01*
X365916260Y-154207901D01*
X365909513Y-154206311D01*
X365903023Y-154204543D01*
X365896798Y-154202592D01*
X365890845Y-154200452D01*
X365885171Y-154198115D01*
X365879784Y-154195575D01*
X365874692Y-154192828D01*
X365869900Y-154189865D01*
X365865418Y-154186681D01*
X365861252Y-154183270D01*
X365857410Y-154179626D01*
X365853899Y-154175741D01*
X365850726Y-154171611D01*
X365847898Y-154167228D01*
X365845424Y-154162587D01*
X365843310Y-154157681D01*
X365841564Y-154152503D01*
X365840194Y-154147049D01*
X365839205Y-154141311D01*
X365838607Y-154135283D01*
X365838406Y-154128959D01*
X365839355Y-154117785D01*
X365842154Y-154105937D01*
X365846727Y-154093483D01*
X365852999Y-154080491D01*
X365870342Y-154053159D01*
X365893584Y-154024482D01*
X365922127Y-153994998D01*
X365955371Y-153965248D01*
X365992718Y-153935771D01*
X366033569Y-153907106D01*
X366077326Y-153879793D01*
X366123389Y-153854371D01*
X366171159Y-153831380D01*
X366220038Y-153811360D01*
X366269428Y-153794849D01*
X366318729Y-153782388D01*
X366343158Y-153777844D01*
X366367342Y-153774516D01*
X366391203Y-153772469D01*
X366414668Y-153771772D01*
X366637282Y-153809177D01*
X367120449Y-153883504D01*
X368074135Y-154019422D01*
X368076845Y-154005295D01*
X368080214Y-153991372D01*
X368084228Y-153977670D01*
X368088876Y-153964213D01*
X368094144Y-153951019D01*
X368100020Y-153938110D01*
X368106492Y-153925506D01*
X368113547Y-153913227D01*
X368121174Y-153901295D01*
X368129358Y-153889729D01*
X368138089Y-153878550D01*
X368147352Y-153867780D01*
X368157137Y-153857437D01*
X368167431Y-153847544D01*
X368178220Y-153838120D01*
X368189493Y-153829186D01*
X368195314Y-153829186D01*
X368152676Y-153790186D01*
X368109202Y-153752201D01*
X368064910Y-153715242D01*
X368019820Y-153679321D01*
X367973950Y-153644450D01*
X367927318Y-153610641D01*
X367879944Y-153577906D01*
X367831846Y-153546258D01*
X367783044Y-153515708D01*
X367733555Y-153486268D01*
X367683398Y-153457951D01*
X367632593Y-153430768D01*
X367581158Y-153404732D01*
X367529112Y-153379854D01*
X367476473Y-153356146D01*
X367423260Y-153333621D01*
X367411830Y-153329117D01*
X367406473Y-153326724D01*
X367401356Y-153324237D01*
X367396481Y-153321658D01*
X367391848Y-153318987D01*
X367387458Y-153316223D01*
X367383312Y-153313368D01*
X367379412Y-153310422D01*
X367375758Y-153307386D01*
X367372352Y-153304259D01*
X367369194Y-153301042D01*
X367366285Y-153297736D01*
X367363627Y-153294341D01*
X367361220Y-153290858D01*
X367359066Y-153287286D01*
X367357165Y-153283627D01*
X367355518Y-153279881D01*
X367354127Y-153276048D01*
X367352993Y-153272129D01*
X367352116Y-153268124D01*
X367351498Y-153264034D01*
X367351139Y-153259858D01*
X367351041Y-153255598D01*
X367351205Y-153251254D01*
X367351631Y-153246827D01*
X367352321Y-153242316D01*
X367353275Y-153237722D01*
X367354495Y-153233046D01*
X367355982Y-153228288D01*
X367357737Y-153223448D01*
X367359760Y-153218528D01*
X367361212Y-153210022D01*
X367364461Y-153200773D01*
X367369410Y-153190845D01*
X367375962Y-153180306D01*
X367393484Y-153157661D01*
X367416249Y-153133369D01*
X367443479Y-153107962D01*
X367474395Y-153081973D01*
X367508220Y-153055934D01*
X367544175Y-153030376D01*
X367581482Y-153005832D01*
X367619362Y-152982834D01*
X367657038Y-152961914D01*
X367693730Y-152943605D01*
X367728662Y-152928438D01*
X367761054Y-152916945D01*
X367790129Y-152909660D01*
X367803179Y-152907761D01*
X367815108Y-152907113D01*
X367841786Y-152910414D01*
G37*
X367841786Y-152910414D02*
X367881847Y-152919744D01*
X367996244Y-152953043D01*
X368321024Y-153054089D01*
X368507911Y-153108057D01*
X368695463Y-153155135D01*
X368785819Y-153173938D01*
X368871935Y-153188434D01*
X368952344Y-153197764D01*
X369025577Y-153201065D01*
X369056599Y-153200628D01*
X369086973Y-153199516D01*
X369144681Y-153196464D01*
X369171462Y-153195121D01*
X369196496Y-153194298D01*
X369219507Y-153194295D01*
X369230168Y-153194694D01*
X369240220Y-153195410D01*
X369249628Y-153196480D01*
X369258359Y-153197942D01*
X369266377Y-153199832D01*
X369273649Y-153202189D01*
X369280140Y-153205050D01*
X369285816Y-153208451D01*
X369290642Y-153212431D01*
X369294583Y-153217027D01*
X369297607Y-153222276D01*
X369299677Y-153228215D01*
X369300760Y-153234882D01*
X369300821Y-153242314D01*
X369299826Y-153250548D01*
X369297740Y-153259623D01*
X369294530Y-153269574D01*
X369290160Y-153280440D01*
X369283617Y-153290660D01*
X369276765Y-153300648D01*
X369269610Y-153310400D01*
X369262160Y-153319908D01*
X369254419Y-153329166D01*
X369246396Y-153338169D01*
X369238097Y-153346909D01*
X369229527Y-153355380D01*
X369220695Y-153363577D01*
X369211606Y-153371493D01*
X369202266Y-153379121D01*
X369192683Y-153386456D01*
X369182864Y-153393490D01*
X369172813Y-153400219D01*
X369162539Y-153406635D01*
X369152048Y-153412732D01*
X369144088Y-153418143D01*
X369135928Y-153423185D01*
X369127579Y-153427854D01*
X369119056Y-153432146D01*
X369110371Y-153436058D01*
X369101536Y-153439585D01*
X369092566Y-153442725D01*
X369083472Y-153445474D01*
X369074269Y-153447829D01*
X369064968Y-153449784D01*
X369055583Y-153451338D01*
X369046127Y-153452486D01*
X369036612Y-153453225D01*
X369027053Y-153453550D01*
X369017461Y-153453460D01*
X369007850Y-153452949D01*
X368979893Y-153449650D01*
X368940158Y-153440329D01*
X368831191Y-153407060D01*
X368536164Y-153306105D01*
X368373470Y-153252186D01*
X368216233Y-153205150D01*
X368143312Y-153186364D01*
X368076136Y-153171881D01*
X368016166Y-153162559D01*
X367964862Y-153159261D01*
X367962301Y-153159054D01*
X367959738Y-153158922D01*
X367957176Y-153158865D01*
X367954616Y-153158882D01*
X367952060Y-153158974D01*
X367949509Y-153159139D01*
X367946965Y-153159378D01*
X367944429Y-153159691D01*
X367941904Y-153160078D01*
X367939390Y-153160537D01*
X367936890Y-153161069D01*
X367934405Y-153161675D01*
X367931936Y-153162352D01*
X367929486Y-153163102D01*
X367927055Y-153163924D01*
X367924645Y-153164817D01*
X367917505Y-153170156D01*
X367911154Y-153175395D01*
X367905576Y-153180588D01*
X367900754Y-153185790D01*
X367898622Y-153188411D01*
X367896672Y-153191055D01*
X367894903Y-153193729D01*
X367893312Y-153196439D01*
X367891898Y-153199192D01*
X367890659Y-153201995D01*
X367889592Y-153204855D01*
X367888695Y-153207779D01*
X367887967Y-153210773D01*
X367887404Y-153213845D01*
X367887006Y-153217001D01*
X367886769Y-153220248D01*
X367886693Y-153223593D01*
X367886774Y-153227042D01*
X367887401Y-153234283D01*
X367888635Y-153242024D01*
X367890458Y-153250321D01*
X367892854Y-153259227D01*
X367895806Y-153268799D01*
X368274689Y-153775740D01*
X368292703Y-153762127D01*
X368310995Y-153748920D01*
X368329556Y-153736123D01*
X368348379Y-153723740D01*
X368367459Y-153711775D01*
X368386787Y-153700231D01*
X368406357Y-153689112D01*
X368426161Y-153678423D01*
X368446193Y-153668165D01*
X368466445Y-153658344D01*
X368486910Y-153648963D01*
X368507582Y-153640026D01*
X368528453Y-153631536D01*
X368549516Y-153623497D01*
X368570763Y-153615913D01*
X368592189Y-153608788D01*
X368595973Y-153607832D01*
X368599585Y-153607146D01*
X368603031Y-153606730D01*
X368606313Y-153606581D01*
X368609435Y-153606699D01*
X368612400Y-153607083D01*
X368615210Y-153607731D01*
X368617870Y-153608643D01*
X368620383Y-153609818D01*
X368622752Y-153611253D01*
X368624980Y-153612949D01*
X368627071Y-153614904D01*
X368629028Y-153617117D01*
X368630853Y-153619586D01*
X368632552Y-153622311D01*
X368634126Y-153625291D01*
X368636914Y-153632010D01*
X368639246Y-153639734D01*
X368641146Y-153648454D01*
X368642642Y-153658162D01*
X368643759Y-153668847D01*
X368644525Y-153680502D01*
X368644965Y-153693117D01*
X368645106Y-153706684D01*
X368643051Y-153720295D01*
X368640188Y-153733092D01*
X368636559Y-153745138D01*
X368632206Y-153756497D01*
X368627171Y-153767232D01*
X368621494Y-153777406D01*
X368615219Y-153787082D01*
X368608387Y-153796324D01*
X368601039Y-153805195D01*
X368593217Y-153813758D01*
X368576319Y-153830216D01*
X368558028Y-153846203D01*
X368538677Y-153862226D01*
X368518601Y-153878791D01*
X368498133Y-153896406D01*
X368477608Y-153915576D01*
X368457359Y-153936809D01*
X368447443Y-153948357D01*
X368437721Y-153960611D01*
X368428236Y-153973633D01*
X368419029Y-153987488D01*
X368410141Y-154002238D01*
X368401615Y-154017947D01*
X368393492Y-154034678D01*
X368385814Y-154052494D01*
X369421360Y-154148075D01*
X370535289Y-154259928D01*
X370544676Y-154261087D01*
X370553395Y-154262394D01*
X370561456Y-154263866D01*
X370565242Y-154264670D01*
X370568866Y-154265521D01*
X370572330Y-154266422D01*
X370575635Y-154267376D01*
X370578781Y-154268383D01*
X370581770Y-154269448D01*
X370584603Y-154270571D01*
X370587280Y-154271755D01*
X370589804Y-154273002D01*
X370592174Y-154274314D01*
X370594393Y-154275694D01*
X370596461Y-154277143D01*
X370598379Y-154278664D01*
X370600148Y-154280260D01*
X370601770Y-154281931D01*
X370603245Y-154283680D01*
X370604574Y-154285511D01*
X370605759Y-154287423D01*
X370606801Y-154289421D01*
X370607700Y-154291506D01*
X370608458Y-154293680D01*
X370609076Y-154295945D01*
X370609554Y-154298305D01*
X370609895Y-154300759D01*
X370610098Y-154303312D01*
X370610166Y-154305965D01*
X370609664Y-154313198D01*
X370608176Y-154320830D01*
X370605729Y-154328820D01*
X370602348Y-154337126D01*
X370592893Y-154354524D01*
X370580020Y-154372694D01*
X370563941Y-154391305D01*
X370544867Y-154410028D01*
X370523009Y-154428534D01*
X370498577Y-154446492D01*
X370471783Y-154463572D01*
X370442837Y-154479445D01*
X370411949Y-154493781D01*
X370379332Y-154506249D01*
X370345195Y-154516521D01*
X370309750Y-154524267D01*
X370291602Y-154527089D01*
X370273207Y-154529156D01*
X370254589Y-154530426D01*
X370235777Y-154530858D01*
X370006675Y-154482743D01*
X369776883Y-154438269D01*
X369546445Y-154397444D01*
X369315404Y-154360275D01*
X369083803Y-154326768D01*
X368851686Y-154296930D01*
X368619097Y-154270767D01*
X368386079Y-154248286D01*
X368345596Y-154248295D01*
X368335329Y-154315587D01*
X368326311Y-154383039D01*
X368318543Y-154450634D01*
X368312026Y-154518356D01*
X368306762Y-154586186D01*
X368302752Y-154654107D01*
X368299998Y-154722101D01*
X368298502Y-154790152D01*
X368298576Y-154859577D01*
X368301325Y-154928870D01*
X368306737Y-154997955D01*
X368314801Y-155066755D01*
X368325508Y-155135194D01*
X368338847Y-155203194D01*
X368354808Y-155270680D01*
X368373379Y-155337575D01*
X368375404Y-155339708D01*
X368377357Y-155341900D01*
X368379235Y-155344150D01*
X368381038Y-155346456D01*
X368382765Y-155348817D01*
X368384414Y-155351229D01*
X368385984Y-155353692D01*
X368387475Y-155356203D01*
X368388885Y-155358760D01*
X368390213Y-155361361D01*
X368391458Y-155364005D01*
X368392619Y-155366689D01*
X368393694Y-155369412D01*
X368394683Y-155372171D01*
X368395585Y-155374965D01*
X368396398Y-155377792D01*
X368398990Y-155379906D01*
X368401917Y-155381884D01*
X368405199Y-155383726D01*
X368408854Y-155385432D01*
X368412901Y-155387001D01*
X368417359Y-155388433D01*
X368422248Y-155389729D01*
X368427585Y-155390889D01*
X368433391Y-155391912D01*
X368439685Y-155392799D01*
X368446484Y-155393549D01*
X368453808Y-155394163D01*
X368461677Y-155394640D01*
X368470108Y-155394981D01*
X368488737Y-155395254D01*
X368526989Y-155394541D01*
X368564108Y-155392526D01*
X368600168Y-155389394D01*
X368635246Y-155385332D01*
X368669417Y-155380527D01*
X368702757Y-155375163D01*
X368767244Y-155363504D01*
X368829313Y-155351846D01*
X368889569Y-155341676D01*
X368919205Y-155337614D01*
X368948615Y-155334483D01*
X368977873Y-155332468D01*
X369007056Y-155331754D01*
X369012577Y-155331821D01*
X369017914Y-155332015D01*
X369023042Y-155332328D01*
X369027937Y-155332751D01*
X369032577Y-155333274D01*
X369036938Y-155333889D01*
X369040995Y-155334587D01*
X369044726Y-155335359D01*
X369048106Y-155336196D01*
X369051113Y-155337090D01*
X369053721Y-155338031D01*
X369054869Y-155338516D01*
X369055909Y-155339010D01*
X369056837Y-155339511D01*
X369057651Y-155340018D01*
X369058348Y-155340531D01*
X369058925Y-155341047D01*
X369059379Y-155341567D01*
X369059707Y-155342088D01*
X369059906Y-155342610D01*
X369059973Y-155343131D01*
X369056561Y-155350280D01*
X369050685Y-155358698D01*
X369032092Y-155379150D01*
X369005301Y-155404107D01*
X368971420Y-155433189D01*
X368787121Y-155583175D01*
X368681205Y-155673044D01*
X368628679Y-155720369D01*
X368577918Y-155768780D01*
X368530028Y-155817898D01*
X368486116Y-155867343D01*
X368447289Y-155916736D01*
X368430128Y-155941294D01*
X368414654Y-155965696D01*
X368411711Y-155969357D01*
X368408596Y-155972841D01*
X368405314Y-155976142D01*
X368401876Y-155979255D01*
X368398289Y-155982177D01*
X368394562Y-155984903D01*
X368390703Y-155987428D01*
X368386720Y-155989748D01*
X368382622Y-155991857D01*
X368378418Y-155993752D01*
X368374115Y-155995427D01*
X368369722Y-155996879D01*
X368365248Y-155998103D01*
X368360700Y-155999093D01*
X368356087Y-155999846D01*
X368351418Y-156000356D01*
X368339777Y-156000356D01*
X368333956Y-155994536D01*
X368328400Y-155994536D01*
X368317022Y-155988715D01*
X368305381Y-155982895D01*
X368294004Y-155977074D01*
X368282362Y-155965697D01*
X368270985Y-155959876D01*
X368253523Y-155948234D01*
X368242145Y-155931036D01*
X368224683Y-155913838D01*
X368213306Y-155896376D01*
X368195049Y-155879177D01*
X368177587Y-155856158D01*
X368160389Y-155827319D01*
X368149012Y-155798743D01*
X368131815Y-155769904D01*
X368114617Y-155735243D01*
X368102975Y-155700848D01*
X368097154Y-155677829D01*
X368085777Y-155660366D01*
X368079956Y-155637348D01*
X368068314Y-155591310D01*
X368062758Y-155568291D01*
X368056937Y-155545273D01*
X368051116Y-155516433D01*
X368045295Y-155493415D01*
X368039475Y-155464575D01*
X368033654Y-155435736D01*
X368028097Y-155406897D01*
X368022806Y-155377793D01*
X368022806Y-155343133D01*
X368016985Y-155314558D01*
X368011164Y-155279897D01*
X368011164Y-155245237D01*
X368005608Y-155210576D01*
X368005608Y-155135698D01*
X367999787Y-155095482D01*
X367999787Y-154968746D01*
X367999258Y-154970334D01*
X367999710Y-154902026D01*
X368000986Y-154835565D01*
X368005542Y-154709095D01*
X368011983Y-154592753D01*
X368019366Y-154488363D01*
X368033191Y-154322746D01*
X368037747Y-154265171D01*
X368039475Y-154226855D01*
X367936349Y-154219007D01*
X367830024Y-154212638D01*
X367720573Y-154207614D01*
X367608072Y-154203803D01*
X367374213Y-154199285D01*
X367129044Y-154198015D01*
X366528406Y-154204564D01*
X366198831Y-154210294D01*
X366005358Y-154215478D01*
X365987350Y-154215265D01*
X365970078Y-154214593D01*
X365953598Y-154213411D01*
X365937972Y-154211670D01*
X365930497Y-154210575D01*
X365923257Y-154209320D01*
X365916260Y-154207901D01*
X365909513Y-154206311D01*
X365903023Y-154204543D01*
X365896798Y-154202592D01*
X365890845Y-154200452D01*
X365885171Y-154198115D01*
X365879784Y-154195575D01*
X365874692Y-154192828D01*
X365869900Y-154189865D01*
X365865418Y-154186681D01*
X365861252Y-154183270D01*
X365857410Y-154179626D01*
X365853899Y-154175741D01*
X365850726Y-154171611D01*
X365847898Y-154167228D01*
X365845424Y-154162587D01*
X365843310Y-154157681D01*
X365841564Y-154152503D01*
X365840194Y-154147049D01*
X365839205Y-154141311D01*
X365838607Y-154135283D01*
X365838406Y-154128959D01*
X365839355Y-154117785D01*
X365842154Y-154105937D01*
X365846727Y-154093483D01*
X365852999Y-154080491D01*
X365870342Y-154053159D01*
X365893584Y-154024482D01*
X365922127Y-153994998D01*
X365955371Y-153965248D01*
X365992718Y-153935771D01*
X366033569Y-153907106D01*
X366077326Y-153879793D01*
X366123389Y-153854371D01*
X366171159Y-153831380D01*
X366220038Y-153811360D01*
X366269428Y-153794849D01*
X366318729Y-153782388D01*
X366343158Y-153777844D01*
X366367342Y-153774516D01*
X366391203Y-153772469D01*
X366414668Y-153771772D01*
X366637282Y-153809177D01*
X367120449Y-153883504D01*
X368074135Y-154019422D01*
X368076845Y-154005295D01*
X368080214Y-153991372D01*
X368084228Y-153977670D01*
X368088876Y-153964213D01*
X368094144Y-153951019D01*
X368100020Y-153938110D01*
X368106492Y-153925506D01*
X368113547Y-153913227D01*
X368121174Y-153901295D01*
X368129358Y-153889729D01*
X368138089Y-153878550D01*
X368147352Y-153867780D01*
X368157137Y-153857437D01*
X368167431Y-153847544D01*
X368178220Y-153838120D01*
X368189493Y-153829186D01*
X368195314Y-153829186D01*
X368152676Y-153790186D01*
X368109202Y-153752201D01*
X368064910Y-153715242D01*
X368019820Y-153679321D01*
X367973950Y-153644450D01*
X367927318Y-153610641D01*
X367879944Y-153577906D01*
X367831846Y-153546258D01*
X367783044Y-153515708D01*
X367733555Y-153486268D01*
X367683398Y-153457951D01*
X367632593Y-153430768D01*
X367581158Y-153404732D01*
X367529112Y-153379854D01*
X367476473Y-153356146D01*
X367423260Y-153333621D01*
X367411830Y-153329117D01*
X367406473Y-153326724D01*
X367401356Y-153324237D01*
X367396481Y-153321658D01*
X367391848Y-153318987D01*
X367387458Y-153316223D01*
X367383312Y-153313368D01*
X367379412Y-153310422D01*
X367375758Y-153307386D01*
X367372352Y-153304259D01*
X367369194Y-153301042D01*
X367366285Y-153297736D01*
X367363627Y-153294341D01*
X367361220Y-153290858D01*
X367359066Y-153287286D01*
X367357165Y-153283627D01*
X367355518Y-153279881D01*
X367354127Y-153276048D01*
X367352993Y-153272129D01*
X367352116Y-153268124D01*
X367351498Y-153264034D01*
X367351139Y-153259858D01*
X367351041Y-153255598D01*
X367351205Y-153251254D01*
X367351631Y-153246827D01*
X367352321Y-153242316D01*
X367353275Y-153237722D01*
X367354495Y-153233046D01*
X367355982Y-153228288D01*
X367357737Y-153223448D01*
X367359760Y-153218528D01*
X367361212Y-153210022D01*
X367364461Y-153200773D01*
X367369410Y-153190845D01*
X367375962Y-153180306D01*
X367393484Y-153157661D01*
X367416249Y-153133369D01*
X367443479Y-153107962D01*
X367474395Y-153081973D01*
X367508220Y-153055934D01*
X367544175Y-153030376D01*
X367581482Y-153005832D01*
X367619362Y-152982834D01*
X367657038Y-152961914D01*
X367693730Y-152943605D01*
X367728662Y-152928438D01*
X367761054Y-152916945D01*
X367790129Y-152909660D01*
X367803179Y-152907761D01*
X367815108Y-152907113D01*
X367841786Y-152910414D01*
D11*
X371784772Y-153300197D02*
G75*
G03*
X371784772Y-153300197I-3549758J0D01*
G01*
D10*
X369676716Y-151660926D02*
X369676716Y-151649813D01*
X369676716Y-151649813D02*
X369670895Y-151649813D01*
X369670895Y-151649813D02*
X369665074Y-151643992D01*
X369665074Y-151643992D02*
X369659254Y-151638436D01*
X369659254Y-151638436D02*
X369642056Y-151632086D01*
X369642056Y-151632086D02*
X369624858Y-151626265D01*
X369624858Y-151626265D02*
X369607395Y-151620444D01*
X369607395Y-151620444D02*
X369578556Y-151614624D01*
X369578556Y-151614624D02*
X369555537Y-151609067D01*
X369555537Y-151609067D02*
X369521141Y-151603247D01*
X369521141Y-151603247D02*
X369492302Y-151596897D01*
X369492302Y-151596897D02*
X369451820Y-151596897D01*
X369451820Y-151596897D02*
X369417424Y-151591076D01*
X369417424Y-151591076D02*
X369377472Y-151585784D01*
X369377472Y-151585784D02*
X369331435Y-151580228D01*
X369331435Y-151580228D02*
X369290954Y-151580228D01*
X369290954Y-151580228D02*
X369245181Y-151574407D01*
X369245181Y-151574407D02*
X369192264Y-151568586D01*
X369192264Y-151568586D02*
X369146227Y-151568586D01*
X369146227Y-151568586D02*
X369093310Y-151562765D01*
X369093310Y-151562765D02*
X369040393Y-151556944D01*
X369040393Y-151556944D02*
X368936677Y-151551388D01*
X368936677Y-151551388D02*
X368832960Y-151545567D01*
X368832960Y-151545567D02*
X368723422Y-151533926D01*
X368723422Y-151533926D02*
X368613885Y-151522549D01*
X368613885Y-151522549D02*
X368512550Y-151517522D01*
X368512550Y-151517522D02*
X368459633Y-151511701D01*
X368459633Y-151511701D02*
X368413596Y-151505880D01*
X368413596Y-151505880D02*
X368411152Y-151464637D01*
X368411152Y-151464637D02*
X368410037Y-151423411D01*
X368410037Y-151423411D02*
X368410246Y-151382235D01*
X368410246Y-151382235D02*
X368411773Y-151341139D01*
X368411773Y-151341139D02*
X368414612Y-151300155D01*
X368414612Y-151300155D02*
X368418757Y-151259313D01*
X368418757Y-151259313D02*
X368424203Y-151218645D01*
X368424203Y-151218645D02*
X368430944Y-151178182D01*
X368430944Y-151178182D02*
X368438974Y-151137954D01*
X368438974Y-151137954D02*
X368448288Y-151097994D01*
X368448288Y-151097994D02*
X368458880Y-151058332D01*
X368458880Y-151058332D02*
X368470743Y-151019000D01*
X368470743Y-151019000D02*
X368483873Y-150980028D01*
X368483873Y-150980028D02*
X368498264Y-150941448D01*
X368498264Y-150941448D02*
X368513910Y-150903291D01*
X368513910Y-150903291D02*
X368530806Y-150865588D01*
X368530806Y-150865588D02*
X368533672Y-150855107D01*
X368533672Y-150855107D02*
X368535729Y-150845277D01*
X368535729Y-150845277D02*
X368536458Y-150840598D01*
X368536458Y-150840598D02*
X368536987Y-150836072D01*
X368536987Y-150836072D02*
X368537318Y-150831696D01*
X368537318Y-150831696D02*
X368537453Y-150827468D01*
X368537453Y-150827468D02*
X368537393Y-150823383D01*
X368537393Y-150823383D02*
X368537139Y-150819438D01*
X368537139Y-150819438D02*
X368536691Y-150815631D01*
X368536691Y-150815631D02*
X368536052Y-150811959D01*
X368536052Y-150811959D02*
X368535222Y-150808418D01*
X368535222Y-150808418D02*
X368534202Y-150805004D01*
X368534202Y-150805004D02*
X368532995Y-150801716D01*
X368532995Y-150801716D02*
X368531599Y-150798549D01*
X368531599Y-150798549D02*
X368530018Y-150795501D01*
X368530018Y-150795501D02*
X368528252Y-150792569D01*
X368528252Y-150792569D02*
X368526303Y-150789749D01*
X368526303Y-150789749D02*
X368524170Y-150787038D01*
X368524170Y-150787038D02*
X368521857Y-150784432D01*
X368521857Y-150784432D02*
X368519363Y-150781930D01*
X368519363Y-150781930D02*
X368516690Y-150779528D01*
X368516690Y-150779528D02*
X368513839Y-150777222D01*
X368513839Y-150777222D02*
X368510812Y-150775009D01*
X368510812Y-150775009D02*
X368507609Y-150772887D01*
X368507609Y-150772887D02*
X368500680Y-150768900D01*
X368500680Y-150768900D02*
X368493064Y-150765237D01*
X368493064Y-150765237D02*
X368484768Y-150761872D01*
X368484768Y-150761872D02*
X368480973Y-150760208D01*
X368480973Y-150760208D02*
X368477134Y-150758668D01*
X368477134Y-150758668D02*
X368473254Y-150757249D01*
X368473254Y-150757249D02*
X368469337Y-150755955D01*
X368469337Y-150755955D02*
X368465385Y-150754784D01*
X368465385Y-150754784D02*
X368461402Y-150753737D01*
X368461402Y-150753737D02*
X368457389Y-150752815D01*
X368457389Y-150752815D02*
X368453351Y-150752019D01*
X368453351Y-150752019D02*
X368449290Y-150751349D01*
X368449290Y-150751349D02*
X368445210Y-150750805D01*
X368445210Y-150750805D02*
X368441112Y-150750388D01*
X368441112Y-150750388D02*
X368437001Y-150750099D01*
X368437001Y-150750099D02*
X368432878Y-150749939D01*
X368432878Y-150749939D02*
X368428748Y-150749906D01*
X368428748Y-150749906D02*
X368424612Y-150750003D01*
X368424612Y-150750003D02*
X368420474Y-150750230D01*
X368420474Y-150750230D02*
X368413596Y-150750110D01*
X368413596Y-150750110D02*
X368406736Y-150750256D01*
X368406736Y-150750256D02*
X368399901Y-150750665D01*
X368399901Y-150750665D02*
X368393101Y-150751337D01*
X368393101Y-150751337D02*
X368386341Y-150752268D01*
X368386341Y-150752268D02*
X368379628Y-150753457D01*
X368379628Y-150753457D02*
X368372972Y-150754901D01*
X368372972Y-150754901D02*
X368366377Y-150756599D01*
X368366377Y-150756599D02*
X368359853Y-150758549D01*
X368359853Y-150758549D02*
X368353406Y-150760748D01*
X368353406Y-150760748D02*
X368347044Y-150763195D01*
X368347044Y-150763195D02*
X368340774Y-150765887D01*
X368340774Y-150765887D02*
X368334603Y-150768822D01*
X368334603Y-150768822D02*
X368328538Y-150771999D01*
X368328538Y-150771999D02*
X368322587Y-150775416D01*
X368322587Y-150775416D02*
X368316758Y-150779070D01*
X368316758Y-150779070D02*
X368297596Y-150786287D01*
X368297596Y-150786287D02*
X368278606Y-150793902D01*
X368278606Y-150793902D02*
X368259795Y-150801913D01*
X368259795Y-150801913D02*
X368241168Y-150810316D01*
X368241168Y-150810316D02*
X368222731Y-150819107D01*
X368222731Y-150819107D02*
X368204490Y-150828283D01*
X368204490Y-150828283D02*
X368186452Y-150837841D01*
X368186452Y-150837841D02*
X368168621Y-150847776D01*
X368168621Y-150847776D02*
X368151005Y-150858086D01*
X368151005Y-150858086D02*
X368133608Y-150868768D01*
X368133608Y-150868768D02*
X368116437Y-150879818D01*
X368116437Y-150879818D02*
X368099499Y-150891232D01*
X368099499Y-150891232D02*
X368082798Y-150903007D01*
X368082798Y-150903007D02*
X368066341Y-150915140D01*
X368066341Y-150915140D02*
X368050134Y-150927627D01*
X368050134Y-150927627D02*
X368034182Y-150940465D01*
X368034182Y-150940465D02*
X368025955Y-150949096D01*
X368025955Y-150949096D02*
X368018543Y-150957718D01*
X368018543Y-150957718D02*
X368011954Y-150966323D01*
X368011954Y-150966323D02*
X368006199Y-150974903D01*
X368006199Y-150974903D02*
X368001285Y-150983448D01*
X368001285Y-150983448D02*
X367999147Y-150987705D01*
X367999147Y-150987705D02*
X367997222Y-150991951D01*
X367997222Y-150991951D02*
X367995512Y-150996183D01*
X367995512Y-150996183D02*
X367994019Y-151000402D01*
X367994019Y-151000402D02*
X367992742Y-151004606D01*
X367992742Y-151004606D02*
X367991684Y-151008794D01*
X367991684Y-151008794D02*
X367990845Y-151012965D01*
X367990845Y-151012965D02*
X367990227Y-151017118D01*
X367990227Y-151017118D02*
X367989830Y-151021251D01*
X367989830Y-151021251D02*
X367989656Y-151025365D01*
X367989656Y-151025365D02*
X367989705Y-151029457D01*
X367989705Y-151029457D02*
X367989980Y-151033526D01*
X367989980Y-151033526D02*
X367990481Y-151037572D01*
X367990481Y-151037572D02*
X367991209Y-151041594D01*
X367991209Y-151041594D02*
X367992165Y-151045590D01*
X367992165Y-151045590D02*
X367993350Y-151049560D01*
X367993350Y-151049560D02*
X367994766Y-151053501D01*
X367994766Y-151053501D02*
X367996414Y-151057414D01*
X367996414Y-151057414D02*
X367998294Y-151061297D01*
X367998294Y-151061297D02*
X368000409Y-151065150D01*
X368000409Y-151065150D02*
X368002758Y-151068970D01*
X368002758Y-151068970D02*
X368005343Y-151072757D01*
X368005343Y-151072757D02*
X368026108Y-151118156D01*
X368026108Y-151118156D02*
X368045092Y-151164268D01*
X368045092Y-151164268D02*
X368062279Y-151211041D01*
X368062279Y-151211041D02*
X368077653Y-151258421D01*
X368077653Y-151258421D02*
X368091198Y-151306356D01*
X368091198Y-151306356D02*
X368102899Y-151354793D01*
X368102899Y-151354793D02*
X368112739Y-151403680D01*
X368112739Y-151403680D02*
X368120702Y-151452963D01*
X368120702Y-151452963D02*
X368118646Y-151452106D01*
X368118646Y-151452106D02*
X368116568Y-151451313D01*
X368116568Y-151451313D02*
X368114470Y-151450586D01*
X368114470Y-151450586D02*
X368112353Y-151449923D01*
X368112353Y-151449923D02*
X368110219Y-151449326D01*
X368110219Y-151449326D02*
X368108069Y-151448794D01*
X368108069Y-151448794D02*
X368105905Y-151448328D01*
X368105905Y-151448328D02*
X368103728Y-151447929D01*
X368103728Y-151447929D02*
X368101540Y-151447595D01*
X368101540Y-151447595D02*
X368099343Y-151447329D01*
X368099343Y-151447329D02*
X368097137Y-151447129D01*
X368097137Y-151447129D02*
X368094925Y-151446996D01*
X368094925Y-151446996D02*
X368092708Y-151446931D01*
X368092708Y-151446931D02*
X368090487Y-151446934D01*
X368090487Y-151446934D02*
X368088265Y-151447004D01*
X368088265Y-151447004D02*
X368086041Y-151447142D01*
X368086041Y-151447142D02*
X367573279Y-151343426D01*
X367573279Y-151343426D02*
X367534282Y-151333558D01*
X367534282Y-151333558D02*
X367495035Y-151324858D01*
X367495035Y-151324858D02*
X367455564Y-151317329D01*
X367455564Y-151317329D02*
X367415896Y-151310975D01*
X367415896Y-151310975D02*
X367376058Y-151305800D01*
X367376058Y-151305800D02*
X367336074Y-151301808D01*
X367336074Y-151301808D02*
X367295973Y-151299003D01*
X367295973Y-151299003D02*
X367255779Y-151297388D01*
X367255779Y-151297388D02*
X367211289Y-151298770D01*
X367211289Y-151298770D02*
X367168708Y-151302764D01*
X367168708Y-151302764D02*
X367128189Y-151309140D01*
X367128189Y-151309140D02*
X367089885Y-151317670D01*
X367089885Y-151317670D02*
X367053950Y-151328126D01*
X367053950Y-151328126D02*
X367020537Y-151340279D01*
X367020537Y-151340279D02*
X366989800Y-151353899D01*
X366989800Y-151353899D02*
X366961893Y-151368760D01*
X366961893Y-151368760D02*
X366936968Y-151384631D01*
X366936968Y-151384631D02*
X366915179Y-151401284D01*
X366915179Y-151401284D02*
X366896681Y-151418490D01*
X366896681Y-151418490D02*
X366881625Y-151436022D01*
X366881625Y-151436022D02*
X366870166Y-151453649D01*
X366870166Y-151453649D02*
X366865833Y-151462428D01*
X366865833Y-151462428D02*
X366862457Y-151471144D01*
X366862457Y-151471144D02*
X366860057Y-151479770D01*
X366860057Y-151479770D02*
X366858652Y-151488278D01*
X366858652Y-151488278D02*
X366858261Y-151496638D01*
X366858261Y-151496638D02*
X366858904Y-151504822D01*
X366858904Y-151504822D02*
X366865405Y-151514380D01*
X366865405Y-151514380D02*
X366871924Y-151523210D01*
X366871924Y-151523210D02*
X366878475Y-151531307D01*
X366878475Y-151531307D02*
X366885077Y-151538668D01*
X366885077Y-151538668D02*
X366891745Y-151545289D01*
X366891745Y-151545289D02*
X366895109Y-151548321D01*
X366895109Y-151548321D02*
X366898497Y-151551168D01*
X366898497Y-151551168D02*
X366901909Y-151553827D01*
X366901909Y-151553827D02*
X366905348Y-151556300D01*
X366905348Y-151556300D02*
X366908817Y-151558585D01*
X366908817Y-151558585D02*
X366912317Y-151560682D01*
X366912317Y-151560682D02*
X366915850Y-151562591D01*
X366915850Y-151562591D02*
X366919418Y-151564310D01*
X366919418Y-151564310D02*
X366923024Y-151565841D01*
X366923024Y-151565841D02*
X366926670Y-151567182D01*
X366926670Y-151567182D02*
X366930357Y-151568333D01*
X366930357Y-151568333D02*
X366934088Y-151569293D01*
X366934088Y-151569293D02*
X366937865Y-151570063D01*
X366937865Y-151570063D02*
X366941689Y-151570641D01*
X366941689Y-151570641D02*
X366945564Y-151571027D01*
X366945564Y-151571027D02*
X366949491Y-151571221D01*
X366949491Y-151571221D02*
X366953472Y-151571222D01*
X366953472Y-151571222D02*
X366957509Y-151571030D01*
X366957509Y-151571030D02*
X366961605Y-151570644D01*
X366961605Y-151570644D02*
X366965761Y-151570065D01*
X366965761Y-151570065D02*
X366969979Y-151569291D01*
X366969979Y-151569291D02*
X366974262Y-151568322D01*
X366974262Y-151568322D02*
X367349950Y-151597616D01*
X367349950Y-151597616D02*
X367671538Y-151625868D01*
X367671538Y-151625868D02*
X367936920Y-151654121D01*
X367936920Y-151654121D02*
X368047874Y-151668573D01*
X368047874Y-151668573D02*
X368143985Y-151683415D01*
X368143985Y-151683415D02*
X368144497Y-151684523D01*
X368144497Y-151684523D02*
X368144944Y-151685661D01*
X368144944Y-151685661D02*
X368145329Y-151686827D01*
X368145329Y-151686827D02*
X368145656Y-151688020D01*
X368145656Y-151688020D02*
X368146146Y-151690477D01*
X368146146Y-151690477D02*
X368146441Y-151693015D01*
X368146441Y-151693015D02*
X368146564Y-151695618D01*
X368146564Y-151695618D02*
X368146543Y-151698270D01*
X368146543Y-151698270D02*
X368146402Y-151700955D01*
X368146402Y-151700955D02*
X368146168Y-151703656D01*
X368146168Y-151703656D02*
X368145520Y-151709042D01*
X368145520Y-151709042D02*
X368144804Y-151714297D01*
X368144804Y-151714297D02*
X368144224Y-151719292D01*
X368144224Y-151719292D02*
X368144049Y-151721651D01*
X368144049Y-151721651D02*
X368143985Y-151723897D01*
X368143985Y-151723897D02*
X368006935Y-151833965D01*
X368006935Y-151833965D02*
X367867338Y-151940659D01*
X367867338Y-151940659D02*
X367725258Y-152043937D01*
X367725258Y-152043937D02*
X367580758Y-152143756D01*
X367580758Y-152143756D02*
X367433901Y-152240073D01*
X367433901Y-152240073D02*
X367284750Y-152332847D01*
X367284750Y-152332847D02*
X367133368Y-152422034D01*
X367133368Y-152422034D02*
X366979818Y-152507592D01*
X366979818Y-152507592D02*
X365827293Y-152904468D01*
X365827293Y-152904468D02*
X365818865Y-152907696D01*
X365818865Y-152907696D02*
X365810858Y-152910939D01*
X365810858Y-152910939D02*
X365803287Y-152914204D01*
X365803287Y-152914204D02*
X365796171Y-152917498D01*
X365796171Y-152917498D02*
X365789527Y-152920830D01*
X365789527Y-152920830D02*
X365783370Y-152924206D01*
X365783370Y-152924206D02*
X365777719Y-152927635D01*
X365777719Y-152927635D02*
X365772590Y-152931124D01*
X365772590Y-152931124D02*
X365768001Y-152934682D01*
X365768001Y-152934682D02*
X365763969Y-152938316D01*
X365763969Y-152938316D02*
X365760510Y-152942033D01*
X365760510Y-152942033D02*
X365757641Y-152945842D01*
X365757641Y-152945842D02*
X365755381Y-152949750D01*
X365755381Y-152949750D02*
X365754483Y-152951743D01*
X365754483Y-152951743D02*
X365753745Y-152953765D01*
X365753745Y-152953765D02*
X365753166Y-152955815D01*
X365753166Y-152955815D02*
X365752751Y-152957894D01*
X365752751Y-152957894D02*
X365752500Y-152960005D01*
X365752500Y-152960005D02*
X365752416Y-152962147D01*
X365752416Y-152962147D02*
X365810841Y-152982146D01*
X365810841Y-152982146D02*
X365869664Y-153000744D01*
X365869664Y-153000744D02*
X365928860Y-153017938D01*
X365928860Y-153017938D02*
X365988402Y-153033725D01*
X365988402Y-153033725D02*
X366048267Y-153048099D01*
X366048267Y-153048099D02*
X366108428Y-153061057D01*
X366108428Y-153061057D02*
X366168860Y-153072595D01*
X366168860Y-153072595D02*
X366229538Y-153082710D01*
X366229538Y-153082710D02*
X366290437Y-153091396D01*
X366290437Y-153091396D02*
X366351532Y-153098652D01*
X366351532Y-153098652D02*
X366412796Y-153104471D01*
X366412796Y-153104471D02*
X366474206Y-153108852D01*
X366474206Y-153108852D02*
X366535736Y-153111789D01*
X366535736Y-153111789D02*
X366597360Y-153113279D01*
X366597360Y-153113279D02*
X366659053Y-153113317D01*
X366659053Y-153113317D02*
X366720791Y-153111901D01*
X366720791Y-153111901D02*
X366741015Y-153107066D01*
X366741015Y-153107066D02*
X366762797Y-153100103D01*
X366762797Y-153100103D02*
X366811050Y-153079792D01*
X366811050Y-153079792D02*
X366865583Y-153050967D01*
X366865583Y-153050967D02*
X366926430Y-153013629D01*
X366926430Y-153013629D02*
X366993624Y-152967778D01*
X366993624Y-152967778D02*
X367067198Y-152913415D01*
X367067198Y-152913415D02*
X367147185Y-152850540D01*
X367147185Y-152850540D02*
X367233619Y-152779154D01*
X367233619Y-152779154D02*
X367326534Y-152699257D01*
X367326534Y-152699257D02*
X367425962Y-152610849D01*
X367425962Y-152610849D02*
X367531937Y-152513930D01*
X367531937Y-152513930D02*
X367644492Y-152408502D01*
X367644492Y-152408502D02*
X367763661Y-152294564D01*
X367763661Y-152294564D02*
X367889477Y-152172117D01*
X367889477Y-152172117D02*
X368161182Y-151901697D01*
X368161182Y-151901697D02*
X368163104Y-151936834D01*
X368163104Y-151936834D02*
X368164548Y-151977359D01*
X368164548Y-151977359D02*
X368166276Y-152074602D01*
X368166276Y-152074602D02*
X368166912Y-152193474D01*
X368166912Y-152193474D02*
X368167003Y-152334026D01*
X368167003Y-152334026D02*
X368164227Y-152367380D01*
X368164227Y-152367380D02*
X368162412Y-152400751D01*
X368162412Y-152400751D02*
X368161553Y-152434120D01*
X368161553Y-152434120D02*
X368161650Y-152467465D01*
X368161650Y-152467465D02*
X368162699Y-152500767D01*
X368162699Y-152500767D02*
X368164698Y-152534006D01*
X368164698Y-152534006D02*
X368167644Y-152567161D01*
X368167644Y-152567161D02*
X368171534Y-152600211D01*
X368171534Y-152600211D02*
X368176365Y-152633137D01*
X368176365Y-152633137D02*
X368182136Y-152665918D01*
X368182136Y-152665918D02*
X368188842Y-152698535D01*
X368188842Y-152698535D02*
X368196482Y-152730966D01*
X368196482Y-152730966D02*
X368205053Y-152763191D01*
X368205053Y-152763191D02*
X368214552Y-152795190D01*
X368214552Y-152795190D02*
X368224977Y-152826944D01*
X368224977Y-152826944D02*
X368236324Y-152858430D01*
X368236324Y-152858430D02*
X368241262Y-152860999D01*
X368241262Y-152860999D02*
X368246154Y-152863297D01*
X368246154Y-152863297D02*
X368251000Y-152865326D01*
X368251000Y-152865326D02*
X368255802Y-152867087D01*
X368255802Y-152867087D02*
X368260560Y-152868582D01*
X368260560Y-152868582D02*
X368265274Y-152869811D01*
X368265274Y-152869811D02*
X368269944Y-152870776D01*
X368269944Y-152870776D02*
X368274573Y-152871477D01*
X368274573Y-152871477D02*
X368279160Y-152871917D01*
X368279160Y-152871917D02*
X368283705Y-152872096D01*
X368283705Y-152872096D02*
X368288210Y-152872015D01*
X368288210Y-152872015D02*
X368292674Y-152871676D01*
X368292674Y-152871676D02*
X368297099Y-152871079D01*
X368297099Y-152871079D02*
X368301485Y-152870226D01*
X368301485Y-152870226D02*
X368305833Y-152869118D01*
X368305833Y-152869118D02*
X368310143Y-152867757D01*
X368310143Y-152867757D02*
X368314416Y-152866142D01*
X368314416Y-152866142D02*
X368318652Y-152864276D01*
X368318652Y-152864276D02*
X368322852Y-152862160D01*
X368322852Y-152862160D02*
X368327016Y-152859794D01*
X368327016Y-152859794D02*
X368331146Y-152857181D01*
X368331146Y-152857181D02*
X368335241Y-152854320D01*
X368335241Y-152854320D02*
X368339303Y-152851214D01*
X368339303Y-152851214D02*
X368343332Y-152847863D01*
X368343332Y-152847863D02*
X368347328Y-152844269D01*
X368347328Y-152844269D02*
X368351292Y-152840433D01*
X368351292Y-152840433D02*
X368359126Y-152832038D01*
X368359126Y-152832038D02*
X368366840Y-152822688D01*
X368366840Y-152822688D02*
X368374437Y-152812393D01*
X368374437Y-152812393D02*
X368389203Y-152778588D01*
X368389203Y-152778588D02*
X368402609Y-152744267D01*
X368402609Y-152744267D02*
X368414642Y-152709471D01*
X368414642Y-152709471D02*
X368425291Y-152674242D01*
X368425291Y-152674242D02*
X368434544Y-152638620D01*
X368434544Y-152638620D02*
X368442389Y-152602648D01*
X368442389Y-152602648D02*
X368448816Y-152566367D01*
X368448816Y-152566367D02*
X368453812Y-152529818D01*
X368453812Y-152529818D02*
X368444058Y-152462539D01*
X368444058Y-152462539D02*
X368435651Y-152395100D01*
X368435651Y-152395100D02*
X368428594Y-152327520D01*
X368428594Y-152327520D02*
X368422887Y-152259820D01*
X368422887Y-152259820D02*
X368418532Y-152192019D01*
X368418532Y-152192019D02*
X368415531Y-152124138D01*
X368415531Y-152124138D02*
X368413885Y-152056197D01*
X368413885Y-152056197D02*
X368413595Y-151988217D01*
X368413595Y-151988217D02*
X368424931Y-152001985D01*
X368424931Y-152001985D02*
X368441674Y-152021620D01*
X368441674Y-152021620D02*
X368463825Y-152047059D01*
X368463825Y-152047059D02*
X368491383Y-152078240D01*
X368491383Y-152078240D02*
X368524348Y-152115102D01*
X368524348Y-152115102D02*
X368562721Y-152157582D01*
X368562721Y-152157582D02*
X368606501Y-152205618D01*
X368606501Y-152205618D02*
X368655689Y-152259149D01*
X368655689Y-152259149D02*
X368672703Y-152274199D01*
X368672703Y-152274199D02*
X368689307Y-152289258D01*
X368689307Y-152289258D02*
X368705639Y-152304435D01*
X368705639Y-152304435D02*
X368721835Y-152319838D01*
X368721835Y-152319838D02*
X368738030Y-152335576D01*
X368738030Y-152335576D02*
X368754362Y-152351757D01*
X368754362Y-152351757D02*
X368787980Y-152385884D01*
X368787980Y-152385884D02*
X368915127Y-152507889D01*
X368915127Y-152507889D02*
X369042591Y-152620732D01*
X369042591Y-152620732D02*
X369169372Y-152724467D01*
X369169372Y-152724467D02*
X369294467Y-152819148D01*
X369294467Y-152819148D02*
X369416874Y-152904827D01*
X369416874Y-152904827D02*
X369535591Y-152981559D01*
X369535591Y-152981559D02*
X369649614Y-153049397D01*
X369649614Y-153049397D02*
X369757943Y-153108395D01*
X369757943Y-153108395D02*
X369859575Y-153158605D01*
X369859575Y-153158605D02*
X369953506Y-153200082D01*
X369953506Y-153200082D02*
X370038736Y-153232879D01*
X370038736Y-153232879D02*
X370114262Y-153257049D01*
X370114262Y-153257049D02*
X370179082Y-153272646D01*
X370179082Y-153272646D02*
X370232193Y-153279724D01*
X370232193Y-153279724D02*
X370272593Y-153278335D01*
X370272593Y-153278335D02*
X370287714Y-153274483D01*
X370287714Y-153274483D02*
X370299281Y-153268534D01*
X370299281Y-153268534D02*
X370301859Y-153267449D01*
X370301859Y-153267449D02*
X370304238Y-153266327D01*
X370304238Y-153266327D02*
X370306417Y-153265165D01*
X370306417Y-153265165D02*
X370308395Y-153263961D01*
X370308395Y-153263961D02*
X370310172Y-153262714D01*
X370310172Y-153262714D02*
X370311749Y-153261421D01*
X370311749Y-153261421D02*
X370313125Y-153260081D01*
X370313125Y-153260081D02*
X370314300Y-153258691D01*
X370314300Y-153258691D02*
X370315274Y-153257249D01*
X370315274Y-153257249D02*
X370316046Y-153255754D01*
X370316046Y-153255754D02*
X370316617Y-153254203D01*
X370316617Y-153254203D02*
X370316987Y-153252595D01*
X370316987Y-153252595D02*
X370317154Y-153250928D01*
X370317154Y-153250928D02*
X370317120Y-153249199D01*
X370317120Y-153249199D02*
X370316884Y-153247406D01*
X370316884Y-153247406D02*
X370316445Y-153245548D01*
X370316445Y-153245548D02*
X370315805Y-153243623D01*
X370315805Y-153243623D02*
X370314962Y-153241628D01*
X370314962Y-153241628D02*
X370313916Y-153239562D01*
X370313916Y-153239562D02*
X370312667Y-153237422D01*
X370312667Y-153237422D02*
X370311216Y-153235207D01*
X370311216Y-153235207D02*
X370309562Y-153232915D01*
X370309562Y-153232915D02*
X370307704Y-153230543D01*
X370307704Y-153230543D02*
X370305643Y-153228090D01*
X370305643Y-153228090D02*
X370303379Y-153225553D01*
X370303379Y-153225553D02*
X370300911Y-153222932D01*
X370300911Y-153222932D02*
X370298239Y-153220223D01*
X370298239Y-153220223D02*
X370295363Y-153217424D01*
X370295363Y-153217424D02*
X370292283Y-153214535D01*
X370292283Y-153214535D02*
X370288999Y-153211552D01*
X370288999Y-153211552D02*
X370285511Y-153208474D01*
X370285511Y-153208474D02*
X370281818Y-153205298D01*
X370281818Y-153205298D02*
X370159437Y-153138637D01*
X370159437Y-153138637D02*
X370039232Y-153068540D01*
X370039232Y-153068540D02*
X369921271Y-152995065D01*
X369921271Y-152995065D02*
X369805618Y-152918270D01*
X369805618Y-152918270D02*
X369692341Y-152838213D01*
X369692341Y-152838213D02*
X369581507Y-152754951D01*
X369581507Y-152754951D02*
X369473181Y-152668542D01*
X369473181Y-152668542D02*
X369367429Y-152579045D01*
X369367429Y-152579045D02*
X369264320Y-152486517D01*
X369264320Y-152486517D02*
X369163918Y-152391017D01*
X369163918Y-152391017D02*
X369066290Y-152292601D01*
X369066290Y-152292601D02*
X368971502Y-152191328D01*
X368971502Y-152191328D02*
X368879622Y-152087256D01*
X368879622Y-152087256D02*
X368790715Y-151980442D01*
X368790715Y-151980442D02*
X368704848Y-151870945D01*
X368704848Y-151870945D02*
X368622088Y-151758822D01*
X368622088Y-151758822D02*
X368917494Y-151796988D01*
X368917494Y-151796988D02*
X368986943Y-151806359D01*
X368986943Y-151806359D02*
X369054879Y-151816344D01*
X369054879Y-151816344D02*
X369121426Y-151827284D01*
X369121426Y-151827284D02*
X369186708Y-151839520D01*
X369186708Y-151839520D02*
X369201038Y-151841752D01*
X369201038Y-151841752D02*
X369215399Y-151843753D01*
X369215399Y-151843753D02*
X369229789Y-151845523D01*
X369229789Y-151845523D02*
X369244204Y-151847062D01*
X369244204Y-151847062D02*
X369258642Y-151848368D01*
X369258642Y-151848368D02*
X369273100Y-151849443D01*
X369273100Y-151849443D02*
X369287576Y-151850286D01*
X369287576Y-151850286D02*
X369302066Y-151850897D01*
X369302066Y-151850897D02*
X369330068Y-151851494D01*
X369330068Y-151851494D02*
X369357825Y-151850238D01*
X369357825Y-151850238D02*
X369385259Y-151847170D01*
X369385259Y-151847170D02*
X369412290Y-151842330D01*
X369412290Y-151842330D02*
X369438839Y-151835759D01*
X369438839Y-151835759D02*
X369464828Y-151827495D01*
X369464828Y-151827495D02*
X369490176Y-151817580D01*
X369490176Y-151817580D02*
X369514805Y-151806054D01*
X369514805Y-151806054D02*
X369538636Y-151792957D01*
X369538636Y-151792957D02*
X369561589Y-151778328D01*
X369561589Y-151778328D02*
X369583585Y-151762209D01*
X369583585Y-151762209D02*
X369604546Y-151744640D01*
X369604546Y-151744640D02*
X369624393Y-151725660D01*
X369624393Y-151725660D02*
X369643045Y-151705310D01*
X369643045Y-151705310D02*
X369660424Y-151683631D01*
X369660424Y-151683631D02*
X369676452Y-151660661D01*
X369676452Y-151660661D02*
X369676716Y-151660926D01*
X369676716Y-151660926D02*
X369676716Y-151660926D01*
G36*
X368432878Y-150749939D02*
G01*
X368437001Y-150750099D01*
X368441112Y-150750388D01*
X368445210Y-150750805D01*
X368449290Y-150751349D01*
X368453351Y-150752019D01*
X368457389Y-150752815D01*
X368461402Y-150753737D01*
X368465385Y-150754784D01*
X368469337Y-150755955D01*
X368473254Y-150757249D01*
X368477134Y-150758668D01*
X368480973Y-150760208D01*
X368484768Y-150761872D01*
X368493064Y-150765237D01*
X368500680Y-150768900D01*
X368507609Y-150772887D01*
X368510812Y-150775009D01*
X368513839Y-150777222D01*
X368516690Y-150779528D01*
X368519363Y-150781930D01*
X368521857Y-150784432D01*
X368524170Y-150787038D01*
X368526303Y-150789749D01*
X368528252Y-150792569D01*
X368530018Y-150795501D01*
X368531599Y-150798549D01*
X368532995Y-150801716D01*
X368534202Y-150805004D01*
X368535222Y-150808418D01*
X368536052Y-150811959D01*
X368536691Y-150815631D01*
X368537139Y-150819438D01*
X368537393Y-150823383D01*
X368537453Y-150827468D01*
X368537318Y-150831696D01*
X368536987Y-150836072D01*
X368536458Y-150840598D01*
X368535729Y-150845277D01*
X368533672Y-150855107D01*
X368530806Y-150865588D01*
X368513910Y-150903291D01*
X368498264Y-150941448D01*
X368483873Y-150980028D01*
X368470743Y-151019000D01*
X368458880Y-151058332D01*
X368448288Y-151097994D01*
X368438974Y-151137954D01*
X368430944Y-151178182D01*
X368424203Y-151218645D01*
X368418757Y-151259313D01*
X368414612Y-151300155D01*
X368411773Y-151341139D01*
X368410246Y-151382235D01*
X368410037Y-151423411D01*
X368411152Y-151464637D01*
X368413596Y-151505880D01*
X368459633Y-151511701D01*
X368512550Y-151517522D01*
X368613885Y-151522549D01*
X368723422Y-151533926D01*
X368832960Y-151545567D01*
X368936677Y-151551388D01*
X369040393Y-151556944D01*
X369146227Y-151568586D01*
X369192264Y-151568586D01*
X369245181Y-151574407D01*
X369290954Y-151580228D01*
X369331435Y-151580228D01*
X369377472Y-151585784D01*
X369417424Y-151591076D01*
X369451820Y-151596897D01*
X369492302Y-151596897D01*
X369521141Y-151603247D01*
X369555537Y-151609067D01*
X369578556Y-151614624D01*
X369607395Y-151620444D01*
X369624858Y-151626265D01*
X369642056Y-151632086D01*
X369659254Y-151638436D01*
X369665074Y-151643992D01*
X369670895Y-151649813D01*
X369676716Y-151649813D01*
X369676716Y-151660926D01*
X369676452Y-151660661D01*
X369660424Y-151683631D01*
X369643045Y-151705310D01*
X369624393Y-151725660D01*
X369604546Y-151744640D01*
X369583585Y-151762209D01*
X369561589Y-151778328D01*
X369538636Y-151792957D01*
X369514805Y-151806054D01*
X369490176Y-151817580D01*
X369464828Y-151827495D01*
X369438839Y-151835759D01*
X369412290Y-151842330D01*
X369385259Y-151847170D01*
X369357825Y-151850238D01*
X369330068Y-151851494D01*
X369302066Y-151850897D01*
X369287576Y-151850286D01*
X369273100Y-151849443D01*
X369258642Y-151848368D01*
X369244204Y-151847062D01*
X369229789Y-151845523D01*
X369215399Y-151843753D01*
X369201038Y-151841752D01*
X369186708Y-151839520D01*
X369121426Y-151827284D01*
X369054879Y-151816344D01*
X368986943Y-151806359D01*
X368917494Y-151796988D01*
X368622088Y-151758822D01*
X368704848Y-151870945D01*
X368790715Y-151980442D01*
X368879622Y-152087256D01*
X368971502Y-152191328D01*
X369066290Y-152292601D01*
X369163918Y-152391017D01*
X369264320Y-152486517D01*
X369367429Y-152579045D01*
X369473181Y-152668542D01*
X369581507Y-152754951D01*
X369692341Y-152838213D01*
X369805618Y-152918270D01*
X369921271Y-152995065D01*
X370039232Y-153068540D01*
X370159437Y-153138637D01*
X370281818Y-153205298D01*
X370285511Y-153208474D01*
X370288999Y-153211552D01*
X370292283Y-153214535D01*
X370295363Y-153217424D01*
X370298239Y-153220223D01*
X370300911Y-153222932D01*
X370303379Y-153225553D01*
X370305643Y-153228090D01*
X370307704Y-153230543D01*
X370309562Y-153232915D01*
X370311216Y-153235207D01*
X370312667Y-153237422D01*
X370313916Y-153239562D01*
X370314962Y-153241628D01*
X370315805Y-153243623D01*
X370316445Y-153245548D01*
X370316884Y-153247406D01*
X370317120Y-153249199D01*
X370317154Y-153250928D01*
X370316987Y-153252595D01*
X370316617Y-153254203D01*
X370316046Y-153255754D01*
X370315274Y-153257249D01*
X370314300Y-153258691D01*
X370313125Y-153260081D01*
X370311749Y-153261421D01*
X370310172Y-153262714D01*
X370308395Y-153263961D01*
X370306417Y-153265165D01*
X370304238Y-153266327D01*
X370301859Y-153267449D01*
X370299281Y-153268534D01*
X370287714Y-153274483D01*
X370272593Y-153278335D01*
X370232193Y-153279724D01*
X370179082Y-153272646D01*
X370114262Y-153257049D01*
X370038736Y-153232879D01*
X369953506Y-153200082D01*
X369859575Y-153158605D01*
X369757943Y-153108395D01*
X369649614Y-153049397D01*
X369535591Y-152981559D01*
X369416874Y-152904827D01*
X369294467Y-152819148D01*
X369169372Y-152724467D01*
X369042591Y-152620732D01*
X368915127Y-152507889D01*
X368787980Y-152385884D01*
X368754362Y-152351757D01*
X368738030Y-152335576D01*
X368721835Y-152319838D01*
X368705639Y-152304435D01*
X368689307Y-152289258D01*
X368672703Y-152274199D01*
X368655689Y-152259149D01*
X368606501Y-152205618D01*
X368562721Y-152157582D01*
X368524348Y-152115102D01*
X368491383Y-152078240D01*
X368463825Y-152047059D01*
X368441674Y-152021620D01*
X368424931Y-152001985D01*
X368413595Y-151988217D01*
X368413885Y-152056197D01*
X368415531Y-152124138D01*
X368418532Y-152192019D01*
X368422887Y-152259820D01*
X368428594Y-152327520D01*
X368435651Y-152395100D01*
X368444058Y-152462539D01*
X368453812Y-152529818D01*
X368448816Y-152566367D01*
X368442389Y-152602648D01*
X368434544Y-152638620D01*
X368425291Y-152674242D01*
X368414642Y-152709471D01*
X368402609Y-152744267D01*
X368389203Y-152778588D01*
X368374437Y-152812393D01*
X368366840Y-152822688D01*
X368359126Y-152832038D01*
X368351292Y-152840433D01*
X368347328Y-152844269D01*
X368343332Y-152847863D01*
X368339303Y-152851214D01*
X368335241Y-152854320D01*
X368331146Y-152857181D01*
X368327016Y-152859794D01*
X368322852Y-152862160D01*
X368318652Y-152864276D01*
X368314416Y-152866142D01*
X368310143Y-152867757D01*
X368305833Y-152869118D01*
X368301485Y-152870226D01*
X368297099Y-152871079D01*
X368292674Y-152871676D01*
X368288210Y-152872015D01*
X368283705Y-152872096D01*
X368279160Y-152871917D01*
X368274573Y-152871477D01*
X368269944Y-152870776D01*
X368265274Y-152869811D01*
X368260560Y-152868582D01*
X368255802Y-152867087D01*
X368251000Y-152865326D01*
X368246154Y-152863297D01*
X368241262Y-152860999D01*
X368236324Y-152858430D01*
X368224977Y-152826944D01*
X368214552Y-152795190D01*
X368205053Y-152763191D01*
X368196482Y-152730966D01*
X368188842Y-152698535D01*
X368182136Y-152665918D01*
X368176365Y-152633137D01*
X368171534Y-152600211D01*
X368167644Y-152567161D01*
X368164698Y-152534006D01*
X368162699Y-152500767D01*
X368161650Y-152467465D01*
X368161553Y-152434120D01*
X368162412Y-152400751D01*
X368164227Y-152367380D01*
X368167003Y-152334026D01*
X368166912Y-152193474D01*
X368166276Y-152074602D01*
X368164548Y-151977359D01*
X368163104Y-151936834D01*
X368161182Y-151901697D01*
X367889477Y-152172117D01*
X367763661Y-152294564D01*
X367644492Y-152408502D01*
X367531937Y-152513930D01*
X367425962Y-152610849D01*
X367326534Y-152699257D01*
X367233619Y-152779154D01*
X367147185Y-152850540D01*
X367067198Y-152913415D01*
X366993624Y-152967778D01*
X366926430Y-153013629D01*
X366865583Y-153050967D01*
X366811050Y-153079792D01*
X366762797Y-153100103D01*
X366741015Y-153107066D01*
X366720791Y-153111901D01*
X366659053Y-153113317D01*
X366597360Y-153113279D01*
X366535736Y-153111789D01*
X366474206Y-153108852D01*
X366412796Y-153104471D01*
X366351532Y-153098652D01*
X366290437Y-153091396D01*
X366229538Y-153082710D01*
X366168860Y-153072595D01*
X366108428Y-153061057D01*
X366048267Y-153048099D01*
X365988402Y-153033725D01*
X365928860Y-153017938D01*
X365869664Y-153000744D01*
X365810841Y-152982146D01*
X365752416Y-152962147D01*
X365752500Y-152960005D01*
X365752751Y-152957894D01*
X365753166Y-152955815D01*
X365753745Y-152953765D01*
X365754483Y-152951743D01*
X365755381Y-152949750D01*
X365757641Y-152945842D01*
X365760510Y-152942033D01*
X365763969Y-152938316D01*
X365768001Y-152934682D01*
X365772590Y-152931124D01*
X365777719Y-152927635D01*
X365783370Y-152924206D01*
X365789527Y-152920830D01*
X365796171Y-152917498D01*
X365803287Y-152914204D01*
X365810858Y-152910939D01*
X365818865Y-152907696D01*
X365827293Y-152904468D01*
X366979818Y-152507592D01*
X367133368Y-152422034D01*
X367284750Y-152332847D01*
X367433901Y-152240073D01*
X367580758Y-152143756D01*
X367725258Y-152043937D01*
X367867338Y-151940659D01*
X368006935Y-151833965D01*
X368143985Y-151723897D01*
X368144049Y-151721651D01*
X368144224Y-151719292D01*
X368144804Y-151714297D01*
X368145520Y-151709042D01*
X368146168Y-151703656D01*
X368146402Y-151700955D01*
X368146543Y-151698270D01*
X368146564Y-151695618D01*
X368146441Y-151693015D01*
X368146146Y-151690477D01*
X368145656Y-151688020D01*
X368145329Y-151686827D01*
X368144944Y-151685661D01*
X368144497Y-151684523D01*
X368143985Y-151683415D01*
X368047874Y-151668573D01*
X367936920Y-151654121D01*
X367671538Y-151625868D01*
X367349950Y-151597616D01*
X366974262Y-151568322D01*
X366969979Y-151569291D01*
X366965761Y-151570065D01*
X366961605Y-151570644D01*
X366957509Y-151571030D01*
X366953472Y-151571222D01*
X366949491Y-151571221D01*
X366945564Y-151571027D01*
X366941689Y-151570641D01*
X366937865Y-151570063D01*
X366934088Y-151569293D01*
X366930357Y-151568333D01*
X366926670Y-151567182D01*
X366923024Y-151565841D01*
X366919418Y-151564310D01*
X366915850Y-151562591D01*
X366912317Y-151560682D01*
X366908817Y-151558585D01*
X366905348Y-151556300D01*
X366901909Y-151553827D01*
X366898497Y-151551168D01*
X366895109Y-151548321D01*
X366891745Y-151545289D01*
X366885077Y-151538668D01*
X366878475Y-151531307D01*
X366871924Y-151523210D01*
X366865405Y-151514380D01*
X366858904Y-151504822D01*
X366858261Y-151496638D01*
X366858652Y-151488278D01*
X366860057Y-151479770D01*
X366862457Y-151471144D01*
X366865833Y-151462428D01*
X366870166Y-151453649D01*
X366881625Y-151436022D01*
X366896681Y-151418490D01*
X366915179Y-151401284D01*
X366936968Y-151384631D01*
X366961893Y-151368760D01*
X366989800Y-151353899D01*
X367020537Y-151340279D01*
X367053950Y-151328126D01*
X367089885Y-151317670D01*
X367128189Y-151309140D01*
X367168708Y-151302764D01*
X367211289Y-151298770D01*
X367255779Y-151297388D01*
X367295973Y-151299003D01*
X367336074Y-151301808D01*
X367376058Y-151305800D01*
X367415896Y-151310975D01*
X367455564Y-151317329D01*
X367495035Y-151324858D01*
X367534282Y-151333558D01*
X367573279Y-151343426D01*
X368086041Y-151447142D01*
X368088265Y-151447004D01*
X368090487Y-151446934D01*
X368092708Y-151446931D01*
X368094925Y-151446996D01*
X368097137Y-151447129D01*
X368099343Y-151447329D01*
X368101540Y-151447595D01*
X368103728Y-151447929D01*
X368105905Y-151448328D01*
X368108069Y-151448794D01*
X368110219Y-151449326D01*
X368112353Y-151449923D01*
X368114470Y-151450586D01*
X368116568Y-151451313D01*
X368118646Y-151452106D01*
X368120702Y-151452963D01*
X368112739Y-151403680D01*
X368102899Y-151354793D01*
X368091198Y-151306356D01*
X368077653Y-151258421D01*
X368062279Y-151211041D01*
X368045092Y-151164268D01*
X368026108Y-151118156D01*
X368005343Y-151072757D01*
X368002758Y-151068970D01*
X368000409Y-151065150D01*
X367998294Y-151061297D01*
X367996414Y-151057414D01*
X367994766Y-151053501D01*
X367993350Y-151049560D01*
X367992165Y-151045590D01*
X367991209Y-151041594D01*
X367990481Y-151037572D01*
X367989980Y-151033526D01*
X367989705Y-151029457D01*
X367989656Y-151025365D01*
X367989830Y-151021251D01*
X367990227Y-151017118D01*
X367990845Y-151012965D01*
X367991684Y-151008794D01*
X367992742Y-151004606D01*
X367994019Y-151000402D01*
X367995512Y-150996183D01*
X367997222Y-150991951D01*
X367999147Y-150987705D01*
X368001285Y-150983448D01*
X368006199Y-150974903D01*
X368011954Y-150966323D01*
X368018543Y-150957718D01*
X368025955Y-150949096D01*
X368034182Y-150940465D01*
X368050134Y-150927627D01*
X368066341Y-150915140D01*
X368082798Y-150903007D01*
X368099499Y-150891232D01*
X368116437Y-150879818D01*
X368133608Y-150868768D01*
X368151005Y-150858086D01*
X368168621Y-150847776D01*
X368186452Y-150837841D01*
X368204490Y-150828283D01*
X368222731Y-150819107D01*
X368241168Y-150810316D01*
X368259795Y-150801913D01*
X368278606Y-150793902D01*
X368297596Y-150786287D01*
X368316758Y-150779070D01*
X368322587Y-150775416D01*
X368328538Y-150771999D01*
X368334603Y-150768822D01*
X368340774Y-150765887D01*
X368347044Y-150763195D01*
X368353406Y-150760748D01*
X368359853Y-150758549D01*
X368366377Y-150756599D01*
X368372972Y-150754901D01*
X368379628Y-150753457D01*
X368386341Y-150752268D01*
X368393101Y-150751337D01*
X368399901Y-150750665D01*
X368406736Y-150750256D01*
X368413596Y-150750110D01*
X368420474Y-150750230D01*
X368424612Y-150750003D01*
X368428748Y-150749906D01*
X368432878Y-150749939D01*
G37*
X368432878Y-150749939D02*
X368437001Y-150750099D01*
X368441112Y-150750388D01*
X368445210Y-150750805D01*
X368449290Y-150751349D01*
X368453351Y-150752019D01*
X368457389Y-150752815D01*
X368461402Y-150753737D01*
X368465385Y-150754784D01*
X368469337Y-150755955D01*
X368473254Y-150757249D01*
X368477134Y-150758668D01*
X368480973Y-150760208D01*
X368484768Y-150761872D01*
X368493064Y-150765237D01*
X368500680Y-150768900D01*
X368507609Y-150772887D01*
X368510812Y-150775009D01*
X368513839Y-150777222D01*
X368516690Y-150779528D01*
X368519363Y-150781930D01*
X368521857Y-150784432D01*
X368524170Y-150787038D01*
X368526303Y-150789749D01*
X368528252Y-150792569D01*
X368530018Y-150795501D01*
X368531599Y-150798549D01*
X368532995Y-150801716D01*
X368534202Y-150805004D01*
X368535222Y-150808418D01*
X368536052Y-150811959D01*
X368536691Y-150815631D01*
X368537139Y-150819438D01*
X368537393Y-150823383D01*
X368537453Y-150827468D01*
X368537318Y-150831696D01*
X368536987Y-150836072D01*
X368536458Y-150840598D01*
X368535729Y-150845277D01*
X368533672Y-150855107D01*
X368530806Y-150865588D01*
X368513910Y-150903291D01*
X368498264Y-150941448D01*
X368483873Y-150980028D01*
X368470743Y-151019000D01*
X368458880Y-151058332D01*
X368448288Y-151097994D01*
X368438974Y-151137954D01*
X368430944Y-151178182D01*
X368424203Y-151218645D01*
X368418757Y-151259313D01*
X368414612Y-151300155D01*
X368411773Y-151341139D01*
X368410246Y-151382235D01*
X368410037Y-151423411D01*
X368411152Y-151464637D01*
X368413596Y-151505880D01*
X368459633Y-151511701D01*
X368512550Y-151517522D01*
X368613885Y-151522549D01*
X368723422Y-151533926D01*
X368832960Y-151545567D01*
X368936677Y-151551388D01*
X369040393Y-151556944D01*
X369146227Y-151568586D01*
X369192264Y-151568586D01*
X369245181Y-151574407D01*
X369290954Y-151580228D01*
X369331435Y-151580228D01*
X369377472Y-151585784D01*
X369417424Y-151591076D01*
X369451820Y-151596897D01*
X369492302Y-151596897D01*
X369521141Y-151603247D01*
X369555537Y-151609067D01*
X369578556Y-151614624D01*
X369607395Y-151620444D01*
X369624858Y-151626265D01*
X369642056Y-151632086D01*
X369659254Y-151638436D01*
X369665074Y-151643992D01*
X369670895Y-151649813D01*
X369676716Y-151649813D01*
X369676716Y-151660926D01*
X369676452Y-151660661D01*
X369660424Y-151683631D01*
X369643045Y-151705310D01*
X369624393Y-151725660D01*
X369604546Y-151744640D01*
X369583585Y-151762209D01*
X369561589Y-151778328D01*
X369538636Y-151792957D01*
X369514805Y-151806054D01*
X369490176Y-151817580D01*
X369464828Y-151827495D01*
X369438839Y-151835759D01*
X369412290Y-151842330D01*
X369385259Y-151847170D01*
X369357825Y-151850238D01*
X369330068Y-151851494D01*
X369302066Y-151850897D01*
X369287576Y-151850286D01*
X369273100Y-151849443D01*
X369258642Y-151848368D01*
X369244204Y-151847062D01*
X369229789Y-151845523D01*
X369215399Y-151843753D01*
X369201038Y-151841752D01*
X369186708Y-151839520D01*
X369121426Y-151827284D01*
X369054879Y-151816344D01*
X368986943Y-151806359D01*
X368917494Y-151796988D01*
X368622088Y-151758822D01*
X368704848Y-151870945D01*
X368790715Y-151980442D01*
X368879622Y-152087256D01*
X368971502Y-152191328D01*
X369066290Y-152292601D01*
X369163918Y-152391017D01*
X369264320Y-152486517D01*
X369367429Y-152579045D01*
X369473181Y-152668542D01*
X369581507Y-152754951D01*
X369692341Y-152838213D01*
X369805618Y-152918270D01*
X369921271Y-152995065D01*
X370039232Y-153068540D01*
X370159437Y-153138637D01*
X370281818Y-153205298D01*
X370285511Y-153208474D01*
X370288999Y-153211552D01*
X370292283Y-153214535D01*
X370295363Y-153217424D01*
X370298239Y-153220223D01*
X370300911Y-153222932D01*
X370303379Y-153225553D01*
X370305643Y-153228090D01*
X370307704Y-153230543D01*
X370309562Y-153232915D01*
X370311216Y-153235207D01*
X370312667Y-153237422D01*
X370313916Y-153239562D01*
X370314962Y-153241628D01*
X370315805Y-153243623D01*
X370316445Y-153245548D01*
X370316884Y-153247406D01*
X370317120Y-153249199D01*
X370317154Y-153250928D01*
X370316987Y-153252595D01*
X370316617Y-153254203D01*
X370316046Y-153255754D01*
X370315274Y-153257249D01*
X370314300Y-153258691D01*
X370313125Y-153260081D01*
X370311749Y-153261421D01*
X370310172Y-153262714D01*
X370308395Y-153263961D01*
X370306417Y-153265165D01*
X370304238Y-153266327D01*
X370301859Y-153267449D01*
X370299281Y-153268534D01*
X370287714Y-153274483D01*
X370272593Y-153278335D01*
X370232193Y-153279724D01*
X370179082Y-153272646D01*
X370114262Y-153257049D01*
X370038736Y-153232879D01*
X369953506Y-153200082D01*
X369859575Y-153158605D01*
X369757943Y-153108395D01*
X369649614Y-153049397D01*
X369535591Y-152981559D01*
X369416874Y-152904827D01*
X369294467Y-152819148D01*
X369169372Y-152724467D01*
X369042591Y-152620732D01*
X368915127Y-152507889D01*
X368787980Y-152385884D01*
X368754362Y-152351757D01*
X368738030Y-152335576D01*
X368721835Y-152319838D01*
X368705639Y-152304435D01*
X368689307Y-152289258D01*
X368672703Y-152274199D01*
X368655689Y-152259149D01*
X368606501Y-152205618D01*
X368562721Y-152157582D01*
X368524348Y-152115102D01*
X368491383Y-152078240D01*
X368463825Y-152047059D01*
X368441674Y-152021620D01*
X368424931Y-152001985D01*
X368413595Y-151988217D01*
X368413885Y-152056197D01*
X368415531Y-152124138D01*
X368418532Y-152192019D01*
X368422887Y-152259820D01*
X368428594Y-152327520D01*
X368435651Y-152395100D01*
X368444058Y-152462539D01*
X368453812Y-152529818D01*
X368448816Y-152566367D01*
X368442389Y-152602648D01*
X368434544Y-152638620D01*
X368425291Y-152674242D01*
X368414642Y-152709471D01*
X368402609Y-152744267D01*
X368389203Y-152778588D01*
X368374437Y-152812393D01*
X368366840Y-152822688D01*
X368359126Y-152832038D01*
X368351292Y-152840433D01*
X368347328Y-152844269D01*
X368343332Y-152847863D01*
X368339303Y-152851214D01*
X368335241Y-152854320D01*
X368331146Y-152857181D01*
X368327016Y-152859794D01*
X368322852Y-152862160D01*
X368318652Y-152864276D01*
X368314416Y-152866142D01*
X368310143Y-152867757D01*
X368305833Y-152869118D01*
X368301485Y-152870226D01*
X368297099Y-152871079D01*
X368292674Y-152871676D01*
X368288210Y-152872015D01*
X368283705Y-152872096D01*
X368279160Y-152871917D01*
X368274573Y-152871477D01*
X368269944Y-152870776D01*
X368265274Y-152869811D01*
X368260560Y-152868582D01*
X368255802Y-152867087D01*
X368251000Y-152865326D01*
X368246154Y-152863297D01*
X368241262Y-152860999D01*
X368236324Y-152858430D01*
X368224977Y-152826944D01*
X368214552Y-152795190D01*
X368205053Y-152763191D01*
X368196482Y-152730966D01*
X368188842Y-152698535D01*
X368182136Y-152665918D01*
X368176365Y-152633137D01*
X368171534Y-152600211D01*
X368167644Y-152567161D01*
X368164698Y-152534006D01*
X368162699Y-152500767D01*
X368161650Y-152467465D01*
X368161553Y-152434120D01*
X368162412Y-152400751D01*
X368164227Y-152367380D01*
X368167003Y-152334026D01*
X368166912Y-152193474D01*
X368166276Y-152074602D01*
X368164548Y-151977359D01*
X368163104Y-151936834D01*
X368161182Y-151901697D01*
X367889477Y-152172117D01*
X367763661Y-152294564D01*
X367644492Y-152408502D01*
X367531937Y-152513930D01*
X367425962Y-152610849D01*
X367326534Y-152699257D01*
X367233619Y-152779154D01*
X367147185Y-152850540D01*
X367067198Y-152913415D01*
X366993624Y-152967778D01*
X366926430Y-153013629D01*
X366865583Y-153050967D01*
X366811050Y-153079792D01*
X366762797Y-153100103D01*
X366741015Y-153107066D01*
X366720791Y-153111901D01*
X366659053Y-153113317D01*
X366597360Y-153113279D01*
X366535736Y-153111789D01*
X366474206Y-153108852D01*
X366412796Y-153104471D01*
X366351532Y-153098652D01*
X366290437Y-153091396D01*
X366229538Y-153082710D01*
X366168860Y-153072595D01*
X366108428Y-153061057D01*
X366048267Y-153048099D01*
X365988402Y-153033725D01*
X365928860Y-153017938D01*
X365869664Y-153000744D01*
X365810841Y-152982146D01*
X365752416Y-152962147D01*
X365752500Y-152960005D01*
X365752751Y-152957894D01*
X365753166Y-152955815D01*
X365753745Y-152953765D01*
X365754483Y-152951743D01*
X365755381Y-152949750D01*
X365757641Y-152945842D01*
X365760510Y-152942033D01*
X365763969Y-152938316D01*
X365768001Y-152934682D01*
X365772590Y-152931124D01*
X365777719Y-152927635D01*
X365783370Y-152924206D01*
X365789527Y-152920830D01*
X365796171Y-152917498D01*
X365803287Y-152914204D01*
X365810858Y-152910939D01*
X365818865Y-152907696D01*
X365827293Y-152904468D01*
X366979818Y-152507592D01*
X367133368Y-152422034D01*
X367284750Y-152332847D01*
X367433901Y-152240073D01*
X367580758Y-152143756D01*
X367725258Y-152043937D01*
X367867338Y-151940659D01*
X368006935Y-151833965D01*
X368143985Y-151723897D01*
X368144049Y-151721651D01*
X368144224Y-151719292D01*
X368144804Y-151714297D01*
X368145520Y-151709042D01*
X368146168Y-151703656D01*
X368146402Y-151700955D01*
X368146543Y-151698270D01*
X368146564Y-151695618D01*
X368146441Y-151693015D01*
X368146146Y-151690477D01*
X368145656Y-151688020D01*
X368145329Y-151686827D01*
X368144944Y-151685661D01*
X368144497Y-151684523D01*
X368143985Y-151683415D01*
X368047874Y-151668573D01*
X367936920Y-151654121D01*
X367671538Y-151625868D01*
X367349950Y-151597616D01*
X366974262Y-151568322D01*
X366969979Y-151569291D01*
X366965761Y-151570065D01*
X366961605Y-151570644D01*
X366957509Y-151571030D01*
X366953472Y-151571222D01*
X366949491Y-151571221D01*
X366945564Y-151571027D01*
X366941689Y-151570641D01*
X366937865Y-151570063D01*
X366934088Y-151569293D01*
X366930357Y-151568333D01*
X366926670Y-151567182D01*
X366923024Y-151565841D01*
X366919418Y-151564310D01*
X366915850Y-151562591D01*
X366912317Y-151560682D01*
X366908817Y-151558585D01*
X366905348Y-151556300D01*
X366901909Y-151553827D01*
X366898497Y-151551168D01*
X366895109Y-151548321D01*
X366891745Y-151545289D01*
X366885077Y-151538668D01*
X366878475Y-151531307D01*
X366871924Y-151523210D01*
X366865405Y-151514380D01*
X366858904Y-151504822D01*
X366858261Y-151496638D01*
X366858652Y-151488278D01*
X366860057Y-151479770D01*
X366862457Y-151471144D01*
X366865833Y-151462428D01*
X366870166Y-151453649D01*
X366881625Y-151436022D01*
X366896681Y-151418490D01*
X366915179Y-151401284D01*
X366936968Y-151384631D01*
X366961893Y-151368760D01*
X366989800Y-151353899D01*
X367020537Y-151340279D01*
X367053950Y-151328126D01*
X367089885Y-151317670D01*
X367128189Y-151309140D01*
X367168708Y-151302764D01*
X367211289Y-151298770D01*
X367255779Y-151297388D01*
X367295973Y-151299003D01*
X367336074Y-151301808D01*
X367376058Y-151305800D01*
X367415896Y-151310975D01*
X367455564Y-151317329D01*
X367495035Y-151324858D01*
X367534282Y-151333558D01*
X367573279Y-151343426D01*
X368086041Y-151447142D01*
X368088265Y-151447004D01*
X368090487Y-151446934D01*
X368092708Y-151446931D01*
X368094925Y-151446996D01*
X368097137Y-151447129D01*
X368099343Y-151447329D01*
X368101540Y-151447595D01*
X368103728Y-151447929D01*
X368105905Y-151448328D01*
X368108069Y-151448794D01*
X368110219Y-151449326D01*
X368112353Y-151449923D01*
X368114470Y-151450586D01*
X368116568Y-151451313D01*
X368118646Y-151452106D01*
X368120702Y-151452963D01*
X368112739Y-151403680D01*
X368102899Y-151354793D01*
X368091198Y-151306356D01*
X368077653Y-151258421D01*
X368062279Y-151211041D01*
X368045092Y-151164268D01*
X368026108Y-151118156D01*
X368005343Y-151072757D01*
X368002758Y-151068970D01*
X368000409Y-151065150D01*
X367998294Y-151061297D01*
X367996414Y-151057414D01*
X367994766Y-151053501D01*
X367993350Y-151049560D01*
X367992165Y-151045590D01*
X367991209Y-151041594D01*
X367990481Y-151037572D01*
X367989980Y-151033526D01*
X367989705Y-151029457D01*
X367989656Y-151025365D01*
X367989830Y-151021251D01*
X367990227Y-151017118D01*
X367990845Y-151012965D01*
X367991684Y-151008794D01*
X367992742Y-151004606D01*
X367994019Y-151000402D01*
X367995512Y-150996183D01*
X367997222Y-150991951D01*
X367999147Y-150987705D01*
X368001285Y-150983448D01*
X368006199Y-150974903D01*
X368011954Y-150966323D01*
X368018543Y-150957718D01*
X368025955Y-150949096D01*
X368034182Y-150940465D01*
X368050134Y-150927627D01*
X368066341Y-150915140D01*
X368082798Y-150903007D01*
X368099499Y-150891232D01*
X368116437Y-150879818D01*
X368133608Y-150868768D01*
X368151005Y-150858086D01*
X368168621Y-150847776D01*
X368186452Y-150837841D01*
X368204490Y-150828283D01*
X368222731Y-150819107D01*
X368241168Y-150810316D01*
X368259795Y-150801913D01*
X368278606Y-150793902D01*
X368297596Y-150786287D01*
X368316758Y-150779070D01*
X368322587Y-150775416D01*
X368328538Y-150771999D01*
X368334603Y-150768822D01*
X368340774Y-150765887D01*
X368347044Y-150763195D01*
X368353406Y-150760748D01*
X368359853Y-150758549D01*
X368366377Y-150756599D01*
X368372972Y-150754901D01*
X368379628Y-150753457D01*
X368386341Y-150752268D01*
X368393101Y-150751337D01*
X368399901Y-150750665D01*
X368406736Y-150750256D01*
X368413596Y-150750110D01*
X368420474Y-150750230D01*
X368424612Y-150750003D01*
X368428748Y-150749906D01*
X368432878Y-150749939D01*
D12*
%TO.C,MX33*%
X51852501Y-126682501D03*
D13*
X40957501Y-131762501D03*
X51117501Y-131762501D03*
D12*
X38952501Y-129222501D03*
D14*
X46037501Y-131762501D03*
%TD*%
D13*
%TO.C,MX59*%
X251142501Y-150812501D03*
D14*
X246062501Y-150812501D03*
D12*
X238977501Y-148272501D03*
D13*
X240982501Y-150812501D03*
D12*
X251877501Y-145732501D03*
%TD*%
D13*
%TO.C,MX81*%
X250507501Y-188912501D03*
D14*
X255587501Y-188912501D03*
D13*
X260667501Y-188912501D03*
D12*
X261402501Y-183832501D03*
X248502501Y-186372501D03*
%TD*%
D13*
%TO.C,MX68*%
X146367501Y-169862501D03*
D12*
X147102501Y-164782501D03*
D13*
X136207501Y-169862501D03*
D12*
X134202501Y-167322501D03*
D14*
X141287501Y-169862501D03*
%TD*%
D13*
%TO.C,MX31*%
X336867501Y-112712501D03*
D14*
X331787501Y-112712501D03*
D12*
X324702501Y-110172501D03*
X337602501Y-107632501D03*
D13*
X326707501Y-112712501D03*
%TD*%
%TO.C,MX71*%
X193357501Y-169862501D03*
D14*
X198437501Y-169862501D03*
D13*
X203517501Y-169862501D03*
D12*
X204252501Y-164782501D03*
X191352501Y-167322501D03*
%TD*%
D13*
%TO.C,MX11*%
X274955001Y-88900001D03*
X264795001Y-88900001D03*
D12*
X275690001Y-83820001D03*
X262790001Y-86360001D03*
D14*
X269875001Y-88900001D03*
%TD*%
D12*
%TO.C,MX76*%
X362802501Y-129222501D03*
D13*
X364807501Y-131762501D03*
D14*
X369887501Y-131762501D03*
D12*
X375702501Y-126682501D03*
D13*
X374967501Y-131762501D03*
%TD*%
D12*
%TO.C,MX6*%
X158015001Y-86360001D03*
D13*
X160020001Y-88900001D03*
D14*
X165100001Y-88900001D03*
D13*
X170180001Y-88900001D03*
D12*
X170915001Y-83820001D03*
%TD*%
D15*
%TO.C,MX61*%
X308006751Y-143827501D03*
D12*
X288983751Y-148272501D03*
D13*
X290988751Y-150812501D03*
D15*
X284130751Y-143827501D03*
D13*
X301148751Y-150812501D03*
D14*
X296068751Y-150812501D03*
X308006751Y-159067501D03*
D12*
X301883751Y-145732501D03*
D14*
X284130751Y-159067501D03*
%TD*%
D12*
%TO.C,MX37*%
X119915001Y-129222501D03*
X132815001Y-126682501D03*
D13*
X121920001Y-131762501D03*
D14*
X127000001Y-131762501D03*
D13*
X132080001Y-131762501D03*
%TD*%
%TO.C,MX66*%
X98107501Y-169862501D03*
X108267501Y-169862501D03*
D12*
X109002501Y-164782501D03*
D14*
X103187501Y-169862501D03*
D12*
X96102501Y-167322501D03*
%TD*%
%TO.C,MX72*%
X223302501Y-164782501D03*
D13*
X212407501Y-169862501D03*
D12*
X210402501Y-167322501D03*
D14*
X217487501Y-169862501D03*
D13*
X222567501Y-169862501D03*
%TD*%
D14*
%TO.C,MX79*%
X93662501Y-188912501D03*
D13*
X88582501Y-188912501D03*
D12*
X99477501Y-183832501D03*
D13*
X98742501Y-188912501D03*
D12*
X86577501Y-186372501D03*
%TD*%
D14*
%TO.C,MX26*%
X212725001Y-112712501D03*
D13*
X207645001Y-112712501D03*
X217805001Y-112712501D03*
D12*
X218540001Y-107632501D03*
X205640001Y-110172501D03*
%TD*%
D14*
%TO.C,MX22*%
X136525001Y-112712501D03*
D12*
X142340001Y-107632501D03*
D13*
X141605001Y-112712501D03*
D12*
X129440001Y-110172501D03*
D13*
X131445001Y-112712501D03*
%TD*%
D14*
%TO.C,MX64*%
X65119251Y-178117501D03*
D12*
X46096251Y-167322501D03*
D13*
X48101251Y-169862501D03*
D15*
X41243251Y-162877501D03*
D14*
X53181251Y-169862501D03*
D15*
X65119251Y-162877501D03*
D13*
X58261251Y-169862501D03*
D12*
X58996251Y-164782501D03*
D14*
X41243251Y-178117501D03*
%TD*%
D12*
%TO.C,MX28*%
X256640001Y-107632501D03*
D13*
X255905001Y-112712501D03*
X245745001Y-112712501D03*
D14*
X250825001Y-112712501D03*
D12*
X243740001Y-110172501D03*
%TD*%
D14*
%TO.C,MX27*%
X231775001Y-112712501D03*
D13*
X236855001Y-112712501D03*
D12*
X237590001Y-107632501D03*
X224690001Y-110172501D03*
D13*
X226695001Y-112712501D03*
%TD*%
%TO.C,MX29*%
X274955001Y-112712501D03*
X264795001Y-112712501D03*
D14*
X269875001Y-112712501D03*
D12*
X262790001Y-110172501D03*
X275690001Y-107632501D03*
%TD*%
D14*
%TO.C,MX65*%
X84137501Y-169862501D03*
D12*
X77052501Y-167322501D03*
D13*
X79057501Y-169862501D03*
D12*
X89952501Y-164782501D03*
D13*
X89217501Y-169862501D03*
%TD*%
%TO.C,MX54*%
X155892501Y-150812501D03*
D14*
X150812501Y-150812501D03*
D12*
X143727501Y-148272501D03*
X156627501Y-145732501D03*
D13*
X145732501Y-150812501D03*
%TD*%
D12*
%TO.C,MX80*%
X180440001Y-183832501D03*
D13*
X169545001Y-188912501D03*
D14*
X117475001Y-180657501D03*
X231775001Y-180657501D03*
D13*
X179705001Y-188912501D03*
D14*
X174625001Y-188912501D03*
D12*
X167540001Y-186372501D03*
D15*
X231775001Y-195897501D03*
X117475001Y-195897501D03*
%TD*%
D13*
%TO.C,MX42*%
X227330001Y-131762501D03*
D12*
X215165001Y-129222501D03*
D14*
X222250001Y-131762501D03*
D13*
X217170001Y-131762501D03*
D12*
X228065001Y-126682501D03*
%TD*%
D14*
%TO.C,MX16*%
X369887501Y-88900001D03*
D12*
X375702501Y-83820001D03*
D13*
X374967501Y-88900001D03*
D12*
X362802501Y-86360001D03*
D13*
X364807501Y-88900001D03*
%TD*%
D12*
%TO.C,MX5*%
X129440001Y-86360001D03*
D14*
X136525001Y-88900001D03*
D13*
X141605001Y-88900001D03*
X131445001Y-88900001D03*
D12*
X142340001Y-83820001D03*
%TD*%
D13*
%TO.C,MX24*%
X179705001Y-112712501D03*
D12*
X180440001Y-107632501D03*
X167540001Y-110172501D03*
D14*
X174625001Y-112712501D03*
D13*
X169545001Y-112712501D03*
%TD*%
D12*
%TO.C,MX56*%
X194727501Y-145732501D03*
X181827501Y-148272501D03*
D13*
X193992501Y-150812501D03*
D14*
X188912501Y-150812501D03*
D13*
X183832501Y-150812501D03*
%TD*%
D12*
%TO.C,MX12*%
X294740001Y-83820001D03*
D13*
X294005001Y-88900001D03*
D14*
X288925001Y-88900001D03*
D13*
X283845001Y-88900001D03*
D12*
X281840001Y-86360001D03*
%TD*%
D14*
%TO.C,MX30*%
X286512001Y-120967501D03*
D15*
X310388001Y-105727501D03*
D14*
X298450001Y-112712501D03*
D13*
X293370001Y-112712501D03*
D14*
X310388001Y-120967501D03*
D12*
X291365001Y-110172501D03*
X304265001Y-107632501D03*
D15*
X286512001Y-105727501D03*
D13*
X303530001Y-112712501D03*
%TD*%
%TO.C,MX55*%
X174942501Y-150812501D03*
D12*
X175677501Y-145732501D03*
D13*
X164782501Y-150812501D03*
D12*
X162777501Y-148272501D03*
D14*
X169862501Y-150812501D03*
%TD*%
D13*
%TO.C,MX73*%
X241617501Y-169862501D03*
D12*
X229452501Y-167322501D03*
X242352501Y-164782501D03*
D14*
X236537501Y-169862501D03*
D13*
X231457501Y-169862501D03*
%TD*%
%TO.C,MX48*%
X345757501Y-131762501D03*
D12*
X356652501Y-126682501D03*
D14*
X350837501Y-131762501D03*
D12*
X343752501Y-129222501D03*
D13*
X355917501Y-131762501D03*
%TD*%
D14*
%TO.C,MX14*%
X331787501Y-88900001D03*
D13*
X326707501Y-88900001D03*
D12*
X337602501Y-83820001D03*
X324702501Y-86360001D03*
D13*
X336867501Y-88900001D03*
%TD*%
D12*
%TO.C,MX34*%
X75665001Y-126682501D03*
X62765001Y-129222501D03*
D13*
X74930001Y-131762501D03*
X64770001Y-131762501D03*
D14*
X69850001Y-131762501D03*
%TD*%
D13*
%TO.C,MX20*%
X93345001Y-112712501D03*
X103505001Y-112712501D03*
D14*
X98425001Y-112712501D03*
D12*
X104240001Y-107632501D03*
X91340001Y-110172501D03*
%TD*%
D13*
%TO.C,MX43*%
X236220001Y-131762501D03*
D12*
X234215001Y-129222501D03*
D13*
X246380001Y-131762501D03*
D14*
X241300001Y-131762501D03*
D12*
X247115001Y-126682501D03*
%TD*%
D13*
%TO.C,MX67*%
X117157501Y-169862501D03*
X127317501Y-169862501D03*
D14*
X122237501Y-169862501D03*
D12*
X128052501Y-164782501D03*
X115152501Y-167322501D03*
%TD*%
D14*
%TO.C,MX70*%
X179387501Y-169862501D03*
D12*
X185202501Y-164782501D03*
D13*
X174307501Y-169862501D03*
X184467501Y-169862501D03*
D12*
X172302501Y-167322501D03*
%TD*%
D13*
%TO.C,MX9*%
X227330001Y-88900001D03*
D12*
X215165001Y-86360001D03*
D13*
X217170001Y-88900001D03*
D14*
X222250001Y-88900001D03*
D12*
X228065001Y-83820001D03*
%TD*%
D14*
%TO.C,MX45*%
X279400001Y-131762501D03*
D12*
X272315001Y-129222501D03*
D13*
X284480001Y-131762501D03*
X274320001Y-131762501D03*
D12*
X285215001Y-126682501D03*
%TD*%
%TO.C,MX32*%
X362802501Y-110172501D03*
X375702501Y-107632501D03*
D13*
X364807501Y-112712501D03*
D14*
X369887501Y-112712501D03*
D13*
X374967501Y-112712501D03*
%TD*%
D14*
%TO.C,MX39*%
X165100001Y-131762501D03*
D13*
X170180001Y-131762501D03*
D12*
X158015001Y-129222501D03*
X170915001Y-126682501D03*
D13*
X160020001Y-131762501D03*
%TD*%
%TO.C,MX3*%
X103505001Y-88900001D03*
D14*
X98425001Y-88900001D03*
D12*
X104240001Y-83820001D03*
D13*
X93345001Y-88900001D03*
D12*
X91340001Y-86360001D03*
%TD*%
D13*
%TO.C,MX41*%
X198120001Y-131762501D03*
X208280001Y-131762501D03*
D14*
X203200001Y-131762501D03*
D12*
X196115001Y-129222501D03*
X209015001Y-126682501D03*
%TD*%
%TO.C,MX50*%
X67527501Y-148272501D03*
X80427501Y-145732501D03*
D13*
X79692501Y-150812501D03*
X69532501Y-150812501D03*
D14*
X74612501Y-150812501D03*
%TD*%
%TO.C,MX2*%
X79375001Y-88900001D03*
D13*
X84455001Y-88900001D03*
D12*
X85190001Y-83820001D03*
D13*
X74295001Y-88900001D03*
D12*
X72290001Y-86360001D03*
%TD*%
D13*
%TO.C,MX46*%
X308292501Y-131762501D03*
D12*
X296127501Y-129222501D03*
X309027501Y-126682501D03*
D14*
X303212501Y-131762501D03*
D13*
X298132501Y-131762501D03*
%TD*%
D16*
%TO.C,U1*%
X316166501Y-145415001D03*
D17*
X316166501Y-147955001D03*
X316166501Y-150495001D03*
X316166501Y-153035001D03*
X316166501Y-155575001D03*
X316166501Y-158115001D03*
X316166501Y-160655001D03*
X316166501Y-163195001D03*
X316166501Y-165735001D03*
X316166501Y-168275001D03*
X316166501Y-170815001D03*
X316166501Y-173355001D03*
X316166501Y-175895001D03*
X316166501Y-178435001D03*
X331406501Y-178435001D03*
X331406501Y-175895001D03*
X331406501Y-173355001D03*
X331406501Y-170815001D03*
X331406501Y-168275001D03*
X331406501Y-165735001D03*
X331406501Y-163195001D03*
X331406501Y-160655001D03*
X331406501Y-158115001D03*
X331406501Y-155575001D03*
X331406501Y-153035001D03*
X331406501Y-150495001D03*
X331406501Y-147955001D03*
X331406501Y-145415001D03*
%TD*%
D12*
%TO.C,MX77*%
X38952501Y-186372501D03*
D14*
X46037501Y-188912501D03*
D13*
X51117501Y-188912501D03*
D12*
X51852501Y-183832501D03*
D13*
X40957501Y-188912501D03*
%TD*%
%TO.C,MX19*%
X84455001Y-112712501D03*
D12*
X85190001Y-107632501D03*
D13*
X74295001Y-112712501D03*
D12*
X72290001Y-110172501D03*
D14*
X79375001Y-112712501D03*
%TD*%
D12*
%TO.C,MX78*%
X62765001Y-186372501D03*
D13*
X74930001Y-188912501D03*
D12*
X75665001Y-183832501D03*
D14*
X69850001Y-188912501D03*
D13*
X64770001Y-188912501D03*
%TD*%
D12*
%TO.C,MX15*%
X343752501Y-86360001D03*
X356652501Y-83820001D03*
D13*
X355917501Y-88900001D03*
D14*
X350837501Y-88900001D03*
D13*
X345757501Y-88900001D03*
D18*
X349567501Y-93980001D03*
D19*
X352107501Y-93980001D03*
%TD*%
D13*
%TO.C,MX44*%
X255270001Y-131762501D03*
D12*
X253265001Y-129222501D03*
D14*
X260350001Y-131762501D03*
D13*
X265430001Y-131762501D03*
D12*
X266165001Y-126682501D03*
%TD*%
D14*
%TO.C,MX75*%
X279368251Y-178117501D03*
D15*
X279368251Y-162877501D03*
X303244251Y-162877501D03*
D12*
X297121251Y-164782501D03*
X284221251Y-167322501D03*
D13*
X296386251Y-169862501D03*
D14*
X303244251Y-178117501D03*
D13*
X286226251Y-169862501D03*
D14*
X291306251Y-169862501D03*
%TD*%
%TO.C,MX85*%
X350837501Y-188912501D03*
D12*
X356652501Y-183832501D03*
D13*
X345757501Y-188912501D03*
X355917501Y-188912501D03*
D12*
X343752501Y-186372501D03*
%TD*%
%TO.C,MX7*%
X189965001Y-83820001D03*
X177065001Y-86360001D03*
D13*
X189230001Y-88900001D03*
D14*
X184150001Y-88900001D03*
D13*
X179070001Y-88900001D03*
%TD*%
%TO.C,MX60*%
X260032501Y-150812501D03*
D12*
X270927501Y-145732501D03*
D13*
X270192501Y-150812501D03*
D12*
X258027501Y-148272501D03*
D14*
X265112501Y-150812501D03*
%TD*%
D13*
%TO.C,MX40*%
X179070001Y-131762501D03*
X189230001Y-131762501D03*
D12*
X189965001Y-126682501D03*
X177065001Y-129222501D03*
D14*
X184150001Y-131762501D03*
%TD*%
D12*
%TO.C,MX84*%
X324702501Y-186372501D03*
D13*
X336867501Y-188912501D03*
D12*
X337602501Y-183832501D03*
D14*
X331787501Y-188912501D03*
D13*
X326707501Y-188912501D03*
%TD*%
D14*
%TO.C,MX21*%
X117475001Y-112712501D03*
D13*
X122555001Y-112712501D03*
X112395001Y-112712501D03*
D12*
X110390001Y-110172501D03*
X123290001Y-107632501D03*
%TD*%
D13*
%TO.C,MX49*%
X48736251Y-150812501D03*
D12*
X49471251Y-145732501D03*
D14*
X43656251Y-150812501D03*
D13*
X38576251Y-150812501D03*
D12*
X36571251Y-148272501D03*
D18*
X42386251Y-155892501D03*
D19*
X44926251Y-155892501D03*
%TD*%
D12*
%TO.C,MX4*%
X123290001Y-83820001D03*
D13*
X112395001Y-88900001D03*
D14*
X117475001Y-88900001D03*
D12*
X110390001Y-86360001D03*
D13*
X122555001Y-88900001D03*
%TD*%
D12*
%TO.C,MX1*%
X47090001Y-83820001D03*
D14*
X41275001Y-88900001D03*
D13*
X46355001Y-88900001D03*
D12*
X34190001Y-86360001D03*
D13*
X36195001Y-88900001D03*
%TD*%
D14*
%TO.C,MX23*%
X155575001Y-112712501D03*
D13*
X160655001Y-112712501D03*
X150495001Y-112712501D03*
D12*
X148490001Y-110172501D03*
X161390001Y-107632501D03*
%TD*%
D14*
%TO.C,MX13*%
X307975001Y-88900001D03*
D12*
X300890001Y-86360001D03*
X313790001Y-83820001D03*
D13*
X313055001Y-88900001D03*
X302895001Y-88900001D03*
%TD*%
D12*
%TO.C,MX38*%
X138965001Y-129222501D03*
D14*
X146050001Y-131762501D03*
D12*
X151865001Y-126682501D03*
D13*
X140970001Y-131762501D03*
X151130001Y-131762501D03*
%TD*%
%TO.C,MX63*%
X345757501Y-112712501D03*
D14*
X350837501Y-112712501D03*
D13*
X355917501Y-112712501D03*
D12*
X343752501Y-110172501D03*
X356652501Y-107632501D03*
%TD*%
D13*
%TO.C,MX83*%
X308292501Y-188912501D03*
X298132501Y-188912501D03*
D14*
X303212501Y-188912501D03*
D12*
X296127501Y-186372501D03*
X309027501Y-183832501D03*
%TD*%
D14*
%TO.C,MX8*%
X203200001Y-88900001D03*
D12*
X196115001Y-86360001D03*
D13*
X208280001Y-88900001D03*
X198120001Y-88900001D03*
D12*
X209015001Y-83820001D03*
%TD*%
D13*
%TO.C,MX47*%
X336867501Y-131762501D03*
D12*
X324702501Y-129222501D03*
X337602501Y-126682501D03*
D14*
X331787501Y-131762501D03*
D13*
X326707501Y-131762501D03*
%TD*%
D14*
%TO.C,MX57*%
X207962501Y-150812501D03*
D13*
X213042501Y-150812501D03*
D12*
X200877501Y-148272501D03*
D13*
X202882501Y-150812501D03*
D12*
X213777501Y-145732501D03*
%TD*%
D13*
%TO.C,MX82*%
X274320001Y-188912501D03*
D14*
X279400001Y-188912501D03*
D12*
X285215001Y-183832501D03*
D13*
X284480001Y-188912501D03*
D12*
X272315001Y-186372501D03*
%TD*%
%TO.C,MX10*%
X256640001Y-83820001D03*
X243740001Y-86360001D03*
D13*
X245745001Y-88900001D03*
D14*
X250825001Y-88900001D03*
D13*
X255905001Y-88900001D03*
%TD*%
%TO.C,MX62*%
X355917501Y-169862501D03*
D12*
X356652501Y-164782501D03*
D14*
X350837501Y-169862501D03*
D12*
X343752501Y-167322501D03*
D13*
X345757501Y-169862501D03*
%TD*%
%TO.C,MX36*%
X113030001Y-131762501D03*
D12*
X113765001Y-126682501D03*
X100865001Y-129222501D03*
D14*
X107950001Y-131762501D03*
D13*
X102870001Y-131762501D03*
%TD*%
D12*
%TO.C,MX52*%
X105627501Y-148272501D03*
D13*
X117792501Y-150812501D03*
X107632501Y-150812501D03*
D14*
X112712501Y-150812501D03*
D12*
X118527501Y-145732501D03*
%TD*%
%TO.C,MX25*%
X199490001Y-107632501D03*
D14*
X193675001Y-112712501D03*
D13*
X198755001Y-112712501D03*
D12*
X186590001Y-110172501D03*
D13*
X188595001Y-112712501D03*
%TD*%
D12*
%TO.C,MX35*%
X94715001Y-126682501D03*
X81815001Y-129222501D03*
D14*
X88900001Y-131762501D03*
D13*
X83820001Y-131762501D03*
X93980001Y-131762501D03*
%TD*%
%TO.C,MX17*%
X46355001Y-112712501D03*
X36195001Y-112712501D03*
D14*
X41275001Y-112712501D03*
D12*
X34190001Y-110172501D03*
X47090001Y-107632501D03*
%TD*%
D13*
%TO.C,MX69*%
X165417501Y-169862501D03*
X155257501Y-169862501D03*
D12*
X166152501Y-164782501D03*
X153252501Y-167322501D03*
D14*
X160337501Y-169862501D03*
%TD*%
%TO.C,MX86*%
X369887501Y-188912501D03*
D12*
X362802501Y-186372501D03*
X375702501Y-183832501D03*
D13*
X374967501Y-188912501D03*
X364807501Y-188912501D03*
%TD*%
%TO.C,MX74*%
X260667501Y-169862501D03*
D12*
X248502501Y-167322501D03*
D14*
X255587501Y-169862501D03*
D13*
X250507501Y-169862501D03*
D12*
X261402501Y-164782501D03*
%TD*%
D13*
%TO.C,MX18*%
X55245001Y-112712501D03*
D12*
X66140001Y-107632501D03*
D14*
X60325001Y-112712501D03*
D13*
X65405001Y-112712501D03*
D12*
X53240001Y-110172501D03*
%TD*%
%TO.C,MX58*%
X219927501Y-148272501D03*
D13*
X221932501Y-150812501D03*
D14*
X227012501Y-150812501D03*
D13*
X232092501Y-150812501D03*
D12*
X232827501Y-145732501D03*
%TD*%
%TO.C,MX51*%
X99477501Y-145732501D03*
X86577501Y-148272501D03*
D14*
X93662501Y-150812501D03*
D13*
X88582501Y-150812501D03*
X98742501Y-150812501D03*
%TD*%
%TO.C,MX53*%
X136842501Y-150812501D03*
D14*
X131762501Y-150812501D03*
D13*
X126682501Y-150812501D03*
D12*
X137577501Y-145732501D03*
X124677501Y-148272501D03*
%TD*%
D16*
%TO.C,D39*%
X173037501Y-138112501D03*
D20*
X173037501Y-130492501D03*
%TD*%
D16*
%TO.C,D36*%
X115887501Y-138112501D03*
D20*
X115887501Y-130492501D03*
%TD*%
D16*
%TO.C,D24*%
X182562501Y-118903751D03*
D20*
X182562501Y-111283751D03*
%TD*%
D16*
%TO.C,D73*%
X244475001Y-176212501D03*
D20*
X244475001Y-168592501D03*
%TD*%
D16*
%TO.C,D41*%
X211137501Y-138112501D03*
D20*
X211137501Y-130492501D03*
%TD*%
D16*
%TO.C,D7*%
X192087501Y-95250001D03*
D20*
X192087501Y-87630001D03*
%TD*%
D16*
%TO.C,D28*%
X258762501Y-118903751D03*
D20*
X258762501Y-111283751D03*
%TD*%
D16*
%TO.C,D57*%
X215900001Y-157162501D03*
D20*
X215900001Y-149542501D03*
%TD*%
D16*
%TO.C,D21*%
X125412501Y-118903751D03*
D20*
X125412501Y-111283751D03*
%TD*%
D16*
%TO.C,D75*%
X299243751Y-176212501D03*
D20*
X299243751Y-168592501D03*
%TD*%
D16*
%TO.C,D72*%
X225425001Y-176212501D03*
D20*
X225425001Y-168592501D03*
%TD*%
D16*
%TO.C,D37*%
X134937501Y-138112501D03*
D20*
X134937501Y-130492501D03*
%TD*%
D16*
%TO.C,D60*%
X273050001Y-157162501D03*
D20*
X273050001Y-149542501D03*
%TD*%
D16*
%TO.C,D27*%
X239712501Y-118903751D03*
D20*
X239712501Y-111283751D03*
%TD*%
D16*
%TO.C,D77*%
X53975001Y-195262501D03*
D20*
X53975001Y-187642501D03*
%TD*%
D16*
%TO.C,D5*%
X144462501Y-95250001D03*
D20*
X144462501Y-87630001D03*
%TD*%
D16*
%TO.C,D46*%
X311150001Y-138112501D03*
D20*
X311150001Y-130492501D03*
%TD*%
D16*
%TO.C,D86*%
X377825001Y-195262501D03*
D20*
X377825001Y-187642501D03*
%TD*%
D16*
%TO.C,D64*%
X61118751Y-176212501D03*
D20*
X61118751Y-168592501D03*
%TD*%
D16*
%TO.C,D44*%
X268287501Y-138112501D03*
D20*
X268287501Y-130492501D03*
%TD*%
D16*
%TO.C,D59*%
X254000001Y-157162501D03*
D20*
X254000001Y-149542501D03*
%TD*%
D16*
%TO.C,D1*%
X49212501Y-95250001D03*
D20*
X49212501Y-87630001D03*
%TD*%
D16*
%TO.C,D30*%
X306387501Y-118903751D03*
D20*
X306387501Y-111283751D03*
%TD*%
D16*
%TO.C,D61*%
X304006251Y-157162501D03*
D20*
X304006251Y-149542501D03*
%TD*%
D16*
%TO.C,D19*%
X87312501Y-118903751D03*
D20*
X87312501Y-111283751D03*
%TD*%
D16*
%TO.C,D25*%
X201612501Y-118903751D03*
D20*
X201612501Y-111283751D03*
%TD*%
D16*
%TO.C,D3*%
X106362501Y-95250001D03*
D20*
X106362501Y-87630001D03*
%TD*%
D16*
%TO.C,D49*%
X51593751Y-157162501D03*
D20*
X51593751Y-149542501D03*
%TD*%
D16*
%TO.C,D81*%
X263525001Y-195103751D03*
D20*
X263525001Y-187483751D03*
%TD*%
D16*
%TO.C,D14*%
X339725001Y-95250001D03*
D20*
X339725001Y-87630001D03*
%TD*%
D16*
%TO.C,D63*%
X358775001Y-118903751D03*
D20*
X358775001Y-111283751D03*
%TD*%
D16*
%TO.C,D78*%
X77787501Y-195103751D03*
D20*
X77787501Y-187483751D03*
%TD*%
D16*
%TO.C,D9*%
X230187501Y-95250001D03*
D20*
X230187501Y-87630001D03*
%TD*%
D16*
%TO.C,D79*%
X101600001Y-195103751D03*
D20*
X101600001Y-187483751D03*
%TD*%
D16*
%TO.C,D12*%
X296068751Y-95250001D03*
D20*
X296068751Y-87630001D03*
%TD*%
D16*
%TO.C,D43*%
X249237501Y-138112501D03*
D20*
X249237501Y-130492501D03*
%TD*%
D16*
%TO.C,D82*%
X287337501Y-195103751D03*
D20*
X287337501Y-187483751D03*
%TD*%
D16*
%TO.C,D48*%
X358775001Y-138112501D03*
D20*
X358775001Y-130492501D03*
%TD*%
D16*
%TO.C,D53*%
X139700001Y-157162501D03*
D20*
X139700001Y-149542501D03*
%TD*%
D16*
%TO.C,D40*%
X192087501Y-138112501D03*
D20*
X192087501Y-130492501D03*
%TD*%
D16*
%TO.C,D31*%
X339725001Y-118903751D03*
D20*
X339725001Y-111283751D03*
%TD*%
D16*
%TO.C,D35*%
X96837501Y-138112501D03*
D20*
X96837501Y-130492501D03*
%TD*%
D16*
%TO.C,D45*%
X287337501Y-138112501D03*
D20*
X287337501Y-130492501D03*
%TD*%
D16*
%TO.C,D68*%
X149225001Y-176212501D03*
D20*
X149225001Y-168592501D03*
%TD*%
D16*
%TO.C,D29*%
X277812501Y-118903751D03*
D20*
X277812501Y-111283751D03*
%TD*%
D16*
%TO.C,D54*%
X158750001Y-157162501D03*
D20*
X158750001Y-149542501D03*
%TD*%
D16*
%TO.C,D65*%
X92075001Y-176212501D03*
D20*
X92075001Y-168592501D03*
%TD*%
D16*
%TO.C,D33*%
X53975001Y-138112501D03*
D20*
X53975001Y-130492501D03*
%TD*%
D16*
%TO.C,D51*%
X101600001Y-157162501D03*
D20*
X101600001Y-149542501D03*
%TD*%
D16*
%TO.C,D70*%
X187325001Y-176212501D03*
D20*
X187325001Y-168592501D03*
%TD*%
D16*
%TO.C,D11*%
X277812501Y-95250001D03*
D20*
X277812501Y-87630001D03*
%TD*%
D16*
%TO.C,D6*%
X173037501Y-95250001D03*
D20*
X173037501Y-87630001D03*
%TD*%
D16*
%TO.C,D69*%
X168275001Y-176212501D03*
D20*
X168275001Y-168592501D03*
%TD*%
D16*
%TO.C,D52*%
X120650001Y-157162501D03*
D20*
X120650001Y-149542501D03*
%TD*%
D16*
%TO.C,D67*%
X130175001Y-176212501D03*
D20*
X130175001Y-168592501D03*
%TD*%
D16*
%TO.C,D32*%
X377825001Y-118903751D03*
D20*
X377825001Y-111283751D03*
%TD*%
D16*
%TO.C,D18*%
X68262501Y-118903751D03*
D20*
X68262501Y-111283751D03*
%TD*%
D16*
%TO.C,D34*%
X77787501Y-138112501D03*
D20*
X77787501Y-130492501D03*
%TD*%
D16*
%TO.C,D47*%
X339725001Y-138112501D03*
D20*
X339725001Y-130492501D03*
%TD*%
D16*
%TO.C,D62*%
X358775001Y-176212501D03*
D20*
X358775001Y-168592501D03*
%TD*%
D16*
%TO.C,D16*%
X377825001Y-95250001D03*
D20*
X377825001Y-87630001D03*
%TD*%
D16*
%TO.C,D85*%
X358775001Y-195262501D03*
D20*
X358775001Y-187642501D03*
%TD*%
D16*
%TO.C,D15*%
X358775001Y-95250001D03*
D20*
X358775001Y-87630001D03*
%TD*%
D16*
%TO.C,D20*%
X106362501Y-118903751D03*
D20*
X106362501Y-111283751D03*
%TD*%
D16*
%TO.C,D83*%
X311150001Y-195103751D03*
D20*
X311150001Y-187483751D03*
%TD*%
D16*
%TO.C,D10*%
X258762501Y-95250001D03*
D20*
X258762501Y-87630001D03*
%TD*%
D16*
%TO.C,D76*%
X377825001Y-138112501D03*
D20*
X377825001Y-130492501D03*
%TD*%
D16*
%TO.C,D50*%
X82550001Y-157162501D03*
D20*
X82550001Y-149542501D03*
%TD*%
D17*
%TO.C,R1*%
X349567501Y-98615501D03*
D20*
X341947501Y-98615501D03*
%TD*%
D16*
%TO.C,D58*%
X234950001Y-157162501D03*
D20*
X234950001Y-149542501D03*
%TD*%
D16*
%TO.C,D13*%
X315912501Y-95250001D03*
D20*
X315912501Y-87630001D03*
%TD*%
D16*
%TO.C,D80*%
X182562501Y-195103751D03*
D20*
X182562501Y-187483751D03*
%TD*%
D16*
%TO.C,D4*%
X125412501Y-95250001D03*
D20*
X125412501Y-87630001D03*
%TD*%
D16*
%TO.C,D8*%
X211137501Y-95250001D03*
D20*
X211137501Y-87630001D03*
%TD*%
D16*
%TO.C,D55*%
X177800001Y-157162501D03*
D20*
X177800001Y-149542501D03*
%TD*%
D16*
%TO.C,D38*%
X153987501Y-138112501D03*
D20*
X153987501Y-130492501D03*
%TD*%
D16*
%TO.C,D56*%
X196850001Y-157162501D03*
D20*
X196850001Y-149542501D03*
%TD*%
D16*
%TO.C,D42*%
X230187501Y-138112501D03*
D20*
X230187501Y-130492501D03*
%TD*%
D16*
%TO.C,D2*%
X87312501Y-95250001D03*
D20*
X87312501Y-87630001D03*
%TD*%
D16*
%TO.C,D74*%
X263525001Y-176212501D03*
D20*
X263525001Y-168592501D03*
%TD*%
D16*
%TO.C,D84*%
X339725001Y-195262501D03*
D20*
X339725001Y-187642501D03*
%TD*%
D17*
%TO.C,R2*%
X54610001Y-160337501D03*
D20*
X46990001Y-160337501D03*
%TD*%
D16*
%TO.C,D66*%
X111125001Y-176212501D03*
D20*
X111125001Y-168592501D03*
%TD*%
D16*
%TO.C,D17*%
X49212501Y-118903751D03*
D20*
X49212501Y-111283751D03*
%TD*%
D16*
%TO.C,D22*%
X144462501Y-118903751D03*
D20*
X144462501Y-111283751D03*
%TD*%
D16*
%TO.C,D26*%
X220662501Y-118903751D03*
D20*
X220662501Y-111283751D03*
%TD*%
D16*
%TO.C,D71*%
X206375001Y-176212501D03*
D20*
X206375001Y-168592501D03*
%TD*%
D16*
%TO.C,D23*%
X163512501Y-118903751D03*
D20*
X163512501Y-111283751D03*
%TD*%
M02*
