%TF.GenerationSoftware,KiCad,Pcbnew,(6.0.2)*%
%TF.CreationDate,2022-02-20T23:43:42-05:00*%
%TF.ProjectId,TKL,544b4c2e-6b69-4636-9164-5f7063625858,rev?*%
%TF.SameCoordinates,Original*%
%TF.FileFunction,Paste,Bot*%
%TF.FilePolarity,Positive*%
%FSLAX46Y46*%
G04 Gerber Fmt 4.6, Leading zero omitted, Abs format (unit mm)*
G04 Created by KiCad (PCBNEW (6.0.2)) date 2022-02-20 23:43:42*
%MOMM*%
%LPD*%
G01*
G04 APERTURE LIST*
%ADD10R,2.550000X2.500000*%
G04 APERTURE END LIST*
D10*
%TO.C,MX33*%
X51852501Y-126682501D03*
X38952501Y-129222501D03*
%TD*%
%TO.C,MX59*%
X238977501Y-148272501D03*
X251877501Y-145732501D03*
%TD*%
%TO.C,MX81*%
X261402501Y-183832501D03*
X248502501Y-186372501D03*
%TD*%
%TO.C,MX68*%
X147102501Y-164782501D03*
X134202501Y-167322501D03*
%TD*%
%TO.C,MX31*%
X324702501Y-110172501D03*
X337602501Y-107632501D03*
%TD*%
%TO.C,MX71*%
X204252501Y-164782501D03*
X191352501Y-167322501D03*
%TD*%
%TO.C,MX11*%
X275690001Y-83820001D03*
X262790001Y-86360001D03*
%TD*%
%TO.C,MX76*%
X362802501Y-129222501D03*
X375702501Y-126682501D03*
%TD*%
%TO.C,MX6*%
X158015001Y-86360001D03*
X170915001Y-83820001D03*
%TD*%
%TO.C,MX61*%
X288983751Y-148272501D03*
X301883751Y-145732501D03*
%TD*%
%TO.C,MX37*%
X119915001Y-129222501D03*
X132815001Y-126682501D03*
%TD*%
%TO.C,MX66*%
X109002501Y-164782501D03*
X96102501Y-167322501D03*
%TD*%
%TO.C,MX72*%
X223302501Y-164782501D03*
X210402501Y-167322501D03*
%TD*%
%TO.C,MX79*%
X99477501Y-183832501D03*
X86577501Y-186372501D03*
%TD*%
%TO.C,MX26*%
X218540001Y-107632501D03*
X205640001Y-110172501D03*
%TD*%
%TO.C,MX22*%
X142340001Y-107632501D03*
X129440001Y-110172501D03*
%TD*%
%TO.C,MX64*%
X46096251Y-167322501D03*
X58996251Y-164782501D03*
%TD*%
%TO.C,MX28*%
X256640001Y-107632501D03*
X243740001Y-110172501D03*
%TD*%
%TO.C,MX27*%
X237590001Y-107632501D03*
X224690001Y-110172501D03*
%TD*%
%TO.C,MX29*%
X262790001Y-110172501D03*
X275690001Y-107632501D03*
%TD*%
%TO.C,MX65*%
X77052501Y-167322501D03*
X89952501Y-164782501D03*
%TD*%
%TO.C,MX54*%
X143727501Y-148272501D03*
X156627501Y-145732501D03*
%TD*%
%TO.C,MX80*%
X180440001Y-183832501D03*
X167540001Y-186372501D03*
%TD*%
%TO.C,MX42*%
X215165001Y-129222501D03*
X228065001Y-126682501D03*
%TD*%
%TO.C,MX16*%
X375702501Y-83820001D03*
X362802501Y-86360001D03*
%TD*%
%TO.C,MX5*%
X129440001Y-86360001D03*
X142340001Y-83820001D03*
%TD*%
%TO.C,MX24*%
X180440001Y-107632501D03*
X167540001Y-110172501D03*
%TD*%
%TO.C,MX56*%
X194727501Y-145732501D03*
X181827501Y-148272501D03*
%TD*%
%TO.C,MX12*%
X294740001Y-83820001D03*
X281840001Y-86360001D03*
%TD*%
%TO.C,MX30*%
X291365001Y-110172501D03*
X304265001Y-107632501D03*
%TD*%
%TO.C,MX55*%
X175677501Y-145732501D03*
X162777501Y-148272501D03*
%TD*%
%TO.C,MX73*%
X229452501Y-167322501D03*
X242352501Y-164782501D03*
%TD*%
%TO.C,MX48*%
X356652501Y-126682501D03*
X343752501Y-129222501D03*
%TD*%
%TO.C,MX14*%
X337602501Y-83820001D03*
X324702501Y-86360001D03*
%TD*%
%TO.C,MX34*%
X75665001Y-126682501D03*
X62765001Y-129222501D03*
%TD*%
%TO.C,MX20*%
X104240001Y-107632501D03*
X91340001Y-110172501D03*
%TD*%
%TO.C,MX43*%
X234215001Y-129222501D03*
X247115001Y-126682501D03*
%TD*%
%TO.C,MX67*%
X128052501Y-164782501D03*
X115152501Y-167322501D03*
%TD*%
%TO.C,MX70*%
X185202501Y-164782501D03*
X172302501Y-167322501D03*
%TD*%
%TO.C,MX9*%
X215165001Y-86360001D03*
X228065001Y-83820001D03*
%TD*%
%TO.C,MX45*%
X272315001Y-129222501D03*
X285215001Y-126682501D03*
%TD*%
%TO.C,MX32*%
X362802501Y-110172501D03*
X375702501Y-107632501D03*
%TD*%
%TO.C,MX39*%
X158015001Y-129222501D03*
X170915001Y-126682501D03*
%TD*%
%TO.C,MX3*%
X104240001Y-83820001D03*
X91340001Y-86360001D03*
%TD*%
%TO.C,MX41*%
X196115001Y-129222501D03*
X209015001Y-126682501D03*
%TD*%
%TO.C,MX50*%
X67527501Y-148272501D03*
X80427501Y-145732501D03*
%TD*%
%TO.C,MX2*%
X85190001Y-83820001D03*
X72290001Y-86360001D03*
%TD*%
%TO.C,MX46*%
X296127501Y-129222501D03*
X309027501Y-126682501D03*
%TD*%
%TO.C,MX77*%
X38952501Y-186372501D03*
X51852501Y-183832501D03*
%TD*%
%TO.C,MX19*%
X85190001Y-107632501D03*
X72290001Y-110172501D03*
%TD*%
%TO.C,MX78*%
X62765001Y-186372501D03*
X75665001Y-183832501D03*
%TD*%
%TO.C,MX15*%
X343752501Y-86360001D03*
X356652501Y-83820001D03*
%TD*%
%TO.C,MX44*%
X253265001Y-129222501D03*
X266165001Y-126682501D03*
%TD*%
%TO.C,MX75*%
X297121251Y-164782501D03*
X284221251Y-167322501D03*
%TD*%
%TO.C,MX85*%
X356652501Y-183832501D03*
X343752501Y-186372501D03*
%TD*%
%TO.C,MX7*%
X189965001Y-83820001D03*
X177065001Y-86360001D03*
%TD*%
%TO.C,MX60*%
X270927501Y-145732501D03*
X258027501Y-148272501D03*
%TD*%
%TO.C,MX40*%
X189965001Y-126682501D03*
X177065001Y-129222501D03*
%TD*%
%TO.C,MX84*%
X324702501Y-186372501D03*
X337602501Y-183832501D03*
%TD*%
%TO.C,MX21*%
X110390001Y-110172501D03*
X123290001Y-107632501D03*
%TD*%
%TO.C,MX49*%
X49471251Y-145732501D03*
X36571251Y-148272501D03*
%TD*%
%TO.C,MX4*%
X123290001Y-83820001D03*
X110390001Y-86360001D03*
%TD*%
%TO.C,MX1*%
X47090001Y-83820001D03*
X34190001Y-86360001D03*
%TD*%
%TO.C,MX23*%
X148490001Y-110172501D03*
X161390001Y-107632501D03*
%TD*%
%TO.C,MX13*%
X300890001Y-86360001D03*
X313790001Y-83820001D03*
%TD*%
%TO.C,MX38*%
X138965001Y-129222501D03*
X151865001Y-126682501D03*
%TD*%
%TO.C,MX63*%
X343752501Y-110172501D03*
X356652501Y-107632501D03*
%TD*%
%TO.C,MX83*%
X296127501Y-186372501D03*
X309027501Y-183832501D03*
%TD*%
%TO.C,MX8*%
X196115001Y-86360001D03*
X209015001Y-83820001D03*
%TD*%
%TO.C,MX47*%
X324702501Y-129222501D03*
X337602501Y-126682501D03*
%TD*%
%TO.C,MX57*%
X200877501Y-148272501D03*
X213777501Y-145732501D03*
%TD*%
%TO.C,MX82*%
X285215001Y-183832501D03*
X272315001Y-186372501D03*
%TD*%
%TO.C,MX10*%
X256640001Y-83820001D03*
X243740001Y-86360001D03*
%TD*%
%TO.C,MX62*%
X356652501Y-164782501D03*
X343752501Y-167322501D03*
%TD*%
%TO.C,MX36*%
X113765001Y-126682501D03*
X100865001Y-129222501D03*
%TD*%
%TO.C,MX52*%
X105627501Y-148272501D03*
X118527501Y-145732501D03*
%TD*%
%TO.C,MX25*%
X199490001Y-107632501D03*
X186590001Y-110172501D03*
%TD*%
%TO.C,MX35*%
X94715001Y-126682501D03*
X81815001Y-129222501D03*
%TD*%
%TO.C,MX17*%
X34190001Y-110172501D03*
X47090001Y-107632501D03*
%TD*%
%TO.C,MX69*%
X166152501Y-164782501D03*
X153252501Y-167322501D03*
%TD*%
%TO.C,MX86*%
X362802501Y-186372501D03*
X375702501Y-183832501D03*
%TD*%
%TO.C,MX74*%
X248502501Y-167322501D03*
X261402501Y-164782501D03*
%TD*%
%TO.C,MX18*%
X66140001Y-107632501D03*
X53240001Y-110172501D03*
%TD*%
%TO.C,MX58*%
X219927501Y-148272501D03*
X232827501Y-145732501D03*
%TD*%
%TO.C,MX51*%
X99477501Y-145732501D03*
X86577501Y-148272501D03*
%TD*%
%TO.C,MX53*%
X137577501Y-145732501D03*
X124677501Y-148272501D03*
%TD*%
M02*
