M48
; DRILL file {KiCad (6.0.1)} date Sat Feb 19 02:25:24 2022
; FORMAT={-:-/ absolute / inch / decimal}
; #@! TF.CreationDate,2022-02-19T02:25:24-05:00
; #@! TF.GenerationSoftware,Kicad,Pcbnew,(6.0.1)
; #@! TF.FileFunction,NonPlated,1,2,NPTH
FMAT,2
INCH
; #@! TA.AperFunction,NonPlated,NPTH,ComponentDrill
T1C0.0689
; #@! TA.AperFunction,NonPlated,NPTH,ComponentDrill
T2C0.1200
; #@! TA.AperFunction,NonPlated,NPTH,ComponentDrill
T3C0.1570
%
G90
G05
T1
X1.4563Y-4.0
X1.4563Y-4.9375
X1.55Y-6.4375
X1.6438Y-5.6875
X1.6438Y-7.9375
X1.8562Y-4.0
X1.8562Y-4.9375
X1.925Y-7.1875
X1.95Y-6.4375
X2.0437Y-5.6875
X2.0437Y-7.9375
X2.2062Y-4.9375
X2.325Y-7.1875
X2.5812Y-5.6875
X2.5812Y-7.9375
X2.6062Y-4.9375
X2.7687Y-6.4375
X2.9562Y-4.0
X2.9562Y-4.9375
X2.9812Y-5.6875
X2.9812Y-7.9375
X3.1437Y-7.1875
X3.1687Y-6.4375
X3.3312Y-5.6875
X3.3562Y-4.0
X3.3562Y-4.9375
X3.5187Y-6.4375
X3.5187Y-7.9375
X3.5437Y-7.1875
X3.7062Y-4.0
X3.7062Y-4.9375
X3.7312Y-5.6875
X3.8937Y-7.1875
X3.9187Y-6.4375
X3.9187Y-7.9375
X4.0812Y-5.6875
X4.1063Y-4.0
X4.1063Y-4.9375
X4.2687Y-6.4375
X4.2938Y-7.1875
X4.4562Y-4.0
X4.4562Y-4.9375
X4.4813Y-5.6875
X4.6437Y-7.1875
X4.6688Y-6.4375
X4.8312Y-5.6875
X4.8563Y-4.0
X4.8563Y-4.9375
X5.0187Y-6.4375
X5.0438Y-7.1875
X5.2062Y-4.0
X5.2062Y-4.9375
X5.2313Y-5.6875
X5.3937Y-7.1875
X5.4188Y-6.4375
X5.5812Y-5.6875
X5.6063Y-4.0
X5.6063Y-4.9375
X5.7687Y-6.4375
X5.7938Y-7.1875
X5.9562Y-4.9375
X5.9813Y-5.6875
X6.1437Y-7.1875
X6.1688Y-6.4375
X6.3312Y-4.0
X6.3312Y-5.6875
X6.3563Y-4.9375
X6.5187Y-6.4375
X6.5438Y-7.1875
X6.7062Y-4.9375
X6.7062Y-7.9375
X6.7313Y-4.0
X6.7313Y-5.6875
X6.8937Y-7.1875
X6.9188Y-6.4375
X7.0812Y-4.0
X7.0812Y-5.6875
X7.1063Y-4.9375
X7.1063Y-7.9375
X7.2687Y-6.4375
X7.2938Y-7.1875
X7.4562Y-4.9375
X7.4813Y-4.0
X7.4813Y-5.6875
X7.6437Y-7.1875
X7.6688Y-6.4375
X7.8312Y-4.0
X7.8312Y-5.6875
X7.8563Y-4.9375
X8.0187Y-6.4375
X8.0437Y-7.1875
X8.2062Y-4.9375
X8.2312Y-4.0
X8.2312Y-5.6875
X8.3937Y-7.1875
X8.4187Y-6.4375
X8.5812Y-4.0
X8.5812Y-5.6875
X8.6062Y-4.9375
X8.7687Y-6.4375
X8.7937Y-7.1875
X8.9562Y-4.9375
X8.9812Y-4.0
X8.9812Y-5.6875
X9.1437Y-7.1875
X9.1687Y-6.4375
X9.3312Y-5.6875
X9.3562Y-4.9375
X9.5187Y-6.4375
X9.5437Y-7.1875
X9.7062Y-4.0
X9.7062Y-4.9375
X9.7312Y-5.6875
X9.8937Y-7.1875
X9.8937Y-7.9375
X9.9187Y-6.4375
X10.0812Y-5.6875
X10.1062Y-4.0
X10.1062Y-4.9375
X10.2687Y-6.4375
X10.2937Y-7.1875
X10.2937Y-7.9375
X10.4562Y-4.0
X10.4562Y-4.9375
X10.4812Y-5.6875
X10.6687Y-6.4375
X10.8312Y-5.6875
X10.8312Y-7.9375
X10.8562Y-4.0
X10.8562Y-4.9375
X11.2062Y-4.0
X11.2312Y-5.6875
X11.2312Y-7.9375
X11.3Y-7.1875
X11.4875Y-6.4375
X11.5812Y-4.9375
X11.6062Y-4.0
X11.7Y-7.1875
X11.7687Y-5.6875
X11.7687Y-7.9375
X11.8875Y-6.4375
X11.9562Y-4.0
X11.9812Y-4.9375
X12.1687Y-5.6875
X12.1687Y-7.9375
X12.3562Y-4.0
X12.8937Y-4.0
X12.8937Y-4.9375
X12.8937Y-5.6875
X12.8937Y-7.9375
X13.2937Y-4.0
X13.2937Y-4.9375
X13.2937Y-5.6875
X13.2937Y-7.9375
X13.6437Y-4.0
X13.6437Y-4.9375
X13.6437Y-5.6875
X13.6437Y-7.1875
X13.6437Y-7.9375
X14.0437Y-4.0
X14.0437Y-4.9375
X14.0437Y-5.6875
X14.0437Y-7.1875
X14.0437Y-7.9375
X14.3937Y-4.0
X14.3937Y-4.9375
X14.3937Y-5.6875
X14.3937Y-7.9375
X14.7937Y-4.0
X14.7937Y-4.9375
X14.7937Y-5.6875
X14.7937Y-7.9375
T2
X1.655Y-6.9125
X2.595Y-6.9125
X4.6562Y-8.2125
X9.1562Y-8.2125
X11.03Y-6.9125
X11.2175Y-6.1625
X11.3112Y-4.6625
X11.97Y-6.9125
X12.1575Y-6.1625
X12.2512Y-4.6625
T3
X1.655Y-7.5125
X1.6562Y-4.0
X1.6562Y-4.9375
X1.75Y-6.4375
X1.8438Y-5.6875
X1.8438Y-7.9375
X2.125Y-7.1875
X2.4062Y-4.9375
X2.595Y-7.5125
X2.7812Y-5.6875
X2.7812Y-7.9375
X2.9688Y-6.4375
X3.1562Y-4.0
X3.1562Y-4.9375
X3.3438Y-7.1875
X3.5312Y-5.6875
X3.7188Y-6.4375
X3.7188Y-7.9375
X3.9062Y-4.0
X3.9062Y-4.9375
X4.0938Y-7.1875
X4.2812Y-5.6875
X4.4688Y-6.4375
X4.6562Y-4.0
X4.6562Y-4.9375
X4.6562Y-7.6125
X4.8438Y-7.1875
X5.0312Y-5.6875
X5.2188Y-6.4375
X5.4062Y-4.0
X5.4062Y-4.9375
X5.5938Y-7.1875
X5.7812Y-5.6875
X5.9688Y-6.4375
X6.1562Y-4.9375
X6.3438Y-7.1875
X6.5312Y-4.0
X6.5312Y-5.6875
X6.7188Y-6.4375
X6.9062Y-4.9375
X6.9062Y-7.9375
X7.0938Y-7.1875
X7.2812Y-4.0
X7.2812Y-5.6875
X7.4688Y-6.4375
X7.6562Y-4.9375
X7.8438Y-7.1875
X8.0312Y-4.0
X8.0312Y-5.6875
X8.2188Y-6.4375
X8.4062Y-4.9375
X8.5938Y-7.1875
X8.7812Y-4.0
X8.7812Y-5.6875
X8.9688Y-6.4375
X9.1562Y-4.9375
X9.1562Y-7.6125
X9.3438Y-7.1875
X9.5312Y-5.6875
X9.7188Y-6.4375
X9.9062Y-4.0
X9.9062Y-4.9375
X10.0938Y-7.1875
X10.0938Y-7.9375
X10.2812Y-5.6875
X10.4688Y-6.4375
X10.6562Y-4.0
X10.6562Y-4.9375
X11.03Y-7.5125
X11.0312Y-5.6875
X11.0312Y-7.9375
X11.2175Y-6.7625
X11.3112Y-5.2625
X11.4062Y-4.0
X11.5Y-7.1875
X11.6875Y-6.4375
X11.7812Y-4.9375
X11.9688Y-5.6875
X11.9688Y-7.9375
X11.97Y-7.5125
X12.1562Y-4.0
X12.1575Y-6.7625
X12.2512Y-5.2625
X13.0938Y-4.0
X13.0938Y-4.9375
X13.0938Y-5.6875
X13.0938Y-7.9375
X13.8438Y-4.0
X13.8438Y-4.9375
X13.8438Y-5.6875
X13.8438Y-7.1875
X13.8438Y-7.9375
X14.5938Y-4.0
X14.5938Y-4.9375
X14.5938Y-5.6875
X14.5938Y-7.9375
T0
M30
