M48
; DRILL file {KiCad (6.0.2)} date Sun Feb 20 23:43:42 2022
; FORMAT={-:-/ absolute / inch / decimal}
; #@! TF.CreationDate,2022-02-20T23:43:42-05:00
; #@! TF.GenerationSoftware,Kicad,Pcbnew,(6.0.2)
; #@! TF.FileFunction,Plated,1,2,PTH
FMAT,2
INCH
; #@! TA.AperFunction,Plated,PTH,ViaDrill
T1C0.0157
; #@! TA.AperFunction,Plated,PTH,ComponentDrill
T2C0.0157
; #@! TA.AperFunction,Plated,PTH,ComponentDrill
T3C0.0315
; #@! TA.AperFunction,Plated,PTH,ComponentDrill
T4C0.0409
; #@! TA.AperFunction,Plated,PTH,ComponentDrill
T5C0.0433
; #@! TA.AperFunction,Plated,PTH,ComponentDrill
T6C0.1181
%
G90
G05
T1
X1.3461Y-3.8511
X1.5012Y-3.2699
X1.5012Y-3.5455
X1.5012Y-4.0967
X1.5012Y-5.4747
X1.5012Y-6.0258
X1.5012Y-6.3014
X1.5012Y-6.577
X1.5012Y-6.8526
X1.5012Y-7.1282
X1.5012Y-7.6794
X1.7768Y-4.0967
X1.7768Y-4.6479
X1.7768Y-4.9235
X1.7768Y-5.4747
X1.7768Y-6.8526
X1.7768Y-7.1282
X1.7768Y-7.6794
X2.0524Y-3.2699
X2.0524Y-3.5455
X2.0524Y-4.0967
X2.0524Y-5.4747
X2.0524Y-6.0258
X2.0524Y-6.3014
X2.0524Y-6.8526
X2.0524Y-7.1282
X2.0524Y-7.6794
X2.328Y-3.2699
X2.328Y-3.5455
X2.328Y-4.0967
X2.328Y-4.9235
X2.328Y-5.1991
X2.328Y-5.7502
X2.328Y-6.0258
X2.328Y-6.8526
X2.328Y-7.1282
X2.328Y-7.4038
X2.6035Y-3.2699
X2.6035Y-3.5455
X2.6035Y-4.0967
X2.6035Y-4.9235
X2.6035Y-5.7502
X2.6035Y-6.0258
X2.6035Y-6.577
X2.7525Y-6.3075
X2.8791Y-3.2699
X2.8791Y-5.1991
X2.8791Y-6.577
X2.8791Y-6.8526
X2.8791Y-7.4038
X3.1547Y-4.0967
X3.1547Y-4.9235
X3.1547Y-5.1991
X3.1547Y-6.0258
X3.1547Y-6.8526
X3.1547Y-7.1282
X3.1547Y-7.4038
X3.4303Y-4.0967
X3.4303Y-4.9235
X3.4303Y-6.8526
X3.7059Y-3.2699
X3.7059Y-6.8526
X3.7059Y-7.1282
X3.7275Y-6.2825
X3.9815Y-4.0967
X3.9815Y-6.0258
X3.9815Y-6.8526
X3.9815Y-7.1282
X4.1475Y-5.5525
X4.2571Y-3.2699
X4.2571Y-4.0967
X4.2571Y-6.8526
X4.2571Y-7.1282
X4.2571Y-7.4038
X4.5327Y-3.2699
X4.5327Y-4.0967
X4.5327Y-6.0258
X4.5327Y-6.8526
X4.5327Y-7.4038
X4.8083Y-4.0967
X4.8083Y-4.9235
X4.8083Y-5.7502
X4.8083Y-6.0258
X4.8083Y-6.8526
X4.8083Y-7.1282
X4.8083Y-7.4038
X4.8675Y-5.5225
X5.0839Y-3.2699
X5.0839Y-3.5455
X5.0839Y-4.0967
X5.0839Y-6.0258
X5.0839Y-6.8526
X5.0839Y-7.1282
X5.0839Y-7.4038
X5.3594Y-3.2699
X5.3594Y-4.9235
X5.3594Y-6.0258
X5.3594Y-6.8526
X5.3594Y-7.1282
X5.3594Y-7.4038
X5.635Y-4.0967
X5.635Y-4.9235
X5.635Y-6.0258
X5.635Y-6.8526
X5.635Y-7.1282
X5.635Y-7.4038
X5.733Y-3.888
X5.9106Y-3.2699
X5.9106Y-3.5455
X5.9106Y-5.7502
X5.9106Y-6.8526
X5.9106Y-7.1282
X5.9106Y-7.4038
X6.1862Y-3.2699
X6.1862Y-3.5455
X6.1862Y-6.0258
X6.1862Y-7.1282
X6.1862Y-7.4038
X6.458Y-3.913
X6.4618Y-3.2699
X6.4618Y-4.0967
X6.4618Y-4.9235
X6.4618Y-6.8526
X6.4618Y-7.4038
X6.7374Y-6.8526
X6.7374Y-7.1282
X7.013Y-3.2699
X7.013Y-4.3723
X7.013Y-4.9235
X7.013Y-6.0258
X7.013Y-6.8526
X7.183Y-3.938
X7.2886Y-4.0967
X7.2886Y-6.8526
X7.2886Y-7.1282
X7.2886Y-7.4038
X7.5642Y-6.0258
X7.5642Y-6.8526
X7.5642Y-7.1282
X7.5642Y-7.4038
X7.8398Y-3.2699
X7.8398Y-4.9235
X7.8398Y-5.7502
X7.8398Y-6.0258
X7.8398Y-6.8526
X7.8398Y-7.1282
X7.8398Y-7.4038
X7.9125Y-3.9625
X8.1154Y-3.5455
X8.1154Y-4.0967
X8.1154Y-5.1991
X8.1154Y-6.8526
X8.1154Y-7.1282
X8.1154Y-7.4038
X8.3909Y-3.2699
X8.3909Y-4.9235
X8.3909Y-5.1991
X8.3909Y-6.0258
X8.3909Y-6.8526
X8.3909Y-7.1282
X8.3909Y-7.4038
X8.6665Y-3.2699
X8.6665Y-4.9235
X8.6665Y-6.8526
X8.6665Y-7.1282
X8.6665Y-7.4038
X8.9421Y-6.8526
X8.9421Y-7.1282
X8.9421Y-7.4038
X9.008Y-3.988
X9.2177Y-3.2699
X9.2177Y-3.5455
X9.2177Y-6.0258
X9.2177Y-6.8526
X9.2177Y-7.4038
X9.4933Y-3.2699
X9.4933Y-6.8526
X9.4933Y-7.1282
X9.4933Y-7.4038
X9.733Y-4.013
X9.7689Y-3.2699
X9.7689Y-6.8526
X9.7689Y-7.1282
X10.0445Y-4.9235
X10.0445Y-5.7502
X10.0445Y-6.0258
X10.0445Y-6.8526
X10.0445Y-7.1282
X10.3201Y-3.2699
X10.3201Y-3.5455
X10.3201Y-6.0258
X10.3201Y-6.8526
X10.3201Y-7.1282
X10.458Y-4.038
X10.5957Y-3.2699
X10.5957Y-6.0258
X10.5957Y-6.577
X10.5957Y-6.8526
X10.5957Y-7.1282
X10.5957Y-7.4038
X10.8713Y-4.9235
X10.8713Y-5.7502
X10.8713Y-6.0258
X10.8713Y-6.3014
X10.8713Y-7.1282
X11.1469Y-3.2699
X11.1469Y-4.3723
X11.1469Y-6.0258
X11.4224Y-4.0967
X11.4224Y-4.9235
X11.4224Y-5.1991
X11.4224Y-6.3014
X11.4224Y-7.4038
X11.698Y-4.9235
X11.698Y-7.1282
X11.9736Y-3.2699
X11.9736Y-6.0258
X11.9736Y-6.3014
X12.2492Y-3.5455
X12.2492Y-4.3723
X12.2492Y-6.3014
X12.2492Y-6.577
X12.5248Y-3.2699
X12.5248Y-5.7502
X12.5248Y-6.3014
X12.5248Y-6.577
X12.5248Y-6.8526
X12.5248Y-7.4038
X12.5925Y-4.6813
X12.7825Y-5.2425
X12.8004Y-3.2699
X12.8004Y-3.8211
X12.8004Y-4.0967
X12.8004Y-6.577
X12.8004Y-6.8526
X12.9125Y-5.5625
X13.076Y-3.8211
X13.076Y-4.0967
X13.076Y-7.1282
X13.3516Y-3.5455
X13.3516Y-3.8211
X13.3516Y-4.0967
X13.3516Y-6.0258
X13.3516Y-6.3014
X13.3516Y-6.577
X13.3516Y-7.1282
X13.6272Y-3.2699
X13.6272Y-3.8211
X13.6272Y-4.0967
X13.6272Y-5.7502
X13.6272Y-6.3014
X13.6272Y-7.1282
X13.9028Y-3.8211
X13.9028Y-4.0967
X13.9028Y-5.7502
X13.9028Y-6.3014
X14.1783Y-3.2699
X14.1783Y-3.5455
X14.1783Y-3.8211
X14.1783Y-4.0967
X14.1783Y-7.1282
X14.2825Y-7.0026
X14.4539Y-3.2699
X14.4539Y-3.8211
X14.4539Y-4.0967
X14.4539Y-4.9235
X14.4539Y-5.4747
X14.4539Y-5.7502
X14.4539Y-6.3014
X14.4539Y-6.577
X14.4539Y-6.8526
X14.4539Y-7.1282
X14.7295Y-3.8211
X14.7295Y-4.0967
X14.7295Y-5.4747
X14.7295Y-5.7502
X14.7295Y-6.0258
X14.7295Y-6.3014
X14.7295Y-6.577
X14.7295Y-6.8526
X14.7295Y-7.1282
T2
X1.275Y-3.37
X1.275Y-3.43
X1.275Y-4.3075
X1.275Y-4.3675
X1.3688Y-5.8075
X1.3688Y-5.8675
X1.4625Y-5.0575
X1.4625Y-5.1175
X1.4625Y-7.3075
X1.4625Y-7.3675
X1.7438Y-6.5575
X1.7438Y-6.6175
X1.925Y-3.27
X1.925Y-3.33
X1.925Y-4.2075
X1.925Y-4.2675
X2.0188Y-5.7075
X2.0188Y-5.7675
X2.025Y-4.3075
X2.025Y-4.3675
X2.1125Y-4.9575
X2.1125Y-5.0175
X2.1125Y-7.2075
X2.1125Y-7.2675
X2.3938Y-6.4575
X2.3938Y-6.5175
X2.4Y-5.0575
X2.4Y-5.1175
X2.4Y-7.3075
X2.4Y-7.3675
X2.5875Y-5.8075
X2.5875Y-5.8675
X2.675Y-4.2075
X2.675Y-4.2675
X2.775Y-3.37
X2.775Y-3.43
X2.775Y-4.3075
X2.775Y-4.3675
X2.9625Y-6.5575
X2.9625Y-6.6175
X3.05Y-4.9575
X3.05Y-5.0175
X3.05Y-7.2075
X3.05Y-7.2675
X3.15Y-5.0575
X3.15Y-5.1175
X3.2375Y-5.7075
X3.2375Y-5.7675
X3.3375Y-5.8075
X3.3375Y-5.8675
X3.3375Y-7.3075
X3.3375Y-7.3675
X3.425Y-3.27
X3.425Y-3.33
X3.425Y-4.2075
X3.425Y-4.2675
X3.525Y-3.37
X3.525Y-3.43
X3.525Y-4.3075
X3.525Y-4.3675
X3.6125Y-6.4575
X3.6125Y-6.5175
X3.7125Y-6.5575
X3.7125Y-6.6175
X3.8Y-4.9575
X3.8Y-5.0175
X3.9Y-5.0575
X3.9Y-5.1175
X3.9875Y-5.7075
X3.9875Y-5.7675
X3.9875Y-7.2075
X3.9875Y-7.2675
X4.0875Y-5.8075
X4.0875Y-5.8675
X4.175Y-3.27
X4.175Y-3.33
X4.175Y-4.2075
X4.175Y-4.2675
X4.275Y-3.37
X4.275Y-3.43
X4.275Y-4.3075
X4.275Y-4.3675
X4.3625Y-6.4575
X4.3625Y-6.5175
X4.4625Y-6.5575
X4.4625Y-6.6175
X4.55Y-4.9575
X4.55Y-5.0175
X4.65Y-5.0575
X4.65Y-5.1175
X4.7375Y-5.7075
X4.7375Y-5.7675
X4.8375Y-5.8075
X4.8375Y-5.8675
X4.925Y-3.27
X4.925Y-3.33
X4.925Y-4.2075
X4.925Y-4.2675
X5.025Y-3.37
X5.025Y-3.43
X5.025Y-4.3075
X5.025Y-4.3675
X5.1125Y-6.4575
X5.1125Y-6.5175
X5.2125Y-6.5575
X5.2125Y-6.6175
X5.3Y-4.9575
X5.3Y-5.0175
X5.4Y-5.0575
X5.4Y-5.1175
X5.4875Y-5.7075
X5.4875Y-5.7675
X5.5875Y-5.8075
X5.5875Y-5.8675
X5.675Y-3.27
X5.675Y-3.33
X5.675Y-4.2075
X5.675Y-4.2675
X5.775Y-4.3075
X5.775Y-4.3675
X5.8625Y-6.4575
X5.8625Y-6.5175
X5.9625Y-6.5575
X5.9625Y-6.6175
X6.05Y-4.9575
X6.05Y-5.0175
X6.15Y-3.37
X6.15Y-3.43
X6.15Y-5.0575
X6.15Y-5.1175
X6.2375Y-5.7075
X6.2375Y-5.7675
X6.3375Y-5.8075
X6.3375Y-5.8675
X6.425Y-4.2075
X6.425Y-4.2675
X6.525Y-4.3075
X6.525Y-4.3675
X6.525Y-7.3075
X6.525Y-7.3675
X6.6125Y-6.4575
X6.6125Y-6.5175
X6.7125Y-6.5575
X6.7125Y-6.6175
X6.8Y-3.27
X6.8Y-3.33
X6.8Y-4.9575
X6.8Y-5.0175
X6.9Y-3.37
X6.9Y-3.43
X6.9Y-5.0575
X6.9Y-5.1175
X6.9875Y-5.7075
X6.9875Y-5.7675
X7.0875Y-5.8075
X7.0875Y-5.8675
X7.175Y-4.2075
X7.175Y-4.2675
X7.175Y-7.2075
X7.175Y-7.2675
X7.275Y-4.3075
X7.275Y-4.3675
X7.3625Y-6.4575
X7.3625Y-6.5175
X7.4625Y-6.5575
X7.4625Y-6.6175
X7.55Y-3.27
X7.55Y-3.33
X7.55Y-4.9575
X7.55Y-5.0175
X7.65Y-3.37
X7.65Y-3.43
X7.65Y-5.0575
X7.65Y-5.1175
X7.7375Y-5.7075
X7.7375Y-5.7675
X7.8375Y-5.8075
X7.8375Y-5.8675
X7.925Y-4.2075
X7.925Y-4.2675
X8.025Y-4.3075
X8.025Y-4.3675
X8.1125Y-6.4575
X8.1125Y-6.5175
X8.2125Y-6.5575
X8.2125Y-6.6175
X8.3Y-3.27
X8.3Y-3.33
X8.3Y-4.9575
X8.3Y-5.0175
X8.4Y-3.37
X8.4Y-3.43
X8.4Y-5.0575
X8.4Y-5.1175
X8.4875Y-5.7075
X8.4875Y-5.7675
X8.5875Y-5.8075
X8.5875Y-5.8675
X8.675Y-4.2075
X8.675Y-4.2675
X8.775Y-4.3075
X8.775Y-4.3675
X8.8625Y-6.4575
X8.8625Y-6.5175
X8.9625Y-6.5575
X8.9625Y-6.6175
X9.05Y-3.27
X9.05Y-3.33
X9.05Y-4.9575
X9.05Y-5.0175
X9.15Y-5.0575
X9.15Y-5.1175
X9.2375Y-5.7075
X9.2375Y-5.7675
X9.3375Y-5.8075
X9.3375Y-5.8675
X9.425Y-4.2075
X9.425Y-4.2675
X9.525Y-3.37
X9.525Y-3.43
X9.525Y-4.3075
X9.525Y-4.3675
X9.6125Y-6.4575
X9.6125Y-6.5175
X9.7125Y-6.5575
X9.7125Y-6.6175
X9.7125Y-7.3075
X9.7125Y-7.3675
X9.8Y-4.9575
X9.8Y-5.0175
X9.9Y-5.0575
X9.9Y-5.1175
X9.9875Y-5.7075
X9.9875Y-5.7675
X10.0875Y-5.8075
X10.0875Y-5.8675
X10.175Y-3.27
X10.175Y-3.33
X10.175Y-4.2075
X10.175Y-4.2675
X10.275Y-3.37
X10.275Y-3.43
X10.275Y-4.3075
X10.275Y-4.3675
X10.3625Y-6.4575
X10.3625Y-6.5175
X10.3625Y-7.2075
X10.3625Y-7.2675
X10.55Y-4.9575
X10.55Y-5.0175
X10.65Y-5.0575
X10.65Y-5.1175
X10.65Y-7.3075
X10.65Y-7.3675
X10.7375Y-5.7075
X10.7375Y-5.7675
X10.925Y-3.27
X10.925Y-3.33
X10.925Y-4.2075
X10.925Y-4.2675
X11.025Y-3.37
X11.025Y-3.43
X11.1188Y-6.5575
X11.1188Y-6.6175
X11.3Y-4.9575
X11.3Y-5.0175
X11.3Y-7.2075
X11.3Y-7.2675
X11.3063Y-5.8075
X11.3063Y-5.8675
X11.4Y-4.3075
X11.4Y-4.3675
X11.5875Y-5.0575
X11.5875Y-5.1175
X11.5875Y-7.3075
X11.5875Y-7.3675
X11.675Y-3.27
X11.675Y-3.33
X11.7688Y-6.4575
X11.7688Y-6.5175
X11.775Y-3.37
X11.775Y-3.43
X11.9563Y-5.7075
X11.9563Y-5.7675
X12.05Y-4.2075
X12.05Y-4.2675
X12.2375Y-4.9575
X12.2375Y-5.0175
X12.2375Y-7.2075
X12.2375Y-7.2675
X12.425Y-3.27
X12.425Y-3.33
X12.7125Y-3.37
X12.7125Y-3.43
X12.7125Y-4.3075
X12.7125Y-4.3675
X12.7125Y-5.0575
X12.7125Y-5.1175
X12.7125Y-7.3075
X12.7125Y-7.3675
X13.3625Y-3.27
X13.3625Y-3.33
X13.3625Y-4.2075
X13.3625Y-4.2675
X13.3625Y-4.9575
X13.3625Y-5.0175
X13.3625Y-7.2075
X13.3625Y-7.2675
X13.4625Y-3.37
X13.4625Y-3.43
X13.4625Y-4.3075
X13.4625Y-4.3675
X13.4625Y-5.0575
X13.4625Y-5.1175
X13.4625Y-6.5575
X13.4625Y-6.6175
X13.4625Y-7.3075
X13.4625Y-7.3675
X14.1125Y-3.27
X14.1125Y-3.33
X14.1125Y-4.2075
X14.1125Y-4.2675
X14.1125Y-4.9575
X14.1125Y-5.0175
X14.1125Y-6.4575
X14.1125Y-6.5175
X14.1125Y-7.2075
X14.1125Y-7.2675
X14.2125Y-3.37
X14.2125Y-3.43
X14.2125Y-4.3075
X14.2125Y-4.3675
X14.2125Y-5.0575
X14.2125Y-5.1175
X14.2125Y-7.3075
X14.2125Y-7.3675
X14.8625Y-3.27
X14.8625Y-3.33
X14.8625Y-4.2075
X14.8625Y-4.2675
X14.8625Y-4.9575
X14.8625Y-5.0175
X14.8625Y-7.2075
X14.8625Y-7.2675
T3
X1.85Y-6.3125
X1.9375Y-3.45
X1.9375Y-3.75
X1.9375Y-4.3813
X1.9375Y-4.6813
X2.0313Y-5.8875
X2.0313Y-6.1875
X2.125Y-5.1375
X2.125Y-5.4375
X2.125Y-7.3875
X2.125Y-7.6875
X2.15Y-6.3125
X2.4063Y-6.6375
X2.4063Y-6.9375
X2.6875Y-4.3813
X2.6875Y-4.6813
X3.0625Y-5.1375
X3.0625Y-5.4375
X3.0625Y-7.3813
X3.0625Y-7.6813
X3.25Y-5.8875
X3.25Y-6.1875
X3.4375Y-3.45
X3.4375Y-3.75
X3.4375Y-4.3813
X3.4375Y-4.6813
X3.625Y-6.6375
X3.625Y-6.9375
X3.8125Y-5.1375
X3.8125Y-5.4375
X4.0Y-5.8875
X4.0Y-6.1875
X4.0Y-7.3813
X4.0Y-7.6813
X4.1875Y-3.45
X4.1875Y-3.75
X4.1875Y-4.3813
X4.1875Y-4.6813
X4.375Y-6.6375
X4.375Y-6.9375
X4.5625Y-5.1375
X4.5625Y-5.4375
X4.75Y-5.8875
X4.75Y-6.1875
X4.9375Y-3.45
X4.9375Y-3.75
X4.9375Y-4.3813
X4.9375Y-4.6813
X5.125Y-6.6375
X5.125Y-6.9375
X5.3125Y-5.1375
X5.3125Y-5.4375
X5.5Y-5.8875
X5.5Y-6.1875
X5.6875Y-3.45
X5.6875Y-3.75
X5.6875Y-4.3813
X5.6875Y-4.6813
X5.875Y-6.6375
X5.875Y-6.9375
X6.0625Y-5.1375
X6.0625Y-5.4375
X6.25Y-5.8875
X6.25Y-6.1875
X6.4375Y-4.3813
X6.4375Y-4.6813
X6.625Y-6.6375
X6.625Y-6.9375
X6.8125Y-3.45
X6.8125Y-3.75
X6.8125Y-5.1375
X6.8125Y-5.4375
X7.0Y-5.8875
X7.0Y-6.1875
X7.1875Y-4.3813
X7.1875Y-4.6813
X7.1875Y-7.3813
X7.1875Y-7.6813
X7.375Y-6.6375
X7.375Y-6.9375
X7.5625Y-3.45
X7.5625Y-3.75
X7.5625Y-5.1375
X7.5625Y-5.4375
X7.75Y-5.8875
X7.75Y-6.1875
X7.9375Y-4.3813
X7.9375Y-4.6813
X8.125Y-6.6375
X8.125Y-6.9375
X8.3125Y-3.45
X8.3125Y-3.75
X8.3125Y-5.1375
X8.3125Y-5.4375
X8.5Y-5.8875
X8.5Y-6.1875
X8.6875Y-4.3813
X8.6875Y-4.6813
X8.875Y-6.6375
X8.875Y-6.9375
X9.0625Y-3.45
X9.0625Y-3.75
X9.0625Y-5.1375
X9.0625Y-5.4375
X9.25Y-5.8875
X9.25Y-6.1875
X9.4375Y-4.3813
X9.4375Y-4.6813
X9.625Y-6.6375
X9.625Y-6.9375
X9.8125Y-5.1375
X9.8125Y-5.4375
X10.0Y-5.8875
X10.0Y-6.1875
X10.1875Y-3.45
X10.1875Y-3.75
X10.1875Y-4.3813
X10.1875Y-4.6813
X10.375Y-6.6375
X10.375Y-6.9375
X10.375Y-7.3813
X10.375Y-7.6813
X10.5625Y-5.1375
X10.5625Y-5.4375
X10.75Y-5.8875
X10.75Y-6.1875
X10.9375Y-3.45
X10.9375Y-3.75
X10.9375Y-4.3813
X10.9375Y-4.6813
X11.3125Y-5.1375
X11.3125Y-5.4375
X11.3125Y-7.3813
X11.3125Y-7.6813
X11.6563Y-3.45
X11.6563Y-3.75
X11.7813Y-6.6375
X11.7813Y-6.9375
X11.9688Y-5.8875
X11.9688Y-6.1875
X12.0625Y-4.3813
X12.0625Y-4.6813
X12.25Y-5.1375
X12.25Y-5.4375
X12.25Y-7.3813
X12.25Y-7.6813
X12.4375Y-3.45
X12.4375Y-3.75
X13.375Y-3.45
X13.375Y-3.75
X13.375Y-4.3813
X13.375Y-4.6813
X13.375Y-5.1375
X13.375Y-5.4375
X13.375Y-7.3875
X13.375Y-7.6875
X13.4625Y-3.8825
X13.7625Y-3.8825
X14.125Y-3.45
X14.125Y-3.75
X14.125Y-4.3813
X14.125Y-4.6813
X14.125Y-5.1375
X14.125Y-5.4375
X14.125Y-6.6375
X14.125Y-6.9375
X14.125Y-7.3875
X14.125Y-7.6875
X14.875Y-3.45
X14.875Y-3.75
X14.875Y-4.3813
X14.875Y-4.6813
X14.875Y-5.1375
X14.875Y-5.4375
X14.875Y-7.3875
X14.875Y-7.6875
T4
X1.6688Y-6.1375
X1.7688Y-6.1375
X13.7625Y-3.7
X13.8625Y-3.7
T5
X12.4475Y-5.725
X12.4475Y-5.825
X12.4475Y-5.925
X12.4475Y-6.025
X12.4475Y-6.125
X12.4475Y-6.225
X12.4475Y-6.325
X12.4475Y-6.425
X12.4475Y-6.525
X12.4475Y-6.625
X12.4475Y-6.725
X12.4475Y-6.825
X12.4475Y-6.925
X12.4475Y-7.025
X13.0475Y-5.725
X13.0475Y-5.825
X13.0475Y-5.925
X13.0475Y-6.025
X13.0475Y-6.125
X13.0475Y-6.225
X13.0475Y-6.325
X13.0475Y-6.425
X13.0475Y-6.525
X13.0475Y-6.625
X13.0475Y-6.725
X13.0475Y-6.825
X13.0475Y-6.925
X13.0475Y-7.025
T6
X1.475Y-3.4
X1.475Y-4.3375
X1.5688Y-5.8375
X1.6625Y-5.0875
X1.6625Y-7.3375
X1.725Y-3.3
X1.725Y-4.2375
X1.8188Y-5.7375
X1.9125Y-4.9875
X1.9125Y-7.2375
X1.9438Y-6.5875
X2.1938Y-6.4875
X2.225Y-4.3375
X2.475Y-4.2375
X2.6Y-5.0875
X2.6Y-7.3375
X2.7875Y-5.8375
X2.85Y-4.9875
X2.85Y-7.2375
X2.975Y-3.4
X2.975Y-4.3375
X3.0375Y-5.7375
X3.1625Y-6.5875
X3.225Y-3.3
X3.225Y-4.2375
X3.35Y-5.0875
X3.4125Y-6.4875
X3.5375Y-5.8375
X3.5375Y-7.3375
X3.6Y-4.9875
X3.725Y-3.4
X3.725Y-4.3375
X3.7875Y-5.7375
X3.7875Y-7.2375
X3.9125Y-6.5875
X3.975Y-3.3
X3.975Y-4.2375
X4.1Y-5.0875
X4.1625Y-6.4875
X4.2875Y-5.8375
X4.35Y-4.9875
X4.475Y-3.4
X4.475Y-4.3375
X4.5375Y-5.7375
X4.6625Y-6.5875
X4.725Y-3.3
X4.725Y-4.2375
X4.85Y-5.0875
X4.9125Y-6.4875
X5.0375Y-5.8375
X5.1Y-4.9875
X5.225Y-3.4
X5.225Y-4.3375
X5.2875Y-5.7375
X5.4125Y-6.5875
X5.475Y-3.3
X5.475Y-4.2375
X5.6Y-5.0875
X5.6625Y-6.4875
X5.7875Y-5.8375
X5.85Y-4.9875
X5.975Y-4.3375
X6.0375Y-5.7375
X6.1625Y-6.5875
X6.225Y-4.2375
X6.35Y-3.4
X6.35Y-5.0875
X6.4125Y-6.4875
X6.5375Y-5.8375
X6.6Y-3.3
X6.6Y-4.9875
X6.725Y-4.3375
X6.725Y-7.3375
X6.7875Y-5.7375
X6.9125Y-6.5875
X6.975Y-4.2375
X6.975Y-7.2375
X7.1Y-3.4
X7.1Y-5.0875
X7.1625Y-6.4875
X7.2875Y-5.8375
X7.35Y-3.3
X7.35Y-4.9875
X7.475Y-4.3375
X7.5375Y-5.7375
X7.6625Y-6.5875
X7.725Y-4.2375
X7.85Y-3.4
X7.85Y-5.0875
X7.9125Y-6.4875
X8.0375Y-5.8375
X8.1Y-3.3
X8.1Y-4.9875
X8.225Y-4.3375
X8.2875Y-5.7375
X8.4125Y-6.5875
X8.475Y-4.2375
X8.6Y-3.4
X8.6Y-5.0875
X8.6625Y-6.4875
X8.7875Y-5.8375
X8.85Y-3.3
X8.85Y-4.9875
X8.975Y-4.3375
X9.0375Y-5.7375
X9.1625Y-6.5875
X9.225Y-4.2375
X9.35Y-5.0875
X9.4125Y-6.4875
X9.5375Y-5.8375
X9.6Y-4.9875
X9.725Y-3.4
X9.725Y-4.3375
X9.7875Y-5.7375
X9.9125Y-6.5875
X9.9125Y-7.3375
X9.975Y-3.3
X9.975Y-4.2375
X10.1Y-5.0875
X10.1625Y-6.4875
X10.1625Y-7.2375
X10.2875Y-5.8375
X10.35Y-4.9875
X10.475Y-3.4
X10.475Y-4.3375
X10.5375Y-5.7375
X10.725Y-3.3
X10.725Y-4.2375
X10.85Y-5.0875
X10.85Y-7.3375
X11.1Y-4.9875
X11.1Y-7.2375
X11.225Y-3.4
X11.3188Y-6.5875
X11.475Y-3.3
X11.5063Y-5.8375
X11.5688Y-6.4875
X11.6Y-4.3375
X11.7563Y-5.7375
X11.7875Y-5.0875
X11.7875Y-7.3375
X11.85Y-4.2375
X11.975Y-3.4
X12.0375Y-4.9875
X12.0375Y-7.2375
X12.225Y-3.3
X12.9125Y-3.4
X12.9125Y-4.3375
X12.9125Y-5.0875
X12.9125Y-7.3375
X13.1625Y-3.3
X13.1625Y-4.2375
X13.1625Y-4.9875
X13.1625Y-7.2375
X13.6625Y-3.4
X13.6625Y-4.3375
X13.6625Y-5.0875
X13.6625Y-6.5875
X13.6625Y-7.3375
X13.9125Y-3.3
X13.9125Y-4.2375
X13.9125Y-4.9875
X13.9125Y-6.4875
X13.9125Y-7.2375
X14.4125Y-3.4
X14.4125Y-4.3375
X14.4125Y-5.0875
X14.4125Y-7.3375
X14.6625Y-3.3
X14.6625Y-4.2375
X14.6625Y-4.9875
X14.6625Y-7.2375
T0
M30
