M48
; DRILL file {KiCad (6.0.2)} date Sun Feb 20 23:43:42 2022
; FORMAT={-:-/ absolute / inch / decimal}
; #@! TF.CreationDate,2022-02-20T23:43:42-05:00
; #@! TF.GenerationSoftware,Kicad,Pcbnew,(6.0.2)
; #@! TF.FileFunction,NonPlated,1,2,NPTH
FMAT,2
INCH
; #@! TA.AperFunction,NonPlated,NPTH,ComponentDrill
T1C0.0689
; #@! TA.AperFunction,NonPlated,NPTH,ComponentDrill
T2C0.1200
; #@! TA.AperFunction,NonPlated,NPTH,ComponentDrill
T3C0.1570
%
G90
G05
T1
X1.425Y-3.5
X1.425Y-4.4375
X1.5188Y-5.9375
X1.6125Y-5.1875
X1.6125Y-7.4375
X1.825Y-3.5
X1.825Y-4.4375
X1.8938Y-6.6875
X1.9188Y-5.9375
X2.0125Y-5.1875
X2.0125Y-7.4375
X2.175Y-4.4375
X2.2938Y-6.6875
X2.55Y-5.1875
X2.55Y-7.4375
X2.575Y-4.4375
X2.7375Y-5.9375
X2.925Y-3.5
X2.925Y-4.4375
X2.95Y-5.1875
X2.95Y-7.4375
X3.1125Y-6.6875
X3.1375Y-5.9375
X3.3Y-5.1875
X3.325Y-3.5
X3.325Y-4.4375
X3.4875Y-5.9375
X3.4875Y-7.4375
X3.5125Y-6.6875
X3.675Y-3.5
X3.675Y-4.4375
X3.7Y-5.1875
X3.8625Y-6.6875
X3.8875Y-5.9375
X3.8875Y-7.4375
X4.05Y-5.1875
X4.075Y-3.5
X4.075Y-4.4375
X4.2375Y-5.9375
X4.2625Y-6.6875
X4.425Y-3.5
X4.425Y-4.4375
X4.45Y-5.1875
X4.6125Y-6.6875
X4.6375Y-5.9375
X4.8Y-5.1875
X4.825Y-3.5
X4.825Y-4.4375
X4.9875Y-5.9375
X5.0125Y-6.6875
X5.175Y-3.5
X5.175Y-4.4375
X5.2Y-5.1875
X5.3625Y-6.6875
X5.3875Y-5.9375
X5.55Y-5.1875
X5.575Y-3.5
X5.575Y-4.4375
X5.7375Y-5.9375
X5.7625Y-6.6875
X5.925Y-4.4375
X5.95Y-5.1875
X6.1125Y-6.6875
X6.1375Y-5.9375
X6.3Y-3.5
X6.3Y-5.1875
X6.325Y-4.4375
X6.4875Y-5.9375
X6.5125Y-6.6875
X6.675Y-4.4375
X6.675Y-7.4375
X6.7Y-3.5
X6.7Y-5.1875
X6.8625Y-6.6875
X6.8875Y-5.9375
X7.05Y-3.5
X7.05Y-5.1875
X7.075Y-4.4375
X7.075Y-7.4375
X7.2375Y-5.9375
X7.2625Y-6.6875
X7.425Y-4.4375
X7.45Y-3.5
X7.45Y-5.1875
X7.6125Y-6.6875
X7.6375Y-5.9375
X7.8Y-3.5
X7.8Y-5.1875
X7.825Y-4.4375
X7.9875Y-5.9375
X8.0125Y-6.6875
X8.175Y-4.4375
X8.2Y-3.5
X8.2Y-5.1875
X8.3625Y-6.6875
X8.3875Y-5.9375
X8.55Y-3.5
X8.55Y-5.1875
X8.575Y-4.4375
X8.7375Y-5.9375
X8.7625Y-6.6875
X8.925Y-4.4375
X8.95Y-3.5
X8.95Y-5.1875
X9.1125Y-6.6875
X9.1375Y-5.9375
X9.3Y-5.1875
X9.325Y-4.4375
X9.4875Y-5.9375
X9.5125Y-6.6875
X9.675Y-3.5
X9.675Y-4.4375
X9.7Y-5.1875
X9.8625Y-6.6875
X9.8625Y-7.4375
X9.8875Y-5.9375
X10.05Y-5.1875
X10.075Y-3.5
X10.075Y-4.4375
X10.2375Y-5.9375
X10.2625Y-6.6875
X10.2625Y-7.4375
X10.425Y-3.5
X10.425Y-4.4375
X10.45Y-5.1875
X10.6375Y-5.9375
X10.8Y-5.1875
X10.8Y-7.4375
X10.825Y-3.5
X10.825Y-4.4375
X11.175Y-3.5
X11.2Y-5.1875
X11.2Y-7.4375
X11.2688Y-6.6875
X11.4563Y-5.9375
X11.55Y-4.4375
X11.575Y-3.5
X11.6688Y-6.6875
X11.7375Y-5.1875
X11.7375Y-7.4375
X11.8563Y-5.9375
X11.925Y-3.5
X11.95Y-4.4375
X12.1375Y-5.1875
X12.1375Y-7.4375
X12.325Y-3.5
X12.8625Y-3.5
X12.8625Y-4.4375
X12.8625Y-5.1875
X12.8625Y-7.4375
X13.2625Y-3.5
X13.2625Y-4.4375
X13.2625Y-5.1875
X13.2625Y-7.4375
X13.6125Y-3.5
X13.6125Y-4.4375
X13.6125Y-5.1875
X13.6125Y-6.6875
X13.6125Y-7.4375
X14.0125Y-3.5
X14.0125Y-4.4375
X14.0125Y-5.1875
X14.0125Y-6.6875
X14.0125Y-7.4375
X14.3625Y-3.5
X14.3625Y-4.4375
X14.3625Y-5.1875
X14.3625Y-7.4375
X14.7625Y-3.5
X14.7625Y-4.4375
X14.7625Y-5.1875
X14.7625Y-7.4375
T2
X1.6238Y-6.4125
X2.5638Y-6.4125
X4.625Y-7.7125
X9.125Y-7.7125
X10.9988Y-6.4125
X11.1863Y-5.6625
X11.28Y-4.1625
X11.9388Y-6.4125
X12.1263Y-5.6625
X12.22Y-4.1625
T3
X1.6238Y-7.0125
X1.625Y-3.5
X1.625Y-4.4375
X1.7188Y-5.9375
X1.8125Y-5.1875
X1.8125Y-7.4375
X2.0938Y-6.6875
X2.375Y-4.4375
X2.5638Y-7.0125
X2.75Y-5.1875
X2.75Y-7.4375
X2.9375Y-5.9375
X3.125Y-3.5
X3.125Y-4.4375
X3.3125Y-6.6875
X3.5Y-5.1875
X3.6875Y-5.9375
X3.6875Y-7.4375
X3.875Y-3.5
X3.875Y-4.4375
X4.0625Y-6.6875
X4.25Y-5.1875
X4.4375Y-5.9375
X4.625Y-3.5
X4.625Y-4.4375
X4.625Y-7.1125
X4.8125Y-6.6875
X5.0Y-5.1875
X5.1875Y-5.9375
X5.375Y-3.5
X5.375Y-4.4375
X5.5625Y-6.6875
X5.75Y-5.1875
X5.9375Y-5.9375
X6.125Y-4.4375
X6.3125Y-6.6875
X6.5Y-3.5
X6.5Y-5.1875
X6.6875Y-5.9375
X6.875Y-4.4375
X6.875Y-7.4375
X7.0625Y-6.6875
X7.25Y-3.5
X7.25Y-5.1875
X7.4375Y-5.9375
X7.625Y-4.4375
X7.8125Y-6.6875
X8.0Y-3.5
X8.0Y-5.1875
X8.1875Y-5.9375
X8.375Y-4.4375
X8.5625Y-6.6875
X8.75Y-3.5
X8.75Y-5.1875
X8.9375Y-5.9375
X9.125Y-4.4375
X9.125Y-7.1125
X9.3125Y-6.6875
X9.5Y-5.1875
X9.6875Y-5.9375
X9.875Y-3.5
X9.875Y-4.4375
X10.0625Y-6.6875
X10.0625Y-7.4375
X10.25Y-5.1875
X10.4375Y-5.9375
X10.625Y-3.5
X10.625Y-4.4375
X10.9988Y-7.0125
X11.0Y-5.1875
X11.0Y-7.4375
X11.1863Y-6.2625
X11.28Y-4.7625
X11.375Y-3.5
X11.4688Y-6.6875
X11.6563Y-5.9375
X11.75Y-4.4375
X11.9375Y-5.1875
X11.9375Y-7.4375
X11.9388Y-7.0125
X12.125Y-3.5
X12.1263Y-6.2625
X12.22Y-4.7625
X13.0625Y-3.5
X13.0625Y-4.4375
X13.0625Y-5.1875
X13.0625Y-7.4375
X13.8125Y-3.5
X13.8125Y-4.4375
X13.8125Y-5.1875
X13.8125Y-6.6875
X13.8125Y-7.4375
X14.5625Y-3.5
X14.5625Y-4.4375
X14.5625Y-5.1875
X14.5625Y-7.4375
T0
M30
