M48
; DRILL file {KiCad (6.0.1)} date Sat Feb 19 02:25:24 2022
; FORMAT={-:-/ absolute / inch / decimal}
; #@! TF.CreationDate,2022-02-19T02:25:24-05:00
; #@! TF.GenerationSoftware,Kicad,Pcbnew,(6.0.1)
; #@! TF.FileFunction,Plated,1,2,PTH
FMAT,2
INCH
; #@! TA.AperFunction,Plated,PTH,ViaDrill
T1C0.0157
; #@! TA.AperFunction,Plated,PTH,ComponentDrill
T2C0.0157
; #@! TA.AperFunction,Plated,PTH,ComponentDrill
T3C0.0315
; #@! TA.AperFunction,Plated,PTH,ComponentDrill
T4C0.0409
; #@! TA.AperFunction,Plated,PTH,ComponentDrill
T5C0.0433
; #@! TA.AperFunction,Plated,PTH,ComponentDrill
T6C0.1181
%
G90
G05
T1
X1.325Y-4.045
X1.325Y-4.595
X1.3773Y-4.3511
X1.5324Y-3.7699
X1.5324Y-4.0455
X1.5324Y-4.5967
X1.5324Y-5.9747
X1.5324Y-6.5258
X1.5324Y-6.8014
X1.5324Y-7.077
X1.5324Y-7.3526
X1.5324Y-7.6282
X1.5324Y-8.1794
X1.808Y-4.5967
X1.808Y-5.1479
X1.808Y-5.4235
X1.808Y-5.9747
X1.808Y-7.3526
X1.808Y-7.6282
X1.808Y-8.1794
X2.0836Y-3.7699
X2.0836Y-4.0455
X2.0836Y-4.5967
X2.0836Y-5.9747
X2.0836Y-6.5258
X2.0836Y-6.8014
X2.0836Y-7.3526
X2.0836Y-7.6282
X2.0836Y-8.1794
X2.3592Y-3.7699
X2.3592Y-4.0455
X2.3592Y-4.5967
X2.3592Y-5.4235
X2.3592Y-5.6991
X2.3592Y-6.2502
X2.3592Y-6.5258
X2.3592Y-7.3526
X2.3592Y-7.6282
X2.3592Y-7.9038
X2.6348Y-3.7699
X2.6348Y-4.0455
X2.6348Y-4.5967
X2.6348Y-5.4235
X2.6348Y-6.2502
X2.6348Y-6.5258
X2.6348Y-7.077
X2.7837Y-6.8075
X2.9104Y-3.7699
X2.9104Y-5.6991
X2.9104Y-7.077
X2.9104Y-7.3526
X2.9104Y-7.9038
X3.186Y-4.5967
X3.186Y-5.4235
X3.186Y-5.6991
X3.186Y-6.5258
X3.186Y-7.3526
X3.186Y-7.6282
X3.186Y-7.9038
X3.4616Y-4.5967
X3.4616Y-5.4235
X3.4616Y-7.3526
X3.7372Y-3.7699
X3.7372Y-7.3526
X3.7372Y-7.6282
X3.7588Y-6.7825
X4.0127Y-4.5967
X4.0127Y-6.5258
X4.0127Y-7.3526
X4.0127Y-7.6282
X4.1787Y-6.0525
X4.2883Y-3.7699
X4.2883Y-4.5967
X4.2883Y-7.3526
X4.2883Y-7.6282
X4.2883Y-7.9038
X4.5639Y-3.7699
X4.5639Y-4.5967
X4.5639Y-6.5258
X4.5639Y-7.3526
X4.5639Y-7.9038
X4.8395Y-4.5967
X4.8395Y-5.4235
X4.8395Y-6.2502
X4.8395Y-6.5258
X4.8395Y-7.3526
X4.8395Y-7.6282
X4.8395Y-7.9038
X4.8987Y-6.0225
X5.1151Y-3.7699
X5.1151Y-4.0455
X5.1151Y-4.5967
X5.1151Y-6.5258
X5.1151Y-7.3526
X5.1151Y-7.6282
X5.1151Y-7.9038
X5.3907Y-3.7699
X5.3907Y-5.4235
X5.3907Y-6.5258
X5.3907Y-7.3526
X5.3907Y-7.6282
X5.3907Y-7.9038
X5.6663Y-4.5967
X5.6663Y-5.4235
X5.6663Y-6.5258
X5.6663Y-7.3526
X5.6663Y-7.6282
X5.6663Y-7.9038
X5.7643Y-4.388
X5.9419Y-3.7699
X5.9419Y-4.0455
X5.9419Y-6.2502
X5.9419Y-7.3526
X5.9419Y-7.6282
X5.9419Y-7.9038
X6.2175Y-3.7699
X6.2175Y-4.0455
X6.2175Y-6.5258
X6.2175Y-7.6282
X6.2175Y-7.9038
X6.4893Y-4.413
X6.4931Y-3.7699
X6.4931Y-4.5967
X6.4931Y-5.4235
X6.4931Y-7.3526
X6.4931Y-7.9038
X6.7687Y-7.3526
X6.7687Y-7.6282
X7.0442Y-3.7699
X7.0442Y-4.8723
X7.0442Y-5.4235
X7.0442Y-6.5258
X7.0442Y-7.3526
X7.2143Y-4.438
X7.3198Y-4.5967
X7.3198Y-7.3526
X7.3198Y-7.6282
X7.3198Y-7.9038
X7.5954Y-6.5258
X7.5954Y-7.3526
X7.5954Y-7.6282
X7.5954Y-7.9038
X7.871Y-3.7699
X7.871Y-5.4235
X7.871Y-6.2502
X7.871Y-6.5258
X7.871Y-7.3526
X7.871Y-7.6282
X7.871Y-7.9038
X7.9437Y-4.4625
X8.1466Y-4.0455
X8.1466Y-4.5967
X8.1466Y-5.6991
X8.1466Y-7.3526
X8.1466Y-7.6282
X8.1466Y-7.9038
X8.4222Y-3.7699
X8.4222Y-5.4235
X8.4222Y-5.6991
X8.4222Y-6.5258
X8.4222Y-7.3526
X8.4222Y-7.6282
X8.4222Y-7.9038
X8.6978Y-3.7699
X8.6978Y-5.4235
X8.6978Y-7.3526
X8.6978Y-7.6282
X8.6978Y-7.9038
X8.9734Y-7.3526
X8.9734Y-7.6282
X8.9734Y-7.9038
X9.0393Y-4.488
X9.249Y-3.7699
X9.249Y-4.0455
X9.249Y-6.5258
X9.249Y-7.3526
X9.249Y-7.9038
X9.5246Y-3.7699
X9.5246Y-7.3526
X9.5246Y-7.6282
X9.5246Y-7.9038
X9.7643Y-4.513
X9.8001Y-3.7699
X9.8001Y-7.3526
X9.8001Y-7.6282
X10.0757Y-5.4235
X10.0757Y-6.2502
X10.0757Y-6.5258
X10.0757Y-7.3526
X10.0757Y-7.6282
X10.3513Y-3.7699
X10.3513Y-4.0455
X10.3513Y-6.5258
X10.3513Y-7.3526
X10.3513Y-7.6282
X10.4893Y-4.538
X10.6269Y-3.7699
X10.6269Y-6.5258
X10.6269Y-7.077
X10.6269Y-7.3526
X10.6269Y-7.6282
X10.6269Y-7.9038
X10.9025Y-5.4235
X10.9025Y-6.2502
X10.9025Y-6.5258
X10.9025Y-6.8014
X10.9025Y-7.6282
X11.1781Y-3.7699
X11.1781Y-4.8723
X11.1781Y-6.5258
X11.4537Y-4.5967
X11.4537Y-5.4235
X11.4537Y-5.6991
X11.4537Y-6.8014
X11.4537Y-7.9038
X11.7293Y-5.4235
X11.7293Y-7.6282
X12.0049Y-3.7699
X12.0049Y-6.5258
X12.0049Y-6.8014
X12.2805Y-4.0455
X12.2805Y-4.8723
X12.2805Y-6.8014
X12.2805Y-7.077
X12.5561Y-3.7699
X12.5561Y-6.2502
X12.5561Y-6.8014
X12.5561Y-7.077
X12.5561Y-7.3526
X12.5561Y-7.9038
X12.6237Y-5.1812
X12.8137Y-5.7425
X12.8316Y-3.7699
X12.8316Y-4.3211
X12.8316Y-4.5967
X12.8316Y-7.077
X12.8316Y-7.3526
X12.9437Y-6.0625
X13.1072Y-4.3211
X13.1072Y-4.5967
X13.1072Y-7.6282
X13.3828Y-4.0455
X13.3828Y-4.3211
X13.3828Y-4.5967
X13.3828Y-6.5258
X13.3828Y-6.8014
X13.3828Y-7.077
X13.3828Y-7.6282
X13.6584Y-3.7699
X13.6584Y-4.3211
X13.6584Y-4.5967
X13.6584Y-6.2502
X13.6584Y-6.8014
X13.6584Y-7.6282
X13.934Y-4.3211
X13.934Y-4.5967
X13.934Y-6.2502
X13.934Y-6.8014
X14.2096Y-3.7699
X14.2096Y-4.0455
X14.2096Y-4.3211
X14.2096Y-4.5967
X14.2096Y-7.6282
X14.3137Y-7.5026
X14.4852Y-3.7699
X14.4852Y-4.3211
X14.4852Y-4.5967
X14.4852Y-5.4235
X14.4852Y-5.9747
X14.4852Y-6.2502
X14.4852Y-6.8014
X14.4852Y-7.077
X14.4852Y-7.3526
X14.4852Y-7.6282
X14.7608Y-4.3211
X14.7608Y-4.5967
X14.7608Y-5.9747
X14.7608Y-6.2502
X14.7608Y-6.5258
X14.7608Y-6.8014
X14.7608Y-7.077
X14.7608Y-7.3526
X14.7608Y-7.6282
T2
X1.3062Y-3.87
X1.3062Y-3.93
X1.3062Y-4.8075
X1.3062Y-4.8675
X1.4Y-6.3075
X1.4Y-6.3675
X1.4937Y-5.5575
X1.4937Y-5.6175
X1.4937Y-7.8075
X1.4937Y-7.8675
X1.775Y-7.0575
X1.775Y-7.1175
X1.9563Y-3.77
X1.9563Y-3.83
X1.9563Y-4.7075
X1.9563Y-4.7675
X2.05Y-6.2075
X2.05Y-6.2675
X2.0562Y-4.8075
X2.0562Y-4.8675
X2.1437Y-5.4575
X2.1437Y-5.5175
X2.1437Y-7.7075
X2.1437Y-7.7675
X2.425Y-6.9575
X2.425Y-7.0175
X2.4312Y-5.5575
X2.4312Y-5.6175
X2.4312Y-7.8075
X2.4312Y-7.8675
X2.6187Y-6.3075
X2.6187Y-6.3675
X2.7062Y-4.7075
X2.7062Y-4.7675
X2.8062Y-3.87
X2.8062Y-3.93
X2.8062Y-4.8075
X2.8062Y-4.8675
X2.9937Y-7.0575
X2.9937Y-7.1175
X3.0812Y-5.4575
X3.0812Y-5.5175
X3.0812Y-7.7075
X3.0812Y-7.7675
X3.1812Y-5.5575
X3.1812Y-5.6175
X3.2687Y-6.2075
X3.2687Y-6.2675
X3.3687Y-6.3075
X3.3687Y-6.3675
X3.3687Y-7.8075
X3.3687Y-7.8675
X3.4562Y-3.77
X3.4562Y-3.83
X3.4562Y-4.7075
X3.4562Y-4.7675
X3.5562Y-3.87
X3.5562Y-3.93
X3.5562Y-4.8075
X3.5562Y-4.8675
X3.6437Y-6.9575
X3.6437Y-7.0175
X3.7437Y-7.0575
X3.7437Y-7.1175
X3.8312Y-5.4575
X3.8312Y-5.5175
X3.9312Y-5.5575
X3.9312Y-5.6175
X4.0187Y-6.2075
X4.0187Y-6.2675
X4.0187Y-7.7075
X4.0187Y-7.7675
X4.1187Y-6.3075
X4.1187Y-6.3675
X4.2062Y-3.77
X4.2062Y-3.83
X4.2062Y-4.7075
X4.2062Y-4.7675
X4.3062Y-3.87
X4.3062Y-3.93
X4.3062Y-4.8075
X4.3062Y-4.8675
X4.3937Y-6.9575
X4.3937Y-7.0175
X4.4937Y-7.0575
X4.4937Y-7.1175
X4.5812Y-5.4575
X4.5812Y-5.5175
X4.6812Y-5.5575
X4.6812Y-5.6175
X4.7687Y-6.2075
X4.7687Y-6.2675
X4.8687Y-6.3075
X4.8687Y-6.3675
X4.9562Y-3.77
X4.9562Y-3.83
X4.9562Y-4.7075
X4.9562Y-4.7675
X5.0562Y-3.87
X5.0562Y-3.93
X5.0562Y-4.8075
X5.0562Y-4.8675
X5.1437Y-6.9575
X5.1437Y-7.0175
X5.2437Y-7.0575
X5.2437Y-7.1175
X5.3312Y-5.4575
X5.3312Y-5.5175
X5.4312Y-5.5575
X5.4312Y-5.6175
X5.5187Y-6.2075
X5.5187Y-6.2675
X5.6187Y-6.3075
X5.6187Y-6.3675
X5.7062Y-3.77
X5.7062Y-3.83
X5.7062Y-4.7075
X5.7062Y-4.7675
X5.8062Y-4.8075
X5.8062Y-4.8675
X5.8937Y-6.9575
X5.8937Y-7.0175
X5.9937Y-7.0575
X5.9937Y-7.1175
X6.0812Y-5.4575
X6.0812Y-5.5175
X6.1812Y-3.87
X6.1812Y-3.93
X6.1812Y-5.5575
X6.1812Y-5.6175
X6.2687Y-6.2075
X6.2687Y-6.2675
X6.3687Y-6.3075
X6.3687Y-6.3675
X6.4562Y-4.7075
X6.4562Y-4.7675
X6.5562Y-4.8075
X6.5562Y-4.8675
X6.5562Y-7.8075
X6.5562Y-7.8675
X6.6437Y-6.9575
X6.6437Y-7.0175
X6.7437Y-7.0575
X6.7437Y-7.1175
X6.8312Y-3.77
X6.8312Y-3.83
X6.8312Y-5.4575
X6.8312Y-5.5175
X6.9312Y-3.87
X6.9312Y-3.93
X6.9312Y-5.5575
X6.9312Y-5.6175
X7.0187Y-6.2075
X7.0187Y-6.2675
X7.1187Y-6.3075
X7.1187Y-6.3675
X7.2062Y-4.7075
X7.2062Y-4.7675
X7.2062Y-7.7075
X7.2062Y-7.7675
X7.3062Y-4.8075
X7.3062Y-4.8675
X7.3937Y-6.9575
X7.3937Y-7.0175
X7.4937Y-7.0575
X7.4937Y-7.1175
X7.5812Y-3.77
X7.5812Y-3.83
X7.5812Y-5.4575
X7.5812Y-5.5175
X7.6812Y-3.87
X7.6812Y-3.93
X7.6812Y-5.5575
X7.6812Y-5.6175
X7.7687Y-6.2075
X7.7687Y-6.2675
X7.8687Y-6.3075
X7.8687Y-6.3675
X7.9562Y-4.7075
X7.9562Y-4.7675
X8.0563Y-4.8075
X8.0563Y-4.8675
X8.1437Y-6.9575
X8.1437Y-7.0175
X8.2438Y-7.0575
X8.2438Y-7.1175
X8.3312Y-3.77
X8.3312Y-3.83
X8.3312Y-5.4575
X8.3312Y-5.5175
X8.4313Y-3.87
X8.4313Y-3.93
X8.4313Y-5.5575
X8.4313Y-5.6175
X8.5187Y-6.2075
X8.5187Y-6.2675
X8.6188Y-6.3075
X8.6188Y-6.3675
X8.7062Y-4.7075
X8.7062Y-4.7675
X8.8063Y-4.8075
X8.8063Y-4.8675
X8.8937Y-6.9575
X8.8937Y-7.0175
X8.9938Y-7.0575
X8.9938Y-7.1175
X9.0812Y-3.77
X9.0812Y-3.83
X9.0812Y-5.4575
X9.0812Y-5.5175
X9.1813Y-5.5575
X9.1813Y-5.6175
X9.2687Y-6.2075
X9.2687Y-6.2675
X9.3688Y-6.3075
X9.3688Y-6.3675
X9.4562Y-4.7075
X9.4562Y-4.7675
X9.5563Y-3.87
X9.5563Y-3.93
X9.5563Y-4.8075
X9.5563Y-4.8675
X9.6437Y-6.9575
X9.6437Y-7.0175
X9.7438Y-7.0575
X9.7438Y-7.1175
X9.7438Y-7.8075
X9.7438Y-7.8675
X9.8312Y-5.4575
X9.8312Y-5.5175
X9.9313Y-5.5575
X9.9313Y-5.6175
X10.0187Y-6.2075
X10.0187Y-6.2675
X10.1188Y-6.3075
X10.1188Y-6.3675
X10.2062Y-3.77
X10.2062Y-3.83
X10.2062Y-4.7075
X10.2062Y-4.7675
X10.3063Y-3.87
X10.3063Y-3.93
X10.3063Y-4.8075
X10.3063Y-4.8675
X10.3937Y-6.9575
X10.3937Y-7.0175
X10.3937Y-7.7075
X10.3937Y-7.7675
X10.5812Y-5.4575
X10.5812Y-5.5175
X10.6813Y-5.5575
X10.6813Y-5.6175
X10.6813Y-7.8075
X10.6813Y-7.8675
X10.7687Y-6.2075
X10.7687Y-6.2675
X10.9562Y-3.77
X10.9562Y-3.83
X10.9562Y-4.7075
X10.9562Y-4.7675
X11.0563Y-3.87
X11.0563Y-3.93
X11.15Y-7.0575
X11.15Y-7.1175
X11.3312Y-5.4575
X11.3312Y-5.5175
X11.3312Y-7.7075
X11.3312Y-7.7675
X11.3375Y-6.3075
X11.3375Y-6.3675
X11.4313Y-4.8075
X11.4313Y-4.8675
X11.6188Y-5.5575
X11.6188Y-5.6175
X11.6188Y-7.8075
X11.6188Y-7.8675
X11.7062Y-3.77
X11.7062Y-3.83
X11.8Y-6.9575
X11.8Y-7.0175
X11.8063Y-3.87
X11.8063Y-3.93
X11.9875Y-6.2075
X11.9875Y-6.2675
X12.0812Y-4.7075
X12.0812Y-4.7675
X12.2687Y-5.4575
X12.2687Y-5.5175
X12.2687Y-7.7075
X12.2687Y-7.7675
X12.4562Y-3.77
X12.4562Y-3.83
X12.7438Y-3.87
X12.7438Y-3.93
X12.7438Y-4.8075
X12.7438Y-4.8675
X12.7438Y-5.5575
X12.7438Y-5.6175
X12.7438Y-7.8075
X12.7438Y-7.8675
X13.3937Y-3.77
X13.3937Y-3.83
X13.3937Y-4.7075
X13.3937Y-4.7675
X13.3937Y-5.4575
X13.3937Y-5.5175
X13.3937Y-7.7075
X13.3937Y-7.7675
X13.4938Y-3.87
X13.4938Y-3.93
X13.4938Y-4.8075
X13.4938Y-4.8675
X13.4938Y-5.5575
X13.4938Y-5.6175
X13.4938Y-7.0575
X13.4938Y-7.1175
X13.4938Y-7.8075
X13.4938Y-7.8675
X14.1437Y-3.77
X14.1437Y-3.83
X14.1437Y-4.7075
X14.1437Y-4.7675
X14.1437Y-5.4575
X14.1437Y-5.5175
X14.1437Y-6.9575
X14.1437Y-7.0175
X14.1437Y-7.7075
X14.1437Y-7.7675
X14.2438Y-3.87
X14.2438Y-3.93
X14.2438Y-4.8075
X14.2438Y-4.8675
X14.2438Y-5.5575
X14.2438Y-5.6175
X14.2438Y-7.8075
X14.2438Y-7.8675
X14.8937Y-3.77
X14.8937Y-3.83
X14.8937Y-4.7075
X14.8937Y-4.7675
X14.8937Y-5.4575
X14.8937Y-5.5175
X14.8937Y-7.7075
X14.8937Y-7.7675
T3
X1.8812Y-6.8125
X1.9688Y-3.95
X1.9688Y-4.25
X1.9688Y-4.8812
X1.9688Y-5.1812
X2.0625Y-6.3875
X2.0625Y-6.6875
X2.1562Y-5.6375
X2.1562Y-5.9375
X2.1562Y-7.8875
X2.1562Y-8.1875
X2.1812Y-6.8125
X2.4375Y-7.1375
X2.4375Y-7.4375
X2.7188Y-4.8812
X2.7188Y-5.1812
X3.0938Y-5.6375
X3.0938Y-5.9375
X3.0938Y-7.8812
X3.0938Y-8.1813
X3.2812Y-6.3875
X3.2812Y-6.6875
X3.4688Y-3.95
X3.4688Y-4.25
X3.4688Y-4.8812
X3.4688Y-5.1812
X3.6562Y-7.1375
X3.6562Y-7.4375
X3.8438Y-5.6375
X3.8438Y-5.9375
X4.0312Y-6.3875
X4.0312Y-6.6875
X4.0312Y-7.8812
X4.0312Y-8.1813
X4.2188Y-3.95
X4.2188Y-4.25
X4.2188Y-4.8812
X4.2188Y-5.1812
X4.4062Y-7.1375
X4.4062Y-7.4375
X4.5938Y-5.6375
X4.5938Y-5.9375
X4.7812Y-6.3875
X4.7812Y-6.6875
X4.9688Y-3.95
X4.9688Y-4.25
X4.9688Y-4.8812
X4.9688Y-5.1812
X5.1562Y-7.1375
X5.1562Y-7.4375
X5.3438Y-5.6375
X5.3438Y-5.9375
X5.5312Y-6.3875
X5.5312Y-6.6875
X5.7188Y-3.95
X5.7188Y-4.25
X5.7188Y-4.8812
X5.7188Y-5.1812
X5.9062Y-7.1375
X5.9062Y-7.4375
X6.0938Y-5.6375
X6.0938Y-5.9375
X6.2812Y-6.3875
X6.2812Y-6.6875
X6.4688Y-4.8812
X6.4688Y-5.1812
X6.6562Y-7.1375
X6.6562Y-7.4375
X6.8438Y-3.95
X6.8438Y-4.25
X6.8438Y-5.6375
X6.8438Y-5.9375
X7.0312Y-6.3875
X7.0312Y-6.6875
X7.2188Y-4.8812
X7.2188Y-5.1812
X7.2188Y-7.8812
X7.2188Y-8.1813
X7.4062Y-7.1375
X7.4062Y-7.4375
X7.5938Y-3.95
X7.5938Y-4.25
X7.5938Y-5.6375
X7.5938Y-5.9375
X7.7812Y-6.3875
X7.7812Y-6.6875
X7.9688Y-4.8812
X7.9688Y-5.1812
X8.1562Y-7.1375
X8.1562Y-7.4375
X8.3438Y-3.95
X8.3438Y-4.25
X8.3438Y-5.6375
X8.3438Y-5.9375
X8.5312Y-6.3875
X8.5312Y-6.6875
X8.7188Y-4.8812
X8.7188Y-5.1812
X8.9062Y-7.1375
X8.9062Y-7.4375
X9.0938Y-3.95
X9.0938Y-4.25
X9.0938Y-5.6375
X9.0938Y-5.9375
X9.2812Y-6.3875
X9.2812Y-6.6875
X9.4688Y-4.8812
X9.4688Y-5.1812
X9.6562Y-7.1375
X9.6562Y-7.4375
X9.8438Y-5.6375
X9.8438Y-5.9375
X10.0312Y-6.3875
X10.0312Y-6.6875
X10.2188Y-3.95
X10.2188Y-4.25
X10.2188Y-4.8812
X10.2188Y-5.1812
X10.4062Y-7.1375
X10.4062Y-7.4375
X10.4062Y-7.8812
X10.4062Y-8.1813
X10.5938Y-5.6375
X10.5938Y-5.9375
X10.7812Y-6.3875
X10.7812Y-6.6875
X10.9688Y-3.95
X10.9688Y-4.25
X10.9688Y-4.8812
X10.9688Y-5.1812
X11.3438Y-5.6375
X11.3438Y-5.9375
X11.3438Y-7.8812
X11.3438Y-8.1813
X11.6875Y-3.95
X11.6875Y-4.25
X11.8125Y-7.1375
X11.8125Y-7.4375
X12.0Y-6.3875
X12.0Y-6.6875
X12.0938Y-4.8812
X12.0938Y-5.1812
X12.2812Y-5.6375
X12.2812Y-5.9375
X12.2812Y-7.8812
X12.2812Y-8.1813
X12.4688Y-3.95
X12.4688Y-4.25
X13.4062Y-3.95
X13.4062Y-4.25
X13.4062Y-4.8812
X13.4062Y-5.1812
X13.4062Y-5.6375
X13.4062Y-5.9375
X13.4062Y-7.8875
X13.4062Y-8.1875
X13.4938Y-4.3825
X13.7937Y-4.3825
X14.1562Y-3.95
X14.1562Y-4.25
X14.1562Y-4.8812
X14.1562Y-5.1812
X14.1562Y-5.6375
X14.1562Y-5.9375
X14.1562Y-7.1375
X14.1562Y-7.4375
X14.1562Y-7.8875
X14.1562Y-8.1875
X14.9062Y-3.95
X14.9062Y-4.25
X14.9062Y-4.8812
X14.9062Y-5.1812
X14.9062Y-5.6375
X14.9062Y-5.9375
X14.9062Y-7.8875
X14.9062Y-8.1875
T4
X1.7Y-6.6375
X1.8Y-6.6375
X13.7937Y-4.2
X13.8937Y-4.2
T5
X12.4787Y-6.225
X12.4787Y-6.325
X12.4787Y-6.425
X12.4787Y-6.525
X12.4787Y-6.625
X12.4787Y-6.725
X12.4787Y-6.825
X12.4787Y-6.925
X12.4787Y-7.025
X12.4787Y-7.125
X12.4787Y-7.225
X12.4787Y-7.325
X12.4787Y-7.425
X12.4787Y-7.525
X13.0787Y-6.225
X13.0787Y-6.325
X13.0787Y-6.425
X13.0787Y-6.525
X13.0787Y-6.625
X13.0787Y-6.725
X13.0787Y-6.825
X13.0787Y-6.925
X13.0787Y-7.025
X13.0787Y-7.125
X13.0787Y-7.225
X13.0787Y-7.325
X13.0787Y-7.425
X13.0787Y-7.525
T6
X1.5062Y-3.9
X1.5062Y-4.8375
X1.6Y-6.3375
X1.6937Y-5.5875
X1.6937Y-7.8375
X1.7562Y-3.8
X1.7562Y-4.7375
X1.85Y-6.2375
X1.9437Y-5.4875
X1.9437Y-7.7375
X1.975Y-7.0875
X2.225Y-6.9875
X2.2563Y-4.8375
X2.5063Y-4.7375
X2.6313Y-5.5875
X2.6313Y-7.8375
X2.8188Y-6.3375
X2.8813Y-5.4875
X2.8813Y-7.7375
X3.0063Y-3.9
X3.0063Y-4.8375
X3.0688Y-6.2375
X3.1938Y-7.0875
X3.2563Y-3.8
X3.2563Y-4.7375
X3.3813Y-5.5875
X3.4438Y-6.9875
X3.5688Y-6.3375
X3.5688Y-7.8375
X3.6313Y-5.4875
X3.7563Y-3.9
X3.7563Y-4.8375
X3.8188Y-6.2375
X3.8188Y-7.7375
X3.9438Y-7.0875
X4.0062Y-3.8
X4.0062Y-4.7375
X4.1312Y-5.5875
X4.1937Y-6.9875
X4.3187Y-6.3375
X4.3812Y-5.4875
X4.5062Y-3.9
X4.5062Y-4.8375
X4.5687Y-6.2375
X4.6937Y-7.0875
X4.7562Y-3.8
X4.7562Y-4.7375
X4.8812Y-5.5875
X4.9437Y-6.9875
X5.0687Y-6.3375
X5.1312Y-5.4875
X5.2562Y-3.9
X5.2562Y-4.8375
X5.3187Y-6.2375
X5.4437Y-7.0875
X5.5062Y-3.8
X5.5062Y-4.7375
X5.6312Y-5.5875
X5.6937Y-6.9875
X5.8187Y-6.3375
X5.8812Y-5.4875
X6.0062Y-4.8375
X6.0687Y-6.2375
X6.1937Y-7.0875
X6.2562Y-4.7375
X6.3812Y-3.9
X6.3812Y-5.5875
X6.4437Y-6.9875
X6.5687Y-6.3375
X6.6312Y-3.8
X6.6312Y-5.4875
X6.7562Y-4.8375
X6.7562Y-7.8375
X6.8187Y-6.2375
X6.9437Y-7.0875
X7.0062Y-4.7375
X7.0062Y-7.7375
X7.1312Y-3.9
X7.1312Y-5.5875
X7.1937Y-6.9875
X7.3187Y-6.3375
X7.3812Y-3.8
X7.3812Y-5.4875
X7.5062Y-4.8375
X7.5687Y-6.2375
X7.6937Y-7.0875
X7.7562Y-4.7375
X7.8812Y-3.9
X7.8812Y-5.5875
X7.9437Y-6.9875
X8.0687Y-6.3375
X8.1312Y-3.8
X8.1312Y-5.4875
X8.2562Y-4.8375
X8.3187Y-6.2375
X8.4437Y-7.0875
X8.5062Y-4.7375
X8.6312Y-3.9
X8.6312Y-5.5875
X8.6937Y-6.9875
X8.8187Y-6.3375
X8.8812Y-3.8
X8.8812Y-5.4875
X9.0062Y-4.8375
X9.0687Y-6.2375
X9.1937Y-7.0875
X9.2562Y-4.7375
X9.3812Y-5.5875
X9.4437Y-6.9875
X9.5687Y-6.3375
X9.6312Y-5.4875
X9.7562Y-3.9
X9.7562Y-4.8375
X9.8187Y-6.2375
X9.9437Y-7.0875
X9.9437Y-7.8375
X10.0062Y-3.8
X10.0062Y-4.7375
X10.1312Y-5.5875
X10.1937Y-6.9875
X10.1937Y-7.7375
X10.3187Y-6.3375
X10.3812Y-5.4875
X10.5062Y-3.9
X10.5062Y-4.8375
X10.5687Y-6.2375
X10.7562Y-3.8
X10.7562Y-4.7375
X10.8812Y-5.5875
X10.8812Y-7.8375
X11.1312Y-5.4875
X11.1312Y-7.7375
X11.2562Y-3.9
X11.35Y-7.0875
X11.5062Y-3.8
X11.5375Y-6.3375
X11.6Y-6.9875
X11.6312Y-4.8375
X11.7875Y-6.2375
X11.8187Y-5.5875
X11.8187Y-7.8375
X11.8812Y-4.7375
X12.0062Y-3.9
X12.0687Y-5.4875
X12.0687Y-7.7375
X12.2562Y-3.8
X12.9437Y-3.9
X12.9437Y-4.8375
X12.9437Y-5.5875
X12.9437Y-7.8375
X13.1937Y-3.8
X13.1937Y-4.7375
X13.1937Y-5.4875
X13.1937Y-7.7375
X13.6937Y-3.9
X13.6937Y-4.8375
X13.6937Y-5.5875
X13.6937Y-7.0875
X13.6937Y-7.8375
X13.9437Y-3.8
X13.9437Y-4.7375
X13.9437Y-5.4875
X13.9437Y-6.9875
X13.9437Y-7.7375
X14.4437Y-3.9
X14.4437Y-4.8375
X14.4437Y-5.5875
X14.4437Y-7.8375
X14.6937Y-3.8
X14.6937Y-4.7375
X14.6937Y-5.4875
X14.6937Y-7.7375
T0
M30
