%TF.GenerationSoftware,KiCad,Pcbnew,(6.0.1)*%
%TF.CreationDate,2022-02-19T02:25:24-05:00*%
%TF.ProjectId,TKL,544b4c2e-6b69-4636-9164-5f7063625858,rev?*%
%TF.SameCoordinates,Original*%
%TF.FileFunction,Soldermask,Top*%
%TF.FilePolarity,Negative*%
%FSLAX46Y46*%
G04 Gerber Fmt 4.6, Leading zero omitted, Abs format (unit mm)*
G04 Created by KiCad (PCBNEW (6.0.1)) date 2022-02-19 02:25:24*
%MOMM*%
%LPD*%
G01*
G04 APERTURE LIST*
%ADD10C,3.987800*%
%ADD11C,1.750000*%
%ADD12C,3.048000*%
%ADD13R,1.600000X1.600000*%
%ADD14C,1.600000*%
%ADD15O,1.600000X1.600000*%
G04 APERTURE END LIST*
D10*
%TO.C,MX80*%
X175418750Y-201612500D03*
D11*
X180498750Y-201612500D03*
D10*
X232568750Y-193357500D03*
D11*
X170338750Y-201612500D03*
D10*
X118268750Y-193357500D03*
D12*
X118268750Y-208597500D03*
X232568750Y-208597500D03*
%TD*%
D10*
%TO.C,MX33*%
X46831250Y-144462500D03*
D11*
X51911250Y-144462500D03*
X41751250Y-144462500D03*
%TD*%
%TO.C,MX59*%
X241776250Y-163512500D03*
D10*
X246856250Y-163512500D03*
D11*
X251936250Y-163512500D03*
%TD*%
%TO.C,MX81*%
X261461250Y-201612500D03*
D10*
X256381250Y-201612500D03*
D11*
X251301250Y-201612500D03*
%TD*%
D10*
%TO.C,MX68*%
X142081250Y-182562500D03*
D11*
X137001250Y-182562500D03*
X147161250Y-182562500D03*
%TD*%
%TO.C,MX31*%
X327501250Y-125412500D03*
D10*
X332581250Y-125412500D03*
D11*
X337661250Y-125412500D03*
%TD*%
%TO.C,MX71*%
X204311250Y-182562500D03*
D10*
X199231250Y-182562500D03*
D11*
X194151250Y-182562500D03*
%TD*%
D10*
%TO.C,MX11*%
X270668750Y-101600000D03*
D11*
X265588750Y-101600000D03*
X275748750Y-101600000D03*
%TD*%
%TO.C,MX76*%
X375761250Y-144462500D03*
D10*
X370681250Y-144462500D03*
D11*
X365601250Y-144462500D03*
%TD*%
%TO.C,MX6*%
X170973750Y-101600000D03*
D10*
X165893750Y-101600000D03*
D11*
X160813750Y-101600000D03*
%TD*%
D10*
%TO.C,MX61*%
X284924500Y-171767500D03*
X308800500Y-171767500D03*
X296862500Y-163512500D03*
D11*
X301942500Y-163512500D03*
D12*
X284924500Y-156527500D03*
D11*
X291782500Y-163512500D03*
D12*
X308800500Y-156527500D03*
%TD*%
D11*
%TO.C,MX37*%
X132873750Y-144462500D03*
D10*
X127793750Y-144462500D03*
D11*
X122713750Y-144462500D03*
%TD*%
D10*
%TO.C,MX66*%
X103981250Y-182562500D03*
D11*
X109061250Y-182562500D03*
X98901250Y-182562500D03*
%TD*%
%TO.C,MX72*%
X223361250Y-182562500D03*
D10*
X218281250Y-182562500D03*
D11*
X213201250Y-182562500D03*
%TD*%
%TO.C,MX79*%
X99536250Y-201612500D03*
X89376250Y-201612500D03*
D10*
X94456250Y-201612500D03*
%TD*%
D11*
%TO.C,MX26*%
X218598750Y-125412500D03*
X208438750Y-125412500D03*
D10*
X213518750Y-125412500D03*
%TD*%
D11*
%TO.C,MX22*%
X132238750Y-125412500D03*
X142398750Y-125412500D03*
D10*
X137318750Y-125412500D03*
%TD*%
%TO.C,MX64*%
X42037000Y-190817500D03*
D11*
X59055000Y-182562500D03*
D12*
X65913000Y-175577500D03*
D10*
X53975000Y-182562500D03*
D12*
X42037000Y-175577500D03*
D11*
X48895000Y-182562500D03*
D10*
X65913000Y-190817500D03*
%TD*%
%TO.C,MX28*%
X251618750Y-125412500D03*
D11*
X246538750Y-125412500D03*
X256698750Y-125412500D03*
%TD*%
%TO.C,MX27*%
X227488750Y-125412500D03*
X237648750Y-125412500D03*
D10*
X232568750Y-125412500D03*
%TD*%
%TO.C,MX29*%
X270668750Y-125412500D03*
D11*
X265588750Y-125412500D03*
X275748750Y-125412500D03*
%TD*%
%TO.C,MX65*%
X90011250Y-182562500D03*
X79851250Y-182562500D03*
D10*
X84931250Y-182562500D03*
%TD*%
D11*
%TO.C,MX54*%
X146526250Y-163512500D03*
D10*
X151606250Y-163512500D03*
D11*
X156686250Y-163512500D03*
%TD*%
%TO.C,MX42*%
X217963750Y-144462500D03*
D10*
X223043750Y-144462500D03*
D11*
X228123750Y-144462500D03*
%TD*%
%TO.C,MX16*%
X365601250Y-101600000D03*
X375761250Y-101600000D03*
D10*
X370681250Y-101600000D03*
%TD*%
D11*
%TO.C,MX5*%
X132238750Y-101600000D03*
X142398750Y-101600000D03*
D10*
X137318750Y-101600000D03*
%TD*%
D11*
%TO.C,MX24*%
X170338750Y-125412500D03*
D10*
X175418750Y-125412500D03*
D11*
X180498750Y-125412500D03*
%TD*%
%TO.C,MX56*%
X184626250Y-163512500D03*
D10*
X189706250Y-163512500D03*
D11*
X194786250Y-163512500D03*
%TD*%
%TO.C,MX12*%
X284638750Y-101600000D03*
D10*
X289718750Y-101600000D03*
D11*
X294798750Y-101600000D03*
%TD*%
%TO.C,MX30*%
X304323750Y-125412500D03*
D12*
X287305750Y-118427500D03*
D10*
X311181750Y-133667500D03*
D11*
X294163750Y-125412500D03*
D10*
X299243750Y-125412500D03*
D12*
X311181750Y-118427500D03*
D10*
X287305750Y-133667500D03*
%TD*%
%TO.C,MX55*%
X170656250Y-163512500D03*
D11*
X165576250Y-163512500D03*
X175736250Y-163512500D03*
%TD*%
%TO.C,MX73*%
X232251250Y-182562500D03*
D10*
X237331250Y-182562500D03*
D11*
X242411250Y-182562500D03*
%TD*%
%TO.C,MX48*%
X356711250Y-144462500D03*
D10*
X351631250Y-144462500D03*
D11*
X346551250Y-144462500D03*
%TD*%
%TO.C,MX14*%
X337661250Y-101600000D03*
X327501250Y-101600000D03*
D10*
X332581250Y-101600000D03*
%TD*%
%TO.C,MX34*%
X70643750Y-144462500D03*
D11*
X65563750Y-144462500D03*
X75723750Y-144462500D03*
%TD*%
D10*
%TO.C,MX20*%
X99218750Y-125412500D03*
D11*
X104298750Y-125412500D03*
X94138750Y-125412500D03*
%TD*%
D10*
%TO.C,MX43*%
X242093750Y-144462500D03*
D11*
X247173750Y-144462500D03*
X237013750Y-144462500D03*
%TD*%
D10*
%TO.C,MX67*%
X123031250Y-182562500D03*
D11*
X128111250Y-182562500D03*
X117951250Y-182562500D03*
%TD*%
%TO.C,MX70*%
X185261250Y-182562500D03*
X175101250Y-182562500D03*
D10*
X180181250Y-182562500D03*
%TD*%
%TO.C,MX9*%
X223043750Y-101600000D03*
D11*
X217963750Y-101600000D03*
X228123750Y-101600000D03*
%TD*%
%TO.C,MX45*%
X275113750Y-144462500D03*
X285273750Y-144462500D03*
D10*
X280193750Y-144462500D03*
%TD*%
D11*
%TO.C,MX32*%
X375761250Y-125412500D03*
D10*
X370681250Y-125412500D03*
D11*
X365601250Y-125412500D03*
%TD*%
%TO.C,MX39*%
X160813750Y-144462500D03*
X170973750Y-144462500D03*
D10*
X165893750Y-144462500D03*
%TD*%
D11*
%TO.C,MX3*%
X94138750Y-101600000D03*
D10*
X99218750Y-101600000D03*
D11*
X104298750Y-101600000D03*
%TD*%
D10*
%TO.C,MX41*%
X203993750Y-144462500D03*
D11*
X209073750Y-144462500D03*
X198913750Y-144462500D03*
%TD*%
D10*
%TO.C,MX50*%
X75406250Y-163512500D03*
D11*
X70326250Y-163512500D03*
X80486250Y-163512500D03*
%TD*%
%TO.C,MX2*%
X75088750Y-101600000D03*
X85248750Y-101600000D03*
D10*
X80168750Y-101600000D03*
%TD*%
D11*
%TO.C,MX46*%
X298926250Y-144462500D03*
D10*
X304006250Y-144462500D03*
D11*
X309086250Y-144462500D03*
%TD*%
D13*
%TO.C,U1*%
X316960250Y-158115000D03*
D14*
X316960250Y-160655000D03*
X316960250Y-163195000D03*
X316960250Y-165735000D03*
X316960250Y-168275000D03*
X316960250Y-170815000D03*
X316960250Y-173355000D03*
X316960250Y-175895000D03*
X316960250Y-178435000D03*
X316960250Y-180975000D03*
X316960250Y-183515000D03*
X316960250Y-186055000D03*
X316960250Y-188595000D03*
X316960250Y-191135000D03*
X332200250Y-191135000D03*
X332200250Y-188595000D03*
X332200250Y-186055000D03*
X332200250Y-183515000D03*
X332200250Y-180975000D03*
X332200250Y-178435000D03*
X332200250Y-175895000D03*
X332200250Y-173355000D03*
X332200250Y-170815000D03*
X332200250Y-168275000D03*
X332200250Y-165735000D03*
X332200250Y-163195000D03*
X332200250Y-160655000D03*
X332200250Y-158115000D03*
%TD*%
D11*
%TO.C,MX77*%
X41751250Y-201612500D03*
X51911250Y-201612500D03*
D10*
X46831250Y-201612500D03*
%TD*%
%TO.C,MX19*%
X80168750Y-125412500D03*
D11*
X75088750Y-125412500D03*
X85248750Y-125412500D03*
%TD*%
%TO.C,MX78*%
X65563750Y-201612500D03*
D10*
X70643750Y-201612500D03*
D11*
X75723750Y-201612500D03*
%TD*%
%TO.C,MX15*%
X346551250Y-101600000D03*
D10*
X351631250Y-101600000D03*
D11*
X356711250Y-101600000D03*
%TD*%
%TO.C,MX44*%
X266223750Y-144462500D03*
D10*
X261143750Y-144462500D03*
D11*
X256063750Y-144462500D03*
%TD*%
D10*
%TO.C,MX75*%
X292100000Y-182562500D03*
D11*
X287020000Y-182562500D03*
D10*
X304038000Y-190817500D03*
D11*
X297180000Y-182562500D03*
D12*
X304038000Y-175577500D03*
X280162000Y-175577500D03*
D10*
X280162000Y-190817500D03*
%TD*%
D11*
%TO.C,MX85*%
X356711250Y-201612500D03*
X346551250Y-201612500D03*
D10*
X351631250Y-201612500D03*
%TD*%
D11*
%TO.C,MX7*%
X179863750Y-101600000D03*
D10*
X184943750Y-101600000D03*
D11*
X190023750Y-101600000D03*
%TD*%
D10*
%TO.C,MX60*%
X265906250Y-163512500D03*
D11*
X270986250Y-163512500D03*
X260826250Y-163512500D03*
%TD*%
D10*
%TO.C,MX40*%
X184943750Y-144462500D03*
D11*
X190023750Y-144462500D03*
X179863750Y-144462500D03*
%TD*%
%TO.C,MX84*%
X327501250Y-201612500D03*
D10*
X332581250Y-201612500D03*
D11*
X337661250Y-201612500D03*
%TD*%
%TO.C,MX21*%
X113188750Y-125412500D03*
X123348750Y-125412500D03*
D10*
X118268750Y-125412500D03*
%TD*%
D11*
%TO.C,MX49*%
X39370000Y-163512500D03*
D10*
X44450000Y-163512500D03*
D11*
X49530000Y-163512500D03*
%TD*%
%TO.C,MX4*%
X123348750Y-101600000D03*
D10*
X118268750Y-101600000D03*
D11*
X113188750Y-101600000D03*
%TD*%
%TO.C,MX1*%
X36988750Y-101600000D03*
X47148750Y-101600000D03*
D10*
X42068750Y-101600000D03*
%TD*%
D11*
%TO.C,MX23*%
X151288750Y-125412500D03*
X161448750Y-125412500D03*
D10*
X156368750Y-125412500D03*
%TD*%
D11*
%TO.C,MX13*%
X303688750Y-101600000D03*
X313848750Y-101600000D03*
D10*
X308768750Y-101600000D03*
%TD*%
D11*
%TO.C,MX38*%
X151923750Y-144462500D03*
X141763750Y-144462500D03*
D10*
X146843750Y-144462500D03*
%TD*%
D11*
%TO.C,MX63*%
X356711250Y-125412500D03*
D10*
X351631250Y-125412500D03*
D11*
X346551250Y-125412500D03*
%TD*%
D10*
%TO.C,MX83*%
X304006250Y-201612500D03*
D11*
X298926250Y-201612500D03*
X309086250Y-201612500D03*
%TD*%
%TO.C,MX8*%
X198913750Y-101600000D03*
X209073750Y-101600000D03*
D10*
X203993750Y-101600000D03*
%TD*%
D11*
%TO.C,MX47*%
X327501250Y-144462500D03*
D10*
X332581250Y-144462500D03*
D11*
X337661250Y-144462500D03*
%TD*%
%TO.C,MX57*%
X203676250Y-163512500D03*
X213836250Y-163512500D03*
D10*
X208756250Y-163512500D03*
%TD*%
D11*
%TO.C,MX82*%
X285273750Y-201612500D03*
D10*
X280193750Y-201612500D03*
D11*
X275113750Y-201612500D03*
%TD*%
%TO.C,MX10*%
X256698750Y-101600000D03*
D10*
X251618750Y-101600000D03*
D11*
X246538750Y-101600000D03*
%TD*%
%TO.C,MX62*%
X346551250Y-182562500D03*
D10*
X351631250Y-182562500D03*
D11*
X356711250Y-182562500D03*
%TD*%
%TO.C,MX36*%
X103663750Y-144462500D03*
D10*
X108743750Y-144462500D03*
D11*
X113823750Y-144462500D03*
%TD*%
D10*
%TO.C,MX52*%
X113506250Y-163512500D03*
D11*
X108426250Y-163512500D03*
X118586250Y-163512500D03*
%TD*%
%TO.C,MX25*%
X189388750Y-125412500D03*
X199548750Y-125412500D03*
D10*
X194468750Y-125412500D03*
%TD*%
D11*
%TO.C,MX35*%
X94773750Y-144462500D03*
X84613750Y-144462500D03*
D10*
X89693750Y-144462500D03*
%TD*%
%TO.C,MX17*%
X42068750Y-125412500D03*
D11*
X36988750Y-125412500D03*
X47148750Y-125412500D03*
%TD*%
D10*
%TO.C,MX69*%
X161131250Y-182562500D03*
D11*
X156051250Y-182562500D03*
X166211250Y-182562500D03*
%TD*%
%TO.C,MX86*%
X365601250Y-201612500D03*
X375761250Y-201612500D03*
D10*
X370681250Y-201612500D03*
%TD*%
D11*
%TO.C,MX74*%
X251301250Y-182562500D03*
D10*
X256381250Y-182562500D03*
D11*
X261461250Y-182562500D03*
%TD*%
%TO.C,MX18*%
X66198750Y-125412500D03*
D10*
X61118750Y-125412500D03*
D11*
X56038750Y-125412500D03*
%TD*%
%TO.C,MX58*%
X232886250Y-163512500D03*
D10*
X227806250Y-163512500D03*
D11*
X222726250Y-163512500D03*
%TD*%
%TO.C,MX51*%
X99536250Y-163512500D03*
X89376250Y-163512500D03*
D10*
X94456250Y-163512500D03*
%TD*%
D11*
%TO.C,MX53*%
X127476250Y-163512500D03*
D10*
X132556250Y-163512500D03*
D11*
X137636250Y-163512500D03*
%TD*%
D13*
%TO.C,D39*%
X173831250Y-150812500D03*
D15*
X173831250Y-143192500D03*
%TD*%
D13*
%TO.C,D36*%
X116681250Y-150812500D03*
D15*
X116681250Y-143192500D03*
%TD*%
D13*
%TO.C,D24*%
X183356250Y-131603750D03*
D15*
X183356250Y-123983750D03*
%TD*%
D13*
%TO.C,D73*%
X245268750Y-188912500D03*
D15*
X245268750Y-181292500D03*
%TD*%
D13*
%TO.C,D41*%
X211931250Y-150812500D03*
D15*
X211931250Y-143192500D03*
%TD*%
D13*
%TO.C,D7*%
X192881250Y-107950000D03*
D15*
X192881250Y-100330000D03*
%TD*%
D13*
%TO.C,D28*%
X259556250Y-131603750D03*
D15*
X259556250Y-123983750D03*
%TD*%
D13*
%TO.C,D57*%
X216693750Y-169862500D03*
D15*
X216693750Y-162242500D03*
%TD*%
D13*
%TO.C,D21*%
X126206250Y-131603750D03*
D15*
X126206250Y-123983750D03*
%TD*%
D13*
%TO.C,D75*%
X300037500Y-188912500D03*
D15*
X300037500Y-181292500D03*
%TD*%
D13*
%TO.C,D72*%
X226218750Y-188912500D03*
D15*
X226218750Y-181292500D03*
%TD*%
D13*
%TO.C,D37*%
X135731250Y-150812500D03*
D15*
X135731250Y-143192500D03*
%TD*%
D13*
%TO.C,D60*%
X273843750Y-169862500D03*
D15*
X273843750Y-162242500D03*
%TD*%
D13*
%TO.C,D27*%
X240506250Y-131603750D03*
D15*
X240506250Y-123983750D03*
%TD*%
D13*
%TO.C,D77*%
X54768750Y-207962500D03*
D15*
X54768750Y-200342500D03*
%TD*%
D13*
%TO.C,D5*%
X145256250Y-107950000D03*
D15*
X145256250Y-100330000D03*
%TD*%
D13*
%TO.C,D46*%
X311943750Y-150812500D03*
D15*
X311943750Y-143192500D03*
%TD*%
D13*
%TO.C,D86*%
X378618750Y-207962500D03*
D15*
X378618750Y-200342500D03*
%TD*%
D13*
%TO.C,D64*%
X61912500Y-188912500D03*
D15*
X61912500Y-181292500D03*
%TD*%
D13*
%TO.C,D44*%
X269081250Y-150812500D03*
D15*
X269081250Y-143192500D03*
%TD*%
D13*
%TO.C,D59*%
X254793750Y-169862500D03*
D15*
X254793750Y-162242500D03*
%TD*%
D13*
%TO.C,D1*%
X50006250Y-107950000D03*
D15*
X50006250Y-100330000D03*
%TD*%
D13*
%TO.C,D30*%
X307181250Y-131603750D03*
D15*
X307181250Y-123983750D03*
%TD*%
D13*
%TO.C,D61*%
X304800000Y-169862500D03*
D15*
X304800000Y-162242500D03*
%TD*%
D13*
%TO.C,D19*%
X88106250Y-131603750D03*
D15*
X88106250Y-123983750D03*
%TD*%
D13*
%TO.C,D25*%
X202406250Y-131603750D03*
D15*
X202406250Y-123983750D03*
%TD*%
D13*
%TO.C,D3*%
X107156250Y-107950000D03*
D15*
X107156250Y-100330000D03*
%TD*%
D13*
%TO.C,D49*%
X52387500Y-169862500D03*
D15*
X52387500Y-162242500D03*
%TD*%
D13*
%TO.C,D81*%
X264318750Y-207803750D03*
D15*
X264318750Y-200183750D03*
%TD*%
D13*
%TO.C,D14*%
X340518750Y-107950000D03*
D15*
X340518750Y-100330000D03*
%TD*%
D13*
%TO.C,D63*%
X359568750Y-131603750D03*
D15*
X359568750Y-123983750D03*
%TD*%
D13*
%TO.C,D78*%
X78581250Y-207803750D03*
D15*
X78581250Y-200183750D03*
%TD*%
D13*
%TO.C,D9*%
X230981250Y-107950000D03*
D15*
X230981250Y-100330000D03*
%TD*%
D13*
%TO.C,D79*%
X102393750Y-207803750D03*
D15*
X102393750Y-200183750D03*
%TD*%
D13*
%TO.C,D12*%
X296862500Y-107950000D03*
D15*
X296862500Y-100330000D03*
%TD*%
D13*
%TO.C,D43*%
X250031250Y-150812500D03*
D15*
X250031250Y-143192500D03*
%TD*%
D13*
%TO.C,D82*%
X288131250Y-207803750D03*
D15*
X288131250Y-200183750D03*
%TD*%
D13*
%TO.C,D48*%
X359568750Y-150812500D03*
D15*
X359568750Y-143192500D03*
%TD*%
D13*
%TO.C,D53*%
X140493750Y-169862500D03*
D15*
X140493750Y-162242500D03*
%TD*%
D13*
%TO.C,D40*%
X192881250Y-150812500D03*
D15*
X192881250Y-143192500D03*
%TD*%
D13*
%TO.C,D31*%
X340518750Y-131603750D03*
D15*
X340518750Y-123983750D03*
%TD*%
D13*
%TO.C,D35*%
X97631250Y-150812500D03*
D15*
X97631250Y-143192500D03*
%TD*%
D13*
%TO.C,D45*%
X288131250Y-150812500D03*
D15*
X288131250Y-143192500D03*
%TD*%
D13*
%TO.C,D68*%
X150018750Y-188912500D03*
D15*
X150018750Y-181292500D03*
%TD*%
D13*
%TO.C,D29*%
X278606250Y-131603750D03*
D15*
X278606250Y-123983750D03*
%TD*%
D13*
%TO.C,D54*%
X159543750Y-169862500D03*
D15*
X159543750Y-162242500D03*
%TD*%
D13*
%TO.C,D65*%
X92868750Y-188912500D03*
D15*
X92868750Y-181292500D03*
%TD*%
D13*
%TO.C,D33*%
X54768750Y-150812500D03*
D15*
X54768750Y-143192500D03*
%TD*%
D13*
%TO.C,D51*%
X102393750Y-169862500D03*
D15*
X102393750Y-162242500D03*
%TD*%
D13*
%TO.C,D70*%
X188118750Y-188912500D03*
D15*
X188118750Y-181292500D03*
%TD*%
D13*
%TO.C,D11*%
X278606250Y-107950000D03*
D15*
X278606250Y-100330000D03*
%TD*%
D13*
%TO.C,D6*%
X173831250Y-107950000D03*
D15*
X173831250Y-100330000D03*
%TD*%
D13*
%TO.C,D69*%
X169068750Y-188912500D03*
D15*
X169068750Y-181292500D03*
%TD*%
D13*
%TO.C,D52*%
X121443750Y-169862500D03*
D15*
X121443750Y-162242500D03*
%TD*%
D13*
%TO.C,D67*%
X130968750Y-188912500D03*
D15*
X130968750Y-181292500D03*
%TD*%
D13*
%TO.C,D32*%
X378618750Y-131603750D03*
D15*
X378618750Y-123983750D03*
%TD*%
D13*
%TO.C,D18*%
X69056250Y-131603750D03*
D15*
X69056250Y-123983750D03*
%TD*%
D13*
%TO.C,D34*%
X78581250Y-150812500D03*
D15*
X78581250Y-143192500D03*
%TD*%
D13*
%TO.C,D47*%
X340518750Y-150812500D03*
D15*
X340518750Y-143192500D03*
%TD*%
D13*
%TO.C,D62*%
X359568750Y-188912500D03*
D15*
X359568750Y-181292500D03*
%TD*%
D13*
%TO.C,D16*%
X378618750Y-107950000D03*
D15*
X378618750Y-100330000D03*
%TD*%
D13*
%TO.C,D85*%
X359568750Y-207962500D03*
D15*
X359568750Y-200342500D03*
%TD*%
D13*
%TO.C,D15*%
X359568750Y-107950000D03*
D15*
X359568750Y-100330000D03*
%TD*%
D13*
%TO.C,D20*%
X107156250Y-131603750D03*
D15*
X107156250Y-123983750D03*
%TD*%
D13*
%TO.C,D83*%
X311943750Y-207803750D03*
D15*
X311943750Y-200183750D03*
%TD*%
D13*
%TO.C,D10*%
X259556250Y-107950000D03*
D15*
X259556250Y-100330000D03*
%TD*%
D13*
%TO.C,D76*%
X378618750Y-150812500D03*
D15*
X378618750Y-143192500D03*
%TD*%
D13*
%TO.C,D50*%
X83343750Y-169862500D03*
D15*
X83343750Y-162242500D03*
%TD*%
D14*
%TO.C,R1*%
X350361250Y-111315500D03*
D15*
X342741250Y-111315500D03*
%TD*%
D13*
%TO.C,D58*%
X235743750Y-169862500D03*
D15*
X235743750Y-162242500D03*
%TD*%
D13*
%TO.C,D13*%
X316706250Y-107950000D03*
D15*
X316706250Y-100330000D03*
%TD*%
D13*
%TO.C,D80*%
X183356250Y-207803750D03*
D15*
X183356250Y-200183750D03*
%TD*%
D13*
%TO.C,D4*%
X126206250Y-107950000D03*
D15*
X126206250Y-100330000D03*
%TD*%
D13*
%TO.C,D8*%
X211931250Y-107950000D03*
D15*
X211931250Y-100330000D03*
%TD*%
D13*
%TO.C,D55*%
X178593750Y-169862500D03*
D15*
X178593750Y-162242500D03*
%TD*%
D13*
%TO.C,D38*%
X154781250Y-150812500D03*
D15*
X154781250Y-143192500D03*
%TD*%
D13*
%TO.C,D56*%
X197643750Y-169862500D03*
D15*
X197643750Y-162242500D03*
%TD*%
D13*
%TO.C,D42*%
X230981250Y-150812500D03*
D15*
X230981250Y-143192500D03*
%TD*%
D13*
%TO.C,D2*%
X88106250Y-107950000D03*
D15*
X88106250Y-100330000D03*
%TD*%
D13*
%TO.C,D74*%
X264318750Y-188912500D03*
D15*
X264318750Y-181292500D03*
%TD*%
D13*
%TO.C,D84*%
X340518750Y-207962500D03*
D15*
X340518750Y-200342500D03*
%TD*%
D14*
%TO.C,R2*%
X55403750Y-173037500D03*
D15*
X47783750Y-173037500D03*
%TD*%
D13*
%TO.C,D66*%
X111918750Y-188912500D03*
D15*
X111918750Y-181292500D03*
%TD*%
D13*
%TO.C,D17*%
X50006250Y-131603750D03*
D15*
X50006250Y-123983750D03*
%TD*%
D13*
%TO.C,D22*%
X145256250Y-131603750D03*
D15*
X145256250Y-123983750D03*
%TD*%
D13*
%TO.C,D26*%
X221456250Y-131603750D03*
D15*
X221456250Y-123983750D03*
%TD*%
D13*
%TO.C,D71*%
X207168750Y-188912500D03*
D15*
X207168750Y-181292500D03*
%TD*%
D13*
%TO.C,D23*%
X164306250Y-131603750D03*
D15*
X164306250Y-123983750D03*
%TD*%
M02*
