<svg id="Layer_1" data-name="Layer 1" xmlns="http://www.w3.org/2000/svg" viewBox="0 0 18.361 19.843"><defs><style>.cls-1{fill:#010101;}</style></defs><g id="layer1"><g id="g2922"><path id="path37" class="cls-1" d="M4.269,3.442V3.4h.022l.022-.022h0l.022-.021L4.4,3.333l.065-.022.066-.022.109-.022.087-.021.13-.022L4.966,3.2h.153l.13-.022L5.4,3.158l.174-.021h.153L5.9,3.115l.2-.022h.174l.2-.022.2-.022.392-.021.392-.022.414-.044.414-.043L8.669,2.9l.2-.022.174-.022A4.852,4.852,0,0,0,8.6.436c-.066-.218,0-.327.174-.392A.5.5,0,0,1,9.017,0a.671.671,0,0,1,.392.109,3.649,3.649,0,0,1,1.068.61c.174.174.218.348.109.5a4.907,4.907,0,0,0-.436,1.437.275.275,0,0,1,.131-.022l1.938-.392a5.12,5.12,0,0,1,1.2-.174c.915,0,1.547.458,1.5.784-.131.2-.262.283-.436.24-2.026.152-3.528.283-4.421.435-.022.044,0,.109,0,.153a27.619,27.619,0,0,0,4.4,2.962l4.356,1.5c.174.065.283.131.283.218a9.9,9.9,0,0,1-3.66.566c-.784-.152-2.57-1.677-5.444-4.574-.022.327-.022.871-.022,1.634a4.407,4.407,0,0,1-.262,1.982c-.2.109-.37.043-.522-.174a3.531,3.531,0,0,1-.3-1.068,12.868,12.868,0,0,0,.152-2.047c-.087.109-.392.457-.915,1.024-.174.152-.326.3-.5.479C5.075,8.734,2.309,9.8,1.916,9.518c-.108-.043-.087-.109.066-.239A18.043,18.043,0,0,0,8.255,3.812c-.784.109-1.482.174-2.134.305a3.412,3.412,0,0,1-.436.043A1.584,1.584,0,0,1,4.27,3.441Z" transform="translate(-0.741)"/><path id="path39" class="cls-1" d="M10.607,15.944v.479l-.022.152v.283l-.021.131v.131l-.022.131-.022.108v.131L10.5,17.6l-.021.109-.022.109-.022.109-.022.087-.022.109-.022.087-.021.087-.022.087-.022.087-.022.087-.043.066-.022.087-.044.13-.065.131-.065.109L10,19.189l-.065.109-.066.087L9.8,19.45l-.043.066-.066.065-.043.065-.066.044-.043.022-.044.043-.043.022-.044.022-.043.022H9.344l-.022.022H9.278a.335.335,0,0,1-.239-.131c-.588-.98-2.353-2.091-2.439-2.353,0-.021.087-.043.2-.043.588,0,1.176.24,1.959.24.2,0,.3-.022.349-.066a.346.346,0,0,1,.087-.152,6.8,6.8,0,0,0,.283-2.069A13.911,13.911,0,0,0,9.3,13.221H9.147a55.87,55.87,0,0,0-6.991,1.068c-.762,0-1.415-.567-1.415-.85,0-.109.087-.152.283-.174,2.9-.3,5.619-.566,8.124-.784-.3-.741-.914-.741-.98-1.307,0-.283.044-.414.2-.37a3.917,3.917,0,0,1,1.2.631L11,9.519c.065-.2.043-.284-.109-.393a.333.333,0,0,0-.152-.021c-.937,0-3.507,1.11-3.942,1.11a.832.832,0,0,1-.545-.152,1.442,1.442,0,0,1-.522-.5c-.2-.457.37-.3,1-.3,1.394,0,4.182-1.111,4.575-1.111.457,0,1.7.85,1.721,1.177.087.2,0,.348-.24.435a9.6,9.6,0,0,0-2.918,1.873h.022a1.135,1.135,0,0,1,.436.719c6.272-.871,6.119-.936,6.272-.936.937,0,2.178.914,2.178,1.35,0,.261-.261.327-.631.327-.436-.022-3.42-.066-4.247-.066-1.263,0-2.418.022-3.441.109,0,.283.152,1.416.152,2.81Z" transform="translate(-0.741)"/></g></g></svg>