%TF.GenerationSoftware,KiCad,Pcbnew,(6.0.2)*%
%TF.CreationDate,2022-02-21T02:47:03-05:00*%
%TF.ProjectId,plate,706c6174-652e-46b6-9963-61645f706362,rev?*%
%TF.SameCoordinates,Original*%
%TF.FileFunction,Soldermask,Bot*%
%TF.FilePolarity,Negative*%
%FSLAX46Y46*%
G04 Gerber Fmt 4.6, Leading zero omitted, Abs format (unit mm)*
G04 Created by KiCad (PCBNEW (6.0.2)) date 2022-02-21 02:47:03*
%MOMM*%
%LPD*%
G01*
G04 APERTURE LIST*
%ADD10C,0.750000*%
%ADD11C,0.264583*%
G04 APERTURE END LIST*
D10*
X73208081Y-60853201D02*
G75*
G03*
X73208081Y-60853201I-3549758J0D01*
G01*
D11*
X71100025Y-59213930D02*
X71100025Y-59202817D01*
X71100025Y-59202817D02*
X71094204Y-59202817D01*
X71094204Y-59202817D02*
X71088383Y-59196996D01*
X71088383Y-59196996D02*
X71082563Y-59191440D01*
X71082563Y-59191440D02*
X71065365Y-59185090D01*
X71065365Y-59185090D02*
X71048167Y-59179269D01*
X71048167Y-59179269D02*
X71030704Y-59173448D01*
X71030704Y-59173448D02*
X71001865Y-59167628D01*
X71001865Y-59167628D02*
X70978846Y-59162071D01*
X70978846Y-59162071D02*
X70944450Y-59156251D01*
X70944450Y-59156251D02*
X70915611Y-59149901D01*
X70915611Y-59149901D02*
X70875129Y-59149901D01*
X70875129Y-59149901D02*
X70840733Y-59144080D01*
X70840733Y-59144080D02*
X70800781Y-59138788D01*
X70800781Y-59138788D02*
X70754744Y-59133232D01*
X70754744Y-59133232D02*
X70714263Y-59133232D01*
X70714263Y-59133232D02*
X70668490Y-59127411D01*
X70668490Y-59127411D02*
X70615573Y-59121590D01*
X70615573Y-59121590D02*
X70569536Y-59121590D01*
X70569536Y-59121590D02*
X70516619Y-59115769D01*
X70516619Y-59115769D02*
X70463702Y-59109948D01*
X70463702Y-59109948D02*
X70359986Y-59104392D01*
X70359986Y-59104392D02*
X70256269Y-59098571D01*
X70256269Y-59098571D02*
X70146731Y-59086930D01*
X70146731Y-59086930D02*
X70037194Y-59075553D01*
X70037194Y-59075553D02*
X69935859Y-59070526D01*
X69935859Y-59070526D02*
X69882942Y-59064705D01*
X69882942Y-59064705D02*
X69836905Y-59058884D01*
X69836905Y-59058884D02*
X69834461Y-59017641D01*
X69834461Y-59017641D02*
X69833346Y-58976415D01*
X69833346Y-58976415D02*
X69833555Y-58935239D01*
X69833555Y-58935239D02*
X69835082Y-58894143D01*
X69835082Y-58894143D02*
X69837921Y-58853159D01*
X69837921Y-58853159D02*
X69842066Y-58812317D01*
X69842066Y-58812317D02*
X69847512Y-58771649D01*
X69847512Y-58771649D02*
X69854253Y-58731186D01*
X69854253Y-58731186D02*
X69862283Y-58690958D01*
X69862283Y-58690958D02*
X69871597Y-58650998D01*
X69871597Y-58650998D02*
X69882189Y-58611336D01*
X69882189Y-58611336D02*
X69894052Y-58572004D01*
X69894052Y-58572004D02*
X69907182Y-58533032D01*
X69907182Y-58533032D02*
X69921573Y-58494452D01*
X69921573Y-58494452D02*
X69937219Y-58456295D01*
X69937219Y-58456295D02*
X69954115Y-58418592D01*
X69954115Y-58418592D02*
X69956981Y-58408111D01*
X69956981Y-58408111D02*
X69959038Y-58398281D01*
X69959038Y-58398281D02*
X69959767Y-58393602D01*
X69959767Y-58393602D02*
X69960296Y-58389076D01*
X69960296Y-58389076D02*
X69960627Y-58384700D01*
X69960627Y-58384700D02*
X69960762Y-58380472D01*
X69960762Y-58380472D02*
X69960702Y-58376387D01*
X69960702Y-58376387D02*
X69960448Y-58372442D01*
X69960448Y-58372442D02*
X69960000Y-58368635D01*
X69960000Y-58368635D02*
X69959361Y-58364963D01*
X69959361Y-58364963D02*
X69958531Y-58361422D01*
X69958531Y-58361422D02*
X69957511Y-58358008D01*
X69957511Y-58358008D02*
X69956304Y-58354720D01*
X69956304Y-58354720D02*
X69954908Y-58351553D01*
X69954908Y-58351553D02*
X69953327Y-58348505D01*
X69953327Y-58348505D02*
X69951561Y-58345573D01*
X69951561Y-58345573D02*
X69949612Y-58342753D01*
X69949612Y-58342753D02*
X69947479Y-58340042D01*
X69947479Y-58340042D02*
X69945166Y-58337436D01*
X69945166Y-58337436D02*
X69942672Y-58334934D01*
X69942672Y-58334934D02*
X69939999Y-58332532D01*
X69939999Y-58332532D02*
X69937148Y-58330226D01*
X69937148Y-58330226D02*
X69934121Y-58328013D01*
X69934121Y-58328013D02*
X69930918Y-58325891D01*
X69930918Y-58325891D02*
X69923989Y-58321904D01*
X69923989Y-58321904D02*
X69916373Y-58318241D01*
X69916373Y-58318241D02*
X69908077Y-58314876D01*
X69908077Y-58314876D02*
X69904282Y-58313212D01*
X69904282Y-58313212D02*
X69900443Y-58311672D01*
X69900443Y-58311672D02*
X69896563Y-58310253D01*
X69896563Y-58310253D02*
X69892646Y-58308959D01*
X69892646Y-58308959D02*
X69888694Y-58307788D01*
X69888694Y-58307788D02*
X69884711Y-58306741D01*
X69884711Y-58306741D02*
X69880698Y-58305819D01*
X69880698Y-58305819D02*
X69876660Y-58305023D01*
X69876660Y-58305023D02*
X69872599Y-58304353D01*
X69872599Y-58304353D02*
X69868519Y-58303809D01*
X69868519Y-58303809D02*
X69864421Y-58303392D01*
X69864421Y-58303392D02*
X69860310Y-58303103D01*
X69860310Y-58303103D02*
X69856187Y-58302943D01*
X69856187Y-58302943D02*
X69852057Y-58302910D01*
X69852057Y-58302910D02*
X69847921Y-58303007D01*
X69847921Y-58303007D02*
X69843783Y-58303234D01*
X69843783Y-58303234D02*
X69836905Y-58303114D01*
X69836905Y-58303114D02*
X69830045Y-58303260D01*
X69830045Y-58303260D02*
X69823210Y-58303669D01*
X69823210Y-58303669D02*
X69816410Y-58304341D01*
X69816410Y-58304341D02*
X69809650Y-58305272D01*
X69809650Y-58305272D02*
X69802937Y-58306461D01*
X69802937Y-58306461D02*
X69796281Y-58307905D01*
X69796281Y-58307905D02*
X69789686Y-58309603D01*
X69789686Y-58309603D02*
X69783162Y-58311553D01*
X69783162Y-58311553D02*
X69776715Y-58313752D01*
X69776715Y-58313752D02*
X69770353Y-58316199D01*
X69770353Y-58316199D02*
X69764083Y-58318891D01*
X69764083Y-58318891D02*
X69757912Y-58321826D01*
X69757912Y-58321826D02*
X69751847Y-58325003D01*
X69751847Y-58325003D02*
X69745896Y-58328420D01*
X69745896Y-58328420D02*
X69740067Y-58332074D01*
X69740067Y-58332074D02*
X69720905Y-58339291D01*
X69720905Y-58339291D02*
X69701915Y-58346906D01*
X69701915Y-58346906D02*
X69683104Y-58354917D01*
X69683104Y-58354917D02*
X69664477Y-58363320D01*
X69664477Y-58363320D02*
X69646040Y-58372111D01*
X69646040Y-58372111D02*
X69627799Y-58381287D01*
X69627799Y-58381287D02*
X69609761Y-58390845D01*
X69609761Y-58390845D02*
X69591930Y-58400780D01*
X69591930Y-58400780D02*
X69574314Y-58411090D01*
X69574314Y-58411090D02*
X69556917Y-58421772D01*
X69556917Y-58421772D02*
X69539746Y-58432822D01*
X69539746Y-58432822D02*
X69522808Y-58444236D01*
X69522808Y-58444236D02*
X69506107Y-58456011D01*
X69506107Y-58456011D02*
X69489650Y-58468144D01*
X69489650Y-58468144D02*
X69473443Y-58480631D01*
X69473443Y-58480631D02*
X69457491Y-58493469D01*
X69457491Y-58493469D02*
X69449264Y-58502100D01*
X69449264Y-58502100D02*
X69441852Y-58510722D01*
X69441852Y-58510722D02*
X69435263Y-58519327D01*
X69435263Y-58519327D02*
X69429508Y-58527907D01*
X69429508Y-58527907D02*
X69424594Y-58536452D01*
X69424594Y-58536452D02*
X69422456Y-58540709D01*
X69422456Y-58540709D02*
X69420531Y-58544955D01*
X69420531Y-58544955D02*
X69418821Y-58549187D01*
X69418821Y-58549187D02*
X69417328Y-58553406D01*
X69417328Y-58553406D02*
X69416051Y-58557610D01*
X69416051Y-58557610D02*
X69414993Y-58561798D01*
X69414993Y-58561798D02*
X69414154Y-58565969D01*
X69414154Y-58565969D02*
X69413536Y-58570122D01*
X69413536Y-58570122D02*
X69413139Y-58574255D01*
X69413139Y-58574255D02*
X69412965Y-58578369D01*
X69412965Y-58578369D02*
X69413014Y-58582461D01*
X69413014Y-58582461D02*
X69413289Y-58586530D01*
X69413289Y-58586530D02*
X69413790Y-58590576D01*
X69413790Y-58590576D02*
X69414518Y-58594598D01*
X69414518Y-58594598D02*
X69415474Y-58598594D01*
X69415474Y-58598594D02*
X69416659Y-58602564D01*
X69416659Y-58602564D02*
X69418075Y-58606505D01*
X69418075Y-58606505D02*
X69419723Y-58610418D01*
X69419723Y-58610418D02*
X69421603Y-58614301D01*
X69421603Y-58614301D02*
X69423718Y-58618154D01*
X69423718Y-58618154D02*
X69426067Y-58621974D01*
X69426067Y-58621974D02*
X69428652Y-58625761D01*
X69428652Y-58625761D02*
X69449417Y-58671160D01*
X69449417Y-58671160D02*
X69468401Y-58717272D01*
X69468401Y-58717272D02*
X69485588Y-58764045D01*
X69485588Y-58764045D02*
X69500962Y-58811425D01*
X69500962Y-58811425D02*
X69514507Y-58859360D01*
X69514507Y-58859360D02*
X69526208Y-58907797D01*
X69526208Y-58907797D02*
X69536048Y-58956684D01*
X69536048Y-58956684D02*
X69544011Y-59005967D01*
X69544011Y-59005967D02*
X69541955Y-59005110D01*
X69541955Y-59005110D02*
X69539877Y-59004317D01*
X69539877Y-59004317D02*
X69537779Y-59003590D01*
X69537779Y-59003590D02*
X69535662Y-59002927D01*
X69535662Y-59002927D02*
X69533528Y-59002330D01*
X69533528Y-59002330D02*
X69531378Y-59001798D01*
X69531378Y-59001798D02*
X69529214Y-59001332D01*
X69529214Y-59001332D02*
X69527037Y-59000933D01*
X69527037Y-59000933D02*
X69524849Y-59000599D01*
X69524849Y-59000599D02*
X69522652Y-59000333D01*
X69522652Y-59000333D02*
X69520446Y-59000133D01*
X69520446Y-59000133D02*
X69518234Y-59000000D01*
X69518234Y-59000000D02*
X69516017Y-58999935D01*
X69516017Y-58999935D02*
X69513796Y-58999938D01*
X69513796Y-58999938D02*
X69511574Y-59000008D01*
X69511574Y-59000008D02*
X69509350Y-59000146D01*
X69509350Y-59000146D02*
X68996588Y-58896430D01*
X68996588Y-58896430D02*
X68957591Y-58886562D01*
X68957591Y-58886562D02*
X68918344Y-58877862D01*
X68918344Y-58877862D02*
X68878873Y-58870333D01*
X68878873Y-58870333D02*
X68839205Y-58863979D01*
X68839205Y-58863979D02*
X68799367Y-58858804D01*
X68799367Y-58858804D02*
X68759383Y-58854812D01*
X68759383Y-58854812D02*
X68719282Y-58852007D01*
X68719282Y-58852007D02*
X68679088Y-58850392D01*
X68679088Y-58850392D02*
X68634598Y-58851774D01*
X68634598Y-58851774D02*
X68592017Y-58855768D01*
X68592017Y-58855768D02*
X68551498Y-58862144D01*
X68551498Y-58862144D02*
X68513194Y-58870674D01*
X68513194Y-58870674D02*
X68477259Y-58881130D01*
X68477259Y-58881130D02*
X68443846Y-58893283D01*
X68443846Y-58893283D02*
X68413109Y-58906903D01*
X68413109Y-58906903D02*
X68385202Y-58921764D01*
X68385202Y-58921764D02*
X68360277Y-58937635D01*
X68360277Y-58937635D02*
X68338488Y-58954288D01*
X68338488Y-58954288D02*
X68319990Y-58971494D01*
X68319990Y-58971494D02*
X68304934Y-58989026D01*
X68304934Y-58989026D02*
X68293475Y-59006653D01*
X68293475Y-59006653D02*
X68289142Y-59015432D01*
X68289142Y-59015432D02*
X68285766Y-59024148D01*
X68285766Y-59024148D02*
X68283366Y-59032774D01*
X68283366Y-59032774D02*
X68281961Y-59041282D01*
X68281961Y-59041282D02*
X68281570Y-59049642D01*
X68281570Y-59049642D02*
X68282213Y-59057826D01*
X68282213Y-59057826D02*
X68288714Y-59067384D01*
X68288714Y-59067384D02*
X68295233Y-59076214D01*
X68295233Y-59076214D02*
X68301784Y-59084311D01*
X68301784Y-59084311D02*
X68308386Y-59091672D01*
X68308386Y-59091672D02*
X68315054Y-59098293D01*
X68315054Y-59098293D02*
X68318418Y-59101325D01*
X68318418Y-59101325D02*
X68321806Y-59104172D01*
X68321806Y-59104172D02*
X68325218Y-59106831D01*
X68325218Y-59106831D02*
X68328657Y-59109304D01*
X68328657Y-59109304D02*
X68332126Y-59111589D01*
X68332126Y-59111589D02*
X68335626Y-59113686D01*
X68335626Y-59113686D02*
X68339159Y-59115595D01*
X68339159Y-59115595D02*
X68342727Y-59117314D01*
X68342727Y-59117314D02*
X68346333Y-59118845D01*
X68346333Y-59118845D02*
X68349979Y-59120186D01*
X68349979Y-59120186D02*
X68353666Y-59121337D01*
X68353666Y-59121337D02*
X68357397Y-59122297D01*
X68357397Y-59122297D02*
X68361174Y-59123067D01*
X68361174Y-59123067D02*
X68364998Y-59123645D01*
X68364998Y-59123645D02*
X68368873Y-59124031D01*
X68368873Y-59124031D02*
X68372800Y-59124225D01*
X68372800Y-59124225D02*
X68376781Y-59124226D01*
X68376781Y-59124226D02*
X68380818Y-59124034D01*
X68380818Y-59124034D02*
X68384914Y-59123648D01*
X68384914Y-59123648D02*
X68389070Y-59123069D01*
X68389070Y-59123069D02*
X68393288Y-59122295D01*
X68393288Y-59122295D02*
X68397571Y-59121326D01*
X68397571Y-59121326D02*
X68773259Y-59150620D01*
X68773259Y-59150620D02*
X69094847Y-59178872D01*
X69094847Y-59178872D02*
X69360229Y-59207125D01*
X69360229Y-59207125D02*
X69471183Y-59221577D01*
X69471183Y-59221577D02*
X69567294Y-59236419D01*
X69567294Y-59236419D02*
X69567806Y-59237527D01*
X69567806Y-59237527D02*
X69568253Y-59238665D01*
X69568253Y-59238665D02*
X69568638Y-59239831D01*
X69568638Y-59239831D02*
X69568965Y-59241024D01*
X69568965Y-59241024D02*
X69569455Y-59243481D01*
X69569455Y-59243481D02*
X69569750Y-59246019D01*
X69569750Y-59246019D02*
X69569873Y-59248622D01*
X69569873Y-59248622D02*
X69569852Y-59251274D01*
X69569852Y-59251274D02*
X69569711Y-59253959D01*
X69569711Y-59253959D02*
X69569477Y-59256660D01*
X69569477Y-59256660D02*
X69568829Y-59262046D01*
X69568829Y-59262046D02*
X69568113Y-59267301D01*
X69568113Y-59267301D02*
X69567533Y-59272296D01*
X69567533Y-59272296D02*
X69567358Y-59274655D01*
X69567358Y-59274655D02*
X69567294Y-59276901D01*
X69567294Y-59276901D02*
X69430244Y-59386969D01*
X69430244Y-59386969D02*
X69290647Y-59493663D01*
X69290647Y-59493663D02*
X69148567Y-59596941D01*
X69148567Y-59596941D02*
X69004067Y-59696760D01*
X69004067Y-59696760D02*
X68857210Y-59793077D01*
X68857210Y-59793077D02*
X68708059Y-59885851D01*
X68708059Y-59885851D02*
X68556677Y-59975038D01*
X68556677Y-59975038D02*
X68403127Y-60060596D01*
X68403127Y-60060596D02*
X67250602Y-60457472D01*
X67250602Y-60457472D02*
X67242174Y-60460700D01*
X67242174Y-60460700D02*
X67234167Y-60463943D01*
X67234167Y-60463943D02*
X67226596Y-60467208D01*
X67226596Y-60467208D02*
X67219480Y-60470502D01*
X67219480Y-60470502D02*
X67212836Y-60473834D01*
X67212836Y-60473834D02*
X67206679Y-60477210D01*
X67206679Y-60477210D02*
X67201028Y-60480639D01*
X67201028Y-60480639D02*
X67195899Y-60484128D01*
X67195899Y-60484128D02*
X67191310Y-60487686D01*
X67191310Y-60487686D02*
X67187278Y-60491320D01*
X67187278Y-60491320D02*
X67183819Y-60495037D01*
X67183819Y-60495037D02*
X67180950Y-60498846D01*
X67180950Y-60498846D02*
X67178690Y-60502754D01*
X67178690Y-60502754D02*
X67177792Y-60504747D01*
X67177792Y-60504747D02*
X67177054Y-60506769D01*
X67177054Y-60506769D02*
X67176475Y-60508819D01*
X67176475Y-60508819D02*
X67176060Y-60510898D01*
X67176060Y-60510898D02*
X67175809Y-60513009D01*
X67175809Y-60513009D02*
X67175725Y-60515151D01*
X67175725Y-60515151D02*
X67234150Y-60535150D01*
X67234150Y-60535150D02*
X67292973Y-60553748D01*
X67292973Y-60553748D02*
X67352169Y-60570942D01*
X67352169Y-60570942D02*
X67411711Y-60586729D01*
X67411711Y-60586729D02*
X67471576Y-60601103D01*
X67471576Y-60601103D02*
X67531737Y-60614061D01*
X67531737Y-60614061D02*
X67592169Y-60625599D01*
X67592169Y-60625599D02*
X67652847Y-60635714D01*
X67652847Y-60635714D02*
X67713746Y-60644400D01*
X67713746Y-60644400D02*
X67774841Y-60651656D01*
X67774841Y-60651656D02*
X67836105Y-60657475D01*
X67836105Y-60657475D02*
X67897515Y-60661856D01*
X67897515Y-60661856D02*
X67959045Y-60664793D01*
X67959045Y-60664793D02*
X68020669Y-60666283D01*
X68020669Y-60666283D02*
X68082362Y-60666321D01*
X68082362Y-60666321D02*
X68144100Y-60664905D01*
X68144100Y-60664905D02*
X68164324Y-60660070D01*
X68164324Y-60660070D02*
X68186106Y-60653107D01*
X68186106Y-60653107D02*
X68234359Y-60632796D01*
X68234359Y-60632796D02*
X68288892Y-60603971D01*
X68288892Y-60603971D02*
X68349739Y-60566633D01*
X68349739Y-60566633D02*
X68416933Y-60520782D01*
X68416933Y-60520782D02*
X68490507Y-60466419D01*
X68490507Y-60466419D02*
X68570494Y-60403544D01*
X68570494Y-60403544D02*
X68656928Y-60332158D01*
X68656928Y-60332158D02*
X68749843Y-60252261D01*
X68749843Y-60252261D02*
X68849271Y-60163853D01*
X68849271Y-60163853D02*
X68955246Y-60066934D01*
X68955246Y-60066934D02*
X69067801Y-59961506D01*
X69067801Y-59961506D02*
X69186970Y-59847568D01*
X69186970Y-59847568D02*
X69312786Y-59725121D01*
X69312786Y-59725121D02*
X69584491Y-59454701D01*
X69584491Y-59454701D02*
X69586413Y-59489838D01*
X69586413Y-59489838D02*
X69587857Y-59530363D01*
X69587857Y-59530363D02*
X69589585Y-59627606D01*
X69589585Y-59627606D02*
X69590221Y-59746478D01*
X69590221Y-59746478D02*
X69590312Y-59887030D01*
X69590312Y-59887030D02*
X69587536Y-59920384D01*
X69587536Y-59920384D02*
X69585721Y-59953755D01*
X69585721Y-59953755D02*
X69584862Y-59987124D01*
X69584862Y-59987124D02*
X69584959Y-60020469D01*
X69584959Y-60020469D02*
X69586008Y-60053771D01*
X69586008Y-60053771D02*
X69588007Y-60087010D01*
X69588007Y-60087010D02*
X69590953Y-60120165D01*
X69590953Y-60120165D02*
X69594843Y-60153215D01*
X69594843Y-60153215D02*
X69599674Y-60186141D01*
X69599674Y-60186141D02*
X69605445Y-60218922D01*
X69605445Y-60218922D02*
X69612151Y-60251539D01*
X69612151Y-60251539D02*
X69619791Y-60283970D01*
X69619791Y-60283970D02*
X69628362Y-60316195D01*
X69628362Y-60316195D02*
X69637861Y-60348194D01*
X69637861Y-60348194D02*
X69648286Y-60379948D01*
X69648286Y-60379948D02*
X69659633Y-60411434D01*
X69659633Y-60411434D02*
X69664571Y-60414003D01*
X69664571Y-60414003D02*
X69669463Y-60416301D01*
X69669463Y-60416301D02*
X69674309Y-60418330D01*
X69674309Y-60418330D02*
X69679111Y-60420091D01*
X69679111Y-60420091D02*
X69683869Y-60421586D01*
X69683869Y-60421586D02*
X69688583Y-60422815D01*
X69688583Y-60422815D02*
X69693253Y-60423780D01*
X69693253Y-60423780D02*
X69697882Y-60424481D01*
X69697882Y-60424481D02*
X69702469Y-60424921D01*
X69702469Y-60424921D02*
X69707014Y-60425100D01*
X69707014Y-60425100D02*
X69711519Y-60425019D01*
X69711519Y-60425019D02*
X69715983Y-60424680D01*
X69715983Y-60424680D02*
X69720408Y-60424083D01*
X69720408Y-60424083D02*
X69724794Y-60423230D01*
X69724794Y-60423230D02*
X69729142Y-60422122D01*
X69729142Y-60422122D02*
X69733452Y-60420761D01*
X69733452Y-60420761D02*
X69737725Y-60419146D01*
X69737725Y-60419146D02*
X69741961Y-60417280D01*
X69741961Y-60417280D02*
X69746161Y-60415164D01*
X69746161Y-60415164D02*
X69750325Y-60412798D01*
X69750325Y-60412798D02*
X69754455Y-60410185D01*
X69754455Y-60410185D02*
X69758550Y-60407324D01*
X69758550Y-60407324D02*
X69762612Y-60404218D01*
X69762612Y-60404218D02*
X69766641Y-60400867D01*
X69766641Y-60400867D02*
X69770637Y-60397273D01*
X69770637Y-60397273D02*
X69774601Y-60393437D01*
X69774601Y-60393437D02*
X69782435Y-60385042D01*
X69782435Y-60385042D02*
X69790149Y-60375692D01*
X69790149Y-60375692D02*
X69797746Y-60365397D01*
X69797746Y-60365397D02*
X69812512Y-60331592D01*
X69812512Y-60331592D02*
X69825918Y-60297271D01*
X69825918Y-60297271D02*
X69837951Y-60262475D01*
X69837951Y-60262475D02*
X69848600Y-60227246D01*
X69848600Y-60227246D02*
X69857853Y-60191624D01*
X69857853Y-60191624D02*
X69865698Y-60155652D01*
X69865698Y-60155652D02*
X69872125Y-60119371D01*
X69872125Y-60119371D02*
X69877121Y-60082822D01*
X69877121Y-60082822D02*
X69867367Y-60015543D01*
X69867367Y-60015543D02*
X69858960Y-59948104D01*
X69858960Y-59948104D02*
X69851903Y-59880524D01*
X69851903Y-59880524D02*
X69846196Y-59812824D01*
X69846196Y-59812824D02*
X69841841Y-59745023D01*
X69841841Y-59745023D02*
X69838840Y-59677142D01*
X69838840Y-59677142D02*
X69837194Y-59609201D01*
X69837194Y-59609201D02*
X69836904Y-59541221D01*
X69836904Y-59541221D02*
X69848240Y-59554989D01*
X69848240Y-59554989D02*
X69864983Y-59574624D01*
X69864983Y-59574624D02*
X69887134Y-59600063D01*
X69887134Y-59600063D02*
X69914692Y-59631244D01*
X69914692Y-59631244D02*
X69947657Y-59668106D01*
X69947657Y-59668106D02*
X69986030Y-59710586D01*
X69986030Y-59710586D02*
X70029810Y-59758622D01*
X70029810Y-59758622D02*
X70078998Y-59812153D01*
X70078998Y-59812153D02*
X70096012Y-59827203D01*
X70096012Y-59827203D02*
X70112616Y-59842262D01*
X70112616Y-59842262D02*
X70128948Y-59857439D01*
X70128948Y-59857439D02*
X70145144Y-59872842D01*
X70145144Y-59872842D02*
X70161339Y-59888580D01*
X70161339Y-59888580D02*
X70177671Y-59904761D01*
X70177671Y-59904761D02*
X70211289Y-59938888D01*
X70211289Y-59938888D02*
X70338436Y-60060893D01*
X70338436Y-60060893D02*
X70465900Y-60173736D01*
X70465900Y-60173736D02*
X70592681Y-60277471D01*
X70592681Y-60277471D02*
X70717776Y-60372152D01*
X70717776Y-60372152D02*
X70840183Y-60457831D01*
X70840183Y-60457831D02*
X70958900Y-60534563D01*
X70958900Y-60534563D02*
X71072923Y-60602401D01*
X71072923Y-60602401D02*
X71181252Y-60661399D01*
X71181252Y-60661399D02*
X71282884Y-60711609D01*
X71282884Y-60711609D02*
X71376815Y-60753086D01*
X71376815Y-60753086D02*
X71462045Y-60785883D01*
X71462045Y-60785883D02*
X71537571Y-60810053D01*
X71537571Y-60810053D02*
X71602391Y-60825650D01*
X71602391Y-60825650D02*
X71655502Y-60832728D01*
X71655502Y-60832728D02*
X71695902Y-60831339D01*
X71695902Y-60831339D02*
X71711023Y-60827487D01*
X71711023Y-60827487D02*
X71722590Y-60821538D01*
X71722590Y-60821538D02*
X71725168Y-60820453D01*
X71725168Y-60820453D02*
X71727547Y-60819331D01*
X71727547Y-60819331D02*
X71729726Y-60818169D01*
X71729726Y-60818169D02*
X71731704Y-60816965D01*
X71731704Y-60816965D02*
X71733481Y-60815718D01*
X71733481Y-60815718D02*
X71735058Y-60814425D01*
X71735058Y-60814425D02*
X71736434Y-60813085D01*
X71736434Y-60813085D02*
X71737609Y-60811695D01*
X71737609Y-60811695D02*
X71738583Y-60810253D01*
X71738583Y-60810253D02*
X71739355Y-60808758D01*
X71739355Y-60808758D02*
X71739926Y-60807207D01*
X71739926Y-60807207D02*
X71740296Y-60805599D01*
X71740296Y-60805599D02*
X71740463Y-60803932D01*
X71740463Y-60803932D02*
X71740429Y-60802203D01*
X71740429Y-60802203D02*
X71740193Y-60800410D01*
X71740193Y-60800410D02*
X71739754Y-60798552D01*
X71739754Y-60798552D02*
X71739114Y-60796627D01*
X71739114Y-60796627D02*
X71738271Y-60794632D01*
X71738271Y-60794632D02*
X71737225Y-60792566D01*
X71737225Y-60792566D02*
X71735976Y-60790426D01*
X71735976Y-60790426D02*
X71734525Y-60788211D01*
X71734525Y-60788211D02*
X71732871Y-60785919D01*
X71732871Y-60785919D02*
X71731013Y-60783547D01*
X71731013Y-60783547D02*
X71728952Y-60781094D01*
X71728952Y-60781094D02*
X71726688Y-60778557D01*
X71726688Y-60778557D02*
X71724220Y-60775936D01*
X71724220Y-60775936D02*
X71721548Y-60773227D01*
X71721548Y-60773227D02*
X71718672Y-60770428D01*
X71718672Y-60770428D02*
X71715592Y-60767539D01*
X71715592Y-60767539D02*
X71712308Y-60764556D01*
X71712308Y-60764556D02*
X71708820Y-60761478D01*
X71708820Y-60761478D02*
X71705127Y-60758302D01*
X71705127Y-60758302D02*
X71582746Y-60691641D01*
X71582746Y-60691641D02*
X71462541Y-60621544D01*
X71462541Y-60621544D02*
X71344580Y-60548069D01*
X71344580Y-60548069D02*
X71228927Y-60471274D01*
X71228927Y-60471274D02*
X71115650Y-60391217D01*
X71115650Y-60391217D02*
X71004816Y-60307955D01*
X71004816Y-60307955D02*
X70896490Y-60221546D01*
X70896490Y-60221546D02*
X70790738Y-60132049D01*
X70790738Y-60132049D02*
X70687629Y-60039521D01*
X70687629Y-60039521D02*
X70587227Y-59944021D01*
X70587227Y-59944021D02*
X70489599Y-59845605D01*
X70489599Y-59845605D02*
X70394811Y-59744332D01*
X70394811Y-59744332D02*
X70302931Y-59640260D01*
X70302931Y-59640260D02*
X70214024Y-59533446D01*
X70214024Y-59533446D02*
X70128157Y-59423949D01*
X70128157Y-59423949D02*
X70045397Y-59311826D01*
X70045397Y-59311826D02*
X70340803Y-59349992D01*
X70340803Y-59349992D02*
X70410252Y-59359363D01*
X70410252Y-59359363D02*
X70478188Y-59369348D01*
X70478188Y-59369348D02*
X70544735Y-59380288D01*
X70544735Y-59380288D02*
X70610017Y-59392524D01*
X70610017Y-59392524D02*
X70624347Y-59394756D01*
X70624347Y-59394756D02*
X70638708Y-59396757D01*
X70638708Y-59396757D02*
X70653098Y-59398527D01*
X70653098Y-59398527D02*
X70667513Y-59400066D01*
X70667513Y-59400066D02*
X70681951Y-59401372D01*
X70681951Y-59401372D02*
X70696409Y-59402447D01*
X70696409Y-59402447D02*
X70710885Y-59403290D01*
X70710885Y-59403290D02*
X70725375Y-59403901D01*
X70725375Y-59403901D02*
X70753377Y-59404498D01*
X70753377Y-59404498D02*
X70781134Y-59403242D01*
X70781134Y-59403242D02*
X70808568Y-59400174D01*
X70808568Y-59400174D02*
X70835599Y-59395334D01*
X70835599Y-59395334D02*
X70862148Y-59388763D01*
X70862148Y-59388763D02*
X70888137Y-59380499D01*
X70888137Y-59380499D02*
X70913485Y-59370584D01*
X70913485Y-59370584D02*
X70938114Y-59359058D01*
X70938114Y-59359058D02*
X70961945Y-59345961D01*
X70961945Y-59345961D02*
X70984898Y-59331332D01*
X70984898Y-59331332D02*
X71006894Y-59315213D01*
X71006894Y-59315213D02*
X71027855Y-59297644D01*
X71027855Y-59297644D02*
X71047702Y-59278664D01*
X71047702Y-59278664D02*
X71066354Y-59258314D01*
X71066354Y-59258314D02*
X71083733Y-59236635D01*
X71083733Y-59236635D02*
X71099761Y-59213665D01*
X71099761Y-59213665D02*
X71100025Y-59213930D01*
X71100025Y-59213930D02*
X71100025Y-59213930D01*
G36*
X69856187Y-58302943D02*
G01*
X69860310Y-58303103D01*
X69864421Y-58303392D01*
X69868519Y-58303809D01*
X69872599Y-58304353D01*
X69876660Y-58305023D01*
X69880698Y-58305819D01*
X69884711Y-58306741D01*
X69888694Y-58307788D01*
X69892646Y-58308959D01*
X69896563Y-58310253D01*
X69900443Y-58311672D01*
X69904282Y-58313212D01*
X69908077Y-58314876D01*
X69916373Y-58318241D01*
X69923989Y-58321904D01*
X69930918Y-58325891D01*
X69934121Y-58328013D01*
X69937148Y-58330226D01*
X69939999Y-58332532D01*
X69942672Y-58334934D01*
X69945166Y-58337436D01*
X69947479Y-58340042D01*
X69949612Y-58342753D01*
X69951561Y-58345573D01*
X69953327Y-58348505D01*
X69954908Y-58351553D01*
X69956304Y-58354720D01*
X69957511Y-58358008D01*
X69958531Y-58361422D01*
X69959361Y-58364963D01*
X69960000Y-58368635D01*
X69960448Y-58372442D01*
X69960702Y-58376387D01*
X69960762Y-58380472D01*
X69960627Y-58384700D01*
X69960296Y-58389076D01*
X69959767Y-58393602D01*
X69959038Y-58398281D01*
X69956981Y-58408111D01*
X69954115Y-58418592D01*
X69937219Y-58456295D01*
X69921573Y-58494452D01*
X69907182Y-58533032D01*
X69894052Y-58572004D01*
X69882189Y-58611336D01*
X69871597Y-58650998D01*
X69862283Y-58690958D01*
X69854253Y-58731186D01*
X69847512Y-58771649D01*
X69842066Y-58812317D01*
X69837921Y-58853159D01*
X69835082Y-58894143D01*
X69833555Y-58935239D01*
X69833346Y-58976415D01*
X69834461Y-59017641D01*
X69836905Y-59058884D01*
X69882942Y-59064705D01*
X69935859Y-59070526D01*
X70037194Y-59075553D01*
X70146731Y-59086930D01*
X70256269Y-59098571D01*
X70359986Y-59104392D01*
X70463702Y-59109948D01*
X70569536Y-59121590D01*
X70615573Y-59121590D01*
X70668490Y-59127411D01*
X70714263Y-59133232D01*
X70754744Y-59133232D01*
X70800781Y-59138788D01*
X70840733Y-59144080D01*
X70875129Y-59149901D01*
X70915611Y-59149901D01*
X70944450Y-59156251D01*
X70978846Y-59162071D01*
X71001865Y-59167628D01*
X71030704Y-59173448D01*
X71048167Y-59179269D01*
X71065365Y-59185090D01*
X71082563Y-59191440D01*
X71088383Y-59196996D01*
X71094204Y-59202817D01*
X71100025Y-59202817D01*
X71100025Y-59213930D01*
X71099761Y-59213665D01*
X71083733Y-59236635D01*
X71066354Y-59258314D01*
X71047702Y-59278664D01*
X71027855Y-59297644D01*
X71006894Y-59315213D01*
X70984898Y-59331332D01*
X70961945Y-59345961D01*
X70938114Y-59359058D01*
X70913485Y-59370584D01*
X70888137Y-59380499D01*
X70862148Y-59388763D01*
X70835599Y-59395334D01*
X70808568Y-59400174D01*
X70781134Y-59403242D01*
X70753377Y-59404498D01*
X70725375Y-59403901D01*
X70710885Y-59403290D01*
X70696409Y-59402447D01*
X70681951Y-59401372D01*
X70667513Y-59400066D01*
X70653098Y-59398527D01*
X70638708Y-59396757D01*
X70624347Y-59394756D01*
X70610017Y-59392524D01*
X70544735Y-59380288D01*
X70478188Y-59369348D01*
X70410252Y-59359363D01*
X70340803Y-59349992D01*
X70045397Y-59311826D01*
X70128157Y-59423949D01*
X70214024Y-59533446D01*
X70302931Y-59640260D01*
X70394811Y-59744332D01*
X70489599Y-59845605D01*
X70587227Y-59944021D01*
X70687629Y-60039521D01*
X70790738Y-60132049D01*
X70896490Y-60221546D01*
X71004816Y-60307955D01*
X71115650Y-60391217D01*
X71228927Y-60471274D01*
X71344580Y-60548069D01*
X71462541Y-60621544D01*
X71582746Y-60691641D01*
X71705127Y-60758302D01*
X71708820Y-60761478D01*
X71712308Y-60764556D01*
X71715592Y-60767539D01*
X71718672Y-60770428D01*
X71721548Y-60773227D01*
X71724220Y-60775936D01*
X71726688Y-60778557D01*
X71728952Y-60781094D01*
X71731013Y-60783547D01*
X71732871Y-60785919D01*
X71734525Y-60788211D01*
X71735976Y-60790426D01*
X71737225Y-60792566D01*
X71738271Y-60794632D01*
X71739114Y-60796627D01*
X71739754Y-60798552D01*
X71740193Y-60800410D01*
X71740429Y-60802203D01*
X71740463Y-60803932D01*
X71740296Y-60805599D01*
X71739926Y-60807207D01*
X71739355Y-60808758D01*
X71738583Y-60810253D01*
X71737609Y-60811695D01*
X71736434Y-60813085D01*
X71735058Y-60814425D01*
X71733481Y-60815718D01*
X71731704Y-60816965D01*
X71729726Y-60818169D01*
X71727547Y-60819331D01*
X71725168Y-60820453D01*
X71722590Y-60821538D01*
X71711023Y-60827487D01*
X71695902Y-60831339D01*
X71655502Y-60832728D01*
X71602391Y-60825650D01*
X71537571Y-60810053D01*
X71462045Y-60785883D01*
X71376815Y-60753086D01*
X71282884Y-60711609D01*
X71181252Y-60661399D01*
X71072923Y-60602401D01*
X70958900Y-60534563D01*
X70840183Y-60457831D01*
X70717776Y-60372152D01*
X70592681Y-60277471D01*
X70465900Y-60173736D01*
X70338436Y-60060893D01*
X70211289Y-59938888D01*
X70177671Y-59904761D01*
X70161339Y-59888580D01*
X70145144Y-59872842D01*
X70128948Y-59857439D01*
X70112616Y-59842262D01*
X70096012Y-59827203D01*
X70078998Y-59812153D01*
X70029810Y-59758622D01*
X69986030Y-59710586D01*
X69947657Y-59668106D01*
X69914692Y-59631244D01*
X69887134Y-59600063D01*
X69864983Y-59574624D01*
X69848240Y-59554989D01*
X69836904Y-59541221D01*
X69837194Y-59609201D01*
X69838840Y-59677142D01*
X69841841Y-59745023D01*
X69846196Y-59812824D01*
X69851903Y-59880524D01*
X69858960Y-59948104D01*
X69867367Y-60015543D01*
X69877121Y-60082822D01*
X69872125Y-60119371D01*
X69865698Y-60155652D01*
X69857853Y-60191624D01*
X69848600Y-60227246D01*
X69837951Y-60262475D01*
X69825918Y-60297271D01*
X69812512Y-60331592D01*
X69797746Y-60365397D01*
X69790149Y-60375692D01*
X69782435Y-60385042D01*
X69774601Y-60393437D01*
X69770637Y-60397273D01*
X69766641Y-60400867D01*
X69762612Y-60404218D01*
X69758550Y-60407324D01*
X69754455Y-60410185D01*
X69750325Y-60412798D01*
X69746161Y-60415164D01*
X69741961Y-60417280D01*
X69737725Y-60419146D01*
X69733452Y-60420761D01*
X69729142Y-60422122D01*
X69724794Y-60423230D01*
X69720408Y-60424083D01*
X69715983Y-60424680D01*
X69711519Y-60425019D01*
X69707014Y-60425100D01*
X69702469Y-60424921D01*
X69697882Y-60424481D01*
X69693253Y-60423780D01*
X69688583Y-60422815D01*
X69683869Y-60421586D01*
X69679111Y-60420091D01*
X69674309Y-60418330D01*
X69669463Y-60416301D01*
X69664571Y-60414003D01*
X69659633Y-60411434D01*
X69648286Y-60379948D01*
X69637861Y-60348194D01*
X69628362Y-60316195D01*
X69619791Y-60283970D01*
X69612151Y-60251539D01*
X69605445Y-60218922D01*
X69599674Y-60186141D01*
X69594843Y-60153215D01*
X69590953Y-60120165D01*
X69588007Y-60087010D01*
X69586008Y-60053771D01*
X69584959Y-60020469D01*
X69584862Y-59987124D01*
X69585721Y-59953755D01*
X69587536Y-59920384D01*
X69590312Y-59887030D01*
X69590221Y-59746478D01*
X69589585Y-59627606D01*
X69587857Y-59530363D01*
X69586413Y-59489838D01*
X69584491Y-59454701D01*
X69312786Y-59725121D01*
X69186970Y-59847568D01*
X69067801Y-59961506D01*
X68955246Y-60066934D01*
X68849271Y-60163853D01*
X68749843Y-60252261D01*
X68656928Y-60332158D01*
X68570494Y-60403544D01*
X68490507Y-60466419D01*
X68416933Y-60520782D01*
X68349739Y-60566633D01*
X68288892Y-60603971D01*
X68234359Y-60632796D01*
X68186106Y-60653107D01*
X68164324Y-60660070D01*
X68144100Y-60664905D01*
X68082362Y-60666321D01*
X68020669Y-60666283D01*
X67959045Y-60664793D01*
X67897515Y-60661856D01*
X67836105Y-60657475D01*
X67774841Y-60651656D01*
X67713746Y-60644400D01*
X67652847Y-60635714D01*
X67592169Y-60625599D01*
X67531737Y-60614061D01*
X67471576Y-60601103D01*
X67411711Y-60586729D01*
X67352169Y-60570942D01*
X67292973Y-60553748D01*
X67234150Y-60535150D01*
X67175725Y-60515151D01*
X67175809Y-60513009D01*
X67176060Y-60510898D01*
X67176475Y-60508819D01*
X67177054Y-60506769D01*
X67177792Y-60504747D01*
X67178690Y-60502754D01*
X67180950Y-60498846D01*
X67183819Y-60495037D01*
X67187278Y-60491320D01*
X67191310Y-60487686D01*
X67195899Y-60484128D01*
X67201028Y-60480639D01*
X67206679Y-60477210D01*
X67212836Y-60473834D01*
X67219480Y-60470502D01*
X67226596Y-60467208D01*
X67234167Y-60463943D01*
X67242174Y-60460700D01*
X67250602Y-60457472D01*
X68403127Y-60060596D01*
X68556677Y-59975038D01*
X68708059Y-59885851D01*
X68857210Y-59793077D01*
X69004067Y-59696760D01*
X69148567Y-59596941D01*
X69290647Y-59493663D01*
X69430244Y-59386969D01*
X69567294Y-59276901D01*
X69567358Y-59274655D01*
X69567533Y-59272296D01*
X69568113Y-59267301D01*
X69568829Y-59262046D01*
X69569477Y-59256660D01*
X69569711Y-59253959D01*
X69569852Y-59251274D01*
X69569873Y-59248622D01*
X69569750Y-59246019D01*
X69569455Y-59243481D01*
X69568965Y-59241024D01*
X69568638Y-59239831D01*
X69568253Y-59238665D01*
X69567806Y-59237527D01*
X69567294Y-59236419D01*
X69471183Y-59221577D01*
X69360229Y-59207125D01*
X69094847Y-59178872D01*
X68773259Y-59150620D01*
X68397571Y-59121326D01*
X68393288Y-59122295D01*
X68389070Y-59123069D01*
X68384914Y-59123648D01*
X68380818Y-59124034D01*
X68376781Y-59124226D01*
X68372800Y-59124225D01*
X68368873Y-59124031D01*
X68364998Y-59123645D01*
X68361174Y-59123067D01*
X68357397Y-59122297D01*
X68353666Y-59121337D01*
X68349979Y-59120186D01*
X68346333Y-59118845D01*
X68342727Y-59117314D01*
X68339159Y-59115595D01*
X68335626Y-59113686D01*
X68332126Y-59111589D01*
X68328657Y-59109304D01*
X68325218Y-59106831D01*
X68321806Y-59104172D01*
X68318418Y-59101325D01*
X68315054Y-59098293D01*
X68308386Y-59091672D01*
X68301784Y-59084311D01*
X68295233Y-59076214D01*
X68288714Y-59067384D01*
X68282213Y-59057826D01*
X68281570Y-59049642D01*
X68281961Y-59041282D01*
X68283366Y-59032774D01*
X68285766Y-59024148D01*
X68289142Y-59015432D01*
X68293475Y-59006653D01*
X68304934Y-58989026D01*
X68319990Y-58971494D01*
X68338488Y-58954288D01*
X68360277Y-58937635D01*
X68385202Y-58921764D01*
X68413109Y-58906903D01*
X68443846Y-58893283D01*
X68477259Y-58881130D01*
X68513194Y-58870674D01*
X68551498Y-58862144D01*
X68592017Y-58855768D01*
X68634598Y-58851774D01*
X68679088Y-58850392D01*
X68719282Y-58852007D01*
X68759383Y-58854812D01*
X68799367Y-58858804D01*
X68839205Y-58863979D01*
X68878873Y-58870333D01*
X68918344Y-58877862D01*
X68957591Y-58886562D01*
X68996588Y-58896430D01*
X69509350Y-59000146D01*
X69511574Y-59000008D01*
X69513796Y-58999938D01*
X69516017Y-58999935D01*
X69518234Y-59000000D01*
X69520446Y-59000133D01*
X69522652Y-59000333D01*
X69524849Y-59000599D01*
X69527037Y-59000933D01*
X69529214Y-59001332D01*
X69531378Y-59001798D01*
X69533528Y-59002330D01*
X69535662Y-59002927D01*
X69537779Y-59003590D01*
X69539877Y-59004317D01*
X69541955Y-59005110D01*
X69544011Y-59005967D01*
X69536048Y-58956684D01*
X69526208Y-58907797D01*
X69514507Y-58859360D01*
X69500962Y-58811425D01*
X69485588Y-58764045D01*
X69468401Y-58717272D01*
X69449417Y-58671160D01*
X69428652Y-58625761D01*
X69426067Y-58621974D01*
X69423718Y-58618154D01*
X69421603Y-58614301D01*
X69419723Y-58610418D01*
X69418075Y-58606505D01*
X69416659Y-58602564D01*
X69415474Y-58598594D01*
X69414518Y-58594598D01*
X69413790Y-58590576D01*
X69413289Y-58586530D01*
X69413014Y-58582461D01*
X69412965Y-58578369D01*
X69413139Y-58574255D01*
X69413536Y-58570122D01*
X69414154Y-58565969D01*
X69414993Y-58561798D01*
X69416051Y-58557610D01*
X69417328Y-58553406D01*
X69418821Y-58549187D01*
X69420531Y-58544955D01*
X69422456Y-58540709D01*
X69424594Y-58536452D01*
X69429508Y-58527907D01*
X69435263Y-58519327D01*
X69441852Y-58510722D01*
X69449264Y-58502100D01*
X69457491Y-58493469D01*
X69473443Y-58480631D01*
X69489650Y-58468144D01*
X69506107Y-58456011D01*
X69522808Y-58444236D01*
X69539746Y-58432822D01*
X69556917Y-58421772D01*
X69574314Y-58411090D01*
X69591930Y-58400780D01*
X69609761Y-58390845D01*
X69627799Y-58381287D01*
X69646040Y-58372111D01*
X69664477Y-58363320D01*
X69683104Y-58354917D01*
X69701915Y-58346906D01*
X69720905Y-58339291D01*
X69740067Y-58332074D01*
X69745896Y-58328420D01*
X69751847Y-58325003D01*
X69757912Y-58321826D01*
X69764083Y-58318891D01*
X69770353Y-58316199D01*
X69776715Y-58313752D01*
X69783162Y-58311553D01*
X69789686Y-58309603D01*
X69796281Y-58307905D01*
X69802937Y-58306461D01*
X69809650Y-58305272D01*
X69816410Y-58304341D01*
X69823210Y-58303669D01*
X69830045Y-58303260D01*
X69836905Y-58303114D01*
X69843783Y-58303234D01*
X69847921Y-58303007D01*
X69852057Y-58302910D01*
X69856187Y-58302943D01*
G37*
X69856187Y-58302943D02*
X69860310Y-58303103D01*
X69864421Y-58303392D01*
X69868519Y-58303809D01*
X69872599Y-58304353D01*
X69876660Y-58305023D01*
X69880698Y-58305819D01*
X69884711Y-58306741D01*
X69888694Y-58307788D01*
X69892646Y-58308959D01*
X69896563Y-58310253D01*
X69900443Y-58311672D01*
X69904282Y-58313212D01*
X69908077Y-58314876D01*
X69916373Y-58318241D01*
X69923989Y-58321904D01*
X69930918Y-58325891D01*
X69934121Y-58328013D01*
X69937148Y-58330226D01*
X69939999Y-58332532D01*
X69942672Y-58334934D01*
X69945166Y-58337436D01*
X69947479Y-58340042D01*
X69949612Y-58342753D01*
X69951561Y-58345573D01*
X69953327Y-58348505D01*
X69954908Y-58351553D01*
X69956304Y-58354720D01*
X69957511Y-58358008D01*
X69958531Y-58361422D01*
X69959361Y-58364963D01*
X69960000Y-58368635D01*
X69960448Y-58372442D01*
X69960702Y-58376387D01*
X69960762Y-58380472D01*
X69960627Y-58384700D01*
X69960296Y-58389076D01*
X69959767Y-58393602D01*
X69959038Y-58398281D01*
X69956981Y-58408111D01*
X69954115Y-58418592D01*
X69937219Y-58456295D01*
X69921573Y-58494452D01*
X69907182Y-58533032D01*
X69894052Y-58572004D01*
X69882189Y-58611336D01*
X69871597Y-58650998D01*
X69862283Y-58690958D01*
X69854253Y-58731186D01*
X69847512Y-58771649D01*
X69842066Y-58812317D01*
X69837921Y-58853159D01*
X69835082Y-58894143D01*
X69833555Y-58935239D01*
X69833346Y-58976415D01*
X69834461Y-59017641D01*
X69836905Y-59058884D01*
X69882942Y-59064705D01*
X69935859Y-59070526D01*
X70037194Y-59075553D01*
X70146731Y-59086930D01*
X70256269Y-59098571D01*
X70359986Y-59104392D01*
X70463702Y-59109948D01*
X70569536Y-59121590D01*
X70615573Y-59121590D01*
X70668490Y-59127411D01*
X70714263Y-59133232D01*
X70754744Y-59133232D01*
X70800781Y-59138788D01*
X70840733Y-59144080D01*
X70875129Y-59149901D01*
X70915611Y-59149901D01*
X70944450Y-59156251D01*
X70978846Y-59162071D01*
X71001865Y-59167628D01*
X71030704Y-59173448D01*
X71048167Y-59179269D01*
X71065365Y-59185090D01*
X71082563Y-59191440D01*
X71088383Y-59196996D01*
X71094204Y-59202817D01*
X71100025Y-59202817D01*
X71100025Y-59213930D01*
X71099761Y-59213665D01*
X71083733Y-59236635D01*
X71066354Y-59258314D01*
X71047702Y-59278664D01*
X71027855Y-59297644D01*
X71006894Y-59315213D01*
X70984898Y-59331332D01*
X70961945Y-59345961D01*
X70938114Y-59359058D01*
X70913485Y-59370584D01*
X70888137Y-59380499D01*
X70862148Y-59388763D01*
X70835599Y-59395334D01*
X70808568Y-59400174D01*
X70781134Y-59403242D01*
X70753377Y-59404498D01*
X70725375Y-59403901D01*
X70710885Y-59403290D01*
X70696409Y-59402447D01*
X70681951Y-59401372D01*
X70667513Y-59400066D01*
X70653098Y-59398527D01*
X70638708Y-59396757D01*
X70624347Y-59394756D01*
X70610017Y-59392524D01*
X70544735Y-59380288D01*
X70478188Y-59369348D01*
X70410252Y-59359363D01*
X70340803Y-59349992D01*
X70045397Y-59311826D01*
X70128157Y-59423949D01*
X70214024Y-59533446D01*
X70302931Y-59640260D01*
X70394811Y-59744332D01*
X70489599Y-59845605D01*
X70587227Y-59944021D01*
X70687629Y-60039521D01*
X70790738Y-60132049D01*
X70896490Y-60221546D01*
X71004816Y-60307955D01*
X71115650Y-60391217D01*
X71228927Y-60471274D01*
X71344580Y-60548069D01*
X71462541Y-60621544D01*
X71582746Y-60691641D01*
X71705127Y-60758302D01*
X71708820Y-60761478D01*
X71712308Y-60764556D01*
X71715592Y-60767539D01*
X71718672Y-60770428D01*
X71721548Y-60773227D01*
X71724220Y-60775936D01*
X71726688Y-60778557D01*
X71728952Y-60781094D01*
X71731013Y-60783547D01*
X71732871Y-60785919D01*
X71734525Y-60788211D01*
X71735976Y-60790426D01*
X71737225Y-60792566D01*
X71738271Y-60794632D01*
X71739114Y-60796627D01*
X71739754Y-60798552D01*
X71740193Y-60800410D01*
X71740429Y-60802203D01*
X71740463Y-60803932D01*
X71740296Y-60805599D01*
X71739926Y-60807207D01*
X71739355Y-60808758D01*
X71738583Y-60810253D01*
X71737609Y-60811695D01*
X71736434Y-60813085D01*
X71735058Y-60814425D01*
X71733481Y-60815718D01*
X71731704Y-60816965D01*
X71729726Y-60818169D01*
X71727547Y-60819331D01*
X71725168Y-60820453D01*
X71722590Y-60821538D01*
X71711023Y-60827487D01*
X71695902Y-60831339D01*
X71655502Y-60832728D01*
X71602391Y-60825650D01*
X71537571Y-60810053D01*
X71462045Y-60785883D01*
X71376815Y-60753086D01*
X71282884Y-60711609D01*
X71181252Y-60661399D01*
X71072923Y-60602401D01*
X70958900Y-60534563D01*
X70840183Y-60457831D01*
X70717776Y-60372152D01*
X70592681Y-60277471D01*
X70465900Y-60173736D01*
X70338436Y-60060893D01*
X70211289Y-59938888D01*
X70177671Y-59904761D01*
X70161339Y-59888580D01*
X70145144Y-59872842D01*
X70128948Y-59857439D01*
X70112616Y-59842262D01*
X70096012Y-59827203D01*
X70078998Y-59812153D01*
X70029810Y-59758622D01*
X69986030Y-59710586D01*
X69947657Y-59668106D01*
X69914692Y-59631244D01*
X69887134Y-59600063D01*
X69864983Y-59574624D01*
X69848240Y-59554989D01*
X69836904Y-59541221D01*
X69837194Y-59609201D01*
X69838840Y-59677142D01*
X69841841Y-59745023D01*
X69846196Y-59812824D01*
X69851903Y-59880524D01*
X69858960Y-59948104D01*
X69867367Y-60015543D01*
X69877121Y-60082822D01*
X69872125Y-60119371D01*
X69865698Y-60155652D01*
X69857853Y-60191624D01*
X69848600Y-60227246D01*
X69837951Y-60262475D01*
X69825918Y-60297271D01*
X69812512Y-60331592D01*
X69797746Y-60365397D01*
X69790149Y-60375692D01*
X69782435Y-60385042D01*
X69774601Y-60393437D01*
X69770637Y-60397273D01*
X69766641Y-60400867D01*
X69762612Y-60404218D01*
X69758550Y-60407324D01*
X69754455Y-60410185D01*
X69750325Y-60412798D01*
X69746161Y-60415164D01*
X69741961Y-60417280D01*
X69737725Y-60419146D01*
X69733452Y-60420761D01*
X69729142Y-60422122D01*
X69724794Y-60423230D01*
X69720408Y-60424083D01*
X69715983Y-60424680D01*
X69711519Y-60425019D01*
X69707014Y-60425100D01*
X69702469Y-60424921D01*
X69697882Y-60424481D01*
X69693253Y-60423780D01*
X69688583Y-60422815D01*
X69683869Y-60421586D01*
X69679111Y-60420091D01*
X69674309Y-60418330D01*
X69669463Y-60416301D01*
X69664571Y-60414003D01*
X69659633Y-60411434D01*
X69648286Y-60379948D01*
X69637861Y-60348194D01*
X69628362Y-60316195D01*
X69619791Y-60283970D01*
X69612151Y-60251539D01*
X69605445Y-60218922D01*
X69599674Y-60186141D01*
X69594843Y-60153215D01*
X69590953Y-60120165D01*
X69588007Y-60087010D01*
X69586008Y-60053771D01*
X69584959Y-60020469D01*
X69584862Y-59987124D01*
X69585721Y-59953755D01*
X69587536Y-59920384D01*
X69590312Y-59887030D01*
X69590221Y-59746478D01*
X69589585Y-59627606D01*
X69587857Y-59530363D01*
X69586413Y-59489838D01*
X69584491Y-59454701D01*
X69312786Y-59725121D01*
X69186970Y-59847568D01*
X69067801Y-59961506D01*
X68955246Y-60066934D01*
X68849271Y-60163853D01*
X68749843Y-60252261D01*
X68656928Y-60332158D01*
X68570494Y-60403544D01*
X68490507Y-60466419D01*
X68416933Y-60520782D01*
X68349739Y-60566633D01*
X68288892Y-60603971D01*
X68234359Y-60632796D01*
X68186106Y-60653107D01*
X68164324Y-60660070D01*
X68144100Y-60664905D01*
X68082362Y-60666321D01*
X68020669Y-60666283D01*
X67959045Y-60664793D01*
X67897515Y-60661856D01*
X67836105Y-60657475D01*
X67774841Y-60651656D01*
X67713746Y-60644400D01*
X67652847Y-60635714D01*
X67592169Y-60625599D01*
X67531737Y-60614061D01*
X67471576Y-60601103D01*
X67411711Y-60586729D01*
X67352169Y-60570942D01*
X67292973Y-60553748D01*
X67234150Y-60535150D01*
X67175725Y-60515151D01*
X67175809Y-60513009D01*
X67176060Y-60510898D01*
X67176475Y-60508819D01*
X67177054Y-60506769D01*
X67177792Y-60504747D01*
X67178690Y-60502754D01*
X67180950Y-60498846D01*
X67183819Y-60495037D01*
X67187278Y-60491320D01*
X67191310Y-60487686D01*
X67195899Y-60484128D01*
X67201028Y-60480639D01*
X67206679Y-60477210D01*
X67212836Y-60473834D01*
X67219480Y-60470502D01*
X67226596Y-60467208D01*
X67234167Y-60463943D01*
X67242174Y-60460700D01*
X67250602Y-60457472D01*
X68403127Y-60060596D01*
X68556677Y-59975038D01*
X68708059Y-59885851D01*
X68857210Y-59793077D01*
X69004067Y-59696760D01*
X69148567Y-59596941D01*
X69290647Y-59493663D01*
X69430244Y-59386969D01*
X69567294Y-59276901D01*
X69567358Y-59274655D01*
X69567533Y-59272296D01*
X69568113Y-59267301D01*
X69568829Y-59262046D01*
X69569477Y-59256660D01*
X69569711Y-59253959D01*
X69569852Y-59251274D01*
X69569873Y-59248622D01*
X69569750Y-59246019D01*
X69569455Y-59243481D01*
X69568965Y-59241024D01*
X69568638Y-59239831D01*
X69568253Y-59238665D01*
X69567806Y-59237527D01*
X69567294Y-59236419D01*
X69471183Y-59221577D01*
X69360229Y-59207125D01*
X69094847Y-59178872D01*
X68773259Y-59150620D01*
X68397571Y-59121326D01*
X68393288Y-59122295D01*
X68389070Y-59123069D01*
X68384914Y-59123648D01*
X68380818Y-59124034D01*
X68376781Y-59124226D01*
X68372800Y-59124225D01*
X68368873Y-59124031D01*
X68364998Y-59123645D01*
X68361174Y-59123067D01*
X68357397Y-59122297D01*
X68353666Y-59121337D01*
X68349979Y-59120186D01*
X68346333Y-59118845D01*
X68342727Y-59117314D01*
X68339159Y-59115595D01*
X68335626Y-59113686D01*
X68332126Y-59111589D01*
X68328657Y-59109304D01*
X68325218Y-59106831D01*
X68321806Y-59104172D01*
X68318418Y-59101325D01*
X68315054Y-59098293D01*
X68308386Y-59091672D01*
X68301784Y-59084311D01*
X68295233Y-59076214D01*
X68288714Y-59067384D01*
X68282213Y-59057826D01*
X68281570Y-59049642D01*
X68281961Y-59041282D01*
X68283366Y-59032774D01*
X68285766Y-59024148D01*
X68289142Y-59015432D01*
X68293475Y-59006653D01*
X68304934Y-58989026D01*
X68319990Y-58971494D01*
X68338488Y-58954288D01*
X68360277Y-58937635D01*
X68385202Y-58921764D01*
X68413109Y-58906903D01*
X68443846Y-58893283D01*
X68477259Y-58881130D01*
X68513194Y-58870674D01*
X68551498Y-58862144D01*
X68592017Y-58855768D01*
X68634598Y-58851774D01*
X68679088Y-58850392D01*
X68719282Y-58852007D01*
X68759383Y-58854812D01*
X68799367Y-58858804D01*
X68839205Y-58863979D01*
X68878873Y-58870333D01*
X68918344Y-58877862D01*
X68957591Y-58886562D01*
X68996588Y-58896430D01*
X69509350Y-59000146D01*
X69511574Y-59000008D01*
X69513796Y-58999938D01*
X69516017Y-58999935D01*
X69518234Y-59000000D01*
X69520446Y-59000133D01*
X69522652Y-59000333D01*
X69524849Y-59000599D01*
X69527037Y-59000933D01*
X69529214Y-59001332D01*
X69531378Y-59001798D01*
X69533528Y-59002330D01*
X69535662Y-59002927D01*
X69537779Y-59003590D01*
X69539877Y-59004317D01*
X69541955Y-59005110D01*
X69544011Y-59005967D01*
X69536048Y-58956684D01*
X69526208Y-58907797D01*
X69514507Y-58859360D01*
X69500962Y-58811425D01*
X69485588Y-58764045D01*
X69468401Y-58717272D01*
X69449417Y-58671160D01*
X69428652Y-58625761D01*
X69426067Y-58621974D01*
X69423718Y-58618154D01*
X69421603Y-58614301D01*
X69419723Y-58610418D01*
X69418075Y-58606505D01*
X69416659Y-58602564D01*
X69415474Y-58598594D01*
X69414518Y-58594598D01*
X69413790Y-58590576D01*
X69413289Y-58586530D01*
X69413014Y-58582461D01*
X69412965Y-58578369D01*
X69413139Y-58574255D01*
X69413536Y-58570122D01*
X69414154Y-58565969D01*
X69414993Y-58561798D01*
X69416051Y-58557610D01*
X69417328Y-58553406D01*
X69418821Y-58549187D01*
X69420531Y-58544955D01*
X69422456Y-58540709D01*
X69424594Y-58536452D01*
X69429508Y-58527907D01*
X69435263Y-58519327D01*
X69441852Y-58510722D01*
X69449264Y-58502100D01*
X69457491Y-58493469D01*
X69473443Y-58480631D01*
X69489650Y-58468144D01*
X69506107Y-58456011D01*
X69522808Y-58444236D01*
X69539746Y-58432822D01*
X69556917Y-58421772D01*
X69574314Y-58411090D01*
X69591930Y-58400780D01*
X69609761Y-58390845D01*
X69627799Y-58381287D01*
X69646040Y-58372111D01*
X69664477Y-58363320D01*
X69683104Y-58354917D01*
X69701915Y-58346906D01*
X69720905Y-58339291D01*
X69740067Y-58332074D01*
X69745896Y-58328420D01*
X69751847Y-58325003D01*
X69757912Y-58321826D01*
X69764083Y-58318891D01*
X69770353Y-58316199D01*
X69776715Y-58313752D01*
X69783162Y-58311553D01*
X69789686Y-58309603D01*
X69796281Y-58307905D01*
X69802937Y-58306461D01*
X69809650Y-58305272D01*
X69816410Y-58304341D01*
X69823210Y-58303669D01*
X69830045Y-58303260D01*
X69836905Y-58303114D01*
X69843783Y-58303234D01*
X69847921Y-58303007D01*
X69852057Y-58302910D01*
X69856187Y-58302943D01*
X69423096Y-62521750D02*
X69423096Y-62648486D01*
X69423096Y-62648486D02*
X69428917Y-62688702D01*
X69428917Y-62688702D02*
X69428917Y-62763580D01*
X69428917Y-62763580D02*
X69434473Y-62798241D01*
X69434473Y-62798241D02*
X69434473Y-62832901D01*
X69434473Y-62832901D02*
X69440294Y-62867562D01*
X69440294Y-62867562D02*
X69446115Y-62896137D01*
X69446115Y-62896137D02*
X69446115Y-62930797D01*
X69446115Y-62930797D02*
X69451406Y-62959901D01*
X69451406Y-62959901D02*
X69456963Y-62988740D01*
X69456963Y-62988740D02*
X69462784Y-63017579D01*
X69462784Y-63017579D02*
X69468604Y-63046419D01*
X69468604Y-63046419D02*
X69474425Y-63069437D01*
X69474425Y-63069437D02*
X69480246Y-63098277D01*
X69480246Y-63098277D02*
X69486067Y-63121295D01*
X69486067Y-63121295D02*
X69491623Y-63144314D01*
X69491623Y-63144314D02*
X69497444Y-63167333D01*
X69497444Y-63167333D02*
X69503265Y-63190352D01*
X69503265Y-63190352D02*
X69509086Y-63213370D01*
X69509086Y-63213370D02*
X69520463Y-63230833D01*
X69520463Y-63230833D02*
X69526284Y-63253852D01*
X69526284Y-63253852D02*
X69537926Y-63288247D01*
X69537926Y-63288247D02*
X69555124Y-63322908D01*
X69555124Y-63322908D02*
X69572321Y-63351747D01*
X69572321Y-63351747D02*
X69583698Y-63380323D01*
X69583698Y-63380323D02*
X69600896Y-63409162D01*
X69600896Y-63409162D02*
X69618358Y-63432181D01*
X69618358Y-63432181D02*
X69636615Y-63449380D01*
X69636615Y-63449380D02*
X69647992Y-63466842D01*
X69647992Y-63466842D02*
X69665454Y-63484040D01*
X69665454Y-63484040D02*
X69676832Y-63501238D01*
X69676832Y-63501238D02*
X69694294Y-63512880D01*
X69694294Y-63512880D02*
X69705671Y-63518701D01*
X69705671Y-63518701D02*
X69717313Y-63530078D01*
X69717313Y-63530078D02*
X69728690Y-63535899D01*
X69728690Y-63535899D02*
X69740331Y-63541719D01*
X69740331Y-63541719D02*
X69751709Y-63547540D01*
X69751709Y-63547540D02*
X69757265Y-63547540D01*
X69757265Y-63547540D02*
X69763086Y-63553360D01*
X69763086Y-63553360D02*
X69774727Y-63553360D01*
X69774727Y-63553360D02*
X69779396Y-63552850D01*
X69779396Y-63552850D02*
X69784009Y-63552097D01*
X69784009Y-63552097D02*
X69788557Y-63551107D01*
X69788557Y-63551107D02*
X69793031Y-63549883D01*
X69793031Y-63549883D02*
X69797424Y-63548431D01*
X69797424Y-63548431D02*
X69801727Y-63546756D01*
X69801727Y-63546756D02*
X69805931Y-63544861D01*
X69805931Y-63544861D02*
X69810029Y-63542752D01*
X69810029Y-63542752D02*
X69814012Y-63540432D01*
X69814012Y-63540432D02*
X69817871Y-63537907D01*
X69817871Y-63537907D02*
X69821598Y-63535181D01*
X69821598Y-63535181D02*
X69825185Y-63532259D01*
X69825185Y-63532259D02*
X69828623Y-63529146D01*
X69828623Y-63529146D02*
X69831905Y-63525845D01*
X69831905Y-63525845D02*
X69835020Y-63522361D01*
X69835020Y-63522361D02*
X69837963Y-63518700D01*
X69837963Y-63518700D02*
X69853437Y-63494298D01*
X69853437Y-63494298D02*
X69870598Y-63469740D01*
X69870598Y-63469740D02*
X69909425Y-63420347D01*
X69909425Y-63420347D02*
X69953337Y-63370902D01*
X69953337Y-63370902D02*
X70001227Y-63321784D01*
X70001227Y-63321784D02*
X70051988Y-63273373D01*
X70051988Y-63273373D02*
X70104514Y-63226048D01*
X70104514Y-63226048D02*
X70210430Y-63136179D01*
X70210430Y-63136179D02*
X70394729Y-62986193D01*
X70394729Y-62986193D02*
X70428610Y-62957111D01*
X70428610Y-62957111D02*
X70455401Y-62932154D01*
X70455401Y-62932154D02*
X70473994Y-62911702D01*
X70473994Y-62911702D02*
X70479870Y-62903284D01*
X70479870Y-62903284D02*
X70483282Y-62896135D01*
X70483282Y-62896135D02*
X70483215Y-62895614D01*
X70483215Y-62895614D02*
X70483016Y-62895092D01*
X70483016Y-62895092D02*
X70482688Y-62894571D01*
X70482688Y-62894571D02*
X70482234Y-62894051D01*
X70482234Y-62894051D02*
X70481657Y-62893535D01*
X70481657Y-62893535D02*
X70480960Y-62893022D01*
X70480960Y-62893022D02*
X70480146Y-62892515D01*
X70480146Y-62892515D02*
X70479218Y-62892014D01*
X70479218Y-62892014D02*
X70478178Y-62891520D01*
X70478178Y-62891520D02*
X70477030Y-62891035D01*
X70477030Y-62891035D02*
X70474422Y-62890094D01*
X70474422Y-62890094D02*
X70471415Y-62889200D01*
X70471415Y-62889200D02*
X70468035Y-62888363D01*
X70468035Y-62888363D02*
X70464304Y-62887591D01*
X70464304Y-62887591D02*
X70460247Y-62886893D01*
X70460247Y-62886893D02*
X70455886Y-62886278D01*
X70455886Y-62886278D02*
X70451246Y-62885755D01*
X70451246Y-62885755D02*
X70446351Y-62885332D01*
X70446351Y-62885332D02*
X70441223Y-62885019D01*
X70441223Y-62885019D02*
X70435886Y-62884825D01*
X70435886Y-62884825D02*
X70430365Y-62884758D01*
X70430365Y-62884758D02*
X70401182Y-62885472D01*
X70401182Y-62885472D02*
X70371924Y-62887487D01*
X70371924Y-62887487D02*
X70342514Y-62890618D01*
X70342514Y-62890618D02*
X70312878Y-62894680D01*
X70312878Y-62894680D02*
X70252622Y-62904850D01*
X70252622Y-62904850D02*
X70190553Y-62916508D01*
X70190553Y-62916508D02*
X70126066Y-62928167D01*
X70126066Y-62928167D02*
X70092726Y-62933531D01*
X70092726Y-62933531D02*
X70058555Y-62938336D01*
X70058555Y-62938336D02*
X70023477Y-62942398D01*
X70023477Y-62942398D02*
X69987417Y-62945530D01*
X69987417Y-62945530D02*
X69950298Y-62947545D01*
X69950298Y-62947545D02*
X69912046Y-62948258D01*
X69912046Y-62948258D02*
X69893417Y-62947985D01*
X69893417Y-62947985D02*
X69884986Y-62947644D01*
X69884986Y-62947644D02*
X69877117Y-62947167D01*
X69877117Y-62947167D02*
X69869793Y-62946553D01*
X69869793Y-62946553D02*
X69862994Y-62945803D01*
X69862994Y-62945803D02*
X69856700Y-62944916D01*
X69856700Y-62944916D02*
X69850894Y-62943893D01*
X69850894Y-62943893D02*
X69845557Y-62942733D01*
X69845557Y-62942733D02*
X69840668Y-62941437D01*
X69840668Y-62941437D02*
X69836210Y-62940005D01*
X69836210Y-62940005D02*
X69832163Y-62938436D01*
X69832163Y-62938436D02*
X69828508Y-62936730D01*
X69828508Y-62936730D02*
X69825226Y-62934888D01*
X69825226Y-62934888D02*
X69822299Y-62932910D01*
X69822299Y-62932910D02*
X69819707Y-62930796D01*
X69819707Y-62930796D02*
X69818894Y-62927969D01*
X69818894Y-62927969D02*
X69817992Y-62925175D01*
X69817992Y-62925175D02*
X69817003Y-62922416D01*
X69817003Y-62922416D02*
X69815928Y-62919693D01*
X69815928Y-62919693D02*
X69814767Y-62917009D01*
X69814767Y-62917009D02*
X69813522Y-62914365D01*
X69813522Y-62914365D02*
X69812194Y-62911764D01*
X69812194Y-62911764D02*
X69810784Y-62909207D01*
X69810784Y-62909207D02*
X69809293Y-62906696D01*
X69809293Y-62906696D02*
X69807723Y-62904233D01*
X69807723Y-62904233D02*
X69806074Y-62901821D01*
X69806074Y-62901821D02*
X69804347Y-62899460D01*
X69804347Y-62899460D02*
X69802544Y-62897154D01*
X69802544Y-62897154D02*
X69800666Y-62894904D01*
X69800666Y-62894904D02*
X69798713Y-62892712D01*
X69798713Y-62892712D02*
X69796688Y-62890579D01*
X69796688Y-62890579D02*
X69778117Y-62823684D01*
X69778117Y-62823684D02*
X69762156Y-62756198D01*
X69762156Y-62756198D02*
X69748817Y-62688198D01*
X69748817Y-62688198D02*
X69738110Y-62619759D01*
X69738110Y-62619759D02*
X69730046Y-62550959D01*
X69730046Y-62550959D02*
X69724634Y-62481874D01*
X69724634Y-62481874D02*
X69721885Y-62412581D01*
X69721885Y-62412581D02*
X69721811Y-62343156D01*
X69721811Y-62343156D02*
X69723307Y-62275105D01*
X69723307Y-62275105D02*
X69726061Y-62207111D01*
X69726061Y-62207111D02*
X69730071Y-62139190D01*
X69730071Y-62139190D02*
X69735335Y-62071360D01*
X69735335Y-62071360D02*
X69741852Y-62003638D01*
X69741852Y-62003638D02*
X69749620Y-61936043D01*
X69749620Y-61936043D02*
X69758638Y-61868591D01*
X69758638Y-61868591D02*
X69768905Y-61801299D01*
X69768905Y-61801299D02*
X69809388Y-61801290D01*
X69809388Y-61801290D02*
X70042406Y-61823771D01*
X70042406Y-61823771D02*
X70274995Y-61849934D01*
X70274995Y-61849934D02*
X70507112Y-61879772D01*
X70507112Y-61879772D02*
X70738713Y-61913279D01*
X70738713Y-61913279D02*
X70969754Y-61950448D01*
X70969754Y-61950448D02*
X71200192Y-61991273D01*
X71200192Y-61991273D02*
X71429984Y-62035747D01*
X71429984Y-62035747D02*
X71659086Y-62083862D01*
X71659086Y-62083862D02*
X71677898Y-62083430D01*
X71677898Y-62083430D02*
X71696516Y-62082160D01*
X71696516Y-62082160D02*
X71714911Y-62080093D01*
X71714911Y-62080093D02*
X71733059Y-62077271D01*
X71733059Y-62077271D02*
X71768504Y-62069525D01*
X71768504Y-62069525D02*
X71802641Y-62059253D01*
X71802641Y-62059253D02*
X71835258Y-62046785D01*
X71835258Y-62046785D02*
X71866146Y-62032449D01*
X71866146Y-62032449D02*
X71895092Y-62016576D01*
X71895092Y-62016576D02*
X71921886Y-61999496D01*
X71921886Y-61999496D02*
X71946318Y-61981538D01*
X71946318Y-61981538D02*
X71968176Y-61963032D01*
X71968176Y-61963032D02*
X71987250Y-61944309D01*
X71987250Y-61944309D02*
X72003329Y-61925698D01*
X72003329Y-61925698D02*
X72016202Y-61907528D01*
X72016202Y-61907528D02*
X72025657Y-61890130D01*
X72025657Y-61890130D02*
X72029038Y-61881824D01*
X72029038Y-61881824D02*
X72031485Y-61873834D01*
X72031485Y-61873834D02*
X72032973Y-61866202D01*
X72032973Y-61866202D02*
X72033475Y-61858969D01*
X72033475Y-61858969D02*
X72033407Y-61856316D01*
X72033407Y-61856316D02*
X72033204Y-61853763D01*
X72033204Y-61853763D02*
X72032863Y-61851309D01*
X72032863Y-61851309D02*
X72032385Y-61848949D01*
X72032385Y-61848949D02*
X72031767Y-61846684D01*
X72031767Y-61846684D02*
X72031009Y-61844510D01*
X72031009Y-61844510D02*
X72030110Y-61842425D01*
X72030110Y-61842425D02*
X72029068Y-61840427D01*
X72029068Y-61840427D02*
X72027883Y-61838515D01*
X72027883Y-61838515D02*
X72026554Y-61836684D01*
X72026554Y-61836684D02*
X72025079Y-61834935D01*
X72025079Y-61834935D02*
X72023457Y-61833264D01*
X72023457Y-61833264D02*
X72021688Y-61831668D01*
X72021688Y-61831668D02*
X72019770Y-61830147D01*
X72019770Y-61830147D02*
X72017702Y-61828698D01*
X72017702Y-61828698D02*
X72015483Y-61827318D01*
X72015483Y-61827318D02*
X72013113Y-61826006D01*
X72013113Y-61826006D02*
X72010589Y-61824759D01*
X72010589Y-61824759D02*
X72007912Y-61823575D01*
X72007912Y-61823575D02*
X72005079Y-61822452D01*
X72005079Y-61822452D02*
X72002090Y-61821387D01*
X72002090Y-61821387D02*
X71998944Y-61820380D01*
X71998944Y-61820380D02*
X71995639Y-61819426D01*
X71995639Y-61819426D02*
X71992175Y-61818525D01*
X71992175Y-61818525D02*
X71988551Y-61817674D01*
X71988551Y-61817674D02*
X71984765Y-61816870D01*
X71984765Y-61816870D02*
X71976704Y-61815398D01*
X71976704Y-61815398D02*
X71967985Y-61814091D01*
X71967985Y-61814091D02*
X71958598Y-61812932D01*
X71958598Y-61812932D02*
X70844669Y-61701079D01*
X70844669Y-61701079D02*
X69809123Y-61605498D01*
X69809123Y-61605498D02*
X69816801Y-61587682D01*
X69816801Y-61587682D02*
X69824924Y-61570951D01*
X69824924Y-61570951D02*
X69833450Y-61555242D01*
X69833450Y-61555242D02*
X69842338Y-61540492D01*
X69842338Y-61540492D02*
X69851545Y-61526637D01*
X69851545Y-61526637D02*
X69861030Y-61513615D01*
X69861030Y-61513615D02*
X69870752Y-61501361D01*
X69870752Y-61501361D02*
X69880668Y-61489813D01*
X69880668Y-61489813D02*
X69900917Y-61468580D01*
X69900917Y-61468580D02*
X69921442Y-61449410D01*
X69921442Y-61449410D02*
X69941910Y-61431795D01*
X69941910Y-61431795D02*
X69961986Y-61415230D01*
X69961986Y-61415230D02*
X69981337Y-61399207D01*
X69981337Y-61399207D02*
X69999628Y-61383220D01*
X69999628Y-61383220D02*
X70016526Y-61366762D01*
X70016526Y-61366762D02*
X70024348Y-61358199D01*
X70024348Y-61358199D02*
X70031696Y-61349328D01*
X70031696Y-61349328D02*
X70038528Y-61340086D01*
X70038528Y-61340086D02*
X70044803Y-61330410D01*
X70044803Y-61330410D02*
X70050480Y-61320236D01*
X70050480Y-61320236D02*
X70055515Y-61309501D01*
X70055515Y-61309501D02*
X70059868Y-61298142D01*
X70059868Y-61298142D02*
X70063497Y-61286096D01*
X70063497Y-61286096D02*
X70066360Y-61273299D01*
X70066360Y-61273299D02*
X70068415Y-61259688D01*
X70068415Y-61259688D02*
X70068274Y-61246121D01*
X70068274Y-61246121D02*
X70067834Y-61233506D01*
X70067834Y-61233506D02*
X70067068Y-61221851D01*
X70067068Y-61221851D02*
X70065951Y-61211166D01*
X70065951Y-61211166D02*
X70064455Y-61201458D01*
X70064455Y-61201458D02*
X70062555Y-61192738D01*
X70062555Y-61192738D02*
X70060223Y-61185014D01*
X70060223Y-61185014D02*
X70057435Y-61178295D01*
X70057435Y-61178295D02*
X70055861Y-61175315D01*
X70055861Y-61175315D02*
X70054162Y-61172590D01*
X70054162Y-61172590D02*
X70052337Y-61170121D01*
X70052337Y-61170121D02*
X70050380Y-61167908D01*
X70050380Y-61167908D02*
X70048289Y-61165953D01*
X70048289Y-61165953D02*
X70046061Y-61164257D01*
X70046061Y-61164257D02*
X70043692Y-61162822D01*
X70043692Y-61162822D02*
X70041179Y-61161647D01*
X70041179Y-61161647D02*
X70038519Y-61160735D01*
X70038519Y-61160735D02*
X70035709Y-61160087D01*
X70035709Y-61160087D02*
X70032744Y-61159703D01*
X70032744Y-61159703D02*
X70029622Y-61159585D01*
X70029622Y-61159585D02*
X70026340Y-61159734D01*
X70026340Y-61159734D02*
X70022894Y-61160150D01*
X70022894Y-61160150D02*
X70019282Y-61160836D01*
X70019282Y-61160836D02*
X70015498Y-61161792D01*
X70015498Y-61161792D02*
X69994072Y-61168917D01*
X69994072Y-61168917D02*
X69972825Y-61176501D01*
X69972825Y-61176501D02*
X69951762Y-61184540D01*
X69951762Y-61184540D02*
X69930891Y-61193030D01*
X69930891Y-61193030D02*
X69910219Y-61201967D01*
X69910219Y-61201967D02*
X69889754Y-61211348D01*
X69889754Y-61211348D02*
X69869502Y-61221169D01*
X69869502Y-61221169D02*
X69849470Y-61231427D01*
X69849470Y-61231427D02*
X69829666Y-61242116D01*
X69829666Y-61242116D02*
X69810096Y-61253235D01*
X69810096Y-61253235D02*
X69790768Y-61264779D01*
X69790768Y-61264779D02*
X69771688Y-61276744D01*
X69771688Y-61276744D02*
X69752865Y-61289127D01*
X69752865Y-61289127D02*
X69734304Y-61301924D01*
X69734304Y-61301924D02*
X69716012Y-61315131D01*
X69716012Y-61315131D02*
X69697998Y-61328744D01*
X69697998Y-61328744D02*
X69319115Y-60821803D01*
X69319115Y-60821803D02*
X69316163Y-60812231D01*
X69316163Y-60812231D02*
X69313767Y-60803325D01*
X69313767Y-60803325D02*
X69311944Y-60795028D01*
X69311944Y-60795028D02*
X69310710Y-60787287D01*
X69310710Y-60787287D02*
X69310083Y-60780046D01*
X69310083Y-60780046D02*
X69310002Y-60776597D01*
X69310002Y-60776597D02*
X69310078Y-60773252D01*
X69310078Y-60773252D02*
X69310315Y-60770005D01*
X69310315Y-60770005D02*
X69310713Y-60766849D01*
X69310713Y-60766849D02*
X69311276Y-60763777D01*
X69311276Y-60763777D02*
X69312004Y-60760783D01*
X69312004Y-60760783D02*
X69312901Y-60757859D01*
X69312901Y-60757859D02*
X69313968Y-60754999D01*
X69313968Y-60754999D02*
X69315207Y-60752196D01*
X69315207Y-60752196D02*
X69316621Y-60749443D01*
X69316621Y-60749443D02*
X69318212Y-60746733D01*
X69318212Y-60746733D02*
X69319981Y-60744059D01*
X69319981Y-60744059D02*
X69321931Y-60741415D01*
X69321931Y-60741415D02*
X69324063Y-60738794D01*
X69324063Y-60738794D02*
X69328885Y-60733592D01*
X69328885Y-60733592D02*
X69334463Y-60728399D01*
X69334463Y-60728399D02*
X69340814Y-60723160D01*
X69340814Y-60723160D02*
X69347954Y-60717821D01*
X69347954Y-60717821D02*
X69350364Y-60716928D01*
X69350364Y-60716928D02*
X69352795Y-60716106D01*
X69352795Y-60716106D02*
X69355245Y-60715356D01*
X69355245Y-60715356D02*
X69357714Y-60714679D01*
X69357714Y-60714679D02*
X69360199Y-60714073D01*
X69360199Y-60714073D02*
X69362699Y-60713541D01*
X69362699Y-60713541D02*
X69365213Y-60713082D01*
X69365213Y-60713082D02*
X69367738Y-60712695D01*
X69367738Y-60712695D02*
X69370274Y-60712382D01*
X69370274Y-60712382D02*
X69372818Y-60712143D01*
X69372818Y-60712143D02*
X69375369Y-60711978D01*
X69375369Y-60711978D02*
X69377925Y-60711886D01*
X69377925Y-60711886D02*
X69380485Y-60711869D01*
X69380485Y-60711869D02*
X69383047Y-60711926D01*
X69383047Y-60711926D02*
X69385610Y-60712058D01*
X69385610Y-60712058D02*
X69388171Y-60712265D01*
X69388171Y-60712265D02*
X69439475Y-60715563D01*
X69439475Y-60715563D02*
X69499445Y-60724885D01*
X69499445Y-60724885D02*
X69566621Y-60739368D01*
X69566621Y-60739368D02*
X69639542Y-60758154D01*
X69639542Y-60758154D02*
X69796779Y-60805190D01*
X69796779Y-60805190D02*
X69959473Y-60859109D01*
X69959473Y-60859109D02*
X70254500Y-60960064D01*
X70254500Y-60960064D02*
X70363467Y-60993333D01*
X70363467Y-60993333D02*
X70403202Y-61002654D01*
X70403202Y-61002654D02*
X70431159Y-61005953D01*
X70431159Y-61005953D02*
X70440770Y-61006464D01*
X70440770Y-61006464D02*
X70450362Y-61006554D01*
X70450362Y-61006554D02*
X70459921Y-61006229D01*
X70459921Y-61006229D02*
X70469436Y-61005490D01*
X70469436Y-61005490D02*
X70478892Y-61004342D01*
X70478892Y-61004342D02*
X70488277Y-61002788D01*
X70488277Y-61002788D02*
X70497578Y-61000833D01*
X70497578Y-61000833D02*
X70506781Y-60998478D01*
X70506781Y-60998478D02*
X70515875Y-60995729D01*
X70515875Y-60995729D02*
X70524845Y-60992589D01*
X70524845Y-60992589D02*
X70533680Y-60989062D01*
X70533680Y-60989062D02*
X70542365Y-60985150D01*
X70542365Y-60985150D02*
X70550888Y-60980858D01*
X70550888Y-60980858D02*
X70559237Y-60976189D01*
X70559237Y-60976189D02*
X70567397Y-60971147D01*
X70567397Y-60971147D02*
X70575357Y-60965736D01*
X70575357Y-60965736D02*
X70585848Y-60959639D01*
X70585848Y-60959639D02*
X70596122Y-60953223D01*
X70596122Y-60953223D02*
X70606173Y-60946494D01*
X70606173Y-60946494D02*
X70615992Y-60939460D01*
X70615992Y-60939460D02*
X70625575Y-60932125D01*
X70625575Y-60932125D02*
X70634915Y-60924497D01*
X70634915Y-60924497D02*
X70644004Y-60916581D01*
X70644004Y-60916581D02*
X70652836Y-60908384D01*
X70652836Y-60908384D02*
X70661406Y-60899913D01*
X70661406Y-60899913D02*
X70669705Y-60891173D01*
X70669705Y-60891173D02*
X70677728Y-60882170D01*
X70677728Y-60882170D02*
X70685469Y-60872912D01*
X70685469Y-60872912D02*
X70692919Y-60863404D01*
X70692919Y-60863404D02*
X70700074Y-60853652D01*
X70700074Y-60853652D02*
X70706926Y-60843664D01*
X70706926Y-60843664D02*
X70713469Y-60833444D01*
X70713469Y-60833444D02*
X70717839Y-60822578D01*
X70717839Y-60822578D02*
X70721049Y-60812627D01*
X70721049Y-60812627D02*
X70723135Y-60803552D01*
X70723135Y-60803552D02*
X70724130Y-60795318D01*
X70724130Y-60795318D02*
X70724069Y-60787886D01*
X70724069Y-60787886D02*
X70722986Y-60781219D01*
X70722986Y-60781219D02*
X70720916Y-60775280D01*
X70720916Y-60775280D02*
X70717892Y-60770031D01*
X70717892Y-60770031D02*
X70713951Y-60765435D01*
X70713951Y-60765435D02*
X70709125Y-60761455D01*
X70709125Y-60761455D02*
X70703449Y-60758054D01*
X70703449Y-60758054D02*
X70696958Y-60755193D01*
X70696958Y-60755193D02*
X70689686Y-60752836D01*
X70689686Y-60752836D02*
X70681668Y-60750946D01*
X70681668Y-60750946D02*
X70672937Y-60749484D01*
X70672937Y-60749484D02*
X70663529Y-60748414D01*
X70663529Y-60748414D02*
X70653477Y-60747698D01*
X70653477Y-60747698D02*
X70642816Y-60747299D01*
X70642816Y-60747299D02*
X70619805Y-60747302D01*
X70619805Y-60747302D02*
X70594771Y-60748125D01*
X70594771Y-60748125D02*
X70567990Y-60749468D01*
X70567990Y-60749468D02*
X70510282Y-60752520D01*
X70510282Y-60752520D02*
X70479908Y-60753632D01*
X70479908Y-60753632D02*
X70448886Y-60754069D01*
X70448886Y-60754069D02*
X70375653Y-60750768D01*
X70375653Y-60750768D02*
X70295244Y-60741438D01*
X70295244Y-60741438D02*
X70209128Y-60726942D01*
X70209128Y-60726942D02*
X70118772Y-60708139D01*
X70118772Y-60708139D02*
X69931220Y-60661061D01*
X69931220Y-60661061D02*
X69744333Y-60607093D01*
X69744333Y-60607093D02*
X69419553Y-60506047D01*
X69419553Y-60506047D02*
X69305156Y-60472748D01*
X69305156Y-60472748D02*
X69265095Y-60463418D01*
X69265095Y-60463418D02*
X69238417Y-60460117D01*
X69238417Y-60460117D02*
X69226488Y-60460765D01*
X69226488Y-60460765D02*
X69213438Y-60462664D01*
X69213438Y-60462664D02*
X69184363Y-60469949D01*
X69184363Y-60469949D02*
X69151971Y-60481442D01*
X69151971Y-60481442D02*
X69117039Y-60496609D01*
X69117039Y-60496609D02*
X69080347Y-60514918D01*
X69080347Y-60514918D02*
X69042671Y-60535838D01*
X69042671Y-60535838D02*
X69004791Y-60558836D01*
X69004791Y-60558836D02*
X68967484Y-60583380D01*
X68967484Y-60583380D02*
X68931529Y-60608938D01*
X68931529Y-60608938D02*
X68897704Y-60634977D01*
X68897704Y-60634977D02*
X68866788Y-60660966D01*
X68866788Y-60660966D02*
X68839558Y-60686373D01*
X68839558Y-60686373D02*
X68816793Y-60710665D01*
X68816793Y-60710665D02*
X68799271Y-60733310D01*
X68799271Y-60733310D02*
X68792719Y-60743849D01*
X68792719Y-60743849D02*
X68787770Y-60753777D01*
X68787770Y-60753777D02*
X68784521Y-60763026D01*
X68784521Y-60763026D02*
X68783069Y-60771532D01*
X68783069Y-60771532D02*
X68781046Y-60776452D01*
X68781046Y-60776452D02*
X68779291Y-60781292D01*
X68779291Y-60781292D02*
X68777804Y-60786050D01*
X68777804Y-60786050D02*
X68776584Y-60790726D01*
X68776584Y-60790726D02*
X68775630Y-60795320D01*
X68775630Y-60795320D02*
X68774940Y-60799831D01*
X68774940Y-60799831D02*
X68774514Y-60804258D01*
X68774514Y-60804258D02*
X68774350Y-60808602D01*
X68774350Y-60808602D02*
X68774448Y-60812862D01*
X68774448Y-60812862D02*
X68774807Y-60817038D01*
X68774807Y-60817038D02*
X68775425Y-60821128D01*
X68775425Y-60821128D02*
X68776302Y-60825133D01*
X68776302Y-60825133D02*
X68777436Y-60829052D01*
X68777436Y-60829052D02*
X68778827Y-60832885D01*
X68778827Y-60832885D02*
X68780474Y-60836631D01*
X68780474Y-60836631D02*
X68782375Y-60840290D01*
X68782375Y-60840290D02*
X68784529Y-60843862D01*
X68784529Y-60843862D02*
X68786936Y-60847345D01*
X68786936Y-60847345D02*
X68789594Y-60850740D01*
X68789594Y-60850740D02*
X68792503Y-60854046D01*
X68792503Y-60854046D02*
X68795661Y-60857263D01*
X68795661Y-60857263D02*
X68799067Y-60860390D01*
X68799067Y-60860390D02*
X68802721Y-60863426D01*
X68802721Y-60863426D02*
X68806621Y-60866372D01*
X68806621Y-60866372D02*
X68810767Y-60869227D01*
X68810767Y-60869227D02*
X68815157Y-60871991D01*
X68815157Y-60871991D02*
X68819790Y-60874662D01*
X68819790Y-60874662D02*
X68824665Y-60877241D01*
X68824665Y-60877241D02*
X68829782Y-60879728D01*
X68829782Y-60879728D02*
X68835139Y-60882121D01*
X68835139Y-60882121D02*
X68846569Y-60886625D01*
X68846569Y-60886625D02*
X68899782Y-60909150D01*
X68899782Y-60909150D02*
X68952421Y-60932858D01*
X68952421Y-60932858D02*
X69004467Y-60957736D01*
X69004467Y-60957736D02*
X69055902Y-60983772D01*
X69055902Y-60983772D02*
X69106707Y-61010955D01*
X69106707Y-61010955D02*
X69156864Y-61039272D01*
X69156864Y-61039272D02*
X69206353Y-61068712D01*
X69206353Y-61068712D02*
X69255155Y-61099262D01*
X69255155Y-61099262D02*
X69303253Y-61130910D01*
X69303253Y-61130910D02*
X69350627Y-61163645D01*
X69350627Y-61163645D02*
X69397259Y-61197454D01*
X69397259Y-61197454D02*
X69443129Y-61232325D01*
X69443129Y-61232325D02*
X69488219Y-61268246D01*
X69488219Y-61268246D02*
X69532511Y-61305205D01*
X69532511Y-61305205D02*
X69575985Y-61343190D01*
X69575985Y-61343190D02*
X69618623Y-61382190D01*
X69618623Y-61382190D02*
X69612802Y-61382190D01*
X69612802Y-61382190D02*
X69601529Y-61391124D01*
X69601529Y-61391124D02*
X69590740Y-61400548D01*
X69590740Y-61400548D02*
X69580446Y-61410441D01*
X69580446Y-61410441D02*
X69570661Y-61420784D01*
X69570661Y-61420784D02*
X69561398Y-61431554D01*
X69561398Y-61431554D02*
X69552667Y-61442733D01*
X69552667Y-61442733D02*
X69544483Y-61454299D01*
X69544483Y-61454299D02*
X69536856Y-61466231D01*
X69536856Y-61466231D02*
X69529801Y-61478510D01*
X69529801Y-61478510D02*
X69523329Y-61491114D01*
X69523329Y-61491114D02*
X69517453Y-61504023D01*
X69517453Y-61504023D02*
X69512185Y-61517217D01*
X69512185Y-61517217D02*
X69507537Y-61530674D01*
X69507537Y-61530674D02*
X69503523Y-61544376D01*
X69503523Y-61544376D02*
X69500154Y-61558299D01*
X69500154Y-61558299D02*
X69497444Y-61572426D01*
X69497444Y-61572426D02*
X68543758Y-61436508D01*
X68543758Y-61436508D02*
X68060591Y-61362181D01*
X68060591Y-61362181D02*
X67837977Y-61324776D01*
X67837977Y-61324776D02*
X67814512Y-61325473D01*
X67814512Y-61325473D02*
X67790651Y-61327520D01*
X67790651Y-61327520D02*
X67766467Y-61330848D01*
X67766467Y-61330848D02*
X67742038Y-61335392D01*
X67742038Y-61335392D02*
X67692737Y-61347853D01*
X67692737Y-61347853D02*
X67643347Y-61364364D01*
X67643347Y-61364364D02*
X67594468Y-61384384D01*
X67594468Y-61384384D02*
X67546698Y-61407375D01*
X67546698Y-61407375D02*
X67500635Y-61432797D01*
X67500635Y-61432797D02*
X67456878Y-61460110D01*
X67456878Y-61460110D02*
X67416027Y-61488775D01*
X67416027Y-61488775D02*
X67378680Y-61518252D01*
X67378680Y-61518252D02*
X67345436Y-61548002D01*
X67345436Y-61548002D02*
X67316893Y-61577486D01*
X67316893Y-61577486D02*
X67293651Y-61606163D01*
X67293651Y-61606163D02*
X67276308Y-61633495D01*
X67276308Y-61633495D02*
X67270036Y-61646487D01*
X67270036Y-61646487D02*
X67265463Y-61658941D01*
X67265463Y-61658941D02*
X67262664Y-61670789D01*
X67262664Y-61670789D02*
X67261715Y-61681963D01*
X67261715Y-61681963D02*
X67261916Y-61688287D01*
X67261916Y-61688287D02*
X67262514Y-61694315D01*
X67262514Y-61694315D02*
X67263503Y-61700053D01*
X67263503Y-61700053D02*
X67264873Y-61705507D01*
X67264873Y-61705507D02*
X67266619Y-61710685D01*
X67266619Y-61710685D02*
X67268733Y-61715591D01*
X67268733Y-61715591D02*
X67271207Y-61720232D01*
X67271207Y-61720232D02*
X67274035Y-61724615D01*
X67274035Y-61724615D02*
X67277208Y-61728745D01*
X67277208Y-61728745D02*
X67280719Y-61732630D01*
X67280719Y-61732630D02*
X67284561Y-61736274D01*
X67284561Y-61736274D02*
X67288727Y-61739685D01*
X67288727Y-61739685D02*
X67293209Y-61742869D01*
X67293209Y-61742869D02*
X67298001Y-61745832D01*
X67298001Y-61745832D02*
X67303093Y-61748579D01*
X67303093Y-61748579D02*
X67308480Y-61751119D01*
X67308480Y-61751119D02*
X67314154Y-61753456D01*
X67314154Y-61753456D02*
X67320107Y-61755596D01*
X67320107Y-61755596D02*
X67326332Y-61757547D01*
X67326332Y-61757547D02*
X67332822Y-61759315D01*
X67332822Y-61759315D02*
X67339569Y-61760905D01*
X67339569Y-61760905D02*
X67346566Y-61762324D01*
X67346566Y-61762324D02*
X67353806Y-61763579D01*
X67353806Y-61763579D02*
X67361281Y-61764674D01*
X67361281Y-61764674D02*
X67376907Y-61766415D01*
X67376907Y-61766415D02*
X67393387Y-61767597D01*
X67393387Y-61767597D02*
X67410659Y-61768269D01*
X67410659Y-61768269D02*
X67428667Y-61768482D01*
X67428667Y-61768482D02*
X67622140Y-61763298D01*
X67622140Y-61763298D02*
X67951715Y-61757568D01*
X67951715Y-61757568D02*
X68552353Y-61751019D01*
X68552353Y-61751019D02*
X68797522Y-61752289D01*
X68797522Y-61752289D02*
X69031381Y-61756807D01*
X69031381Y-61756807D02*
X69143882Y-61760618D01*
X69143882Y-61760618D02*
X69253333Y-61765642D01*
X69253333Y-61765642D02*
X69359658Y-61772011D01*
X69359658Y-61772011D02*
X69462784Y-61779859D01*
X69462784Y-61779859D02*
X69461056Y-61818175D01*
X69461056Y-61818175D02*
X69456500Y-61875750D01*
X69456500Y-61875750D02*
X69442675Y-62041367D01*
X69442675Y-62041367D02*
X69435292Y-62145757D01*
X69435292Y-62145757D02*
X69428851Y-62262099D01*
X69428851Y-62262099D02*
X69424295Y-62388569D01*
X69424295Y-62388569D02*
X69423019Y-62455030D01*
X69423019Y-62455030D02*
X69422567Y-62523338D01*
X69422567Y-62523338D02*
X69423096Y-62521750D01*
X69423096Y-62521750D02*
X69423096Y-62521750D01*
G36*
X69265095Y-60463418D02*
G01*
X69305156Y-60472748D01*
X69419553Y-60506047D01*
X69744333Y-60607093D01*
X69931220Y-60661061D01*
X70118772Y-60708139D01*
X70209128Y-60726942D01*
X70295244Y-60741438D01*
X70375653Y-60750768D01*
X70448886Y-60754069D01*
X70479908Y-60753632D01*
X70510282Y-60752520D01*
X70567990Y-60749468D01*
X70594771Y-60748125D01*
X70619805Y-60747302D01*
X70642816Y-60747299D01*
X70653477Y-60747698D01*
X70663529Y-60748414D01*
X70672937Y-60749484D01*
X70681668Y-60750946D01*
X70689686Y-60752836D01*
X70696958Y-60755193D01*
X70703449Y-60758054D01*
X70709125Y-60761455D01*
X70713951Y-60765435D01*
X70717892Y-60770031D01*
X70720916Y-60775280D01*
X70722986Y-60781219D01*
X70724069Y-60787886D01*
X70724130Y-60795318D01*
X70723135Y-60803552D01*
X70721049Y-60812627D01*
X70717839Y-60822578D01*
X70713469Y-60833444D01*
X70706926Y-60843664D01*
X70700074Y-60853652D01*
X70692919Y-60863404D01*
X70685469Y-60872912D01*
X70677728Y-60882170D01*
X70669705Y-60891173D01*
X70661406Y-60899913D01*
X70652836Y-60908384D01*
X70644004Y-60916581D01*
X70634915Y-60924497D01*
X70625575Y-60932125D01*
X70615992Y-60939460D01*
X70606173Y-60946494D01*
X70596122Y-60953223D01*
X70585848Y-60959639D01*
X70575357Y-60965736D01*
X70567397Y-60971147D01*
X70559237Y-60976189D01*
X70550888Y-60980858D01*
X70542365Y-60985150D01*
X70533680Y-60989062D01*
X70524845Y-60992589D01*
X70515875Y-60995729D01*
X70506781Y-60998478D01*
X70497578Y-61000833D01*
X70488277Y-61002788D01*
X70478892Y-61004342D01*
X70469436Y-61005490D01*
X70459921Y-61006229D01*
X70450362Y-61006554D01*
X70440770Y-61006464D01*
X70431159Y-61005953D01*
X70403202Y-61002654D01*
X70363467Y-60993333D01*
X70254500Y-60960064D01*
X69959473Y-60859109D01*
X69796779Y-60805190D01*
X69639542Y-60758154D01*
X69566621Y-60739368D01*
X69499445Y-60724885D01*
X69439475Y-60715563D01*
X69388171Y-60712265D01*
X69385610Y-60712058D01*
X69383047Y-60711926D01*
X69380485Y-60711869D01*
X69377925Y-60711886D01*
X69375369Y-60711978D01*
X69372818Y-60712143D01*
X69370274Y-60712382D01*
X69367738Y-60712695D01*
X69365213Y-60713082D01*
X69362699Y-60713541D01*
X69360199Y-60714073D01*
X69357714Y-60714679D01*
X69355245Y-60715356D01*
X69352795Y-60716106D01*
X69350364Y-60716928D01*
X69347954Y-60717821D01*
X69340814Y-60723160D01*
X69334463Y-60728399D01*
X69328885Y-60733592D01*
X69324063Y-60738794D01*
X69321931Y-60741415D01*
X69319981Y-60744059D01*
X69318212Y-60746733D01*
X69316621Y-60749443D01*
X69315207Y-60752196D01*
X69313968Y-60754999D01*
X69312901Y-60757859D01*
X69312004Y-60760783D01*
X69311276Y-60763777D01*
X69310713Y-60766849D01*
X69310315Y-60770005D01*
X69310078Y-60773252D01*
X69310002Y-60776597D01*
X69310083Y-60780046D01*
X69310710Y-60787287D01*
X69311944Y-60795028D01*
X69313767Y-60803325D01*
X69316163Y-60812231D01*
X69319115Y-60821803D01*
X69697998Y-61328744D01*
X69716012Y-61315131D01*
X69734304Y-61301924D01*
X69752865Y-61289127D01*
X69771688Y-61276744D01*
X69790768Y-61264779D01*
X69810096Y-61253235D01*
X69829666Y-61242116D01*
X69849470Y-61231427D01*
X69869502Y-61221169D01*
X69889754Y-61211348D01*
X69910219Y-61201967D01*
X69930891Y-61193030D01*
X69951762Y-61184540D01*
X69972825Y-61176501D01*
X69994072Y-61168917D01*
X70015498Y-61161792D01*
X70019282Y-61160836D01*
X70022894Y-61160150D01*
X70026340Y-61159734D01*
X70029622Y-61159585D01*
X70032744Y-61159703D01*
X70035709Y-61160087D01*
X70038519Y-61160735D01*
X70041179Y-61161647D01*
X70043692Y-61162822D01*
X70046061Y-61164257D01*
X70048289Y-61165953D01*
X70050380Y-61167908D01*
X70052337Y-61170121D01*
X70054162Y-61172590D01*
X70055861Y-61175315D01*
X70057435Y-61178295D01*
X70060223Y-61185014D01*
X70062555Y-61192738D01*
X70064455Y-61201458D01*
X70065951Y-61211166D01*
X70067068Y-61221851D01*
X70067834Y-61233506D01*
X70068274Y-61246121D01*
X70068415Y-61259688D01*
X70066360Y-61273299D01*
X70063497Y-61286096D01*
X70059868Y-61298142D01*
X70055515Y-61309501D01*
X70050480Y-61320236D01*
X70044803Y-61330410D01*
X70038528Y-61340086D01*
X70031696Y-61349328D01*
X70024348Y-61358199D01*
X70016526Y-61366762D01*
X69999628Y-61383220D01*
X69981337Y-61399207D01*
X69961986Y-61415230D01*
X69941910Y-61431795D01*
X69921442Y-61449410D01*
X69900917Y-61468580D01*
X69880668Y-61489813D01*
X69870752Y-61501361D01*
X69861030Y-61513615D01*
X69851545Y-61526637D01*
X69842338Y-61540492D01*
X69833450Y-61555242D01*
X69824924Y-61570951D01*
X69816801Y-61587682D01*
X69809123Y-61605498D01*
X70844669Y-61701079D01*
X71958598Y-61812932D01*
X71967985Y-61814091D01*
X71976704Y-61815398D01*
X71984765Y-61816870D01*
X71988551Y-61817674D01*
X71992175Y-61818525D01*
X71995639Y-61819426D01*
X71998944Y-61820380D01*
X72002090Y-61821387D01*
X72005079Y-61822452D01*
X72007912Y-61823575D01*
X72010589Y-61824759D01*
X72013113Y-61826006D01*
X72015483Y-61827318D01*
X72017702Y-61828698D01*
X72019770Y-61830147D01*
X72021688Y-61831668D01*
X72023457Y-61833264D01*
X72025079Y-61834935D01*
X72026554Y-61836684D01*
X72027883Y-61838515D01*
X72029068Y-61840427D01*
X72030110Y-61842425D01*
X72031009Y-61844510D01*
X72031767Y-61846684D01*
X72032385Y-61848949D01*
X72032863Y-61851309D01*
X72033204Y-61853763D01*
X72033407Y-61856316D01*
X72033475Y-61858969D01*
X72032973Y-61866202D01*
X72031485Y-61873834D01*
X72029038Y-61881824D01*
X72025657Y-61890130D01*
X72016202Y-61907528D01*
X72003329Y-61925698D01*
X71987250Y-61944309D01*
X71968176Y-61963032D01*
X71946318Y-61981538D01*
X71921886Y-61999496D01*
X71895092Y-62016576D01*
X71866146Y-62032449D01*
X71835258Y-62046785D01*
X71802641Y-62059253D01*
X71768504Y-62069525D01*
X71733059Y-62077271D01*
X71714911Y-62080093D01*
X71696516Y-62082160D01*
X71677898Y-62083430D01*
X71659086Y-62083862D01*
X71429984Y-62035747D01*
X71200192Y-61991273D01*
X70969754Y-61950448D01*
X70738713Y-61913279D01*
X70507112Y-61879772D01*
X70274995Y-61849934D01*
X70042406Y-61823771D01*
X69809388Y-61801290D01*
X69768905Y-61801299D01*
X69758638Y-61868591D01*
X69749620Y-61936043D01*
X69741852Y-62003638D01*
X69735335Y-62071360D01*
X69730071Y-62139190D01*
X69726061Y-62207111D01*
X69723307Y-62275105D01*
X69721811Y-62343156D01*
X69721885Y-62412581D01*
X69724634Y-62481874D01*
X69730046Y-62550959D01*
X69738110Y-62619759D01*
X69748817Y-62688198D01*
X69762156Y-62756198D01*
X69778117Y-62823684D01*
X69796688Y-62890579D01*
X69798713Y-62892712D01*
X69800666Y-62894904D01*
X69802544Y-62897154D01*
X69804347Y-62899460D01*
X69806074Y-62901821D01*
X69807723Y-62904233D01*
X69809293Y-62906696D01*
X69810784Y-62909207D01*
X69812194Y-62911764D01*
X69813522Y-62914365D01*
X69814767Y-62917009D01*
X69815928Y-62919693D01*
X69817003Y-62922416D01*
X69817992Y-62925175D01*
X69818894Y-62927969D01*
X69819707Y-62930796D01*
X69822299Y-62932910D01*
X69825226Y-62934888D01*
X69828508Y-62936730D01*
X69832163Y-62938436D01*
X69836210Y-62940005D01*
X69840668Y-62941437D01*
X69845557Y-62942733D01*
X69850894Y-62943893D01*
X69856700Y-62944916D01*
X69862994Y-62945803D01*
X69869793Y-62946553D01*
X69877117Y-62947167D01*
X69884986Y-62947644D01*
X69893417Y-62947985D01*
X69912046Y-62948258D01*
X69950298Y-62947545D01*
X69987417Y-62945530D01*
X70023477Y-62942398D01*
X70058555Y-62938336D01*
X70092726Y-62933531D01*
X70126066Y-62928167D01*
X70190553Y-62916508D01*
X70252622Y-62904850D01*
X70312878Y-62894680D01*
X70342514Y-62890618D01*
X70371924Y-62887487D01*
X70401182Y-62885472D01*
X70430365Y-62884758D01*
X70435886Y-62884825D01*
X70441223Y-62885019D01*
X70446351Y-62885332D01*
X70451246Y-62885755D01*
X70455886Y-62886278D01*
X70460247Y-62886893D01*
X70464304Y-62887591D01*
X70468035Y-62888363D01*
X70471415Y-62889200D01*
X70474422Y-62890094D01*
X70477030Y-62891035D01*
X70478178Y-62891520D01*
X70479218Y-62892014D01*
X70480146Y-62892515D01*
X70480960Y-62893022D01*
X70481657Y-62893535D01*
X70482234Y-62894051D01*
X70482688Y-62894571D01*
X70483016Y-62895092D01*
X70483215Y-62895614D01*
X70483282Y-62896135D01*
X70479870Y-62903284D01*
X70473994Y-62911702D01*
X70455401Y-62932154D01*
X70428610Y-62957111D01*
X70394729Y-62986193D01*
X70210430Y-63136179D01*
X70104514Y-63226048D01*
X70051988Y-63273373D01*
X70001227Y-63321784D01*
X69953337Y-63370902D01*
X69909425Y-63420347D01*
X69870598Y-63469740D01*
X69853437Y-63494298D01*
X69837963Y-63518700D01*
X69835020Y-63522361D01*
X69831905Y-63525845D01*
X69828623Y-63529146D01*
X69825185Y-63532259D01*
X69821598Y-63535181D01*
X69817871Y-63537907D01*
X69814012Y-63540432D01*
X69810029Y-63542752D01*
X69805931Y-63544861D01*
X69801727Y-63546756D01*
X69797424Y-63548431D01*
X69793031Y-63549883D01*
X69788557Y-63551107D01*
X69784009Y-63552097D01*
X69779396Y-63552850D01*
X69774727Y-63553360D01*
X69763086Y-63553360D01*
X69757265Y-63547540D01*
X69751709Y-63547540D01*
X69740331Y-63541719D01*
X69728690Y-63535899D01*
X69717313Y-63530078D01*
X69705671Y-63518701D01*
X69694294Y-63512880D01*
X69676832Y-63501238D01*
X69665454Y-63484040D01*
X69647992Y-63466842D01*
X69636615Y-63449380D01*
X69618358Y-63432181D01*
X69600896Y-63409162D01*
X69583698Y-63380323D01*
X69572321Y-63351747D01*
X69555124Y-63322908D01*
X69537926Y-63288247D01*
X69526284Y-63253852D01*
X69520463Y-63230833D01*
X69509086Y-63213370D01*
X69503265Y-63190352D01*
X69491623Y-63144314D01*
X69486067Y-63121295D01*
X69480246Y-63098277D01*
X69474425Y-63069437D01*
X69468604Y-63046419D01*
X69462784Y-63017579D01*
X69456963Y-62988740D01*
X69451406Y-62959901D01*
X69446115Y-62930797D01*
X69446115Y-62896137D01*
X69440294Y-62867562D01*
X69434473Y-62832901D01*
X69434473Y-62798241D01*
X69428917Y-62763580D01*
X69428917Y-62688702D01*
X69423096Y-62648486D01*
X69423096Y-62521750D01*
X69422567Y-62523338D01*
X69423019Y-62455030D01*
X69424295Y-62388569D01*
X69428851Y-62262099D01*
X69435292Y-62145757D01*
X69442675Y-62041367D01*
X69456500Y-61875750D01*
X69461056Y-61818175D01*
X69462784Y-61779859D01*
X69359658Y-61772011D01*
X69253333Y-61765642D01*
X69143882Y-61760618D01*
X69031381Y-61756807D01*
X68797522Y-61752289D01*
X68552353Y-61751019D01*
X67951715Y-61757568D01*
X67622140Y-61763298D01*
X67428667Y-61768482D01*
X67410659Y-61768269D01*
X67393387Y-61767597D01*
X67376907Y-61766415D01*
X67361281Y-61764674D01*
X67353806Y-61763579D01*
X67346566Y-61762324D01*
X67339569Y-61760905D01*
X67332822Y-61759315D01*
X67326332Y-61757547D01*
X67320107Y-61755596D01*
X67314154Y-61753456D01*
X67308480Y-61751119D01*
X67303093Y-61748579D01*
X67298001Y-61745832D01*
X67293209Y-61742869D01*
X67288727Y-61739685D01*
X67284561Y-61736274D01*
X67280719Y-61732630D01*
X67277208Y-61728745D01*
X67274035Y-61724615D01*
X67271207Y-61720232D01*
X67268733Y-61715591D01*
X67266619Y-61710685D01*
X67264873Y-61705507D01*
X67263503Y-61700053D01*
X67262514Y-61694315D01*
X67261916Y-61688287D01*
X67261715Y-61681963D01*
X67262664Y-61670789D01*
X67265463Y-61658941D01*
X67270036Y-61646487D01*
X67276308Y-61633495D01*
X67293651Y-61606163D01*
X67316893Y-61577486D01*
X67345436Y-61548002D01*
X67378680Y-61518252D01*
X67416027Y-61488775D01*
X67456878Y-61460110D01*
X67500635Y-61432797D01*
X67546698Y-61407375D01*
X67594468Y-61384384D01*
X67643347Y-61364364D01*
X67692737Y-61347853D01*
X67742038Y-61335392D01*
X67766467Y-61330848D01*
X67790651Y-61327520D01*
X67814512Y-61325473D01*
X67837977Y-61324776D01*
X68060591Y-61362181D01*
X68543758Y-61436508D01*
X69497444Y-61572426D01*
X69500154Y-61558299D01*
X69503523Y-61544376D01*
X69507537Y-61530674D01*
X69512185Y-61517217D01*
X69517453Y-61504023D01*
X69523329Y-61491114D01*
X69529801Y-61478510D01*
X69536856Y-61466231D01*
X69544483Y-61454299D01*
X69552667Y-61442733D01*
X69561398Y-61431554D01*
X69570661Y-61420784D01*
X69580446Y-61410441D01*
X69590740Y-61400548D01*
X69601529Y-61391124D01*
X69612802Y-61382190D01*
X69618623Y-61382190D01*
X69575985Y-61343190D01*
X69532511Y-61305205D01*
X69488219Y-61268246D01*
X69443129Y-61232325D01*
X69397259Y-61197454D01*
X69350627Y-61163645D01*
X69303253Y-61130910D01*
X69255155Y-61099262D01*
X69206353Y-61068712D01*
X69156864Y-61039272D01*
X69106707Y-61010955D01*
X69055902Y-60983772D01*
X69004467Y-60957736D01*
X68952421Y-60932858D01*
X68899782Y-60909150D01*
X68846569Y-60886625D01*
X68835139Y-60882121D01*
X68829782Y-60879728D01*
X68824665Y-60877241D01*
X68819790Y-60874662D01*
X68815157Y-60871991D01*
X68810767Y-60869227D01*
X68806621Y-60866372D01*
X68802721Y-60863426D01*
X68799067Y-60860390D01*
X68795661Y-60857263D01*
X68792503Y-60854046D01*
X68789594Y-60850740D01*
X68786936Y-60847345D01*
X68784529Y-60843862D01*
X68782375Y-60840290D01*
X68780474Y-60836631D01*
X68778827Y-60832885D01*
X68777436Y-60829052D01*
X68776302Y-60825133D01*
X68775425Y-60821128D01*
X68774807Y-60817038D01*
X68774448Y-60812862D01*
X68774350Y-60808602D01*
X68774514Y-60804258D01*
X68774940Y-60799831D01*
X68775630Y-60795320D01*
X68776584Y-60790726D01*
X68777804Y-60786050D01*
X68779291Y-60781292D01*
X68781046Y-60776452D01*
X68783069Y-60771532D01*
X68784521Y-60763026D01*
X68787770Y-60753777D01*
X68792719Y-60743849D01*
X68799271Y-60733310D01*
X68816793Y-60710665D01*
X68839558Y-60686373D01*
X68866788Y-60660966D01*
X68897704Y-60634977D01*
X68931529Y-60608938D01*
X68967484Y-60583380D01*
X69004791Y-60558836D01*
X69042671Y-60535838D01*
X69080347Y-60514918D01*
X69117039Y-60496609D01*
X69151971Y-60481442D01*
X69184363Y-60469949D01*
X69213438Y-60462664D01*
X69226488Y-60460765D01*
X69238417Y-60460117D01*
X69265095Y-60463418D01*
G37*
X69265095Y-60463418D02*
X69305156Y-60472748D01*
X69419553Y-60506047D01*
X69744333Y-60607093D01*
X69931220Y-60661061D01*
X70118772Y-60708139D01*
X70209128Y-60726942D01*
X70295244Y-60741438D01*
X70375653Y-60750768D01*
X70448886Y-60754069D01*
X70479908Y-60753632D01*
X70510282Y-60752520D01*
X70567990Y-60749468D01*
X70594771Y-60748125D01*
X70619805Y-60747302D01*
X70642816Y-60747299D01*
X70653477Y-60747698D01*
X70663529Y-60748414D01*
X70672937Y-60749484D01*
X70681668Y-60750946D01*
X70689686Y-60752836D01*
X70696958Y-60755193D01*
X70703449Y-60758054D01*
X70709125Y-60761455D01*
X70713951Y-60765435D01*
X70717892Y-60770031D01*
X70720916Y-60775280D01*
X70722986Y-60781219D01*
X70724069Y-60787886D01*
X70724130Y-60795318D01*
X70723135Y-60803552D01*
X70721049Y-60812627D01*
X70717839Y-60822578D01*
X70713469Y-60833444D01*
X70706926Y-60843664D01*
X70700074Y-60853652D01*
X70692919Y-60863404D01*
X70685469Y-60872912D01*
X70677728Y-60882170D01*
X70669705Y-60891173D01*
X70661406Y-60899913D01*
X70652836Y-60908384D01*
X70644004Y-60916581D01*
X70634915Y-60924497D01*
X70625575Y-60932125D01*
X70615992Y-60939460D01*
X70606173Y-60946494D01*
X70596122Y-60953223D01*
X70585848Y-60959639D01*
X70575357Y-60965736D01*
X70567397Y-60971147D01*
X70559237Y-60976189D01*
X70550888Y-60980858D01*
X70542365Y-60985150D01*
X70533680Y-60989062D01*
X70524845Y-60992589D01*
X70515875Y-60995729D01*
X70506781Y-60998478D01*
X70497578Y-61000833D01*
X70488277Y-61002788D01*
X70478892Y-61004342D01*
X70469436Y-61005490D01*
X70459921Y-61006229D01*
X70450362Y-61006554D01*
X70440770Y-61006464D01*
X70431159Y-61005953D01*
X70403202Y-61002654D01*
X70363467Y-60993333D01*
X70254500Y-60960064D01*
X69959473Y-60859109D01*
X69796779Y-60805190D01*
X69639542Y-60758154D01*
X69566621Y-60739368D01*
X69499445Y-60724885D01*
X69439475Y-60715563D01*
X69388171Y-60712265D01*
X69385610Y-60712058D01*
X69383047Y-60711926D01*
X69380485Y-60711869D01*
X69377925Y-60711886D01*
X69375369Y-60711978D01*
X69372818Y-60712143D01*
X69370274Y-60712382D01*
X69367738Y-60712695D01*
X69365213Y-60713082D01*
X69362699Y-60713541D01*
X69360199Y-60714073D01*
X69357714Y-60714679D01*
X69355245Y-60715356D01*
X69352795Y-60716106D01*
X69350364Y-60716928D01*
X69347954Y-60717821D01*
X69340814Y-60723160D01*
X69334463Y-60728399D01*
X69328885Y-60733592D01*
X69324063Y-60738794D01*
X69321931Y-60741415D01*
X69319981Y-60744059D01*
X69318212Y-60746733D01*
X69316621Y-60749443D01*
X69315207Y-60752196D01*
X69313968Y-60754999D01*
X69312901Y-60757859D01*
X69312004Y-60760783D01*
X69311276Y-60763777D01*
X69310713Y-60766849D01*
X69310315Y-60770005D01*
X69310078Y-60773252D01*
X69310002Y-60776597D01*
X69310083Y-60780046D01*
X69310710Y-60787287D01*
X69311944Y-60795028D01*
X69313767Y-60803325D01*
X69316163Y-60812231D01*
X69319115Y-60821803D01*
X69697998Y-61328744D01*
X69716012Y-61315131D01*
X69734304Y-61301924D01*
X69752865Y-61289127D01*
X69771688Y-61276744D01*
X69790768Y-61264779D01*
X69810096Y-61253235D01*
X69829666Y-61242116D01*
X69849470Y-61231427D01*
X69869502Y-61221169D01*
X69889754Y-61211348D01*
X69910219Y-61201967D01*
X69930891Y-61193030D01*
X69951762Y-61184540D01*
X69972825Y-61176501D01*
X69994072Y-61168917D01*
X70015498Y-61161792D01*
X70019282Y-61160836D01*
X70022894Y-61160150D01*
X70026340Y-61159734D01*
X70029622Y-61159585D01*
X70032744Y-61159703D01*
X70035709Y-61160087D01*
X70038519Y-61160735D01*
X70041179Y-61161647D01*
X70043692Y-61162822D01*
X70046061Y-61164257D01*
X70048289Y-61165953D01*
X70050380Y-61167908D01*
X70052337Y-61170121D01*
X70054162Y-61172590D01*
X70055861Y-61175315D01*
X70057435Y-61178295D01*
X70060223Y-61185014D01*
X70062555Y-61192738D01*
X70064455Y-61201458D01*
X70065951Y-61211166D01*
X70067068Y-61221851D01*
X70067834Y-61233506D01*
X70068274Y-61246121D01*
X70068415Y-61259688D01*
X70066360Y-61273299D01*
X70063497Y-61286096D01*
X70059868Y-61298142D01*
X70055515Y-61309501D01*
X70050480Y-61320236D01*
X70044803Y-61330410D01*
X70038528Y-61340086D01*
X70031696Y-61349328D01*
X70024348Y-61358199D01*
X70016526Y-61366762D01*
X69999628Y-61383220D01*
X69981337Y-61399207D01*
X69961986Y-61415230D01*
X69941910Y-61431795D01*
X69921442Y-61449410D01*
X69900917Y-61468580D01*
X69880668Y-61489813D01*
X69870752Y-61501361D01*
X69861030Y-61513615D01*
X69851545Y-61526637D01*
X69842338Y-61540492D01*
X69833450Y-61555242D01*
X69824924Y-61570951D01*
X69816801Y-61587682D01*
X69809123Y-61605498D01*
X70844669Y-61701079D01*
X71958598Y-61812932D01*
X71967985Y-61814091D01*
X71976704Y-61815398D01*
X71984765Y-61816870D01*
X71988551Y-61817674D01*
X71992175Y-61818525D01*
X71995639Y-61819426D01*
X71998944Y-61820380D01*
X72002090Y-61821387D01*
X72005079Y-61822452D01*
X72007912Y-61823575D01*
X72010589Y-61824759D01*
X72013113Y-61826006D01*
X72015483Y-61827318D01*
X72017702Y-61828698D01*
X72019770Y-61830147D01*
X72021688Y-61831668D01*
X72023457Y-61833264D01*
X72025079Y-61834935D01*
X72026554Y-61836684D01*
X72027883Y-61838515D01*
X72029068Y-61840427D01*
X72030110Y-61842425D01*
X72031009Y-61844510D01*
X72031767Y-61846684D01*
X72032385Y-61848949D01*
X72032863Y-61851309D01*
X72033204Y-61853763D01*
X72033407Y-61856316D01*
X72033475Y-61858969D01*
X72032973Y-61866202D01*
X72031485Y-61873834D01*
X72029038Y-61881824D01*
X72025657Y-61890130D01*
X72016202Y-61907528D01*
X72003329Y-61925698D01*
X71987250Y-61944309D01*
X71968176Y-61963032D01*
X71946318Y-61981538D01*
X71921886Y-61999496D01*
X71895092Y-62016576D01*
X71866146Y-62032449D01*
X71835258Y-62046785D01*
X71802641Y-62059253D01*
X71768504Y-62069525D01*
X71733059Y-62077271D01*
X71714911Y-62080093D01*
X71696516Y-62082160D01*
X71677898Y-62083430D01*
X71659086Y-62083862D01*
X71429984Y-62035747D01*
X71200192Y-61991273D01*
X70969754Y-61950448D01*
X70738713Y-61913279D01*
X70507112Y-61879772D01*
X70274995Y-61849934D01*
X70042406Y-61823771D01*
X69809388Y-61801290D01*
X69768905Y-61801299D01*
X69758638Y-61868591D01*
X69749620Y-61936043D01*
X69741852Y-62003638D01*
X69735335Y-62071360D01*
X69730071Y-62139190D01*
X69726061Y-62207111D01*
X69723307Y-62275105D01*
X69721811Y-62343156D01*
X69721885Y-62412581D01*
X69724634Y-62481874D01*
X69730046Y-62550959D01*
X69738110Y-62619759D01*
X69748817Y-62688198D01*
X69762156Y-62756198D01*
X69778117Y-62823684D01*
X69796688Y-62890579D01*
X69798713Y-62892712D01*
X69800666Y-62894904D01*
X69802544Y-62897154D01*
X69804347Y-62899460D01*
X69806074Y-62901821D01*
X69807723Y-62904233D01*
X69809293Y-62906696D01*
X69810784Y-62909207D01*
X69812194Y-62911764D01*
X69813522Y-62914365D01*
X69814767Y-62917009D01*
X69815928Y-62919693D01*
X69817003Y-62922416D01*
X69817992Y-62925175D01*
X69818894Y-62927969D01*
X69819707Y-62930796D01*
X69822299Y-62932910D01*
X69825226Y-62934888D01*
X69828508Y-62936730D01*
X69832163Y-62938436D01*
X69836210Y-62940005D01*
X69840668Y-62941437D01*
X69845557Y-62942733D01*
X69850894Y-62943893D01*
X69856700Y-62944916D01*
X69862994Y-62945803D01*
X69869793Y-62946553D01*
X69877117Y-62947167D01*
X69884986Y-62947644D01*
X69893417Y-62947985D01*
X69912046Y-62948258D01*
X69950298Y-62947545D01*
X69987417Y-62945530D01*
X70023477Y-62942398D01*
X70058555Y-62938336D01*
X70092726Y-62933531D01*
X70126066Y-62928167D01*
X70190553Y-62916508D01*
X70252622Y-62904850D01*
X70312878Y-62894680D01*
X70342514Y-62890618D01*
X70371924Y-62887487D01*
X70401182Y-62885472D01*
X70430365Y-62884758D01*
X70435886Y-62884825D01*
X70441223Y-62885019D01*
X70446351Y-62885332D01*
X70451246Y-62885755D01*
X70455886Y-62886278D01*
X70460247Y-62886893D01*
X70464304Y-62887591D01*
X70468035Y-62888363D01*
X70471415Y-62889200D01*
X70474422Y-62890094D01*
X70477030Y-62891035D01*
X70478178Y-62891520D01*
X70479218Y-62892014D01*
X70480146Y-62892515D01*
X70480960Y-62893022D01*
X70481657Y-62893535D01*
X70482234Y-62894051D01*
X70482688Y-62894571D01*
X70483016Y-62895092D01*
X70483215Y-62895614D01*
X70483282Y-62896135D01*
X70479870Y-62903284D01*
X70473994Y-62911702D01*
X70455401Y-62932154D01*
X70428610Y-62957111D01*
X70394729Y-62986193D01*
X70210430Y-63136179D01*
X70104514Y-63226048D01*
X70051988Y-63273373D01*
X70001227Y-63321784D01*
X69953337Y-63370902D01*
X69909425Y-63420347D01*
X69870598Y-63469740D01*
X69853437Y-63494298D01*
X69837963Y-63518700D01*
X69835020Y-63522361D01*
X69831905Y-63525845D01*
X69828623Y-63529146D01*
X69825185Y-63532259D01*
X69821598Y-63535181D01*
X69817871Y-63537907D01*
X69814012Y-63540432D01*
X69810029Y-63542752D01*
X69805931Y-63544861D01*
X69801727Y-63546756D01*
X69797424Y-63548431D01*
X69793031Y-63549883D01*
X69788557Y-63551107D01*
X69784009Y-63552097D01*
X69779396Y-63552850D01*
X69774727Y-63553360D01*
X69763086Y-63553360D01*
X69757265Y-63547540D01*
X69751709Y-63547540D01*
X69740331Y-63541719D01*
X69728690Y-63535899D01*
X69717313Y-63530078D01*
X69705671Y-63518701D01*
X69694294Y-63512880D01*
X69676832Y-63501238D01*
X69665454Y-63484040D01*
X69647992Y-63466842D01*
X69636615Y-63449380D01*
X69618358Y-63432181D01*
X69600896Y-63409162D01*
X69583698Y-63380323D01*
X69572321Y-63351747D01*
X69555124Y-63322908D01*
X69537926Y-63288247D01*
X69526284Y-63253852D01*
X69520463Y-63230833D01*
X69509086Y-63213370D01*
X69503265Y-63190352D01*
X69491623Y-63144314D01*
X69486067Y-63121295D01*
X69480246Y-63098277D01*
X69474425Y-63069437D01*
X69468604Y-63046419D01*
X69462784Y-63017579D01*
X69456963Y-62988740D01*
X69451406Y-62959901D01*
X69446115Y-62930797D01*
X69446115Y-62896137D01*
X69440294Y-62867562D01*
X69434473Y-62832901D01*
X69434473Y-62798241D01*
X69428917Y-62763580D01*
X69428917Y-62688702D01*
X69423096Y-62648486D01*
X69423096Y-62521750D01*
X69422567Y-62523338D01*
X69423019Y-62455030D01*
X69424295Y-62388569D01*
X69428851Y-62262099D01*
X69435292Y-62145757D01*
X69442675Y-62041367D01*
X69456500Y-61875750D01*
X69461056Y-61818175D01*
X69462784Y-61779859D01*
X69359658Y-61772011D01*
X69253333Y-61765642D01*
X69143882Y-61760618D01*
X69031381Y-61756807D01*
X68797522Y-61752289D01*
X68552353Y-61751019D01*
X67951715Y-61757568D01*
X67622140Y-61763298D01*
X67428667Y-61768482D01*
X67410659Y-61768269D01*
X67393387Y-61767597D01*
X67376907Y-61766415D01*
X67361281Y-61764674D01*
X67353806Y-61763579D01*
X67346566Y-61762324D01*
X67339569Y-61760905D01*
X67332822Y-61759315D01*
X67326332Y-61757547D01*
X67320107Y-61755596D01*
X67314154Y-61753456D01*
X67308480Y-61751119D01*
X67303093Y-61748579D01*
X67298001Y-61745832D01*
X67293209Y-61742869D01*
X67288727Y-61739685D01*
X67284561Y-61736274D01*
X67280719Y-61732630D01*
X67277208Y-61728745D01*
X67274035Y-61724615D01*
X67271207Y-61720232D01*
X67268733Y-61715591D01*
X67266619Y-61710685D01*
X67264873Y-61705507D01*
X67263503Y-61700053D01*
X67262514Y-61694315D01*
X67261916Y-61688287D01*
X67261715Y-61681963D01*
X67262664Y-61670789D01*
X67265463Y-61658941D01*
X67270036Y-61646487D01*
X67276308Y-61633495D01*
X67293651Y-61606163D01*
X67316893Y-61577486D01*
X67345436Y-61548002D01*
X67378680Y-61518252D01*
X67416027Y-61488775D01*
X67456878Y-61460110D01*
X67500635Y-61432797D01*
X67546698Y-61407375D01*
X67594468Y-61384384D01*
X67643347Y-61364364D01*
X67692737Y-61347853D01*
X67742038Y-61335392D01*
X67766467Y-61330848D01*
X67790651Y-61327520D01*
X67814512Y-61325473D01*
X67837977Y-61324776D01*
X68060591Y-61362181D01*
X68543758Y-61436508D01*
X69497444Y-61572426D01*
X69500154Y-61558299D01*
X69503523Y-61544376D01*
X69507537Y-61530674D01*
X69512185Y-61517217D01*
X69517453Y-61504023D01*
X69523329Y-61491114D01*
X69529801Y-61478510D01*
X69536856Y-61466231D01*
X69544483Y-61454299D01*
X69552667Y-61442733D01*
X69561398Y-61431554D01*
X69570661Y-61420784D01*
X69580446Y-61410441D01*
X69590740Y-61400548D01*
X69601529Y-61391124D01*
X69612802Y-61382190D01*
X69618623Y-61382190D01*
X69575985Y-61343190D01*
X69532511Y-61305205D01*
X69488219Y-61268246D01*
X69443129Y-61232325D01*
X69397259Y-61197454D01*
X69350627Y-61163645D01*
X69303253Y-61130910D01*
X69255155Y-61099262D01*
X69206353Y-61068712D01*
X69156864Y-61039272D01*
X69106707Y-61010955D01*
X69055902Y-60983772D01*
X69004467Y-60957736D01*
X68952421Y-60932858D01*
X68899782Y-60909150D01*
X68846569Y-60886625D01*
X68835139Y-60882121D01*
X68829782Y-60879728D01*
X68824665Y-60877241D01*
X68819790Y-60874662D01*
X68815157Y-60871991D01*
X68810767Y-60869227D01*
X68806621Y-60866372D01*
X68802721Y-60863426D01*
X68799067Y-60860390D01*
X68795661Y-60857263D01*
X68792503Y-60854046D01*
X68789594Y-60850740D01*
X68786936Y-60847345D01*
X68784529Y-60843862D01*
X68782375Y-60840290D01*
X68780474Y-60836631D01*
X68778827Y-60832885D01*
X68777436Y-60829052D01*
X68776302Y-60825133D01*
X68775425Y-60821128D01*
X68774807Y-60817038D01*
X68774448Y-60812862D01*
X68774350Y-60808602D01*
X68774514Y-60804258D01*
X68774940Y-60799831D01*
X68775630Y-60795320D01*
X68776584Y-60790726D01*
X68777804Y-60786050D01*
X68779291Y-60781292D01*
X68781046Y-60776452D01*
X68783069Y-60771532D01*
X68784521Y-60763026D01*
X68787770Y-60753777D01*
X68792719Y-60743849D01*
X68799271Y-60733310D01*
X68816793Y-60710665D01*
X68839558Y-60686373D01*
X68866788Y-60660966D01*
X68897704Y-60634977D01*
X68931529Y-60608938D01*
X68967484Y-60583380D01*
X69004791Y-60558836D01*
X69042671Y-60535838D01*
X69080347Y-60514918D01*
X69117039Y-60496609D01*
X69151971Y-60481442D01*
X69184363Y-60469949D01*
X69213438Y-60462664D01*
X69226488Y-60460765D01*
X69238417Y-60460117D01*
X69265095Y-60463418D01*
M02*
