%TF.GenerationSoftware,KiCad,Pcbnew,(6.0.2)*%
%TF.CreationDate,2022-02-21T02:47:03-05:00*%
%TF.ProjectId,plate,706c6174-652e-46b6-9963-61645f706362,rev?*%
%TF.SameCoordinates,Original*%
%TF.FileFunction,Legend,Bot*%
%TF.FilePolarity,Positive*%
%FSLAX46Y46*%
G04 Gerber Fmt 4.6, Leading zero omitted, Abs format (unit mm)*
G04 Created by KiCad (PCBNEW (6.0.2)) date 2022-02-21 02:47:03*
%MOMM*%
%LPD*%
G01*
G04 APERTURE LIST*
%ADD10C,0.150000*%
G04 APERTURE END LIST*
D10*
X93073975Y-58870380D02*
X93073975Y-57870380D01*
X92835879Y-57870380D01*
X92693022Y-57918000D01*
X92597784Y-58013238D01*
X92550165Y-58108476D01*
X92502546Y-58298952D01*
X92502546Y-58441809D01*
X92550165Y-58632285D01*
X92597784Y-58727523D01*
X92693022Y-58822761D01*
X92835879Y-58870380D01*
X93073975Y-58870380D01*
X91693022Y-58822761D02*
X91788260Y-58870380D01*
X91978737Y-58870380D01*
X92073975Y-58822761D01*
X92121594Y-58727523D01*
X92121594Y-58346571D01*
X92073975Y-58251333D01*
X91978737Y-58203714D01*
X91788260Y-58203714D01*
X91693022Y-58251333D01*
X91645403Y-58346571D01*
X91645403Y-58441809D01*
X92121594Y-58537047D01*
X91264451Y-58822761D02*
X91169213Y-58870380D01*
X90978737Y-58870380D01*
X90883499Y-58822761D01*
X90835879Y-58727523D01*
X90835879Y-58679904D01*
X90883499Y-58584666D01*
X90978737Y-58537047D01*
X91121594Y-58537047D01*
X91216832Y-58489428D01*
X91264451Y-58394190D01*
X91264451Y-58346571D01*
X91216832Y-58251333D01*
X91121594Y-58203714D01*
X90978737Y-58203714D01*
X90883499Y-58251333D01*
X90407308Y-58870380D02*
X90407308Y-58203714D01*
X90407308Y-57870380D02*
X90454927Y-57918000D01*
X90407308Y-57965619D01*
X90359689Y-57918000D01*
X90407308Y-57870380D01*
X90407308Y-57965619D01*
X89502546Y-58203714D02*
X89502546Y-59013238D01*
X89550165Y-59108476D01*
X89597784Y-59156095D01*
X89693022Y-59203714D01*
X89835879Y-59203714D01*
X89931118Y-59156095D01*
X89502546Y-58822761D02*
X89597784Y-58870380D01*
X89788260Y-58870380D01*
X89883499Y-58822761D01*
X89931118Y-58775142D01*
X89978737Y-58679904D01*
X89978737Y-58394190D01*
X89931118Y-58298952D01*
X89883499Y-58251333D01*
X89788260Y-58203714D01*
X89597784Y-58203714D01*
X89502546Y-58251333D01*
X89026356Y-58203714D02*
X89026356Y-58870380D01*
X89026356Y-58298952D02*
X88978737Y-58251333D01*
X88883499Y-58203714D01*
X88740641Y-58203714D01*
X88645403Y-58251333D01*
X88597784Y-58346571D01*
X88597784Y-58870380D01*
X87740641Y-58822761D02*
X87835879Y-58870380D01*
X88026356Y-58870380D01*
X88121594Y-58822761D01*
X88169213Y-58727523D01*
X88169213Y-58346571D01*
X88121594Y-58251333D01*
X88026356Y-58203714D01*
X87835879Y-58203714D01*
X87740641Y-58251333D01*
X87693022Y-58346571D01*
X87693022Y-58441809D01*
X88169213Y-58537047D01*
X86835879Y-58870380D02*
X86835879Y-57870380D01*
X86835879Y-58822761D02*
X86931118Y-58870380D01*
X87121594Y-58870380D01*
X87216832Y-58822761D01*
X87264451Y-58775142D01*
X87312070Y-58679904D01*
X87312070Y-58394190D01*
X87264451Y-58298952D01*
X87216832Y-58251333D01*
X87121594Y-58203714D01*
X86931118Y-58203714D01*
X86835879Y-58251333D01*
X85597784Y-58870380D02*
X85597784Y-57870380D01*
X85597784Y-58251333D02*
X85502546Y-58203714D01*
X85312070Y-58203714D01*
X85216832Y-58251333D01*
X85169213Y-58298952D01*
X85121594Y-58394190D01*
X85121594Y-58679904D01*
X85169213Y-58775142D01*
X85216832Y-58822761D01*
X85312070Y-58870380D01*
X85502546Y-58870380D01*
X85597784Y-58822761D01*
X84788260Y-58203714D02*
X84550165Y-58870380D01*
X84312070Y-58203714D02*
X84550165Y-58870380D01*
X84645403Y-59108476D01*
X84693022Y-59156095D01*
X84788260Y-59203714D01*
X83169213Y-58870380D02*
X83169213Y-57870380D01*
X82835879Y-58584666D01*
X82502546Y-57870380D01*
X82502546Y-58870380D01*
X82026356Y-58870380D02*
X82026356Y-58203714D01*
X82026356Y-57870380D02*
X82073975Y-57918000D01*
X82026356Y-57965619D01*
X81978737Y-57918000D01*
X82026356Y-57870380D01*
X82026356Y-57965619D01*
X81121594Y-58822761D02*
X81216832Y-58870380D01*
X81407308Y-58870380D01*
X81502546Y-58822761D01*
X81550165Y-58775142D01*
X81597784Y-58679904D01*
X81597784Y-58394190D01*
X81550165Y-58298952D01*
X81502546Y-58251333D01*
X81407308Y-58203714D01*
X81216832Y-58203714D01*
X81121594Y-58251333D01*
X80693022Y-58870380D02*
X80693022Y-57870380D01*
X80264451Y-58870380D02*
X80264451Y-58346571D01*
X80312070Y-58251333D01*
X80407308Y-58203714D01*
X80550165Y-58203714D01*
X80645403Y-58251333D01*
X80693022Y-58298952D01*
X79359689Y-58870380D02*
X79359689Y-58346571D01*
X79407308Y-58251333D01*
X79502546Y-58203714D01*
X79693022Y-58203714D01*
X79788260Y-58251333D01*
X79359689Y-58822761D02*
X79454927Y-58870380D01*
X79693022Y-58870380D01*
X79788260Y-58822761D01*
X79835879Y-58727523D01*
X79835879Y-58632285D01*
X79788260Y-58537047D01*
X79693022Y-58489428D01*
X79454927Y-58489428D01*
X79359689Y-58441809D01*
X78502546Y-58822761D02*
X78597784Y-58870380D01*
X78788260Y-58870380D01*
X78883499Y-58822761D01*
X78931118Y-58727523D01*
X78931118Y-58346571D01*
X78883499Y-58251333D01*
X78788260Y-58203714D01*
X78597784Y-58203714D01*
X78502546Y-58251333D01*
X78454927Y-58346571D01*
X78454927Y-58441809D01*
X78931118Y-58537047D01*
X77883499Y-58870380D02*
X77978737Y-58822761D01*
X78026356Y-58727523D01*
X78026356Y-57870380D01*
X76264451Y-58870380D02*
X76740641Y-58870380D01*
X76740641Y-57870380D01*
X75550165Y-58822761D02*
X75645403Y-58870380D01*
X75835879Y-58870380D01*
X75931118Y-58822761D01*
X75978737Y-58727523D01*
X75978737Y-58346571D01*
X75931118Y-58251333D01*
X75835879Y-58203714D01*
X75645403Y-58203714D01*
X75550165Y-58251333D01*
X75502546Y-58346571D01*
X75502546Y-58441809D01*
X75978737Y-58537047D01*
X74693022Y-58822761D02*
X74788260Y-58870380D01*
X74978737Y-58870380D01*
X75073975Y-58822761D01*
X75121594Y-58727523D01*
X75121594Y-58346571D01*
X75073975Y-58251333D01*
X74978737Y-58203714D01*
X74788260Y-58203714D01*
X74693022Y-58251333D01*
X74645403Y-58346571D01*
X74645403Y-58441809D01*
X75121594Y-58537047D01*
X88812070Y-59956571D02*
X89145403Y-59956571D01*
X89145403Y-60480380D02*
X89145403Y-59480380D01*
X88669213Y-59480380D01*
X87907308Y-60432761D02*
X88002546Y-60480380D01*
X88193022Y-60480380D01*
X88288260Y-60432761D01*
X88335879Y-60337523D01*
X88335879Y-59956571D01*
X88288260Y-59861333D01*
X88193022Y-59813714D01*
X88002546Y-59813714D01*
X87907308Y-59861333D01*
X87859689Y-59956571D01*
X87859689Y-60051809D01*
X88335879Y-60147047D01*
X87431118Y-60480380D02*
X87431118Y-59480380D01*
X87431118Y-59861333D02*
X87335879Y-59813714D01*
X87145403Y-59813714D01*
X87050165Y-59861333D01*
X87002546Y-59908952D01*
X86954927Y-60004190D01*
X86954927Y-60289904D01*
X87002546Y-60385142D01*
X87050165Y-60432761D01*
X87145403Y-60480380D01*
X87335879Y-60480380D01*
X87431118Y-60432761D01*
X86526356Y-60480380D02*
X86526356Y-59813714D01*
X86526356Y-60004190D02*
X86478737Y-59908952D01*
X86431118Y-59861333D01*
X86335879Y-59813714D01*
X86240641Y-59813714D01*
X85478737Y-59813714D02*
X85478737Y-60480380D01*
X85907308Y-59813714D02*
X85907308Y-60337523D01*
X85859689Y-60432761D01*
X85764451Y-60480380D01*
X85621594Y-60480380D01*
X85526356Y-60432761D01*
X85478737Y-60385142D01*
X84573975Y-60480380D02*
X84573975Y-59956571D01*
X84621594Y-59861333D01*
X84716832Y-59813714D01*
X84907308Y-59813714D01*
X85002546Y-59861333D01*
X84573975Y-60432761D02*
X84669213Y-60480380D01*
X84907308Y-60480380D01*
X85002546Y-60432761D01*
X85050165Y-60337523D01*
X85050165Y-60242285D01*
X85002546Y-60147047D01*
X84907308Y-60099428D01*
X84669213Y-60099428D01*
X84573975Y-60051809D01*
X84097784Y-60480380D02*
X84097784Y-59813714D01*
X84097784Y-60004190D02*
X84050165Y-59908952D01*
X84002546Y-59861333D01*
X83907308Y-59813714D01*
X83812070Y-59813714D01*
X83573975Y-59813714D02*
X83335879Y-60480380D01*
X83097784Y-59813714D02*
X83335879Y-60480380D01*
X83431118Y-60718476D01*
X83478737Y-60766095D01*
X83573975Y-60813714D01*
X82002546Y-59575619D02*
X81954927Y-59528000D01*
X81859689Y-59480380D01*
X81621594Y-59480380D01*
X81526356Y-59528000D01*
X81478737Y-59575619D01*
X81431118Y-59670857D01*
X81431118Y-59766095D01*
X81478737Y-59908952D01*
X82050165Y-60480380D01*
X81431118Y-60480380D01*
X80812070Y-59480380D02*
X80716832Y-59480380D01*
X80621594Y-59528000D01*
X80573975Y-59575619D01*
X80526356Y-59670857D01*
X80478737Y-59861333D01*
X80478737Y-60099428D01*
X80526356Y-60289904D01*
X80573975Y-60385142D01*
X80621594Y-60432761D01*
X80716832Y-60480380D01*
X80812070Y-60480380D01*
X80907308Y-60432761D01*
X80954927Y-60385142D01*
X81002546Y-60289904D01*
X81050165Y-60099428D01*
X81050165Y-59861333D01*
X81002546Y-59670857D01*
X80954927Y-59575619D01*
X80907308Y-59528000D01*
X80812070Y-59480380D01*
X80097784Y-59575619D02*
X80050165Y-59528000D01*
X79954927Y-59480380D01*
X79716832Y-59480380D01*
X79621594Y-59528000D01*
X79573975Y-59575619D01*
X79526356Y-59670857D01*
X79526356Y-59766095D01*
X79573975Y-59908952D01*
X80145403Y-60480380D01*
X79526356Y-60480380D01*
X79145403Y-59575619D02*
X79097784Y-59528000D01*
X79002546Y-59480380D01*
X78764451Y-59480380D01*
X78669213Y-59528000D01*
X78621594Y-59575619D01*
X78573975Y-59670857D01*
X78573975Y-59766095D01*
X78621594Y-59908952D01*
X79193022Y-60480380D01*
X78573975Y-60480380D01*
X88002546Y-62090380D02*
X88335879Y-61614190D01*
X88573975Y-62090380D02*
X88573975Y-61090380D01*
X88193022Y-61090380D01*
X88097784Y-61138000D01*
X88050165Y-61185619D01*
X88002546Y-61280857D01*
X88002546Y-61423714D01*
X88050165Y-61518952D01*
X88097784Y-61566571D01*
X88193022Y-61614190D01*
X88573975Y-61614190D01*
X87193022Y-62042761D02*
X87288260Y-62090380D01*
X87478737Y-62090380D01*
X87573975Y-62042761D01*
X87621594Y-61947523D01*
X87621594Y-61566571D01*
X87573975Y-61471333D01*
X87478737Y-61423714D01*
X87288260Y-61423714D01*
X87193022Y-61471333D01*
X87145403Y-61566571D01*
X87145403Y-61661809D01*
X87621594Y-61757047D01*
X86812070Y-61423714D02*
X86573975Y-62090380D01*
X86335879Y-61423714D01*
X85954927Y-61995142D02*
X85907308Y-62042761D01*
X85954927Y-62090380D01*
X86002546Y-62042761D01*
X85954927Y-61995142D01*
X85954927Y-62090380D01*
X84193022Y-62090380D02*
X84764451Y-62090380D01*
X84478737Y-62090380D02*
X84478737Y-61090380D01*
X84573975Y-61233238D01*
X84669213Y-61328476D01*
X84764451Y-61376095D01*
X82716832Y-62471333D02*
X82764451Y-62423714D01*
X82859689Y-62280857D01*
X82907308Y-62185619D01*
X82954927Y-62042761D01*
X83002546Y-61804666D01*
X83002546Y-61614190D01*
X82954927Y-61376095D01*
X82907308Y-61233238D01*
X82859689Y-61138000D01*
X82764451Y-60995142D01*
X82716832Y-60947523D01*
X81812070Y-62090380D02*
X82383499Y-62090380D01*
X82097784Y-62090380D02*
X82097784Y-61090380D01*
X82193022Y-61233238D01*
X82288260Y-61328476D01*
X82383499Y-61376095D01*
X80669213Y-61042761D02*
X81526356Y-62328476D01*
X79859689Y-61090380D02*
X80335879Y-61090380D01*
X80383499Y-61566571D01*
X80335879Y-61518952D01*
X80240641Y-61471333D01*
X80002546Y-61471333D01*
X79907308Y-61518952D01*
X79859689Y-61566571D01*
X79812070Y-61661809D01*
X79812070Y-61899904D01*
X79859689Y-61995142D01*
X79907308Y-62042761D01*
X80002546Y-62090380D01*
X80240641Y-62090380D01*
X80335879Y-62042761D01*
X80383499Y-61995142D01*
X79478737Y-62471333D02*
X79431118Y-62423714D01*
X79335879Y-62280857D01*
X79288260Y-62185619D01*
X79240641Y-62042761D01*
X79193022Y-61804666D01*
X79193022Y-61614190D01*
X79240641Y-61376095D01*
X79288260Y-61233238D01*
X79335879Y-61138000D01*
X79431118Y-60995142D01*
X79478737Y-60947523D01*
X88502546Y-62700380D02*
X88502546Y-63414666D01*
X88550165Y-63557523D01*
X88645403Y-63652761D01*
X88788260Y-63700380D01*
X88883499Y-63700380D01*
X87550165Y-63700380D02*
X88026356Y-63700380D01*
X88026356Y-62700380D01*
X86645403Y-63605142D02*
X86693022Y-63652761D01*
X86835879Y-63700380D01*
X86931118Y-63700380D01*
X87073975Y-63652761D01*
X87169213Y-63557523D01*
X87216832Y-63462285D01*
X87264451Y-63271809D01*
X87264451Y-63128952D01*
X87216832Y-62938476D01*
X87169213Y-62843238D01*
X87073975Y-62748000D01*
X86931118Y-62700380D01*
X86835879Y-62700380D01*
X86693022Y-62748000D01*
X86645403Y-62795619D01*
X85931118Y-62700380D02*
X85931118Y-63414666D01*
X85978737Y-63557523D01*
X86073975Y-63652761D01*
X86216832Y-63700380D01*
X86312070Y-63700380D01*
X84978737Y-63700380D02*
X85454927Y-63700380D01*
X85454927Y-62700380D01*
X84073975Y-63605142D02*
X84121594Y-63652761D01*
X84264451Y-63700380D01*
X84359689Y-63700380D01*
X84502546Y-63652761D01*
X84597784Y-63557523D01*
X84645403Y-63462285D01*
X84693022Y-63271809D01*
X84693022Y-63128952D01*
X84645403Y-62938476D01*
X84597784Y-62843238D01*
X84502546Y-62748000D01*
X84359689Y-62700380D01*
X84264451Y-62700380D01*
X84121594Y-62748000D01*
X84073975Y-62795619D01*
X83359689Y-62700380D02*
X83359689Y-63414666D01*
X83407308Y-63557523D01*
X83502546Y-63652761D01*
X83645403Y-63700380D01*
X83740641Y-63700380D01*
X82407308Y-63700380D02*
X82883499Y-63700380D01*
X82883499Y-62700380D01*
X81502546Y-63605142D02*
X81550165Y-63652761D01*
X81693022Y-63700380D01*
X81788260Y-63700380D01*
X81931118Y-63652761D01*
X82026356Y-63557523D01*
X82073975Y-63462285D01*
X82121594Y-63271809D01*
X82121594Y-63128952D01*
X82073975Y-62938476D01*
X82026356Y-62843238D01*
X81931118Y-62748000D01*
X81788260Y-62700380D01*
X81693022Y-62700380D01*
X81550165Y-62748000D01*
X81502546Y-62795619D01*
X80788260Y-62700380D02*
X80788260Y-63414666D01*
X80835879Y-63557523D01*
X80931118Y-63652761D01*
X81073975Y-63700380D01*
X81169213Y-63700380D01*
X79835879Y-63700380D02*
X80312070Y-63700380D01*
X80312070Y-62700380D01*
X78931118Y-63605142D02*
X78978737Y-63652761D01*
X79121594Y-63700380D01*
X79216832Y-63700380D01*
X79359689Y-63652761D01*
X79454927Y-63557523D01*
X79502546Y-63462285D01*
X79550165Y-63271809D01*
X79550165Y-63128952D01*
X79502546Y-62938476D01*
X79454927Y-62843238D01*
X79359689Y-62748000D01*
X79216832Y-62700380D01*
X79121594Y-62700380D01*
X78978737Y-62748000D01*
X78931118Y-62795619D01*
M02*
