%TF.GenerationSoftware,KiCad,Pcbnew,(6.0.1)*%
%TF.CreationDate,2022-04-10T22:50:01-04:00*%
%TF.ProjectId,plate,706c6174-652e-46b6-9963-61645f706362,rev?*%
%TF.SameCoordinates,Original*%
%TF.FileFunction,Copper,L1,Top*%
%TF.FilePolarity,Positive*%
%FSLAX46Y46*%
G04 Gerber Fmt 4.6, Leading zero omitted, Abs format (unit mm)*
G04 Created by KiCad (PCBNEW (6.0.1)) date 2022-04-10 22:50:01*
%MOMM*%
%LPD*%
G01*
G04 APERTURE LIST*
G04 APERTURE END LIST*
%TA.AperFunction,NonConductor*%
G36*
X115857556Y-38926999D02*
G01*
X115872357Y-38929304D01*
X115872360Y-38929304D01*
X115881229Y-38930685D01*
X115892227Y-38929247D01*
X115920910Y-38928790D01*
X116023806Y-38938924D01*
X116048030Y-38943743D01*
X116167232Y-38979903D01*
X116190052Y-38989355D01*
X116299899Y-39048069D01*
X116320437Y-39061792D01*
X116416722Y-39140811D01*
X116434187Y-39158276D01*
X116513206Y-39254561D01*
X116526929Y-39275099D01*
X116585643Y-39384946D01*
X116595095Y-39407766D01*
X116631255Y-39526968D01*
X116636074Y-39551194D01*
X116645543Y-39647333D01*
X116645091Y-39663375D01*
X116645804Y-39663384D01*
X116645694Y-39672357D01*
X116644313Y-39681229D01*
X116645477Y-39690131D01*
X116645477Y-39690134D01*
X116648435Y-39712750D01*
X116649499Y-39729088D01*
X116649499Y-158700671D01*
X116647999Y-158720055D01*
X116644313Y-158743729D01*
X116645751Y-158754727D01*
X116646208Y-158783411D01*
X116636074Y-158886304D01*
X116631255Y-158910530D01*
X116595095Y-159029732D01*
X116585643Y-159052552D01*
X116526929Y-159162399D01*
X116513206Y-159182937D01*
X116434187Y-159279222D01*
X116416722Y-159296687D01*
X116320437Y-159375706D01*
X116299899Y-159389429D01*
X116190052Y-159448143D01*
X116167232Y-159457595D01*
X116048030Y-159493755D01*
X116023806Y-159498574D01*
X115927662Y-159508043D01*
X115911623Y-159507591D01*
X115911614Y-159508304D01*
X115902641Y-159508194D01*
X115893769Y-159506813D01*
X115884867Y-159507977D01*
X115884864Y-159507977D01*
X115862248Y-159510935D01*
X115845910Y-159511999D01*
X39736827Y-159511999D01*
X39717442Y-159510499D01*
X39702641Y-159508194D01*
X39702638Y-159508194D01*
X39693769Y-159506813D01*
X39682771Y-159508251D01*
X39654088Y-159508708D01*
X39551192Y-159498574D01*
X39526968Y-159493755D01*
X39407766Y-159457595D01*
X39384946Y-159448143D01*
X39275099Y-159389429D01*
X39254561Y-159375706D01*
X39158276Y-159296687D01*
X39140811Y-159279222D01*
X39061792Y-159182937D01*
X39048069Y-159162399D01*
X38989355Y-159052552D01*
X38979903Y-159029732D01*
X38943743Y-158910530D01*
X38938924Y-158886304D01*
X38929455Y-158790165D01*
X38929907Y-158774123D01*
X38929194Y-158774114D01*
X38929304Y-158765141D01*
X38930685Y-158756269D01*
X38929046Y-158743729D01*
X38926563Y-158724748D01*
X38925499Y-158708410D01*
X38925499Y-154725001D01*
X42786276Y-154725001D01*
X42786965Y-154729808D01*
X42786965Y-154729815D01*
X42789315Y-154746220D01*
X42790109Y-154753102D01*
X42803023Y-154900707D01*
X42804447Y-154906021D01*
X42804447Y-154906022D01*
X42826696Y-154989055D01*
X42848672Y-155071073D01*
X42850994Y-155076053D01*
X42850995Y-155076055D01*
X42884745Y-155148430D01*
X42923213Y-155230925D01*
X43024378Y-155375404D01*
X43149096Y-155500122D01*
X43293575Y-155601287D01*
X43298553Y-155603608D01*
X43298556Y-155603610D01*
X43400664Y-155651224D01*
X43453427Y-155675828D01*
X43458735Y-155677250D01*
X43458737Y-155677251D01*
X43618478Y-155720053D01*
X43618479Y-155720053D01*
X43623793Y-155721477D01*
X43629279Y-155721957D01*
X43629285Y-155721958D01*
X43753268Y-155732806D01*
X43763191Y-155734072D01*
X43782167Y-155737265D01*
X43782172Y-155737265D01*
X43786960Y-155738071D01*
X43793259Y-155738148D01*
X43794640Y-155738165D01*
X43794644Y-155738165D01*
X43799499Y-155738224D01*
X43827087Y-155734273D01*
X43844950Y-155733000D01*
X49746294Y-155733000D01*
X49767198Y-155734746D01*
X49786962Y-155738071D01*
X49793320Y-155738149D01*
X49794643Y-155738165D01*
X49794647Y-155738165D01*
X49799501Y-155738224D01*
X49804308Y-155737535D01*
X49804315Y-155737535D01*
X49820720Y-155735185D01*
X49827602Y-155734391D01*
X49861495Y-155731426D01*
X49934929Y-155725001D01*
X51224276Y-155725001D01*
X51224965Y-155729808D01*
X51224965Y-155729815D01*
X51227315Y-155746220D01*
X51228109Y-155753102D01*
X51241023Y-155900707D01*
X51286672Y-156071073D01*
X51361213Y-156230925D01*
X51462378Y-156375404D01*
X51587096Y-156500122D01*
X51731575Y-156601287D01*
X51736553Y-156603608D01*
X51736556Y-156603610D01*
X51886445Y-156673505D01*
X51891427Y-156675828D01*
X51896735Y-156677250D01*
X51896737Y-156677251D01*
X52056478Y-156720053D01*
X52056479Y-156720053D01*
X52061793Y-156721477D01*
X52067279Y-156721957D01*
X52067285Y-156721958D01*
X52191268Y-156732806D01*
X52201191Y-156734072D01*
X52220167Y-156737265D01*
X52220172Y-156737265D01*
X52224960Y-156738071D01*
X52231259Y-156738148D01*
X52232640Y-156738165D01*
X52232644Y-156738165D01*
X52237499Y-156738224D01*
X52265087Y-156734273D01*
X52282950Y-156733000D01*
X65184294Y-156733000D01*
X65205198Y-156734746D01*
X65224962Y-156738071D01*
X65231320Y-156738149D01*
X65232643Y-156738165D01*
X65232647Y-156738165D01*
X65237501Y-156738224D01*
X65242308Y-156737535D01*
X65242315Y-156737535D01*
X65258720Y-156735185D01*
X65265602Y-156734391D01*
X65299495Y-156731426D01*
X65413207Y-156721477D01*
X65418521Y-156720053D01*
X65418522Y-156720053D01*
X65578263Y-156677251D01*
X65578265Y-156677250D01*
X65583573Y-156675828D01*
X65588555Y-156673505D01*
X65738444Y-156603610D01*
X65738447Y-156603608D01*
X65743425Y-156601287D01*
X65887904Y-156500122D01*
X66012622Y-156375404D01*
X66113787Y-156230925D01*
X66188328Y-156071073D01*
X66233977Y-155900707D01*
X66234458Y-155895215D01*
X66245306Y-155771232D01*
X66246572Y-155761309D01*
X66249765Y-155742333D01*
X66249765Y-155742328D01*
X66250571Y-155737540D01*
X66250724Y-155725001D01*
X66246773Y-155697413D01*
X66245500Y-155679550D01*
X66245500Y-154725001D01*
X66662276Y-154725001D01*
X66662965Y-154729808D01*
X66662965Y-154729815D01*
X66665315Y-154746220D01*
X66666109Y-154753102D01*
X66679023Y-154900707D01*
X66680447Y-154906021D01*
X66680447Y-154906022D01*
X66702696Y-154989055D01*
X66724672Y-155071073D01*
X66726994Y-155076053D01*
X66726995Y-155076055D01*
X66760745Y-155148430D01*
X66799213Y-155230925D01*
X66900378Y-155375404D01*
X67025096Y-155500122D01*
X67169575Y-155601287D01*
X67174553Y-155603608D01*
X67174556Y-155603610D01*
X67276664Y-155651224D01*
X67329427Y-155675828D01*
X67334735Y-155677250D01*
X67334737Y-155677251D01*
X67494478Y-155720053D01*
X67494479Y-155720053D01*
X67499793Y-155721477D01*
X67505279Y-155721957D01*
X67505285Y-155721958D01*
X67629268Y-155732806D01*
X67639191Y-155734072D01*
X67658167Y-155737265D01*
X67658172Y-155737265D01*
X67662960Y-155738071D01*
X67669259Y-155738148D01*
X67670640Y-155738165D01*
X67670644Y-155738165D01*
X67675499Y-155738224D01*
X67703087Y-155734273D01*
X67720950Y-155733000D01*
X73622294Y-155733000D01*
X73643198Y-155734746D01*
X73662962Y-155738071D01*
X73669320Y-155738149D01*
X73670643Y-155738165D01*
X73670647Y-155738165D01*
X73675501Y-155738224D01*
X73680308Y-155737535D01*
X73680315Y-155737535D01*
X73696720Y-155735185D01*
X73703602Y-155734391D01*
X73737495Y-155731426D01*
X73810929Y-155725001D01*
X79799276Y-155725001D01*
X79799965Y-155729808D01*
X79799965Y-155729815D01*
X79802315Y-155746220D01*
X79803109Y-155753102D01*
X79816023Y-155900707D01*
X79861672Y-156071073D01*
X79936213Y-156230925D01*
X80037378Y-156375404D01*
X80162096Y-156500122D01*
X80306575Y-156601287D01*
X80311553Y-156603608D01*
X80311556Y-156603610D01*
X80461445Y-156673505D01*
X80466427Y-156675828D01*
X80471735Y-156677250D01*
X80471737Y-156677251D01*
X80631478Y-156720053D01*
X80631479Y-156720053D01*
X80636793Y-156721477D01*
X80642279Y-156721957D01*
X80642285Y-156721958D01*
X80766268Y-156732806D01*
X80776191Y-156734072D01*
X80795167Y-156737265D01*
X80795172Y-156737265D01*
X80799960Y-156738071D01*
X80806259Y-156738148D01*
X80807640Y-156738165D01*
X80807644Y-156738165D01*
X80812499Y-156738224D01*
X80840087Y-156734273D01*
X80857950Y-156733000D01*
X93759294Y-156733000D01*
X93780198Y-156734746D01*
X93799962Y-156738071D01*
X93806320Y-156738149D01*
X93807643Y-156738165D01*
X93807647Y-156738165D01*
X93812501Y-156738224D01*
X93817308Y-156737535D01*
X93817315Y-156737535D01*
X93833720Y-156735185D01*
X93840602Y-156734391D01*
X93874495Y-156731426D01*
X93988207Y-156721477D01*
X93993521Y-156720053D01*
X93993522Y-156720053D01*
X94153263Y-156677251D01*
X94153265Y-156677250D01*
X94158573Y-156675828D01*
X94163555Y-156673505D01*
X94313444Y-156603610D01*
X94313447Y-156603608D01*
X94318425Y-156601287D01*
X94462904Y-156500122D01*
X94587622Y-156375404D01*
X94688787Y-156230925D01*
X94763328Y-156071073D01*
X94808977Y-155900707D01*
X94809458Y-155895215D01*
X94820306Y-155771232D01*
X94821572Y-155761309D01*
X94824765Y-155742333D01*
X94824765Y-155742328D01*
X94825571Y-155737540D01*
X94825724Y-155725001D01*
X94821773Y-155697413D01*
X94820500Y-155679550D01*
X94820500Y-154638001D01*
X96849276Y-154638001D01*
X96849965Y-154642808D01*
X96849965Y-154642815D01*
X96852315Y-154659220D01*
X96853109Y-154666102D01*
X96855071Y-154688524D01*
X96866023Y-154813707D01*
X96911672Y-154984073D01*
X96986213Y-155143925D01*
X97087378Y-155288404D01*
X97212096Y-155413122D01*
X97356575Y-155514287D01*
X97361553Y-155516608D01*
X97361556Y-155516610D01*
X97511445Y-155586505D01*
X97516427Y-155588828D01*
X97521735Y-155590250D01*
X97521737Y-155590251D01*
X97681478Y-155633053D01*
X97681479Y-155633053D01*
X97686793Y-155634477D01*
X97692279Y-155634957D01*
X97692285Y-155634958D01*
X97816268Y-155645806D01*
X97826191Y-155647072D01*
X97845167Y-155650265D01*
X97845172Y-155650265D01*
X97849960Y-155651071D01*
X97856259Y-155651148D01*
X97857640Y-155651165D01*
X97857644Y-155651165D01*
X97862499Y-155651224D01*
X97890087Y-155647273D01*
X97907950Y-155646000D01*
X111809294Y-155646000D01*
X111830198Y-155647746D01*
X111849962Y-155651071D01*
X111856320Y-155651149D01*
X111857643Y-155651165D01*
X111857647Y-155651165D01*
X111862501Y-155651224D01*
X111867308Y-155650535D01*
X111867315Y-155650535D01*
X111883720Y-155648185D01*
X111890602Y-155647391D01*
X111924495Y-155644426D01*
X112038207Y-155634477D01*
X112043521Y-155633053D01*
X112043522Y-155633053D01*
X112203263Y-155590251D01*
X112203265Y-155590250D01*
X112208573Y-155588828D01*
X112213555Y-155586505D01*
X112363444Y-155516610D01*
X112363447Y-155516608D01*
X112368425Y-155514287D01*
X112512904Y-155413122D01*
X112637622Y-155288404D01*
X112738787Y-155143925D01*
X112813328Y-154984073D01*
X112858977Y-154813707D01*
X112859458Y-154808215D01*
X112870306Y-154684232D01*
X112871572Y-154674309D01*
X112874765Y-154655333D01*
X112874765Y-154655328D01*
X112875571Y-154650540D01*
X112875724Y-154638001D01*
X112871773Y-154610413D01*
X112870500Y-154592550D01*
X112870500Y-148691206D01*
X112872246Y-148670302D01*
X112874764Y-148655334D01*
X112875571Y-148650538D01*
X112875724Y-148637999D01*
X112875035Y-148633192D01*
X112875035Y-148633185D01*
X112872685Y-148616780D01*
X112871891Y-148609898D01*
X112859456Y-148467773D01*
X112858977Y-148462293D01*
X112813328Y-148291927D01*
X112738787Y-148132075D01*
X112637622Y-147987596D01*
X112512904Y-147862878D01*
X112368425Y-147761713D01*
X112363447Y-147759392D01*
X112363444Y-147759390D01*
X112213555Y-147689495D01*
X112213553Y-147689494D01*
X112208573Y-147687172D01*
X112203265Y-147685750D01*
X112203263Y-147685749D01*
X112043522Y-147642947D01*
X112043521Y-147642947D01*
X112038207Y-147641523D01*
X112032721Y-147641043D01*
X112032715Y-147641042D01*
X111908732Y-147630194D01*
X111898809Y-147628928D01*
X111879833Y-147625735D01*
X111879828Y-147625735D01*
X111875040Y-147624929D01*
X111868741Y-147624852D01*
X111867360Y-147624835D01*
X111867356Y-147624835D01*
X111862501Y-147624776D01*
X111838216Y-147628254D01*
X111834913Y-147628727D01*
X111817050Y-147630000D01*
X97915706Y-147630000D01*
X97894802Y-147628254D01*
X97891636Y-147627721D01*
X97875038Y-147624929D01*
X97868680Y-147624851D01*
X97867357Y-147624835D01*
X97867353Y-147624835D01*
X97862499Y-147624776D01*
X97857692Y-147625465D01*
X97857685Y-147625465D01*
X97841280Y-147627815D01*
X97834398Y-147628609D01*
X97800505Y-147631574D01*
X97686793Y-147641523D01*
X97681479Y-147642947D01*
X97681478Y-147642947D01*
X97521737Y-147685749D01*
X97521735Y-147685750D01*
X97516427Y-147687172D01*
X97511447Y-147689494D01*
X97511445Y-147689495D01*
X97361556Y-147759390D01*
X97361553Y-147759392D01*
X97356575Y-147761713D01*
X97212096Y-147862878D01*
X97087378Y-147987596D01*
X96986213Y-148132075D01*
X96911672Y-148291927D01*
X96866023Y-148462293D01*
X96865544Y-148467773D01*
X96865542Y-148467785D01*
X96854694Y-148591768D01*
X96853428Y-148601691D01*
X96849429Y-148625460D01*
X96849276Y-148637999D01*
X96851065Y-148650491D01*
X96853227Y-148665587D01*
X96854500Y-148683450D01*
X96854500Y-154584794D01*
X96852754Y-154605698D01*
X96849429Y-154625462D01*
X96849276Y-154638001D01*
X94820500Y-154638001D01*
X94820500Y-146200001D01*
X98849276Y-146200001D01*
X98849965Y-146204808D01*
X98849965Y-146204815D01*
X98852315Y-146221220D01*
X98853109Y-146228102D01*
X98866023Y-146375707D01*
X98911672Y-146546073D01*
X98986213Y-146705925D01*
X99087378Y-146850404D01*
X99212096Y-146975122D01*
X99356575Y-147076287D01*
X99361553Y-147078608D01*
X99361556Y-147078610D01*
X99511445Y-147148505D01*
X99516427Y-147150828D01*
X99521735Y-147152250D01*
X99521737Y-147152251D01*
X99681478Y-147195053D01*
X99681479Y-147195053D01*
X99686793Y-147196477D01*
X99692279Y-147196957D01*
X99692285Y-147196958D01*
X99816268Y-147207806D01*
X99826191Y-147209072D01*
X99845167Y-147212265D01*
X99845172Y-147212265D01*
X99849960Y-147213071D01*
X99856259Y-147213148D01*
X99857640Y-147213165D01*
X99857644Y-147213165D01*
X99862499Y-147213224D01*
X99890087Y-147209273D01*
X99907950Y-147208000D01*
X112809294Y-147208000D01*
X112830198Y-147209746D01*
X112849962Y-147213071D01*
X112856320Y-147213149D01*
X112857643Y-147213165D01*
X112857647Y-147213165D01*
X112862501Y-147213224D01*
X112867308Y-147212535D01*
X112867315Y-147212535D01*
X112883720Y-147210185D01*
X112890602Y-147209391D01*
X112924495Y-147206426D01*
X113038207Y-147196477D01*
X113043521Y-147195053D01*
X113043522Y-147195053D01*
X113203263Y-147152251D01*
X113203265Y-147152250D01*
X113208573Y-147150828D01*
X113213555Y-147148505D01*
X113363444Y-147078610D01*
X113363447Y-147078608D01*
X113368425Y-147076287D01*
X113512904Y-146975122D01*
X113637622Y-146850404D01*
X113738787Y-146705925D01*
X113813328Y-146546073D01*
X113858977Y-146375707D01*
X113859458Y-146370215D01*
X113870306Y-146246232D01*
X113871572Y-146236309D01*
X113874765Y-146217333D01*
X113874765Y-146217328D01*
X113875571Y-146212540D01*
X113875724Y-146200001D01*
X113871773Y-146172413D01*
X113870500Y-146154550D01*
X113870500Y-133253206D01*
X113872246Y-133232302D01*
X113874764Y-133217334D01*
X113875571Y-133212538D01*
X113875724Y-133199999D01*
X113875035Y-133195192D01*
X113875035Y-133195185D01*
X113872685Y-133178780D01*
X113871891Y-133171898D01*
X113859456Y-133029773D01*
X113858977Y-133024293D01*
X113813328Y-132853927D01*
X113738787Y-132694075D01*
X113637622Y-132549596D01*
X113512904Y-132424878D01*
X113368425Y-132323713D01*
X113363447Y-132321392D01*
X113363444Y-132321390D01*
X113213555Y-132251495D01*
X113213553Y-132251494D01*
X113208573Y-132249172D01*
X113203265Y-132247750D01*
X113203263Y-132247749D01*
X113043522Y-132204947D01*
X113043521Y-132204947D01*
X113038207Y-132203523D01*
X113032721Y-132203043D01*
X113032715Y-132203042D01*
X112908732Y-132192194D01*
X112898809Y-132190928D01*
X112879833Y-132187735D01*
X112879828Y-132187735D01*
X112875040Y-132186929D01*
X112868741Y-132186852D01*
X112867360Y-132186835D01*
X112867356Y-132186835D01*
X112862501Y-132186776D01*
X112838216Y-132190254D01*
X112834913Y-132190727D01*
X112817050Y-132192000D01*
X99915706Y-132192000D01*
X99894802Y-132190254D01*
X99891636Y-132189721D01*
X99875038Y-132186929D01*
X99868680Y-132186851D01*
X99867357Y-132186835D01*
X99867353Y-132186835D01*
X99862499Y-132186776D01*
X99857692Y-132187465D01*
X99857685Y-132187465D01*
X99841280Y-132189815D01*
X99834398Y-132190609D01*
X99800505Y-132193574D01*
X99686793Y-132203523D01*
X99681479Y-132204947D01*
X99681478Y-132204947D01*
X99521737Y-132247749D01*
X99521735Y-132247750D01*
X99516427Y-132249172D01*
X99511447Y-132251494D01*
X99511445Y-132251495D01*
X99361556Y-132321390D01*
X99361553Y-132321392D01*
X99356575Y-132323713D01*
X99212096Y-132424878D01*
X99087378Y-132549596D01*
X98986213Y-132694075D01*
X98911672Y-132853927D01*
X98866023Y-133024293D01*
X98865544Y-133029773D01*
X98865542Y-133029785D01*
X98854694Y-133153768D01*
X98853428Y-133163691D01*
X98849429Y-133187460D01*
X98849276Y-133199999D01*
X98851065Y-133212491D01*
X98853227Y-133227587D01*
X98854500Y-133245450D01*
X98854500Y-146146794D01*
X98852754Y-146167698D01*
X98849429Y-146187462D01*
X98849276Y-146200001D01*
X94820500Y-146200001D01*
X94820500Y-142778206D01*
X94822246Y-142757302D01*
X94824764Y-142742334D01*
X94825571Y-142737538D01*
X94825724Y-142724999D01*
X94825035Y-142720192D01*
X94825035Y-142720185D01*
X94822685Y-142703780D01*
X94821891Y-142696898D01*
X94809456Y-142554773D01*
X94808977Y-142549293D01*
X94763328Y-142378927D01*
X94688787Y-142219075D01*
X94587622Y-142074596D01*
X94462904Y-141949878D01*
X94318425Y-141848713D01*
X94313447Y-141846392D01*
X94313444Y-141846390D01*
X94163555Y-141776495D01*
X94163553Y-141776494D01*
X94158573Y-141774172D01*
X94153265Y-141772750D01*
X94153263Y-141772749D01*
X93993522Y-141729947D01*
X93993521Y-141729947D01*
X93988207Y-141728523D01*
X93982721Y-141728043D01*
X93982715Y-141728042D01*
X93858732Y-141717194D01*
X93848809Y-141715928D01*
X93829833Y-141712735D01*
X93829828Y-141712735D01*
X93825040Y-141711929D01*
X93818741Y-141711852D01*
X93817360Y-141711835D01*
X93817356Y-141711835D01*
X93812501Y-141711776D01*
X93788216Y-141715254D01*
X93784913Y-141715727D01*
X93767050Y-141717000D01*
X80865706Y-141717000D01*
X80844802Y-141715254D01*
X80841636Y-141714721D01*
X80825038Y-141711929D01*
X80818680Y-141711851D01*
X80817357Y-141711835D01*
X80817353Y-141711835D01*
X80812499Y-141711776D01*
X80807692Y-141712465D01*
X80807685Y-141712465D01*
X80791280Y-141714815D01*
X80784398Y-141715609D01*
X80750505Y-141718574D01*
X80636793Y-141728523D01*
X80631479Y-141729947D01*
X80631478Y-141729947D01*
X80471737Y-141772749D01*
X80471735Y-141772750D01*
X80466427Y-141774172D01*
X80461447Y-141776494D01*
X80461445Y-141776495D01*
X80311556Y-141846390D01*
X80311553Y-141846392D01*
X80306575Y-141848713D01*
X80162096Y-141949878D01*
X80037378Y-142074596D01*
X79936213Y-142219075D01*
X79861672Y-142378927D01*
X79816023Y-142549293D01*
X79815544Y-142554773D01*
X79815542Y-142554785D01*
X79804694Y-142678768D01*
X79803428Y-142688691D01*
X79799429Y-142712460D01*
X79799276Y-142724999D01*
X79801065Y-142737491D01*
X79803227Y-142752587D01*
X79804500Y-142770450D01*
X79804500Y-155671794D01*
X79802754Y-155692698D01*
X79799429Y-155712462D01*
X79799276Y-155725001D01*
X73810929Y-155725001D01*
X73851207Y-155721477D01*
X73856521Y-155720053D01*
X73856522Y-155720053D01*
X74016263Y-155677251D01*
X74016265Y-155677250D01*
X74021573Y-155675828D01*
X74074336Y-155651224D01*
X74176444Y-155603610D01*
X74176447Y-155603608D01*
X74181425Y-155601287D01*
X74325904Y-155500122D01*
X74450622Y-155375404D01*
X74551787Y-155230925D01*
X74590256Y-155148430D01*
X74624005Y-155076055D01*
X74624006Y-155076053D01*
X74626328Y-155071073D01*
X74648305Y-154989055D01*
X74670553Y-154906022D01*
X74670553Y-154906021D01*
X74671977Y-154900707D01*
X74672458Y-154895215D01*
X74683306Y-154771232D01*
X74684572Y-154761309D01*
X74687765Y-154742333D01*
X74687765Y-154742328D01*
X74688571Y-154737540D01*
X74688724Y-154725001D01*
X74684773Y-154697413D01*
X74683500Y-154679550D01*
X74683500Y-140778206D01*
X74685246Y-140757302D01*
X74687764Y-140742334D01*
X74688571Y-140737538D01*
X74688724Y-140724999D01*
X74688035Y-140720192D01*
X74688035Y-140720185D01*
X74685685Y-140703780D01*
X74684891Y-140696898D01*
X74672456Y-140554773D01*
X74671977Y-140549293D01*
X74626328Y-140378927D01*
X74551787Y-140219075D01*
X74450622Y-140074596D01*
X74325904Y-139949878D01*
X74181425Y-139848713D01*
X74176447Y-139846392D01*
X74176444Y-139846390D01*
X74026555Y-139776495D01*
X74026553Y-139776494D01*
X74021573Y-139774172D01*
X74016265Y-139772750D01*
X74016263Y-139772749D01*
X73856522Y-139729947D01*
X73856521Y-139729947D01*
X73851207Y-139728523D01*
X73845721Y-139728043D01*
X73845715Y-139728042D01*
X73721732Y-139717194D01*
X73711809Y-139715928D01*
X73692833Y-139712735D01*
X73692828Y-139712735D01*
X73688040Y-139711929D01*
X73681741Y-139711852D01*
X73680360Y-139711835D01*
X73680356Y-139711835D01*
X73675501Y-139711776D01*
X73651216Y-139715254D01*
X73647913Y-139715727D01*
X73630050Y-139717000D01*
X67728706Y-139717000D01*
X67707802Y-139715254D01*
X67704636Y-139714721D01*
X67688038Y-139711929D01*
X67681680Y-139711851D01*
X67680357Y-139711835D01*
X67680353Y-139711835D01*
X67675499Y-139711776D01*
X67670692Y-139712465D01*
X67670685Y-139712465D01*
X67654280Y-139714815D01*
X67647398Y-139715609D01*
X67613505Y-139718574D01*
X67499793Y-139728523D01*
X67494479Y-139729947D01*
X67494478Y-139729947D01*
X67334737Y-139772749D01*
X67334735Y-139772750D01*
X67329427Y-139774172D01*
X67324447Y-139776494D01*
X67324445Y-139776495D01*
X67174556Y-139846390D01*
X67174553Y-139846392D01*
X67169575Y-139848713D01*
X67025096Y-139949878D01*
X66900378Y-140074596D01*
X66799213Y-140219075D01*
X66724672Y-140378927D01*
X66679023Y-140549293D01*
X66678544Y-140554773D01*
X66678542Y-140554785D01*
X66667694Y-140678768D01*
X66666428Y-140688691D01*
X66662429Y-140712460D01*
X66662276Y-140724999D01*
X66664065Y-140737491D01*
X66666227Y-140752587D01*
X66667500Y-140770450D01*
X66667500Y-154671794D01*
X66665754Y-154692698D01*
X66662429Y-154712462D01*
X66662276Y-154725001D01*
X66245500Y-154725001D01*
X66245500Y-142778206D01*
X66247246Y-142757302D01*
X66249764Y-142742334D01*
X66250571Y-142737538D01*
X66250724Y-142724999D01*
X66250035Y-142720192D01*
X66250035Y-142720185D01*
X66247685Y-142703780D01*
X66246891Y-142696898D01*
X66234456Y-142554773D01*
X66233977Y-142549293D01*
X66188328Y-142378927D01*
X66113787Y-142219075D01*
X66012622Y-142074596D01*
X65887904Y-141949878D01*
X65743425Y-141848713D01*
X65738447Y-141846392D01*
X65738444Y-141846390D01*
X65588555Y-141776495D01*
X65588553Y-141776494D01*
X65583573Y-141774172D01*
X65578265Y-141772750D01*
X65578263Y-141772749D01*
X65418522Y-141729947D01*
X65418521Y-141729947D01*
X65413207Y-141728523D01*
X65407721Y-141728043D01*
X65407715Y-141728042D01*
X65283732Y-141717194D01*
X65273809Y-141715928D01*
X65254833Y-141712735D01*
X65254828Y-141712735D01*
X65250040Y-141711929D01*
X65243741Y-141711852D01*
X65242360Y-141711835D01*
X65242356Y-141711835D01*
X65237501Y-141711776D01*
X65213216Y-141715254D01*
X65209913Y-141715727D01*
X65192050Y-141717000D01*
X52290706Y-141717000D01*
X52269802Y-141715254D01*
X52266636Y-141714721D01*
X52250038Y-141711929D01*
X52243680Y-141711851D01*
X52242357Y-141711835D01*
X52242353Y-141711835D01*
X52237499Y-141711776D01*
X52232692Y-141712465D01*
X52232685Y-141712465D01*
X52216280Y-141714815D01*
X52209398Y-141715609D01*
X52175505Y-141718574D01*
X52061793Y-141728523D01*
X52056479Y-141729947D01*
X52056478Y-141729947D01*
X51896737Y-141772749D01*
X51896735Y-141772750D01*
X51891427Y-141774172D01*
X51886447Y-141776494D01*
X51886445Y-141776495D01*
X51736556Y-141846390D01*
X51736553Y-141846392D01*
X51731575Y-141848713D01*
X51587096Y-141949878D01*
X51462378Y-142074596D01*
X51361213Y-142219075D01*
X51286672Y-142378927D01*
X51241023Y-142549293D01*
X51240544Y-142554773D01*
X51240542Y-142554785D01*
X51229694Y-142678768D01*
X51228428Y-142688691D01*
X51224429Y-142712460D01*
X51224276Y-142724999D01*
X51226065Y-142737491D01*
X51228227Y-142752587D01*
X51229500Y-142770450D01*
X51229500Y-155671794D01*
X51227754Y-155692698D01*
X51224429Y-155712462D01*
X51224276Y-155725001D01*
X49934929Y-155725001D01*
X49975207Y-155721477D01*
X49980521Y-155720053D01*
X49980522Y-155720053D01*
X50140263Y-155677251D01*
X50140265Y-155677250D01*
X50145573Y-155675828D01*
X50198336Y-155651224D01*
X50300444Y-155603610D01*
X50300447Y-155603608D01*
X50305425Y-155601287D01*
X50449904Y-155500122D01*
X50574622Y-155375404D01*
X50675787Y-155230925D01*
X50714256Y-155148430D01*
X50748005Y-155076055D01*
X50748006Y-155076053D01*
X50750328Y-155071073D01*
X50772305Y-154989055D01*
X50794553Y-154906022D01*
X50794553Y-154906021D01*
X50795977Y-154900707D01*
X50796458Y-154895215D01*
X50807306Y-154771232D01*
X50808572Y-154761309D01*
X50811765Y-154742333D01*
X50811765Y-154742328D01*
X50812571Y-154737540D01*
X50812724Y-154725001D01*
X50808773Y-154697413D01*
X50807500Y-154679550D01*
X50807500Y-140778206D01*
X50809246Y-140757302D01*
X50811764Y-140742334D01*
X50812571Y-140737538D01*
X50812724Y-140724999D01*
X50812035Y-140720192D01*
X50812035Y-140720185D01*
X50809685Y-140703780D01*
X50808891Y-140696898D01*
X50796456Y-140554773D01*
X50795977Y-140549293D01*
X50750328Y-140378927D01*
X50675787Y-140219075D01*
X50574622Y-140074596D01*
X50449904Y-139949878D01*
X50305425Y-139848713D01*
X50300447Y-139846392D01*
X50300444Y-139846390D01*
X50150555Y-139776495D01*
X50150553Y-139776494D01*
X50145573Y-139774172D01*
X50140265Y-139772750D01*
X50140263Y-139772749D01*
X49980522Y-139729947D01*
X49980521Y-139729947D01*
X49975207Y-139728523D01*
X49969721Y-139728043D01*
X49969715Y-139728042D01*
X49845732Y-139717194D01*
X49835809Y-139715928D01*
X49816833Y-139712735D01*
X49816828Y-139712735D01*
X49812040Y-139711929D01*
X49805741Y-139711852D01*
X49804360Y-139711835D01*
X49804356Y-139711835D01*
X49799501Y-139711776D01*
X49775216Y-139715254D01*
X49771913Y-139715727D01*
X49754050Y-139717000D01*
X43852706Y-139717000D01*
X43831802Y-139715254D01*
X43828636Y-139714721D01*
X43812038Y-139711929D01*
X43805680Y-139711851D01*
X43804357Y-139711835D01*
X43804353Y-139711835D01*
X43799499Y-139711776D01*
X43794692Y-139712465D01*
X43794685Y-139712465D01*
X43778280Y-139714815D01*
X43771398Y-139715609D01*
X43737505Y-139718574D01*
X43623793Y-139728523D01*
X43618479Y-139729947D01*
X43618478Y-139729947D01*
X43458737Y-139772749D01*
X43458735Y-139772750D01*
X43453427Y-139774172D01*
X43448447Y-139776494D01*
X43448445Y-139776495D01*
X43298556Y-139846390D01*
X43298553Y-139846392D01*
X43293575Y-139848713D01*
X43149096Y-139949878D01*
X43024378Y-140074596D01*
X42923213Y-140219075D01*
X42848672Y-140378927D01*
X42803023Y-140549293D01*
X42802544Y-140554773D01*
X42802542Y-140554785D01*
X42791694Y-140678768D01*
X42790428Y-140688691D01*
X42786429Y-140712460D01*
X42786276Y-140724999D01*
X42788065Y-140737491D01*
X42790227Y-140752587D01*
X42791500Y-140770450D01*
X42791500Y-154671794D01*
X42789754Y-154692698D01*
X42786429Y-154712462D01*
X42786276Y-154725001D01*
X38925499Y-154725001D01*
X38925499Y-136675001D01*
X41699276Y-136675001D01*
X41699965Y-136679808D01*
X41699965Y-136679815D01*
X41702315Y-136696220D01*
X41703109Y-136703102D01*
X41716023Y-136850707D01*
X41761672Y-137021073D01*
X41836213Y-137180925D01*
X41937378Y-137325404D01*
X42062096Y-137450122D01*
X42206575Y-137551287D01*
X42211553Y-137553608D01*
X42211556Y-137553610D01*
X42361445Y-137623505D01*
X42366427Y-137625828D01*
X42371735Y-137627250D01*
X42371737Y-137627251D01*
X42531478Y-137670053D01*
X42531479Y-137670053D01*
X42536793Y-137671477D01*
X42542279Y-137671957D01*
X42542285Y-137671958D01*
X42666268Y-137682806D01*
X42676191Y-137684072D01*
X42695167Y-137687265D01*
X42695172Y-137687265D01*
X42699960Y-137688071D01*
X42706259Y-137688148D01*
X42707640Y-137688165D01*
X42707644Y-137688165D01*
X42712499Y-137688224D01*
X42740087Y-137684273D01*
X42757950Y-137683000D01*
X55659294Y-137683000D01*
X55680198Y-137684746D01*
X55699962Y-137688071D01*
X55706320Y-137688149D01*
X55707643Y-137688165D01*
X55707647Y-137688165D01*
X55712501Y-137688224D01*
X55717308Y-137687535D01*
X55717315Y-137687535D01*
X55733720Y-137685185D01*
X55740602Y-137684391D01*
X55774495Y-137681426D01*
X55888207Y-137671477D01*
X55893521Y-137670053D01*
X55893522Y-137670053D01*
X56053263Y-137627251D01*
X56053265Y-137627250D01*
X56058573Y-137625828D01*
X56063555Y-137623505D01*
X56213444Y-137553610D01*
X56213447Y-137553608D01*
X56218425Y-137551287D01*
X56362904Y-137450122D01*
X56487622Y-137325404D01*
X56588787Y-137180925D01*
X56663328Y-137021073D01*
X56708977Y-136850707D01*
X56709458Y-136845215D01*
X56720306Y-136721232D01*
X56721572Y-136711309D01*
X56724765Y-136692333D01*
X56724765Y-136692328D01*
X56725571Y-136687540D01*
X56725724Y-136675001D01*
X60749276Y-136675001D01*
X60749965Y-136679808D01*
X60749965Y-136679815D01*
X60752315Y-136696220D01*
X60753109Y-136703102D01*
X60766023Y-136850707D01*
X60811672Y-137021073D01*
X60886213Y-137180925D01*
X60987378Y-137325404D01*
X61112096Y-137450122D01*
X61256575Y-137551287D01*
X61261553Y-137553608D01*
X61261556Y-137553610D01*
X61411445Y-137623505D01*
X61416427Y-137625828D01*
X61421735Y-137627250D01*
X61421737Y-137627251D01*
X61581478Y-137670053D01*
X61581479Y-137670053D01*
X61586793Y-137671477D01*
X61592279Y-137671957D01*
X61592285Y-137671958D01*
X61716268Y-137682806D01*
X61726191Y-137684072D01*
X61745167Y-137687265D01*
X61745172Y-137687265D01*
X61749960Y-137688071D01*
X61756259Y-137688148D01*
X61757640Y-137688165D01*
X61757644Y-137688165D01*
X61762499Y-137688224D01*
X61790087Y-137684273D01*
X61807950Y-137683000D01*
X74709294Y-137683000D01*
X74730198Y-137684746D01*
X74749962Y-137688071D01*
X74756320Y-137688149D01*
X74757643Y-137688165D01*
X74757647Y-137688165D01*
X74762501Y-137688224D01*
X74767308Y-137687535D01*
X74767315Y-137687535D01*
X74783720Y-137685185D01*
X74790602Y-137684391D01*
X74824495Y-137681426D01*
X74938207Y-137671477D01*
X74943521Y-137670053D01*
X74943522Y-137670053D01*
X75103263Y-137627251D01*
X75103265Y-137627250D01*
X75108573Y-137625828D01*
X75113555Y-137623505D01*
X75263444Y-137553610D01*
X75263447Y-137553608D01*
X75268425Y-137551287D01*
X75412904Y-137450122D01*
X75537622Y-137325404D01*
X75638787Y-137180925D01*
X75713328Y-137021073D01*
X75758977Y-136850707D01*
X75759458Y-136845215D01*
X75770306Y-136721232D01*
X75771572Y-136711309D01*
X75774765Y-136692333D01*
X75774765Y-136692328D01*
X75775571Y-136687540D01*
X75775724Y-136675001D01*
X79799276Y-136675001D01*
X79799965Y-136679808D01*
X79799965Y-136679815D01*
X79802315Y-136696220D01*
X79803109Y-136703102D01*
X79816023Y-136850707D01*
X79861672Y-137021073D01*
X79936213Y-137180925D01*
X80037378Y-137325404D01*
X80162096Y-137450122D01*
X80306575Y-137551287D01*
X80311553Y-137553608D01*
X80311556Y-137553610D01*
X80461445Y-137623505D01*
X80466427Y-137625828D01*
X80471735Y-137627250D01*
X80471737Y-137627251D01*
X80631478Y-137670053D01*
X80631479Y-137670053D01*
X80636793Y-137671477D01*
X80642279Y-137671957D01*
X80642285Y-137671958D01*
X80766268Y-137682806D01*
X80776191Y-137684072D01*
X80795167Y-137687265D01*
X80795172Y-137687265D01*
X80799960Y-137688071D01*
X80806259Y-137688148D01*
X80807640Y-137688165D01*
X80807644Y-137688165D01*
X80812499Y-137688224D01*
X80840087Y-137684273D01*
X80857950Y-137683000D01*
X93759294Y-137683000D01*
X93780198Y-137684746D01*
X93799962Y-137688071D01*
X93806320Y-137688149D01*
X93807643Y-137688165D01*
X93807647Y-137688165D01*
X93812501Y-137688224D01*
X93817308Y-137687535D01*
X93817315Y-137687535D01*
X93833720Y-137685185D01*
X93840602Y-137684391D01*
X93874495Y-137681426D01*
X93988207Y-137671477D01*
X93993521Y-137670053D01*
X93993522Y-137670053D01*
X94153263Y-137627251D01*
X94153265Y-137627250D01*
X94158573Y-137625828D01*
X94163555Y-137623505D01*
X94313444Y-137553610D01*
X94313447Y-137553608D01*
X94318425Y-137551287D01*
X94462904Y-137450122D01*
X94587622Y-137325404D01*
X94688787Y-137180925D01*
X94763328Y-137021073D01*
X94808977Y-136850707D01*
X94809458Y-136845215D01*
X94820306Y-136721232D01*
X94821572Y-136711309D01*
X94824765Y-136692333D01*
X94824765Y-136692328D01*
X94825571Y-136687540D01*
X94825724Y-136675001D01*
X94821773Y-136647413D01*
X94820500Y-136629550D01*
X94820500Y-130762001D01*
X96849276Y-130762001D01*
X96849965Y-130766808D01*
X96849965Y-130766815D01*
X96852315Y-130783220D01*
X96853109Y-130790102D01*
X96866023Y-130937707D01*
X96911672Y-131108073D01*
X96986213Y-131267925D01*
X97087378Y-131412404D01*
X97212096Y-131537122D01*
X97356575Y-131638287D01*
X97361553Y-131640608D01*
X97361556Y-131640610D01*
X97511445Y-131710505D01*
X97516427Y-131712828D01*
X97521735Y-131714250D01*
X97521737Y-131714251D01*
X97681478Y-131757053D01*
X97681479Y-131757053D01*
X97686793Y-131758477D01*
X97692279Y-131758957D01*
X97692285Y-131758958D01*
X97816268Y-131769806D01*
X97826191Y-131771072D01*
X97845167Y-131774265D01*
X97845172Y-131774265D01*
X97849960Y-131775071D01*
X97856259Y-131775148D01*
X97857640Y-131775165D01*
X97857644Y-131775165D01*
X97862499Y-131775224D01*
X97890087Y-131771273D01*
X97907950Y-131770000D01*
X111809294Y-131770000D01*
X111830198Y-131771746D01*
X111849962Y-131775071D01*
X111856320Y-131775149D01*
X111857643Y-131775165D01*
X111857647Y-131775165D01*
X111862501Y-131775224D01*
X111867308Y-131774535D01*
X111867315Y-131774535D01*
X111883720Y-131772185D01*
X111890602Y-131771391D01*
X111924495Y-131768426D01*
X112038207Y-131758477D01*
X112043521Y-131757053D01*
X112043522Y-131757053D01*
X112203263Y-131714251D01*
X112203265Y-131714250D01*
X112208573Y-131712828D01*
X112213555Y-131710505D01*
X112363444Y-131640610D01*
X112363447Y-131640608D01*
X112368425Y-131638287D01*
X112512904Y-131537122D01*
X112637622Y-131412404D01*
X112738787Y-131267925D01*
X112813328Y-131108073D01*
X112858977Y-130937707D01*
X112859458Y-130932215D01*
X112870306Y-130808232D01*
X112871572Y-130798309D01*
X112874765Y-130779333D01*
X112874765Y-130779328D01*
X112875571Y-130774540D01*
X112875724Y-130762001D01*
X112871773Y-130734413D01*
X112870500Y-130716550D01*
X112870500Y-124815206D01*
X112872246Y-124794302D01*
X112874764Y-124779334D01*
X112875571Y-124774538D01*
X112875724Y-124761999D01*
X112875035Y-124757192D01*
X112875035Y-124757185D01*
X112872685Y-124740780D01*
X112871891Y-124733898D01*
X112859456Y-124591773D01*
X112858977Y-124586293D01*
X112813328Y-124415927D01*
X112738787Y-124256075D01*
X112637622Y-124111596D01*
X112512904Y-123986878D01*
X112368425Y-123885713D01*
X112363447Y-123883392D01*
X112363444Y-123883390D01*
X112213555Y-123813495D01*
X112213553Y-123813494D01*
X112208573Y-123811172D01*
X112203265Y-123809750D01*
X112203263Y-123809749D01*
X112043522Y-123766947D01*
X112043521Y-123766947D01*
X112038207Y-123765523D01*
X112032721Y-123765043D01*
X112032715Y-123765042D01*
X111908732Y-123754194D01*
X111898809Y-123752928D01*
X111879833Y-123749735D01*
X111879828Y-123749735D01*
X111875040Y-123748929D01*
X111868741Y-123748852D01*
X111867360Y-123748835D01*
X111867356Y-123748835D01*
X111862501Y-123748776D01*
X111838216Y-123752254D01*
X111834913Y-123752727D01*
X111817050Y-123754000D01*
X97915706Y-123754000D01*
X97894802Y-123752254D01*
X97891636Y-123751721D01*
X97875038Y-123748929D01*
X97868680Y-123748851D01*
X97867357Y-123748835D01*
X97867353Y-123748835D01*
X97862499Y-123748776D01*
X97857692Y-123749465D01*
X97857685Y-123749465D01*
X97841280Y-123751815D01*
X97834398Y-123752609D01*
X97800505Y-123755574D01*
X97686793Y-123765523D01*
X97681479Y-123766947D01*
X97681478Y-123766947D01*
X97521737Y-123809749D01*
X97521735Y-123809750D01*
X97516427Y-123811172D01*
X97511447Y-123813494D01*
X97511445Y-123813495D01*
X97361556Y-123883390D01*
X97361553Y-123883392D01*
X97356575Y-123885713D01*
X97212096Y-123986878D01*
X97087378Y-124111596D01*
X96986213Y-124256075D01*
X96911672Y-124415927D01*
X96866023Y-124586293D01*
X96865544Y-124591773D01*
X96865542Y-124591785D01*
X96854694Y-124715768D01*
X96853428Y-124725691D01*
X96849429Y-124749460D01*
X96849276Y-124761999D01*
X96851065Y-124774491D01*
X96853227Y-124789587D01*
X96854500Y-124807450D01*
X96854500Y-130708794D01*
X96852754Y-130729698D01*
X96849429Y-130749462D01*
X96849276Y-130762001D01*
X94820500Y-130762001D01*
X94820500Y-123728206D01*
X94822246Y-123707302D01*
X94824764Y-123692334D01*
X94825571Y-123687538D01*
X94825724Y-123674999D01*
X94825035Y-123670192D01*
X94825035Y-123670185D01*
X94822685Y-123653780D01*
X94821891Y-123646898D01*
X94809456Y-123504773D01*
X94808977Y-123499293D01*
X94763328Y-123328927D01*
X94688787Y-123169075D01*
X94587622Y-123024596D01*
X94462904Y-122899878D01*
X94318425Y-122798713D01*
X94313447Y-122796392D01*
X94313444Y-122796390D01*
X94163555Y-122726495D01*
X94163553Y-122726494D01*
X94158573Y-122724172D01*
X94153265Y-122722750D01*
X94153263Y-122722749D01*
X93993522Y-122679947D01*
X93993521Y-122679947D01*
X93988207Y-122678523D01*
X93982721Y-122678043D01*
X93982715Y-122678042D01*
X93858732Y-122667194D01*
X93848809Y-122665928D01*
X93829833Y-122662735D01*
X93829828Y-122662735D01*
X93825040Y-122661929D01*
X93818741Y-122661852D01*
X93817360Y-122661835D01*
X93817356Y-122661835D01*
X93812501Y-122661776D01*
X93788216Y-122665254D01*
X93784913Y-122665727D01*
X93767050Y-122667000D01*
X80865706Y-122667000D01*
X80844802Y-122665254D01*
X80841636Y-122664721D01*
X80825038Y-122661929D01*
X80818680Y-122661851D01*
X80817357Y-122661835D01*
X80817353Y-122661835D01*
X80812499Y-122661776D01*
X80807692Y-122662465D01*
X80807685Y-122662465D01*
X80791280Y-122664815D01*
X80784398Y-122665609D01*
X80750505Y-122668574D01*
X80636793Y-122678523D01*
X80631479Y-122679947D01*
X80631478Y-122679947D01*
X80471737Y-122722749D01*
X80471735Y-122722750D01*
X80466427Y-122724172D01*
X80461447Y-122726494D01*
X80461445Y-122726495D01*
X80311556Y-122796390D01*
X80311553Y-122796392D01*
X80306575Y-122798713D01*
X80162096Y-122899878D01*
X80037378Y-123024596D01*
X79936213Y-123169075D01*
X79861672Y-123328927D01*
X79816023Y-123499293D01*
X79815544Y-123504773D01*
X79815542Y-123504785D01*
X79804694Y-123628768D01*
X79803428Y-123638691D01*
X79799429Y-123662460D01*
X79799276Y-123674999D01*
X79801065Y-123687491D01*
X79803227Y-123702587D01*
X79804500Y-123720450D01*
X79804500Y-136621794D01*
X79802754Y-136642698D01*
X79799429Y-136662462D01*
X79799276Y-136675001D01*
X75775724Y-136675001D01*
X75771773Y-136647413D01*
X75770500Y-136629550D01*
X75770500Y-123728206D01*
X75772246Y-123707302D01*
X75774764Y-123692334D01*
X75775571Y-123687538D01*
X75775724Y-123674999D01*
X75775035Y-123670192D01*
X75775035Y-123670185D01*
X75772685Y-123653780D01*
X75771891Y-123646898D01*
X75759456Y-123504773D01*
X75758977Y-123499293D01*
X75713328Y-123328927D01*
X75638787Y-123169075D01*
X75537622Y-123024596D01*
X75412904Y-122899878D01*
X75268425Y-122798713D01*
X75263447Y-122796392D01*
X75263444Y-122796390D01*
X75113555Y-122726495D01*
X75113553Y-122726494D01*
X75108573Y-122724172D01*
X75103265Y-122722750D01*
X75103263Y-122722749D01*
X74943522Y-122679947D01*
X74943521Y-122679947D01*
X74938207Y-122678523D01*
X74932721Y-122678043D01*
X74932715Y-122678042D01*
X74808732Y-122667194D01*
X74798809Y-122665928D01*
X74779833Y-122662735D01*
X74779828Y-122662735D01*
X74775040Y-122661929D01*
X74768741Y-122661852D01*
X74767360Y-122661835D01*
X74767356Y-122661835D01*
X74762501Y-122661776D01*
X74738216Y-122665254D01*
X74734913Y-122665727D01*
X74717050Y-122667000D01*
X61815706Y-122667000D01*
X61794802Y-122665254D01*
X61791636Y-122664721D01*
X61775038Y-122661929D01*
X61768680Y-122661851D01*
X61767357Y-122661835D01*
X61767353Y-122661835D01*
X61762499Y-122661776D01*
X61757692Y-122662465D01*
X61757685Y-122662465D01*
X61741280Y-122664815D01*
X61734398Y-122665609D01*
X61700505Y-122668574D01*
X61586793Y-122678523D01*
X61581479Y-122679947D01*
X61581478Y-122679947D01*
X61421737Y-122722749D01*
X61421735Y-122722750D01*
X61416427Y-122724172D01*
X61411447Y-122726494D01*
X61411445Y-122726495D01*
X61261556Y-122796390D01*
X61261553Y-122796392D01*
X61256575Y-122798713D01*
X61112096Y-122899878D01*
X60987378Y-123024596D01*
X60886213Y-123169075D01*
X60811672Y-123328927D01*
X60766023Y-123499293D01*
X60765544Y-123504773D01*
X60765542Y-123504785D01*
X60754694Y-123628768D01*
X60753428Y-123638691D01*
X60749429Y-123662460D01*
X60749276Y-123674999D01*
X60751065Y-123687491D01*
X60753227Y-123702587D01*
X60754500Y-123720450D01*
X60754500Y-136621794D01*
X60752754Y-136642698D01*
X60749429Y-136662462D01*
X60749276Y-136675001D01*
X56725724Y-136675001D01*
X56721773Y-136647413D01*
X56720500Y-136629550D01*
X56720500Y-123728206D01*
X56722246Y-123707302D01*
X56724764Y-123692334D01*
X56725571Y-123687538D01*
X56725724Y-123674999D01*
X56725035Y-123670192D01*
X56725035Y-123670185D01*
X56722685Y-123653780D01*
X56721891Y-123646898D01*
X56709456Y-123504773D01*
X56708977Y-123499293D01*
X56663328Y-123328927D01*
X56588787Y-123169075D01*
X56487622Y-123024596D01*
X56362904Y-122899878D01*
X56218425Y-122798713D01*
X56213447Y-122796392D01*
X56213444Y-122796390D01*
X56063555Y-122726495D01*
X56063553Y-122726494D01*
X56058573Y-122724172D01*
X56053265Y-122722750D01*
X56053263Y-122722749D01*
X55893522Y-122679947D01*
X55893521Y-122679947D01*
X55888207Y-122678523D01*
X55882721Y-122678043D01*
X55882715Y-122678042D01*
X55758732Y-122667194D01*
X55748809Y-122665928D01*
X55729833Y-122662735D01*
X55729828Y-122662735D01*
X55725040Y-122661929D01*
X55718741Y-122661852D01*
X55717360Y-122661835D01*
X55717356Y-122661835D01*
X55712501Y-122661776D01*
X55688216Y-122665254D01*
X55684913Y-122665727D01*
X55667050Y-122667000D01*
X42765706Y-122667000D01*
X42744802Y-122665254D01*
X42741636Y-122664721D01*
X42725038Y-122661929D01*
X42718680Y-122661851D01*
X42717357Y-122661835D01*
X42717353Y-122661835D01*
X42712499Y-122661776D01*
X42707692Y-122662465D01*
X42707685Y-122662465D01*
X42691280Y-122664815D01*
X42684398Y-122665609D01*
X42650505Y-122668574D01*
X42536793Y-122678523D01*
X42531479Y-122679947D01*
X42531478Y-122679947D01*
X42371737Y-122722749D01*
X42371735Y-122722750D01*
X42366427Y-122724172D01*
X42361447Y-122726494D01*
X42361445Y-122726495D01*
X42211556Y-122796390D01*
X42211553Y-122796392D01*
X42206575Y-122798713D01*
X42062096Y-122899878D01*
X41937378Y-123024596D01*
X41836213Y-123169075D01*
X41761672Y-123328927D01*
X41716023Y-123499293D01*
X41715544Y-123504773D01*
X41715542Y-123504785D01*
X41704694Y-123628768D01*
X41703428Y-123638691D01*
X41699429Y-123662460D01*
X41699276Y-123674999D01*
X41701065Y-123687491D01*
X41703227Y-123702587D01*
X41704500Y-123720450D01*
X41704500Y-136621794D01*
X41702754Y-136642698D01*
X41699429Y-136662462D01*
X41699276Y-136675001D01*
X38925499Y-136675001D01*
X38925499Y-120807821D01*
X56229000Y-120807821D01*
X56268560Y-121120975D01*
X56347057Y-121426702D01*
X56463253Y-121720179D01*
X56615316Y-121996779D01*
X56800846Y-122252140D01*
X57016918Y-122482233D01*
X57260125Y-122683432D01*
X57526631Y-122852562D01*
X57530210Y-122854246D01*
X57530217Y-122854250D01*
X57808644Y-122985267D01*
X57808648Y-122985269D01*
X57812234Y-122986956D01*
X58112428Y-123084495D01*
X58422480Y-123143641D01*
X58658662Y-123158500D01*
X58816338Y-123158500D01*
X59052520Y-123143641D01*
X59362572Y-123084495D01*
X59662766Y-122986956D01*
X59666352Y-122985269D01*
X59666356Y-122985267D01*
X59944783Y-122854250D01*
X59944790Y-122854246D01*
X59948369Y-122852562D01*
X60214875Y-122683432D01*
X60458082Y-122482233D01*
X60674154Y-122252140D01*
X60859684Y-121996779D01*
X61011747Y-121720179D01*
X61127943Y-121426702D01*
X61206440Y-121120975D01*
X61246000Y-120807821D01*
X94329000Y-120807821D01*
X94368560Y-121120975D01*
X94447057Y-121426702D01*
X94563253Y-121720179D01*
X94715316Y-121996779D01*
X94900846Y-122252140D01*
X95116918Y-122482233D01*
X95360125Y-122683432D01*
X95626631Y-122852562D01*
X95630210Y-122854246D01*
X95630217Y-122854250D01*
X95908644Y-122985267D01*
X95908648Y-122985269D01*
X95912234Y-122986956D01*
X96212428Y-123084495D01*
X96522480Y-123143641D01*
X96758662Y-123158500D01*
X96916338Y-123158500D01*
X97152520Y-123143641D01*
X97462572Y-123084495D01*
X97762766Y-122986956D01*
X97766352Y-122985269D01*
X97766356Y-122985267D01*
X98044783Y-122854250D01*
X98044790Y-122854246D01*
X98048369Y-122852562D01*
X98314875Y-122683432D01*
X98558082Y-122482233D01*
X98774154Y-122252140D01*
X98959684Y-121996779D01*
X99111747Y-121720179D01*
X99227943Y-121426702D01*
X99306440Y-121120975D01*
X99346000Y-120807821D01*
X99346000Y-120492179D01*
X99306440Y-120179025D01*
X99227943Y-119873298D01*
X99111747Y-119579821D01*
X98959684Y-119303221D01*
X98774154Y-119047860D01*
X98558082Y-118817767D01*
X98314875Y-118616568D01*
X98048369Y-118447438D01*
X98044790Y-118445754D01*
X98044783Y-118445750D01*
X97766356Y-118314733D01*
X97766352Y-118314731D01*
X97762766Y-118313044D01*
X97462572Y-118215505D01*
X97152520Y-118156359D01*
X96916338Y-118141500D01*
X96758662Y-118141500D01*
X96522480Y-118156359D01*
X96212428Y-118215505D01*
X95912234Y-118313044D01*
X95908648Y-118314731D01*
X95908644Y-118314733D01*
X95630217Y-118445750D01*
X95630210Y-118445754D01*
X95626631Y-118447438D01*
X95360125Y-118616568D01*
X95116918Y-118817767D01*
X94900846Y-119047860D01*
X94715316Y-119303221D01*
X94563253Y-119579821D01*
X94447057Y-119873298D01*
X94368560Y-120179025D01*
X94329000Y-120492179D01*
X94329000Y-120807821D01*
X61246000Y-120807821D01*
X61246000Y-120492179D01*
X61206440Y-120179025D01*
X61127943Y-119873298D01*
X61011747Y-119579821D01*
X60859684Y-119303221D01*
X60674154Y-119047860D01*
X60458082Y-118817767D01*
X60214875Y-118616568D01*
X59948369Y-118447438D01*
X59944790Y-118445754D01*
X59944783Y-118445750D01*
X59666356Y-118314733D01*
X59666352Y-118314731D01*
X59662766Y-118313044D01*
X59362572Y-118215505D01*
X59052520Y-118156359D01*
X58816338Y-118141500D01*
X58658662Y-118141500D01*
X58422480Y-118156359D01*
X58112428Y-118215505D01*
X57812234Y-118313044D01*
X57808648Y-118314731D01*
X57808644Y-118314733D01*
X57530217Y-118445750D01*
X57530210Y-118445754D01*
X57526631Y-118447438D01*
X57260125Y-118616568D01*
X57016918Y-118817767D01*
X56800846Y-119047860D01*
X56615316Y-119303221D01*
X56463253Y-119579821D01*
X56347057Y-119873298D01*
X56268560Y-120179025D01*
X56229000Y-120492179D01*
X56229000Y-120807821D01*
X38925499Y-120807821D01*
X38925499Y-117625001D01*
X41699276Y-117625001D01*
X41699965Y-117629808D01*
X41699965Y-117629815D01*
X41702315Y-117646220D01*
X41703109Y-117653102D01*
X41716023Y-117800707D01*
X41761672Y-117971073D01*
X41836213Y-118130925D01*
X41937378Y-118275404D01*
X42062096Y-118400122D01*
X42206575Y-118501287D01*
X42211553Y-118503608D01*
X42211556Y-118503610D01*
X42361445Y-118573505D01*
X42366427Y-118575828D01*
X42371735Y-118577250D01*
X42371737Y-118577251D01*
X42531478Y-118620053D01*
X42531479Y-118620053D01*
X42536793Y-118621477D01*
X42542279Y-118621957D01*
X42542285Y-118621958D01*
X42666268Y-118632806D01*
X42676191Y-118634072D01*
X42695167Y-118637265D01*
X42695172Y-118637265D01*
X42699960Y-118638071D01*
X42706259Y-118638148D01*
X42707640Y-118638165D01*
X42707644Y-118638165D01*
X42712499Y-118638224D01*
X42740087Y-118634273D01*
X42757950Y-118633000D01*
X55659294Y-118633000D01*
X55680198Y-118634746D01*
X55699962Y-118638071D01*
X55706320Y-118638149D01*
X55707643Y-118638165D01*
X55707647Y-118638165D01*
X55712501Y-118638224D01*
X55717308Y-118637535D01*
X55717315Y-118637535D01*
X55733720Y-118635185D01*
X55740602Y-118634391D01*
X55774495Y-118631426D01*
X55888207Y-118621477D01*
X55893521Y-118620053D01*
X55893522Y-118620053D01*
X56053263Y-118577251D01*
X56053265Y-118577250D01*
X56058573Y-118575828D01*
X56063555Y-118573505D01*
X56213444Y-118503610D01*
X56213447Y-118503608D01*
X56218425Y-118501287D01*
X56362904Y-118400122D01*
X56487622Y-118275404D01*
X56588787Y-118130925D01*
X56663328Y-117971073D01*
X56708977Y-117800707D01*
X56709458Y-117795215D01*
X56720306Y-117671232D01*
X56721572Y-117661309D01*
X56724765Y-117642333D01*
X56724765Y-117642328D01*
X56725571Y-117637540D01*
X56725724Y-117625001D01*
X60749276Y-117625001D01*
X60749965Y-117629808D01*
X60749965Y-117629815D01*
X60752315Y-117646220D01*
X60753109Y-117653102D01*
X60766023Y-117800707D01*
X60811672Y-117971073D01*
X60886213Y-118130925D01*
X60987378Y-118275404D01*
X61112096Y-118400122D01*
X61256575Y-118501287D01*
X61261553Y-118503608D01*
X61261556Y-118503610D01*
X61411445Y-118573505D01*
X61416427Y-118575828D01*
X61421735Y-118577250D01*
X61421737Y-118577251D01*
X61581478Y-118620053D01*
X61581479Y-118620053D01*
X61586793Y-118621477D01*
X61592279Y-118621957D01*
X61592285Y-118621958D01*
X61716268Y-118632806D01*
X61726191Y-118634072D01*
X61745167Y-118637265D01*
X61745172Y-118637265D01*
X61749960Y-118638071D01*
X61756259Y-118638148D01*
X61757640Y-118638165D01*
X61757644Y-118638165D01*
X61762499Y-118638224D01*
X61790087Y-118634273D01*
X61807950Y-118633000D01*
X74709294Y-118633000D01*
X74730198Y-118634746D01*
X74749962Y-118638071D01*
X74756320Y-118638149D01*
X74757643Y-118638165D01*
X74757647Y-118638165D01*
X74762501Y-118638224D01*
X74767308Y-118637535D01*
X74767315Y-118637535D01*
X74783720Y-118635185D01*
X74790602Y-118634391D01*
X74824495Y-118631426D01*
X74938207Y-118621477D01*
X74943521Y-118620053D01*
X74943522Y-118620053D01*
X75103263Y-118577251D01*
X75103265Y-118577250D01*
X75108573Y-118575828D01*
X75113555Y-118573505D01*
X75263444Y-118503610D01*
X75263447Y-118503608D01*
X75268425Y-118501287D01*
X75412904Y-118400122D01*
X75537622Y-118275404D01*
X75638787Y-118130925D01*
X75713328Y-117971073D01*
X75758977Y-117800707D01*
X75759458Y-117795215D01*
X75770306Y-117671232D01*
X75771572Y-117661309D01*
X75774765Y-117642333D01*
X75774765Y-117642328D01*
X75775571Y-117637540D01*
X75775724Y-117625001D01*
X79799276Y-117625001D01*
X79799965Y-117629808D01*
X79799965Y-117629815D01*
X79802315Y-117646220D01*
X79803109Y-117653102D01*
X79816023Y-117800707D01*
X79861672Y-117971073D01*
X79936213Y-118130925D01*
X80037378Y-118275404D01*
X80162096Y-118400122D01*
X80306575Y-118501287D01*
X80311553Y-118503608D01*
X80311556Y-118503610D01*
X80461445Y-118573505D01*
X80466427Y-118575828D01*
X80471735Y-118577250D01*
X80471737Y-118577251D01*
X80631478Y-118620053D01*
X80631479Y-118620053D01*
X80636793Y-118621477D01*
X80642279Y-118621957D01*
X80642285Y-118621958D01*
X80766268Y-118632806D01*
X80776191Y-118634072D01*
X80795167Y-118637265D01*
X80795172Y-118637265D01*
X80799960Y-118638071D01*
X80806259Y-118638148D01*
X80807640Y-118638165D01*
X80807644Y-118638165D01*
X80812499Y-118638224D01*
X80840087Y-118634273D01*
X80857950Y-118633000D01*
X93759294Y-118633000D01*
X93780198Y-118634746D01*
X93799962Y-118638071D01*
X93806320Y-118638149D01*
X93807643Y-118638165D01*
X93807647Y-118638165D01*
X93812501Y-118638224D01*
X93817308Y-118637535D01*
X93817315Y-118637535D01*
X93833720Y-118635185D01*
X93840602Y-118634391D01*
X93874495Y-118631426D01*
X93988207Y-118621477D01*
X93993521Y-118620053D01*
X93993522Y-118620053D01*
X94153263Y-118577251D01*
X94153265Y-118577250D01*
X94158573Y-118575828D01*
X94163555Y-118573505D01*
X94313444Y-118503610D01*
X94313447Y-118503608D01*
X94318425Y-118501287D01*
X94462904Y-118400122D01*
X94587622Y-118275404D01*
X94688787Y-118130925D01*
X94763328Y-117971073D01*
X94808977Y-117800707D01*
X94809458Y-117795215D01*
X94820306Y-117671232D01*
X94821572Y-117661309D01*
X94824765Y-117642333D01*
X94824765Y-117642328D01*
X94825571Y-117637540D01*
X94825724Y-117625001D01*
X94821773Y-117597413D01*
X94820500Y-117579550D01*
X94820500Y-116538001D01*
X96849276Y-116538001D01*
X96849965Y-116542808D01*
X96849965Y-116542815D01*
X96852315Y-116559220D01*
X96853109Y-116566102D01*
X96866023Y-116713707D01*
X96911672Y-116884073D01*
X96986213Y-117043925D01*
X97087378Y-117188404D01*
X97212096Y-117313122D01*
X97356575Y-117414287D01*
X97361553Y-117416608D01*
X97361556Y-117416610D01*
X97511445Y-117486505D01*
X97516427Y-117488828D01*
X97521735Y-117490250D01*
X97521737Y-117490251D01*
X97681478Y-117533053D01*
X97681479Y-117533053D01*
X97686793Y-117534477D01*
X97692279Y-117534957D01*
X97692285Y-117534958D01*
X97816268Y-117545806D01*
X97826191Y-117547072D01*
X97845167Y-117550265D01*
X97845172Y-117550265D01*
X97849960Y-117551071D01*
X97856259Y-117551148D01*
X97857640Y-117551165D01*
X97857644Y-117551165D01*
X97862499Y-117551224D01*
X97890087Y-117547273D01*
X97907950Y-117546000D01*
X111809294Y-117546000D01*
X111830198Y-117547746D01*
X111849962Y-117551071D01*
X111856320Y-117551149D01*
X111857643Y-117551165D01*
X111857647Y-117551165D01*
X111862501Y-117551224D01*
X111867308Y-117550535D01*
X111867315Y-117550535D01*
X111883720Y-117548185D01*
X111890602Y-117547391D01*
X111924495Y-117544426D01*
X112038207Y-117534477D01*
X112043521Y-117533053D01*
X112043522Y-117533053D01*
X112203263Y-117490251D01*
X112203265Y-117490250D01*
X112208573Y-117488828D01*
X112213555Y-117486505D01*
X112363444Y-117416610D01*
X112363447Y-117416608D01*
X112368425Y-117414287D01*
X112512904Y-117313122D01*
X112637622Y-117188404D01*
X112738787Y-117043925D01*
X112813328Y-116884073D01*
X112858977Y-116713707D01*
X112859458Y-116708215D01*
X112870306Y-116584232D01*
X112871572Y-116574309D01*
X112874765Y-116555333D01*
X112874765Y-116555328D01*
X112875571Y-116550540D01*
X112875724Y-116538001D01*
X112871773Y-116510413D01*
X112870500Y-116492550D01*
X112870500Y-110591206D01*
X112872246Y-110570302D01*
X112874764Y-110555334D01*
X112875571Y-110550538D01*
X112875724Y-110537999D01*
X112875035Y-110533192D01*
X112875035Y-110533185D01*
X112872685Y-110516780D01*
X112871891Y-110509898D01*
X112859456Y-110367773D01*
X112858977Y-110362293D01*
X112813328Y-110191927D01*
X112738787Y-110032075D01*
X112637622Y-109887596D01*
X112512904Y-109762878D01*
X112368425Y-109661713D01*
X112363447Y-109659392D01*
X112363444Y-109659390D01*
X112213555Y-109589495D01*
X112213553Y-109589494D01*
X112208573Y-109587172D01*
X112203265Y-109585750D01*
X112203263Y-109585749D01*
X112043522Y-109542947D01*
X112043521Y-109542947D01*
X112038207Y-109541523D01*
X112032721Y-109541043D01*
X112032715Y-109541042D01*
X111908732Y-109530194D01*
X111898809Y-109528928D01*
X111879833Y-109525735D01*
X111879828Y-109525735D01*
X111875040Y-109524929D01*
X111868741Y-109524852D01*
X111867360Y-109524835D01*
X111867356Y-109524835D01*
X111862501Y-109524776D01*
X111838216Y-109528254D01*
X111834913Y-109528727D01*
X111817050Y-109530000D01*
X97915706Y-109530000D01*
X97894802Y-109528254D01*
X97891636Y-109527721D01*
X97875038Y-109524929D01*
X97868680Y-109524851D01*
X97867357Y-109524835D01*
X97867353Y-109524835D01*
X97862499Y-109524776D01*
X97857692Y-109525465D01*
X97857685Y-109525465D01*
X97841280Y-109527815D01*
X97834398Y-109528609D01*
X97800505Y-109531574D01*
X97686793Y-109541523D01*
X97681479Y-109542947D01*
X97681478Y-109542947D01*
X97521737Y-109585749D01*
X97521735Y-109585750D01*
X97516427Y-109587172D01*
X97511447Y-109589494D01*
X97511445Y-109589495D01*
X97361556Y-109659390D01*
X97361553Y-109659392D01*
X97356575Y-109661713D01*
X97212096Y-109762878D01*
X97087378Y-109887596D01*
X96986213Y-110032075D01*
X96911672Y-110191927D01*
X96866023Y-110362293D01*
X96865544Y-110367773D01*
X96865542Y-110367785D01*
X96854694Y-110491768D01*
X96853428Y-110501691D01*
X96849429Y-110525460D01*
X96849276Y-110537999D01*
X96851065Y-110550491D01*
X96853227Y-110565587D01*
X96854500Y-110583450D01*
X96854500Y-116484794D01*
X96852754Y-116505698D01*
X96849429Y-116525462D01*
X96849276Y-116538001D01*
X94820500Y-116538001D01*
X94820500Y-108100001D01*
X98849276Y-108100001D01*
X98849965Y-108104808D01*
X98849965Y-108104815D01*
X98852315Y-108121220D01*
X98853109Y-108128102D01*
X98866023Y-108275707D01*
X98911672Y-108446073D01*
X98986213Y-108605925D01*
X99087378Y-108750404D01*
X99212096Y-108875122D01*
X99356575Y-108976287D01*
X99361553Y-108978608D01*
X99361556Y-108978610D01*
X99511445Y-109048505D01*
X99516427Y-109050828D01*
X99521735Y-109052250D01*
X99521737Y-109052251D01*
X99681478Y-109095053D01*
X99681479Y-109095053D01*
X99686793Y-109096477D01*
X99692279Y-109096957D01*
X99692285Y-109096958D01*
X99816268Y-109107806D01*
X99826191Y-109109072D01*
X99845167Y-109112265D01*
X99845172Y-109112265D01*
X99849960Y-109113071D01*
X99856259Y-109113148D01*
X99857640Y-109113165D01*
X99857644Y-109113165D01*
X99862499Y-109113224D01*
X99890087Y-109109273D01*
X99907950Y-109108000D01*
X112809294Y-109108000D01*
X112830198Y-109109746D01*
X112849962Y-109113071D01*
X112856320Y-109113149D01*
X112857643Y-109113165D01*
X112857647Y-109113165D01*
X112862501Y-109113224D01*
X112867308Y-109112535D01*
X112867315Y-109112535D01*
X112883720Y-109110185D01*
X112890602Y-109109391D01*
X112924495Y-109106426D01*
X113038207Y-109096477D01*
X113043521Y-109095053D01*
X113043522Y-109095053D01*
X113203263Y-109052251D01*
X113203265Y-109052250D01*
X113208573Y-109050828D01*
X113213555Y-109048505D01*
X113363444Y-108978610D01*
X113363447Y-108978608D01*
X113368425Y-108976287D01*
X113512904Y-108875122D01*
X113637622Y-108750404D01*
X113738787Y-108605925D01*
X113813328Y-108446073D01*
X113858977Y-108275707D01*
X113859458Y-108270215D01*
X113870306Y-108146232D01*
X113871572Y-108136309D01*
X113874765Y-108117333D01*
X113874765Y-108117328D01*
X113875571Y-108112540D01*
X113875724Y-108100001D01*
X113871773Y-108072413D01*
X113870500Y-108054550D01*
X113870500Y-95153206D01*
X113872246Y-95132302D01*
X113874764Y-95117334D01*
X113875571Y-95112538D01*
X113875724Y-95099999D01*
X113875035Y-95095192D01*
X113875035Y-95095185D01*
X113872685Y-95078780D01*
X113871891Y-95071898D01*
X113859456Y-94929773D01*
X113858977Y-94924293D01*
X113813328Y-94753927D01*
X113738787Y-94594075D01*
X113637622Y-94449596D01*
X113512904Y-94324878D01*
X113368425Y-94223713D01*
X113363447Y-94221392D01*
X113363444Y-94221390D01*
X113213555Y-94151495D01*
X113213553Y-94151494D01*
X113208573Y-94149172D01*
X113203265Y-94147750D01*
X113203263Y-94147749D01*
X113043522Y-94104947D01*
X113043521Y-94104947D01*
X113038207Y-94103523D01*
X113032721Y-94103043D01*
X113032715Y-94103042D01*
X112908732Y-94092194D01*
X112898809Y-94090928D01*
X112879833Y-94087735D01*
X112879828Y-94087735D01*
X112875040Y-94086929D01*
X112868741Y-94086852D01*
X112867360Y-94086835D01*
X112867356Y-94086835D01*
X112862501Y-94086776D01*
X112838216Y-94090254D01*
X112834913Y-94090727D01*
X112817050Y-94092000D01*
X99915706Y-94092000D01*
X99894802Y-94090254D01*
X99891636Y-94089721D01*
X99875038Y-94086929D01*
X99868680Y-94086851D01*
X99867357Y-94086835D01*
X99867353Y-94086835D01*
X99862499Y-94086776D01*
X99857692Y-94087465D01*
X99857685Y-94087465D01*
X99841280Y-94089815D01*
X99834398Y-94090609D01*
X99800505Y-94093574D01*
X99686793Y-94103523D01*
X99681479Y-94104947D01*
X99681478Y-94104947D01*
X99521737Y-94147749D01*
X99521735Y-94147750D01*
X99516427Y-94149172D01*
X99511447Y-94151494D01*
X99511445Y-94151495D01*
X99361556Y-94221390D01*
X99361553Y-94221392D01*
X99356575Y-94223713D01*
X99212096Y-94324878D01*
X99087378Y-94449596D01*
X98986213Y-94594075D01*
X98911672Y-94753927D01*
X98866023Y-94924293D01*
X98865544Y-94929773D01*
X98865542Y-94929785D01*
X98854694Y-95053768D01*
X98853428Y-95063691D01*
X98849429Y-95087460D01*
X98849276Y-95099999D01*
X98851065Y-95112491D01*
X98853227Y-95127587D01*
X98854500Y-95145450D01*
X98854500Y-108046794D01*
X98852754Y-108067698D01*
X98849429Y-108087462D01*
X98849276Y-108100001D01*
X94820500Y-108100001D01*
X94820500Y-104678206D01*
X94822246Y-104657302D01*
X94824764Y-104642334D01*
X94825571Y-104637538D01*
X94825724Y-104624999D01*
X94825035Y-104620192D01*
X94825035Y-104620185D01*
X94822685Y-104603780D01*
X94821891Y-104596898D01*
X94809456Y-104454773D01*
X94808977Y-104449293D01*
X94763328Y-104278927D01*
X94688787Y-104119075D01*
X94587622Y-103974596D01*
X94462904Y-103849878D01*
X94318425Y-103748713D01*
X94313447Y-103746392D01*
X94313444Y-103746390D01*
X94163555Y-103676495D01*
X94163553Y-103676494D01*
X94158573Y-103674172D01*
X94153265Y-103672750D01*
X94153263Y-103672749D01*
X93993522Y-103629947D01*
X93993521Y-103629947D01*
X93988207Y-103628523D01*
X93982721Y-103628043D01*
X93982715Y-103628042D01*
X93858732Y-103617194D01*
X93848809Y-103615928D01*
X93829833Y-103612735D01*
X93829828Y-103612735D01*
X93825040Y-103611929D01*
X93818741Y-103611852D01*
X93817360Y-103611835D01*
X93817356Y-103611835D01*
X93812501Y-103611776D01*
X93788216Y-103615254D01*
X93784913Y-103615727D01*
X93767050Y-103617000D01*
X80865706Y-103617000D01*
X80844802Y-103615254D01*
X80841636Y-103614721D01*
X80825038Y-103611929D01*
X80818680Y-103611851D01*
X80817357Y-103611835D01*
X80817353Y-103611835D01*
X80812499Y-103611776D01*
X80807692Y-103612465D01*
X80807685Y-103612465D01*
X80791280Y-103614815D01*
X80784398Y-103615609D01*
X80750505Y-103618574D01*
X80636793Y-103628523D01*
X80631479Y-103629947D01*
X80631478Y-103629947D01*
X80471737Y-103672749D01*
X80471735Y-103672750D01*
X80466427Y-103674172D01*
X80461447Y-103676494D01*
X80461445Y-103676495D01*
X80311556Y-103746390D01*
X80311553Y-103746392D01*
X80306575Y-103748713D01*
X80162096Y-103849878D01*
X80037378Y-103974596D01*
X79936213Y-104119075D01*
X79861672Y-104278927D01*
X79816023Y-104449293D01*
X79815544Y-104454773D01*
X79815542Y-104454785D01*
X79804694Y-104578768D01*
X79803428Y-104588691D01*
X79799429Y-104612460D01*
X79799276Y-104624999D01*
X79801065Y-104637491D01*
X79803227Y-104652587D01*
X79804500Y-104670450D01*
X79804500Y-117571794D01*
X79802754Y-117592698D01*
X79799429Y-117612462D01*
X79799276Y-117625001D01*
X75775724Y-117625001D01*
X75771773Y-117597413D01*
X75770500Y-117579550D01*
X75770500Y-104678206D01*
X75772246Y-104657302D01*
X75774764Y-104642334D01*
X75775571Y-104637538D01*
X75775724Y-104624999D01*
X75775035Y-104620192D01*
X75775035Y-104620185D01*
X75772685Y-104603780D01*
X75771891Y-104596898D01*
X75759456Y-104454773D01*
X75758977Y-104449293D01*
X75713328Y-104278927D01*
X75638787Y-104119075D01*
X75537622Y-103974596D01*
X75412904Y-103849878D01*
X75268425Y-103748713D01*
X75263447Y-103746392D01*
X75263444Y-103746390D01*
X75113555Y-103676495D01*
X75113553Y-103676494D01*
X75108573Y-103674172D01*
X75103265Y-103672750D01*
X75103263Y-103672749D01*
X74943522Y-103629947D01*
X74943521Y-103629947D01*
X74938207Y-103628523D01*
X74932721Y-103628043D01*
X74932715Y-103628042D01*
X74808732Y-103617194D01*
X74798809Y-103615928D01*
X74779833Y-103612735D01*
X74779828Y-103612735D01*
X74775040Y-103611929D01*
X74768741Y-103611852D01*
X74767360Y-103611835D01*
X74767356Y-103611835D01*
X74762501Y-103611776D01*
X74738216Y-103615254D01*
X74734913Y-103615727D01*
X74717050Y-103617000D01*
X61815706Y-103617000D01*
X61794802Y-103615254D01*
X61791636Y-103614721D01*
X61775038Y-103611929D01*
X61768680Y-103611851D01*
X61767357Y-103611835D01*
X61767353Y-103611835D01*
X61762499Y-103611776D01*
X61757692Y-103612465D01*
X61757685Y-103612465D01*
X61741280Y-103614815D01*
X61734398Y-103615609D01*
X61700505Y-103618574D01*
X61586793Y-103628523D01*
X61581479Y-103629947D01*
X61581478Y-103629947D01*
X61421737Y-103672749D01*
X61421735Y-103672750D01*
X61416427Y-103674172D01*
X61411447Y-103676494D01*
X61411445Y-103676495D01*
X61261556Y-103746390D01*
X61261553Y-103746392D01*
X61256575Y-103748713D01*
X61112096Y-103849878D01*
X60987378Y-103974596D01*
X60886213Y-104119075D01*
X60811672Y-104278927D01*
X60766023Y-104449293D01*
X60765544Y-104454773D01*
X60765542Y-104454785D01*
X60754694Y-104578768D01*
X60753428Y-104588691D01*
X60749429Y-104612460D01*
X60749276Y-104624999D01*
X60751065Y-104637491D01*
X60753227Y-104652587D01*
X60754500Y-104670450D01*
X60754500Y-117571794D01*
X60752754Y-117592698D01*
X60749429Y-117612462D01*
X60749276Y-117625001D01*
X56725724Y-117625001D01*
X56721773Y-117597413D01*
X56720500Y-117579550D01*
X56720500Y-104678206D01*
X56722246Y-104657302D01*
X56724764Y-104642334D01*
X56725571Y-104637538D01*
X56725724Y-104624999D01*
X56725035Y-104620192D01*
X56725035Y-104620185D01*
X56722685Y-104603780D01*
X56721891Y-104596898D01*
X56709456Y-104454773D01*
X56708977Y-104449293D01*
X56663328Y-104278927D01*
X56588787Y-104119075D01*
X56487622Y-103974596D01*
X56362904Y-103849878D01*
X56218425Y-103748713D01*
X56213447Y-103746392D01*
X56213444Y-103746390D01*
X56063555Y-103676495D01*
X56063553Y-103676494D01*
X56058573Y-103674172D01*
X56053265Y-103672750D01*
X56053263Y-103672749D01*
X55893522Y-103629947D01*
X55893521Y-103629947D01*
X55888207Y-103628523D01*
X55882721Y-103628043D01*
X55882715Y-103628042D01*
X55758732Y-103617194D01*
X55748809Y-103615928D01*
X55729833Y-103612735D01*
X55729828Y-103612735D01*
X55725040Y-103611929D01*
X55718741Y-103611852D01*
X55717360Y-103611835D01*
X55717356Y-103611835D01*
X55712501Y-103611776D01*
X55688216Y-103615254D01*
X55684913Y-103615727D01*
X55667050Y-103617000D01*
X42765706Y-103617000D01*
X42744802Y-103615254D01*
X42741636Y-103614721D01*
X42725038Y-103611929D01*
X42718680Y-103611851D01*
X42717357Y-103611835D01*
X42717353Y-103611835D01*
X42712499Y-103611776D01*
X42707692Y-103612465D01*
X42707685Y-103612465D01*
X42691280Y-103614815D01*
X42684398Y-103615609D01*
X42650505Y-103618574D01*
X42536793Y-103628523D01*
X42531479Y-103629947D01*
X42531478Y-103629947D01*
X42371737Y-103672749D01*
X42371735Y-103672750D01*
X42366427Y-103674172D01*
X42361447Y-103676494D01*
X42361445Y-103676495D01*
X42211556Y-103746390D01*
X42211553Y-103746392D01*
X42206575Y-103748713D01*
X42062096Y-103849878D01*
X41937378Y-103974596D01*
X41836213Y-104119075D01*
X41761672Y-104278927D01*
X41716023Y-104449293D01*
X41715544Y-104454773D01*
X41715542Y-104454785D01*
X41704694Y-104578768D01*
X41703428Y-104588691D01*
X41699429Y-104612460D01*
X41699276Y-104624999D01*
X41701065Y-104637491D01*
X41703227Y-104652587D01*
X41704500Y-104670450D01*
X41704500Y-117571794D01*
X41702754Y-117592698D01*
X41699429Y-117612462D01*
X41699276Y-117625001D01*
X38925499Y-117625001D01*
X38925499Y-98575001D01*
X41699276Y-98575001D01*
X41699965Y-98579808D01*
X41699965Y-98579815D01*
X41702315Y-98596220D01*
X41703109Y-98603102D01*
X41716023Y-98750707D01*
X41761672Y-98921073D01*
X41836213Y-99080925D01*
X41937378Y-99225404D01*
X42062096Y-99350122D01*
X42206575Y-99451287D01*
X42211553Y-99453608D01*
X42211556Y-99453610D01*
X42361445Y-99523505D01*
X42366427Y-99525828D01*
X42371735Y-99527250D01*
X42371737Y-99527251D01*
X42531478Y-99570053D01*
X42531479Y-99570053D01*
X42536793Y-99571477D01*
X42542279Y-99571957D01*
X42542285Y-99571958D01*
X42666268Y-99582806D01*
X42676191Y-99584072D01*
X42695167Y-99587265D01*
X42695172Y-99587265D01*
X42699960Y-99588071D01*
X42706259Y-99588148D01*
X42707640Y-99588165D01*
X42707644Y-99588165D01*
X42712499Y-99588224D01*
X42740087Y-99584273D01*
X42757950Y-99583000D01*
X55659294Y-99583000D01*
X55680198Y-99584746D01*
X55699962Y-99588071D01*
X55706320Y-99588149D01*
X55707643Y-99588165D01*
X55707647Y-99588165D01*
X55712501Y-99588224D01*
X55717308Y-99587535D01*
X55717315Y-99587535D01*
X55733720Y-99585185D01*
X55740602Y-99584391D01*
X55774495Y-99581426D01*
X55888207Y-99571477D01*
X55893521Y-99570053D01*
X55893522Y-99570053D01*
X56053263Y-99527251D01*
X56053265Y-99527250D01*
X56058573Y-99525828D01*
X56063555Y-99523505D01*
X56213444Y-99453610D01*
X56213447Y-99453608D01*
X56218425Y-99451287D01*
X56362904Y-99350122D01*
X56487622Y-99225404D01*
X56588787Y-99080925D01*
X56663328Y-98921073D01*
X56708977Y-98750707D01*
X56709458Y-98745215D01*
X56720306Y-98621232D01*
X56721572Y-98611309D01*
X56724765Y-98592333D01*
X56724765Y-98592328D01*
X56725571Y-98587540D01*
X56725724Y-98575001D01*
X60749276Y-98575001D01*
X60749965Y-98579808D01*
X60749965Y-98579815D01*
X60752315Y-98596220D01*
X60753109Y-98603102D01*
X60766023Y-98750707D01*
X60811672Y-98921073D01*
X60886213Y-99080925D01*
X60987378Y-99225404D01*
X61112096Y-99350122D01*
X61256575Y-99451287D01*
X61261553Y-99453608D01*
X61261556Y-99453610D01*
X61411445Y-99523505D01*
X61416427Y-99525828D01*
X61421735Y-99527250D01*
X61421737Y-99527251D01*
X61581478Y-99570053D01*
X61581479Y-99570053D01*
X61586793Y-99571477D01*
X61592279Y-99571957D01*
X61592285Y-99571958D01*
X61716268Y-99582806D01*
X61726191Y-99584072D01*
X61745167Y-99587265D01*
X61745172Y-99587265D01*
X61749960Y-99588071D01*
X61756259Y-99588148D01*
X61757640Y-99588165D01*
X61757644Y-99588165D01*
X61762499Y-99588224D01*
X61790087Y-99584273D01*
X61807950Y-99583000D01*
X74709294Y-99583000D01*
X74730198Y-99584746D01*
X74749962Y-99588071D01*
X74756320Y-99588149D01*
X74757643Y-99588165D01*
X74757647Y-99588165D01*
X74762501Y-99588224D01*
X74767308Y-99587535D01*
X74767315Y-99587535D01*
X74783720Y-99585185D01*
X74790602Y-99584391D01*
X74824495Y-99581426D01*
X74938207Y-99571477D01*
X74943521Y-99570053D01*
X74943522Y-99570053D01*
X75103263Y-99527251D01*
X75103265Y-99527250D01*
X75108573Y-99525828D01*
X75113555Y-99523505D01*
X75263444Y-99453610D01*
X75263447Y-99453608D01*
X75268425Y-99451287D01*
X75412904Y-99350122D01*
X75537622Y-99225404D01*
X75638787Y-99080925D01*
X75713328Y-98921073D01*
X75758977Y-98750707D01*
X75759458Y-98745215D01*
X75770306Y-98621232D01*
X75771572Y-98611309D01*
X75774765Y-98592333D01*
X75774765Y-98592328D01*
X75775571Y-98587540D01*
X75775724Y-98575001D01*
X79799276Y-98575001D01*
X79799965Y-98579808D01*
X79799965Y-98579815D01*
X79802315Y-98596220D01*
X79803109Y-98603102D01*
X79816023Y-98750707D01*
X79861672Y-98921073D01*
X79936213Y-99080925D01*
X80037378Y-99225404D01*
X80162096Y-99350122D01*
X80306575Y-99451287D01*
X80311553Y-99453608D01*
X80311556Y-99453610D01*
X80461445Y-99523505D01*
X80466427Y-99525828D01*
X80471735Y-99527250D01*
X80471737Y-99527251D01*
X80631478Y-99570053D01*
X80631479Y-99570053D01*
X80636793Y-99571477D01*
X80642279Y-99571957D01*
X80642285Y-99571958D01*
X80766268Y-99582806D01*
X80776191Y-99584072D01*
X80795167Y-99587265D01*
X80795172Y-99587265D01*
X80799960Y-99588071D01*
X80806259Y-99588148D01*
X80807640Y-99588165D01*
X80807644Y-99588165D01*
X80812499Y-99588224D01*
X80840087Y-99584273D01*
X80857950Y-99583000D01*
X93759294Y-99583000D01*
X93780198Y-99584746D01*
X93799962Y-99588071D01*
X93806320Y-99588149D01*
X93807643Y-99588165D01*
X93807647Y-99588165D01*
X93812501Y-99588224D01*
X93817308Y-99587535D01*
X93817315Y-99587535D01*
X93833720Y-99585185D01*
X93840602Y-99584391D01*
X93874495Y-99581426D01*
X93988207Y-99571477D01*
X93993521Y-99570053D01*
X93993522Y-99570053D01*
X94153263Y-99527251D01*
X94153265Y-99527250D01*
X94158573Y-99525828D01*
X94163555Y-99523505D01*
X94313444Y-99453610D01*
X94313447Y-99453608D01*
X94318425Y-99451287D01*
X94462904Y-99350122D01*
X94587622Y-99225404D01*
X94688787Y-99080925D01*
X94763328Y-98921073D01*
X94808977Y-98750707D01*
X94809458Y-98745215D01*
X94820306Y-98621232D01*
X94821572Y-98611309D01*
X94824765Y-98592333D01*
X94824765Y-98592328D01*
X94825571Y-98587540D01*
X94825724Y-98575001D01*
X94821773Y-98547413D01*
X94820500Y-98529550D01*
X94820500Y-92662001D01*
X96849276Y-92662001D01*
X96849965Y-92666808D01*
X96849965Y-92666815D01*
X96852315Y-92683220D01*
X96853109Y-92690102D01*
X96866023Y-92837707D01*
X96911672Y-93008073D01*
X96986213Y-93167925D01*
X97087378Y-93312404D01*
X97212096Y-93437122D01*
X97356575Y-93538287D01*
X97361553Y-93540608D01*
X97361556Y-93540610D01*
X97511445Y-93610505D01*
X97516427Y-93612828D01*
X97521735Y-93614250D01*
X97521737Y-93614251D01*
X97681478Y-93657053D01*
X97681479Y-93657053D01*
X97686793Y-93658477D01*
X97692279Y-93658957D01*
X97692285Y-93658958D01*
X97816268Y-93669806D01*
X97826191Y-93671072D01*
X97845167Y-93674265D01*
X97845172Y-93674265D01*
X97849960Y-93675071D01*
X97856259Y-93675148D01*
X97857640Y-93675165D01*
X97857644Y-93675165D01*
X97862499Y-93675224D01*
X97890087Y-93671273D01*
X97907950Y-93670000D01*
X111809294Y-93670000D01*
X111830198Y-93671746D01*
X111849962Y-93675071D01*
X111856320Y-93675149D01*
X111857643Y-93675165D01*
X111857647Y-93675165D01*
X111862501Y-93675224D01*
X111867308Y-93674535D01*
X111867315Y-93674535D01*
X111883720Y-93672185D01*
X111890602Y-93671391D01*
X111924495Y-93668426D01*
X112038207Y-93658477D01*
X112043521Y-93657053D01*
X112043522Y-93657053D01*
X112203263Y-93614251D01*
X112203265Y-93614250D01*
X112208573Y-93612828D01*
X112213555Y-93610505D01*
X112363444Y-93540610D01*
X112363447Y-93540608D01*
X112368425Y-93538287D01*
X112512904Y-93437122D01*
X112637622Y-93312404D01*
X112738787Y-93167925D01*
X112813328Y-93008073D01*
X112858977Y-92837707D01*
X112859458Y-92832215D01*
X112870306Y-92708232D01*
X112871572Y-92698309D01*
X112874765Y-92679333D01*
X112874765Y-92679328D01*
X112875571Y-92674540D01*
X112875724Y-92662001D01*
X112871773Y-92634413D01*
X112870500Y-92616550D01*
X112870500Y-86715206D01*
X112872246Y-86694302D01*
X112874764Y-86679334D01*
X112875571Y-86674538D01*
X112875724Y-86661999D01*
X112875035Y-86657192D01*
X112875035Y-86657185D01*
X112872685Y-86640780D01*
X112871891Y-86633898D01*
X112859456Y-86491773D01*
X112858977Y-86486293D01*
X112813328Y-86315927D01*
X112738787Y-86156075D01*
X112637622Y-86011596D01*
X112512904Y-85886878D01*
X112368425Y-85785713D01*
X112363447Y-85783392D01*
X112363444Y-85783390D01*
X112213555Y-85713495D01*
X112213553Y-85713494D01*
X112208573Y-85711172D01*
X112203265Y-85709750D01*
X112203263Y-85709749D01*
X112043522Y-85666947D01*
X112043521Y-85666947D01*
X112038207Y-85665523D01*
X112032721Y-85665043D01*
X112032715Y-85665042D01*
X111908732Y-85654194D01*
X111898809Y-85652928D01*
X111879833Y-85649735D01*
X111879828Y-85649735D01*
X111875040Y-85648929D01*
X111868741Y-85648852D01*
X111867360Y-85648835D01*
X111867356Y-85648835D01*
X111862501Y-85648776D01*
X111838216Y-85652254D01*
X111834913Y-85652727D01*
X111817050Y-85654000D01*
X97915706Y-85654000D01*
X97894802Y-85652254D01*
X97891636Y-85651721D01*
X97875038Y-85648929D01*
X97868680Y-85648851D01*
X97867357Y-85648835D01*
X97867353Y-85648835D01*
X97862499Y-85648776D01*
X97857692Y-85649465D01*
X97857685Y-85649465D01*
X97841280Y-85651815D01*
X97834398Y-85652609D01*
X97800505Y-85655574D01*
X97686793Y-85665523D01*
X97681479Y-85666947D01*
X97681478Y-85666947D01*
X97521737Y-85709749D01*
X97521735Y-85709750D01*
X97516427Y-85711172D01*
X97511447Y-85713494D01*
X97511445Y-85713495D01*
X97361556Y-85783390D01*
X97361553Y-85783392D01*
X97356575Y-85785713D01*
X97212096Y-85886878D01*
X97087378Y-86011596D01*
X96986213Y-86156075D01*
X96911672Y-86315927D01*
X96866023Y-86486293D01*
X96865544Y-86491773D01*
X96865542Y-86491785D01*
X96854694Y-86615768D01*
X96853428Y-86625691D01*
X96849429Y-86649460D01*
X96849276Y-86661999D01*
X96851065Y-86674491D01*
X96853227Y-86689587D01*
X96854500Y-86707450D01*
X96854500Y-92608794D01*
X96852754Y-92629698D01*
X96849429Y-92649462D01*
X96849276Y-92662001D01*
X94820500Y-92662001D01*
X94820500Y-85628206D01*
X94822246Y-85607302D01*
X94824764Y-85592334D01*
X94825571Y-85587538D01*
X94825724Y-85574999D01*
X94825035Y-85570192D01*
X94825035Y-85570185D01*
X94822685Y-85553780D01*
X94821891Y-85546898D01*
X94809456Y-85404773D01*
X94808977Y-85399293D01*
X94763328Y-85228927D01*
X94688787Y-85069075D01*
X94587622Y-84924596D01*
X94462904Y-84799878D01*
X94318425Y-84698713D01*
X94313447Y-84696392D01*
X94313444Y-84696390D01*
X94163555Y-84626495D01*
X94163553Y-84626494D01*
X94158573Y-84624172D01*
X94153265Y-84622750D01*
X94153263Y-84622749D01*
X93993522Y-84579947D01*
X93993521Y-84579947D01*
X93988207Y-84578523D01*
X93982721Y-84578043D01*
X93982715Y-84578042D01*
X93858732Y-84567194D01*
X93848809Y-84565928D01*
X93829833Y-84562735D01*
X93829828Y-84562735D01*
X93825040Y-84561929D01*
X93818741Y-84561852D01*
X93817360Y-84561835D01*
X93817356Y-84561835D01*
X93812501Y-84561776D01*
X93788216Y-84565254D01*
X93784913Y-84565727D01*
X93767050Y-84567000D01*
X80865706Y-84567000D01*
X80844802Y-84565254D01*
X80841636Y-84564721D01*
X80825038Y-84561929D01*
X80818680Y-84561851D01*
X80817357Y-84561835D01*
X80817353Y-84561835D01*
X80812499Y-84561776D01*
X80807692Y-84562465D01*
X80807685Y-84562465D01*
X80791280Y-84564815D01*
X80784398Y-84565609D01*
X80750505Y-84568574D01*
X80636793Y-84578523D01*
X80631479Y-84579947D01*
X80631478Y-84579947D01*
X80471737Y-84622749D01*
X80471735Y-84622750D01*
X80466427Y-84624172D01*
X80461447Y-84626494D01*
X80461445Y-84626495D01*
X80311556Y-84696390D01*
X80311553Y-84696392D01*
X80306575Y-84698713D01*
X80162096Y-84799878D01*
X80037378Y-84924596D01*
X79936213Y-85069075D01*
X79861672Y-85228927D01*
X79816023Y-85399293D01*
X79815544Y-85404773D01*
X79815542Y-85404785D01*
X79804694Y-85528768D01*
X79803428Y-85538691D01*
X79799429Y-85562460D01*
X79799276Y-85574999D01*
X79801065Y-85587491D01*
X79803227Y-85602587D01*
X79804500Y-85620450D01*
X79804500Y-98521794D01*
X79802754Y-98542698D01*
X79799429Y-98562462D01*
X79799276Y-98575001D01*
X75775724Y-98575001D01*
X75771773Y-98547413D01*
X75770500Y-98529550D01*
X75770500Y-85628206D01*
X75772246Y-85607302D01*
X75774764Y-85592334D01*
X75775571Y-85587538D01*
X75775724Y-85574999D01*
X75775035Y-85570192D01*
X75775035Y-85570185D01*
X75772685Y-85553780D01*
X75771891Y-85546898D01*
X75759456Y-85404773D01*
X75758977Y-85399293D01*
X75713328Y-85228927D01*
X75638787Y-85069075D01*
X75537622Y-84924596D01*
X75412904Y-84799878D01*
X75268425Y-84698713D01*
X75263447Y-84696392D01*
X75263444Y-84696390D01*
X75113555Y-84626495D01*
X75113553Y-84626494D01*
X75108573Y-84624172D01*
X75103265Y-84622750D01*
X75103263Y-84622749D01*
X74943522Y-84579947D01*
X74943521Y-84579947D01*
X74938207Y-84578523D01*
X74932721Y-84578043D01*
X74932715Y-84578042D01*
X74808732Y-84567194D01*
X74798809Y-84565928D01*
X74779833Y-84562735D01*
X74779828Y-84562735D01*
X74775040Y-84561929D01*
X74768741Y-84561852D01*
X74767360Y-84561835D01*
X74767356Y-84561835D01*
X74762501Y-84561776D01*
X74738216Y-84565254D01*
X74734913Y-84565727D01*
X74717050Y-84567000D01*
X61815706Y-84567000D01*
X61794802Y-84565254D01*
X61791636Y-84564721D01*
X61775038Y-84561929D01*
X61768680Y-84561851D01*
X61767357Y-84561835D01*
X61767353Y-84561835D01*
X61762499Y-84561776D01*
X61757692Y-84562465D01*
X61757685Y-84562465D01*
X61741280Y-84564815D01*
X61734398Y-84565609D01*
X61700505Y-84568574D01*
X61586793Y-84578523D01*
X61581479Y-84579947D01*
X61581478Y-84579947D01*
X61421737Y-84622749D01*
X61421735Y-84622750D01*
X61416427Y-84624172D01*
X61411447Y-84626494D01*
X61411445Y-84626495D01*
X61261556Y-84696390D01*
X61261553Y-84696392D01*
X61256575Y-84698713D01*
X61112096Y-84799878D01*
X60987378Y-84924596D01*
X60886213Y-85069075D01*
X60811672Y-85228927D01*
X60766023Y-85399293D01*
X60765544Y-85404773D01*
X60765542Y-85404785D01*
X60754694Y-85528768D01*
X60753428Y-85538691D01*
X60749429Y-85562460D01*
X60749276Y-85574999D01*
X60751065Y-85587491D01*
X60753227Y-85602587D01*
X60754500Y-85620450D01*
X60754500Y-98521794D01*
X60752754Y-98542698D01*
X60749429Y-98562462D01*
X60749276Y-98575001D01*
X56725724Y-98575001D01*
X56721773Y-98547413D01*
X56720500Y-98529550D01*
X56720500Y-85628206D01*
X56722246Y-85607302D01*
X56724764Y-85592334D01*
X56725571Y-85587538D01*
X56725724Y-85574999D01*
X56725035Y-85570192D01*
X56725035Y-85570185D01*
X56722685Y-85553780D01*
X56721891Y-85546898D01*
X56709456Y-85404773D01*
X56708977Y-85399293D01*
X56663328Y-85228927D01*
X56588787Y-85069075D01*
X56487622Y-84924596D01*
X56362904Y-84799878D01*
X56218425Y-84698713D01*
X56213447Y-84696392D01*
X56213444Y-84696390D01*
X56063555Y-84626495D01*
X56063553Y-84626494D01*
X56058573Y-84624172D01*
X56053265Y-84622750D01*
X56053263Y-84622749D01*
X55893522Y-84579947D01*
X55893521Y-84579947D01*
X55888207Y-84578523D01*
X55882721Y-84578043D01*
X55882715Y-84578042D01*
X55758732Y-84567194D01*
X55748809Y-84565928D01*
X55729833Y-84562735D01*
X55729828Y-84562735D01*
X55725040Y-84561929D01*
X55718741Y-84561852D01*
X55717360Y-84561835D01*
X55717356Y-84561835D01*
X55712501Y-84561776D01*
X55688216Y-84565254D01*
X55684913Y-84565727D01*
X55667050Y-84567000D01*
X42765706Y-84567000D01*
X42744802Y-84565254D01*
X42741636Y-84564721D01*
X42725038Y-84561929D01*
X42718680Y-84561851D01*
X42717357Y-84561835D01*
X42717353Y-84561835D01*
X42712499Y-84561776D01*
X42707692Y-84562465D01*
X42707685Y-84562465D01*
X42691280Y-84564815D01*
X42684398Y-84565609D01*
X42650505Y-84568574D01*
X42536793Y-84578523D01*
X42531479Y-84579947D01*
X42531478Y-84579947D01*
X42371737Y-84622749D01*
X42371735Y-84622750D01*
X42366427Y-84624172D01*
X42361447Y-84626494D01*
X42361445Y-84626495D01*
X42211556Y-84696390D01*
X42211553Y-84696392D01*
X42206575Y-84698713D01*
X42062096Y-84799878D01*
X41937378Y-84924596D01*
X41836213Y-85069075D01*
X41761672Y-85228927D01*
X41716023Y-85399293D01*
X41715544Y-85404773D01*
X41715542Y-85404785D01*
X41704694Y-85528768D01*
X41703428Y-85538691D01*
X41699429Y-85562460D01*
X41699276Y-85574999D01*
X41701065Y-85587491D01*
X41703227Y-85602587D01*
X41704500Y-85620450D01*
X41704500Y-98521794D01*
X41702754Y-98542698D01*
X41699429Y-98562462D01*
X41699276Y-98575001D01*
X38925499Y-98575001D01*
X38925499Y-79525001D01*
X41699276Y-79525001D01*
X41699965Y-79529808D01*
X41699965Y-79529815D01*
X41702315Y-79546220D01*
X41703109Y-79553102D01*
X41716023Y-79700707D01*
X41761672Y-79871073D01*
X41836213Y-80030925D01*
X41937378Y-80175404D01*
X42062096Y-80300122D01*
X42206575Y-80401287D01*
X42211553Y-80403608D01*
X42211556Y-80403610D01*
X42361445Y-80473505D01*
X42366427Y-80475828D01*
X42371735Y-80477250D01*
X42371737Y-80477251D01*
X42531478Y-80520053D01*
X42531479Y-80520053D01*
X42536793Y-80521477D01*
X42542279Y-80521957D01*
X42542285Y-80521958D01*
X42666268Y-80532806D01*
X42676191Y-80534072D01*
X42695167Y-80537265D01*
X42695172Y-80537265D01*
X42699960Y-80538071D01*
X42706259Y-80538148D01*
X42707640Y-80538165D01*
X42707644Y-80538165D01*
X42712499Y-80538224D01*
X42740087Y-80534273D01*
X42757950Y-80533000D01*
X55659294Y-80533000D01*
X55680198Y-80534746D01*
X55699962Y-80538071D01*
X55706320Y-80538149D01*
X55707643Y-80538165D01*
X55707647Y-80538165D01*
X55712501Y-80538224D01*
X55717308Y-80537535D01*
X55717315Y-80537535D01*
X55733720Y-80535185D01*
X55740602Y-80534391D01*
X55774495Y-80531426D01*
X55888207Y-80521477D01*
X55893521Y-80520053D01*
X55893522Y-80520053D01*
X56053263Y-80477251D01*
X56053265Y-80477250D01*
X56058573Y-80475828D01*
X56063555Y-80473505D01*
X56213444Y-80403610D01*
X56213447Y-80403608D01*
X56218425Y-80401287D01*
X56362904Y-80300122D01*
X56487622Y-80175404D01*
X56588787Y-80030925D01*
X56663328Y-79871073D01*
X56708977Y-79700707D01*
X56709458Y-79695215D01*
X56720306Y-79571232D01*
X56721572Y-79561309D01*
X56724765Y-79542333D01*
X56724765Y-79542328D01*
X56725571Y-79537540D01*
X56725724Y-79525001D01*
X60749276Y-79525001D01*
X60749965Y-79529808D01*
X60749965Y-79529815D01*
X60752315Y-79546220D01*
X60753109Y-79553102D01*
X60766023Y-79700707D01*
X60811672Y-79871073D01*
X60886213Y-80030925D01*
X60987378Y-80175404D01*
X61112096Y-80300122D01*
X61256575Y-80401287D01*
X61261553Y-80403608D01*
X61261556Y-80403610D01*
X61411445Y-80473505D01*
X61416427Y-80475828D01*
X61421735Y-80477250D01*
X61421737Y-80477251D01*
X61581478Y-80520053D01*
X61581479Y-80520053D01*
X61586793Y-80521477D01*
X61592279Y-80521957D01*
X61592285Y-80521958D01*
X61716268Y-80532806D01*
X61726191Y-80534072D01*
X61745167Y-80537265D01*
X61745172Y-80537265D01*
X61749960Y-80538071D01*
X61756259Y-80538148D01*
X61757640Y-80538165D01*
X61757644Y-80538165D01*
X61762499Y-80538224D01*
X61790087Y-80534273D01*
X61807950Y-80533000D01*
X74709294Y-80533000D01*
X74730198Y-80534746D01*
X74749962Y-80538071D01*
X74756320Y-80538149D01*
X74757643Y-80538165D01*
X74757647Y-80538165D01*
X74762501Y-80538224D01*
X74767308Y-80537535D01*
X74767315Y-80537535D01*
X74783720Y-80535185D01*
X74790602Y-80534391D01*
X74824495Y-80531426D01*
X74938207Y-80521477D01*
X74943521Y-80520053D01*
X74943522Y-80520053D01*
X75103263Y-80477251D01*
X75103265Y-80477250D01*
X75108573Y-80475828D01*
X75113555Y-80473505D01*
X75263444Y-80403610D01*
X75263447Y-80403608D01*
X75268425Y-80401287D01*
X75412904Y-80300122D01*
X75537622Y-80175404D01*
X75638787Y-80030925D01*
X75713328Y-79871073D01*
X75758977Y-79700707D01*
X75759458Y-79695215D01*
X75770306Y-79571232D01*
X75771572Y-79561309D01*
X75774765Y-79542333D01*
X75774765Y-79542328D01*
X75775571Y-79537540D01*
X75775724Y-79525001D01*
X79799276Y-79525001D01*
X79799965Y-79529808D01*
X79799965Y-79529815D01*
X79802315Y-79546220D01*
X79803109Y-79553102D01*
X79816023Y-79700707D01*
X79861672Y-79871073D01*
X79936213Y-80030925D01*
X80037378Y-80175404D01*
X80162096Y-80300122D01*
X80306575Y-80401287D01*
X80311553Y-80403608D01*
X80311556Y-80403610D01*
X80461445Y-80473505D01*
X80466427Y-80475828D01*
X80471735Y-80477250D01*
X80471737Y-80477251D01*
X80631478Y-80520053D01*
X80631479Y-80520053D01*
X80636793Y-80521477D01*
X80642279Y-80521957D01*
X80642285Y-80521958D01*
X80766268Y-80532806D01*
X80776191Y-80534072D01*
X80795167Y-80537265D01*
X80795172Y-80537265D01*
X80799960Y-80538071D01*
X80806259Y-80538148D01*
X80807640Y-80538165D01*
X80807644Y-80538165D01*
X80812499Y-80538224D01*
X80840087Y-80534273D01*
X80857950Y-80533000D01*
X93759294Y-80533000D01*
X93780198Y-80534746D01*
X93799962Y-80538071D01*
X93806320Y-80538149D01*
X93807643Y-80538165D01*
X93807647Y-80538165D01*
X93812501Y-80538224D01*
X93817308Y-80537535D01*
X93817315Y-80537535D01*
X93833720Y-80535185D01*
X93840602Y-80534391D01*
X93874495Y-80531426D01*
X93988207Y-80521477D01*
X93993521Y-80520053D01*
X93993522Y-80520053D01*
X94153263Y-80477251D01*
X94153265Y-80477250D01*
X94158573Y-80475828D01*
X94163555Y-80473505D01*
X94313444Y-80403610D01*
X94313447Y-80403608D01*
X94318425Y-80401287D01*
X94462904Y-80300122D01*
X94587622Y-80175404D01*
X94688787Y-80030925D01*
X94763328Y-79871073D01*
X94808977Y-79700707D01*
X94809458Y-79695215D01*
X94820306Y-79571232D01*
X94821572Y-79561309D01*
X94824765Y-79542333D01*
X94824765Y-79542328D01*
X94825571Y-79537540D01*
X94825724Y-79525001D01*
X98849276Y-79525001D01*
X98849965Y-79529808D01*
X98849965Y-79529815D01*
X98852315Y-79546220D01*
X98853109Y-79553102D01*
X98866023Y-79700707D01*
X98911672Y-79871073D01*
X98986213Y-80030925D01*
X99087378Y-80175404D01*
X99212096Y-80300122D01*
X99356575Y-80401287D01*
X99361553Y-80403608D01*
X99361556Y-80403610D01*
X99511445Y-80473505D01*
X99516427Y-80475828D01*
X99521735Y-80477250D01*
X99521737Y-80477251D01*
X99681478Y-80520053D01*
X99681479Y-80520053D01*
X99686793Y-80521477D01*
X99692279Y-80521957D01*
X99692285Y-80521958D01*
X99816268Y-80532806D01*
X99826191Y-80534072D01*
X99845167Y-80537265D01*
X99845172Y-80537265D01*
X99849960Y-80538071D01*
X99856259Y-80538148D01*
X99857640Y-80538165D01*
X99857644Y-80538165D01*
X99862499Y-80538224D01*
X99890087Y-80534273D01*
X99907950Y-80533000D01*
X112809294Y-80533000D01*
X112830198Y-80534746D01*
X112849962Y-80538071D01*
X112856320Y-80538149D01*
X112857643Y-80538165D01*
X112857647Y-80538165D01*
X112862501Y-80538224D01*
X112867308Y-80537535D01*
X112867315Y-80537535D01*
X112883720Y-80535185D01*
X112890602Y-80534391D01*
X112924495Y-80531426D01*
X113038207Y-80521477D01*
X113043521Y-80520053D01*
X113043522Y-80520053D01*
X113203263Y-80477251D01*
X113203265Y-80477250D01*
X113208573Y-80475828D01*
X113213555Y-80473505D01*
X113363444Y-80403610D01*
X113363447Y-80403608D01*
X113368425Y-80401287D01*
X113512904Y-80300122D01*
X113637622Y-80175404D01*
X113738787Y-80030925D01*
X113813328Y-79871073D01*
X113858977Y-79700707D01*
X113859458Y-79695215D01*
X113870306Y-79571232D01*
X113871572Y-79561309D01*
X113874765Y-79542333D01*
X113874765Y-79542328D01*
X113875571Y-79537540D01*
X113875724Y-79525001D01*
X113871773Y-79497413D01*
X113870500Y-79479550D01*
X113870500Y-66578206D01*
X113872246Y-66557302D01*
X113874764Y-66542334D01*
X113875571Y-66537538D01*
X113875724Y-66524999D01*
X113875035Y-66520192D01*
X113875035Y-66520185D01*
X113872685Y-66503780D01*
X113871891Y-66496898D01*
X113859456Y-66354773D01*
X113858977Y-66349293D01*
X113813328Y-66178927D01*
X113738787Y-66019075D01*
X113637622Y-65874596D01*
X113512904Y-65749878D01*
X113368425Y-65648713D01*
X113363447Y-65646392D01*
X113363444Y-65646390D01*
X113213555Y-65576495D01*
X113213553Y-65576494D01*
X113208573Y-65574172D01*
X113203265Y-65572750D01*
X113203263Y-65572749D01*
X113043522Y-65529947D01*
X113043521Y-65529947D01*
X113038207Y-65528523D01*
X113032721Y-65528043D01*
X113032715Y-65528042D01*
X112908732Y-65517194D01*
X112898809Y-65515928D01*
X112879833Y-65512735D01*
X112879828Y-65512735D01*
X112875040Y-65511929D01*
X112868741Y-65511852D01*
X112867360Y-65511835D01*
X112867356Y-65511835D01*
X112862501Y-65511776D01*
X112838216Y-65515254D01*
X112834913Y-65515727D01*
X112817050Y-65517000D01*
X99915706Y-65517000D01*
X99894802Y-65515254D01*
X99891636Y-65514721D01*
X99875038Y-65511929D01*
X99868680Y-65511851D01*
X99867357Y-65511835D01*
X99867353Y-65511835D01*
X99862499Y-65511776D01*
X99857692Y-65512465D01*
X99857685Y-65512465D01*
X99841280Y-65514815D01*
X99834398Y-65515609D01*
X99800505Y-65518574D01*
X99686793Y-65528523D01*
X99681479Y-65529947D01*
X99681478Y-65529947D01*
X99521737Y-65572749D01*
X99521735Y-65572750D01*
X99516427Y-65574172D01*
X99511447Y-65576494D01*
X99511445Y-65576495D01*
X99361556Y-65646390D01*
X99361553Y-65646392D01*
X99356575Y-65648713D01*
X99212096Y-65749878D01*
X99087378Y-65874596D01*
X98986213Y-66019075D01*
X98911672Y-66178927D01*
X98866023Y-66349293D01*
X98865544Y-66354773D01*
X98865542Y-66354785D01*
X98854694Y-66478768D01*
X98853428Y-66488691D01*
X98849429Y-66512460D01*
X98849276Y-66524999D01*
X98851065Y-66537491D01*
X98853227Y-66552587D01*
X98854500Y-66570450D01*
X98854500Y-79471794D01*
X98852754Y-79492698D01*
X98849429Y-79512462D01*
X98849276Y-79525001D01*
X94825724Y-79525001D01*
X94821773Y-79497413D01*
X94820500Y-79479550D01*
X94820500Y-66578206D01*
X94822246Y-66557302D01*
X94824764Y-66542334D01*
X94825571Y-66537538D01*
X94825724Y-66524999D01*
X94825035Y-66520192D01*
X94825035Y-66520185D01*
X94822685Y-66503780D01*
X94821891Y-66496898D01*
X94809456Y-66354773D01*
X94808977Y-66349293D01*
X94763328Y-66178927D01*
X94688787Y-66019075D01*
X94587622Y-65874596D01*
X94462904Y-65749878D01*
X94318425Y-65648713D01*
X94313447Y-65646392D01*
X94313444Y-65646390D01*
X94163555Y-65576495D01*
X94163553Y-65576494D01*
X94158573Y-65574172D01*
X94153265Y-65572750D01*
X94153263Y-65572749D01*
X93993522Y-65529947D01*
X93993521Y-65529947D01*
X93988207Y-65528523D01*
X93982721Y-65528043D01*
X93982715Y-65528042D01*
X93858732Y-65517194D01*
X93848809Y-65515928D01*
X93829833Y-65512735D01*
X93829828Y-65512735D01*
X93825040Y-65511929D01*
X93818741Y-65511852D01*
X93817360Y-65511835D01*
X93817356Y-65511835D01*
X93812501Y-65511776D01*
X93788216Y-65515254D01*
X93784913Y-65515727D01*
X93767050Y-65517000D01*
X80865706Y-65517000D01*
X80844802Y-65515254D01*
X80841636Y-65514721D01*
X80825038Y-65511929D01*
X80818680Y-65511851D01*
X80817357Y-65511835D01*
X80817353Y-65511835D01*
X80812499Y-65511776D01*
X80807692Y-65512465D01*
X80807685Y-65512465D01*
X80791280Y-65514815D01*
X80784398Y-65515609D01*
X80750505Y-65518574D01*
X80636793Y-65528523D01*
X80631479Y-65529947D01*
X80631478Y-65529947D01*
X80471737Y-65572749D01*
X80471735Y-65572750D01*
X80466427Y-65574172D01*
X80461447Y-65576494D01*
X80461445Y-65576495D01*
X80311556Y-65646390D01*
X80311553Y-65646392D01*
X80306575Y-65648713D01*
X80162096Y-65749878D01*
X80037378Y-65874596D01*
X79936213Y-66019075D01*
X79861672Y-66178927D01*
X79816023Y-66349293D01*
X79815544Y-66354773D01*
X79815542Y-66354785D01*
X79804694Y-66478768D01*
X79803428Y-66488691D01*
X79799429Y-66512460D01*
X79799276Y-66524999D01*
X79801065Y-66537491D01*
X79803227Y-66552587D01*
X79804500Y-66570450D01*
X79804500Y-79471794D01*
X79802754Y-79492698D01*
X79799429Y-79512462D01*
X79799276Y-79525001D01*
X75775724Y-79525001D01*
X75771773Y-79497413D01*
X75770500Y-79479550D01*
X75770500Y-66578206D01*
X75772246Y-66557302D01*
X75774764Y-66542334D01*
X75775571Y-66537538D01*
X75775724Y-66524999D01*
X75775035Y-66520192D01*
X75775035Y-66520185D01*
X75772685Y-66503780D01*
X75771891Y-66496898D01*
X75759456Y-66354773D01*
X75758977Y-66349293D01*
X75713328Y-66178927D01*
X75638787Y-66019075D01*
X75537622Y-65874596D01*
X75412904Y-65749878D01*
X75268425Y-65648713D01*
X75263447Y-65646392D01*
X75263444Y-65646390D01*
X75113555Y-65576495D01*
X75113553Y-65576494D01*
X75108573Y-65574172D01*
X75103265Y-65572750D01*
X75103263Y-65572749D01*
X74943522Y-65529947D01*
X74943521Y-65529947D01*
X74938207Y-65528523D01*
X74932721Y-65528043D01*
X74932715Y-65528042D01*
X74808732Y-65517194D01*
X74798809Y-65515928D01*
X74779833Y-65512735D01*
X74779828Y-65512735D01*
X74775040Y-65511929D01*
X74768741Y-65511852D01*
X74767360Y-65511835D01*
X74767356Y-65511835D01*
X74762501Y-65511776D01*
X74738216Y-65515254D01*
X74734913Y-65515727D01*
X74717050Y-65517000D01*
X61815706Y-65517000D01*
X61794802Y-65515254D01*
X61791636Y-65514721D01*
X61775038Y-65511929D01*
X61768680Y-65511851D01*
X61767357Y-65511835D01*
X61767353Y-65511835D01*
X61762499Y-65511776D01*
X61757692Y-65512465D01*
X61757685Y-65512465D01*
X61741280Y-65514815D01*
X61734398Y-65515609D01*
X61700505Y-65518574D01*
X61586793Y-65528523D01*
X61581479Y-65529947D01*
X61581478Y-65529947D01*
X61421737Y-65572749D01*
X61421735Y-65572750D01*
X61416427Y-65574172D01*
X61411447Y-65576494D01*
X61411445Y-65576495D01*
X61261556Y-65646390D01*
X61261553Y-65646392D01*
X61256575Y-65648713D01*
X61112096Y-65749878D01*
X60987378Y-65874596D01*
X60886213Y-66019075D01*
X60811672Y-66178927D01*
X60766023Y-66349293D01*
X60765544Y-66354773D01*
X60765542Y-66354785D01*
X60754694Y-66478768D01*
X60753428Y-66488691D01*
X60749429Y-66512460D01*
X60749276Y-66524999D01*
X60751065Y-66537491D01*
X60753227Y-66552587D01*
X60754500Y-66570450D01*
X60754500Y-79471794D01*
X60752754Y-79492698D01*
X60749429Y-79512462D01*
X60749276Y-79525001D01*
X56725724Y-79525001D01*
X56721773Y-79497413D01*
X56720500Y-79479550D01*
X56720500Y-66578206D01*
X56722246Y-66557302D01*
X56724764Y-66542334D01*
X56725571Y-66537538D01*
X56725724Y-66524999D01*
X56725035Y-66520192D01*
X56725035Y-66520185D01*
X56722685Y-66503780D01*
X56721891Y-66496898D01*
X56709456Y-66354773D01*
X56708977Y-66349293D01*
X56663328Y-66178927D01*
X56588787Y-66019075D01*
X56487622Y-65874596D01*
X56362904Y-65749878D01*
X56218425Y-65648713D01*
X56213447Y-65646392D01*
X56213444Y-65646390D01*
X56063555Y-65576495D01*
X56063553Y-65576494D01*
X56058573Y-65574172D01*
X56053265Y-65572750D01*
X56053263Y-65572749D01*
X55893522Y-65529947D01*
X55893521Y-65529947D01*
X55888207Y-65528523D01*
X55882721Y-65528043D01*
X55882715Y-65528042D01*
X55758732Y-65517194D01*
X55748809Y-65515928D01*
X55729833Y-65512735D01*
X55729828Y-65512735D01*
X55725040Y-65511929D01*
X55718741Y-65511852D01*
X55717360Y-65511835D01*
X55717356Y-65511835D01*
X55712501Y-65511776D01*
X55688216Y-65515254D01*
X55684913Y-65515727D01*
X55667050Y-65517000D01*
X42765706Y-65517000D01*
X42744802Y-65515254D01*
X42741636Y-65514721D01*
X42725038Y-65511929D01*
X42718680Y-65511851D01*
X42717357Y-65511835D01*
X42717353Y-65511835D01*
X42712499Y-65511776D01*
X42707692Y-65512465D01*
X42707685Y-65512465D01*
X42691280Y-65514815D01*
X42684398Y-65515609D01*
X42650505Y-65518574D01*
X42536793Y-65528523D01*
X42531479Y-65529947D01*
X42531478Y-65529947D01*
X42371737Y-65572749D01*
X42371735Y-65572750D01*
X42366427Y-65574172D01*
X42361447Y-65576494D01*
X42361445Y-65576495D01*
X42211556Y-65646390D01*
X42211553Y-65646392D01*
X42206575Y-65648713D01*
X42062096Y-65749878D01*
X41937378Y-65874596D01*
X41836213Y-66019075D01*
X41761672Y-66178927D01*
X41716023Y-66349293D01*
X41715544Y-66354773D01*
X41715542Y-66354785D01*
X41704694Y-66478768D01*
X41703428Y-66488691D01*
X41699429Y-66512460D01*
X41699276Y-66524999D01*
X41701065Y-66537491D01*
X41703227Y-66552587D01*
X41704500Y-66570450D01*
X41704500Y-79471794D01*
X41702754Y-79492698D01*
X41699429Y-79512462D01*
X41699276Y-79525001D01*
X38925499Y-79525001D01*
X38925499Y-61276571D01*
X40354000Y-61276571D01*
X40393560Y-61589725D01*
X40472057Y-61895452D01*
X40588253Y-62188929D01*
X40740316Y-62465529D01*
X40925846Y-62720890D01*
X41141918Y-62950983D01*
X41385125Y-63152182D01*
X41651631Y-63321312D01*
X41655210Y-63322996D01*
X41655217Y-63323000D01*
X41933644Y-63454017D01*
X41933648Y-63454019D01*
X41937234Y-63455706D01*
X42237428Y-63553245D01*
X42547480Y-63612391D01*
X42783662Y-63627250D01*
X42941338Y-63627250D01*
X43177520Y-63612391D01*
X43487572Y-63553245D01*
X43787766Y-63455706D01*
X43791352Y-63454019D01*
X43791356Y-63454017D01*
X44069783Y-63323000D01*
X44069790Y-63322996D01*
X44073369Y-63321312D01*
X44339875Y-63152182D01*
X44583082Y-62950983D01*
X44799154Y-62720890D01*
X44984684Y-62465529D01*
X45136747Y-62188929D01*
X45252943Y-61895452D01*
X45331440Y-61589725D01*
X45371000Y-61276571D01*
X110204000Y-61276571D01*
X110243560Y-61589725D01*
X110322057Y-61895452D01*
X110438253Y-62188929D01*
X110590316Y-62465529D01*
X110775846Y-62720890D01*
X110991918Y-62950983D01*
X111235125Y-63152182D01*
X111501631Y-63321312D01*
X111505210Y-63322996D01*
X111505217Y-63323000D01*
X111783644Y-63454017D01*
X111783648Y-63454019D01*
X111787234Y-63455706D01*
X112087428Y-63553245D01*
X112397480Y-63612391D01*
X112633662Y-63627250D01*
X112791338Y-63627250D01*
X113027520Y-63612391D01*
X113337572Y-63553245D01*
X113637766Y-63455706D01*
X113641352Y-63454019D01*
X113641356Y-63454017D01*
X113919783Y-63323000D01*
X113919790Y-63322996D01*
X113923369Y-63321312D01*
X114189875Y-63152182D01*
X114433082Y-62950983D01*
X114649154Y-62720890D01*
X114834684Y-62465529D01*
X114986747Y-62188929D01*
X115102943Y-61895452D01*
X115181440Y-61589725D01*
X115221000Y-61276571D01*
X115221000Y-60960929D01*
X115181440Y-60647775D01*
X115102943Y-60342048D01*
X114986747Y-60048571D01*
X114834684Y-59771971D01*
X114649154Y-59516610D01*
X114433082Y-59286517D01*
X114189875Y-59085318D01*
X113923369Y-58916188D01*
X113919790Y-58914504D01*
X113919783Y-58914500D01*
X113641356Y-58783483D01*
X113641352Y-58783481D01*
X113637766Y-58781794D01*
X113337572Y-58684255D01*
X113027520Y-58625109D01*
X112791338Y-58610250D01*
X112633662Y-58610250D01*
X112397480Y-58625109D01*
X112087428Y-58684255D01*
X111787234Y-58781794D01*
X111783648Y-58783481D01*
X111783644Y-58783483D01*
X111505217Y-58914500D01*
X111505210Y-58914504D01*
X111501631Y-58916188D01*
X111235125Y-59085318D01*
X110991918Y-59286517D01*
X110775846Y-59516610D01*
X110590316Y-59771971D01*
X110438253Y-60048571D01*
X110322057Y-60342048D01*
X110243560Y-60647775D01*
X110204000Y-60960929D01*
X110204000Y-61276571D01*
X45371000Y-61276571D01*
X45371000Y-60960929D01*
X45331440Y-60647775D01*
X45252943Y-60342048D01*
X45136747Y-60048571D01*
X44984684Y-59771971D01*
X44799154Y-59516610D01*
X44583082Y-59286517D01*
X44339875Y-59085318D01*
X44073369Y-58916188D01*
X44069790Y-58914504D01*
X44069783Y-58914500D01*
X43791356Y-58783483D01*
X43791352Y-58783481D01*
X43787766Y-58781794D01*
X43487572Y-58684255D01*
X43177520Y-58625109D01*
X42941338Y-58610250D01*
X42783662Y-58610250D01*
X42547480Y-58625109D01*
X42237428Y-58684255D01*
X41937234Y-58781794D01*
X41933648Y-58783481D01*
X41933644Y-58783483D01*
X41655217Y-58914500D01*
X41655210Y-58914504D01*
X41651631Y-58916188D01*
X41385125Y-59085318D01*
X41141918Y-59286517D01*
X40925846Y-59516610D01*
X40740316Y-59771971D01*
X40588253Y-60048571D01*
X40472057Y-60342048D01*
X40393560Y-60647775D01*
X40354000Y-60960929D01*
X40354000Y-61276571D01*
X38925499Y-61276571D01*
X38925499Y-55712501D01*
X41699276Y-55712501D01*
X41699965Y-55717308D01*
X41699965Y-55717315D01*
X41702315Y-55733720D01*
X41703109Y-55740602D01*
X41716023Y-55888207D01*
X41761672Y-56058573D01*
X41836213Y-56218425D01*
X41937378Y-56362904D01*
X42062096Y-56487622D01*
X42206575Y-56588787D01*
X42211553Y-56591108D01*
X42211556Y-56591110D01*
X42361445Y-56661005D01*
X42366427Y-56663328D01*
X42371735Y-56664750D01*
X42371737Y-56664751D01*
X42531478Y-56707553D01*
X42531479Y-56707553D01*
X42536793Y-56708977D01*
X42542279Y-56709457D01*
X42542285Y-56709458D01*
X42666268Y-56720306D01*
X42676191Y-56721572D01*
X42695167Y-56724765D01*
X42695172Y-56724765D01*
X42699960Y-56725571D01*
X42706259Y-56725648D01*
X42707640Y-56725665D01*
X42707644Y-56725665D01*
X42712499Y-56725724D01*
X42740087Y-56721773D01*
X42757950Y-56720500D01*
X55659294Y-56720500D01*
X55680198Y-56722246D01*
X55699962Y-56725571D01*
X55706320Y-56725649D01*
X55707643Y-56725665D01*
X55707647Y-56725665D01*
X55712501Y-56725724D01*
X55717308Y-56725035D01*
X55717315Y-56725035D01*
X55733720Y-56722685D01*
X55740602Y-56721891D01*
X55774495Y-56718926D01*
X55888207Y-56708977D01*
X55893521Y-56707553D01*
X55893522Y-56707553D01*
X56053263Y-56664751D01*
X56053265Y-56664750D01*
X56058573Y-56663328D01*
X56063555Y-56661005D01*
X56213444Y-56591110D01*
X56213447Y-56591108D01*
X56218425Y-56588787D01*
X56362904Y-56487622D01*
X56487622Y-56362904D01*
X56588787Y-56218425D01*
X56663328Y-56058573D01*
X56708977Y-55888207D01*
X56709458Y-55882715D01*
X56720306Y-55758732D01*
X56721572Y-55748809D01*
X56724765Y-55729833D01*
X56724765Y-55729828D01*
X56725571Y-55725040D01*
X56725724Y-55712501D01*
X60749276Y-55712501D01*
X60749965Y-55717308D01*
X60749965Y-55717315D01*
X60752315Y-55733720D01*
X60753109Y-55740602D01*
X60766023Y-55888207D01*
X60811672Y-56058573D01*
X60886213Y-56218425D01*
X60987378Y-56362904D01*
X61112096Y-56487622D01*
X61256575Y-56588787D01*
X61261553Y-56591108D01*
X61261556Y-56591110D01*
X61411445Y-56661005D01*
X61416427Y-56663328D01*
X61421735Y-56664750D01*
X61421737Y-56664751D01*
X61581478Y-56707553D01*
X61581479Y-56707553D01*
X61586793Y-56708977D01*
X61592279Y-56709457D01*
X61592285Y-56709458D01*
X61716268Y-56720306D01*
X61726191Y-56721572D01*
X61745167Y-56724765D01*
X61745172Y-56724765D01*
X61749960Y-56725571D01*
X61756259Y-56725648D01*
X61757640Y-56725665D01*
X61757644Y-56725665D01*
X61762499Y-56725724D01*
X61790087Y-56721773D01*
X61807950Y-56720500D01*
X74709294Y-56720500D01*
X74730198Y-56722246D01*
X74749962Y-56725571D01*
X74756320Y-56725649D01*
X74757643Y-56725665D01*
X74757647Y-56725665D01*
X74762501Y-56725724D01*
X74767308Y-56725035D01*
X74767315Y-56725035D01*
X74783720Y-56722685D01*
X74790602Y-56721891D01*
X74824495Y-56718926D01*
X74938207Y-56708977D01*
X74943521Y-56707553D01*
X74943522Y-56707553D01*
X75103263Y-56664751D01*
X75103265Y-56664750D01*
X75108573Y-56663328D01*
X75113555Y-56661005D01*
X75263444Y-56591110D01*
X75263447Y-56591108D01*
X75268425Y-56588787D01*
X75412904Y-56487622D01*
X75537622Y-56362904D01*
X75638787Y-56218425D01*
X75713328Y-56058573D01*
X75758977Y-55888207D01*
X75759458Y-55882715D01*
X75770306Y-55758732D01*
X75771572Y-55748809D01*
X75774765Y-55729833D01*
X75774765Y-55729828D01*
X75775571Y-55725040D01*
X75775724Y-55712501D01*
X79799276Y-55712501D01*
X79799965Y-55717308D01*
X79799965Y-55717315D01*
X79802315Y-55733720D01*
X79803109Y-55740602D01*
X79816023Y-55888207D01*
X79861672Y-56058573D01*
X79936213Y-56218425D01*
X80037378Y-56362904D01*
X80162096Y-56487622D01*
X80306575Y-56588787D01*
X80311553Y-56591108D01*
X80311556Y-56591110D01*
X80461445Y-56661005D01*
X80466427Y-56663328D01*
X80471735Y-56664750D01*
X80471737Y-56664751D01*
X80631478Y-56707553D01*
X80631479Y-56707553D01*
X80636793Y-56708977D01*
X80642279Y-56709457D01*
X80642285Y-56709458D01*
X80766268Y-56720306D01*
X80776191Y-56721572D01*
X80795167Y-56724765D01*
X80795172Y-56724765D01*
X80799960Y-56725571D01*
X80806259Y-56725648D01*
X80807640Y-56725665D01*
X80807644Y-56725665D01*
X80812499Y-56725724D01*
X80840087Y-56721773D01*
X80857950Y-56720500D01*
X93759294Y-56720500D01*
X93780198Y-56722246D01*
X93799962Y-56725571D01*
X93806320Y-56725649D01*
X93807643Y-56725665D01*
X93807647Y-56725665D01*
X93812501Y-56725724D01*
X93817308Y-56725035D01*
X93817315Y-56725035D01*
X93833720Y-56722685D01*
X93840602Y-56721891D01*
X93874495Y-56718926D01*
X93988207Y-56708977D01*
X93993521Y-56707553D01*
X93993522Y-56707553D01*
X94153263Y-56664751D01*
X94153265Y-56664750D01*
X94158573Y-56663328D01*
X94163555Y-56661005D01*
X94313444Y-56591110D01*
X94313447Y-56591108D01*
X94318425Y-56588787D01*
X94462904Y-56487622D01*
X94587622Y-56362904D01*
X94688787Y-56218425D01*
X94763328Y-56058573D01*
X94808977Y-55888207D01*
X94809458Y-55882715D01*
X94820306Y-55758732D01*
X94821572Y-55748809D01*
X94824765Y-55729833D01*
X94824765Y-55729828D01*
X94825571Y-55725040D01*
X94825724Y-55712501D01*
X98849276Y-55712501D01*
X98849965Y-55717308D01*
X98849965Y-55717315D01*
X98852315Y-55733720D01*
X98853109Y-55740602D01*
X98866023Y-55888207D01*
X98911672Y-56058573D01*
X98986213Y-56218425D01*
X99087378Y-56362904D01*
X99212096Y-56487622D01*
X99356575Y-56588787D01*
X99361553Y-56591108D01*
X99361556Y-56591110D01*
X99511445Y-56661005D01*
X99516427Y-56663328D01*
X99521735Y-56664750D01*
X99521737Y-56664751D01*
X99681478Y-56707553D01*
X99681479Y-56707553D01*
X99686793Y-56708977D01*
X99692279Y-56709457D01*
X99692285Y-56709458D01*
X99816268Y-56720306D01*
X99826191Y-56721572D01*
X99845167Y-56724765D01*
X99845172Y-56724765D01*
X99849960Y-56725571D01*
X99856259Y-56725648D01*
X99857640Y-56725665D01*
X99857644Y-56725665D01*
X99862499Y-56725724D01*
X99890087Y-56721773D01*
X99907950Y-56720500D01*
X112809294Y-56720500D01*
X112830198Y-56722246D01*
X112849962Y-56725571D01*
X112856320Y-56725649D01*
X112857643Y-56725665D01*
X112857647Y-56725665D01*
X112862501Y-56725724D01*
X112867308Y-56725035D01*
X112867315Y-56725035D01*
X112883720Y-56722685D01*
X112890602Y-56721891D01*
X112924495Y-56718926D01*
X113038207Y-56708977D01*
X113043521Y-56707553D01*
X113043522Y-56707553D01*
X113203263Y-56664751D01*
X113203265Y-56664750D01*
X113208573Y-56663328D01*
X113213555Y-56661005D01*
X113363444Y-56591110D01*
X113363447Y-56591108D01*
X113368425Y-56588787D01*
X113512904Y-56487622D01*
X113637622Y-56362904D01*
X113738787Y-56218425D01*
X113813328Y-56058573D01*
X113858977Y-55888207D01*
X113859458Y-55882715D01*
X113870306Y-55758732D01*
X113871572Y-55748809D01*
X113874765Y-55729833D01*
X113874765Y-55729828D01*
X113875571Y-55725040D01*
X113875724Y-55712501D01*
X113871773Y-55684913D01*
X113870500Y-55667050D01*
X113870500Y-42765706D01*
X113872246Y-42744802D01*
X113874764Y-42729834D01*
X113875571Y-42725038D01*
X113875724Y-42712499D01*
X113875035Y-42707692D01*
X113875035Y-42707685D01*
X113872685Y-42691280D01*
X113871891Y-42684398D01*
X113859456Y-42542273D01*
X113858977Y-42536793D01*
X113813328Y-42366427D01*
X113738787Y-42206575D01*
X113637622Y-42062096D01*
X113512904Y-41937378D01*
X113368425Y-41836213D01*
X113363447Y-41833892D01*
X113363444Y-41833890D01*
X113213555Y-41763995D01*
X113213553Y-41763994D01*
X113208573Y-41761672D01*
X113203265Y-41760250D01*
X113203263Y-41760249D01*
X113043522Y-41717447D01*
X113043521Y-41717447D01*
X113038207Y-41716023D01*
X113032721Y-41715543D01*
X113032715Y-41715542D01*
X112908732Y-41704694D01*
X112898809Y-41703428D01*
X112879833Y-41700235D01*
X112879828Y-41700235D01*
X112875040Y-41699429D01*
X112868741Y-41699352D01*
X112867360Y-41699335D01*
X112867356Y-41699335D01*
X112862501Y-41699276D01*
X112838216Y-41702754D01*
X112834913Y-41703227D01*
X112817050Y-41704500D01*
X99915706Y-41704500D01*
X99894802Y-41702754D01*
X99891636Y-41702221D01*
X99875038Y-41699429D01*
X99868680Y-41699351D01*
X99867357Y-41699335D01*
X99867353Y-41699335D01*
X99862499Y-41699276D01*
X99857692Y-41699965D01*
X99857685Y-41699965D01*
X99841280Y-41702315D01*
X99834398Y-41703109D01*
X99800505Y-41706074D01*
X99686793Y-41716023D01*
X99681479Y-41717447D01*
X99681478Y-41717447D01*
X99521737Y-41760249D01*
X99521735Y-41760250D01*
X99516427Y-41761672D01*
X99511447Y-41763994D01*
X99511445Y-41763995D01*
X99361556Y-41833890D01*
X99361553Y-41833892D01*
X99356575Y-41836213D01*
X99212096Y-41937378D01*
X99087378Y-42062096D01*
X98986213Y-42206575D01*
X98911672Y-42366427D01*
X98866023Y-42536793D01*
X98865544Y-42542273D01*
X98865542Y-42542285D01*
X98854694Y-42666268D01*
X98853428Y-42676191D01*
X98849429Y-42699960D01*
X98849276Y-42712499D01*
X98851065Y-42724991D01*
X98853227Y-42740087D01*
X98854500Y-42757950D01*
X98854500Y-55659294D01*
X98852754Y-55680198D01*
X98849429Y-55699962D01*
X98849276Y-55712501D01*
X94825724Y-55712501D01*
X94821773Y-55684913D01*
X94820500Y-55667050D01*
X94820500Y-42765706D01*
X94822246Y-42744802D01*
X94824764Y-42729834D01*
X94825571Y-42725038D01*
X94825724Y-42712499D01*
X94825035Y-42707692D01*
X94825035Y-42707685D01*
X94822685Y-42691280D01*
X94821891Y-42684398D01*
X94809456Y-42542273D01*
X94808977Y-42536793D01*
X94763328Y-42366427D01*
X94688787Y-42206575D01*
X94587622Y-42062096D01*
X94462904Y-41937378D01*
X94318425Y-41836213D01*
X94313447Y-41833892D01*
X94313444Y-41833890D01*
X94163555Y-41763995D01*
X94163553Y-41763994D01*
X94158573Y-41761672D01*
X94153265Y-41760250D01*
X94153263Y-41760249D01*
X93993522Y-41717447D01*
X93993521Y-41717447D01*
X93988207Y-41716023D01*
X93982721Y-41715543D01*
X93982715Y-41715542D01*
X93858732Y-41704694D01*
X93848809Y-41703428D01*
X93829833Y-41700235D01*
X93829828Y-41700235D01*
X93825040Y-41699429D01*
X93818741Y-41699352D01*
X93817360Y-41699335D01*
X93817356Y-41699335D01*
X93812501Y-41699276D01*
X93788216Y-41702754D01*
X93784913Y-41703227D01*
X93767050Y-41704500D01*
X80865706Y-41704500D01*
X80844802Y-41702754D01*
X80841636Y-41702221D01*
X80825038Y-41699429D01*
X80818680Y-41699351D01*
X80817357Y-41699335D01*
X80817353Y-41699335D01*
X80812499Y-41699276D01*
X80807692Y-41699965D01*
X80807685Y-41699965D01*
X80791280Y-41702315D01*
X80784398Y-41703109D01*
X80750505Y-41706074D01*
X80636793Y-41716023D01*
X80631479Y-41717447D01*
X80631478Y-41717447D01*
X80471737Y-41760249D01*
X80471735Y-41760250D01*
X80466427Y-41761672D01*
X80461447Y-41763994D01*
X80461445Y-41763995D01*
X80311556Y-41833890D01*
X80311553Y-41833892D01*
X80306575Y-41836213D01*
X80162096Y-41937378D01*
X80037378Y-42062096D01*
X79936213Y-42206575D01*
X79861672Y-42366427D01*
X79816023Y-42536793D01*
X79815544Y-42542273D01*
X79815542Y-42542285D01*
X79804694Y-42666268D01*
X79803428Y-42676191D01*
X79799429Y-42699960D01*
X79799276Y-42712499D01*
X79801065Y-42724991D01*
X79803227Y-42740087D01*
X79804500Y-42757950D01*
X79804500Y-55659294D01*
X79802754Y-55680198D01*
X79799429Y-55699962D01*
X79799276Y-55712501D01*
X75775724Y-55712501D01*
X75771773Y-55684913D01*
X75770500Y-55667050D01*
X75770500Y-42765706D01*
X75772246Y-42744802D01*
X75774764Y-42729834D01*
X75775571Y-42725038D01*
X75775724Y-42712499D01*
X75775035Y-42707692D01*
X75775035Y-42707685D01*
X75772685Y-42691280D01*
X75771891Y-42684398D01*
X75759456Y-42542273D01*
X75758977Y-42536793D01*
X75713328Y-42366427D01*
X75638787Y-42206575D01*
X75537622Y-42062096D01*
X75412904Y-41937378D01*
X75268425Y-41836213D01*
X75263447Y-41833892D01*
X75263444Y-41833890D01*
X75113555Y-41763995D01*
X75113553Y-41763994D01*
X75108573Y-41761672D01*
X75103265Y-41760250D01*
X75103263Y-41760249D01*
X74943522Y-41717447D01*
X74943521Y-41717447D01*
X74938207Y-41716023D01*
X74932721Y-41715543D01*
X74932715Y-41715542D01*
X74808732Y-41704694D01*
X74798809Y-41703428D01*
X74779833Y-41700235D01*
X74779828Y-41700235D01*
X74775040Y-41699429D01*
X74768741Y-41699352D01*
X74767360Y-41699335D01*
X74767356Y-41699335D01*
X74762501Y-41699276D01*
X74738216Y-41702754D01*
X74734913Y-41703227D01*
X74717050Y-41704500D01*
X61815706Y-41704500D01*
X61794802Y-41702754D01*
X61791636Y-41702221D01*
X61775038Y-41699429D01*
X61768680Y-41699351D01*
X61767357Y-41699335D01*
X61767353Y-41699335D01*
X61762499Y-41699276D01*
X61757692Y-41699965D01*
X61757685Y-41699965D01*
X61741280Y-41702315D01*
X61734398Y-41703109D01*
X61700505Y-41706074D01*
X61586793Y-41716023D01*
X61581479Y-41717447D01*
X61581478Y-41717447D01*
X61421737Y-41760249D01*
X61421735Y-41760250D01*
X61416427Y-41761672D01*
X61411447Y-41763994D01*
X61411445Y-41763995D01*
X61261556Y-41833890D01*
X61261553Y-41833892D01*
X61256575Y-41836213D01*
X61112096Y-41937378D01*
X60987378Y-42062096D01*
X60886213Y-42206575D01*
X60811672Y-42366427D01*
X60766023Y-42536793D01*
X60765544Y-42542273D01*
X60765542Y-42542285D01*
X60754694Y-42666268D01*
X60753428Y-42676191D01*
X60749429Y-42699960D01*
X60749276Y-42712499D01*
X60751065Y-42724991D01*
X60753227Y-42740087D01*
X60754500Y-42757950D01*
X60754500Y-55659294D01*
X60752754Y-55680198D01*
X60749429Y-55699962D01*
X60749276Y-55712501D01*
X56725724Y-55712501D01*
X56721773Y-55684913D01*
X56720500Y-55667050D01*
X56720500Y-42765706D01*
X56722246Y-42744802D01*
X56724764Y-42729834D01*
X56725571Y-42725038D01*
X56725724Y-42712499D01*
X56725035Y-42707692D01*
X56725035Y-42707685D01*
X56722685Y-42691280D01*
X56721891Y-42684398D01*
X56709456Y-42542273D01*
X56708977Y-42536793D01*
X56663328Y-42366427D01*
X56588787Y-42206575D01*
X56487622Y-42062096D01*
X56362904Y-41937378D01*
X56218425Y-41836213D01*
X56213447Y-41833892D01*
X56213444Y-41833890D01*
X56063555Y-41763995D01*
X56063553Y-41763994D01*
X56058573Y-41761672D01*
X56053265Y-41760250D01*
X56053263Y-41760249D01*
X55893522Y-41717447D01*
X55893521Y-41717447D01*
X55888207Y-41716023D01*
X55882721Y-41715543D01*
X55882715Y-41715542D01*
X55758732Y-41704694D01*
X55748809Y-41703428D01*
X55729833Y-41700235D01*
X55729828Y-41700235D01*
X55725040Y-41699429D01*
X55718741Y-41699352D01*
X55717360Y-41699335D01*
X55717356Y-41699335D01*
X55712501Y-41699276D01*
X55688216Y-41702754D01*
X55684913Y-41703227D01*
X55667050Y-41704500D01*
X42765706Y-41704500D01*
X42744802Y-41702754D01*
X42741636Y-41702221D01*
X42725038Y-41699429D01*
X42718680Y-41699351D01*
X42717357Y-41699335D01*
X42717353Y-41699335D01*
X42712499Y-41699276D01*
X42707692Y-41699965D01*
X42707685Y-41699965D01*
X42691280Y-41702315D01*
X42684398Y-41703109D01*
X42650505Y-41706074D01*
X42536793Y-41716023D01*
X42531479Y-41717447D01*
X42531478Y-41717447D01*
X42371737Y-41760249D01*
X42371735Y-41760250D01*
X42366427Y-41761672D01*
X42361447Y-41763994D01*
X42361445Y-41763995D01*
X42211556Y-41833890D01*
X42211553Y-41833892D01*
X42206575Y-41836213D01*
X42062096Y-41937378D01*
X41937378Y-42062096D01*
X41836213Y-42206575D01*
X41761672Y-42366427D01*
X41716023Y-42536793D01*
X41715544Y-42542273D01*
X41715542Y-42542285D01*
X41704694Y-42666268D01*
X41703428Y-42676191D01*
X41699429Y-42699960D01*
X41699276Y-42712499D01*
X41701065Y-42724991D01*
X41703227Y-42740087D01*
X41704500Y-42757950D01*
X41704500Y-55659294D01*
X41702754Y-55680198D01*
X41699429Y-55699962D01*
X41699276Y-55712501D01*
X38925499Y-55712501D01*
X38925499Y-39736827D01*
X38926999Y-39717442D01*
X38929304Y-39702641D01*
X38929304Y-39702638D01*
X38930685Y-39693769D01*
X38929247Y-39682771D01*
X38928790Y-39654087D01*
X38938924Y-39551194D01*
X38943743Y-39526968D01*
X38979903Y-39407766D01*
X38989355Y-39384946D01*
X39048069Y-39275099D01*
X39061792Y-39254561D01*
X39140811Y-39158276D01*
X39158276Y-39140811D01*
X39254561Y-39061792D01*
X39275099Y-39048069D01*
X39384946Y-38989355D01*
X39407766Y-38979903D01*
X39526968Y-38943743D01*
X39551192Y-38938924D01*
X39647336Y-38929455D01*
X39663375Y-38929907D01*
X39663384Y-38929194D01*
X39672357Y-38929304D01*
X39681229Y-38930685D01*
X39690131Y-38929521D01*
X39690134Y-38929521D01*
X39712750Y-38926563D01*
X39729088Y-38925499D01*
X115838171Y-38925499D01*
X115857556Y-38926999D01*
G37*
%TD.AperFunction*%
M02*
