  0
SECTION
  2
HEADER
  9
$ACADVER
  1
AC1009
  9
$EXTMIN
 10
0.0
 20
0.0
 30
0.0
  9
$EXTMAX
 10
1000.0
 20
1000.0
 30
0.0
  9
$FILLMODE
 70
 0
  9
$SPLFRAME
 70
 1
  0
ENDSEC
  0
SECTION
  2
TABLES
  0
TABLE
  2
LAYER
 70
1
  0
LAYER
  2
0
 70
     0
 62
     7
  6
CONTINUOUS
  0
ENDTAB
  0
ENDSEC
  0
SECTION
  2
ENTITIES
  0
LINE
  8
0
 62
     0
 10
0.0950846
 20
119.496
 30
0.0
 11
76.2953
 21
119.496
 31
0.0
  0
LINE
  8
0
 62
     0
 10
76.2953
 20
119.496
 30
0.0
 11
76.2953
 21
0.434082
 31
0.0
  0
LINE
  8
0
 62
     0
 10
76.2953
 20
0.434082
 30
0.0
 11
0.0950846
 21
0.434082
 31
0.0
  0
LINE
  8
0
 62
     0
 10
0.0950846
 20
0.434082
 30
0.0
 11
0.0950846
 21
119.496
 31
0.0
  0
LINE
  8
0
 62
     0
 10
40.7197
 20
16.9595
 30
0.0
 11
54.719
 21
16.9595
 31
0.0
  0
LINE
  8
0
 62
     0
 10
54.719
 20
16.9595
 30
0.0
 11
54.719
 21
2.96003
 31
0.0
  0
LINE
  8
0
 62
     0
 10
54.719
 20
2.96003
 30
0.0
 11
40.7197
 21
2.96003
 31
0.0
  0
LINE
  8
0
 62
     0
 10
40.7197
 20
2.96003
 30
0.0
 11
40.7197
 21
16.9595
 31
0.0
  0
LINE
  8
0
 62
     0
 10
5.59347
 20
17.9296
 30
0.0
 11
5.59484
 21
16.7308
 31
0.0
  0
LINE
  8
0
 62
     0
 10
5.59484
 20
16.7308
 30
0.0
 11
3.86955
 21
16.7308
 31
0.0
  0
LINE
  8
0
 62
     0
 10
3.86955
 20
16.7308
 30
0.0
 11
3.86955
 21
10.4607
 31
0.0
  0
LINE
  8
0
 62
     0
 10
3.86955
 20
10.4607
 30
0.0
 11
3.04409
 21
10.4607
 31
0.0
  0
LINE
  8
0
 62
     0
 10
3.04409
 20
10.4607
 30
0.0
 11
3.04409
 21
7.6605
 31
0.0
  0
LINE
  8
0
 62
     0
 10
3.04409
 20
7.6605
 30
0.0
 11
3.86955
 21
7.6605
 31
0.0
  0
LINE
  8
0
 62
     0
 10
3.86955
 20
7.6605
 30
0.0
 11
3.86955
 21
4.4304
 31
0.0
  0
LINE
  8
0
 62
     0
 10
3.86955
 20
4.4304
 30
0.0
 11
10.6192
 21
4.4304
 31
0.0
  0
LINE
  8
0
 62
     0
 10
10.6192
 20
4.4304
 30
0.0
 11
10.6192
 21
7.6605
 31
0.0
  0
LINE
  8
0
 62
     0
 10
10.6192
 20
7.6605
 30
0.0
 11
12.1447
 21
7.6605
 31
0.0
  0
LINE
  8
0
 62
     0
 10
12.1447
 20
7.6605
 30
0.0
 11
12.1447
 21
2.96003
 31
0.0
  0
LINE
  8
0
 62
     0
 10
12.1447
 20
2.96003
 30
0.0
 11
26.1441
 21
2.96003
 31
0.0
  0
LINE
  8
0
 62
     0
 10
26.1441
 20
2.96003
 30
0.0
 11
26.1441
 21
7.6605
 31
0.0
  0
LINE
  8
0
 62
     0
 10
26.1441
 20
7.6605
 30
0.0
 11
27.6696
 21
7.6605
 31
0.0
  0
LINE
  8
0
 62
     0
 10
27.6696
 20
7.6605
 30
0.0
 11
27.6696
 21
4.4304
 31
0.0
  0
LINE
  8
0
 62
     0
 10
27.6696
 20
4.4304
 30
0.0
 11
34.4193
 21
4.4304
 31
0.0
  0
LINE
  8
0
 62
     0
 10
34.4193
 20
4.4304
 30
0.0
 11
34.4193
 21
7.6605
 31
0.0
  0
LINE
  8
0
 62
     0
 10
34.4193
 20
7.6605
 30
0.0
 11
35.2447
 21
7.6605
 31
0.0
  0
LINE
  8
0
 62
     0
 10
35.2447
 20
7.6605
 30
0.0
 11
35.2447
 21
10.4607
 31
0.0
  0
LINE
  8
0
 62
     0
 10
35.2447
 20
10.4607
 30
0.0
 11
34.4193
 21
10.4607
 31
0.0
  0
LINE
  8
0
 62
     0
 10
34.4193
 20
10.4607
 30
0.0
 11
34.4193
 21
16.7308
 31
0.0
  0
LINE
  8
0
 62
     0
 10
34.4193
 20
16.7308
 30
0.0
 11
32.694
 21
16.7308
 31
0.0
  0
LINE
  8
0
 62
     0
 10
32.694
 20
16.7308
 30
0.0
 11
32.694
 21
17.9296
 31
0.0
  0
LINE
  8
0
 62
     0
 10
32.694
 20
17.9296
 30
0.0
 11
29.3949
 21
17.9296
 31
0.0
  0
LINE
  8
0
 62
     0
 10
29.3949
 20
17.9296
 30
0.0
 11
29.3949
 21
16.7308
 31
0.0
  0
LINE
  8
0
 62
     0
 10
29.3949
 20
16.7308
 30
0.0
 11
27.6696
 21
16.7308
 31
0.0
  0
LINE
  8
0
 62
     0
 10
27.6696
 20
16.7308
 30
0.0
 11
27.6696
 21
12.2604
 31
0.0
  0
LINE
  8
0
 62
     0
 10
27.6696
 20
12.2604
 30
0.0
 11
26.1441
 21
12.2604
 31
0.0
  0
LINE
  8
0
 62
     0
 10
26.1441
 20
12.2604
 30
0.0
 11
26.1441
 21
16.9595
 31
0.0
  0
LINE
  8
0
 62
     0
 10
26.1441
 20
16.9595
 30
0.0
 11
12.1447
 21
16.9595
 31
0.0
  0
LINE
  8
0
 62
     0
 10
12.1447
 20
16.9595
 30
0.0
 11
12.1447
 21
12.2604
 31
0.0
  0
LINE
  8
0
 62
     0
 10
12.1447
 20
12.2604
 30
0.0
 11
10.6192
 21
12.2604
 31
0.0
  0
LINE
  8
0
 62
     0
 10
10.6192
 20
12.2604
 30
0.0
 11
10.6192
 21
16.7308
 31
0.0
  0
LINE
  8
0
 62
     0
 10
10.6192
 20
16.7308
 30
0.0
 11
8.89385
 21
16.7308
 31
0.0
  0
LINE
  8
0
 62
     0
 10
8.89385
 20
16.7308
 30
0.0
 11
8.89385
 21
17.9296
 31
0.0
  0
LINE
  8
0
 62
     0
 10
8.89385
 20
17.9296
 30
0.0
 11
5.59347
 21
17.9296
 31
0.0
  0
LINE
  8
0
 62
     0
 10
66.27
 20
35.585
 30
0.0
 11
66.27
 21
34.7597
 31
0.0
  0
LINE
  8
0
 62
     0
 10
66.27
 20
34.7597
 30
0.0
 11
59.9997
 21
34.7597
 31
0.0
  0
LINE
  8
0
 62
     0
 10
59.9997
 20
34.7597
 30
0.0
 11
59.9997
 21
33.0357
 31
0.0
  0
LINE
  8
0
 62
     0
 10
59.9997
 20
33.0357
 30
0.0
 11
58.7996
 21
33.0357
 31
0.0
  0
LINE
  8
0
 62
     0
 10
58.7996
 20
33.0357
 30
0.0
 11
58.7996
 21
29.7353
 31
0.0
  0
LINE
  8
0
 62
     0
 10
58.7996
 20
29.7353
 30
0.0
 11
59.9997
 21
29.7353
 31
0.0
  0
LINE
  8
0
 62
     0
 10
59.9997
 20
29.7353
 30
0.0
 11
59.9997
 21
28.01
 31
0.0
  0
LINE
  8
0
 62
     0
 10
59.9997
 20
28.01
 30
0.0
 11
64.4701
 21
28.01
 31
0.0
  0
LINE
  8
0
 62
     0
 10
64.4701
 20
28.01
 30
0.0
 11
64.4701
 21
26.4845
 31
0.0
  0
LINE
  8
0
 62
     0
 10
64.4701
 20
26.4845
 30
0.0
 11
59.7697
 21
26.4845
 31
0.0
  0
LINE
  8
0
 62
     0
 10
59.7697
 20
26.4845
 30
0.0
 11
59.7697
 21
12.485
 31
0.0
  0
LINE
  8
0
 62
     0
 10
59.7697
 20
12.485
 30
0.0
 11
64.4701
 21
12.485
 31
0.0
  0
LINE
  8
0
 62
     0
 10
64.4701
 20
12.485
 30
0.0
 11
64.4701
 21
10.9595
 31
0.0
  0
LINE
  8
0
 62
     0
 10
64.4701
 20
10.9595
 30
0.0
 11
59.9997
 21
10.9595
 31
0.0
  0
LINE
  8
0
 62
     0
 10
59.9997
 20
10.9595
 30
0.0
 11
59.9997
 21
9.23562
 31
0.0
  0
LINE
  8
0
 62
     0
 10
59.9997
 20
9.23562
 30
0.0
 11
58.7996
 21
9.23562
 31
0.0
  0
LINE
  8
0
 62
     0
 10
58.7996
 20
9.23562
 30
0.0
 11
58.7996
 21
5.9352
 31
0.0
  0
LINE
  8
0
 62
     0
 10
58.7996
 20
5.9352
 30
0.0
 11
59.9997
 21
5.9352
 31
0.0
  0
LINE
  8
0
 62
     0
 10
59.9997
 20
5.9352
 30
0.0
 11
59.9997
 21
4.20991
 31
0.0
  0
LINE
  8
0
 62
     0
 10
59.9997
 20
4.20991
 30
0.0
 11
66.27
 21
4.20991
 31
0.0
  0
LINE
  8
0
 62
     0
 10
66.27
 20
4.20991
 30
0.0
 11
66.27
 21
3.38584
 31
0.0
  0
LINE
  8
0
 62
     0
 10
66.27
 20
3.38584
 30
0.0
 11
69.07
 21
3.38584
 31
0.0
  0
LINE
  8
0
 62
     0
 10
69.07
 20
3.38584
 30
0.0
 11
69.07
 21
4.20991
 31
0.0
  0
LINE
  8
0
 62
     0
 10
69.07
 20
4.20991
 30
0.0
 11
72.3
 21
4.20991
 31
0.0
  0
LINE
  8
0
 62
     0
 10
72.3
 20
4.20991
 30
0.0
 11
72.3
 21
10.9595
 31
0.0
  0
LINE
  8
0
 62
     0
 10
72.3
 20
10.9595
 30
0.0
 11
69.07
 21
10.9595
 31
0.0
  0
LINE
  8
0
 62
     0
 10
69.07
 20
10.9595
 30
0.0
 11
69.07
 21
12.485
 31
0.0
  0
LINE
  8
0
 62
     0
 10
69.07
 20
12.485
 30
0.0
 11
73.769
 21
12.485
 31
0.0
  0
LINE
  8
0
 62
     0
 10
73.769
 20
12.485
 30
0.0
 11
73.769
 21
26.4845
 31
0.0
  0
LINE
  8
0
 62
     0
 10
73.769
 20
26.4845
 30
0.0
 11
69.07
 21
26.4845
 31
0.0
  0
LINE
  8
0
 62
     0
 10
69.07
 20
26.4845
 30
0.0
 11
69.07
 21
28.01
 31
0.0
  0
LINE
  8
0
 62
     0
 10
69.07
 20
28.01
 30
0.0
 11
72.3
 21
28.01
 31
0.0
  0
LINE
  8
0
 62
     0
 10
72.3
 20
28.01
 30
0.0
 11
72.3
 21
34.7597
 31
0.0
  0
LINE
  8
0
 62
     0
 10
72.3
 20
34.7597
 30
0.0
 11
69.07
 21
34.7597
 31
0.0
  0
LINE
  8
0
 62
     0
 10
69.07
 20
34.7597
 30
0.0
 11
69.07
 21
35.585
 31
0.0
  0
LINE
  8
0
 62
     0
 10
69.07
 20
35.585
 30
0.0
 11
66.27
 21
35.585
 31
0.0
  0
LINE
  8
0
 62
     0
 10
40.7197
 20
36.0094
 30
0.0
 11
54.719
 21
36.0094
 31
0.0
  0
LINE
  8
0
 62
     0
 10
54.719
 20
36.0094
 30
0.0
 11
54.719
 21
22.01
 31
0.0
  0
LINE
  8
0
 62
     0
 10
54.719
 20
22.01
 30
0.0
 11
40.7197
 21
22.01
 31
0.0
  0
LINE
  8
0
 62
     0
 10
40.7197
 20
22.01
 30
0.0
 11
40.7197
 21
36.0094
 31
0.0
  0
LINE
  8
0
 62
     0
 10
21.6697
 20
36.0094
 30
0.0
 11
35.669
 21
36.0094
 31
0.0
  0
LINE
  8
0
 62
     0
 10
35.669
 20
36.0094
 30
0.0
 11
35.669
 21
22.01
 31
0.0
  0
LINE
  8
0
 62
     0
 10
35.669
 20
22.01
 30
0.0
 11
21.6697
 21
22.01
 31
0.0
  0
LINE
  8
0
 62
     0
 10
21.6697
 20
22.01
 30
0.0
 11
21.6697
 21
36.0094
 31
0.0
  0
LINE
  8
0
 62
     0
 10
2.61965
 20
36.0094
 30
0.0
 11
16.6192
 21
36.0094
 31
0.0
  0
LINE
  8
0
 62
     0
 10
16.6192
 20
36.0094
 30
0.0
 11
16.6192
 21
22.01
 31
0.0
  0
LINE
  8
0
 62
     0
 10
16.6192
 20
22.01
 30
0.0
 11
2.61965
 21
22.01
 31
0.0
  0
LINE
  8
0
 62
     0
 10
2.61965
 20
22.01
 30
0.0
 11
2.61965
 21
36.0094
 31
0.0
  0
LINE
  8
0
 62
     0
 10
40.7197
 20
55.0594
 30
0.0
 11
54.719
 21
55.0594
 31
0.0
  0
LINE
  8
0
 62
     0
 10
54.719
 20
55.0594
 30
0.0
 11
54.719
 21
41.0602
 31
0.0
  0
LINE
  8
0
 62
     0
 10
54.719
 20
41.0602
 30
0.0
 11
40.7197
 21
41.0602
 31
0.0
  0
LINE
  8
0
 62
     0
 10
40.7197
 20
41.0602
 30
0.0
 11
40.7197
 21
55.0594
 31
0.0
  0
LINE
  8
0
 62
     0
 10
21.6697
 20
55.0594
 30
0.0
 11
35.669
 21
55.0594
 31
0.0
  0
LINE
  8
0
 62
     0
 10
35.669
 20
55.0594
 30
0.0
 11
35.669
 21
41.0602
 31
0.0
  0
LINE
  8
0
 62
     0
 10
35.669
 20
41.0602
 30
0.0
 11
21.6697
 21
41.0602
 31
0.0
  0
LINE
  8
0
 62
     0
 10
21.6697
 20
41.0602
 30
0.0
 11
21.6697
 21
55.0594
 31
0.0
  0
LINE
  8
0
 62
     0
 10
2.61965
 20
55.0594
 30
0.0
 11
16.6192
 21
55.0594
 31
0.0
  0
LINE
  8
0
 62
     0
 10
16.6192
 20
55.0594
 30
0.0
 11
16.6192
 21
41.0602
 31
0.0
  0
LINE
  8
0
 62
     0
 10
16.6192
 20
41.0602
 30
0.0
 11
2.61965
 21
41.0602
 31
0.0
  0
LINE
  8
0
 62
     0
 10
2.61965
 20
41.0602
 30
0.0
 11
2.61965
 21
55.0594
 31
0.0
  0
LINE
  8
0
 62
     0
 10
66.27
 20
73.685
 30
0.0
 11
66.27
 21
72.8595
 31
0.0
  0
LINE
  8
0
 62
     0
 10
66.27
 20
72.8595
 30
0.0
 11
59.9997
 21
72.8595
 31
0.0
  0
LINE
  8
0
 62
     0
 10
59.9997
 20
72.8595
 30
0.0
 11
59.9997
 21
71.1359
 31
0.0
  0
LINE
  8
0
 62
     0
 10
59.9997
 20
71.1359
 30
0.0
 11
58.7996
 21
71.1359
 31
0.0
  0
LINE
  8
0
 62
     0
 10
58.7996
 20
71.1359
 30
0.0
 11
58.7996
 21
67.8353
 31
0.0
  0
LINE
  8
0
 62
     0
 10
58.7996
 20
67.8353
 30
0.0
 11
59.9997
 21
67.8353
 31
0.0
  0
LINE
  8
0
 62
     0
 10
59.9997
 20
67.8353
 30
0.0
 11
59.9997
 21
66.1098
 31
0.0
  0
LINE
  8
0
 62
     0
 10
59.9997
 20
66.1098
 30
0.0
 11
64.4701
 21
66.1098
 31
0.0
  0
LINE
  8
0
 62
     0
 10
64.4701
 20
66.1098
 30
0.0
 11
64.4701
 21
64.5844
 31
0.0
  0
LINE
  8
0
 62
     0
 10
64.4701
 20
64.5844
 30
0.0
 11
59.7697
 21
64.5844
 31
0.0
  0
LINE
  8
0
 62
     0
 10
59.7697
 20
64.5844
 30
0.0
 11
59.7697
 21
50.5852
 31
0.0
  0
LINE
  8
0
 62
     0
 10
59.7697
 20
50.5852
 30
0.0
 11
64.4701
 21
50.5852
 31
0.0
  0
LINE
  8
0
 62
     0
 10
64.4701
 20
50.5852
 30
0.0
 11
64.4701
 21
49.0594
 31
0.0
  0
LINE
  8
0
 62
     0
 10
64.4701
 20
49.0594
 30
0.0
 11
59.9997
 21
49.0594
 31
0.0
  0
LINE
  8
0
 62
     0
 10
59.9997
 20
49.0594
 30
0.0
 11
59.9997
 21
47.3357
 31
0.0
  0
LINE
  8
0
 62
     0
 10
59.9997
 20
47.3357
 30
0.0
 11
58.7996
 21
47.3357
 31
0.0
  0
LINE
  8
0
 62
     0
 10
58.7996
 20
47.3357
 30
0.0
 11
58.7996
 21
44.0351
 31
0.0
  0
LINE
  8
0
 62
     0
 10
58.7996
 20
44.0351
 30
0.0
 11
59.9997
 21
44.0351
 31
0.0
  0
LINE
  8
0
 62
     0
 10
59.9997
 20
44.0351
 30
0.0
 11
59.9997
 21
42.31
 31
0.0
  0
LINE
  8
0
 62
     0
 10
59.9997
 20
42.31
 30
0.0
 11
66.27
 21
42.31
 31
0.0
  0
LINE
  8
0
 62
     0
 10
66.27
 20
42.31
 30
0.0
 11
66.27
 21
41.486
 31
0.0
  0
LINE
  8
0
 62
     0
 10
66.27
 20
41.486
 30
0.0
 11
69.07
 21
41.486
 31
0.0
  0
LINE
  8
0
 62
     0
 10
69.07
 20
41.486
 30
0.0
 11
69.07
 21
42.31
 31
0.0
  0
LINE
  8
0
 62
     0
 10
69.07
 20
42.31
 30
0.0
 11
72.3
 21
42.31
 31
0.0
  0
LINE
  8
0
 62
     0
 10
72.3
 20
42.31
 30
0.0
 11
72.3
 21
49.0594
 31
0.0
  0
LINE
  8
0
 62
     0
 10
72.3
 20
49.0594
 30
0.0
 11
69.07
 21
49.0594
 31
0.0
  0
LINE
  8
0
 62
     0
 10
69.07
 20
49.0594
 30
0.0
 11
69.07
 21
50.5852
 31
0.0
  0
LINE
  8
0
 62
     0
 10
69.07
 20
50.5852
 30
0.0
 11
73.769
 21
50.5852
 31
0.0
  0
LINE
  8
0
 62
     0
 10
73.769
 20
50.5852
 30
0.0
 11
73.769
 21
64.5844
 31
0.0
  0
LINE
  8
0
 62
     0
 10
73.769
 20
64.5844
 30
0.0
 11
69.07
 21
64.5844
 31
0.0
  0
LINE
  8
0
 62
     0
 10
69.07
 20
64.5844
 30
0.0
 11
69.07
 21
66.1098
 31
0.0
  0
LINE
  8
0
 62
     0
 10
69.07
 20
66.1098
 30
0.0
 11
72.3
 21
66.1098
 31
0.0
  0
LINE
  8
0
 62
     0
 10
72.3
 20
66.1098
 30
0.0
 11
72.3
 21
72.8595
 31
0.0
  0
LINE
  8
0
 62
     0
 10
72.3
 20
72.8595
 30
0.0
 11
69.07
 21
72.8595
 31
0.0
  0
LINE
  8
0
 62
     0
 10
69.07
 20
72.8595
 30
0.0
 11
69.07
 21
73.685
 31
0.0
  0
LINE
  8
0
 62
     0
 10
69.07
 20
73.685
 30
0.0
 11
66.27
 21
73.685
 31
0.0
  0
LINE
  8
0
 62
     0
 10
40.7197
 20
74.1094
 30
0.0
 11
54.719
 21
74.1094
 31
0.0
  0
LINE
  8
0
 62
     0
 10
54.719
 20
74.1094
 30
0.0
 11
54.719
 21
60.1102
 31
0.0
  0
LINE
  8
0
 62
     0
 10
54.719
 20
60.1102
 30
0.0
 11
40.7197
 21
60.1102
 31
0.0
  0
LINE
  8
0
 62
     0
 10
40.7197
 20
60.1102
 30
0.0
 11
40.7197
 21
74.1094
 31
0.0
  0
LINE
  8
0
 62
     0
 10
21.6697
 20
74.1094
 30
0.0
 11
35.669
 21
74.1094
 31
0.0
  0
LINE
  8
0
 62
     0
 10
35.669
 20
74.1094
 30
0.0
 11
35.669
 21
60.1102
 31
0.0
  0
LINE
  8
0
 62
     0
 10
35.669
 20
60.1102
 30
0.0
 11
21.6697
 21
60.1102
 31
0.0
  0
LINE
  8
0
 62
     0
 10
21.6697
 20
60.1102
 30
0.0
 11
21.6697
 21
74.1094
 31
0.0
  0
LINE
  8
0
 62
     0
 10
2.61965
 20
74.1094
 30
0.0
 11
16.6192
 21
74.1094
 31
0.0
  0
LINE
  8
0
 62
     0
 10
16.6192
 20
74.1094
 30
0.0
 11
16.6192
 21
60.1102
 31
0.0
  0
LINE
  8
0
 62
     0
 10
16.6192
 20
60.1102
 30
0.0
 11
2.61965
 21
60.1102
 31
0.0
  0
LINE
  8
0
 62
     0
 10
2.61965
 20
60.1102
 30
0.0
 11
2.61965
 21
74.1094
 31
0.0
  0
LINE
  8
0
 62
     0
 10
59.7697
 20
93.1594
 30
0.0
 11
73.769
 21
93.1594
 31
0.0
  0
LINE
  8
0
 62
     0
 10
73.769
 20
93.1594
 30
0.0
 11
73.769
 21
79.1602
 31
0.0
  0
LINE
  8
0
 62
     0
 10
73.769
 20
79.1602
 30
0.0
 11
59.7697
 21
79.1602
 31
0.0
  0
LINE
  8
0
 62
     0
 10
59.7697
 20
79.1602
 30
0.0
 11
59.7697
 21
93.1594
 31
0.0
  0
LINE
  8
0
 62
     0
 10
40.7197
 20
93.1594
 30
0.0
 11
54.719
 21
93.1594
 31
0.0
  0
LINE
  8
0
 62
     0
 10
54.719
 20
93.1594
 30
0.0
 11
54.719
 21
79.1602
 31
0.0
  0
LINE
  8
0
 62
     0
 10
54.719
 20
79.1602
 30
0.0
 11
40.7197
 21
79.1602
 31
0.0
  0
LINE
  8
0
 62
     0
 10
40.7197
 20
79.1602
 30
0.0
 11
40.7197
 21
93.1594
 31
0.0
  0
LINE
  8
0
 62
     0
 10
21.6697
 20
93.1594
 30
0.0
 11
35.669
 21
93.1594
 31
0.0
  0
LINE
  8
0
 62
     0
 10
35.669
 20
93.1594
 30
0.0
 11
35.669
 21
79.1602
 31
0.0
  0
LINE
  8
0
 62
     0
 10
35.669
 20
79.1602
 30
0.0
 11
21.6697
 21
79.1602
 31
0.0
  0
LINE
  8
0
 62
     0
 10
21.6697
 20
79.1602
 30
0.0
 11
21.6697
 21
93.1594
 31
0.0
  0
LINE
  8
0
 62
     0
 10
2.61965
 20
93.1594
 30
0.0
 11
16.6192
 21
93.1594
 31
0.0
  0
LINE
  8
0
 62
     0
 10
16.6192
 20
93.1594
 30
0.0
 11
16.6192
 21
79.1602
 31
0.0
  0
LINE
  8
0
 62
     0
 10
16.6192
 20
79.1602
 30
0.0
 11
2.61965
 21
79.1602
 31
0.0
  0
LINE
  8
0
 62
     0
 10
2.61965
 20
79.1602
 30
0.0
 11
2.61965
 21
93.1594
 31
0.0
  0
LINE
  8
0
 62
     0
 10
59.7697
 20
116.972
 30
0.0
 11
73.769
 21
116.972
 31
0.0
  0
LINE
  8
0
 62
     0
 10
73.769
 20
116.972
 30
0.0
 11
73.769
 21
102.973
 31
0.0
  0
LINE
  8
0
 62
     0
 10
73.769
 20
102.973
 30
0.0
 11
59.7697
 21
102.973
 31
0.0
  0
LINE
  8
0
 62
     0
 10
59.7697
 20
102.973
 30
0.0
 11
59.7697
 21
116.972
 31
0.0
  0
LINE
  8
0
 62
     0
 10
40.7197
 20
116.972
 30
0.0
 11
54.719
 21
116.972
 31
0.0
  0
LINE
  8
0
 62
     0
 10
54.719
 20
116.972
 30
0.0
 11
54.719
 21
102.973
 31
0.0
  0
LINE
  8
0
 62
     0
 10
54.719
 20
102.973
 30
0.0
 11
40.7197
 21
102.973
 31
0.0
  0
LINE
  8
0
 62
     0
 10
40.7197
 20
102.973
 30
0.0
 11
40.7197
 21
116.972
 31
0.0
  0
LINE
  8
0
 62
     0
 10
21.6697
 20
116.972
 30
0.0
 11
35.669
 21
116.972
 31
0.0
  0
LINE
  8
0
 62
     0
 10
35.669
 20
116.972
 30
0.0
 11
35.669
 21
102.973
 31
0.0
  0
LINE
  8
0
 62
     0
 10
35.669
 20
102.973
 30
0.0
 11
21.6697
 21
102.973
 31
0.0
  0
LINE
  8
0
 62
     0
 10
21.6697
 20
102.973
 30
0.0
 11
21.6697
 21
116.972
 31
0.0
  0
LINE
  8
0
 62
     0
 10
2.61965
 20
116.972
 30
0.0
 11
16.6192
 21
116.972
 31
0.0
  0
LINE
  8
0
 62
     0
 10
16.6192
 20
116.972
 30
0.0
 11
16.6192
 21
102.973
 31
0.0
  0
LINE
  8
0
 62
     0
 10
16.6192
 20
102.973
 30
0.0
 11
2.61965
 21
102.973
 31
0.0
  0
LINE
  8
0
 62
     0
 10
2.61965
 20
102.973
 30
0.0
 11
2.61965
 21
116.972
 31
0.0
  0
ENDSEC
  0
EOF
